ply
format ascii 1.0
element vertex 963
property float x
property float y
property float z
element face 1083
property list uchar int vertex_index
end_header
-10.136556 -96.101494 -24.153463
8.068407 -106.496765 -26.862942
9.49479 -92.019287 -38.589031
-10.531129 -87.559296 -37.855034
26.94492 -89.023651 2.690539
18.45204 -103.946091 -3.958584
-2.49782 -102.116959 -26.627516
-0.95809 -99.236603 -34.288906
-10.308064 -93.674995 -30.995928
19.815891 -96.833145 8.564652
12.459198 -98.9534 4.453597
9.305859 -104.359985 -7.274822
-1.088017 -79.792175 -43.532417
7.855089 -79.010498 -40.830818
-0.520756 -91.619301 -39.965099
-11.001259 -77.69043 -43.186172
-5.68495 -99.692657 -17.844793
24.624594 -98.461449 0.070719
4.244252 -105.710678 -17.944674
17.440735 -66.569321 -32.810265
17.252338 -88.233322 -34.59193
14.103431 -74.049858 -36.925785
-6.981666 -98.920975 -25.467503
-6.212714 -98.573402 -29.210302
-10.333289 -95.218246 -27.273064
-6.426416 -72.700928 -45.408051
-1.73701 -73.077301 -44.709534
13.528371 -106.939674 -25.92083
14.586184 -104.587967 -29.646275
9.205939 -104.803146 -30.733791
-5.823657 -93.87664 -36.327194
-0.573233 -96.072983 -37.362751
-5.578633 -90.007874 -39.349476
-5.679011 -84.995712 -41.839607
-10.728344 -83.214699 -40.653412
27.058867 -92.673782 -2.755681
19.342726 -100.674713 2.303876
22.517044 -98.1614 4.345421
22.052872 -101.780922 -1.9054
4.32352 -102.894623 -8.231812
7.036388 -105.585159 -12.707526
1.81953 -103.564156 -13.525885
-0.806883 -103.152046 -18.142584
-3.097589 -100.586922 -13.451803
19.293419 -73.820496 -31.444805
13.813268 -90.627289 -36.811958
6.49202 -71.121994 -41.80257
11.434577 -77.039612 -38.915081
9.716108 -69.168526 -39.992256
2.611563 -104.816689 -26.962103
3.856463 -103.669327 -31.030836
-1.657042 -101.291603 -30.598034
-5.906757 -96.793976 -32.951252
-10.434052 -91.04084 -34.601368
16.364214 -98.395279 6.49726
15.446519 -101.934677 0.28699
14.259993 -104.842834 -5.923816
11.157336 -102.05397 -1.446036
6.372864 -101.067184 -2.611961
4.165641 -86.246147 -41.361771
8.71762 -85.589378 -39.954773
3.534955 -79.681328 -42.491314
2.698662 -72.485641 -43.400784
4.475083 -101.046852 -34.621716
4.850385 -97.174904 -37.524044
4.762329 -92.296753 -39.678894
-0.823787 -86.014946 -42.043507
-6.004094 -79.255928 -43.774742
-11.123042 -71.487617 -45.373695
-9.897928 -95.744087 -17.114305
-8.186522 -97.99427 -21.458412
22.797338 -94.163254 10.352521
24.825815 -94.490349 6.169168
26.295786 -94.003693 1.615647
26.165855 -97.614792 -4.314251
11.904139 -107.84864 -22.002497
12.322142 -106.703316 -11.825753
6.333303 -106.778236 -22.660522
1.120807 -104.618324 -22.608416
-3.961634 -101.469757 -22.27006
-13.919643 -90.553543 -28.0872
-14.472732 -88.062889 -31.839426
-14.946329 -84.845421 -35.3643
-15.45074 -80.579834 -38.731098
19.503742 -84.721771 -32.366146
12.844696 -84.257057 -37.918404
15.753562 -81.571762 -35.857796
17.90452 -78.139366 -33.665016
16.036272 -70.574142 -34.921654
-8.793118 -97.379295 -24.736748
-8.593131 -97.250694 -26.489508
-10.147416 -95.859627 -25.582176
10.813178 -106.864502 -26.553596
11.427529 -106.036369 -28.50857
8.706732 -105.822113 -28.856512
-8.035105 -90.909233 -37.192734
-5.645329 -92.091309 -37.915234
-8.224399 -88.639679 -38.786564
-8.191621 -86.659058 -40.068016
-10.70395 -85.386665 -39.319492
26.979176 -86.425385 3.107061
26.948692 -85.56031 0.765136
27.064224 -88.328064 0.404296
27.002197 -90.998825 0.08448
18.827227 -102.407028 -0.798046
20.710011 -101.384636 0.22722
20.254152 -102.991234 -2.767775
21.687775 -103.301338 -4.961048
17.887228 -105.275253 -7.047871
1.855682 -101.842369 -8.539674
3.180239 -103.412788 -10.950101
0.598941 -102.107178 -11.020877
-0.601276 -102.201813 -13.483886
-1.835759 -100.679726 -11.090824
12.106048 -94.41848 -36.916595
14.075429 -93.456818 -36.158997
11.801255 -91.563698 -37.727577
5.79713 -67.195511 -42.30468
8.152143 -70.190788 -40.939384
0.080697 -103.63459 -26.764885
0.677643 -103.319412 -28.905088
-1.860321 -101.996124 -28.591955
-8.270576 -96.263908 -30.149776
-6.129204 -97.738663 -31.131516
-8.270308 -95.224236 -32.037449
-8.159814 -94.03978 -33.86618
-10.36563 -92.441185 -32.885384
14.764626 -97.017143 8.335466
14.368296 -98.790726 5.427238
15.853587 -100.280121 3.297647
13.798676 -100.61824 2.208992
13.249037 -102.133629 -0.679531
11.732999 -100.469986 1.623659
3.927185 -100.312149 -3.14881
1.476408 -83.367432 -42.462181
3.930389 -83.197395 -41.931606
1.41458 -80.154213 -43.014462
0.418884 -72.727486 -44.168541
0.225655 -69.180878 -44.571678
2.212024 -68.793121 -43.858849
1.396533 -101.62957 -32.738342
4.181213 -102.490715 -32.923374
1.627065 -100.210159 -34.580544
-0.42621 -94.079094 -38.701927
2.10867 -96.680313 -37.612022
2.14809 -94.52726 -38.843281
4.862638 -94.820648 -38.697739
2.033328 -92.031097 -39.963215
1.981451 -89.233543 -40.957081
-0.516142 -88.956726 -41.073612
-8.279974 -81.535057 -42.534279
-5.947546 -82.149307 -42.86507
-8.486318 -78.594826 -43.583405
-8.754559 -75.393188 -44.576591
-11.018495 -74.744629 -44.306595
20.037001 -94.765068 11.676256
21.557156 -93.67865 12.380935
21.35597 -95.621384 9.57072
23.675303 -98.375435 2.264613
23.783443 -96.4776 5.264622
24.786219 -96.543587 3.036191
25.623032 -94.418198 3.889304
25.571447 -96.328346 1.015232
26.247904 -95.871208 -1.175417
25.536695 -97.980087 -1.934592
11.869246 -104.770767 -6.66754
13.304401 -105.862999 -8.799057
10.853 -105.660316 -9.516443
5.858966 -105.890373 -15.516201
8.3917 -106.643906 -15.077843
6.991976 -106.725319 -17.84549
5.380045 -106.43074 -20.328308
3.783697 -105.853683 -22.919361
2.794988 -105.358154 -20.442392
-3.221379 -101.573692 -18.057228
-2.433289 -102.41774 -20.411291
-4.747998 -100.729584 -19.934029
-6.155303 -99.767136 -21.715399
-7.025052 -98.853783 -19.673719
-16.11002 -86.623817 -30.317049
-16.497889 -85.095375 -32.13995
-14.782145 -86.476616 -33.609962
-16.816711 -83.424828 -33.967274
-17.450085 -79.444809 -37.409939
-15.707624 -78.035034 -40.314842
18.794392 -68.139534 -31.178839
17.959534 -64.593384 -31.777885
16.974285 -60.902557 -32.555092
16.530275 -63.120056 -33.477154
17.760523 -91.137077 -33.945873
18.563049 -86.624626 -33.426643
8.310672 -82.360535 -40.418266
10.970663 -85.010719 -38.942871
10.376194 -81.530396 -39.447105
12.805209 -75.720886 -37.979942
13.670065 -79.520462 -37.423168
14.787045 -77.714539 -36.527515
16.854282 -79.923065 -34.833282
16.058691 -76.370216 -35.361721
16.937239 -74.364693 -34.345654
15.206796 -72.57811 -35.888271
-4.874846 -100.550201 -25.970016
-4.421638 -100.42691 -27.997015
-6.557737 -98.907082 -27.301277
-8.375423 -96.938271 -28.266239
-10.192053 -94.709595 -29.121645
-3.833673 -76.211472 -44.519989
-1.334983 -76.621651 -44.116459
-4.078916 -72.765564 -45.184956
16.027714 -106.562744 -25.414045
16.425116 -105.468903 -27.246523
13.95665 -105.944893 -27.936756
11.883516 -104.849754 -30.338013
9.572403 -103.416359 -32.48661
-3.376241 -96.72924 -35.370251
-0.766206 -97.725319 -35.93782
-3.202791 -95.084595 -36.97179
-3.000137 -93.170525 -38.459755
-2.973127 -90.949799 -39.777489
-3.11145 -88.358376 -40.987804
-5.691044 -87.553223 -40.661739
-8.20812 -84.202438 -41.370625
-10.759895 -80.605408 -41.999779
19.646313 -98.727646 5.568547
21.269693 -97.695778 6.33554
20.993364 -99.488152 3.509475
22.242458 -100.095047 1.229018
23.508297 -100.172668 -0.812577
24.54723 -100.052689 -3.000256
23.286032 -101.731056 -3.791811
6.890789 -103.826508 -7.948816
8.372651 -105.205933 -10.174886
5.748119 -104.38279 -10.520716
4.455441 -104.741379 -13.270732
3.188539 -104.795151 -15.656637
1.69587 -104.530365 -18.028126
0.637133 -103.530327 -15.823174
-2.010781 -101.93795 -15.832516
-4.424887 -100.215012 -15.650555
18.372461 -70.256142 -32.14423
16.12274 -92.543304 -35.033203
15.693545 -89.600632 -35.711399
7.065114 -74.978462 -41.381111
9.519958 -77.758293 -40.027882
8.949964 -74.299194 -40.414776
10.490581 -73.084496 -39.506184
11.982602 -71.8498 -38.478333
13.176112 -70.139008 -37.504005
5.181368 -105.728485 -27.11084
5.910875 -105.209503 -29.130924
3.250808 -104.401505 -29.072153
1.151217 -102.697861 -30.825544
-1.078841 -100.589417 -32.41687
-3.985619 -100.031883 -29.936777
-3.604576 -99.302048 -31.871162
-3.460438 -98.161354 -33.672985
-5.801837 -95.504166 -34.697468
-8.223894 -92.545181 -35.497025
-10.516444 -89.313278 -36.329231
18.349403 -95.834007 10.504658
16.585836 -96.535492 9.439753
18.157316 -97.927246 7.25674
17.814287 -99.692566 4.370816
17.464678 -101.389 1.416432
17.032303 -103.090042 -1.839478
16.42178 -104.575439 -5.03845
14.933629 -103.441696 -2.728243
12.660426 -103.613586 -3.779226
10.324411 -103.421059 -4.545989
9.558949 -100.350586 0.704423
8.831062 -101.762283 -2.215405
7.964358 -102.869278 -4.962388
5.553742 -102.197601 -5.49214
2.953958 -101.187462 -5.809784
6.85334 -89.269562 -40.059319
9.241844 -89.079773 -39.27412
6.591212 -86.123589 -40.696289
6.093514 -82.686996 -41.298622
5.690963 -79.178207 -41.764179
0.749159 -76.46859 -43.667942
3.0146 -76.006126 -43.01355
5.238058 -75.62394 -42.181332
4.533722 -71.737343 -42.697124
4.048013 -67.947609 -43.123352
9.79179 -94.875702 -37.673786
6.669156 -104.407318 -30.974333
6.961601 -103.194847 -32.719872
7.159545 -101.551613 -34.432056
2.066098 -98.645241 -36.185349
4.75334 -99.242828 -36.186031
7.32696 -99.615738 -35.932053
7.451573 -97.437386 -37.179874
7.428234 -95.081421 -38.231319
7.10275 -92.290977 -39.241299
4.423502 -89.289993 -40.627422
1.706067 -86.387085 -41.772945
-0.999648 -83.000717 -42.846344
-3.290149 -85.550964 -42.063587
-3.43031 -82.726189 -42.953884
-3.694414 -79.411659 -43.815746
-6.333854 -75.93679 -44.650303
-8.734094 -72.284569 -45.465984
-10.919381 -95.279625 -22.723444
-11.484104 -94.537994 -24.312798
-6.584841 -98.44722 -15.408655
-8.827577 -96.366295 -15.101625
-7.928549 -97.71228 -17.48843
-9.04154 -96.961189 -19.35338
-10.047502 -96.143867 -21.125828
-9.255457 -97.035355 -22.988289
26.67536 -89.537048 5.064516
22.80267 -92.207054 13.281756
22.647263 -96.104546 7.538077
23.858953 -94.444489 8.312241
25.621599 -92.342545 6.943536
26.251787 -92.114899 4.535643
26.720304 -91.531868 2.365491
26.74749 -93.399796 -0.384517
26.733213 -95.1558 -3.282437
15.389393 -107.419662 -23.281807
12.84868 -107.548241 -24.030035
10.078869 -107.341171 -24.568773
15.670832 -105.798248 -8.123006
9.763679 -106.339165 -12.437372
9.196856 -107.49865 -22.277464
7.297889 -106.819359 -24.774437
4.502385 -105.95018 -24.987249
1.900536 -104.876991 -24.878393
-0.593443 -103.577621 -24.694206
0.077136 -103.959328 -20.456448
-1.572693 -103.079559 -22.597624
-2.99217 -102.08815 -24.481449
-5.428558 -100.34082 -23.980165
-7.476624 -98.672089 -23.432261
-11.759515 -93.920967 -25.947567
-12.035379 -93.06752 -27.771343
-12.107747 -92.233589 -29.659866
-14.144505 -89.493286 -29.965118
-12.448741 -90.859703 -31.505774
-12.602352 -89.52639 -33.268539
-12.629021 -88.121216 -34.996841
-12.856964 -86.158356 -36.742882
-17.056942 -81.594307 -35.787552
-15.03616 -82.993973 -37.13554
-13.015305 -84.052261 -38.391628
-13.297605 -81.798569 -39.779968
-13.215068 -79.517677 -41.229565
-13.465159 -76.723671 -42.534504
-13.412255 -74.007286 -43.773075
11.229692 -88.307396 -38.50069
13.385438 -87.629906 -37.391388
15.112394 -86.497345 -36.323627
12.087263 -80.644897 -38.478718
14.424596 -83.097122 -36.891537
16.539288 -85.125084 -35.252239
17.759859 -83.391434 -34.133255
18.724796 -81.344254 -33.02639
19.656528 -79.544533 -31.745554
18.644125 -75.951767 -32.597649
17.752005 -72.461334 -33.237125
16.935999 -68.805519 -33.74292
15.155871 -66.813507 -35.48703
15.914079 -65.019348 -34.471607
19.187117 -104.179829 -4.942602
20.088173 -103.702401 -4.347198
19.353096 -103.468662 -3.36318
18.169634 -104.610672 -5.503227
18.904711 -104.84441 -6.487246
19.187117 -104.179829 -4.942602
0.009351 -101.299115 -9.767456
1.227311 -101.974773 -9.780276
0.637722 -101.16671 -8.526854
-1.207998 -100.585388 -9.802429
-0.618409 -101.393452 -11.055851
0.009351 -101.299115 -9.767456
6.605985 -66.636185 -41.875585
5.54072 -65.228327 -42.521574
13.413747 -98.872063 4.940418
13.576073 -97.937283 6.472188
12.621524 -98.018619 5.985368
-1.074318 -67.38675 -45.182118
-0.928579 -69.284592 -44.916277
0.003793 -67.249909 -44.831438
-1.074318 -67.38675 -45.182118
-17.554668 -83.447605 -32.319097
-17.334916 -84.309899 -31.314085
-17.71408 -82.612332 -33.23276
-16.6573 -84.260102 -33.053612
-17.554668 -83.447605 -32.319097
18.203726 -88.908146 -33.681993
18.457818 -90.360024 -33.358965
17.506431 -89.6852 -34.268901
17.907694 -87.428974 -34.009287
18.859081 -88.103798 -33.09935
18.203726 -88.908146 -33.681993
26.87139 -85.050488 -0.236297
26.987799 -86.378246 -0.480083
27.123638 -92.243404 -3.886704
27.099277 -91.376567 -2.440179
27.042988 -93.547451 -4.183205
27.123638 -92.243404 -3.886704
22.295998 -103.271717 -5.959008
21.427865 -104.000763 -6.553051
19.52853 -72.827263 -30.903963
19.924477 -74.491707 -30.576051
18.83294 -72.038319 -31.794517
19.068051 -71.045086 -31.253675
19.52853 -72.827263 -30.903963
10.408847 -68.428272 -39.510266
11.542094 -69.76891 -38.753304
10.849355 -70.509163 -39.235294
17.597659 -95.214028 11.460493
18.502693 -94.852631 11.974216
8.832214 -99.444042 1.762716
9.917604 -99.616959 2.104559
7.601963 -101.414733 -2.413683
8.095479 -100.837631 -1.050769
6.86638 -100.490082 -1.249047
2.22328 -100.205239 -4.552727
3.440571 -100.749806 -4.479297
2.709894 -99.767582 -3.22224
1.713606 -100.573735 -5.85114
2.22328 -100.205239 -4.552727
2.918523 -66.464234 -43.722168
3.130019 -68.370365 -43.491101
2.000529 -66.886989 -44.089917
3.797331 -65.955232 -43.357658
2.918523 -66.464234 -43.722168
15.702892 -104.261867 -29.317646
16.622358 -104.702336 -28.11777
15.50565 -105.028435 -28.446399
9.847563 -96.159142 -37.159092
11.080482 -95.955048 -36.800247
-11.213452 -69.834907 -45.856184
-10.018978 -70.233384 -45.902328
-9.928568 -71.886093 -45.419839
-11.742522 -94.296456 -22.715624
-11.374782 -94.71355 -21.777493
-7.154707 -97.6096 -14.092754
-6.050628 -98.555909 -14.182664
-9.362752 -96.055191 -16.107965
-9.901882 -95.251103 -14.977901
-10.437057 -94.939999 -15.984241
-10.938842 -95.145671 -20.978685
-10.542662 -95.493732 -20.05131
-11.374782 -94.71355 -21.777493
-10.483441 -95.711746 -21.924636
-10.938842 -95.145671 -20.978685
26.4364 -89.886489 6.182441
26.627975 -88.613548 6.472146
23.361894 -93.260479 10.824302
23.364559 -92.282379 12.288919
22.800004 -93.185154 11.817138
24.855175 -93.458607 7.622535
24.371744 -93.435677 8.694072
24.342384 -94.467419 7.240704
25.223707 -93.416447 6.556352
25.253067 -92.384705 8.009719
24.855175 -93.458607 7.622535
26.401487 -97.244633 -5.387945
26.685166 -96.015137 -4.872039
26.449534 -96.385296 -3.798344
24.923513 -99.916264 -4.023199
24.390753 -100.877797 -4.581581
16.163432 -107.493911 -21.864213
16.583389 -107.182552 -22.845772
12.37641 -107.698441 -23.016266
13.612435 -107.721802 -22.639429
13.140165 -107.872002 -21.62566
13.510469 -106.718914 -11.456765
14.001599 -106.298755 -9.943417
12.813271 -106.283158 -10.312405
12.934389 -107.046394 -12.911031
13.510469 -106.718914 -11.456765
9.664502 -106.918362 -14.916052
8.970655 -107.004303 -16.230185
7.76508 -107.138443 -22.468993
8.65937 -107.386486 -21.201094
7.227593 -107.02628 -21.392623
-12.460401 -93.165512 -25.249013
-11.62181 -94.22948 -25.130183
-12.322695 -93.474025 -24.431629
-12.977511 -91.810531 -27.929271
-12.761999 -92.358086 -27.042349
-13.704131 -91.101097 -27.200277
-18.212826 -79.841335 -35.891571
-18.048163 -80.773494 -35.04657
-14.418941 -77.631649 -41.49302
-14.461346 -78.776355 -40.772204
-15.665218 -76.890327 -41.035658
-14.543986 -76.234646 -42.145489
-13.340114 -78.120674 -41.882035
-14.418941 -77.631649 -41.49302
-14.724739 -71.941017 -44.077393
-14.609957 -73.395965 -43.470501
-13.488455 -72.431114 -44.36569
-14.724739 -71.941017 -44.077393
16.481757 -58.998746 -32.932762
16.254906 -60.043108 -33.369084
20.307195 -85.296436 -31.386366
19.9311 -86.321579 -31.923488
19.914986 -83.726128 -31.784201
20.307195 -85.296436 -31.386366
13.705661 -69.399868 -37.01172
12.750514 -68.234287 -37.778643
14.628688 -64.802782 -35.854177
14.211305 -65.74522 -36.32602
15.007792 -63.905702 -35.346466
15.534975 -65.916427 -34.979318
14.628688 -64.802782 -35.854177
15.431517 -63.087835 -34.80281
15.007792 -63.905702 -35.346466
-6.609016 -70.784024 -45.81369
-7.647306 -70.805249 -45.858401
26.963934 -85.992848 1.936098
26.92369 -84.710468 2.089969
26.938932 -85.143006 3.260931
27.045564 -87.762123 -0.660503
26.987799 -86.378246 -0.480083
27.006458 -86.944187 0.584716
27.101956 -89.203709 -0.86019
27.045564 -87.762123 -0.660503
27.070943 -90.539089 -1.020098
27.101956 -89.203709 -0.86019
27.03321 -89.663444 0.244388
27.030532 -91.836303 -1.3356
27.099277 -91.376567 -2.440179
27.070943 -90.539089 -1.020098
20.804985 -103.857452 -5.443834
20.970963 -103.146286 -3.864412
20.088173 -103.702401 -4.347198
21.427865 -104.000763 -6.553051
20.804985 -103.857452 -5.443834
18.587117 -105.508804 -8.152928
18.904711 -104.84441 -6.487246
17.457749 -105.850055 -8.625457
18.587117 -105.508804 -8.152928
19.74013 -75.627858 -31.082074
19.924477 -74.491707 -30.576051
13.090739 -93.937649 -36.537796
14.327567 -94.865632 -35.630639
13.342876 -95.346463 -36.009438
7.783492 -68.133824 -41.192937
6.974637 -68.69315 -41.622032
6.605985 -66.636185 -41.875585
8.565474 -67.622692 -40.719374
8.934126 -69.679657 -40.46582
7.783492 -68.133824 -41.192937
9.374299 -67.284779 -40.220281
8.565474 -67.622692 -40.719374
13.774238 -97.050491 7.926302
14.050244 -96.154408 9.380028
14.566461 -97.903935 6.881352
13.774238 -97.050491 7.926302
13.576073 -97.937283 6.472188
5.710998 -100.157009 -1.479851
6.86638 -100.490082 -1.249047
4.488158 -99.779492 -1.748276
5.150024 -100.689667 -2.880386
5.710998 -100.157009 -1.479851
3.306507 -99.315147 -1.864306
4.488158 -99.779492 -1.748276
2.709894 -99.767582 -3.22224
3.306507 -99.315147 -1.864306
-0.831964 -71.057896 -44.714709
-0.659063 -72.902394 -44.439037
-1.909911 -71.232804 -44.985205
0.322269 -70.954182 -44.370109
-0.831964 -71.057896 -44.714709
-0.928579 -69.284592 -44.916277
0.996977 -67.05603 -44.475023
1.21884 -68.986999 -44.215263
0.003793 -67.249909 -44.831438
2.000529 -66.886989 -44.089917
0.996977 -67.05603 -44.475023
14.629418 -103.720112 -30.531417
13.469776 -103.979946 -30.787391
-10.871593 -94.670391 -17.001085
-10.437057 -94.939999 -15.984241
-10.467875 -95.293842 -18.045549
-10.871593 -94.670391 -17.001085
20.797078 -94.221859 12.028595
20.9463 -93.270184 13.398849
20.186222 -93.813392 13.046509
12.665499 -107.920749 -20.507951
13.140165 -107.872002 -21.62566
8.270793 -107.045009 -17.614008
8.970655 -107.004303 -16.230185
7.691838 -106.684613 -16.461666
7.55693 -106.999821 -18.985108
8.270793 -107.045009 -17.614008
6.750964 -106.852531 -20.226517
7.55693 -106.999821 -18.985108
6.186011 -106.578029 -19.086899
5.856674 -106.604488 -21.494415
7.227593 -107.02628 -21.392623
6.750964 -106.852531 -20.226517
-14.692143 -89.725895 -27.311594
-13.704131 -91.101097 -27.200277
-17.140981 -85.074119 -30.402634
-16.923002 -85.787102 -29.457107
-16.303954 -85.859596 -31.228499
-17.140981 -85.074119 -30.402634
-17.334916 -84.309899 -31.314085
-18.536723 -77.698078 -37.597311
-18.409398 -78.766587 -36.702765
-17.535339 -78.343864 -38.246099
-18.536723 -77.698078 -37.597311
-16.535666 -78.911377 -38.906679
-16.450412 -80.012322 -38.070519
-17.535339 -78.343864 -38.246099
-16.664108 -77.638977 -39.698551
-15.579182 -79.307434 -39.52297
-16.535666 -78.911377 -38.906679
-16.799359 -76.312732 -40.506918
-16.664108 -77.638977 -39.698551
-15.665218 -76.890327 -41.035658
-16.799359 -76.312732 -40.506918
18.966262 -67.075913 -30.685014
19.363619 -68.745571 -30.346446
18.548833 -65.302838 -30.984537
18.966262 -67.075913 -30.685014
18.376963 -66.366459 -31.478362
18.105402 -63.497471 -31.349098
18.548833 -65.302838 -30.984537
17.466909 -62.747971 -32.166488
17.612777 -61.652057 -31.737702
18.105402 -63.497471 -31.349098
16.032902 -61.151857 -33.830115
16.254906 -60.043108 -33.369084
16.75228 -62.011307 -33.016123
18.72935 -91.834694 -32.949652
17.952182 -92.567997 -33.565579
18.72935 -91.834694 -32.949652
18.457818 -90.360024 -33.358965
19.460754 -87.273007 -32.453736
18.859081 -88.103798 -33.09935
19.033395 -85.673199 -32.896394
19.9311 -86.321579 -31.923488
19.460754 -87.273007 -32.453736
11.660969 -98.054158 5.471983
12.621524 -98.018619 5.985368
11.367729 -98.918365 3.979146
11.660969 -98.054158 5.471983
-5.435266 -70.816341 -45.702143
-5.252666 -72.733246 -45.296504
-6.609016 -70.784024 -45.81369
-4.244338 -71.019977 -45.496756
-5.435266 -70.816341 -45.702143
-3.073385 -71.175846 -45.259045
-2.907963 -72.921433 -44.947245
-4.244338 -71.019977 -45.496756
-1.909911 -71.232804 -44.985205
-3.073385 -71.175846 -45.259045
16.226415 -106.015823 -26.330284
17.350794 -105.71825 -25.888562
17.152093 -106.265171 -24.972323
12.118441 -104.110839 -31.13326
13.469776 -103.979946 -30.787391
13.23485 -104.718861 -29.992144
10.962885 -103.394142 -32.207558
12.118441 -104.110839 -31.13326
10.72796 -104.133057 -31.412312
9.649472 -102.56136 -33.282539
10.962885 -103.394142 -32.207558
26.839399 -84.153225 0.958333
26.92369 -84.710468 2.089969
26.839399 -84.153225 0.958333
26.87139 -85.050488 -0.236297
23.760154 -101.71698 -4.977358
24.390753 -100.877797 -4.581581
23.916631 -100.891873 -3.396033
23.095126 -102.486576 -5.374389
22.486903 -102.516197 -4.37643
22.295998 -103.271717 -5.959008
23.760154 -101.71698 -4.977358
23.095126 -102.486576 -5.374389
19.279016 -69.986782 -30.77098
19.363619 -68.745571 -30.346446
18.583427 -69.197838 -31.661535
19.279016 -69.986782 -30.77098
19.068051 -71.045086 -31.253675
15.254449 -94.325325 -35.2034
14.327567 -94.865632 -35.630639
16.278105 -93.868568 -34.640503
15.254449 -94.325325 -35.2034
15.099085 -93.000061 -35.5961
17.133291 -93.271111 -34.109244
16.278105 -93.868568 -34.640503
16.941631 -91.840191 -34.489538
17.952182 -92.567997 -33.565579
17.133291 -93.271111 -34.109244
12.138849 -68.913513 -38.26614
12.579357 -70.994404 -37.991169
11.542094 -69.76891 -38.753304
12.750514 -68.234287 -37.778643
12.138849 -68.913513 -38.26614
10.408847 -68.428272 -39.510266
9.374299 -67.284779 -40.220281
26.946911 -85.457142 4.461319
26.938932 -85.143006 3.260931
26.917747 -86.799664 4.295578
26.946911 -85.457142 4.461319
26.900619 -88.098797 4.087318
26.962048 -87.724518 2.8988
26.917747 -86.799664 4.295578
19.346492 -94.318161 12.560015
20.186222 -93.813392 13.046509
19.193202 -95.299537 11.090457
19.346492 -94.318161 12.560015
18.502693 -94.852631 11.974216
14.956233 -96.064953 9.831175
14.050244 -96.154408 9.380028
15.866838 -95.824127 10.383318
14.956233 -96.064953 9.831175
15.675231 -96.776318 8.887609
16.715876 -95.56477 10.92804
15.866838 -95.824127 10.383318
17.467619 -96.18475 9.972205
17.597659 -95.214028 11.460493
16.715876 -95.56477 10.92804
11.00463 -99.676659 2.564177
12.096099 -99.711693 3.038628
11.367729 -98.918365 3.979146
10.645974 -100.410286 1.164041
11.00463 -99.676659 2.564177
9.917604 -99.616959 2.104559
8.459423 -100.131783 0.409145
8.832214 -99.444042 1.762716
9.195006 -101.056434 -0.755491
8.459423 -100.131783 0.409145
8.095479 -100.837631 -1.050769
1.164467 -100.901188 -7.216086
2.40482 -101.514916 -7.174729
1.713606 -100.573735 -5.85114
0.637722 -101.16671 -8.526854
1.164467 -100.901188 -7.216086
4.671889 -65.579183 -42.948323
4.922572 -67.57156 -42.714016
3.797331 -65.955232 -43.357658
5.54072 -65.228327 -42.521574
4.671889 -65.579183 -42.948323
17.524209 -105.070256 -26.840739
17.350794 -105.71825 -25.888562
17.524209 -105.070256 -26.840739
16.622358 -104.702336 -28.11777
15.702892 -104.261867 -29.317646
14.629418 -103.720112 -30.531417
12.237611 -95.726437 -36.421651
13.342876 -95.346463 -36.009438
10.948919 -94.647091 -37.295191
12.237611 -95.726437 -36.421651
11.080482 -95.955048 -36.800247
8.443043 -101.628986 -34.255262
9.649472 -102.56136 -33.282539
8.365974 -102.483986 -33.459333
8.52675 -100.661049 -35.005261
8.443043 -101.628986 -34.255262
7.243252 -100.583675 -35.182055
8.616298 -99.696331 -35.670647
8.52675 -100.661049 -35.005261
8.678604 -98.607155 -36.294557
8.616298 -99.696331 -35.670647
7.389266 -98.526562 -36.555964
8.677455 -97.439984 -36.912136
8.678604 -98.607155 -36.294557
8.665786 -96.262001 -37.437859
8.677455 -97.439984 -36.912136
7.439903 -96.259404 -37.705596
8.610012 -94.978562 -37.952552
9.847563 -96.159142 -37.159092
8.665786 -96.262001 -37.437859
-8.801145 -70.597069 -45.887367
-7.647306 -70.805249 -45.858401
-7.580255 -72.492749 -45.437017
-8.801145 -70.597069 -45.887367
-10.018978 -70.233384 -45.902328
-12.024884 -93.92564 -23.510301
-11.201742 -94.908809 -23.518121
-11.742522 -94.296456 -22.715624
-12.322695 -93.474025 -24.431629
-12.024884 -93.92564 -23.510301
-2.425486 -99.83139 -9.821506
-1.207998 -100.585388 -9.802429
-2.970632 -99.875515 -10.987395
-2.425486 -99.83139 -9.821506
-3.601548 -99.829113 -12.167884
-2.466674 -100.633324 -12.271313
-2.970632 -99.875515 -10.987395
-4.307002 -99.62576 -13.204238
-3.601548 -99.829113 -12.167884
-4.970651 -99.439805 -14.303615
-3.761238 -100.400967 -14.551179
-4.307002 -99.62576 -13.204238
-5.504864 -99.331116 -15.529605
-4.970651 -99.439805 -14.303615
-6.050628 -98.555909 -14.182664
-9.309892 -95.580086 -13.864176
-9.901882 -95.251103 -14.977901
-8.276075 -96.569137 -13.939239
-9.309892 -95.580086 -13.864176
-7.706209 -97.406757 -15.25514
-7.154707 -97.6096 -14.092754
-8.276075 -96.569137 -13.939239
-10.039682 -95.902393 -19.165087
-9.469734 -96.352638 -18.233843
-10.467875 -95.293842 -18.045549
-9.544521 -96.552528 -20.239604
-10.039682 -95.902393 -19.165087
-10.542662 -95.493732 -20.05131
26.765839 -88.355495 5.274306
26.627975 -88.613548 6.472146
26.81014 -89.280349 3.877528
26.900619 -88.098797 4.087318
26.765839 -88.355495 5.274306
21.646657 -92.622055 13.88632
20.9463 -93.270184 13.398849
22.269414 -91.886257 14.33673
21.646657 -92.622055 13.88632
22.179913 -92.942852 12.831345
22.922944 -91.115822 14.737748
22.269414 -91.886257 14.33673
23.365481 -91.302417 13.726765
22.922944 -91.115822 14.737748
23.365481 -91.302417 13.726765
23.364559 -92.282379 12.288919
23.892701 -93.401096 9.804161
23.361894 -93.260479 10.824302
23.328145 -94.303871 9.332381
23.892701 -93.401096 9.804161
24.371744 -93.435677 8.694072
25.605103 -91.381867 8.334538
25.253067 -92.384705 8.009719
25.909519 -91.289238 7.121951
25.605103 -91.381867 8.334538
26.224613 -91.175415 5.918005
25.909519 -91.289238 7.121951
25.936693 -92.228722 5.73959
26.463574 -90.825974 4.80008
26.4364 -89.886489 6.182441
26.224613 -91.175415 5.918005
26.880161 -94.78846 -4.446583
27.042988 -93.547451 -4.183205
26.89604 -93.914791 -3.019059
26.880161 -94.78846 -4.446583
26.685166 -96.015137 -4.872039
25.418245 -98.879963 -3.490367
25.041963 -99.016388 -2.467424
24.923513 -99.916264 -4.023199
25.732825 -98.697316 -4.680196
25.851275 -97.797439 -3.124421
25.418245 -98.879963 -3.490367
26.065774 -98.395363 -5.746733
25.732825 -98.697316 -4.680196
26.401487 -97.244633 -5.387945
26.065774 -98.395363 -5.746733
16.90255 -106.754093 -23.911891
17.152093 -106.265171 -24.972323
15.708554 -106.991203 -24.347926
16.90255 -106.754093 -23.911891
16.583389 -107.182552 -22.845772
14.882791 -107.657512 -22.265315
16.163432 -107.493911 -21.864213
14.119036 -107.483952 -23.655921
14.882791 -107.657512 -22.265315
13.612435 -107.721802 -22.639429
16.349552 -106.111553 -9.163024
17.457749 -105.850055 -8.625457
16.77903 -105.536751 -7.585439
15.184815 -106.26638 -9.605392
14.487617 -105.830624 -8.461032
14.001599 -106.298755 -9.943417
16.349552 -106.111553 -9.163024
15.184815 -106.26638 -9.605392
10.350492 -106.765991 -13.595816
9.077689 -106.491535 -13.757607
9.664502 -106.918362 -14.916052
11.629723 -106.948067 -13.290007
11.04291 -106.521241 -12.131563
10.350492 -106.765991 -13.595816
12.934389 -107.046394 -12.911031
11.629723 -106.948067 -13.290007
11.362698 -107.823689 -20.842678
12.665499 -107.920749 -20.507951
10.009056 -107.648694 -20.980162
8.65937 -107.386486 -21.201094
10.550498 -107.673645 -22.139981
11.362698 -107.823689 -20.842678
10.009056 -107.648694 -20.980162
-12.624067 -92.784809 -26.13046
-12.460401 -93.165512 -25.249013
-11.897447 -93.494244 -26.859455
-12.624067 -92.784809 -26.13046
-12.761999 -92.358086 -27.042349
-14.860743 -89.205487 -28.245065
-14.692143 -89.725895 -27.311594
-15.955932 -87.240623 -29.35999
-16.923002 -85.787102 -29.457107
-14.973174 -88.675358 -29.184024
-15.955932 -87.240623 -29.35999
-15.127263 -88.058551 -30.141084
-14.032074 -90.023415 -29.026159
-14.860743 -89.205487 -28.245065
-14.973174 -88.675358 -29.184024
-17.928047 -81.688755 -34.136431
-17.71408 -82.612332 -33.23276
-16.936827 -82.509568 -34.877413
-17.928047 -81.688755 -34.136431
-18.048163 -80.773494 -35.04657
-17.253514 -80.519558 -36.598745
-18.212826 -79.841335 -35.891571
-18.409398 -78.766587 -36.702765
-14.636409 -74.754158 -42.851215
-14.543986 -76.234646 -42.145489
-13.438707 -75.365478 -43.15379
-14.636409 -74.754158 -42.851215
-14.609957 -73.395965 -43.470501
-12.291575 -72.799785 -44.63245
-12.215375 -74.375957 -44.039835
-13.488455 -72.431114 -44.36569
-12.343849 -71.171279 -45.166
-11.070768 -73.116123 -44.840145
-12.291575 -72.799785 -44.63245
-12.380145 -69.626339 -45.705019
-12.343849 -71.171279 -45.166
-11.213452 -69.834907 -45.856184
-12.380145 -69.626339 -45.705019
17.158279 -59.738951 -32.096409
17.612777 -61.652057 -31.737702
17.158279 -59.738951 -32.096409
16.481757 -58.998746 -32.932762
19.525514 -82.037369 -32.114323
19.914986 -83.726128 -31.784201
19.114269 -83.033013 -32.696268
19.99138 -81.137508 -31.473904
19.525514 -82.037369 -32.114323
19.190662 -80.444394 -32.385972
20.346435 -80.102089 -30.832021
19.99138 -81.137508 -31.473904
19.921685 -78.489876 -31.232448
20.346435 -80.102089 -30.832021
19.415484 -76.693493 -31.658496
19.921685 -78.489876 -31.232448
19.150326 -77.74815 -32.171601
18.968772 -74.886132 -32.021227
19.74013 -75.627858 -31.082074
19.415484 -76.693493 -31.658496
14.721003 -70.619419 -36.203854
14.191454 -71.358559 -36.696138
13.705661 -69.399868 -37.01172
15.135741 -69.617435 -35.720545
15.621534 -71.576126 -35.404962
14.721003 -70.619419 -36.203854
14.69554 -67.737118 -36.003233
14.211305 -65.74522 -36.32602
15.596072 -68.693825 -35.204342
15.135741 -69.617435 -35.720545
14.69554 -67.737118 -36.003233
15.739615 -62.138189 -34.305584
16.222177 -64.069702 -33.97438
15.431517 -63.087835 -34.80281
16.032902 -61.151857 -33.830115
15.739615 -62.138189 -34.305584
3 0 91 89
3 1 94 92
3 3 97 95
3 3 99 97
3 4 102 100
3 4 103 102
3 5 106 104
3 5 363 365
3 365 364 106
3 363 364 365
3 5 366 368
3 366 108 367
3 366 367 368
3 369 111 370
3 371 370 109
3 369 370 371
3 372 113 373
3 374 373 111
3 372 373 374
3 2 116 114
3 376 375 117
3 6 121 119
3 8 124 122
3 8 126 124
3 10 377 379
3 377 128 378
3 377 378 379
3 10 130 128
3 10 132 130
3 12 136 134
3 380 138 381
3 383 382 138
3 7 142 140
3 14 145 143
3 14 147 145
3 14 149 147
3 15 152 150
3 15 154 152
3 9 157 155
3 17 160 158
3 17 162 160
3 17 164 162
3 11 167 165
3 18 170 168
3 18 171 170
3 18 173 171
3 16 176 174
3 16 178 176
3 384 180 385
3 386 182 387
3 388 387 180
3 386 387 388
3 19 186 185
3 19 188 186
3 20 389 391
3 391 390 189
3 389 390 391
3 20 392 394
3 392 190 393
3 392 393 394
3 13 193 191
3 21 196 194
3 21 198 196
3 21 200 198
3 22 203 201
3 24 204 90
3 24 205 204
3 25 208 206
3 27 211 209
3 29 212 93
3 29 213 212
3 30 216 214
3 32 217 96
3 32 218 217
3 32 220 218
3 34 221 98
3 34 222 221
3 396 395 101
3 35 397 398
3 35 399 400
3 36 225 223
3 38 226 105
3 38 227 226
3 38 229 227
3 402 401 107
3 39 232 230
3 41 233 110
3 41 234 233
3 41 236 234
3 43 237 112
3 43 238 237
3 44 403 404
3 44 405 407
3 405 239 406
3 405 406 407
3 45 240 115
3 45 241 240
3 46 244 242
3 48 245 118
3 48 246 245
3 48 408 410
3 410 409 246
3 408 409 410
3 49 250 248
3 51 251 120
3 51 252 251
3 23 253 202
3 52 254 123
3 52 255 254
3 52 256 255
3 53 257 125
3 53 258 257
3 411 259 412
3 54 260 127
3 54 261 260
3 54 262 261
3 55 263 129
3 55 264 263
3 55 266 264
3 57 267 131
3 57 268 267
3 413 269 414
3 58 415 417
3 415 270 416
3 415 416 417
3 58 271 270
3 58 272 271
3 418 273 419
3 420 419 133
3 418 419 420
3 422 421 273
3 59 276 274
3 61 277 135
3 61 278 277
3 26 279 207
3 62 280 137
3 62 281 280
3 62 282 281
3 423 283 424
3 425 424 139
3 423 424 425
3 427 426 283
3 28 428 430
3 430 429 210
3 428 429 430
3 431 284 432
3 50 285 249
3 63 286 141
3 63 287 286
3 31 288 215
3 64 289 144
3 64 290 289
3 64 291 290
3 65 292 146
3 65 293 292
3 65 294 293
3 66 295 148
3 66 296 295
3 33 297 219
3 67 298 151
3 67 299 298
3 67 300 299
3 68 301 153
3 68 433 435
3 435 434 301
3 433 434 435
3 437 436 302
3 438 304 439
3 69 440 442
3 440 305 441
3 440 441 442
3 69 306 305
3 69 307 306
3 443 308 444
3 445 302 446
3 447 446 308
3 445 446 447
3 448 310 449
3 71 311 156
3 71 450 452
3 452 451 311
3 450 451 452
3 37 312 224
3 72 313 159
3 72 453 455
3 455 454 313
3 453 454 455
3 72 456 458
3 456 314 457
3 456 457 458
3 73 315 161
3 73 316 315
3 73 317 316
3 74 318 163
3 74 459 461
3 461 460 318
3 459 460 461
3 463 462 228
3 464 319 465
3 75 466 468
3 466 320 467
3 466 467 468
3 75 321 320
3 56 322 265
3 76 469 471
3 471 470 166
3 469 470 471
3 76 472 473
3 40 323 231
3 475 474 169
3 77 476 478
3 476 324 477
3 476 477 478
3 77 325 324
3 77 326 325
3 78 327 172
3 78 328 327
3 42 329 235
3 79 330 175
3 79 331 330
3 79 332 331
3 70 333 177
3 70 309 333
3 479 334 480
3 481 480 303
3 479 480 481
3 80 482 484
3 482 335 483
3 482 483 484
3 80 336 335
3 81 337 179
3 81 338 337
3 81 339 338
3 82 340 181
3 82 341 340
3 485 342 486
3 83 343 183
3 83 344 343
3 83 345 344
3 487 346 488
3 489 488 184
3 487 488 489
3 490 347 491
3 492 491 346
3 490 491 492
3 493 348 494
3 496 495 348
3 498 497 187
3 84 499 500
3 84 501 502
3 60 349 275
3 85 350 192
3 85 351 350
3 47 352 243
3 86 353 195
3 86 354 353
3 86 355 354
3 87 356 197
3 87 357 356
3 87 358 357
3 88 359 199
3 88 360 359
3 504 503 247
3 505 361 506
3 507 362 508
3 509 508 361
3 507 508 509
3 511 510 362
3 89 90 22
3 91 90 89
3 91 24 90
3 513 512 25
3 92 93 27
3 94 93 92
3 94 29 93
3 95 96 30
3 97 96 95
3 97 32 96
3 97 98 32
3 99 98 97
3 99 34 98
3 100 514 516
3 514 101 515
3 514 515 516
3 102 101 100
3 102 517 519
3 519 518 101
3 517 518 519
3 102 520 521
3 103 522 524
3 524 523 102
3 522 523 524
3 103 525 527
3 525 35 526
3 525 526 527
3 104 105 36
3 106 105 104
3 106 38 105
3 106 107 38
3 528 107 529
3 530 529 106
3 528 529 530
3 532 531 107
3 108 533 534
3 108 535 536
3 109 110 39
3 111 110 109
3 111 41 110
3 111 112 41
3 113 112 111
3 113 43 112
3 537 44 538
3 114 539 541
3 539 115 540
3 539 540 541
3 116 115 114
3 116 45 115
3 117 118 46
3 542 118 543
3 544 543 117
3 542 543 544
3 545 48 546
3 547 546 118
3 545 546 547
3 549 548 48
3 119 120 49
3 121 120 119
3 121 51 120
3 122 123 23
3 124 123 122
3 124 52 123
3 124 125 52
3 126 125 124
3 126 53 125
3 550 127 551
3 128 552 554
3 552 127 553
3 552 553 554
3 128 54 127
3 128 129 54
3 130 129 128
3 130 55 129
3 130 131 55
3 132 131 130
3 132 57 131
3 555 58 556
3 557 133 558
3 559 558 58
3 557 558 559
3 560 133 561
3 563 562 133
3 134 135 59
3 136 135 134
3 136 61 135
3 564 137 565
3 566 565 26
3 564 565 566
3 138 567 569
3 567 137 568
3 567 568 569
3 138 62 137
3 138 139 62
3 570 139 571
3 572 571 138
3 570 571 572
3 574 573 139
3 576 575 28
3 140 141 50
3 142 141 140
3 142 63 141
3 143 144 31
3 145 144 143
3 145 64 144
3 145 146 64
3 147 146 145
3 147 65 146
3 147 148 65
3 149 148 147
3 149 66 148
3 150 151 33
3 152 151 150
3 152 67 151
3 152 153 67
3 154 153 152
3 154 68 153
3 577 69 578
3 580 579 69
3 155 581 583
3 581 156 582
3 581 582 583
3 157 156 155
3 157 71 156
3 158 159 37
3 160 159 158
3 160 72 159
3 160 161 72
3 162 161 160
3 162 73 161
3 162 163 73
3 164 163 162
3 164 74 163
3 584 75 585
3 165 166 56
3 167 166 165
3 167 76 166
3 168 169 40
3 170 169 168
3 170 586 588
3 588 587 169
3 586 587 588
3 170 589 590
3 171 591 593
3 593 592 170
3 591 592 593
3 171 594 596
3 594 77 595
3 594 595 596
3 171 172 77
3 173 172 171
3 173 78 172
3 174 175 42
3 176 175 174
3 176 79 175
3 176 177 79
3 178 177 176
3 178 70 177
3 597 80 598
3 599 179 600
3 180 601 603
3 601 179 602
3 601 602 603
3 180 81 179
3 180 181 81
3 182 181 180
3 182 82 181
3 604 183 605
3 606 183 607
3 608 83 609
3 610 609 183
3 608 609 610
3 611 184 612
3 613 612 83
3 611 612 613
3 614 184 615
3 617 616 184
3 185 618 619
3 186 620 622
3 622 621 185
3 620 621 622
3 186 623 624
3 186 625 627
3 625 187 626
3 625 626 627
3 188 187 186
3 188 628 630
3 630 629 187
3 628 629 630
3 189 631 632
3 634 633 189
3 190 635 636
3 190 637 639
3 637 84 638
3 637 638 639
3 191 192 60
3 193 192 191
3 193 85 192
3 194 195 47
3 196 195 194
3 196 86 195
3 196 197 86
3 198 197 196
3 198 87 197
3 198 199 87
3 200 199 198
3 200 88 199
3 201 202 6
3 203 202 201
3 203 23 202
3 90 203 22
3 204 203 90
3 204 23 203
3 204 122 23
3 205 122 204
3 205 8 122
3 640 10 641
3 643 642 10
3 206 207 12
3 208 207 206
3 208 26 207
3 644 208 645
3 646 645 25
3 644 645 646
3 647 208 648
3 649 26 650
3 651 650 208
3 649 650 651
3 653 652 26
3 209 654 656
3 654 210 655
3 654 655 656
3 211 210 209
3 211 28 210
3 93 211 27
3 212 211 93
3 212 28 211
3 212 657 659
3 659 658 28
3 657 658 659
3 213 660 662
3 662 661 212
3 660 661 662
3 213 663 664
3 214 215 7
3 216 215 214
3 216 31 215
3 96 216 30
3 217 216 96
3 217 31 216
3 217 143 31
3 218 143 217
3 218 14 143
3 218 219 14
3 220 219 218
3 220 33 219
3 98 220 32
3 221 220 98
3 221 33 220
3 221 150 33
3 222 150 221
3 222 15 150
3 101 665 666
3 668 667 101
3 223 224 9
3 225 224 223
3 225 37 224
3 105 225 36
3 226 225 105
3 226 37 225
3 226 158 37
3 227 158 226
3 227 17 158
3 227 228 17
3 229 228 227
3 229 669 671
3 671 670 228
3 669 670 671
3 107 229 38
3 672 229 673
3 674 673 107
3 672 673 674
3 676 675 229
3 230 231 11
3 232 231 230
3 232 40 231
3 110 232 39
3 233 232 110
3 233 40 232
3 233 168 40
3 234 168 233
3 234 18 168
3 234 235 18
3 236 235 234
3 236 42 235
3 112 236 41
3 237 236 112
3 237 42 236
3 237 174 42
3 238 174 237
3 238 16 174
3 677 185 678
3 239 679 681
3 679 185 680
3 679 680 681
3 239 19 185
3 115 682 683
3 240 684 686
3 686 685 115
3 684 685 686
3 240 687 688
3 240 689 691
3 689 189 690
3 689 690 691
3 241 189 240
3 241 20 189
3 242 243 13
3 244 243 242
3 244 47 243
3 118 244 46
3 245 244 118
3 245 47 244
3 245 194 47
3 246 194 245
3 246 21 194
3 246 247 21
3 692 247 693
3 694 693 246
3 692 693 694
3 696 695 247
3 698 697 48
3 248 249 1
3 250 249 248
3 250 50 249
3 120 250 49
3 251 250 120
3 251 50 250
3 251 140 50
3 252 140 251
3 252 7 140
3 202 121 6
3 253 121 202
3 253 51 121
3 123 253 23
3 254 253 123
3 254 51 253
3 254 252 51
3 255 252 254
3 255 7 252
3 255 214 7
3 256 214 255
3 256 30 214
3 125 256 52
3 257 256 125
3 257 30 256
3 257 95 30
3 258 95 257
3 258 3 95
3 699 100 700
3 701 100 702
3 703 4 704
3 705 704 100
3 703 704 705
3 706 155 707
3 259 708 710
3 708 155 709
3 708 709 710
3 259 9 155
3 127 711 712
3 260 713 715
3 715 714 127
3 713 714 715
3 260 716 717
3 260 718 720
3 718 259 719
3 718 719 720
3 261 259 260
3 261 9 259
3 261 223 9
3 262 223 261
3 262 36 223
3 129 262 54
3 263 262 129
3 263 36 262
3 263 104 36
3 264 104 263
3 264 5 104
3 264 265 5
3 266 265 264
3 266 56 265
3 131 266 55
3 267 266 131
3 267 56 266
3 267 165 56
3 268 165 267
3 268 11 165
3 721 132 722
3 723 722 10
3 721 722 723
3 269 724 726
3 724 132 725
3 724 725 726
3 269 57 132
3 727 269 728
3 270 729 731
3 729 269 730
3 729 730 731
3 270 57 269
3 270 268 57
3 271 268 270
3 271 11 268
3 271 230 11
3 272 230 271
3 272 39 230
3 133 272 58
3 273 272 133
3 273 39 272
3 273 109 39
3 732 109 733
3 734 733 273
3 732 733 734
3 736 735 109
3 274 275 2
3 276 275 274
3 276 60 275
3 135 276 59
3 277 276 135
3 277 60 276
3 277 191 60
3 278 191 277
3 278 13 191
3 207 136 12
3 279 136 207
3 279 61 136
3 137 279 26
3 280 279 137
3 280 61 279
3 280 278 61
3 281 278 280
3 281 13 278
3 281 242 13
3 282 242 281
3 282 46 242
3 139 282 62
3 283 282 139
3 283 46 282
3 283 117 46
3 737 117 738
3 739 738 283
3 737 738 739
3 741 740 117
3 210 742 743
3 745 744 210
3 747 746 28
3 748 114 749
3 284 750 752
3 750 114 751
3 750 751 752
3 284 2 114
3 249 94 1
3 285 94 249
3 285 29 94
3 141 285 50
3 286 285 141
3 286 29 285
3 286 213 29
3 287 213 286
3 287 753 755
3 755 754 213
3 753 754 755
3 215 142 7
3 288 142 215
3 288 63 142
3 144 288 31
3 289 288 144
3 289 63 288
3 289 287 63
3 290 287 289
3 290 756 758
3 758 757 287
3 756 757 758
3 290 759 760
3 291 761 763
3 763 762 290
3 761 762 763
3 291 764 765
3 146 291 64
3 292 291 146
3 292 766 768
3 768 767 291
3 766 767 768
3 292 769 771
3 769 284 770
3 769 770 771
3 293 284 292
3 293 2 284
3 293 274 2
3 294 274 293
3 294 59 274
3 148 294 65
3 295 294 148
3 295 59 294
3 295 134 59
3 296 134 295
3 296 12 134
3 219 149 14
3 297 149 219
3 297 66 149
3 151 297 33
3 298 297 151
3 298 66 297
3 298 296 66
3 299 296 298
3 299 12 296
3 299 206 12
3 300 206 299
3 300 25 206
3 153 300 67
3 301 300 153
3 301 25 300
3 301 772 774
3 774 773 25
3 772 773 774
3 776 775 301
3 302 303 0
3 777 303 778
3 779 778 302
3 777 778 779
3 781 780 303
3 782 113 783
3 784 113 785
3 786 43 787
3 788 787 113
3 786 787 788
3 789 43 790
3 791 238 792
3 793 792 43
3 791 792 793
3 304 794 796
3 794 238 795
3 794 795 796
3 304 16 238
3 305 797 798
3 305 799 800
3 305 801 803
3 801 304 802
3 801 802 803
3 306 304 305
3 306 16 304
3 306 178 16
3 307 178 306
3 307 70 178
3 804 307 805
3 806 805 69
3 804 805 806
3 308 807 809
3 807 307 808
3 807 808 809
3 308 70 307
3 308 309 70
3 302 309 308
3 302 0 309
3 310 810 811
3 310 812 814
3 812 4 813
3 812 813 814
3 156 815 816
3 311 817 819
3 819 818 156
3 817 818 819
3 311 820 821
3 311 822 823
3 825 824 311
3 224 157 9
3 312 157 224
3 312 71 157
3 159 312 37
3 313 312 159
3 313 71 312
3 313 826 828
3 828 827 71
3 826 827 828
3 830 829 313
3 314 831 832
3 314 833 834
3 161 314 72
3 315 314 161
3 315 835 837
3 837 836 314
3 835 836 837
3 315 838 840
3 838 310 839
3 838 839 840
3 316 310 315
3 316 4 310
3 316 103 4
3 317 103 316
3 317 35 103
3 163 317 73
3 318 317 163
3 318 35 317
3 318 841 843
3 843 842 35
3 841 842 843
3 845 844 318
3 228 164 17
3 846 164 847
3 848 847 228
3 846 847 848
3 849 74 850
3 851 850 164
3 849 850 851
3 852 74 853
3 855 854 74
3 856 209 857
3 319 858 860
3 858 209 859
3 858 859 860
3 319 27 209
3 861 319 862
3 320 863 865
3 863 319 864
3 863 864 865
3 320 27 319
3 320 92 27
3 321 92 320
3 321 1 92
3 265 108 5
3 322 108 265
3 322 866 868
3 868 867 108
3 866 867 868
3 166 322 56
3 869 322 870
3 871 870 166
3 869 870 871
3 873 872 322
3 231 167 11
3 323 167 231
3 323 76 167
3 169 323 40
3 874 323 875
3 876 875 169
3 874 875 876
3 877 76 878
3 879 878 323
3 877 878 879
3 881 880 76
3 882 75 883
3 324 884 885
3 324 886 888
3 886 75 887
3 886 887 888
3 324 321 75
3 325 321 324
3 325 1 321
3 325 248 1
3 326 248 325
3 326 49 248
3 172 326 77
3 327 326 172
3 327 49 326
3 327 119 49
3 328 119 327
3 328 6 119
3 235 173 18
3 329 173 235
3 329 78 173
3 175 329 42
3 330 329 175
3 330 78 329
3 330 328 78
3 331 328 330
3 331 6 328
3 331 201 6
3 332 201 331
3 332 22 201
3 177 332 79
3 333 332 177
3 333 22 332
3 333 89 22
3 309 89 333
3 309 0 89
3 303 91 0
3 334 91 303
3 334 24 91
3 889 334 890
3 335 891 893
3 891 334 892
3 891 892 893
3 335 24 334
3 335 205 24
3 336 205 335
3 336 8 205
3 894 80 895
3 179 896 897
3 337 898 900
3 900 899 179
3 898 899 900
3 337 901 903
3 901 80 902
3 901 902 903
3 337 336 80
3 338 336 337
3 338 8 336
3 338 126 8
3 339 126 338
3 339 53 126
3 181 339 81
3 340 339 181
3 340 53 339
3 340 258 53
3 341 258 340
3 341 3 258
3 904 182 905
3 342 906 908
3 906 182 907
3 906 907 908
3 342 82 182
3 183 909 911
3 909 342 910
3 909 910 911
3 343 342 183
3 343 82 342
3 343 341 82
3 344 341 343
3 344 3 341
3 344 99 3
3 345 99 344
3 345 34 99
3 184 345 83
3 346 345 184
3 346 34 345
3 346 222 34
3 347 222 346
3 347 15 222
3 912 347 913
3 348 914 916
3 914 347 915
3 914 915 916
3 348 15 347
3 348 154 15
3 917 154 918
3 919 918 348
3 917 918 919
3 920 68 921
3 922 921 154
3 920 921 922
3 923 68 924
3 926 925 68
3 187 927 928
3 930 929 187
3 275 116 2
3 349 116 275
3 349 45 116
3 192 349 60
3 350 349 192
3 350 45 349
3 350 241 45
3 351 241 350
3 351 20 241
3 243 193 13
3 352 193 243
3 352 85 193
3 195 352 47
3 353 352 195
3 353 85 352
3 353 351 85
3 354 351 353
3 354 20 351
3 354 190 20
3 355 190 354
3 355 84 190
3 197 355 86
3 356 355 197
3 356 84 355
3 356 931 933
3 933 932 84
3 931 932 933
3 357 934 936
3 936 935 356
3 934 935 936
3 357 937 938
3 357 939 940
3 358 941 943
3 943 942 357
3 941 942 943
3 358 944 946
3 944 44 945
3 944 945 946
3 199 358 87
3 359 358 199
3 359 44 358
3 359 239 44
3 360 239 359
3 360 19 239
3 247 200 21
3 947 200 948
3 949 948 247
3 947 948 949
3 950 88 951
3 952 951 200
3 950 951 952
3 361 953 954
3 361 955 957
3 955 88 956
3 955 956 957
3 361 360 88
3 362 360 361
3 362 19 360
3 362 188 19
3 958 188 959
3 960 959 362
3 958 959 960
3 962 961 188
