ply
format ascii 1.0
element vertex 903
property float x
property float y
property float z
element face 806
property list uchar int vertex_index
end_header
0.423336 17.603806 -62.421833
-14.461926 -37.684673 -31.60664
0.5548 -5.926605 -56.475021
0.692506 6.22479 -60.777744
-34.725315 -7.571092 23.840374
-35.602772 -20.777082 16.563877
-25.853567 -39.158489 -15.450316
0.7908 28.179407 -61.152058
-5.337533 -24.225563 -43.484829
-2.785696 -12.322133 -49.095417
-20.285074 -41.054153 -23.573526
-21.331852 -36.277668 -23.335026
-1.334594 14.104218 -59.297119
-1.043272 8.319516 -58.451939
0.57362 12.087274 -62.043568
2.446621 10.212641 -64.662262
2.406734 15.91398 -65.41259
-12.124 -37.494144 -34.596733
-35.50106 0.74876 23.321304
-27.139229 -40.754791 -11.920429
-0.708675 -3.489205 -55.087608
-0.993494 -9.481371 -52.675064
-1.829467 -15.735155 -49.787899
0.018994 -12.405716 -53.646061
-18.348915 -42.286186 -26.201212
-16.692936 -37.491707 -28.869761
-0.692715 2.551516 -57.214432
0.772224 0.269692 -58.9641
2.216322 -2.296621 -60.43998
2.399963 4.149558 -62.92609
-1.498043 19.74719 -59.575962
-36.339832 -6.114251 19.843159
-35.37492 -14.186156 20.383707
-34.325211 -21.748318 20.748053
-34.236252 -28.302549 17.057055
-33.542397 -34.348831 13.058416
-31.976341 -39.533031 4.897191
-31.59189 -38.552734 0.196476
-24.474083 -37.103031 -18.702137
-1.640563 25.407806 -59.031521
0.437144 23.057316 -62.082024
2.84094 26.296265 -64.370979
2.620105 21.305305 -65.465645
-9.778469 -31.729252 -37.428913
-3.780631 -18.347557 -46.353893
-3.150345 -22.178856 -46.874313
-22.763803 -37.246151 -21.136366
-21.791363 -37.93544 -22.261726
-0.504737 15.734521 -60.81749
-0.281643 12.974821 -60.781788
0.469333 14.934111 -62.306496
1.41134 13.951179 -63.712711
1.424315 16.70512 -63.967033
-15.399191 -40.21529 -30.382389
-14.267151 -40.308304 -31.905655
-13.271041 -37.643181 -33.109188
-0.015407 -4.694543 -55.878014
-0.787547 -6.344474 -53.994648
-0.187276 -7.91672 -54.538074
-0.496717 -10.981037 -53.115528
0.418395 -9.149856 -55.229706
1.20045 -7.611361 -57.026817
-19.675491 -39.015839 -24.841257
-19.280407 -41.564472 -24.932091
-18.594637 -39.504807 -26.196165
-17.585287 -39.911659 -27.494249
-0.113117 7.395361 -59.737381
-0.800292 5.47125 -57.994781
0.005394 4.44487 -59.029335
0.057973 1.479851 -58.127918
0.785864 3.281712 -60.006958
1.565351 2.026477 -60.917099
1.537877 5.146084 -61.881367
3.377861 12.09609 -66.312279
3.367403 8.98342 -65.647995
4.455795 10.946624 -67.375572
-2.514461 18.148014 -58.118401
-2.616371 21.089003 -58.136883
-34.299377 -11.689994 24.005854
-36.163795 -17.076633 16.495277
-36.095798 -13.570411 18.345694
-35.520538 -17.522486 18.630461
-34.856617 -18.194395 20.51557
-35.003426 -21.184126 18.679302
-34.383114 -25.014132 18.85804
-34.924133 -24.47003 16.92919
-34.319214 -30.903509 12.927932
-33.740959 -33.97316 10.878396
-32.903915 -37.33844 11.091843
-32.976528 -36.975956 8.874529
-32.097927 -39.793953 7.000101
-32.983574 -36.608402 6.775462
-25.19582 -41.88834 -15.2371
-24.591988 -40.839539 -16.872663
-23.989252 -39.659531 -18.41157
-25.21361 -38.065289 -17.103437
-1.576276 28.073101 -58.615517
-0.470918 26.632061 -60.158085
-0.613415 24.023605 -60.498299
0.592884 25.597519 -61.740742
2.64557 23.762403 -64.968193
3.755447 23.107164 -66.562958
3.65845 20.414907 -66.953957
-11.090792 -32.299232 -35.805538
-6.506559 -25.276848 -41.836567
-7.478789 -28.212496 -40.424713
-6.295749 -27.279675 -42.038826
-2.482432 -9.556389 -50.341003
-4.281425 -16.791893 -45.977463
-3.208428 -15.245732 -47.76619
-1.477997 -17.583488 -50.072868
-2.454705 -19.042572 -48.278233
-20.759981 -38.443581 -23.519991
-20.251902 -36.640984 -24.613415
-1.145014 11.215862 -59.024288
-0.222057 10.189709 -60.297729
0.626379 9.057108 -61.456264
1.510337 8.154598 -62.701817
1.445093 11.017087 -63.275806
2.325157 12.973505 -64.991356
3.400791 15.018707 -66.71579
-10.946214 -37.21376 -36.165707
-35.174362 -3.455963 23.494326
-36.097767 -20.507984 14.453678
-35.405663 -24.292044 14.653295
-26.560301 -39.911167 -13.680256
-1.537685 -5.207825 -53.158585
-1.573426 -8.037682 -52.165604
-1.817818 -10.925265 -50.918324
-2.253404 -13.882366 -49.485233
-1.377998 -12.684284 -51.175453
-0.899588 -14.219607 -51.647255
-17.361866 -42.627998 -27.619337
-16.518526 -40.274891 -28.890738
-15.593947 -37.627205 -30.208632
-36.695507 5.698514 20.723604
-0.692816 -0.332175 -56.21563
0.013434 -1.643433 -56.97023
0.746679 -2.78056 -57.868763
1.387166 -4.405021 -58.402397
1.477161 -1.032351 -59.718678
2.356532 0.976919 -61.804794
2.386391 7.18167 -63.8139
3.356908 5.936368 -64.806267
-1.483024 16.944586 -59.438869
-0.5073 18.595163 -60.999119
-36.341282 1.222127 21.183586
-35.985363 -2.566291 21.548225
-35.533501 -6.735352 21.929586
-35.83765 -10.104767 20.270731
-35.051994 -11.009907 22.204809
-34.598415 -14.952834 22.358053
-34.155319 -18.428497 22.522778
-33.797836 -25.277775 20.918295
-33.741425 -28.533949 19.220119
-33.581722 -31.609491 17.370806
-34.716797 -27.750952 14.890108
-33.979107 -31.31171 15.137114
-33.265751 -34.721581 15.271471
-32.764774 -37.678776 13.28133
-30.931459 -42.103222 2.890738
-31.822947 -39.077507 2.585059
-30.667322 -41.731903 0.648234
-30.379299 -41.177322 -1.630559
-29.996037 -40.676765 -3.879376
-29.627003 -39.930859 -6.029637
-29.112274 -39.308964 -8.171144
-28.590982 -38.465965 -10.208059
-28.015779 -37.714199 -12.046179
-27.232885 -37.052235 -14.035019
-23.792509 -36.152569 -20.075718
-23.351236 -38.407879 -19.887129
-1.665395 22.489956 -59.290443
-0.583659 21.457338 -60.823738
0.436055 20.464916 -62.386433
1.801364 27.241745 -62.712559
1.646808 24.646366 -63.389301
1.496361 21.950258 -63.7757
1.440402 19.408958 -63.970051
2.459088 18.73555 -65.502724
3.510202 17.694641 -66.9524
-14.655306 -35.192177 -31.49086
-13.32722 -35.126633 -33.051865
-12.131828 -34.964134 -34.501732
-10.962366 -34.786701 -35.972473
-9.77703 -34.288868 -37.512875
-8.517778 -31.086393 -39.054737
-4.487835 -21.337162 -44.937225
-2.73509 -16.902384 -48.139992
-3.434168 -20.203009 -46.609863
-4.228986 -23.34951 -45.141541
-22.552661 -36.569399 -21.636398
-22.97374 -36.392685 -21.134922
-18.809557 -38.250282 -26.13248
-19.135064 -39.260323 -25.518711
-19.349984 -38.005798 -25.455025
-18.223069 -38.390608 -26.833004
-18.809557 -38.250282 -26.13248
4.47069 12.510312 -67.644863
3.916828 11.521357 -66.843926
3.931723 13.085045 -67.113216
5.057208 11.824118 -68.129497
4.47069 12.510312 -67.644863
-3.209969 21.836117 -57.485422
-3.139603 20.391727 -57.496628
-34.308628 -8.011918 24.786788
-34.518175 -5.932894 24.663191
-34.512346 -9.630543 23.923114
-34.095659 -10.071369 24.869528
-34.308628 -8.011918 24.786788
-33.803785 -33.774374 9.770689
-34.144008 -32.289462 10.817301
-33.42157 -35.275772 8.768755
-33.358744 -35.474558 9.876463
-33.803785 -33.774374 9.770689
-33.425092 -35.091995 7.719221
-32.980051 -36.792179 7.824995
-33.42157 -35.275772 8.768755
0.159941 27.405734 -60.655071
-0.412361 27.962804 -59.84022
0.218497 28.736477 -60.337206
4.474355 23.895283 -67.129612
3.861464 24.286 -66.307098
4.377477 22.689072 -67.373306
4.474355 23.895283 -67.129612
-5.269553 -25.363986 -43.546192
-5.748661 -26.891042 -42.82319
-5.816641 -25.752619 -42.761827
-3.119619 -11.605848 -48.868819
-2.967987 -10.222976 -49.491612
-2.634064 -10.939261 -49.71821
-3.312214 -13.087121 -48.185983
-3.119619 -11.605848 -48.868819
-2.997062 -13.783932 -48.430803
-3.52358 -14.548921 -47.52137
-3.312214 -13.087121 -48.185983
-1.809199 -19.251283 -49.329109
-1.270791 -18.432495 -50.290363
-1.239804 12.66004 -59.160703
-1.640769 11.698232 -58.38248
-1.735559 13.142411 -58.518896
-12.129819 -38.767744 -34.712576
-12.674119 -38.889099 -33.964012
-11.535107 -37.353952 -35.38122
-11.540926 -38.627552 -35.497063
-12.129819 -38.767744 -34.712576
-35.117186 0.30186 24.220143
-35.297661 2.446737 24.054144
-35.337711 -1.353602 23.407815
-34.953837 -1.800501 24.306654
-35.117186 0.30186 24.220143
-36.35017 -20.033328 13.452257
-36.40826 -18.531075 14.436833
-35.973715 -22.062432 13.53576
-36.35017 -20.033328 13.452257
-26.488677 -41.801592 -12.653261
-26.756996 -42.324714 -11.706295
-26.849765 -40.332979 -12.800342
-26.199213 -41.379779 -13.533174
-26.488677 -41.801592 -12.653261
-1.12318 -4.348515 -54.123097
-1.482744 -3.668395 -53.780512
-1.06824 -2.809086 -54.745024
-0.230984 -14.130643 -52.839138
-0.690276 -15.037588 -51.839735
-0.440297 -13.312662 -52.646658
0.25874 -13.383492 -53.803583
-0.230984 -14.130643 -52.839138
-20.103387 -42.370281 -23.591236
-20.55607 -42.070688 -22.933322
-18.709319 -43.260099 -25.550768
-19.175065 -42.899242 -24.916207
-18.814661 -41.925329 -25.566651
-18.270943 -43.63558 -26.231436
-18.709319 -43.260099 -25.550768
-17.85539 -42.457092 -26.910274
-17.777418 -43.806486 -26.940499
-18.270943 -43.63558 -26.231436
-1.399808 7.403214 -57.62619
-1.527281 8.885117 -57.861428
-1.120345 3.119034 -56.721502
-1.174134 4.578901 -57.111677
-0.746503 4.011383 -57.604607
-1.081908 1.726957 -56.307656
-1.120345 3.119034 -56.721502
-0.692765 1.109671 -56.715031
-1.081958 0.285112 -55.808255
-1.081908 1.726957 -56.307656
2.833446 3.409134 -63.286312
2.811731 1.822815 -62.725664
2.378248 2.563238 -62.365442
3.870344 6.951332 -65.69928
3.362156 7.459894 -65.227131
3.875591 8.474858 -66.120144
3.808983 5.320253 -65.149666
3.870344 6.951332 -65.69928
-36.744942 1.678665 20.100465
-36.518394 3.46032 20.953595
-36.922055 3.916859 19.870475
-36.162598 -4.340271 20.695692
-36.392864 -2.250889 20.470316
-36.570099 -4.024869 19.617784
-33.974921 -22.015165 21.757515
-33.889975 -20.355254 22.644877
-34.240265 -20.088408 21.635416
-34.061523 -23.513047 20.833174
-33.711233 -23.779893 21.842636
-33.974921 -22.015165 21.757515
-34.895063 -27.596967 13.816701
-35.06123 -26.021498 14.771701
-35.239497 -25.867513 13.698294
-32.483825 -39.004576 11.225078
-32.503849 -38.792949 10.102458
-31.516628 -41.127689 5.031816
-31.577421 -41.25815 6.08327
-32.037134 -39.663492 5.948646
-31.4539 -40.818127 3.893965
-30.994187 -42.412785 4.028589
-31.516628 -41.127689 5.031816
-31.707418 -38.81512 1.390768
-32.274581 -37.491672 2.364574
-32.159053 -37.229286 1.170283
-30.485976 -39.072371 -3.985436
-30.65126 -39.344406 -2.95771
-30.301459 -38.699417 -5.060567
-29.81152 -40.303812 -4.954506
-30.485976 -39.072371 -3.985436
-29.583818 -37.680855 -8.297213
-29.817197 -38.057436 -7.272832
-29.323172 -37.259355 -9.31567
-28.851628 -38.887465 -9.189602
-29.583818 -37.680855 -8.297213
-28.351365 -36.279305 -12.263442
-28.75134 -36.514385 -11.230809
-27.959918 -35.948323 -13.257862
-27.624332 -37.383217 -13.040599
-28.351365 -36.279305 -12.263442
-2.193862 26.099187 -58.351087
-2.161719 27.431835 -58.143085
-1.60842 26.740454 -58.823519
-2.186643 24.70609 -58.485968
-2.193862 26.099187 -58.351087
-1.652979 23.948881 -59.160982
-2.199059 23.247165 -58.615429
-2.186643 24.70609 -58.485968
2.94748 27.411211 -63.98044
3.55547 26.99964 -64.869648
2.321152 26.769005 -63.541769
2.427691 27.883951 -63.15123
2.94748 27.411211 -63.98044
4.177246 18.631811 -67.686481
3.584326 19.054774 -66.953179
4.251371 19.991944 -67.68726
4.109525 17.266933 -67.654937
4.177246 18.631811 -67.686481
-14.816529 -33.924504 -31.448457
-15.290478 -35.05806 -30.775067
-12.873474 -33.742144 -33.653904
-13.521956 -33.94331 -32.911301
-12.275778 -33.660894 -34.378838
-12.729524 -35.045383 -33.776798
-12.873474 -33.742144 -33.653904
-7.960348 -30.818885 -39.804907
-7.998283 -29.649445 -39.739725
-7.440853 -29.381936 -40.489895
-8.560344 -32.422722 -39.070966
-7.960348 -30.818885 -39.804907
-4.347975 -18.974491 -45.479868
-4.598372 -18.196659 -45.291653
-4.031028 -17.569725 -46.165678
-4.134233 -19.84236 -45.645559
-4.701577 -20.469293 -44.771534
-4.347975 -18.974491 -45.479868
-3.612495 -23.816837 -46.091241
-4.151815 -24.402164 -45.224855
-3.689666 -22.764183 -46.007927
2.157855 -4.01663 -59.746249
1.743276 -5.07083 -58.727457
1.801744 -3.350821 -59.421188
-22.277583 -37.590795 -21.699046
-22.019843 -38.752403 -21.691955
-22.506063 -38.407758 -21.129275
-22.06644 -36.914043 -22.199078
-22.277583 -37.590795 -21.699046
-22.552661 -36.569399 -21.636398
-21.836685 -36.085157 -22.735727
-21.561608 -37.106554 -22.798376
-22.06644 -36.914043 -22.199078
-15.384245 -41.562145 -30.44884
-15.856127 -41.551344 -29.762974
-14.818225 -41.608652 -31.210473
-15.384245 -41.562145 -30.44884
-14.833171 -40.261797 -31.144022
-14.382323 -41.809443 -31.867093
-14.818225 -41.608652 -31.210473
-13.745694 -40.296179 -32.618473
-14.382323 -41.809443 -31.867093
-13.24764 -38.963617 -33.22024
-13.745694 -40.296179 -32.618473
-13.769096 -38.975742 -32.507421
-12.69752 -37.568663 -33.852961
-12.674119 -38.889099 -33.964012
-13.24764 -38.963617 -33.22024
-35.73008 2.844403 22.983059
-35.297661 2.446737 24.054144
-27.41769 -41.237904 -10.90524
-26.756996 -42.324714 -11.706295
0.66081 -10.077095 -55.366779
0.461109 -11.705025 -54.574957
0.218695 -10.777786 -54.437883
1.051837 -9.307847 -56.265335
0.66081 -10.077095 -55.366779
0.809423 -8.380608 -56.128262
1.511659 -8.428658 -57.244383
1.051837 -9.307847 -56.265335
-17.718394 -38.594034 -27.482046
-18.089962 -39.708233 -26.845207
-18.223069 -38.390608 -26.833004
-17.272218 -37.384058 -28.169802
-17.139111 -38.701683 -28.182005
-17.718394 -38.594034 -27.482046
4.419787 9.45646 -66.983933
3.875591 8.474858 -66.120144
3.911599 9.965022 -66.511784
5.013535 10.310323 -67.782817
4.419787 9.45646 -66.983933
5.013535 10.310323 -67.782817
5.057208 11.824118 -68.129497
-3.088647 18.921232 -57.487387
-3.003651 17.318501 -57.415579
-2.565416 19.618509 -58.127642
-3.088647 18.921232 -57.487387
-3.139603 20.391727 -57.496628
-33.899309 -12.045165 24.939101
-34.095659 -10.071369 24.869528
-34.052103 -13.545101 24.185132
-33.899309 -12.045165 24.939101
-36.710788 -5.721646 18.810282
-36.570099 -4.024869 19.617784
-36.129796 -15.323522 17.420486
-36.428488 -13.275524 17.289488
-36.462486 -15.028635 16.36428
-34.433136 -30.754637 11.84207
-34.696272 -29.173246 12.835613
-34.030086 -32.438334 11.903164
-34.433136 -30.754637 11.84207
-34.144008 -32.289462 10.817301
-32.540155 -38.611707 8.993801
-32.503849 -38.792949 10.102458
-32.940221 -37.157198 9.983186
-32.537228 -38.384954 7.937315
-32.100855 -40.020706 8.056587
-32.540155 -38.611707 8.993801
-32.066851 -36.930955 0.036865
-32.159053 -37.229286 1.170283
-31.449186 -38.282391 -0.919784
-32.066851 -36.930955 0.036865
-24.608995 -42.685412 -15.955324
-24.920946 -43.260676 -15.047968
-24.30708 -42.161011 -16.773105
-24.608995 -42.685412 -15.955324
-24.893904 -41.36394 -16.054882
-24.002901 -41.513604 -17.604971
-24.30708 -42.161011 -16.773105
-24.29062 -40.249535 -17.642117
-23.701532 -40.9236 -18.374425
-24.002901 -41.513604 -17.604971
-0.96504 28.683324 -59.068935
-1.507529 29.392586 -58.346188
-1.023597 27.352581 -59.386801
-0.96504 28.683324 -59.068935
-0.412361 27.962804 -59.84022
3.40421 25.88055 -65.211109
3.55547 26.99964 -64.869648
3.306526 24.613619 -65.509716
2.743255 25.029334 -64.669586
3.40421 25.88055 -65.211109
3.200509 23.434784 -65.765575
3.306526 24.613619 -65.509716
3.861464 24.286 -66.307098
4.328978 21.342943 -67.568806
3.706949 21.761035 -66.758457
4.377477 22.689072 -67.373306
4.251371 19.991944 -67.68726
4.328978 21.342943 -67.568806
-11.27621 -31.101401 -35.679075
-11.75526 -32.328444 -35.030741
-10.58847 -30.867256 -36.476812
-11.27621 -31.101401 -35.679075
-9.932309 -30.582266 -37.2885
-10.434631 -32.014242 -36.617226
-10.58847 -30.867256 -36.476812
-6.992674 -26.744672 -41.13064
-7.606407 -27.169579 -40.32181
-7.120292 -25.701754 -41.027737
-6.849334 -28.915526 -41.296951
-7.440853 -29.381936 -40.489895
-6.887269 -27.746085 -41.231769
-6.296641 -28.546993 -42.063242
-6.849334 -28.915526 -41.296951
-6.296641 -28.546993 -42.063242
-5.748661 -26.891042 -42.82319
-2.917436 -8.879739 -50.000258
-2.423144 -8.158006 -50.883541
-2.917436 -8.879739 -50.000258
-2.967987 -10.222976 -49.491612
-4.060078 -15.322001 -46.627007
-4.658345 -15.976712 -45.734963
-3.744927 -16.018813 -46.871826
-4.060078 -15.322001 -46.627007
-3.52358 -14.548921 -47.52137
-2.297553 -19.980825 -48.431792
-1.966351 -18.31303 -49.17555
-1.809199 -19.251283 -49.329109
-2.645373 -21.548966 -47.729832
-2.802525 -20.610714 -47.576273
-2.297553 -19.980825 -48.431792
-3.025552 -23.220121 -47.014259
-2.645373 -21.548966 -47.729832
2.625363 -3.096252 -60.712812
2.682805 -1.379864 -61.415757
-20.766025 -40.690893 -22.966342
-20.55607 -42.070688 -22.933322
-21.519169 -39.131536 -22.310442
-22.019843 -38.752403 -21.691955
-21.003478 -39.385607 -22.939574
-21.519169 -39.131536 -22.310442
-21.275672 -38.18951 -22.890859
-20.522528 -39.748867 -23.546759
-20.766025 -40.690893 -22.966342
-21.003478 -39.385607 -22.939574
-19.63819 -36.818371 -25.341105
-19.349984 -38.005798 -25.455025
-19.963697 -37.828412 -24.727336
-1.578152 10.33329 -58.147602
-1.640769 11.698232 -58.38248
-1.094143 9.767689 -58.738113
-1.527281 8.885117 -57.861428
-1.578152 10.33329 -58.147602
3.943188 14.546353 -67.314972
3.931723 13.085045 -67.113216
3.389326 13.557398 -66.514035
-11.014315 -38.552481 -36.236599
-11.540926 -38.627552 -35.497063
-10.376054 -37.015857 -36.939056
-11.014315 -38.552481 -36.236599
-34.742699 -3.87533 24.490167
-34.953837 -1.800501 24.306654
-34.949838 -5.513528 23.66735
-34.518175 -5.932894 24.663191
-34.742699 -3.87533 24.490167
-36.441274 -16.815399 15.457633
-36.462486 -15.028635 16.36428
-36.130781 -18.792309 15.474478
-36.441274 -16.815399 15.457633
-36.40826 -18.531075 14.436833
-35.627663 -23.954462 13.635568
-35.751715 -22.400014 14.553486
-35.973715 -22.062432 13.53576
-35.239497 -25.867513 13.698294
-35.627663 -23.954462 13.635568
-25.516973 -42.368366 -14.311596
-24.920946 -43.260676 -15.047968
-25.878061 -40.899754 -14.458678
-25.516973 -42.368366 -14.311596
-26.199213 -41.379779 -13.533174
0.834524 29.415531 -60.687928
0.218497 28.736477 -60.337206
-6.710139 -24.289679 -41.690901
-7.120292 -25.701754 -41.027737
-6.104826 -23.780508 -42.510685
-6.710139 -24.289679 -41.690901
-5.520313 -23.254866 -43.334816
-5.922046 -24.751206 -42.660698
-6.104826 -23.780508 -42.510685
-1.906287 -4.51941 -52.864418
-1.482744 -3.668395 -53.780512
-1.95077 -5.983724 -52.292332
-1.906287 -4.51941 -52.864418
-1.968641 -7.398653 -51.795842
-1.95077 -5.983724 -52.292332
-1.555556 -6.622753 -52.662095
-2.027929 -8.797035 -51.253304
-2.423144 -8.158006 -50.883541
-1.968641 -7.398653 -51.795842
-0.97948 -16.719528 -51.052542
-1.188792 -15.901547 -50.860062
-0.690276 -15.037588 -51.839735
-1.270791 -18.432495 -50.290363
-0.97948 -16.719528 -51.052542
0.25874 -13.383492 -53.803583
0.461109 -11.705025 -54.574957
-19.601053 -42.62544 -24.270519
-20.103387 -42.370281 -23.591236
-19.782741 -41.309313 -24.252809
-19.601053 -42.62544 -24.270519
-19.175065 -42.899242 -24.916207
-17.34469 -43.95158 -27.636279
-17.777418 -43.806486 -26.940499
-16.837464 -42.757698 -28.381448
-17.34469 -43.95158 -27.636279
-16.415795 -41.581144 -29.017148
-16.837464 -42.757698 -28.381448
-16.940196 -41.451444 -28.255038
-15.958859 -40.245091 -29.636564
-15.856127 -41.551344 -29.762974
-16.415795 -41.581144 -29.017148
-36.865536 7.847336 20.375136
-36.466493 7.416563 21.474198
-37.088646 5.971554 19.596633
-36.865536 7.847336 20.375136
-36.922055 3.916859 19.870475
-37.088646 5.971554 19.596633
-1.278318 5.979081 -57.397611
-1.399808 7.403214 -57.62619
-0.921782 6.895383 -58.22336
-1.278318 5.979081 -57.397611
-1.174134 4.578901 -57.111677
-1.06031 -1.230571 -55.309034
-1.081958 0.285112 -55.808255
-0.700746 -1.91069 -55.651619
-1.06824 -2.809086 -54.745024
-1.06031 -1.230571 -55.309034
2.75291 0.256906 -62.098163
2.682805 -1.379864 -61.415757
2.286427 -0.659851 -61.122387
2.75291 0.256906 -62.098163
2.811731 1.822815 -62.725664
3.311918 4.302539 -64.226401
2.833446 3.409134 -63.286312
2.878436 5.042963 -63.866179
3.311918 4.302539 -64.226401
3.808983 5.320253 -65.149666
-1.865959 14.628101 -58.607664
-1.735559 13.142411 -58.518896
-2.455892 16.649999 -58.018305
-3.003651 17.318501 -57.415579
-1.940173 16.048285 -58.678539
-2.455892 16.649999 -58.018305
-1.998742 17.5463 -58.778635
-1.408809 15.524402 -59.367994
-1.865959 14.628101 -58.607664
-1.940173 16.048285 -58.678539
-36.327303 5.31928 21.684209
-36.466493 7.416563 21.474198
-36.150191 3.081087 21.9142
-36.327303 5.31928 21.684209
-36.518394 3.46032 20.953595
-35.921171 0.985443 22.252445
-35.73008 2.844403 22.983059
-36.150191 3.081087 21.9142
-36.570824 -0.35668 20.287997
-36.744942 1.678665 20.100465
-36.163322 -0.672082 21.365905
-36.570824 -0.35668 20.287997
-36.392864 -2.250889 20.470316
-36.485012 -7.766011 18.951276
-36.710788 -5.721646 18.810282
-36.362995 -11.494091 18.202544
-36.428488 -13.275524 17.289488
-36.233921 -9.761268 19.165062
-36.362995 -11.494091 18.202544
-35.966724 -11.837589 19.308213
-36.088741 -8.109509 20.056945
-36.485012 -7.766011 18.951276
-36.233921 -9.761268 19.165062
-34.201622 -15.176521 23.361232
-34.052103 -13.545101 24.185132
-34.448896 -13.321414 23.181953
-33.980074 -16.914352 23.443594
-34.201622 -15.176521 23.361232
-34.376867 -16.690666 22.440416
-33.779731 -18.944691 23.426046
-33.980074 -16.914352 23.443594
-33.779731 -18.944691 23.426046
-33.889975 -20.355254 22.644877
-33.469535 -25.629337 21.905825
-33.711233 -23.779893 21.842636
-33.504953 -27.112093 21.047653
-33.469535 -25.629337 21.905825
-33.476748 -28.74018 20.198565
-33.504953 -27.112093 21.047653
-33.76963 -26.905862 20.069207
-33.435732 -30.313454 19.302295
-33.476748 -28.74018 20.198565
-33.35588 -31.851225 18.377639
-33.435732 -30.313454 19.302295
-33.661574 -30.07172 18.295462
-33.268946 -33.292108 17.380311
-33.35588 -31.851225 18.377639
-34.518006 -29.32723 13.90902
-34.895063 -27.596967 13.816701
-34.696272 -29.173246 12.835613
-33.11096 -34.848152 16.330644
-33.268946 -33.292108 17.380311
-33.423737 -33.165536 16.321138
-32.914414 -36.363843 15.360477
-33.11096 -34.848152 16.330644
-32.663925 -37.84244 14.365406
-32.914414 -36.363843 15.360477
-33.015263 -36.200178 14.276401
-32.376847 -39.328097 13.426289
-32.663925 -37.84244 14.365406
-32.414255 -39.174744 12.319821
-32.834345 -37.508608 12.186587
-32.483825 -39.004576 11.225078
-32.376847 -39.328097 13.426289
-32.414255 -39.174744 12.319821
-31.657208 -41.378218 7.13844
-32.100855 -40.020706 8.056587
-31.657208 -41.378218 7.13844
-31.577421 -41.25815 6.08327
-30.473648 -43.644051 3.007402
-30.994187 -42.412785 4.028589
-30.298534 -43.562643 1.892147
-30.473648 -43.644051 3.007402
-33.463184 -34.847931 6.701992
-33.425092 -35.091995 7.719221
-32.941067 -36.442043 5.653458
-33.463184 -34.847931 6.701992
-32.437451 -37.904358 4.714322
-32.479957 -38.070717 5.836327
-32.941067 -36.442043 5.653458
-32.360754 -37.676595 3.558257
-32.274581 -37.491672 2.364574
-31.899644 -39.305269 3.741125
-32.437451 -37.904358 4.714322
-32.360754 -37.676595 3.558257
-30.166466 -43.376984 0.770895
-30.298534 -43.562643 1.892147
-30.799391 -41.917563 1.769486
-30.058026 -42.985342 -0.354622
-30.166466 -43.376984 0.770895
-29.914015 -42.708051 -1.494019
-30.058026 -42.985342 -0.354622
-30.523311 -41.454612 -0.491163
-29.751143 -42.40707 -2.584517
-29.914015 -42.708051 -1.494019
-30.84289 -39.594684 -1.833302
-30.985594 -39.865028 -0.717041
-31.449186 -38.282391 -0.919784
-30.187668 -40.927043 -2.754968
-30.84289 -39.594684 -1.833302
-30.65126 -39.344406 -2.95771
-29.559513 -42.156791 -3.708926
-29.751143 -42.40707 -2.584517
-30.187668 -40.927043 -2.754968
-29.357214 -41.898445 -4.747444
-29.559513 -42.156791 -3.708926
-29.172697 -41.525492 -5.822574
-29.357214 -41.898445 -4.747444
-29.81152 -40.303812 -4.954506
-28.929086 -41.189848 -6.923755
-29.172697 -41.525492 -5.822574
-30.074562 -38.368384 -6.202078
-30.301459 -38.699417 -5.060567
-29.369639 -39.619912 -7.10039
-30.074562 -38.368384 -6.202078
-29.817197 -38.057436 -7.272832
-28.671722 -40.878901 -7.994509
-28.929086 -41.189848 -6.923755
-29.369639 -39.619912 -7.10039
-28.404212 -40.51499 -9.030597
-28.671722 -40.878901 -7.994509
-28.143566 -40.093491 -10.049055
-28.404212 -40.51499 -9.030597
-28.851628 -38.887465 -9.189602
-27.865105 -39.610378 -11.064244
-27.41769 -41.237904 -10.90524
-28.143566 -40.093491 -10.049055
-29.038942 -36.890268 -10.311749
-29.323172 -37.259355 -9.31567
-28.30338 -38.090082 -11.127119
-29.038942 -36.890268 -10.311749
-28.75134 -36.514385 -11.230809
-27.572693 -35.606659 -14.210902
-27.959918 -35.948323 -13.257862
-26.882899 -36.616478 -14.908877
-27.572693 -35.606659 -14.210902
-26.19324 -37.669605 -15.616526
-26.543226 -38.105362 -14.742667
-26.882899 -36.616478 -14.908877
-25.873261 -37.123005 -16.443086
-25.533589 -38.611889 -16.276877
-26.19324 -37.669605 -15.616526
-25.489974 -36.747509 -17.260209
-25.873261 -37.123005 -16.443086
-25.12021 -36.26638 -18.059559
-24.843846 -37.58416 -17.902787
-25.489974 -36.747509 -17.260209
-24.723789 -35.889691 -18.826356
-25.12021 -36.26638 -18.059559
-24.383002 -35.414459 -19.513146
-24.133296 -36.6278 -19.388928
-24.723789 -35.889691 -18.826356
-23.925582 -35.228651 -20.231423
-24.383002 -35.414459 -19.513146
-23.488093 -35.845894 -20.604598
-23.925582 -35.228651 -20.231423
-23.404726 -40.257779 -19.116115
-23.701532 -40.9236 -18.374425
-23.085718 -39.631952 -19.853895
-23.404726 -40.257779 -19.116115
-23.670244 -39.033705 -19.149349
-22.799779 -38.988623 -20.504656
-23.085718 -39.631952 -19.853895
-23.057519 -37.827015 -20.511747
-22.506063 -38.407758 -21.129275
-22.799779 -38.988623 -20.504656
-23.488093 -35.845894 -20.604598
-22.97374 -36.392685 -21.134922
-23.278156 -36.69936 -20.606042
-2.114496 28.833962 -57.964312
-1.507529 29.392586 -58.346188
-2.114496 28.833962 -57.964312
-2.161719 27.431835 -58.143085
-2.674547 22.546689 -58.038648
-3.209969 21.836117 -57.485422
-2.140883 21.789479 -58.713663
-2.674547 22.546689 -58.038648
-2.199059 23.247165 -58.615429
1.425254 28.942323 -61.519621
0.834524 29.415531 -60.687928
1.930536 28.473492 -62.299871
2.427691 27.883951 -63.15123
1.296082 27.710576 -61.932308
1.425254 28.942323 -61.519621
1.930536 28.473492 -62.299871
4.054819 15.928966 -67.536632
3.455496 16.356674 -66.834095
4.109525 17.266933 -67.654937
3.943188 14.546353 -67.314972
4.054819 15.928966 -67.536632
-21.721347 -35.225988 -23.144678
-21.836685 -36.085157 -22.735727
-21.145077 -35.371037 -23.811886
-21.721347 -35.225988 -23.144678
-20.605103 -35.552695 -24.45108
-20.791877 -36.459326 -23.974221
-21.145077 -35.371037 -23.811886
-19.987018 -35.638817 -25.169837
-20.605103 -35.552695 -24.45108
-19.63819 -36.818371 -25.341105
-19.987018 -35.638817 -25.169837
-16.960458 -36.190462 -28.722087
-17.272218 -37.384058 -28.169802
-16.309293 -36.207825 -29.464517
-16.960458 -36.190462 -28.722087
-15.759799 -36.275574 -30.133952
-16.143442 -37.559456 -29.539197
-16.309293 -36.207825 -29.464517
-15.124626 -36.409691 -30.849746
-15.759799 -36.275574 -30.133952
-15.290478 -35.05806 -30.775067
-14.185999 -33.976082 -32.130798
-14.816529 -33.924504 -31.448457
-13.991263 -35.159405 -32.271363
-14.185999 -33.976082 -32.130798
-13.521956 -33.94331 -32.911301
-11.61131 -33.631683 -35.153635
-12.275778 -33.660894 -34.378838
-11.75526 -32.328444 -35.030741
-9.791462 -35.553411 -37.61264
-10.376054 -37.015857 -36.939056
-10.361622 -35.751314 -36.839291
-9.230649 -30.294272 -38.148043
-9.932309 -30.582266 -37.2885
-8.080809 -28.535895 -39.645942
-7.606407 -27.169579 -40.32181
-8.600304 -29.972843 -38.960954
-8.080809 -28.535895 -39.645942
-7.998283 -29.649445 -39.739725
-9.148124 -31.407823 -38.241825
-9.230649 -30.294272 -38.148043
-8.600304 -29.972843 -38.960954
-9.189971 -34.02396 -38.300035
-9.147404 -32.68763 -38.283806
-8.560344 -32.422722 -39.070966
-9.791462 -35.553411 -37.61264
-9.189971 -34.02396 -38.300035
-4.880527 -17.31891 -45.12562
-4.658345 -15.976712 -45.734963
-4.880527 -17.31891 -45.12562
-4.598372 -18.196659 -45.291653
-5.095464 -21.810665 -44.061014
-4.701577 -20.469293 -44.771534
-4.912684 -22.781363 -44.211027
-5.520313 -23.254866 -43.334816
-5.095464 -21.810665 -44.061014
-4.715279 -24.925959 -44.374548
-5.269553 -25.363986 -43.546192
-4.783259 -23.787537 -44.313185
-4.715279 -24.925959 -44.374548
-4.151815 -24.402164 -45.224855
-3.612495 -23.816837 -46.091241
-3.025552 -23.220121 -47.014259
1.649919 -6.674001 -58.039667
1.293808 -6.008191 -57.714607
1.743276 -5.07083 -58.727457
1.511659 -8.428658 -57.244383
1.649919 -6.674001 -58.039667
2.157855 -4.01663 -59.746249
2.625363 -3.096252 -60.712812
3 192 191 46
3 0 50 48
3 0 52 50
3 1 54 53
3 1 55 54
3 2 58 56
3 2 60 58
3 2 61 60
3 193 64 194
3 195 194 62
3 193 194 195
3 197 196 64
3 3 68 66
3 3 70 68
3 3 72 70
3 198 75 199
3 200 199 73
3 198 199 200
3 202 201 75
3 203 77 204
3 4 205 206
3 4 207 209
3 207 78 208
3 207 208 209
3 5 81 79
3 5 83 81
3 5 85 83
3 210 87 211
3 212 89 213
3 214 213 87
3 212 213 214
3 215 91 216
3 217 216 89
3 215 216 217
3 6 93 92
3 6 95 93
3 7 218 220
3 218 97 219
3 218 219 220
3 7 99 97
3 221 101 222
3 224 223 101
3 8 106 104
3 8 225 227
3 227 226 106
3 225 226 227
3 9 228 230
3 230 229 107
3 228 229 230
3 9 231 232
3 9 233 235
3 233 109 234
3 233 234 235
3 237 236 110
3 11 112 47
3 11 113 112
3 12 238 240
3 238 114 239
3 238 239 240
3 14 115 49
3 14 116 115
3 14 118 116
3 16 119 51
3 16 120 119
3 17 241 242
3 17 243 245
3 243 121 244
3 243 244 245
3 18 246 247
3 18 248 250
3 248 122 249
3 248 249 250
3 251 123 252
3 254 253 123
3 19 255 256
3 19 257 259
3 257 125 258
3 257 258 259
3 20 260 262
3 260 126 261
3 260 261 262
3 21 127 57
3 21 128 127
3 21 130 128
3 23 131 59
3 23 263 265
3 265 264 131
3 263 264 265
3 23 266 267
3 10 268 269
3 24 270 272
3 272 271 63
3 270 271 272
3 24 273 274
3 24 275 277
3 275 132 276
3 275 276 277
3 25 133 65
3 25 134 133
3 13 278 279
3 26 280 282
3 282 281 67
3 280 281 282
3 26 283 284
3 26 285 287
3 285 136 286
3 285 286 287
3 27 137 69
3 27 138 137
3 27 140 138
3 29 141 71
3 29 288 290
3 290 289 141
3 288 289 290
3 15 142 117
3 291 143 292
3 293 292 74
3 291 292 293
3 295 294 143
3 30 144 76
3 30 145 144
3 296 146 297
3 298 297 135
3 296 297 298
3 31 299 301
3 299 147 300
3 299 300 301
3 31 148 147
3 32 149 80
3 32 150 149
3 32 151 150
3 33 152 82
3 33 302 304
3 304 303 152
3 302 303 304
3 33 305 307
3 305 153 306
3 305 306 307
3 34 154 84
3 34 155 154
3 308 156 309
3 310 309 124
3 308 309 310
3 35 157 86
3 35 158 157
3 35 159 158
3 312 311 88
3 36 313 315
3 315 314 90
3 313 314 315
3 36 316 318
3 316 160 317
3 316 317 318
3 37 319 321
3 319 161 320
3 319 320 321
3 37 162 161
3 37 163 162
3 322 164 323
3 324 165 325
3 326 325 164
3 324 325 326
3 327 166 328
3 329 167 330
3 331 330 166
3 329 330 331
3 332 168 333
3 334 169 335
3 336 335 168
3 334 335 336
3 38 171 94
3 38 170 171
3 39 337 339
3 339 338 96
3 337 338 339
3 39 340 341
3 39 342 344
3 342 172 343
3 342 343 344
3 40 173 98
3 40 174 173
3 41 345 346
3 41 347 349
3 347 175 348
3 347 348 349
3 41 176 175
3 42 177 100
3 42 178 177
3 42 179 178
3 350 180 351
3 352 351 102
3 350 351 352
3 354 353 180
3 355 181 356
3 357 182 358
3 359 183 360
3 361 360 182
3 359 360 361
3 43 184 103
3 43 185 184
3 362 186 363
3 364 363 105
3 362 363 364
3 366 365 186
3 44 367 369
3 369 368 108
3 367 368 369
3 44 370 372
3 370 187 371
3 370 371 372
3 22 188 129
3 45 189 111
3 45 190 189
3 45 373 375
3 375 374 190
3 373 374 375
3 28 376 378
3 378 377 139
3 376 377 378
3 46 379 381
3 379 47 380
3 379 380 381
3 382 47 383
3 384 383 46
3 382 383 384
3 385 11 386
3 387 386 47
3 385 386 387
3 48 49 12
3 50 49 48
3 50 14 49
3 50 51 14
3 52 51 50
3 52 16 51
3 53 388 389
3 54 390 392
3 392 391 53
3 390 391 392
3 54 393 394
3 54 395 396
3 55 397 399
3 399 398 54
3 397 398 399
3 55 400 402
3 400 17 401
3 400 401 402
3 403 18 404
3 405 19 406
3 56 57 20
3 58 57 56
3 58 21 57
3 58 59 21
3 60 59 58
3 60 23 59
3 60 407 409
3 409 408 23
3 407 408 409
3 61 410 412
3 412 411 60
3 410 411 412
3 61 413 414
3 62 63 10
3 64 63 62
3 64 24 63
3 64 65 24
3 415 65 416
3 417 416 64
3 415 416 417
3 418 25 419
3 420 419 65
3 418 419 420
3 66 67 13
3 68 67 66
3 68 26 67
3 68 69 26
3 70 69 68
3 70 27 69
3 70 71 27
3 72 71 70
3 72 29 71
3 73 74 15
3 75 74 73
3 75 421 423
3 423 422 74
3 421 422 423
3 75 424 425
3 427 426 75
3 428 76 429
3 77 430 432
3 430 76 431
3 430 431 432
3 77 30 76
3 78 433 434
3 78 435 436
3 437 31 438
3 79 439 441
3 439 80 440
3 439 440 441
3 81 80 79
3 81 32 80
3 81 82 32
3 83 82 81
3 83 33 82
3 83 84 33
3 85 84 83
3 85 34 84
3 442 86 443
3 87 444 446
3 444 86 445
3 444 445 446
3 87 35 86
3 87 88 35
3 89 88 87
3 89 447 449
3 449 448 88
3 447 448 449
3 89 450 452
3 450 90 451
3 450 451 452
3 91 90 89
3 91 36 90
3 453 37 454
3 456 455 37
3 92 457 458
3 93 459 461
3 461 460 92
3 459 460 461
3 93 462 463
3 93 464 466
3 464 94 465
3 464 465 466
3 95 94 93
3 95 38 94
3 467 96 468
3 97 469 471
3 469 96 470
3 469 470 471
3 97 39 96
3 97 98 39
3 99 98 97
3 99 40 98
3 472 41 473
3 474 100 475
3 476 475 41
3 474 475 476
3 101 477 479
3 477 100 478
3 477 478 479
3 101 42 100
3 101 102 42
3 480 102 481
3 482 481 101
3 480 481 482
3 484 483 102
3 485 103 486
3 487 103 488
3 489 43 490
3 491 490 103
3 489 490 491
3 104 492 494
3 492 105 493
3 492 493 494
3 106 105 104
3 106 495 497
3 497 496 105
3 495 496 497
3 106 498 499
3 501 500 106
3 107 502 503
3 505 504 107
3 506 108 507
3 109 508 510
3 508 108 509
3 508 509 510
3 109 44 108
3 110 111 22
3 511 111 512
3 513 512 110
3 511 512 513
3 514 45 515
3 516 515 111
3 514 515 516
3 518 517 45
3 520 519 28
3 521 10 522
3 47 523 524
3 112 525 527
3 527 526 47
3 525 526 527
3 112 528 530
3 528 10 529
3 528 529 530
3 112 62 10
3 113 62 112
3 113 531 533
3 533 532 62
3 531 532 533
3 114 534 535
3 114 536 538
3 536 13 537
3 536 537 538
3 49 114 12
3 115 114 49
3 115 13 114
3 115 66 13
3 116 66 115
3 116 3 66
3 116 117 3
3 118 117 116
3 118 15 117
3 51 118 14
3 119 118 51
3 119 15 118
3 119 73 15
3 120 73 119
3 120 539 541
3 541 540 73
3 539 540 541
3 121 542 543
3 121 544 545
3 122 546 547
3 122 548 550
3 548 4 549
3 548 549 550
3 551 79 552
3 123 553 555
3 553 79 554
3 553 554 555
3 123 5 79
3 123 124 5
3 556 124 557
3 558 557 123
3 556 557 558
3 560 559 124
3 561 92 562
3 125 563 565
3 563 92 564
3 563 564 565
3 125 6 92
3 566 7 567
3 568 104 569
3 570 104 571
3 572 8 573
3 574 573 104
3 572 573 574
3 126 575 576
3 126 577 578
3 57 126 20
3 127 126 57
3 127 579 581
3 581 580 126
3 579 580 581
3 127 582 584
3 582 107 583
3 582 583 584
3 128 107 127
3 128 9 107
3 128 129 9
3 130 129 128
3 130 22 129
3 59 130 21
3 131 130 59
3 131 22 130
3 131 110 22
3 585 110 586
3 587 586 131
3 585 586 587
3 589 588 110
3 591 590 23
3 63 592 594
3 594 593 10
3 592 593 594
3 596 595 63
3 132 597 598
3 132 599 600
3 65 132 24
3 133 132 65
3 133 601 603
3 603 602 132
3 601 602 603
3 133 604 606
3 604 53 605
3 604 605 606
3 134 53 133
3 134 1 53
3 607 135 608
3 609 135 610
3 612 611 135
3 67 613 615
3 615 614 13
3 613 614 615
3 617 616 67
3 136 618 619
3 136 620 622
3 620 20 621
3 620 621 622
3 69 136 26
3 137 136 69
3 137 20 136
3 137 56 20
3 138 56 137
3 138 2 56
3 138 139 2
3 140 139 138
3 140 28 139
3 71 140 27
3 141 140 71
3 141 28 140
3 141 623 625
3 625 624 28
3 623 624 625
3 627 626 141
3 117 72 3
3 142 72 117
3 142 29 72
3 74 142 15
3 143 142 74
3 143 29 142
3 143 628 630
3 630 629 29
3 628 629 630
3 632 631 143
3 633 12 634
3 76 635 636
3 144 637 639
3 639 638 76
3 637 638 639
3 144 640 642
3 640 12 641
3 640 641 642
3 144 48 12
3 145 48 144
3 145 0 48
3 135 643 644
3 146 645 647
3 647 646 135
3 645 646 647
3 146 648 650
3 648 18 649
3 648 649 650
3 651 146 652
3 147 653 655
3 653 146 654
3 653 654 655
3 147 18 146
3 147 122 18
3 148 122 147
3 148 4 122
3 656 31 657
3 80 658 659
3 149 660 662
3 662 661 80
3 660 661 662
3 149 663 665
3 663 31 664
3 663 664 665
3 149 148 31
3 150 148 149
3 150 4 148
3 150 78 4
3 151 78 150
3 151 666 668
3 668 667 78
3 666 667 668
3 82 151 32
3 152 151 82
3 152 669 671
3 671 670 151
3 669 670 671
3 152 672 673
3 675 674 152
3 153 676 677
3 153 678 679
3 84 153 33
3 154 153 84
3 154 680 682
3 682 681 153
3 680 681 682
3 154 683 684
3 155 685 687
3 687 686 154
3 685 686 687
3 155 688 689
3 124 85 5
3 156 85 124
3 156 34 85
3 86 690 692
3 690 156 691
3 690 691 692
3 157 156 86
3 157 34 156
3 157 155 34
3 158 155 157
3 158 693 695
3 695 694 155
3 693 694 695
3 158 696 697
3 159 698 700
3 700 699 158
3 698 699 700
3 159 701 702
3 88 159 35
3 703 159 704
3 705 704 88
3 703 704 705
3 707 706 159
3 90 708 709
3 711 710 90
3 160 712 713
3 160 714 715
3 716 91 717
3 718 91 719
3 720 36 721
3 722 721 91
3 720 721 722
3 161 723 724
3 161 725 727
3 725 36 726
3 725 726 727
3 161 160 36
3 162 160 161
3 162 728 730
3 730 729 160
3 728 729 730
3 162 731 732
3 163 733 735
3 735 734 162
3 733 734 735
3 163 736 737
3 738 163 739
3 740 739 37
3 738 739 740
3 164 741 743
3 741 163 742
3 741 742 743
3 164 744 746
3 746 745 163
3 744 745 746
3 164 747 748
3 165 749 751
3 751 750 164
3 749 750 751
3 165 752 753
3 754 165 755
3 166 756 758
3 756 165 757
3 756 757 758
3 166 759 761
3 761 760 165
3 759 760 761
3 166 762 763
3 167 764 766
3 766 765 166
3 764 765 766
3 167 767 769
3 767 19 768
3 767 768 769
3 770 167 771
3 168 772 774
3 772 167 773
3 772 773 774
3 168 19 167
3 168 125 19
3 169 125 168
3 169 6 125
3 775 169 776
3 777 169 778
3 779 6 780
3 781 780 169
3 779 780 781
3 782 95 783
3 784 783 6
3 782 783 784
3 785 95 786
3 787 38 788
3 789 788 95
3 787 788 789
3 790 38 791
3 792 170 793
3 794 793 38
3 792 793 794
3 795 170 796
3 798 797 170
3 94 799 800
3 171 801 803
3 803 802 94
3 801 802 803
3 171 804 805
3 171 806 808
3 806 46 807
3 806 807 808
3 170 46 171
3 170 809 811
3 811 810 46
3 809 810 811
3 96 812 813
3 815 814 96
3 816 77 817
3 172 818 820
3 818 77 819
3 818 819 820
3 172 30 77
3 98 172 39
3 173 172 98
3 173 30 172
3 173 145 30
3 174 145 173
3 174 0 145
3 821 7 822
3 175 823 824
3 175 825 827
3 825 7 826
3 825 826 827
3 175 99 7
3 176 99 175
3 176 40 99
3 100 176 41
3 177 176 100
3 177 40 176
3 177 174 40
3 178 174 177
3 178 0 174
3 178 52 0
3 179 52 178
3 179 16 52
3 102 179 42
3 180 179 102
3 180 16 179
3 180 120 16
3 828 120 829
3 830 829 180
3 828 829 830
3 832 831 120
3 833 11 834
3 835 11 836
3 837 113 838
3 839 838 11
3 837 838 839
3 840 113 841
3 843 842 113
3 844 25 845
3 846 25 847
3 848 134 849
3 850 849 25
3 848 849 850
3 181 851 853
3 851 134 852
3 851 852 853
3 181 1 134
3 854 181 855
3 182 856 858
3 856 181 857
3 856 857 858
3 182 1 181
3 182 55 1
3 183 55 182
3 183 17 55
3 103 859 861
3 859 183 860
3 859 860 861
3 184 183 103
3 184 17 183
3 184 121 17
3 185 121 184
3 185 862 864
3 864 863 121
3 862 863 864
3 865 43 866
3 105 867 868
3 186 869 871
3 871 870 105
3 869 870 871
3 186 872 874
3 872 43 873
3 872 873 874
3 186 185 43
3 875 185 876
3 877 876 186
3 875 876 877
3 879 878 185
3 108 880 881
3 883 882 108
3 187 884 885
3 187 886 888
3 886 8 887
3 886 887 888
3 129 109 9
3 188 109 129
3 188 44 109
3 111 188 22
3 189 188 111
3 189 44 188
3 189 187 44
3 190 187 189
3 190 8 187
3 190 889 891
3 891 890 8
3 889 890 891
3 893 892 190
3 895 894 45
3 139 61 2
3 896 61 897
3 898 897 139
3 896 897 898
3 900 899 61
3 902 901 28
