ply
format ascii 1.0
element vertex 876
property float x
property float y
property float z
element face 948
property list uchar int vertex_index
end_header
-18.701809 -20.501606 72.546547
10.124616 -4.246849 53.798054
32.180099 13.522241 26.477575
23.421862 -1.185511 40.966125
-30.449402 -25.322344 62.964272
-25.796379 -19.191626 72.919617
-28.348089 -28.200466 69.758018
28.135628 6.579226 34.027905
21.810205 5.548728 40.891373
4.135614 -12.13059 59.07626
11.61523 -10.653358 52.686611
-4.25333 -13.161744 64.99894
-10.288034 -20.637838 68.845894
-12.818124 -12.774395 69.919685
15.411247 4.006504 47.748859
2.369556 -5.473902 59.869808
37.620655 11.782402 20.172951
16.950853 -2.571486 47.445637
39.374695 15.777584 12.507691
-30.483871 -20.748341 66.086426
-28.318972 -17.809551 71.426529
-27.289171 -23.501492 71.804977
-29.345491 -22.568254 69.416832
-29.794418 -27.127285 66.778038
23.96962 9.666069 37.376129
20.932266 9.068628 40.917347
1.061275 -15.966891 61.372028
-5.016511 -9.383096 65.209488
-8.447008 -12.97634 67.537064
-9.356849 -9.193385 67.825562
-1.658374 -5.845347 62.678066
-0.96522 -9.326559 62.582115
-14.607885 -20.80146 71.01075
35.011791 12.890176 23.267584
36.054867 8.890241 24.051184
33.132675 9.78984 27.240597
25.834152 2.76808 37.637169
28.808155 2.772061 34.730026
12.860421 -0.151283 50.881336
16.335743 0.84257 47.485794
13.646678 -3.237981 50.611561
30.736271 17.376837 26.219358
33.593971 16.795958 22.775997
36.537464 15.778339 19.132441
39.259712 16.97678 8.620244
-22.415789 -20.094465 73.264671
-20.846024 -24.764627 72.931
-24.442186 -24.392229 72.944099
29.048443 13.749343 30.081121
30.243853 10.0481 30.374304
27.012207 10.042154 33.893505
24.86805 6.277596 37.486397
22.600655 2.188484 40.98761
7.123706 -8.213927 56.601154
10.890697 -7.344146 53.399223
7.846816 -11.386353 56.044418
-3.098703 -16.461046 64.361488
-7.461201 -16.718571 67.13047
-11.731345 -16.872232 69.516716
-15.831589 -16.478472 71.445625
-13.25549 -8.441541 69.887672
-16.731224 -11.989992 71.661575
-19.90097 -15.875595 72.826012
-23.469574 -15.024569 73.288933
17.722254 8.388598 44.521973
6.367429 -4.95191 56.877922
3.145173 -8.887344 59.680485
-0.083357 -12.666403 62.207878
31.198622 6.370347 30.93722
18.686041 4.940249 44.289268
19.480726 1.623837 44.240585
20.350273 -1.620867 44.016579
14.402196 -6.554708 50.175835
17.735773 -5.781455 46.948166
37.478729 18.062624 15.281532
38.845718 14.024404 16.234385
-28.947874 -20.173855 70.465843
-29.751282 -19.428024 69.077141
-30.005152 -21.77689 67.907188
21.9606 11.132167 39.233715
-7.175261 -9.317345 66.538322
-3.275092 -7.603749 63.933304
-16.706627 -20.554874 71.871635
-17.8123 -22.617956 72.262871
33.646076 13.254998 24.818609
34.211685 11.236676 25.21018
32.722202 11.706654 26.767351
24.602613 0.885098 39.363281
26.225416 0.931722 37.791096
24.95903 -0.886121 39.440849
11.413383 -2.111134 52.440365
13.334541 -1.646889 50.687092
11.938288 -3.600567 52.174644
31.33634 15.379067 26.533663
32.18721 16.988773 24.547197
32.953354 15.119183 24.642256
34.464272 14.912031 22.781305
-30.306301 -27.740734 61.324902
-24.185513 -19.676935 73.243446
-23.457142 -22.175219 73.206734
-25.072132 -21.914856 72.991821
-27.872368 -26.021009 70.874214
-26.6665 -26.359314 71.818321
-27.246344 -28.800772 70.883942
-28.619127 -30.489262 68.57196
-30.207809 -26.466702 64.915527
-29.846704 -29.459387 65.286964
-30.175705 -28.542032 63.357944
27.450386 13.712362 31.979658
28.065136 12.034418 31.945797
26.535313 11.868447 33.748734
22.90246 7.553801 39.173584
24.411661 7.936379 37.434975
23.335781 5.968876 39.175423
23.820539 4.280842 39.177429
22.292339 3.888329 40.844131
5.584577 -10.151983 57.909634
7.45627 -9.840132 56.390644
5.957028 -11.809107 57.619179
28.323029 15.466757 30.192444
-3.670027 -14.833074 64.704948
-5.188239 -16.590034 65.730194
-5.919257 -14.852036 66.122536
-10.590002 -13.053078 68.753838
-10.1878 -14.936815 68.61541
-12.191845 -14.771313 69.68045
-13.797919 -16.715097 70.540298
-14.254835 -14.639167 70.693459
-18.644766 -11.547505 72.314728
-18.281857 -13.952864 72.301613
-20.235605 -13.442461 72.837196
-21.792028 -15.467786 73.183716
2.014986 -3.763595 59.896053
4.025486 -3.443121 58.419937
5.963316 -3.162093 56.95343
4.416553 -5.213886 58.369045
4.734769 -6.914995 58.328064
2.852693 -7.068313 59.716164
-2.580448 -11.146122 63.796986
-0.432403 -10.93623 62.350887
-2.093553 -12.918709 63.586956
-1.437472 -14.574886 63.203979
-8.119344 -20.584009 67.593666
35.097527 7.439917 25.990871
29.208035 8.386812 32.197124
30.743269 8.22715 30.63092
29.629028 6.412326 32.562126
16.543566 6.086507 46.210934
18.18248 6.602326 44.434826
17.135336 4.547993 45.947712
16.638811 -0.926565 47.503597
17.842653 1.11609 45.967667
18.226143 -0.52492 45.902729
19.886358 0.08545 44.162067
18.663265 -2.049339 45.723667
11.155531 -9.037118 53.188721
12.734161 -6.961051 51.736774
12.96825 -8.621107 51.525822
19.308538 -5.454839 45.405373
36.223743 19.014879 16.915203
37.13953 13.710794 19.669008
37.762783 14.876745 17.71513
38.319092 12.916172 18.211321
39.315796 11.998301 16.892113
39.41391 16.452065 10.516756
40.001225 14.322165 11.442293
39.926449 13.71503 13.287246
-30.49312 -23.274977 64.654541
-30.631681 -22.456949 62.531239
-30.70742 -20.256645 64.160194
-27.157488 -18.559328 72.311043
-26.583904 -21.297421 72.470825
-27.910192 -20.816349 71.590996
-28.445555 -23.197994 70.723747
-28.852663 -25.577847 69.651245
-29.190262 -27.814709 68.316978
-29.630827 -24.858021 68.164406
-30.189201 -24.024054 66.408951
24.999886 11.692884 35.568928
23.373524 11.453943 37.517715
22.527927 9.403725 39.058983
21.432514 7.317049 40.820351
2.665261 -13.984228 60.199608
4.486352 -13.800805 58.756012
3.066815 -15.671737 59.801292
-4.637064 -11.226827 65.117676
-6.386183 -13.004566 66.312386
-6.826108 -11.157506 66.462364
-8.915255 -11.121485 67.699539
-11.029106 -11.038509 68.886948
0.402819 -5.581734 61.250282
0.78358 -7.409337 61.202068
-1.143618 -7.543667 62.522774
-2.994549 -9.36702 63.919621
-12.499977 -20.718729 70.013
36.370213 12.395561 21.692293
36.892139 10.43741 22.071922
35.642265 10.879211 23.567268
34.684502 9.386571 25.573992
33.752251 7.913882 27.407473
26.973335 4.659873 35.897598
28.447496 4.66397 34.428631
27.338823 2.873296 36.137806
27.726336 0.981255 36.338299
14.220551 1.932722 49.278587
15.972477 2.488223 47.516602
14.656358 0.412232 49.152447
15.097411 -1.145405 48.996284
15.260917 -2.888072 49.083221
34.403698 18.218773 20.62895
35.760193 17.752987 18.853052
35.155865 16.347582 20.85634
35.891891 14.353545 21.139109
38.715355 17.829386 11.794136
-20.664888 -20.229118 73.030006
-19.827812 -22.445436 72.82682
-21.685602 -22.570265 73.13578
-22.766026 -24.543596 73.086464
-25.914734 -24.012203 72.534775
-25.183992 -26.683018 72.488815
-29.342772 -30.031147 67.029175
30.598675 13.69078 28.28233
31.098629 11.903388 28.560471
29.590677 11.980919 30.242712
28.627974 10.22901 32.059696
27.615479 8.28665 33.912342
25.423588 9.818369 35.716537
25.91692 8.139351 35.759789
26.507357 6.517914 35.715561
25.395424 4.613304 37.488026
24.266407 2.632846 39.215057
23.106689 0.621101 40.879665
8.568425 -6.207008 55.28236
10.462182 -5.732622 53.662075
9.06043 -7.812957 54.989262
9.346004 -9.491169 54.787807
9.662457 -11.125377 54.458328
6.39167 -13.362322 57.187271
8.259077 -13.003939 55.575012
29.841173 15.502716 28.312883
-4.622452 -18.421524 65.380966
-6.727767 -18.478716 66.727745
-8.964898 -18.710287 68.06665
-8.013052 -14.847589 67.37542
-9.573976 -16.709558 68.347855
-11.013186 -18.718441 69.20005
-13.086824 -18.720579 70.256584
-15.216393 -18.776155 71.238472
-17.250532 -18.503551 72.045532
-11.268712 -8.844974 68.879082
-12.973375 -10.556783 69.885361
-15.071064 -10.320995 70.871826
-14.74099 -12.421575 70.833366
-16.315214 -14.281453 71.586006
-17.984324 -16.382675 72.266594
-19.236782 -18.267111 72.687294
-21.213518 -17.920395 73.128067
-23.034773 -17.644781 73.312653
-24.668699 -16.970472 73.222946
-26.090786 -16.313276 72.876907
14.888692 5.695516 47.903931
13.750614 3.710717 49.365673
12.474393 1.621573 50.909618
11.176085 -0.37392 52.3792
9.764546 -2.429164 53.866596
7.856734 -2.826051 55.450848
8.344755 -4.411748 55.271309
6.794105 -6.559666 56.727772
5.228418 -8.448533 58.097996
3.672295 -10.469137 59.394451
1.150546 -9.028178 61.110817
1.599317 -10.81458 60.928825
2.100901 -12.398242 60.627701
0.618883 -14.280984 61.738094
-0.93678 -16.224888 62.851269
31.734457 10.11361 28.688044
32.219597 8.077451 29.084507
32.675957 6.23227 29.386467
29.988178 4.634559 32.885166
31.465256 4.435524 31.429386
19.294487 8.640429 42.803822
19.871277 6.960163 42.579494
20.268991 5.321519 42.559635
17.59123 2.956328 45.833019
19.118042 3.285 44.227787
20.65613 3.646386 42.578899
21.095795 2.05522 42.526318
21.479025 0.375277 42.533253
21.922323 -1.253218 42.423927
12.221488 -5.373197 52.101547
13.946991 -4.888692 50.50531
15.66044 -4.516881 48.877644
14.735226 -8.217075 49.848652
16.107288 -6.207187 48.541145
17.273109 -4.182552 47.311039
18.978844 -3.624066 45.609512
20.54752 -3.412352 44.064255
22.123407 -3.138497 42.514027
37.751667 19.136806 13.225969
38.461407 17.163076 13.797648
37.111107 16.872108 17.223616
38.205379 16.06027 15.730075
39.144371 15.118092 14.315808
39.685421 12.9955 15.069182
-29.864293 -17.83307 68.9715
-29.51401 -18.324388 69.649608
-30.025638 -18.992316 68.324765
-29.864293 -17.83307 68.9715
23.597492 -2.029051 40.938017
24.366076 -1.879356 40.175379
24.190446 -1.035816 40.203487
-30.464232 -25.010101 61.881815
-30.392681 -26.219296 61.06213
-30.377851 -26.531539 62.144587
-28.012563 -29.566899 69.802944
-27.46169 -29.867052 70.365906
-27.797217 -28.500619 70.32098
-28.483608 -29.344864 69.164989
-28.148081 -30.711297 69.209915
-28.012563 -29.566899 69.802944
26.227267 12.733313 33.793859
26.992849 12.790405 32.864196
26.684804 13.655271 32.909322
26.684804 13.655271 32.909322
27.135341 14.600549 32.007478
-19.591949 -11.221179 72.548408
-18.763309 -10.338155 72.276211
-20.387369 -12.168658 72.809642
-19.440185 -12.494983 72.575962
-19.591949 -11.221179 72.548408
-21.160716 -13.134645 72.987671
-20.387369 -12.168658 72.809642
-9.832497 -21.563963 68.590233
-8.748152 -21.537049 67.964119
-9.203689 -20.610923 68.21978
37.851362 10.820174 20.362977
38.198072 11.400497 19.420885
35.266688 6.469639 26.201104
34.574171 6.623145 26.990663
35.541786 19.43056 17.75881
35.783535 20.059565 16.727058
38.198072 11.400497 19.420885
38.547291 11.967382 18.44007
37.969873 12.349287 19.192136
23.096908 12.314487 37.593426
23.862857 12.431878 36.644676
-0.829856 -4.814966 61.989615
-1.795663 -4.858386 62.652958
-0.627777 -5.713541 61.964174
0.20074 -4.68316 61.275723
-0.829856 -4.814966 61.989615
-14.164986 -21.768224 70.818531
-13.111033 -21.726859 70.319656
-13.553931 -20.760095 70.511875
27.112434 0.002713 37.170777
26.975876 0.956489 37.064698
26.361973 -0.022054 37.897175
27.920575 0.026356 36.400476
27.112434 0.002713 37.170777
31.080931 18.232554 25.260473
30.325682 18.282253 26.262586
33.239372 17.787872 22.615679
32.535992 17.88428 23.50128
32.890591 16.892365 23.661597
33.998835 17.507365 21.702473
33.644236 18.49928 21.542156
33.239372 17.787872 22.615679
38.276898 18.947682 11.55974
38.67734 18.293011 10.785649
-30.633651 -21.87275 61.523518
-30.712761 -20.767663 62.369575
-24.04156 -25.603902 72.88095
-23.20348 -25.679586 72.952133
-23.604106 -24.467913 73.015282
-25.530607 -27.796384 72.153401
-25.925246 -26.521166 72.153568
-26.271861 -27.634532 71.818153
-24.763393 -27.981933 72.412296
-25.530607 -27.796384 72.153401
-29.656013 -30.769609 65.433952
-29.850254 -30.531748 64.519887
5.744693 -14.38024 57.655733
5.439011 -13.581564 57.971642
4.792034 -14.599481 58.440103
8.471932 -13.851201 55.267393
7.605601 -13.985132 56.054276
9.173761 -12.826887 54.749245
8.471932 -13.851201 55.267393
-3.860577 -17.441285 64.871227
-3.520876 -18.252612 64.626836
-2.759002 -17.272373 64.117097
-12.262101 -8.643258 69.383377
-11.300985 -7.751032 68.813851
-12.294374 -7.549316 69.318145
-15.901144 -11.155494 71.2667
-16.042424 -9.978595 71.252803
-16.872504 -10.813094 71.647678
-26.266429 -14.857495 72.792873
-25.544003 -15.231794 73.006507
-26.791694 -15.988732 72.523349
-26.266429 -14.857495 72.792873
14.627538 6.622062 47.966547
15.486287 6.803544 47.096096
12.866376 3.484971 50.199466
13.459871 4.542358 49.466282
12.228265 2.440399 50.971439
13.112503 2.666145 50.137646
12.866376 3.484971 50.199466
10.27169 -0.571106 53.160764
10.942789 0.427468 52.439253
9.56592 -1.598728 53.904463
10.470315 -1.401542 53.122898
10.27169 -0.571106 53.160764
-2.759002 -17.272373 64.117097
-1.67804 -17.154294 63.361988
-2.017742 -16.342967 63.606378
-19.887799 -24.759414 72.736122
-19.378694 -23.599818 72.684033
-20.336918 -23.605032 72.87891
36.678282 8.704163 23.259128
37.096918 9.477747 22.269497
36.473503 9.663825 23.061553
31.687689 3.480943 31.544747
30.916276 3.583761 32.308235
32.231037 4.389708 30.615046
31.687689 3.480943 31.544747
18.50837 8.514513 43.662897
19.085603 9.592889 42.813906
18.299487 9.466974 43.672982
14.842927 -9.10276 49.673136
13.989836 -9.25967 50.500498
16.92153 -5.994321 47.744656
16.239046 -7.087462 48.39965
17.053289 -6.874596 47.603161
20.764857 -4.255933 43.916329
19.928029 -4.433596 44.734814
20.145367 -5.277176 44.586888
21.552801 -4.119005 43.141215
21.335463 -3.275424 43.289141
20.764857 -4.255933 43.916329
22.322639 -4.063651 42.402005
21.552801 -4.119005 43.141215
37.615198 18.599715 14.25375
37.183668 19.685146 14.012797
37.047199 19.148055 15.040578
39.692926 11.544785 16.301204
39.474303 11.120931 17.158788
39.402607 16.109862 8.165391
39.043821 17.355397 7.727321
-30.58533 -19.226557 65.884788
-30.391933 -19.652475 66.829407
-29.112305 -18.697303 70.34396
-28.633423 -18.991703 70.946186
-28.797854 -17.515151 70.824303
-29.349578 -19.800939 69.771492
-29.112305 -18.697303 70.34396
-29.51401 -18.324388 69.649608
-30.152573 -20.166749 67.739788
-29.878217 -20.602457 68.492165
-30.025638 -18.992316 68.324765
-30.391933 -19.652475 66.829407
-30.244512 -21.262616 66.996807
-30.152573 -20.166749 67.739788
21.630634 12.021858 39.381942
22.390446 12.153599 38.451425
21.19843 10.944295 40.145216
21.630634 12.021858 39.381942
20.684263 9.912525 40.987032
21.446433 10.100397 40.075531
21.19843 10.944295 40.145216
1.332314 -16.734203 61.110588
0.349785 -16.955951 61.867991
-6.289782 -8.441192 65.915756
-6.095886 -9.35022 65.873905
-5.210407 -8.474067 65.251339
-7.312691 -8.371028 66.546329
-6.289782 -8.441192 65.915756
-8.403485 -8.309048 67.18995
-8.266055 -9.255365 67.181942
-7.312691 -8.371028 66.546329
-2.630771 -5.726746 63.309072
-1.795663 -4.858386 62.652958
-3.439129 -6.605947 63.936691
-2.466733 -6.724548 63.305685
-2.630771 -5.726746 63.309072
-4.339697 -7.584394 64.613247
-3.439129 -6.605947 63.936691
-5.210407 -8.474067 65.251339
-4.145802 -8.493422 64.571396
-4.339697 -7.584394 64.613247
-16.263748 -21.594342 71.706192
-15.214377 -21.717635 71.27575
-15.657256 -20.678167 71.441192
-16.816585 -22.625883 71.90181
-16.263748 -21.594342 71.706192
-17.259464 -21.586415 72.067253
-17.389821 -23.687174 72.10093
-16.816585 -22.625883 71.90181
25.72878 -0.930975 38.722051
26.361973 -0.022054 37.897175
25.592223 0.022801 38.615972
25.151604 -1.845416 39.43231
25.72878 -0.930975 38.722051
25.151604 -1.845416 39.43231
24.366076 -1.879356 40.175379
-30.295336 -27.313607 60.260993
-30.22746 -28.831165 60.468806
-30.295336 -27.313607 60.260993
-30.392681 -26.219296 61.06213
-26.561783 -28.855261 71.350964
-26.271861 -27.634532 71.818153
-26.956422 -27.580043 71.351132
-26.824305 -30.048677 70.915821
-26.561783 -28.855261 71.350964
-26.824305 -30.048677 70.915821
-27.46169 -29.867052 70.365906
-28.297382 -31.938549 68.591351
-28.148081 -30.711297 69.209915
-28.72686 -31.580508 67.906258
-28.297382 -31.938549 68.591351
-30.014755 -30.073071 63.555378
-29.850254 -30.531748 64.519887
-30.011204 -29.000709 64.322454
-30.135772 -29.605401 62.55217
-30.014755 -30.073071 63.555378
-30.20107 -29.204752 61.535649
-30.135772 -29.605401 62.55217
-30.241003 -28.141383 62.341423
-30.22746 -28.831165 60.468806
-30.20107 -29.204752 61.535649
27.571662 15.477747 31.11387
27.944912 16.466925 30.228953
27.886707 14.58956 31.086051
27.571662 15.477747 31.11387
27.135341 14.600549 32.007478
-13.290651 -7.309894 69.816852
-12.294374 -7.549316 69.318145
-17.829275 -10.59185 71.974255
-18.763309 -10.338155 72.276211
-17.687995 -11.768749 71.988152
-16.872504 -10.813094 71.647678
-17.829275 -10.59185 71.974255
-21.938927 -14.147307 73.160931
-21.013816 -14.455123 73.010456
-21.160716 -13.134645 72.987671
-22.777701 -13.925698 73.213539
-22.630801 -15.246177 73.236324
-21.938927 -14.147307 73.160931
2.825716 -2.713939 59.171323
1.886865 -2.825975 59.856964
3.830966 -2.553702 58.433265
2.825716 -2.713939 59.171323
3.020236 -3.603358 59.157995
4.768728 -2.471324 57.734867
3.830966 -2.553702 58.433265
4.994401 -3.302607 57.686684
5.737643 -2.33081 57.001613
4.768728 -2.471324 57.734867
-7.662431 -21.414391 67.303784
-7.09105 -20.408211 66.951874
-7.662431 -21.414391 67.303784
-8.748152 -21.537049 67.964119
-20.375758 -25.901024 72.775104
-21.333114 -25.917792 72.891312
35.781918 7.248001 25.174613
36.260588 7.973163 24.204769
35.576197 8.165079 25.021027
35.781918 7.248001 25.174613
35.266688 6.469639 26.201104
29.587725 2.752029 33.958555
29.048495 1.912508 34.766178
17.860273 -6.651453 46.816159
17.053289 -6.874596 47.603161
18.646656 -6.488145 46.044762
18.522155 -5.618147 46.176769
17.860273 -6.651453 46.816159
19.446904 -6.338819 45.262711
18.646656 -6.488145 46.044762
20.145367 -5.277176 44.586888
19.446904 -6.338819 45.262711
36.419706 19.624182 15.857413
35.783535 20.059565 16.727058
36.851236 18.538752 16.098368
37.047199 19.148055 15.040578
36.419706 19.624182 15.857413
39.045643 11.508446 17.780466
38.817444 12.457237 17.551717
38.547291 11.967382 18.44007
39.474303 11.120931 17.158788
39.045643 11.508446 17.780466
39.656368 15.604788 10.052255
39.579269 15.867145 9.103999
39.336811 16.714423 9.5685
39.950026 14.539838 10.515023
39.656368 15.604788 10.052255
39.707567 15.387115 10.979525
40.186298 13.498137 11.000764
39.950026 14.539838 10.515023
40.221922 13.307529 11.886558
40.186298 13.498137 11.000764
40.184534 13.003961 12.809034
40.221922 13.307529 11.886558
39.963837 14.018598 12.364769
40.12286 12.792128 13.646043
40.184534 13.003961 12.809034
-30.75063 -19.667511 63.184053
-30.712761 -20.767663 62.369575
-30.66955 -21.356797 63.345717
-30.697105 -18.980709 64.921672
-30.595645 -20.502493 65.12331
-30.58533 -19.226557 65.884788
-30.79027 -18.469248 63.973799
-30.697105 -18.980709 64.921672
-30.75063 -19.667511 63.184053
-30.79027 -18.469248 63.973799
24.676038 12.551348 35.670282
25.459554 12.645532 34.703957
24.186705 11.573414 36.543322
24.676038 12.551348 35.670282
23.862857 12.431878 36.644676
22.667062 11.293055 38.375715
23.096908 12.314487 37.593426
22.390446 12.153599 38.451425
4.082265 -15.534947 58.962744
4.792034 -14.599481 58.440103
3.776584 -14.736271 59.278652
2.335084 -16.586626 60.32522
2.064045 -15.819314 60.58666
1.332314 -16.734203 61.110588
3.336698 -16.486079 59.498622
2.335084 -16.586626 60.32522
4.082265 -15.534947 58.962744
3.336698 -16.486079 59.498622
1.006824 -3.77409 60.598608
1.886865 -2.825975 59.856964
1.208902 -4.672664 60.573167
1.006824 -3.77409 60.598608
0.20074 -4.68316 61.275723
-12.079449 -21.681494 69.806606
-10.973477 -21.641049 69.223053
-11.394005 -20.678283 69.429447
-12.079449 -21.681494 69.806606
-13.111033 -21.726859 70.319656
-14.164986 -21.768224 70.818531
-15.214377 -21.717635 71.27575
33.901533 6.860127 27.698964
34.574171 6.623145 26.990663
34.424889 7.6769 26.699172
28.507585 1.017105 35.570314
29.048495 1.912508 34.766178
28.267246 1.876658 35.534163
28.507585 1.017105 35.570314
27.920575 0.026356 36.400476
12.429838 -10.477812 51.919477
11.717999 -11.556266 52.479112
31.806401 18.038522 24.424392
31.080931 18.232554 25.260473
31.46174 17.182805 25.383277
31.806401 18.038522 24.424392
32.535992 17.88428 23.50128
33.945369 19.246392 20.551293
33.644236 18.49928 21.542156
34.631763 19.032507 19.615683
33.945369 19.246392 20.551293
35.081946 17.98588 19.741001
35.310011 18.799614 18.727735
34.631763 19.032507 19.615683
38.853825 18.186974 8.318937
39.043821 17.355397 7.727321
38.949518 17.866708 9.198704
38.853825 18.186974 8.318937
39.026617 17.604351 10.14696
39.336811 16.714423 9.5685
38.949518 17.866708 9.198704
39.064633 17.140726 11.155446
39.026617 17.604351 10.14696
38.67734 18.293011 10.785649
-30.555371 -23.577403 61.665298
-30.464232 -25.010101 61.881815
-30.540541 -23.889647 62.747755
-30.555371 -23.577403 61.665298
-30.633651 -21.87275 61.523518
-22.293115 -25.807277 72.969044
-21.333114 -25.917792 72.891312
-21.806025 -24.654111 73.008732
-22.293115 -25.807277 72.969044
-23.20348 -25.679586 72.952133
-24.412463 -26.749296 72.653309
-24.04156 -25.603902 72.88095
-24.813089 -25.537624 72.716457
-24.412463 -26.749296 72.653309
-24.763393 -27.981933 72.412296
-29.088683 -31.35145 67.134865
-28.72686 -31.580508 67.906258
-28.98095 -30.260205 67.800567
-29.404047 -31.055489 66.305058
-29.594738 -29.745267 66.158069
-29.656013 -30.769609 65.433952
-29.088683 -31.35145 67.134865
-29.404047 -31.055489 66.305058
25.767599 11.780665 34.658831
26.227267 12.733313 33.793859
25.459554 12.645532 34.703957
6.671898 -14.164323 56.860405
5.744693 -14.38024 57.655733
7.325373 -13.183131 56.381141
6.671898 -14.164323 56.860405
7.605601 -13.985132 56.054276
9.875452 -11.887605 54.190902
8.960767 -12.064658 55.01667
9.173761 -12.826887 54.749245
10.851838 -11.651596 53.305044
10.638844 -10.889368 53.572469
9.875452 -11.887605 54.190902
11.717999 -11.556266 52.479112
10.851838 -11.651596 53.305044
29.933971 17.352856 27.266644
30.325682 18.282253 26.262586
28.727351 16.397816 29.253187
27.944912 16.466925 30.228953
29.486422 16.415796 28.313407
28.727351 16.397816 29.253187
29.082101 15.484737 29.252663
30.288722 16.439777 27.26612
29.933971 17.352856 27.266644
29.486422 16.415796 28.313407
-4.218338 -19.217952 65.090397
-3.520876 -18.252612 64.626836
-5.342604 -19.326968 65.845523
-4.218338 -19.217952 65.090397
-6.395262 -19.355564 66.518913
-5.342604 -19.326968 65.845523
-5.675109 -18.45012 66.054355
-7.423555 -19.531363 67.160706
-7.09105 -20.408211 66.951874
-6.395262 -19.355564 66.518913
-9.384984 -8.151841 67.763852
-8.403485 -8.309048 67.18995
-10.340916 -7.977636 68.290611
-11.300985 -7.751032 68.813851
-10.312781 -9.019179 68.352322
-9.384984 -8.151841 67.763852
-10.340916 -7.977636 68.290611
-14.252033 -8.189182 70.338398
-13.290651 -7.309894 69.816852
-15.15982 -9.128909 70.830475
-16.042424 -9.978595 71.252803
-14.163277 -9.381268 70.379749
-14.252033 -8.189182 70.338398
-15.15982 -9.128909 70.830475
-23.591913 -13.587936 73.238236
-22.777701 -13.925698 73.213539
-24.233397 -14.587441 73.21252
-23.591913 -13.587936 73.238236
-24.832959 -15.560393 73.179527
-24.069136 -15.997521 73.255939
-24.233397 -14.587441 73.21252
-25.379742 -16.641874 73.049926
-24.832959 -15.560393 73.179527
-25.544003 -15.231794 73.006507
-27.325045 -17.111757 72.240418
-26.624137 -17.436302 72.593975
-26.791694 -15.988732 72.523349
-27.905786 -16.736869 71.79816
-27.73823 -18.184439 71.868786
-27.325045 -17.111757 72.240418
-28.493279 -16.315438 71.28273
-27.905786 -16.736869 71.79816
-28.797854 -17.515151 70.824303
-28.493279 -16.315438 71.28273
17.487986 9.269277 44.577461
18.299487 9.466974 43.672982
16.903067 8.150085 45.405117
17.487986 9.269277 44.577461
16.313724 6.99904 46.249598
17.13291 7.237552 45.366454
16.903067 8.150085 45.405117
15.716129 5.891011 47.057433
16.313724 6.99904 46.249598
15.486287 6.803544 47.096096
14.02891 5.534757 48.735411
14.627538 6.622062 47.966547
14.319653 4.703117 48.634802
14.02891 5.534757 48.735411
13.459871 4.542358 49.466282
11.591943 1.425214 51.704462
12.228265 2.440399 50.971439
11.825239 0.623826 51.644409
11.591943 1.425214 51.704462
10.942789 0.427468 52.439253
6.680832 -2.151396 56.258913
5.737643 -2.33081 57.001613
7.627541 -1.983375 55.507622
6.680832 -2.151396 56.258913
6.910025 -2.994072 56.202139
8.612014 -1.797172 54.696589
7.627541 -1.983375 55.507622
8.81064 -2.627607 54.658722
9.56592 -1.598728 53.904463
8.612014 -1.797172 54.696589
-0.649242 -17.08495 62.607611
0.349785 -16.955951 61.867991
0.062248 -16.095889 62.111649
-0.649242 -17.08495 62.607611
-1.67804 -17.154294 63.361988
-9.832497 -21.563963 68.590233
-10.973477 -21.641049 69.223053
-18.370938 -23.686078 72.402058
-18.820056 -22.531696 72.544846
-19.378694 -23.599818 72.684033
-17.389821 -23.687174 72.10093
-18.370938 -23.686078 72.402058
-19.887799 -24.759414 72.736122
-20.375758 -25.901024 72.775104
37.487104 10.147678 21.312463
37.851362 10.820174 20.362977
37.256397 11.109906 21.122436
37.487104 10.147678 21.312463
37.096918 9.477747 22.269497
36.678282 8.704163 23.259128
36.260588 7.973163 24.204769
33.363386 6.019321 28.688461
33.901533 6.860127 27.698964
33.214104 7.073076 28.39697
30.177737 3.683279 33.036125
29.398167 3.70331 33.807596
29.587725 2.752029 33.958555
30.726717 4.535042 32.157276
30.177737 3.683279 33.036125
30.916276 3.583761 32.308235
32.836388 5.28808 29.593586
32.070606 5.333897 30.407927
32.231037 4.389708 30.615046
33.363386 6.019321 28.688461
32.836388 5.28808 29.593586
19.865374 9.698425 41.930269
19.085603 9.592889 42.813906
20.113377 8.854529 41.860585
20.684263 9.912525 40.987032
19.865374 9.698425 41.930269
13.106348 -9.461686 51.339083
12.29174 -9.637232 52.106217
12.429838 -10.477812 51.919477
13.851738 -8.419091 50.687237
13.106348 -9.461686 51.339083
13.989836 -9.25967 50.500498
15.553015 -8.092406 49.053404
14.842927 -9.10276 49.673136
15.421257 -7.212131 49.194899
15.553015 -8.092406 49.053404
16.239046 -7.087462 48.39965
22.948264 -3.005543 41.711968
23.597492 -2.029051 40.938017
22.772635 -2.162004 41.740076
22.948264 -3.005543 41.711968
22.322639 -4.063651 42.402005
37.28134 20.200751 13.073277
37.183668 19.685146 14.012797
37.795053 19.601391 12.275657
37.28134 20.200751 13.073277
38.233511 18.483096 12.510053
38.276898 18.947682 11.55974
37.795053 19.601391 12.275657
35.991968 18.383933 17.884128
35.541786 19.43056 17.75881
35.310011 18.799614 18.727735
40.002346 12.432363 14.537011
40.12286 12.792128 13.646043
39.805935 13.355265 14.178214
39.877739 12.043385 15.389738
39.500608 12.4969 15.980647
39.692926 11.544785 16.301204
40.002346 12.432363 14.537011
39.877739 12.043385 15.389738
39.402607 16.109862 8.165391
39.579269 15.867145 9.103999
3 304 77 305
3 307 306 77
3 0 83 82
3 2 86 84
3 3 89 87
3 3 308 310
3 310 309 89
3 308 309 310
3 1 92 90
3 2 95 93
3 2 84 95
3 4 311 313
3 313 312 97
3 311 312 313
3 5 100 98
3 6 103 101
3 6 314 316
3 316 315 103
3 314 315 316
3 6 317 319
3 317 104 318
3 317 318 319
3 4 107 105
3 4 97 107
3 320 110 321
3 322 321 108
3 320 321 322
3 8 113 111
3 8 115 113
3 9 118 116
3 323 108 324
3 11 122 120
3 13 125 123
3 13 127 125
3 325 128 326
3 327 130 328
3 329 328 128
3 327 328 329
3 331 330 130
3 15 133 132
3 15 135 133
3 15 137 135
3 11 140 138
3 11 120 140
3 12 332 334
3 334 333 142
3 332 333 334
3 16 335 336
3 338 337 143
3 7 146 144
3 14 149 147
3 17 152 150
3 17 154 152
3 10 157 155
3 339 159 340
3 16 162 160
3 16 341 343
3 343 342 162
3 341 342 343
3 18 165 164
3 18 166 165
3 19 169 167
3 20 172 170
3 22 173 76
3 22 174 173
3 22 176 174
3 19 177 78
3 19 167 177
3 344 179 345
3 25 180 79
3 25 181 180
3 26 184 182
3 27 187 185
3 29 188 80
3 29 189 188
3 30 346 347
3 30 348 350
3 348 190 349
3 348 349 350
3 30 192 190
3 27 193 81
3 27 185 193
3 32 351 353
3 353 352 194
3 351 352 353
3 33 197 195
3 35 198 85
3 35 199 198
3 36 202 200
3 354 203 355
3 356 355 88
3 354 355 356
3 358 357 203
3 38 206 204
3 40 207 91
3 40 208 207
3 41 359 360
3 42 361 363
3 363 362 94
3 361 362 363
3 42 364 366
3 364 209 365
3 364 365 366
3 42 211 209
3 33 212 96
3 33 195 212
3 367 213 368
3 370 369 168
3 45 216 214
3 47 217 99
3 47 371 373
3 373 372 217
3 371 372 373
3 21 218 171
3 374 219 375
3 376 375 102
3 374 375 376
3 378 377 219
3 23 220 175
3 380 379 106
3 48 223 221
3 50 224 109
3 50 225 224
3 24 226 178
3 51 227 112
3 51 228 227
3 51 229 228
3 52 230 114
3 52 231 230
3 53 234 232
3 55 235 117
3 55 236 235
3 381 237 382
3 383 382 183
3 381 382 383
3 384 238 385
3 387 386 238
3 48 239 119
3 48 221 239
3 56 388 390
3 388 240 389
3 388 389 390
3 57 241 121
3 57 242 241
3 28 243 186
3 58 244 124
3 58 245 244
3 58 246 245
3 59 247 126
3 59 248 247
3 60 391 393
3 391 249 392
3 391 392 393
3 60 250 249
3 61 394 396
3 394 251 395
3 394 395 396
3 61 252 251
3 61 253 252
3 62 254 129
3 62 255 254
3 62 256 255
3 63 257 131
3 63 258 257
3 397 259 398
3 400 399 259
3 401 260 402
3 403 261 404
3 405 262 406
3 407 406 261
3 405 406 407
3 408 263 409
3 410 264 411
3 412 411 263
3 410 411 412
3 65 265 134
3 65 266 265
3 65 267 266
3 66 268 136
3 66 269 268
3 31 270 191
3 67 271 139
3 67 272 271
3 67 273 272
3 56 274 141
3 56 413 415
3 415 414 274
3 413 414 415
3 46 416 418
3 418 417 215
3 416 417 418
3 34 419 421
3 421 420 196
3 419 420 421
3 49 275 222
3 68 276 145
3 68 277 276
3 37 278 201
3 422 279 423
3 425 424 279
3 64 426 428
3 426 280 427
3 426 427 428
3 69 281 148
3 69 282 281
3 39 283 205
3 70 284 151
3 70 285 284
3 70 286 285
3 71 287 153
3 71 288 287
3 54 289 233
3 72 290 156
3 72 291 290
3 429 292 430
3 73 431 433
3 431 293 432
3 431 432 433
3 73 294 293
3 73 295 294
3 434 296 435
3 436 435 158
3 434 435 436
3 437 297 438
3 439 438 296
3 437 438 439
3 441 440 297
3 74 442 444
3 442 298 443
3 442 443 444
3 74 299 298
3 43 300 210
3 75 301 161
3 75 302 301
3 75 303 302
3 446 445 163
3 44 447 448
3 450 449 19
3 451 76 452
3 453 452 20
3 451 452 453
3 77 454 456
3 454 76 455
3 454 455 456
3 77 22 76
3 77 78 22
3 457 78 458
3 459 458 77
3 457 458 459
3 460 19 461
3 462 461 78
3 460 461 462
3 463 79 464
3 465 79 466
3 467 25 468
3 469 468 79
3 467 468 469
3 471 470 26
3 472 80 473
3 474 473 27
3 472 473 474
3 475 80 476
3 477 29 478
3 479 478 80
3 477 478 479
3 480 30 481
3 482 81 483
3 484 483 30
3 482 483 484
3 485 81 486
3 487 27 488
3 489 488 81
3 487 488 489
3 82 490 492
3 492 491 32
3 490 491 492
3 83 493 495
3 495 494 82
3 493 494 495
3 83 496 497
3 84 85 33
3 86 85 84
3 86 35 85
3 87 88 36
3 89 88 87
3 89 498 500
3 500 499 88
3 498 499 500
3 89 501 502
3 504 503 89
3 90 91 38
3 92 91 90
3 92 40 91
3 93 94 41
3 95 94 93
3 95 42 94
3 95 96 42
3 84 96 95
3 84 33 96
3 97 505 506
3 508 507 97
3 98 99 45
3 100 99 98
3 100 47 99
3 101 102 21
3 103 102 101
3 103 509 511
3 511 510 102
3 509 510 511
3 103 512 513
3 515 514 103
3 104 516 517
3 104 518 519
3 105 106 23
3 107 106 105
3 107 520 522
3 522 521 106
3 520 521 522
3 107 523 524
3 97 525 527
3 527 526 107
3 525 526 527
3 97 528 529
3 108 109 48
3 110 109 108
3 110 50 109
3 111 112 24
3 113 112 111
3 113 51 112
3 113 114 51
3 115 114 113
3 115 52 114
3 116 117 53
3 118 117 116
3 118 55 117
3 530 119 531
3 108 532 534
3 532 119 533
3 532 533 534
3 108 48 119
3 120 121 56
3 122 121 120
3 122 57 121
3 123 124 28
3 125 124 123
3 125 58 124
3 125 126 58
3 127 126 125
3 127 59 126
3 535 60 536
3 128 537 538
3 128 539 541
3 539 61 540
3 539 540 541
3 128 129 61
3 130 129 128
3 130 62 129
3 130 131 62
3 542 131 543
3 544 543 130
3 542 543 544
3 545 63 546
3 547 546 131
3 545 546 547
3 132 548 549
3 133 550 552
3 552 551 132
3 550 551 552
3 133 553 554
3 133 555 557
3 555 134 556
3 555 556 557
3 135 134 133
3 135 65 134
3 135 136 65
3 137 136 135
3 137 66 136
3 138 139 31
3 140 139 138
3 140 67 139
3 140 141 67
3 120 141 140
3 120 56 141
3 142 558 559
3 561 560 142
3 563 562 46
3 143 564 566
3 566 565 34
3 564 565 566
3 568 567 143
3 144 145 49
3 146 145 144
3 146 68 145
3 570 569 37
3 147 148 64
3 149 148 147
3 149 69 148
3 150 151 39
3 152 151 150
3 152 70 151
3 152 153 70
3 154 153 152
3 154 71 153
3 155 156 54
3 157 156 155
3 157 72 156
3 571 73 572
3 573 158 574
3 575 574 73
3 573 574 575
3 576 158 577
3 579 578 158
3 159 580 581
3 159 582 584
3 582 74 583
3 582 583 584
3 160 161 43
3 162 161 160
3 162 75 161
3 162 163 75
3 585 163 586
3 587 586 162
3 585 586 587
3 589 588 163
3 164 590 592
3 592 591 44
3 590 591 592
3 165 593 595
3 595 594 164
3 593 594 595
3 165 596 597
3 165 598 599
3 166 600 602
3 602 601 165
3 600 601 602
3 166 603 604
3 167 168 4
3 169 168 167
3 169 605 607
3 607 606 168
3 605 606 607
3 608 169 609
3 610 609 19
3 608 609 610
3 611 169 612
3 614 613 169
3 170 171 5
3 172 171 170
3 172 21 171
3 76 172 20
3 173 172 76
3 173 21 172
3 173 101 21
3 174 101 173
3 174 6 101
3 174 175 6
3 176 175 174
3 176 23 175
3 78 176 22
3 177 176 78
3 177 23 176
3 177 105 23
3 167 105 177
3 167 4 105
3 615 178 616
3 179 617 619
3 617 178 618
3 617 618 619
3 179 24 178
3 79 620 622
3 620 179 621
3 620 621 622
3 180 179 79
3 180 24 179
3 180 111 24
3 181 111 180
3 181 8 111
3 182 183 9
3 184 183 182
3 184 623 625
3 625 624 183
3 623 624 625
3 626 184 627
3 628 627 26
3 626 627 628
3 629 184 630
3 632 631 184
3 185 186 11
3 187 186 185
3 187 28 186
3 80 187 27
3 188 187 80
3 188 28 187
3 188 123 28
3 189 123 188
3 189 13 123
3 633 132 634
3 190 635 637
3 635 132 636
3 635 636 637
3 190 15 132
3 190 191 15
3 192 191 190
3 192 31 191
3 81 192 30
3 193 192 81
3 193 31 192
3 193 138 31
3 185 138 193
3 185 11 138
3 194 638 640
3 640 639 12
3 638 639 640
3 642 641 194
3 644 643 32
3 195 196 16
3 197 196 195
3 197 34 196
3 85 197 33
3 198 197 85
3 198 34 197
3 198 143 34
3 199 143 198
3 199 645 647
3 647 646 143
3 645 646 647
3 200 201 7
3 202 201 200
3 202 37 201
3 88 202 36
3 203 202 88
3 203 37 202
3 203 648 650
3 650 649 37
3 648 649 650
3 652 651 203
3 204 205 14
3 206 205 204
3 206 39 205
3 91 206 38
3 207 206 91
3 207 39 206
3 207 150 39
3 208 150 207
3 208 17 150
3 654 653 10
3 94 655 657
3 657 656 41
3 655 656 657
3 659 658 94
3 209 660 661
3 209 662 663
3 209 664 666
3 664 210 665
3 664 665 666
3 211 210 209
3 211 43 210
3 96 211 42
3 212 211 96
3 212 43 211
3 212 160 43
3 195 160 212
3 195 16 160
3 667 44 668
3 669 44 670
3 671 164 672
3 673 672 44
3 671 672 673
3 213 674 676
3 674 164 675
3 674 675 676
3 213 18 164
3 168 677 679
3 679 678 4
3 677 678 679
3 681 680 168
3 214 215 0
3 216 215 214
3 216 46 215
3 99 216 45
3 217 216 99
3 217 46 216
3 217 682 684
3 684 683 46
3 682 683 684
3 686 685 217
3 171 100 5
3 218 100 171
3 218 47 100
3 102 218 21
3 219 218 102
3 219 47 218
3 219 687 689
3 689 688 47
3 687 688 689
3 691 690 219
3 175 104 6
3 220 104 175
3 220 692 694
3 694 693 104
3 692 693 694
3 106 220 23
3 695 220 696
3 697 696 106
3 695 696 697
3 699 698 220
3 221 222 2
3 223 222 221
3 223 49 222
3 109 223 48
3 224 223 109
3 224 49 223
3 224 144 49
3 225 144 224
3 225 7 144
3 178 700 702
3 700 110 701
3 700 701 702
3 226 110 178
3 226 50 110
3 112 226 24
3 227 226 112
3 227 50 226
3 227 225 50
3 228 225 227
3 228 7 225
3 228 200 7
3 229 200 228
3 229 36 200
3 114 229 51
3 230 229 114
3 230 36 229
3 230 87 36
3 231 87 230
3 231 3 87
3 232 233 1
3 234 233 232
3 234 54 233
3 117 234 53
3 235 234 117
3 235 54 234
3 235 155 54
3 236 155 235
3 236 10 155
3 183 118 9
3 237 118 183
3 237 55 118
3 703 237 704
3 238 705 707
3 705 237 706
3 705 706 707
3 238 55 237
3 238 236 55
3 708 236 709
3 710 709 238
3 708 709 710
3 711 10 712
3 713 712 236
3 711 712 713
3 715 714 10
3 716 41 717
3 119 718 719
3 239 720 722
3 722 721 119
3 720 721 722
3 239 723 725
3 723 41 724
3 723 724 725
3 239 93 41
3 221 93 239
3 221 2 93
3 240 726 727
3 240 728 729
3 121 240 56
3 241 240 121
3 241 730 732
3 732 731 240
3 730 731 732
3 241 733 735
3 733 142 734
3 733 734 735
3 242 142 241
3 242 12 142
3 186 122 11
3 243 122 186
3 243 57 122
3 124 243 28
3 244 243 124
3 244 57 243
3 244 242 57
3 245 242 244
3 245 12 242
3 245 194 12
3 246 194 245
3 246 32 194
3 126 246 58
3 247 246 126
3 247 32 246
3 247 82 32
3 248 82 247
3 248 0 82
3 736 29 737
3 249 738 739
3 249 740 742
3 740 29 741
3 740 741 742
3 249 189 29
3 250 189 249
3 250 13 189
3 743 60 744
3 251 745 746
3 251 747 749
3 747 60 748
3 747 748 749
3 251 250 60
3 252 250 251
3 252 13 250
3 252 127 13
3 253 127 252
3 253 59 127
3 129 253 61
3 254 253 129
3 254 59 253
3 254 248 59
3 255 248 254
3 255 0 248
3 255 214 0
3 256 214 255
3 256 45 214
3 131 256 62
3 257 256 131
3 257 45 256
3 257 98 45
3 258 98 257
3 258 5 98
3 750 63 751
3 752 63 753
3 754 258 755
3 756 755 63
3 754 755 756
3 259 757 759
3 757 258 758
3 757 758 759
3 259 5 258
3 259 170 5
3 760 170 761
3 762 761 259
3 760 761 762
3 763 20 764
3 765 764 170
3 763 764 765
3 766 20 767
3 769 768 20
3 770 64 771
3 772 64 773
3 774 147 775
3 776 775 64
3 774 775 776
3 260 777 779
3 777 147 778
3 777 778 779
3 260 14 147
3 780 260 781
3 261 782 784
3 782 260 783
3 782 783 784
3 261 14 260
3 261 204 14
3 262 204 261
3 262 38 204
3 785 262 786
3 263 787 789
3 787 262 788
3 787 788 789
3 263 38 262
3 263 90 38
3 264 90 263
3 264 1 90
3 134 790 791
3 265 792 794
3 794 793 134
3 792 793 794
3 265 795 796
3 265 797 799
3 797 264 798
3 797 798 799
3 266 264 265
3 266 1 264
3 266 232 1
3 267 232 266
3 267 53 232
3 136 267 65
3 268 267 136
3 268 53 267
3 268 116 53
3 269 116 268
3 269 9 116
3 191 137 15
3 270 137 191
3 270 66 137
3 139 270 31
3 271 270 139
3 271 66 270
3 271 269 66
3 272 269 271
3 272 9 269
3 272 182 9
3 273 182 272
3 273 26 182
3 141 273 67
3 274 273 141
3 274 26 273
3 274 800 802
3 802 801 26
3 800 801 802
3 804 803 274
3 806 805 12
3 215 83 0
3 807 83 808
3 809 808 215
3 807 808 809
3 811 810 83
3 813 812 46
3 196 814 816
3 816 815 16
3 814 815 816
3 818 817 196
3 820 819 34
3 222 86 2
3 275 86 222
3 275 35 86
3 145 275 49
3 276 275 145
3 276 35 275
3 276 199 35
3 277 199 276
3 277 821 823
3 823 822 199
3 821 822 823
3 201 146 7
3 278 146 201
3 278 68 146
3 824 278 825
3 826 825 37
3 824 825 826
3 279 827 829
3 827 278 828
3 827 828 829
3 279 68 278
3 279 277 68
3 830 277 831
3 832 831 279
3 830 831 832
3 834 833 277
3 280 835 836
3 280 837 839
3 837 25 838
3 837 838 839
3 148 280 64
3 281 280 148
3 281 25 280
3 281 181 25
3 282 181 281
3 282 8 181
3 205 149 14
3 283 149 205
3 283 69 149
3 151 283 39
3 284 283 151
3 284 69 283
3 284 282 69
3 285 282 284
3 285 8 282
3 285 115 8
3 286 115 285
3 286 52 115
3 153 286 70
3 287 286 153
3 287 52 286
3 287 231 52
3 288 231 287
3 288 3 231
3 233 92 1
3 289 92 233
3 289 40 92
3 156 289 54
3 290 289 156
3 290 40 289
3 290 208 40
3 291 208 290
3 291 17 208
3 840 157 841
3 842 841 10
3 840 841 842
3 292 843 845
3 843 157 844
3 843 844 845
3 292 72 157
3 846 292 847
3 293 848 850
3 848 292 849
3 848 849 850
3 293 72 292
3 293 291 72
3 294 291 293
3 294 17 291
3 294 154 17
3 295 154 294
3 295 71 154
3 158 295 73
3 296 295 158
3 296 71 295
3 296 288 71
3 297 288 296
3 297 3 288
3 297 851 853
3 853 852 3
3 851 852 853
3 855 854 297
3 298 856 857
3 298 858 859
3 298 860 862
3 860 213 861
3 860 861 862
3 299 213 298
3 299 18 213
3 210 863 865
3 863 159 864
3 863 864 865
3 300 159 210
3 300 74 159
3 161 300 43
3 301 300 161
3 301 74 300
3 301 299 74
3 302 299 301
3 302 18 299
3 302 166 18
3 303 166 302
3 303 866 868
3 868 867 166
3 866 867 868
3 163 303 75
3 869 303 870
3 871 870 163
3 869 870 871
3 873 872 303
3 875 874 44
