ply
format ascii 1.0
element vertex 801
property float x
property float y
property float z
element face 976
property list uchar int vertex_index
end_header
-10.263027 -107.35881 -15.650969
-24.32995 -80.31768 -18.25366
-20.932058 -56.087105 -20.02438
-23.207834 -101.476479 -17.823416
-21.414686 -44.609932 -20.934381
-18.20752 -47.9744 -26.23209
-7.999218 -106.1147 -24.059803
-25.446321 -91.892769 -17.981405
-20.65406 -96.706924 -27.292664
-22.169987 -68.085388 -18.941614
-19.339605 -60.029488 -25.888914
-14.979403 -49.184036 -32.005592
-15.463054 -105.253357 -7.340064
-17.109613 -106.913513 -17.189896
-22.689062 -102.222488 -7.022058
-26.263781 -94.329269 -7.546952
-25.992374 -83.917152 -9.012271
-23.870268 -72.708977 -10.730302
-22.699158 -61.727272 -12.687838
-23.57983 -50.269066 -14.246882
-15.242822 -103.856842 -26.901981
-11.188544 -96.053123 -34.735035
-6.48677 -106.161041 -16.973696
-9.56528 -107.296761 -19.466766
-25.176865 -86.271843 -18.106136
-24.141607 -89.275818 -22.61582
-23.82979 -83.534416 -22.335939
-21.375542 -61.962879 -19.396452
-20.936401 -64.533592 -22.559935
-20.159922 -58.415081 -22.91493
-16.703354 -48.825539 -29.008694
-19.3589 -104.416779 -7.049994
-26.461424 -90.088371 -2.653966
-26.515232 -89.342056 -8.195225
-26.311277 -84.88755 -3.782234
-24.592297 -74.389427 -6.073152
-23.782494 -68.946075 -7.45398
-23.078833 -67.331856 -11.78156
-23.444208 -63.552124 -8.600219
-24.44108 -52.474934 -10.473188
-24.646072 -44.633011 -14.858837
-20.702953 -104.746986 -17.388226
-16.596136 -105.98851 -22.054403
-19.825632 -103.442924 -22.569304
-16.227722 -97.03656 -31.5135
-20.95747 -50.173771 -20.51984
-19.747822 -52.296391 -23.178526
-19.726803 -46.359829 -23.542246
-6.163639 -103.758568 -28.577759
-24.838165 -97.100708 -17.857126
-22.205433 -99.632301 -22.936457
-23.707245 -94.78701 -22.778194
-21.910589 -91.548729 -27.094776
-23.232056 -74.142517 -18.566143
-23.046818 -77.229408 -22.101564
-21.951559 -70.732216 -22.265678
-20.253742 -66.519852 -25.957144
-18.286215 -61.740097 -29.058355
-18.598183 -53.901291 -26.079086
-17.352793 -55.226883 -29.075733
-12.734025 -106.810249 -11.964457
-13.454274 -107.674767 -16.489532
-16.800638 -106.678642 -12.253839
-20.550327 -105.068741 -12.124619
-23.406897 -102.267464 -12.568782
-25.044569 -98.726006 -7.184369
-25.281885 -98.339928 -12.762202
-26.145264 -93.579086 -13.019058
-26.093977 -88.192825 -13.324671
-25.363787 -82.431328 -13.572407
-25.549301 -79.568329 -4.850148
-25.000511 -78.416756 -9.654777
-24.214176 -76.49144 -14.266642
-23.119125 -70.80928 -15.004985
-22.285465 -64.97332 -15.843429
-21.892677 -59.336086 -16.494352
-23.670292 -57.985943 -9.612365
-22.838207 -56.072952 -13.600096
-21.979851 -53.476734 -17.184826
-22.59761 -47.702843 -17.680405
-8.58135 -105.929985 -12.431474
-4.006949 -103.959503 -13.26213
-13.02667 -107.273857 -20.950775
-11.748682 -105.712845 -25.693869
-9.976473 -102.927406 -30.092598
-18.510265 -100.780144 -27.213907
-13.471564 -100.640549 -31.046885
-7.836256 -98.723083 -34.104084
-8.635518 -106.941956 -16.234592
-7.939332 -106.874275 -18.320955
-9.903821 -107.422165 -17.374952
-24.837357 -83.384766 -18.031031
-24.566746 -85.053787 -20.252939
-24.198256 -82.11042 -20.234846
-21.092827 -59.05191 -19.761852
-20.795156 -60.270473 -21.236414
-20.501822 -57.097664 -21.521257
-26.480066 -87.345795 -3.140842
-23.577492 -66.412888 -7.906157
-21.96063 -103.332985 -17.794542
-20.344931 -104.257027 -20.039188
-21.740046 -102.567055 -20.231028
-21.169771 -47.306866 -20.684996
-20.39086 -48.391689 -22.015455
-20.511677 -45.737732 -22.247477
-6.284165 -105.927917 -22.733286
-7.093002 -105.059891 -26.420361
-25.24539 -94.654396 -17.967482
-24.386406 -96.077057 -20.284225
-24.754404 -93.453377 -20.314045
-23.342838 -87.743927 -24.567961
-23.253902 -90.717056 -24.741653
-22.308605 -88.852852 -26.690329
-22.684166 -71.182388 -18.758066
-22.649403 -72.645981 -20.449459
-22.091337 -69.569618 -20.64978
-20.214725 -62.512146 -24.223236
-20.628351 -65.617775 -24.289478
-19.79497 -63.290821 -25.875294
-19.333326 -64.218704 -27.509958
-18.892067 -60.979908 -27.40773
-19.025873 -50.150982 -24.712029
-19.126862 -52.905552 -24.699474
-18.291239 -50.702911 -26.262653
-15.901281 -49.258873 -30.47345
-16.954227 -51.942314 -29.091892
-16.19173 -52.327755 -30.584137
-16.595594 -55.446129 -30.604361
-14.145479 -106.134781 -9.6619
-14.842307 -106.869232 -11.964613
-16.202679 -106.099281 -9.740787
-21.186342 -103.427094 -6.931154
-19.993996 -104.929665 -9.650033
-21.68548 -103.803703 -9.610712
-22.033255 -103.89473 -12.468111
-23.139887 -102.391327 -9.823745
-26.073423 -94.594521 -4.773139
-25.471464 -96.840736 -4.737193
-25.782484 -96.629456 -7.243268
-25.283627 -98.558075 -9.878201
-25.910517 -96.400795 -9.920916
-25.836975 -96.103638 -12.803288
-26.266056 -94.171951 -10.43273
-26.332541 -86.654312 -8.622035
-26.367804 -88.754585 -10.651019
-26.109426 -86.060326 -11.094816
-25.792459 -85.257462 -13.395009
-25.714382 -83.263329 -11.414463
-25.568666 -77.806114 -0.273203
-25.732471 -79.858711 -2.213901
-25.322384 -77.371239 -3.022276
-24.239746 -73.642303 -8.473173
-24.76532 -76.331856 -7.773578
-24.415907 -75.595238 -10.211693
-24.631433 -77.535522 -12.009802
-24.065586 -74.771439 -12.405001
-23.649986 -73.6716 -14.59889
-23.532423 -71.921684 -12.836292
-22.822708 -64.422173 -12.235765
-22.691534 -66.137459 -13.808308
-22.433428 -63.505466 -14.32327
-22.039745 -62.131725 -16.149273
-22.328644 -60.56076 -14.536522
-24.026789 -59.032734 -7.543146
-24.405689 -56.101437 -7.964967
-23.951084 -51.570629 -12.511551
-23.522429 -54.54644 -12.05981
-23.119833 -53.235298 -13.983613
-22.400948 -54.785858 -15.517162
-22.695301 -51.916668 -15.764826
-22.207912 -50.618458 -17.492605
-23.054817 -49.287075 -16.01166
-13.146132 -105.186577 -7.548164
-12.050659 -105.940605 -9.810567
-6.364041 -105.037994 -12.671062
-7.542655 -104.756729 -10.43964
-15.264047 -107.450958 -16.779325
-13.257844 -107.615868 -18.689604
-15.225049 -107.237526 -19.235786
-16.029848 -105.122429 -24.420544
-14.173397 -106.05304 -24.002806
-13.527843 -105.004967 -26.296234
-10.993966 -104.483002 -27.927553
-12.667231 -103.631111 -28.562494
-21.463282 -98.405922 -25.190308
-20.501587 -100.424187 -25.090054
-19.678596 -98.833504 -27.3337
-13.739519 -96.609589 -33.298012
-14.909193 -98.852348 -31.448956
-12.269703 -98.48996 -33.029701
-10.705009 -99.925659 -32.658581
-9.45142 -97.592186 -34.514778
-8.219408 -94.853714 -36.219997
-22.195551 -75.246323 -24.108192
-22.640213 -78.529495 -24.180038
-21.789347 -41.923893 -21.09049
-20.827066 -43.087223 -22.293118
-4.159854 -105.022659 -17.437407
-5.523981 -105.886215 -19.109644
-7.121213 -106.52478 -20.450453
-8.711135 -106.826279 -21.724455
-25.406637 -89.019211 -18.003334
-24.833719 -90.865303 -20.48102
-24.834568 -88.050659 -20.213568
-24.121258 -86.473518 -22.297178
-23.213634 -84.68856 -24.45204
-21.700796 -64.867653 -19.228844
-21.59745 -66.37587 -20.738224
-21.142439 -63.226299 -21.011946
-20.497204 -61.430786 -22.777954
-19.764133 -59.137276 -24.360815
-17.442654 -48.30669 -27.639412
-17.518013 -105.001137 -7.204816
-26.220503 -92.482155 -2.280395
-26.434809 -92.16671 -5.064223
-26.49749 -91.91468 -7.966772
-26.551643 -89.681458 -5.419557
-26.464832 -87.134331 -5.987218
-26.203117 -84.477562 -6.358748
-24.862209 -74.608162 -3.615596
-24.468746 -72.072403 -4.304205
-24.139326 -71.624504 -6.735959
-23.794262 -70.915451 -9.043651
-23.428505 -70.06797 -11.348263
-23.430239 -68.190453 -9.697712
-23.205666 -65.520027 -10.109234
-23.092535 -62.756138 -10.582023
-24.841373 -53.442154 -8.449098
-25.421307 -50.561298 -8.915285
-24.969206 -49.623562 -10.963132
-24.585949 -48.516155 -12.722729
-24.099234 -47.448914 -14.513776
-25.178089 -45.666363 -13.096697
-18.988314 -106.001976 -17.321175
-17.102037 -106.518867 -19.665842
-18.874922 -105.499969 -19.830399
-18.351736 -104.849388 -22.32411
-17.612696 -103.882027 -24.82375
-19.578358 -94.747108 -29.368839
-18.566141 -96.969032 -29.538586
-17.352131 -94.989922 -31.458075
-15.098165 -94.728622 -33.247536
-12.480987 -94.083038 -34.961243
-9.648604 -93.262138 -36.436401
-20.866425 -53.096149 -20.329636
-20.354792 -54.16256 -21.690708
-20.301014 -51.210346 -21.891764
-19.693048 -49.357285 -23.337734
-18.940317 -47.174927 -24.895828
-19.9217 -43.686409 -23.608946
-5.112317 -102.052383 -30.738428
-24.133324 -99.363113 -17.976439
-22.857725 -100.606766 -20.396229
-23.704838 -98.489029 -20.431623
-23.138802 -97.303093 -22.779274
-22.360041 -95.973877 -25.050158
-24.022621 -92.162811 -22.749489
-22.842783 -93.274574 -25.117609
-21.359621 -94.248795 -27.286331
-23.827375 -77.283424 -18.270624
-23.73399 -78.90789 -20.196341
-23.218193 -75.858429 -20.334932
-22.515635 -74.020004 -22.199894
-21.72337 -72.083908 -24.040312
-21.391882 -67.499069 -22.425068
-21.193932 -68.856728 -24.072691
-20.784771 -69.742653 -25.860188
-19.855761 -55.189487 -23.158684
-19.421455 -56.128521 -24.508331
-18.932062 -57.064636 -26.018909
-17.667038 -51.552795 -27.634098
-17.988943 -54.584671 -27.579657
-18.369772 -57.557789 -27.531097
-17.802464 -58.348122 -29.027931
-17.100025 -58.796234 -30.554188
-11.415367 -107.23304 -14.056744
-11.701962 -107.611481 -15.990908
-13.240942 -107.420364 -14.217925
-15.140982 -107.328667 -14.343625
-17.056746 -106.950256 -14.702065
-18.136919 -105.722435 -9.793922
-18.689947 -106.093132 -12.332602
-18.928188 -106.19976 -14.818298
-20.645876 -105.116898 -14.834582
-22.206108 -103.640999 -14.986362
-23.411814 -101.959618 -15.255113
-24.351067 -100.60968 -9.838076
-24.48173 -100.418381 -12.493823
-24.356287 -100.080582 -15.445896
-25.13685 -97.801888 -15.437806
-25.64443 -95.318062 -15.43365
-25.88608 -92.8312 -15.431875
-26.426691 -91.553085 -10.562295
-26.249178 -90.835045 -12.924991
-25.880623 -90.142563 -15.662678
-25.710537 -87.208504 -15.62088
-25.365685 -84.418739 -15.773758
-24.884287 -81.407349 -15.948027
-25.976442 -82.171967 -4.192528
-25.793734 -81.765213 -6.845749
-25.059214 -76.830276 -5.328341
-25.280678 -78.955391 -7.317334
-25.541285 -81.183708 -9.282136
-25.194628 -80.310394 -11.639202
-24.803654 -79.486656 -14.014885
-24.347689 -78.451736 -16.166685
-23.780981 -75.57399 -16.521687
-23.202305 -72.527519 -16.7246
-22.658278 -69.503654 -17.080233
-23.051373 -68.907555 -13.306332
-22.676756 -67.90094 -15.279881
-22.225624 -66.538513 -17.297411
-21.855688 -63.481056 -17.633389
-21.595858 -60.539894 -17.954439
-21.419855 -57.695156 -18.363031
-23.835375 -61.779442 -7.047138
-23.485958 -60.790829 -9.09926
-23.110704 -60.008041 -11.083742
-23.946665 -55.32275 -10.169738
-23.243053 -57.167393 -11.667758
-22.7197 -58.876858 -13.076913
-22.301714 -57.635509 -15.040148
-21.869284 -56.443481 -16.841021
-21.40106 -54.922878 -18.591015
-21.501579 -52.068554 -18.831944
-21.726021 -49.185959 -19.047895
-22.025377 -46.256817 -19.335556
-23.509621 -46.331577 -16.359138
-22.960104 -44.861694 -18.075373
-22.36241 -43.467953 -19.659748
-9.772772 -105.48188 -10.130676
-10.686825 -106.50383 -12.158291
-9.515414 -106.814301 -14.224338
-2.615663 -103.763756 -15.685635
-5.199602 -105.168625 -15.191465
-7.478367 -106.143761 -14.640574
-11.54293 -107.660278 -18.011049
-11.19253 -107.419182 -20.299614
-10.467072 -106.877647 -22.657333
-14.798903 -106.793159 -21.595253
-12.402703 -106.657364 -23.318142
-9.912181 -106.062042 -25.004375
-9.086477 -104.9655 -27.226645
-8.035471 -103.541542 -29.374722
-7.0357 -101.695168 -31.538155
-21.190586 -101.658089 -22.716059
-19.275381 -102.24601 -24.923588
-17.04343 -102.426788 -27.111557
-17.428446 -99.120293 -29.425869
-16.050364 -100.797462 -29.362593
-14.420262 -102.347008 -29.082808
-11.603975 -101.896851 -30.764645
-8.757571 -100.961372 -32.225353
-5.897875 -99.527397 -33.542747
-23.453037 -80.346657 -22.257368
-22.933664 -81.659401 -24.430567
-6.717535 -105.585011 -24.558676
-5.860008 -105.491619 -23.895418
-7.141692 -106.021309 -23.396544
-7.54611 -105.587295 -25.240082
-6.264427 -105.057606 -25.738955
-6.717535 -105.585011 -24.558676
-22.319631 -87.366485 -26.633371
-22.825722 -88.298389 -25.629145
-22.836747 -86.812023 -25.572187
-21.73755 -87.771569 -27.647084
-22.319631 -87.366485 -26.633371
-15.171041 -50.823524 -32.031982
-15.777204 -52.395384 -31.321254
-15.585566 -50.755896 -31.294864
-14.475133 -49.178033 -32.807941
-15.171041 -50.823524 -32.031982
-25.380503 -76.582268 -0.712751
-25.509591 -76.702263 0.630656
-25.257362 -76.36483 -2.087287
-25.445525 -77.588676 -1.64774
-25.380503 -76.582268 -0.712751
-24.824202 -55.100305 -7.208933
-24.577596 -56.530842 -6.960065
-14.304593 -105.219967 -7.444114
-13.810495 -104.676224 -6.265916
-14.968956 -104.709614 -6.161865
-6.916978 -104.044495 -9.463107
-6.33375 -104.221314 -10.581565
-21.957998 -75.896264 -25.058656
-21.744149 -74.157235 -24.97611
-21.518161 -41.125763 -21.724824
-22.018835 -40.746629 -21.106336
-26.340964 -91.285263 -2.46718
-26.242421 -91.394459 -1.12505
-26.362882 -90.197567 -1.311835
-24.477885 -71.013244 -3.499208
-24.642851 -72.319378 -3.03344
-23.96091 -70.28529 -7.094969
-24.139104 -70.569611 -5.901413
-23.960688 -69.230396 -6.260423
-25.973916 -49.554125 -8.071897
-25.653515 -50.884237 -7.868915
-25.306816 -48.177479 -11.108619
-25.536738 -48.619175 -10.150702
-25.115187 -47.623775 -11.988418
-24.777577 -49.069858 -11.84293
-25.306816 -48.177479 -11.108619
-25.411257 -46.198879 -12.175402
-24.882019 -47.091259 -12.909713
-25.115187 -47.623775 -11.988418
-17.887553 -93.852993 -31.311746
-18.465245 -94.868515 -30.413457
-19.000667 -93.731586 -30.267128
-14.489384 -93.512264 -34.001663
-15.691092 -93.625706 -33.156454
-13.180796 -93.189472 -34.858517
-13.789576 -94.40583 -34.104389
-14.489384 -93.512264 -34.001663
-11.809675 -92.683739 -35.709084
-13.180796 -93.189472 -34.858517
-20.103387 -42.370281 -23.591236
-20.374383 -43.386816 -22.951032
-20.55607 -42.070688 -22.933322
-4.804467 -103.082043 -28.978829
-5.264126 -103.785466 -27.948934
-5.637978 -102.905475 -29.658093
-4.278806 -102.22895 -30.059164
-4.804467 -103.082043 -28.978829
-21.084754 -91.832271 -28.194178
-20.80927 -93.182305 -28.289955
-21.635105 -92.898762 -27.190554
-20.025804 -66.967075 -26.751534
-20.291319 -68.578476 -26.703055
-20.519256 -68.131253 -25.908666
-18.504349 -63.302601 -29.083254
-19.027904 -64.541905 -28.309056
-18.80977 -62.9794 -28.284157
-17.858894 -61.835976 -29.915118
-18.504349 -63.302601 -29.083254
-16.439459 -57.249947 -31.327326
-16.847809 -57.121181 -30.579275
-16.187244 -55.574894 -31.352412
-16.609558 -58.858675 -31.411383
-16.439459 -57.249947 -31.327326
-24.845326 -98.697174 -5.845237
-25.058774 -97.754539 -4.621649
-25.258017 -97.783371 -5.960781
-24.529333 -99.661786 -7.131112
-24.845326 -98.697174 -5.845237
-24.697818 -99.667843 -8.511222
-24.182582 -100.603623 -8.457965
-24.529333 -99.661786 -7.131112
-24.133421 -60.728459 -6.195507
-24.030209 -62.026722 -5.963044
-23.186959 -43.524681 -18.206326
-23.491138 -44.172089 -17.37446
-22.888112 -42.82781 -18.998514
-22.661257 -44.164823 -18.86756
-23.186959 -43.524681 -18.206326
-22.591305 -42.16199 -19.740204
-22.888112 -42.82781 -18.998514
-10.34535 -105.137089 -8.926157
-9.242028 -104.854198 -9.113709
-2.792038 -103.243663 -13.435282
-3.369817 -103.226249 -12.259472
-3.311306 -103.861629 -14.473883
-2.096395 -103.14579 -14.647034
-2.792038 -103.243663 -13.435282
-6.395935 -98.022343 -34.654821
-5.426744 -98.424499 -34.374153
-6.867065 -99.12524 -33.823415
-8.209641 -92.547527 -37.108745
-9.000451 -91.70404 -37.154491
-22.462219 -80.691819 -25.355632
-22.786938 -80.094448 -24.305302
-22.315493 -79.126866 -25.230367
-22.563021 -82.267383 -25.454837
-22.462219 -80.691819 -25.355632
-26.43458 -88.984325 -1.580913
-26.362882 -90.197567 -1.311835
-26.443901 -87.613037 -1.824351
-26.470745 -88.717083 -2.897404
-26.43458 -88.984325 -1.580913
-26.404317 -86.247734 -2.03053
-26.443901 -87.613037 -1.824351
-26.319923 -85.018612 -2.351226
-26.395671 -86.116672 -3.461538
-26.404317 -86.247734 -2.03053
-23.858795 -67.972611 -6.558281
-23.960688 -69.230396 -6.260423
-23.756293 -66.706017 -6.78437
-23.679993 -67.679481 -7.680068
-23.858795 -67.972611 -6.558281
-23.692213 -65.377319 -7.186371
-23.756293 -66.706017 -6.78437
-23.625571 -63.946938 -7.533402
-23.51085 -64.982506 -8.253188
-23.692213 -65.377319 -7.186371
-4.987656 -105.278835 -23.199601
-5.406352 -105.640434 -22.044123
-4.987656 -105.278835 -23.199601
-5.860008 -105.491619 -23.895418
-5.728807 -104.436127 -26.870235
-6.264427 -105.057606 -25.738955
-6.628321 -104.409229 -27.49906
-5.264126 -103.785466 -27.948934
-5.728807 -104.436127 -26.870235
-21.604952 -89.19796 -27.774204
-21.405945 -90.545898 -27.976428
-22.109597 -90.20079 -26.892553
-21.604952 -89.19796 -27.774204
-21.73755 -87.771569 -27.647084
-15.979136 -53.954571 -31.331367
-16.393662 -53.886942 -30.594249
-15.777204 -52.395384 -31.321254
-16.187244 -55.574894 -31.352412
-15.979136 -53.954571 -31.331367
-25.772444 -95.717629 -4.755166
-25.621451 -95.703739 -3.373291
-25.922431 -94.580632 -3.391264
-25.66939 -78.054252 1.063411
-25.509591 -76.702263 0.630656
-25.731195 -79.083439 0.016214
-25.66939 -78.054252 1.063411
-25.650568 -78.832413 -1.243552
-25.813097 -80.109737 -0.954135
-25.731195 -79.083439 0.016214
-24.388146 -57.996491 -6.749154
-24.229128 -59.355104 -6.443511
-24.216239 -57.567085 -7.754056
-24.388146 -57.996491 -6.749154
-24.577596 -56.530842 -6.960065
-24.334122 -44.057747 -15.766192
-24.920946 -43.260676 -15.047968
-12.706194 -104.589764 -6.439165
-13.810495 -104.676224 -6.265916
-12.03203 -104.989437 -7.634901
-12.706194 -104.589764 -6.439165
-12.598395 -105.563591 -8.679365
-11.484293 -105.366451 -8.766103
-12.03203 -104.989437 -7.634901
-4.565898 -103.8227 -11.992809
-3.369817 -103.226249 -12.259472
-5.744444 -104.361946 -11.697275
-5.185495 -104.498749 -12.966596
-4.565898 -103.8227 -11.992809
-6.953348 -104.897362 -11.555351
-5.744444 -104.361946 -11.697275
-6.33375 -104.221314 -10.581565
-8.05089 -96.851993 -35.199539
-7.243308 -97.417442 -34.994192
-8.643838 -98.157635 -34.309431
-7.434883 -95.482757 -36.052149
-8.05089 -96.851993 -35.199539
-8.835414 -96.22295 -35.367387
-6.694059 -94.103683 -36.83185
-7.434883 -95.482757 -36.052149
-22.180329 -77.537849 -25.09458
-22.417882 -76.887909 -24.144115
-21.957998 -75.896264 -25.058656
-22.315493 -79.126866 -25.230367
-22.180329 -77.537849 -25.09458
-21.03702 -41.707428 -22.326138
-21.308206 -42.505558 -21.691804
-21.518161 -41.125763 -21.724824
-20.55607 -42.070688 -22.933322
-21.03702 -41.707428 -22.326138
-3.63866 -104.821003 -18.598839
-2.88072 -104.272594 -17.754988
-4.320723 -105.252781 -19.434957
-3.63866 -104.821003 -18.598839
-4.841918 -105.454437 -18.273525
-5.02626 -105.619583 -20.232301
-4.320723 -105.252781 -19.434957
-5.824877 -105.938866 -20.902706
-5.02626 -105.619583 -20.232301
-6.322597 -106.205498 -19.780048
-6.702689 -106.226349 -21.59187
-5.406352 -105.640434 -22.044123
-5.824877 -105.938866 -20.902706
-22.772145 -85.284339 -25.514227
-22.836747 -86.812023 -25.572187
-23.278236 -86.216243 -24.510001
-17.385084 -46.790926 -27.646316
-17.825087 -48.140545 -26.935751
-17.767516 -46.624781 -26.942656
-16.957324 -47.063685 -28.348114
-17.385084 -46.790926 -27.646316
-16.587674 -47.323109 -29.032755
-17.073004 -48.566114 -28.324053
-16.957324 -47.063685 -28.348114
-16.163418 -47.462929 -29.727847
-16.587674 -47.323109 -29.032755
-15.762382 -47.679596 -30.460225
-16.302318 -49.042206 -29.741072
-16.163418 -47.462929 -29.727847
-15.285089 -47.683481 -31.213963
-15.762382 -47.679596 -30.460225
-14.82415 -47.646062 -31.980033
-15.440342 -49.221455 -31.239521
-15.285089 -47.683481 -31.213963
-14.348955 -47.716896 -32.728605
-14.82415 -47.646062 -31.980033
-17.033766 -104.539715 -5.977962
-16.490533 -105.127247 -7.27244
-16.006287 -104.665825 -6.045585
-18.097501 -104.286857 -5.80447
-17.033766 -104.539715 -5.977962
-19.017944 -103.994678 -5.727059
-18.438457 -104.708958 -7.127405
-18.097501 -104.286857 -5.80447
-19.902055 -103.671132 -5.761378
-19.017944 -103.994678 -5.727059
-20.815776 -103.176289 -5.701958
-20.272621 -103.921937 -6.990574
-19.902055 -103.671132 -5.761378
-21.593361 -102.608494 -5.544335
-20.815776 -103.176289 -5.701958
-22.344721 -102.006191 -5.589787
-21.937702 -102.824791 -6.976606
-21.593361 -102.608494 -5.544335
-26.060132 -92.453071 -0.857336
-26.242421 -91.394459 -1.12505
-25.995971 -93.524449 -2.144892
-26.060132 -92.453071 -0.857336
-26.146963 -93.538338 -3.526767
-25.922431 -94.580632 -3.391264
-25.995971 -93.524449 -2.144892
-24.839583 -73.587257 -2.689135
-25.027275 -74.983292 -2.383947
-24.665478 -73.340283 -3.9599
-24.839583 -73.587257 -2.689135
-24.642851 -72.319378 -3.03344
-24.303814 -70.79356 -4.685536
-24.477885 -71.013244 -3.499208
-24.304036 -71.848454 -5.520082
-24.303814 -70.79356 -4.685536
-24.139104 -70.569611 -5.901413
-25.363548 -52.324665 -7.635821
-25.042043 -53.770664 -7.450998
-25.13134 -52.001726 -8.682192
-25.363548 -52.324665 -7.635821
-25.653515 -50.884237 -7.868915
-25.762789 -49.088043 -9.126779
-25.973916 -49.554125 -8.071897
-25.195256 -50.09243 -9.939208
-25.762789 -49.088043 -9.126779
-25.536738 -48.619175 -10.150702
-25.776426 -44.780501 -12.294429
-25.411257 -46.198879 -12.175402
-25.508107 -44.257377 -13.241395
-25.776426 -44.780501 -12.294429
-25.242099 -43.740702 -14.122464
-24.912081 -45.149687 -13.977767
-25.508107 -44.257377 -13.241395
-24.920946 -43.260676 -15.047968
-25.242099 -43.740702 -14.122464
-16.006287 -104.665825 -6.045585
-14.968956 -104.709614 -6.161865
-16.818075 -93.756356 -32.261724
-17.887553 -93.852993 -31.311746
-16.225148 -94.859272 -32.352806
-16.818075 -93.756356 -32.261724
-15.691092 -93.625706 -33.156454
-10.393484 -92.273289 -36.446663
-11.064796 -93.672588 -35.698822
-11.809675 -92.683739 -35.709084
-9.000451 -91.70404 -37.154491
-10.393484 -92.273289 -36.446663
-19.601053 -42.62544 -24.270519
-20.103387 -42.370281 -23.591236
-19.495711 -43.960211 -24.254635
-19.601053 -42.62544 -24.270519
-19.398263 -45.296921 -24.221285
-19.824252 -45.023119 -23.575596
-19.495711 -43.960211 -24.254635
-19.00502 -45.70447 -24.898076
-19.33356 -46.767378 -24.219037
-19.398263 -45.296921 -24.221285
-18.566643 -46.07995 -25.578744
-19.00502 -45.70447 -24.898076
-18.200245 -46.479687 -26.246875
-18.573918 -47.574663 -25.563959
-18.566643 -46.07995 -25.578744
-17.767516 -46.624781 -26.942656
-18.200245 -46.479687 -26.246875
-3.605266 -101.247818 -31.116396
-4.278806 -102.22895 -30.059164
-4.553551 -101.103488 -31.683583
-3.605266 -101.247818 -31.116396
-19.918639 -93.431461 -29.331209
-20.468989 -94.497951 -28.327585
-20.80927 -93.182305 -28.289955
-19.000667 -93.731586 -30.267128
-19.918639 -93.431461 -29.331209
-21.084754 -91.832271 -28.194178
-21.405945 -90.545898 -27.976428
-21.508058 -72.576027 -24.94217
-21.744149 -74.157235 -24.97611
-21.95946 -73.665115 -24.074252
-21.038759 -71.4054 -25.852108
-21.508058 -72.576027 -24.94217
-21.25407 -70.91328 -24.95025
-20.52643 -70.229134 -26.710682
-21.038759 -71.4054 -25.852108
-20.52643 -70.229134 -26.710682
-20.291319 -68.578476 -26.703055
-19.565596 -65.816502 -27.52794
-20.025804 -66.967075 -26.751534
-19.793534 -65.369278 -26.733551
-19.565596 -65.816502 -27.52794
-19.027904 -64.541905 -28.309056
-17.265799 -60.364044 -30.663035
-17.858894 -61.835976 -29.915118
-17.69312 -60.268165 -29.806272
-17.265799 -60.364044 -30.663035
-16.609558 -58.858675 -31.411383
-14.475133 -49.178033 -32.807941
-14.348955 -47.716896 -32.728605
-23.06763 -101.354011 -5.7581
-22.344721 -102.006191 -5.589787
-25.237165 -96.781345 -3.299904
-25.621451 -95.703739 -3.373291
-25.237165 -96.781345 -3.299904
-25.058774 -97.754539 -4.621649
-23.351579 -101.410027 -7.049956
-23.06763 -101.354011 -5.7581
-23.576992 -101.494446 -8.4508
-22.914475 -102.306907 -8.422902
-23.351579 -101.410027 -7.049956
-23.745477 -101.500504 -9.83091
-23.576992 -101.494446 -8.4508
-24.182582 -100.603623 -8.457965
-26.205514 -83.759823 -2.68559
-26.319923 -85.018612 -2.351226
-25.916111 -81.245403 -1.901423
-25.813097 -80.109737 -0.954135
-26.038097 -82.402031 -2.890737
-25.916111 -81.245403 -1.901423
-25.854456 -81.015339 -3.203215
-26.143859 -83.529758 -3.987381
-26.205514 -83.759823 -2.68559
-26.038097 -82.402031 -2.890737
-25.092296 -75.9897 -3.318936
-25.257362 -76.36483 -2.087287
-25.027275 -74.983292 -2.383947
-23.821154 -63.060597 -6.756861
-24.030209 -62.026722 -5.963044
-23.639792 -62.665783 -7.823678
-23.625571 -63.946938 -7.533402
-23.821154 -63.060597 -6.756861
-23.931082 -60.406088 -7.295142
-24.133421 -60.728459 -6.195507
-24.229128 -59.355104 -6.443511
-24.623531 -54.771795 -8.207033
-24.824202 -55.100305 -7.208933
-25.042043 -53.770664 -7.450998
-23.765896 -44.90703 -16.516343
-24.077846 -45.482294 -15.608988
-24.334122 -44.057747 -15.766192
-23.234862 -45.596636 -17.217256
-23.765896 -44.90703 -16.516343
-23.491138 -44.172089 -17.37446
-22.304773 -41.38996 -20.455575
-22.075879 -42.695923 -20.375119
-22.591305 -42.16199 -19.740204
-22.018835 -40.746629 -21.106336
-22.304773 -41.38996 -20.455575
-8.12697 -104.491623 -9.268192
-6.916978 -104.044495 -9.463107
-8.657713 -105.119304 -10.285158
-8.12697 -104.491623 -9.268192
-9.242028 -104.854198 -9.113709
-10.911715 -105.711242 -9.970622
-10.34535 -105.137089 -8.926157
-11.484293 -105.366451 -8.766103
-1.417488 -102.962047 -15.782449
-2.096395 -103.14579 -14.647034
-2.108624 -103.643143 -16.879102
-1.417488 -102.962047 -15.782449
-3.387759 -104.393208 -16.561521
-2.88072 -104.272594 -17.754988
-2.108624 -103.643143 -16.879102
-5.515242 -100.924881 -32.083447
-4.553551 -101.103488 -31.683583
-6.074008 -101.873775 -31.138292
-4.94633 -99.840995 -33.085742
-5.515242 -100.924881 -32.083447
-6.466788 -100.611282 -32.540451
-4.416411 -98.740127 -33.998517
-4.94633 -99.840995 -33.085742
-4.416411 -98.740127 -33.998517
-5.426744 -98.424499 -34.374153
-6.395935 -98.022343 -34.654821
-7.243308 -97.417442 -34.994192
-7.495043 -93.343315 -37.000543
-8.934006 -94.057926 -36.328199
-8.209641 -92.547527 -37.108745
-6.694059 -94.103683 -36.83185
-7.495043 -93.343315 -37.000543
-22.703007 -83.781963 -25.465573
-23.073649 -83.17398 -24.441304
-22.563021 -82.267383 -25.454837
-22.772145 -85.284339 -25.514227
-22.703007 -83.781963 -25.465573
3 0 90 88
3 1 93 91
3 2 96 94
3 3 101 99
3 4 104 102
3 6 356 358
3 358 357 105
3 356 357 358
3 6 359 361
3 359 106 360
3 359 360 361
3 7 109 107
3 362 112 363
3 364 363 110
3 362 363 364
3 366 365 112
3 9 115 113
3 10 118 116
3 10 120 118
3 5 123 121
3 11 126 124
3 11 367 369
3 369 368 126
3 367 368 369
3 11 370 371
3 12 130 128
3 14 133 131
3 14 135 133
3 15 138 136
3 15 140 138
3 15 142 140
3 16 145 143
3 16 147 145
3 372 148 373
3 374 150 375
3 376 375 148
3 374 375 376
3 17 153 151
3 17 155 153
3 17 157 155
3 18 160 158
3 18 162 160
3 377 164 378
3 19 167 165
3 19 169 167
3 19 171 169
3 12 379 381
3 379 172 380
3 379 380 381
3 12 128 172
3 382 175 383
3 13 178 176
3 20 181 179
3 20 183 181
3 8 186 184
3 21 189 187
3 21 191 189
3 21 192 191
3 385 384 193
3 387 386 195
3 22 198 197
3 23 199 89
3 23 200 199
3 24 203 201
3 26 204 92
3 26 205 204
3 27 208 206
3 29 209 95
3 29 210 209
3 32 388 390
3 388 213 389
3 388 389 390
3 32 214 213
3 32 216 214
3 34 217 97
3 34 218 217
3 391 220 392
3 36 393 395
3 393 221 394
3 393 394 395
3 36 222 221
3 36 224 222
3 38 225 98
3 38 226 225
3 396 228 397
3 398 229 399
3 400 230 401
3 402 401 229
3 400 401 402
3 403 232 404
3 405 404 230
3 403 404 405
3 41 235 233
3 43 236 100
3 43 237 236
3 406 240 407
3 408 407 238
3 406 407 408
3 409 241 410
3 411 242 412
3 413 412 241
3 411 412 413
3 415 414 242
3 45 246 244
3 47 247 103
3 47 248 247
3 416 249 417
3 418 417 196
3 416 417 418
3 48 419 420
3 48 421 423
3 421 250 422
3 421 422 423
3 49 253 251
3 51 254 108
3 51 255 254
3 25 256 202
3 52 257 111
3 52 258 257
3 52 424 426
3 426 425 258
3 424 425 426
3 53 261 259
3 55 262 114
3 55 263 262
3 28 264 207
3 56 265 117
3 56 266 265
3 56 427 429
3 429 428 266
3 427 428 429
3 57 430 432
3 432 431 119
3 430 431 432
3 57 433 434
3 46 267 245
3 58 268 122
3 58 269 268
3 30 270 211
3 59 271 125
3 59 272 271
3 59 273 272
3 435 274 436
3 437 436 127
3 435 436 437
3 439 438 274
3 60 277 275
3 62 278 129
3 62 279 278
3 31 280 212
3 63 281 132
3 63 282 281
3 63 283 282
3 64 284 134
3 64 285 284
3 65 440 442
3 442 441 137
3 440 441 442
3 65 443 444
3 65 445 447
3 445 286 446
3 445 446 447
3 66 287 139
3 66 288 287
3 66 289 288
3 67 290 141
3 67 291 290
3 33 292 215
3 68 293 144
3 68 294 293
3 68 295 294
3 69 296 146
3 69 297 296
3 70 298 149
3 70 299 298
3 35 300 219
3 71 301 152
3 71 302 301
3 71 303 302
3 72 304 154
3 72 305 304
3 72 306 305
3 73 307 156
3 73 308 307
3 37 309 223
3 74 310 159
3 74 311 310
3 74 312 311
3 75 313 161
3 75 314 313
3 448 315 449
3 76 316 163
3 76 317 316
3 39 318 227
3 77 319 166
3 77 320 319
3 77 321 320
3 78 322 168
3 78 323 322
3 78 324 323
3 79 325 170
3 79 326 325
3 40 327 231
3 450 328 451
3 452 329 453
3 454 453 328
3 452 453 454
3 456 455 329
3 457 330 458
3 60 331 173
3 60 275 331
3 81 459 460
3 81 461 463
3 461 333 462
3 461 462 463
3 81 334 333
3 80 335 174
3 80 332 335
3 61 336 276
3 82 337 177
3 82 338 337
3 42 339 234
3 83 340 180
3 83 341 340
3 83 342 341
3 84 343 182
3 84 344 343
3 50 345 252
3 85 346 185
3 85 347 346
3 44 348 239
3 86 349 188
3 86 350 349
3 86 351 350
3 87 352 190
3 87 353 352
3 87 464 466
3 466 465 353
3 464 465 466
3 468 467 243
3 54 354 260
3 469 355 470
3 471 470 194
3 469 470 471
3 473 472 355
3 88 89 22
3 90 89 88
3 90 23 89
3 91 92 24
3 93 92 91
3 93 26 92
3 94 95 27
3 96 95 94
3 96 29 95
3 474 32 475
3 476 97 477
3 478 477 32
3 476 477 478
3 479 97 480
3 481 34 482
3 483 482 97
3 481 482 483
3 484 36 485
3 486 98 487
3 488 487 36
3 486 487 488
3 489 98 490
3 491 38 492
3 493 492 98
3 491 492 493
3 99 100 41
3 101 100 99
3 101 43 100
3 102 103 45
3 104 103 102
3 104 47 103
3 105 494 495
3 497 496 105
3 106 498 499
3 106 500 502
3 500 48 501
3 500 501 502
3 107 108 49
3 109 108 107
3 109 51 108
3 110 111 25
3 112 111 110
3 112 52 111
3 112 503 505
3 505 504 52
3 503 504 505
3 507 506 112
3 113 114 53
3 115 114 113
3 115 55 114
3 116 117 28
3 118 117 116
3 118 56 117
3 118 119 56
3 120 119 118
3 120 57 119
3 121 122 46
3 123 122 121
3 123 58 122
3 124 125 30
3 126 125 124
3 126 59 125
3 126 127 59
3 508 127 509
3 510 509 126
3 508 509 510
3 512 511 127
3 128 129 60
3 130 129 128
3 130 62 129
3 131 132 31
3 133 132 131
3 133 63 132
3 133 134 63
3 135 134 133
3 135 64 134
3 136 513 515
3 513 137 514
3 513 514 515
3 138 137 136
3 138 65 137
3 138 139 65
3 140 139 138
3 140 66 139
3 140 141 66
3 142 141 140
3 142 67 141
3 143 144 33
3 145 144 143
3 145 68 144
3 145 146 68
3 147 146 145
3 147 69 146
3 148 516 517
3 148 518 519
3 148 520 522
3 520 149 521
3 520 521 522
3 150 149 148
3 150 70 149
3 151 152 35
3 153 152 151
3 153 71 152
3 153 154 71
3 155 154 153
3 155 72 154
3 155 156 72
3 157 156 155
3 157 73 156
3 158 159 37
3 160 159 158
3 160 74 159
3 160 161 74
3 162 161 160
3 162 75 161
3 523 163 524
3 164 525 527
3 525 163 526
3 525 526 527
3 164 76 163
3 165 166 39
3 167 166 165
3 167 77 166
3 167 168 77
3 169 168 167
3 169 78 168
3 169 170 78
3 171 170 169
3 171 79 170
3 529 528 40
3 172 530 531
3 172 532 533
3 172 534 536
3 534 173 535
3 534 535 536
3 128 173 172
3 128 60 173
3 537 81 538
3 539 174 540
3 541 540 81
3 539 540 541
3 175 542 544
3 542 174 543
3 542 543 544
3 175 80 174
3 176 177 61
3 178 177 176
3 178 82 177
3 179 180 42
3 181 180 179
3 181 83 180
3 181 182 83
3 183 182 181
3 183 84 182
3 184 185 50
3 186 185 184
3 186 85 185
3 187 188 44
3 189 188 187
3 189 86 188
3 189 190 86
3 191 190 189
3 191 87 190
3 191 545 547
3 547 546 87
3 545 546 547
3 192 548 550
3 550 549 191
3 548 549 550
3 192 551 552
3 193 194 54
3 553 194 554
3 555 554 193
3 553 554 555
3 557 556 194
3 195 196 4
3 558 196 559
3 560 559 195
3 558 559 560
3 562 561 196
3 197 563 564
3 198 565 567
3 567 566 197
3 565 566 567
3 198 568 569
3 89 198 22
3 199 198 89
3 199 570 572
3 572 571 198
3 570 571 572
3 199 573 575
3 573 105 574
3 573 574 575
3 200 105 199
3 200 6 105
3 201 202 7
3 203 202 201
3 203 25 202
3 92 203 24
3 204 203 92
3 204 25 203
3 204 110 25
3 205 110 204
3 205 576 578
3 578 577 110
3 576 577 578
3 206 207 9
3 208 207 206
3 208 28 207
3 95 208 27
3 209 208 95
3 209 28 208
3 209 116 28
3 210 116 209
3 210 10 116
3 579 211 580
3 581 580 5
3 579 580 581
3 582 211 583
3 584 30 585
3 586 585 211
3 584 585 586
3 587 30 588
3 589 124 590
3 591 590 30
3 589 590 591
3 592 124 593
3 594 11 595
3 596 595 124
3 594 595 596
3 598 597 11
3 599 212 600
3 601 600 12
3 599 600 601
3 602 212 603
3 604 31 605
3 606 605 212
3 604 605 606
3 607 31 608
3 609 131 610
3 611 610 31
3 609 610 611
3 612 131 613
3 614 14 615
3 616 615 131
3 614 615 616
3 213 617 618
3 213 619 620
3 213 621 623
3 621 136 622
3 621 622 623
3 214 136 213
3 214 15 136
3 214 215 15
3 216 215 214
3 216 33 215
3 97 216 32
3 217 216 97
3 217 33 216
3 217 143 33
3 218 143 217
3 218 16 143
3 624 219 625
3 220 626 628
3 626 219 627
3 626 627 628
3 220 35 219
3 629 220 630
3 221 631 633
3 631 220 632
3 631 632 633
3 221 35 220
3 221 151 35
3 222 151 221
3 222 17 151
3 222 223 17
3 224 223 222
3 224 37 223
3 98 224 36
3 225 224 98
3 225 37 224
3 225 158 37
3 226 158 225
3 226 18 158
3 634 227 635
3 228 636 638
3 636 227 637
3 636 637 638
3 228 39 227
3 639 228 640
3 229 641 643
3 641 228 642
3 641 642 643
3 229 39 228
3 229 165 39
3 230 165 229
3 230 19 165
3 230 231 19
3 232 231 230
3 232 40 231
3 644 232 645
3 646 232 647
3 648 40 649
3 650 649 232
3 648 649 650
3 652 651 40
3 653 12 654
3 233 234 13
3 235 234 233
3 235 42 234
3 100 235 41
3 236 235 100
3 236 42 235
3 236 179 42
3 237 179 236
3 237 20 179
3 238 239 8
3 240 239 238
3 240 44 239
3 655 240 656
3 241 657 659
3 657 240 658
3 657 658 659
3 241 44 240
3 241 187 44
3 242 187 241
3 242 21 187
3 242 243 21
3 660 243 661
3 662 661 242
3 660 661 662
3 664 663 243
3 244 245 2
3 246 245 244
3 246 46 245
3 103 246 45
3 247 246 103
3 247 46 246
3 247 121 46
3 248 121 247
3 248 5 121
3 196 104 4
3 249 104 196
3 249 47 104
3 665 249 666
3 667 249 668
3 669 47 670
3 671 670 249
3 669 670 671
3 672 248 673
3 674 673 47
3 672 673 674
3 675 248 676
3 677 5 678
3 679 678 248
3 677 678 679
3 681 680 5
3 250 682 683
3 250 684 685
3 251 252 3
3 253 252 251
3 253 50 252
3 108 253 49
3 254 253 108
3 254 50 253
3 254 184 50
3 255 184 254
3 255 8 184
3 202 109 7
3 256 109 202
3 256 51 109
3 111 256 25
3 257 256 111
3 257 51 256
3 257 255 51
3 258 255 257
3 258 8 255
3 258 238 8
3 686 238 687
3 688 687 258
3 686 687 688
3 690 689 238
3 692 691 52
3 259 260 1
3 261 260 259
3 261 54 260
3 114 261 53
3 262 261 114
3 262 54 261
3 262 193 54
3 263 193 262
3 263 693 695
3 695 694 193
3 693 694 695
3 207 115 9
3 264 115 207
3 264 55 115
3 117 264 28
3 265 264 117
3 265 55 264
3 265 263 55
3 266 263 265
3 266 696 698
3 698 697 263
3 696 697 698
3 266 699 700
3 702 701 266
3 119 703 705
3 705 704 56
3 703 704 705
3 707 706 119
3 245 96 2
3 267 96 245
3 267 29 96
3 122 267 46
3 268 267 122
3 268 29 267
3 268 210 29
3 269 210 268
3 269 10 210
3 211 123 5
3 270 123 211
3 270 58 123
3 125 270 30
3 271 270 125
3 271 58 270
3 271 269 58
3 272 269 271
3 272 10 269
3 272 120 10
3 273 120 272
3 273 57 120
3 127 273 59
3 274 273 127
3 274 57 273
3 274 708 710
3 710 709 57
3 708 709 710
3 712 711 274
3 714 713 11
3 275 276 0
3 277 276 275
3 277 61 276
3 129 277 60
3 278 277 129
3 278 61 277
3 278 176 61
3 279 176 278
3 279 13 176
3 212 130 12
3 280 130 212
3 280 62 130
3 132 280 31
3 281 280 132
3 281 62 280
3 281 279 62
3 282 279 281
3 282 13 279
3 282 233 13
3 283 233 282
3 283 41 233
3 134 283 63
3 284 283 134
3 284 41 283
3 284 99 41
3 285 99 284
3 285 3 99
3 715 14 716
3 137 717 718
3 720 719 137
3 721 14 722
3 723 135 724
3 725 724 14
3 723 724 725
3 286 726 728
3 726 135 727
3 726 727 728
3 286 64 135
3 139 286 65
3 287 286 139
3 287 64 286
3 287 285 64
3 288 285 287
3 288 3 285
3 288 251 3
3 289 251 288
3 289 49 251
3 141 289 66
3 290 289 141
3 290 49 289
3 290 107 49
3 291 107 290
3 291 7 107
3 215 142 15
3 292 142 215
3 292 67 142
3 144 292 33
3 293 292 144
3 293 67 292
3 293 291 67
3 294 291 293
3 294 7 291
3 294 201 7
3 295 201 294
3 295 24 201
3 146 295 68
3 296 295 146
3 296 24 295
3 296 91 24
3 297 91 296
3 297 1 91
3 729 34 730
3 149 731 732
3 298 733 735
3 735 734 149
3 733 734 735
3 298 736 738
3 736 34 737
3 736 737 738
3 298 218 34
3 299 218 298
3 299 16 218
3 219 739 741
3 739 150 740
3 739 740 741
3 300 150 219
3 300 70 150
3 152 300 35
3 301 300 152
3 301 70 300
3 301 299 70
3 302 299 301
3 302 16 299
3 302 147 16
3 303 147 302
3 303 69 147
3 154 303 71
3 304 303 154
3 304 69 303
3 304 297 69
3 305 297 304
3 305 1 297
3 305 259 1
3 306 259 305
3 306 53 259
3 156 306 72
3 307 306 156
3 307 53 306
3 307 113 53
3 308 113 307
3 308 9 113
3 223 157 17
3 309 157 223
3 309 73 157
3 159 309 37
3 310 309 159
3 310 73 309
3 310 308 73
3 311 308 310
3 311 9 308
3 311 206 9
3 312 206 311
3 312 27 206
3 161 312 74
3 313 312 161
3 313 27 312
3 313 94 27
3 314 94 313
3 314 2 94
3 315 742 743
3 315 744 746
3 744 38 745
3 744 745 746
3 163 747 749
3 747 315 748
3 747 748 749
3 316 315 163
3 316 38 315
3 316 226 38
3 317 226 316
3 317 18 226
3 227 750 752
3 750 164 751
3 750 751 752
3 318 164 227
3 318 76 164
3 166 318 39
3 319 318 166
3 319 76 318
3 319 317 76
3 320 317 319
3 320 18 317
3 320 162 18
3 321 162 320
3 321 75 162
3 168 321 77
3 322 321 168
3 322 75 321
3 322 314 75
3 323 314 322
3 323 2 314
3 323 244 2
3 324 244 323
3 324 45 244
3 170 324 78
3 325 324 170
3 325 45 324
3 325 102 45
3 326 102 325
3 326 4 102
3 231 171 19
3 327 171 231
3 327 79 171
3 753 327 754
3 755 754 40
3 753 754 755
3 328 756 758
3 756 327 757
3 756 757 758
3 328 79 327
3 328 326 79
3 329 326 328
3 329 4 326
3 329 195 4
3 759 195 760
3 761 760 329
3 759 760 761
3 763 762 195
3 764 175 765
3 330 766 768
3 766 175 767
3 766 767 768
3 330 80 175
3 173 769 771
3 769 330 770
3 769 770 771
3 331 330 173
3 331 80 330
3 331 332 80
3 275 332 331
3 275 0 332
3 333 772 773
3 333 774 775
3 333 776 778
3 776 197 777
3 776 777 778
3 334 197 333
3 334 22 197
3 174 334 81
3 335 334 174
3 335 22 334
3 335 88 22
3 332 88 335
3 332 0 88
3 276 90 0
3 336 90 276
3 336 23 90
3 177 336 61
3 337 336 177
3 337 23 336
3 337 200 23
3 338 200 337
3 338 6 200
3 234 178 13
3 339 178 234
3 339 82 178
3 180 339 42
3 340 339 180
3 340 82 339
3 340 338 82
3 341 338 340
3 341 6 338
3 341 106 6
3 342 106 341
3 342 48 106
3 182 342 83
3 343 342 182
3 343 48 342
3 343 250 48
3 344 250 343
3 344 779 781
3 781 780 250
3 779 780 781
3 252 101 3
3 345 101 252
3 345 43 101
3 185 345 50
3 346 345 185
3 346 43 345
3 346 237 43
3 347 237 346
3 347 20 237
3 239 186 8
3 348 186 239
3 348 85 186
3 188 348 44
3 349 348 188
3 349 85 348
3 349 347 85
3 350 347 349
3 350 20 347
3 350 183 20
3 351 183 350
3 351 84 183
3 190 351 86
3 352 351 190
3 352 84 351
3 352 344 84
3 353 344 352
3 353 782 784
3 784 783 344
3 782 783 784
3 353 785 786
3 788 787 353
3 790 789 87
3 243 192 21
3 791 192 792
3 793 792 243
3 791 792 793
3 795 794 192
3 260 93 1
3 354 93 260
3 354 26 93
3 194 354 54
3 355 354 194
3 355 26 354
3 355 205 26
3 796 205 797
3 798 797 355
3 796 797 798
3 800 799 205
