ply
format ascii 1.0
element vertex 854
property float x
property float y
property float z
element face 785
property list uchar int vertex_index
end_header
33.974335 -22.29842 20.886658
27.849581 -41.851936 -12.872649
19.460794 -35.967686 -27.964001
0.444677 -7.06246 -56.196083
36.028435 -6.34866 20.218523
36.584541 -19.749786 12.602581
34.187229 -32.794403 3.863836
33.552994 -34.407307 12.772553
1.486815 3.298111 -58.359138
24.56238 -39.256119 -20.639332
29.683142 -43.779404 -4.638562
-0.045904 22.555712 -63.190388
-0.987009 12.81214 -64.922813
3.155047 -16.45587 -48.710506
35.04092 -14.470881 20.673992
36.592594 -13.051272 16.618452
35.382965 -21.024178 16.931101
35.064598 -27.582048 12.72595
34.119644 -28.335255 16.925949
26.425766 -40.592293 -16.819839
32.34119 -39.297249 3.805891
32.148197 -38.313004 -0.512878
2.422802 23.460287 -59.834118
1.882838 18.346416 -60.96645
-0.463821 17.815088 -64.416985
1.083577 13.236465 -61.787544
0.847984 -1.627748 -57.587101
-0.225295 3.019233 -61.22147
-0.766425 -1.947405 -60.218426
37.607395 -5.061646 15.995049
35.783794 -26.365383 8.231239
34.03297 -33.631683 8.427565
32.309242 -40.169319 8.41226
14.369769 -37.285191 -33.409447
11.448619 -34.12759 -36.592968
8.582203 -30.703056 -39.91106
5.929104 -26.74507 -43.39579
22.304073 -37.809669 -24.249537
30.59948 -36.461582 -9.410638
31.60796 -37.355885 -4.930292
28.899755 -42.872055 -8.89602
-2.597654 30.445036 -62.140545
0.154303 27.315212 -61.356823
-2.496759 26.193531 -64.757339
0.390806 8.129424 -61.821903
-1.609417 7.86278 -64.809166
1.669844 -11.687292 -52.442436
3.605855 -22.09244 -47.097912
34.538067 -18.34815 20.77087
35.274223 -17.809429 18.846045
34.692825 -21.749527 18.908791
34.73103 -24.898167 16.96513
34.103897 -25.384352 18.983583
28.593338 -38.528828 -13.215096
27.804094 -38.048683 -15.235498
27.163055 -41.378143 -14.843853
31.32476 -42.702011 3.757414
31.226494 -42.228409 1.576911
2.954644 18.695648 -59.44305
2.58775 15.946582 -59.794853
1.494634 15.933913 -61.453331
2.146482 13.554699 -60.148361
0.583619 -4.28968 -57.012108
0.082975 -1.91109 -58.832207
-0.147483 -4.460351 -58.221821
36.519794 -2.231184 19.773752
37.360729 -1.626348 17.576582
36.850452 -5.786882 18.123135
36.668915 -16.519329 14.627357
37.2668 -12.634413 14.349133
37.237011 -16.156733 12.232774
36.255363 -23.172352 10.584237
34.280399 -31.208855 12.734976
34.679066 -30.474985 10.570134
33.800491 -34.192635 10.489032
33.128117 -37.121815 8.262529
32.987156 -37.430534 10.656374
15.851645 -38.415821 -31.778559
9.976767 -32.418808 -38.255642
25.96694 -36.745113 -19.158575
24.817108 -36.063927 -21.155403
23.503078 -35.47237 -23.144209
23.508736 -38.429657 -22.456171
30.910721 -41.131069 -2.717758
31.876879 -37.905079 -2.869771
30.609795 -40.639442 -4.934379
30.182789 -40.336754 -7.057629
29.285952 -43.479084 -6.765782
28.032038 -45.88628 -8.684818
-2.758374 32.393452 -60.719402
-1.209497 30.978241 -60.665501
1.231832 22.896448 -61.437401
1.297072 25.417305 -60.748074
0.066434 24.963915 -62.350761
-1.211174 26.769709 -63.08247
-1.18924 24.592184 -64.005333
-1.284287 22.210264 -64.881927
-0.799357 15.395554 -64.88855
-1.700467 17.558823 -66.106667
1.86627 5.928952 -58.627403
1.328248 8.401849 -60.31271
0.968123 5.799503 -60.135754
-0.846448 5.499922 -63.036606
2.357833 -14.149429 -50.561108
4.693485 -24.333055 -45.265633
35.548183 -10.457225 20.473856
36.368538 -9.688763 18.458696
35.845146 -13.73609 18.682959
36.014523 -17.027275 16.808023
36.026768 -20.309496 14.842434
35.84901 -23.669178 12.725397
35.340073 -24.210604 14.869024
34.640163 -27.89234 14.850358
33.878143 -31.536198 14.973412
26.953741 -37.466881 -17.167065
25.590096 -39.868164 -18.698154
33.239834 -36.181519 3.735108
33.23756 -35.520096 1.552463
32.233849 -38.932079 1.574798
31.095629 -41.676731 -0.613701
29.956615 -44.245342 -2.515646
3.27585 21.426609 -58.986038
2.158494 20.921143 -60.472935
0.994837 20.424582 -62.135777
-0.269638 20.192883 -63.942692
0.641157 18.089233 -62.803497
0.371874 15.557762 -63.157627
0.031372 13.174026 -63.44976
1.09589 0.751093 -58.081787
0.657796 3.271454 -59.807003
0.30153 0.726419 -59.478928
-0.544495 0.504323 -60.817207
27.063635 -45.088772 -12.591047
26.57453 -44.282005 -14.490727
38.079365 -0.801874 15.505771
37.134258 -9.078538 16.306681
37.806602 -8.445017 14.121718
35.076248 -29.608335 5.951861
35.454254 -27.067793 10.472225
34.896698 -30.17745 8.222679
34.147388 -33.241547 6.058037
33.252544 -36.559887 6.121084
32.293114 -39.961349 6.009466
1.966281 0.872763 -56.610287
1.622929 -1.508627 -56.255184
1.335933 -3.997656 -55.772614
1.154584 -6.643305 -55.083561
18.357813 -37.887463 -29.013542
18.001717 -34.755802 -29.690416
16.834236 -36.595184 -30.77832
15.352971 -35.365559 -32.414837
12.937631 -35.625832 -34.962631
12.239736 -32.67281 -35.768799
10.690056 -31.036295 -37.485748
9.30476 -29.352339 -39.092964
7.985895 -27.706898 -40.711697
6.658536 -25.812624 -42.471973
7.221211 -28.751331 -41.634155
35.182095 -7.412165 22.083214
34.728619 -11.332889 22.303534
34.241215 -15.307996 22.489481
20.872143 -36.836746 -26.209419
25.869738 -43.650383 -16.520096
22.204939 -40.920933 -23.828941
21.047274 -39.852859 -25.578518
19.787031 -38.892834 -27.262495
33.480991 -29.148462 18.969831
33.378864 -32.166977 16.990089
33.107018 -35.242306 14.893708
32.729095 -37.932598 12.786251
30.000816 -35.972889 -11.42217
29.126173 -39.433975 -11.248112
33.074371 -35.082874 -0.702487
31.087751 -37.172451 -7.172688
29.813156 -39.562599 -9.12514
28.426571 -42.382648 -10.863597
27.581997 -45.493073 -10.652847
2.555285 26.08918 -59.180214
1.370395 28.045723 -59.823639
0.224241 29.59638 -60.248619
-1.160645 28.832415 -61.933243
-2.62936 28.3508 -63.631386
-1.538482 19.825554 -65.681824
1.810398 10.901831 -60.155178
0.722674 10.724097 -61.910442
-0.268046 10.53866 -63.4622
0.079628 5.555388 -61.575603
-0.540332 8.111807 -63.317223
-1.367032 10.378379 -65.057365
1.72868 -9.123783 -53.172222
1.023195 -9.522343 -54.289791
5.43125 -23.603191 -44.272083
4.310408 -21.395643 -46.103458
3.330577 -19.141735 -47.923927
2.46703 -17.009069 -49.716976
1.695849 -14.509713 -51.605099
0.932048 -12.001531 -53.636917
30.792916 -44.031609 2.683067
30.887448 -44.161058 3.764523
2.93069 14.867924 -59.133573
3.136688 16.280718 -59.045904
2.710056 13.671982 -59.310327
2.367116 14.75064 -59.971607
2.93069 14.867924 -59.133573
0.054221 -7.110846 -56.838089
-0.241859 -5.809792 -57.850958
0.148597 -5.761406 -57.208952
19.356305 -34.523783 -28.273987
20.128301 -34.913355 -27.366224
36.781199 -19.65963 11.424581
37.107433 -17.863104 11.239677
36.910776 -17.95326 12.417677
36.419952 -21.461069 11.593409
36.61661 -21.370914 10.415408
36.781199 -19.65963 11.424581
34.18968 -32.479092 2.794718
34.670702 -30.930372 3.831184
29.041095 -45.074928 -5.632723
28.8425 -44.924768 -6.696333
29.484547 -43.629244 -5.702172
-0.517215 31.385143 -59.910983
-1.285961 32.034866 -60.005791
-1.471439 14.056942 -65.680988
-1.377612 15.348649 -65.663856
-0.893183 14.103847 -64.905682
-1.580224 12.789189 -65.712112
-1.471439 14.056942 -65.680988
3.107951 -15.075971 -49.123659
3.521334 -16.195384 -48.219167
2.75644 -15.30265 -49.635807
2.709344 -13.92275 -50.04896
3.107951 -15.075971 -49.123659
30.579928 -43.325088 -0.572935
31.161061 -41.95257 0.481605
30.64536 -43.600927 0.522371
30.010421 -44.609394 -1.523907
30.526122 -42.961036 -1.564674
30.579928 -43.325088 -0.572935
29.468828 -45.711426 -2.59847
30.010421 -44.609394 -1.523907
3.717329 20.422129 -58.437914
3.90853 21.917752 -58.226982
-1.109905 -0.79365 -61.17622
-0.99894 0.432214 -61.475611
-0.65546 -0.721541 -60.517817
-1.211342 -2.176333 -60.775547
-1.109905 -0.79365 -61.17622
26.484729 -46.226431 -13.370503
26.720883 -46.531948 -12.397679
37.934507 -4.742728 14.915067
38.170493 -2.612842 14.670428
37.84338 -2.93176 15.75041
37.809394 -10.319035 13.131203
37.536701 -10.539715 14.235425
37.539494 -12.413733 13.24491
38.097896 -8.2055 12.930626
37.809394 -10.319035 13.131203
35.858311 -26.186093 7.052183
36.16872 -24.573222 8.214643
35.430021 -27.986859 7.09155
35.504537 -27.807569 5.912494
35.858311 -26.186093 7.052183
31.880268 -41.541311 7.247794
31.872204 -41.437326 6.046397
32.301178 -40.065334 7.210863
2.178808 -0.33336 -55.779894
2.400314 1.005568 -55.950978
2.007132 -1.524055 -55.602342
1.794605 -0.317932 -56.432735
2.178808 -0.33336 -55.779894
1.602112 -5.31143 -54.799826
1.709291 -4.001003 -55.123396
1.511437 -6.634254 -54.4553
1.245259 -5.320481 -55.428088
1.602112 -5.31143 -54.799826
17.106945 -38.14689 -30.40525
17.596024 -37.241324 -29.895931
17.868733 -38.79303 -29.522861
14.09357 -35.690445 -33.738932
14.585171 -34.730629 -33.241627
14.86137 -36.325375 -32.912142
12.193125 -34.876711 -35.7778
12.500325 -36.372097 -35.471353
11.75582 -35.622976 -36.286522
34.748268 -7.964798 22.981121
34.95014 -5.875589 22.903513
34.52153 -9.92516 23.091281
34.955357 -9.372527 22.193374
34.748268 -7.964798 22.981121
33.800039 -15.742039 23.460424
34.049925 -13.920999 23.291164
33.998201 -17.195636 22.563361
33.800039 -15.742039 23.460424
22.241982 -36.295578 -24.613922
22.841485 -35.126928 -24.061257
22.903575 -36.641019 -23.696873
21.588108 -37.323207 -25.229478
21.526018 -35.809117 -25.593863
22.241982 -36.295578 -24.613922
25.621495 -45.241833 -16.235912
26.222134 -43.966194 -15.505411
25.97389 -45.557643 -15.221227
22.225614 -42.456013 -23.52283
22.741613 -41.237219 -22.953881
20.534165 -40.984235 -26.1299
21.105313 -41.510666 -25.28806
19.904043 -40.504223 -26.971888
20.417153 -39.372847 -26.420507
20.534165 -40.984235 -26.1299
19.301496 -39.94748 -27.772057
19.904043 -40.504223 -26.971888
33.165958 -29.455941 19.976527
33.462837 -27.675509 19.878335
33.032934 -33.923647 17.020919
33.11071 -32.409509 18.051953
32.897011 -35.461312 15.972728
33.242941 -33.704642 15.941899
33.032934 -33.923647 17.020919
32.321936 -39.669403 12.691537
32.56382 -38.232422 13.821575
32.440155 -39.33363 11.649497
32.321936 -39.669403 12.691537
30.300148 -36.217236 -10.416404
30.706465 -34.656039 -10.467657
31.005797 -34.900385 -9.461892
32.221108 -35.988581 -3.915231
32.355567 -36.263178 -2.884971
31.742419 -37.630482 -3.900031
32.0446 -35.773184 -5.00695
32.221108 -35.988581 -3.915231
31.347856 -37.264168 -6.05149
31.784495 -35.681467 -6.128148
32.0446 -35.773184 -5.00695
27.407531 -47.158665 -9.531224
27.595244 -47.371032 -8.576833
-3.344656 31.074379 -62.152199
-3.425015 32.048587 -61.441628
-2.678014 31.419244 -61.429974
-3.291311 30.161644 -62.916037
-3.344656 31.074379 -62.152199
2.489044 24.774733 -59.507166
3.107635 25.152777 -58.745495
3.041394 23.83833 -59.072447
-3.262734 27.072729 -64.968357
-3.329035 28.151364 -64.40538
-2.56306 27.272165 -64.194362
-3.214853 26.095992 -65.531689
-3.262734 27.072729 -64.968357
-2.283821 18.578243 -66.707478
-2.394195 17.431286 -66.938126
2.065968 9.672069 -59.409111
2.282763 11.071755 -59.439402
-2.036569 9.000647 -65.6185
-1.915376 10.258447 -65.7426
-1.488225 9.120579 -64.933266
17.806375 -33.316977 -30.075674
17.198927 -34.168825 -30.584295
1.699262 -10.405537 -52.807329
2.047481 -10.350547 -52.224268
2.018064 -11.632302 -51.859375
2.107857 -17.155169 -50.282213
2.559737 -18.361181 -49.318016
1.722266 -15.905492 -51.226275
2.08144 -15.759391 -50.661038
2.107857 -17.155169 -50.282213
0.594186 -12.294778 -54.104812
0.975691 -13.395879 -53.152715
0.610664 -10.858049 -54.567299
0.594186 -12.294778 -54.104812
28.198716 -38.288755 -14.225297
28.540878 -36.751329 -14.347913
28.9355 -36.991402 -13.337712
30.743783 -43.794808 1.592815
31.275627 -42.46521 2.667162
30.792916 -44.031609 2.683067
30.64536 -43.600927 0.522371
30.743783 -43.794808 1.592815
3.320136 17.655251 -58.870002
3.556726 19.056649 -58.66642
2.771197 17.321115 -59.618952
3.320136 17.655251 -58.870002
3.136688 16.280718 -59.045904
-0.557698 -4.550227 -58.838223
-0.86717 -3.293754 -59.836525
-0.456954 -3.203878 -59.220123
-0.557698 -4.550227 -58.838223
-0.241859 -5.809792 -57.850958
36.940261 -1.928766 18.675167
37.139553 0.061917 18.484696
36.719085 -0.240501 19.583281
37.524599 -14.174892 12.186731
37.539494 -12.413733 13.24491
37.251906 -14.395573 13.290954
37.453193 -15.895869 11.112578
37.524599 -14.174892 12.186731
37.453193 -15.895869 11.112578
37.107433 -17.863104 11.239677
36.404505 -22.976706 9.391142
36.61661 -21.370914 10.415408
36.019579 -24.768867 9.407738
36.16872 -24.573222 8.214643
36.404505 -22.976706 9.391142
16.199551 -40.077812 -31.38915
16.615649 -39.057209 -30.905369
15.509586 -39.400086 -32.176189
16.199551 -40.077812 -31.38915
14.768648 -38.83477 -32.991633
15.110707 -37.850506 -32.594003
15.509586 -39.400086 -32.176189
11.012055 -34.822954 -37.11429
11.75582 -35.622976 -36.286522
10.276129 -33.968563 -37.945627
10.712693 -33.273199 -37.424305
11.012055 -34.822954 -37.11429
9.57572 -32.997659 -38.746921
10.276129 -33.968563 -37.945627
8.878438 -32.139784 -39.57463
9.279485 -31.560932 -39.083351
9.57572 -32.997659 -38.746921
8.178314 -31.161738 -40.421867
8.878438 -32.139784 -39.57463
26.079645 -35.262308 -19.477071
26.674392 -35.537104 -18.41446
25.504729 -34.921715 -20.475485
26.079645 -35.262308 -19.477071
25.392024 -36.40452 -20.156989
24.874969 -34.596132 -21.487788
25.504729 -34.921715 -20.475485
24.160093 -35.768148 -22.149806
24.217954 -34.300354 -22.482191
24.874969 -34.596132 -21.487788
31.295595 -35.139005 -8.360046
31.005797 -34.900385 -9.461892
28.215543 -46.128366 -7.655851
28.658995 -44.682682 -7.7253
28.8425 -44.924768 -6.696333
27.595244 -47.371032 -8.576833
28.215543 -46.128366 -7.655851
-2.0604 32.742472 -60.032742
-2.789871 33.353454 -59.924554
-1.983935 31.685847 -60.692452
-2.0604 32.742472 -60.032742
-1.285961 32.034866 -60.005791
-1.894228 24.36782 -64.905124
-2.547988 25.168494 -65.281127
-1.842999 25.392857 -64.381336
-1.941752 23.17686 -65.343422
-1.894228 24.36782 -64.905124
-1.236763 23.401224 -64.44363
-1.977678 22.049301 -65.753681
-1.941752 23.17686 -65.343422
-1.828167 16.430284 -66.272915
-1.249912 16.477189 -65.497608
-1.377612 15.348649 -65.663856
-2.394195 17.431286 -66.938126
-1.828167 16.430284 -66.272915
1.597259 7.165401 -59.470056
1.824893 8.422079 -59.487877
2.093904 7.18563 -58.645224
-1.01377 4.20839 -62.856918
-0.535871 4.259577 -62.129038
-0.703194 2.968045 -61.94935
-1.372828 5.421568 -63.757347
-1.01377 4.20839 -62.856918
-1.754313 6.602996 -64.643627
-1.227933 6.681351 -63.922886
-1.372828 5.421568 -63.757347
-2.191911 7.73827 -65.504738
-1.754313 6.602996 -64.643627
2.362058 -12.86337 -50.918711
2.709344 -13.92275 -50.04896
2.013838 -12.91836 -51.501772
2.018064 -11.632302 -51.859375
2.362058 -12.86337 -50.918711
4.921176 -25.816561 -44.865555
5.311294 -25.539062 -44.330711
5.538985 -27.022569 -43.930633
4.354798 -24.778936 -45.732636
4.921176 -25.816561 -44.865555
3.810983 -23.658628 -46.648775
4.14967 -23.212747 -46.181773
4.354798 -24.778936 -45.732636
28.11345 -36.429222 -15.399804
28.540878 -36.751329 -14.347913
27.688274 -36.138321 -16.365587
28.11345 -36.429222 -15.399804
27.378918 -37.757782 -16.201282
27.167793 -35.897987 -17.418705
27.688274 -36.138321 -16.365587
26.460341 -37.105997 -18.16282
26.674392 -35.537104 -18.41446
27.167793 -35.897987 -17.418705
29.33101 -45.541483 -3.554215
29.194273 -45.308514 -4.615673
29.819879 -44.012373 -3.577104
29.33101 -45.541483 -3.554215
29.468828 -45.711426 -2.59847
3.467918 22.821491 -58.648407
3.90853 21.917752 -58.226982
2.849326 22.443448 -59.410078
3.041394 23.83833 -59.072447
3.467918 22.821491 -58.648407
3.115247 20.061128 -59.214544
3.717329 20.422129 -58.437914
3.556726 19.056649 -58.66642
-0.862794 1.71059 -61.747219
-0.703194 2.968045 -61.94935
-0.384895 1.761778 -61.019339
-0.862794 1.71059 -61.747219
-0.99894 0.432214 -61.475611
-1.211342 -2.176333 -60.775547
-0.86717 -3.293754 -59.836525
3.603965 -17.617814 -47.794668
3.521334 -16.195384 -48.219167
26.240177 -45.823048 -14.320343
26.819083 -44.685389 -13.540887
26.484729 -46.226431 -13.370503
25.97389 -45.557643 -15.221227
26.240177 -45.823048 -14.320343
37.558082 0.49851 17.379987
37.139553 0.061917 18.484696
37.9174 0.910747 16.344582
37.558082 0.49851 17.379987
37.720047 -1.214111 16.541176
38.298613 1.430128 15.207139
37.9174 0.910747 16.344582
38.390152 -0.492304 14.442421
38.298613 1.430128 15.207139
38.390152 -0.492304 14.442421
38.170493 -2.612842 14.670428
38.034111 -6.434413 13.978402
37.934507 -4.742728 14.915067
37.706998 -6.753331 15.058383
38.034111 -6.434413 13.978402
38.097896 -8.2055 12.930626
35.115212 -29.337338 4.875196
35.504537 -27.807569 5.912494
34.631738 -31.201369 4.907849
34.670702 -30.930372 3.831184
35.115212 -29.337338 4.875196
31.388027 -42.807657 4.920371
31.808937 -41.33168 4.88344
31.872204 -41.437326 6.046397
30.887448 -44.161058 3.764523
31.388027 -42.807657 4.920371
2.363676 6.004521 -57.836828
2.093904 7.18563 -58.645224
2.117419 4.691018 -57.768766
2.363676 6.004521 -57.836828
1.927691 3.375598 -57.634634
1.676543 4.613531 -58.493271
2.117419 4.691018 -57.768766
2.167424 2.162923 -56.760209
2.400314 1.005568 -55.950978
1.726548 2.085437 -57.484713
1.927691 3.375598 -57.634634
2.167424 2.162923 -56.760209
1.852789 -2.756488 -55.364681
2.007132 -1.524055 -55.602342
1.479431 -2.753141 -56.013899
1.852789 -2.756488 -55.364681
1.709291 -4.001003 -55.123396
16.615187 -35.088516 -31.128247
17.198927 -34.168825 -30.584295
17.417977 -35.675493 -30.234368
16.342941 -37.505503 -31.27844
17.106945 -38.14689 -30.40525
16.615649 -39.057209 -30.905369
15.874554 -34.473703 -31.946506
16.615187 -35.088516 -31.128247
16.093604 -35.980372 -31.596578
15.065571 -33.88912 -32.816248
15.874554 -34.473703 -31.946506
15.065571 -33.88912 -32.816248
14.585171 -34.730629 -33.241627
13.993835 -38.085854 -33.847217
14.768648 -38.83477 -32.991633
13.277767 -37.256175 -34.62381
12.500325 -36.372097 -35.471353
13.6537 -36.455512 -34.186039
13.993835 -38.085854 -33.847217
13.277767 -37.256175 -34.62381
13.377501 -34.860765 -34.515524
14.09357 -35.690445 -33.738932
13.6537 -36.455512 -34.186039
13.028553 -33.384254 -34.918608
13.377501 -34.860765 -34.515524
12.588684 -34.149321 -35.365715
12.713732 -31.875174 -35.343287
13.028553 -33.384254 -34.918608
11.948029 -31.241414 -36.16516
12.713732 -31.875174 -35.343287
11.173189 -30.423157 -37.023634
11.948029 -31.241414 -36.16516
11.464896 -31.854552 -36.627274
10.440863 -29.557439 -37.855372
11.173189 -30.423157 -37.023634
9.748216 -28.715461 -38.65898
10.440863 -29.557439 -37.855372
9.997408 -30.194317 -38.289356
9.048644 -27.971037 -39.482181
9.748216 -28.715461 -38.65898
8.389212 -27.148316 -40.291548
9.048644 -27.971037 -39.482181
8.645328 -28.529618 -39.902331
7.713614 -26.213239 -41.160048
8.389212 -27.148316 -40.291548
7.322216 -26.759761 -41.591835
7.049934 -25.266102 -42.040185
7.713614 -26.213239 -41.160048
7.497819 -30.185876 -41.283414
7.901707 -29.727193 -40.772607
8.178314 -31.161738 -40.421867
6.818793 -29.237773 -42.159776
7.497819 -30.185876 -41.283414
6.17274 -28.234643 -43.040594
6.575157 -27.7482 -42.514972
6.818793 -29.237773 -42.159776
5.538985 -27.022569 -43.930633
6.17274 -28.234643 -43.040594
36.308189 -0.622124 20.565609
36.719085 -0.240501 19.583281
36.090015 -2.733495 20.75241
36.308189 -0.622124 20.565609
35.844335 -4.792233 20.974795
36.274114 -4.289922 19.996138
36.090015 -2.733495 20.75241
35.421166 -5.323986 21.907141
34.95014 -5.875589 22.903513
35.605265 -6.880413 21.150869
35.844335 -4.792233 20.974795
35.421166 -5.323986 21.907141
34.293627 -11.933445 23.19819
34.52153 -9.92516 23.091281
34.484917 -13.320442 22.396507
34.293627 -11.933445 23.19819
34.049925 -13.920999 23.291164
34.146627 -18.715713 21.704055
34.389641 -16.828073 21.630175
33.998201 -17.195636 22.563361
33.864762 -20.690849 21.76195
34.256201 -20.323285 20.828764
34.146627 -18.715713 21.704055
23.568593 -34.015349 -23.409973
24.217954 -34.300354 -22.482191
23.568593 -34.015349 -23.409973
22.841485 -35.126928 -24.061257
20.833976 -35.347885 -26.488933
21.526018 -35.809117 -25.593863
20.166469 -36.402216 -27.08671
20.128301 -34.913355 -27.366224
20.833976 -35.347885 -26.488933
25.323765 -44.905603 -17.132917
25.621495 -45.241833 -16.235912
25.489227 -43.33059 -17.460245
25.323765 -44.905603 -17.132917
25.767241 -41.801544 -17.610116
26.147752 -42.121338 -16.669967
25.489227 -43.33059 -17.460245
25.349407 -41.43948 -18.549273
26.007931 -40.230228 -17.758997
25.767241 -41.801544 -17.610116
24.917846 -41.145024 -19.462145
25.349407 -41.43948 -18.549273
24.403988 -40.839001 -20.432735
25.076238 -39.562141 -19.668743
24.917846 -41.145024 -19.462145
23.920333 -40.404812 -21.359077
24.403988 -40.839001 -20.432735
23.393511 -39.991581 -22.267496
24.035558 -38.842888 -21.547752
23.920333 -40.404812 -21.359077
22.856837 -39.675295 -23.142556
23.393511 -39.991581 -22.267496
22.741613 -41.237219 -22.953881
21.684145 -42.044702 -24.413272
22.225614 -42.456013 -23.52283
21.626106 -40.386896 -24.70373
21.684145 -42.044702 -24.413272
21.105313 -41.510666 -25.28806
18.586886 -39.444794 -28.64758
19.072422 -38.390148 -28.138019
19.301496 -39.94748 -27.772057
17.868733 -38.79303 -29.522861
18.586886 -39.444794 -28.64758
33.60713 -22.6904 21.801685
33.864762 -20.690849 21.76195
33.709509 -24.250488 20.836749
33.60713 -22.6904 21.801685
33.77429 -25.793454 19.885212
34.039116 -23.841386 19.935121
33.709509 -24.250488 20.836749
33.792444 -27.266407 18.976707
33.77429 -25.793454 19.885212
33.462837 -27.675509 19.878335
33.161774 -30.900252 19.041824
33.165958 -29.455941 19.976527
33.429928 -30.657719 17.97996
33.161774 -30.900252 19.041824
33.11071 -32.409509 18.051953
32.752781 -36.887276 14.875304
32.897011 -35.461312 15.972728
32.918056 -36.587452 13.83998
32.752781 -36.887276 14.875304
32.56382 -38.232422 13.821575
32.569186 -39.082598 10.584559
32.858125 -37.681566 11.721312
32.440155 -39.33363 11.649497
32.230228 -40.45199 9.462502
32.648199 -38.799926 9.534317
32.569186 -39.082598 10.584559
31.856065 -41.823332 8.337317
32.230228 -40.45199 9.462502
31.880268 -41.541311 7.247794
31.856065 -41.823332 8.337317
30.348767 -34.352118 -11.60647
30.706465 -34.656039 -10.467657
29.639239 -35.713432 -12.441249
30.348767 -34.352118 -11.60647
29.297077 -37.250858 -12.318633
28.9355 -36.991402 -13.337712
29.639239 -35.713432 -12.441249
33.714846 -33.841938 1.639031
34.18968 -32.479092 2.794718
33.712395 -34.15725 2.70815
33.633251 -33.623327 0.511556
33.714846 -33.841938 1.639031
33.155966 -35.301485 0.424988
33.514457 -33.502798 -0.713801
33.633251 -33.623327 0.511556
32.954313 -34.852075 -1.801329
32.475625 -36.493977 -1.786129
32.355567 -36.263178 -2.884971
33.514457 -33.502798 -0.713801
32.954313 -34.852075 -1.801329
31.539731 -35.49444 -7.241072
31.784495 -35.681467 -6.128148
30.843615 -36.817017 -8.291663
31.295595 -35.139005 -8.360046
31.539731 -35.49444 -7.241072
26.980063 -46.734099 -11.428579
26.720883 -46.531948 -12.397679
27.322816 -45.290923 -11.621947
27.18251 -46.962061 -10.515238
27.807018 -45.689677 -9.668833
27.407531 -47.158665 -9.531224
26.980063 -46.734099 -11.428579
27.18251 -46.962061 -10.515238
29.041095 -45.074928 -5.632723
29.194273 -45.308514 -4.615673
-3.544563 32.938506 -60.635368
-2.789871 33.353454 -59.924554
-3.544563 32.938506 -60.635368
-3.425015 32.048587 -61.441628
3.21241 26.559971 -58.437588
3.107635 25.152777 -58.745495
2.644404 27.448135 -58.746158
3.21241 26.559971 -58.437588
2.051959 28.426406 -59.067871
2.644404 27.448135 -58.746158
1.96284 27.067451 -59.501926
1.469625 29.283436 -59.261244
2.051959 28.426406 -59.067871
0.896547 30.058765 -59.473734
1.469625 29.283436 -59.261244
0.797318 28.821051 -60.036129
0.199654 30.694213 -59.702541
0.896547 30.058765 -59.473734
-0.492628 30.287311 -60.45706
-0.517215 31.385143 -59.910983
0.199654 30.694213 -59.702541
-3.307164 29.114526 -63.661457
-3.291311 30.161644 -62.916037
-2.613507 29.397918 -62.885965
-3.307164 29.114526 -63.661457
-3.329035 28.151364 -64.40538
-3.214853 26.095992 -65.531689
-2.547988 25.168494 -65.281127
-2.104776 20.856946 -66.153629
-1.977678 22.049301 -65.753681
-1.411385 21.017909 -65.281876
-2.202828 19.711608 -66.495057
-1.619474 18.692189 -65.894246
-2.283821 18.578243 -66.707478
-2.104776 20.856946 -66.153629
-2.202828 19.711608 -66.495057
2.450805 12.398188 -59.435993
2.710056 13.671982 -59.310327
1.97844 12.228265 -60.15177
2.450805 12.398188 -59.435993
2.282763 11.071755 -59.439402
1.569323 9.65184 -60.233944
2.065968 9.672069 -59.409111
1.824893 8.422079 -59.487877
-1.770236 11.572309 -65.779388
-1.580224 12.789189 -65.712112
-1.177021 11.59526 -64.990089
-1.770236 11.572309 -65.779388
-1.915376 10.258447 -65.7426
-2.036569 9.000647 -65.6185
-2.191911 7.73827 -65.504738
18.626767 -33.917841 -29.137194
19.356305 -34.523783 -28.273987
18.731255 -35.361744 -28.827208
18.626767 -33.917841 -29.137194
17.806375 -33.316977 -30.075674
2.102886 -9.051564 -52.563347
2.047481 -10.350547 -52.224268
1.798485 -7.874493 -53.49963
2.102886 -9.051564 -52.563347
1.441632 -7.883544 -54.127892
1.511437 -6.634254 -54.4553
1.798485 -7.874493 -53.49963
6.426831 -24.274496 -42.919485
7.049934 -25.266102 -42.040185
5.813188 -23.169779 -43.81954
6.426831 -24.274496 -42.919485
6.044893 -24.707907 -43.372028
5.246178 -22.114841 -44.710184
5.813188 -23.169779 -43.81954
4.685757 -21.011067 -45.625872
5.246178 -22.114841 -44.710184
4.870829 -22.499417 -45.18777
4.181645 -20.087701 -46.491144
4.685757 -21.011067 -45.625872
3.69173 -18.960746 -47.401378
4.181645 -20.087701 -46.491144
3.820492 -20.268689 -47.013693
3.242812 -17.798803 -48.317217
3.603965 -17.617814 -47.794668
3.69173 -18.960746 -47.401378
3.271275 -22.420206 -47.572848
3.810983 -23.658628 -46.648775
3.12915 -20.902867 -48.008484
3.271275 -22.420206 -47.572848
2.991511 -19.427514 -48.421492
3.468216 -20.617088 -47.510919
3.12915 -20.902867 -48.008484
2.898803 -18.075402 -48.820452
2.991511 -19.427514 -48.421492
2.559737 -18.361181 -49.318016
1.357591 -14.649971 -52.136807
1.722266 -15.905492 -51.226275
1.313948 -13.255622 -52.621008
1.357591 -14.649971 -52.136807
0.975691 -13.395879 -53.152715
0.656238 -9.618455 -54.893736
0.977622 -10.761937 -53.963354
0.610664 -10.858049 -54.567299
0.366979 -8.388514 -55.846882
0.733936 -8.292402 -55.242937
0.656238 -9.618455 -54.893736
0.054221 -7.110846 -56.838089
0.366979 -8.388514 -55.846882
3 0 50 48
3 0 52 50
3 1 55 53
3 198 197 56
3 199 59 200
3 201 61 202
3 203 202 59
3 201 202 203
3 3 64 62
3 3 204 206
3 206 205 64
3 204 205 206
3 2 207 208
3 4 67 65
3 5 70 68
3 5 209 211
3 211 210 70
3 209 210 211
3 5 212 214
3 212 71 213
3 212 213 214
3 7 74 72
3 7 76 74
3 9 80 79
3 9 82 80
3 6 215 216
3 10 85 83
3 10 87 85
3 10 217 219
3 219 218 87
3 217 218 219
3 220 90 221
3 11 93 91
3 11 95 93
3 11 96 95
3 12 222 224
3 224 223 97
3 222 223 224
3 12 225 226
3 8 101 99
3 13 227 228
3 13 229 231
3 229 103 230
3 229 230 231
3 14 107 105
3 16 108 49
3 16 109 108
3 16 111 109
3 18 112 51
3 18 113 112
3 19 114 54
3 19 115 114
3 20 118 116
3 232 119 233
3 234 233 57
3 232 233 234
3 235 120 236
3 237 236 119
3 235 236 237
3 239 238 120
3 240 121 241
3 23 122 58
3 23 123 122
3 23 125 123
3 25 126 60
3 25 127 126
3 26 130 128
3 28 131 63
3 28 242 244
3 244 243 131
3 242 243 244
3 28 245 246
3 248 247 132
3 29 134 66
3 29 249 251
3 251 250 134
3 249 250 251
3 15 135 106
3 252 136 253
3 254 253 69
3 252 253 254
3 256 255 136
3 30 257 258
3 30 259 261
3 259 137 260
3 259 260 261
3 17 138 110
3 31 139 73
3 31 140 139
3 31 141 140
3 32 142 75
3 32 262 264
3 264 263 142
3 262 263 264
3 265 143 266
3 267 144 268
3 269 268 143
3 267 268 269
3 270 145 271
3 272 146 273
3 274 273 145
3 272 273 274
3 275 149 276
3 277 276 147
3 275 276 277
3 33 150 77
3 33 278 280
3 280 279 150
3 278 279 280
3 34 281 283
3 281 151 282
3 281 282 283
3 34 152 151
3 34 153 152
3 35 154 78
3 35 155 154
3 35 157 155
3 284 158 285
3 286 159 287
3 288 287 158
3 286 287 288
3 289 160 290
3 292 291 160
3 37 293 295
3 295 294 81
3 293 294 295
3 37 296 298
3 296 161 297
3 296 297 298
3 299 162 300
3 301 300 133
3 299 300 301
3 302 163 303
3 304 164 305
3 306 165 307
3 308 307 164
3 306 307 308
3 310 309 165
3 311 166 312
3 313 167 314
3 315 168 316
3 317 316 167
3 315 316 317
3 318 169 319
3 321 320 169
3 38 322 324
3 322 170 323
3 322 323 324
3 38 171 170
3 21 172 117
3 39 325 327
3 327 326 84
3 325 326 327
3 39 328 329
3 39 330 332
3 330 173 331
3 330 331 332
3 40 174 86
3 40 175 174
3 40 176 175
3 334 333 88
3 41 335 337
3 337 336 89
3 335 336 337
3 41 338 339
3 22 340 342
3 340 177 341
3 340 341 342
3 42 178 92
3 42 179 178
3 42 180 179
3 43 181 94
3 43 343 345
3 345 344 181
3 343 344 345
3 43 346 347
3 24 182 124
3 349 348 98
3 350 183 351
3 44 184 100
3 44 185 184
3 27 186 129
3 45 187 102
3 45 188 187
3 45 352 354
3 354 353 188
3 352 353 354
3 356 355 148
3 46 357 359
3 357 189 358
3 357 358 359
3 46 190 189
3 36 191 156
3 47 192 104
3 47 193 192
3 360 194 361
3 362 195 363
3 364 363 194
3 362 363 364
3 365 196 366
3 368 367 196
3 48 49 14
3 50 49 48
3 50 16 49
3 50 51 16
3 52 51 50
3 52 18 51
3 53 369 371
3 369 54 370
3 369 370 371
3 55 54 53
3 55 19 54
3 56 57 20
3 372 57 373
3 374 373 56
3 372 373 374
3 376 375 57
3 377 58 378
3 59 379 381
3 379 58 380
3 379 380 381
3 59 23 58
3 59 60 23
3 61 60 59
3 61 25 60
3 62 63 26
3 64 63 62
3 64 28 63
3 64 382 384
3 384 383 28
3 382 383 384
3 386 385 64
3 65 387 389
3 387 66 388
3 387 388 389
3 67 66 65
3 67 29 66
3 68 69 15
3 70 69 68
3 70 390 392
3 392 391 69
3 390 391 392
3 70 393 394
3 396 395 70
3 71 397 398
3 71 399 401
3 399 30 400
3 399 400 401
3 72 73 17
3 74 73 72
3 74 31 73
3 74 75 31
3 76 75 74
3 76 32 75
3 402 77 403
3 404 77 405
3 406 33 407
3 408 407 77
3 406 407 408
3 409 34 410
3 411 78 412
3 413 412 34
3 411 412 413
3 414 78 415
3 416 35 417
3 418 417 78
3 416 417 418
3 420 419 35
3 79 421 422
3 80 423 425
3 425 424 79
3 423 424 425
3 80 426 427
3 80 428 430
3 428 81 429
3 428 429 430
3 82 81 80
3 82 37 81
3 431 38 432
3 83 84 21
3 85 84 83
3 85 39 84
3 85 86 39
3 87 86 85
3 87 40 86
3 87 88 40
3 433 88 434
3 435 434 87
3 433 434 435
3 437 436 88
3 438 89 439
3 90 440 442
3 440 89 441
3 440 441 442
3 90 41 89
3 91 92 22
3 93 92 91
3 93 42 92
3 93 94 42
3 95 94 93
3 95 43 94
3 95 443 445
3 445 444 43
3 443 444 445
3 96 446 448
3 448 447 95
3 446 447 448
3 96 449 450
3 97 98 24
3 451 98 452
3 453 452 97
3 451 452 453
3 455 454 98
3 99 456 458
3 456 100 457
3 456 457 458
3 101 100 99
3 101 44 100
3 459 102 460
3 461 460 27
3 459 460 461
3 462 102 463
3 464 45 465
3 466 465 102
3 464 465 466
3 468 467 45
3 103 469 470
3 103 471 473
3 471 46 472
3 471 472 473
3 474 104 475
3 476 475 36
3 474 475 476
3 477 104 478
3 479 47 480
3 481 480 104
3 479 480 481
3 105 106 4
3 107 106 105
3 107 15 106
3 49 107 14
3 108 107 49
3 108 15 107
3 108 68 15
3 109 68 108
3 109 5 68
3 109 110 5
3 111 110 109
3 111 17 110
3 51 111 16
3 112 111 51
3 112 17 111
3 112 72 17
3 113 72 112
3 113 7 72
3 54 482 483
3 114 484 486
3 486 485 54
3 484 485 486
3 114 487 488
3 114 489 491
3 489 79 490
3 489 490 491
3 115 79 114
3 115 9 79
3 116 117 6
3 118 117 116
3 118 21 117
3 57 118 20
3 119 118 57
3 119 21 118
3 119 83 21
3 120 83 119
3 120 10 83
3 120 492 494
3 494 493 10
3 492 493 494
3 496 495 120
3 121 497 498
3 121 499 501
3 499 22 500
3 499 500 501
3 58 502 504
3 502 121 503
3 502 503 504
3 122 121 58
3 122 22 121
3 122 91 22
3 123 91 122
3 123 11 91
3 123 124 11
3 125 124 123
3 125 24 124
3 60 125 23
3 126 125 60
3 126 24 125
3 126 97 24
3 127 97 126
3 127 12 97
3 128 129 8
3 130 129 128
3 130 27 129
3 63 130 26
3 131 130 63
3 131 27 130
3 131 505 507
3 507 506 27
3 505 506 507
3 509 508 131
3 511 510 28
3 512 13 513
3 132 133 1
3 514 133 515
3 516 515 132
3 514 515 516
3 518 517 133
3 66 519 520
3 134 521 523
3 523 522 66
3 521 522 523
3 134 524 525
3 134 526 527
3 529 528 134
3 106 67 4
3 135 67 106
3 135 29 67
3 69 135 15
3 136 135 69
3 136 29 135
3 136 530 532
3 532 531 29
3 530 531 532
3 534 533 136
3 137 535 536
3 137 537 539
3 537 6 538
3 537 538 539
3 110 71 5
3 138 71 110
3 138 30 71
3 73 138 17
3 139 138 73
3 139 30 138
3 139 137 30
3 140 137 139
3 140 6 137
3 140 116 6
3 141 116 140
3 141 20 116
3 75 141 31
3 142 141 75
3 142 20 141
3 142 56 20
3 540 56 541
3 542 541 142
3 540 541 542
3 544 543 56
3 545 99 546
3 547 99 548
3 549 8 550
3 551 550 99
3 549 550 551
3 143 552 553
3 143 554 556
3 554 8 555
3 554 555 556
3 143 128 8
3 144 128 143
3 144 26 128
3 557 144 558
3 145 559 561
3 559 144 560
3 559 560 561
3 145 26 144
3 145 62 26
3 146 62 145
3 146 3 62
3 147 148 2
3 149 148 147
3 149 562 564
3 564 563 148
3 562 563 564
3 77 565 567
3 565 149 566
3 565 566 567
3 150 149 77
3 150 568 570
3 570 569 149
3 568 569 570
3 150 571 572
3 574 573 150
3 575 33 576
3 151 577 578
3 151 579 581
3 579 33 580
3 579 580 581
3 151 582 584
3 584 583 33
3 582 583 584
3 152 585 587
3 587 586 151
3 585 586 587
3 152 588 589
3 152 590 591
3 153 592 594
3 594 593 152
3 592 593 594
3 153 595 596
3 78 153 34
3 154 153 78
3 154 597 599
3 599 598 153
3 597 598 599
3 154 600 601
3 155 602 604
3 604 603 154
3 602 603 604
3 155 605 606
3 155 607 609
3 607 156 608
3 607 608 609
3 157 156 155
3 157 36 156
3 610 157 611
3 612 611 35
3 610 611 612
3 613 157 614
3 615 36 616
3 617 616 157
3 615 616 617
3 619 618 36
3 620 65 621
3 622 65 623
3 624 4 625
3 626 625 65
3 624 625 626
3 158 627 628
3 158 629 631
3 629 4 630
3 629 630 631
3 158 105 4
3 159 105 158
3 159 14 105
3 632 159 633
3 160 634 636
3 634 159 635
3 634 635 636
3 160 14 159
3 160 48 14
3 637 48 638
3 639 638 160
3 637 638 639
3 640 0 641
3 642 641 48
3 640 641 642
3 81 643 644
3 646 645 81
3 161 647 648
3 161 649 651
3 649 2 650
3 649 650 651
3 133 55 1
3 162 55 133
3 162 19 55
3 652 162 653
3 654 162 655
3 656 19 657
3 658 657 162
3 656 657 658
3 659 115 660
3 661 660 19
3 659 660 661
3 662 115 663
3 664 9 665
3 666 665 115
3 664 665 666
3 667 9 668
3 669 82 670
3 671 670 9
3 669 670 671
3 163 672 674
3 672 82 673
3 672 673 674
3 163 37 82
3 675 163 676
3 164 677 679
3 677 163 678
3 677 678 679
3 164 37 163
3 164 161 37
3 165 161 164
3 165 2 161
3 165 147 2
3 680 147 681
3 682 681 165
3 680 681 682
3 684 683 147
3 685 0 686
3 687 0 688
3 689 52 690
3 691 690 0
3 689 690 691
3 166 692 694
3 692 52 693
3 692 693 694
3 166 18 52
3 695 166 696
3 167 697 699
3 697 166 698
3 697 698 699
3 167 18 166
3 167 113 18
3 168 113 167
3 168 7 113
3 700 168 701
3 169 702 704
3 702 168 703
3 702 703 704
3 169 7 168
3 169 76 7
3 705 76 706
3 707 706 169
3 705 706 707
3 708 32 709
3 710 709 76
3 708 709 710
3 711 32 712
3 714 713 32
3 170 715 716
3 170 717 718
3 170 719 721
3 719 53 720
3 719 720 721
3 171 53 170
3 171 1 53
3 117 722 724
3 724 723 6
3 722 723 724
3 172 725 727
3 727 726 117
3 725 726 727
3 172 728 729
3 84 172 21
3 730 172 731
3 732 731 84
3 730 731 732
3 734 733 172
3 173 735 736
3 173 737 739
3 737 38 738
3 737 738 739
3 86 173 39
3 174 173 86
3 174 38 173
3 174 171 38
3 175 171 174
3 175 1 171
3 175 132 1
3 176 132 175
3 176 740 742
3 742 741 132
3 740 741 742
3 88 176 40
3 743 176 744
3 745 744 88
3 743 744 745
3 747 746 176
3 749 748 10
3 89 750 751
3 753 752 89
3 177 754 755
3 177 756 757
3 92 177 22
3 178 177 92
3 178 758 760
3 760 759 177
3 758 759 760
3 178 761 762
3 179 763 765
3 765 764 178
3 763 764 765
3 179 766 767
3 179 768 770
3 768 90 769
3 768 769 770
3 180 90 179
3 180 41 90
3 94 180 42
3 181 180 94
3 181 41 180
3 181 771 773
3 773 772 41
3 771 772 773
3 775 774 181
3 777 776 43
3 124 96 11
3 182 96 124
3 182 778 780
3 780 779 96
3 778 779 780
3 98 182 24
3 781 182 782
3 783 782 98
3 781 782 783
3 785 784 182
3 786 61 787
3 183 788 790
3 788 61 789
3 788 789 790
3 183 25 61
3 100 791 793
3 791 183 792
3 791 792 793
3 184 183 100
3 184 25 183
3 184 127 25
3 185 127 184
3 185 12 127
3 129 101 8
3 186 101 129
3 186 44 101
3 102 186 27
3 187 186 102
3 187 44 186
3 187 185 44
3 188 185 187
3 188 12 185
3 188 794 796
3 796 795 12
3 794 795 796
3 798 797 188
3 800 799 45
3 148 801 803
3 803 802 2
3 801 802 803
3 805 804 148
3 189 806 807
3 189 808 809
3 189 810 812
3 810 146 811
3 810 811 812
3 190 146 189
3 190 3 146
3 156 813 814
3 191 815 817
3 817 816 156
3 815 816 817
3 191 818 819
3 104 191 36
3 192 191 104
3 192 820 822
3 822 821 191
3 820 821 822
3 192 823 824
3 193 825 827
3 827 826 192
3 825 826 827
3 193 828 830
3 828 13 829
3 828 829 830
3 831 47 832
3 833 47 834
3 835 193 836
3 837 836 47
3 835 836 837
3 194 838 840
3 838 193 839
3 838 839 840
3 194 13 193
3 194 103 13
3 195 103 194
3 195 46 103
3 841 195 842
3 196 843 845
3 843 195 844
3 843 844 845
3 196 46 195
3 196 190 46
3 846 190 847
3 848 847 196
3 846 847 848
3 849 3 850
3 851 850 190
3 849 850 851
3 853 852 3
