ply
format ascii 1.0
element vertex 805
property float x
property float y
property float z
element face 998
property list uchar int vertex_index
end_header
23.383583 -61.577183 -10.088602
24.92609 -100.037758 -20.229496
21.678465 -61.216187 -22.449066
24.818962 -79.691856 -13.258354
21.036343 -80.659645 -29.918488
24.975054 -53.520039 -11.647998
23.400646 -51.765026 -18.603907
22.637928 -62.316193 -15.783028
26.487488 -90.444237 -15.990846
24.322453 -82.119453 -21.67474
23.773378 -92.018265 -26.208733
18.276472 -105.967598 -24.5306
18.892061 -98.976685 -30.916515
9.72654 -101.70636 -34.078468
20.639816 -48.63665 -25.30826
18.739723 -57.543106 -29.198486
23.079554 -69.604469 -11.6112
24.847425 -74.550476 -4.774733
26.631023 -85.29509 -5.963315
26.934315 -95.853271 -8.393005
23.142195 -104.366394 -12.520055
14.941969 -107.783859 -16.144697
22.973444 -71.862831 -18.526463
21.651636 -70.981628 -25.821669
23.932398 -58.214592 -10.887802
23.457077 -57.933525 -13.914347
22.974499 -61.984226 -12.706267
26.274145 -95.402832 -17.99958
25.596479 -91.889832 -21.205015
24.640099 -96.555099 -23.492872
14.648417 -47.624504 -33.821999
22.236986 -56.401718 -20.641214
22.289967 -50.241726 -21.904734
21.134211 -54.892719 -24.017714
19.476191 -53.069351 -27.375044
20.544273 -59.824017 -25.824524
26.478859 -81.894333 -1.079211
27.026905 -87.196182 -1.725302
27.163862 -90.702621 -7.055215
24.234276 -101.702904 -6.162905
21.167955 -104.700188 -8.145055
19.496836 -106.79863 -14.569916
17.028271 -106.424858 -10.203042
23.785191 -74.527031 -12.193254
23.01053 -71.058464 -14.940533
23.841936 -76.165886 -16.041286
23.17131 -82.189667 -25.923258
23.034094 -77.107491 -23.987877
21.636419 -76.181923 -27.824862
19.932846 -69.351608 -29.514053
14.579705 -96.274445 -35.10228
18.143841 -93.998917 -33.185284
24.321716 -52.693142 -15.027761
22.952147 -57.362556 -17.185793
22.295982 -61.916527 -19.107161
25.891626 -85.159317 -14.361892
24.79644 -81.357147 -17.443401
25.498833 -86.598953 -19.195702
24.453213 -87.295349 -23.877806
22.505613 -86.552544 -28.261347
22.277687 -103.571602 -22.544117
22.422377 -100.465149 -25.781202
19.093189 -103.11158 -27.829737
14.676105 -100.97435 -32.834839
9.903337 -97.442581 -36.644398
17.258169 -50.660244 -30.653603
16.378572 -54.726231 -32.434322
23.713406 -63.121479 -7.709377
22.976645 -65.243835 -10.817216
23.482004 -67.64077 -8.117467
23.874666 -72.334259 -8.446026
24.722569 -77.336357 -9.134855
25.724329 -79.940361 -5.375464
25.792233 -82.600449 -9.825167
26.707603 -88.163063 -11.018839
26.991951 -93.527588 -12.454642
26.320213 -98.535095 -14.314841
25.665848 -100.558197 -10.154267
24.42108 -102.791206 -16.447166
21.233299 -105.860313 -18.66185
16.937471 -107.568161 -20.446619
9.54961 -107.3647 -17.382526
24.493254 -58.73534 -7.669718
25.574558 -54.265606 -8.171091
22.672415 -66.352478 -13.902068
22.536127 -66.991173 -17.153362
22.274584 -67.03492 -20.700199
23.684824 -76.913788 -19.951464
22.627277 -72.012764 -22.16721
21.553137 -65.976151 -24.119213
20.265797 -64.835007 -27.601389
18.25127 -62.401558 -30.920311
21.933172 -96.032173 -28.613262
20.886423 -90.688004 -30.78466
23.603323 -60.080891 -10.428148
23.366957 -60.128235 -11.846946
23.177967 -61.780106 -11.236647
25.77878 -97.833405 -19.022995
25.588938 -96.102707 -20.803358
24.935934 -98.263878 -21.820751
21.880541 -58.955822 -21.582985
21.759766 -55.810242 -22.289986
21.386349 -58.164059 -23.314629
20.767397 -57.406273 -24.99218
21.196968 -60.445435 -24.081841
27.139688 -90.079353 -2.124676
19.922195 -104.413567 -5.92662
19.287006 -105.742355 -9.257984
24.255747 -76.990784 -12.745765
23.779856 -75.282082 -14.137389
24.314659 -77.987106 -14.773687
22.200224 -81.398354 -27.982996
22.446014 -79.288651 -26.878159
21.443928 -78.399216 -28.803223
20.555534 -75.162918 -29.707296
20.186842 -77.435219 -30.719343
25.680393 -50.792095 -11.862713
25.330063 -50.200436 -13.644832
24.669336 -53.087967 -13.347469
22.956499 -60.135403 -14.866322
23.223579 -57.65554 -15.511898
22.776293 -59.869919 -16.436302
22.540543 -59.634197 -18.15189
22.483257 -62.184807 -17.453663
26.256819 -87.833664 -15.236049
25.758171 -85.94075 -16.741385
26.05024 -88.586464 -17.584772
24.819696 -92.006485 -23.725983
25.107235 -89.637054 -22.48848
24.285315 -89.647827 -24.907574
23.597586 -87.086685 -26.113365
23.187029 -89.526337 -27.297705
20.431604 -104.984276 -23.481007
20.734703 -103.627914 -25.213091
18.623301 -104.671608 -26.434956
12.353367 -103.371925 -31.928507
14.672652 -102.852257 -31.416559
12.271796 -101.504158 -33.551876
12.226271 -99.25325 -34.971485
9.905636 -99.776924 -35.409241
24.297705 -49.410587 -17.296534
23.754704 -48.543362 -19.075043
21.517502 -49.343334 -23.64967
19.145056 -55.430168 -28.188227
18.397444 -51.849964 -29.069744
18.077032 -54.276741 -29.840096
16.916779 -53.01136 -31.425356
17.667986 -56.526627 -30.803358
23.511276 -65.367371 -7.931517
23.858671 -66.205612 -6.30085
24.515278 -72.10173 -4.754565
24.040312 -71.059502 -6.577785
24.347418 -73.558434 -6.766995
24.253269 -74.808784 -8.765543
24.723906 -75.919601 -7.03142
26.532558 -83.583504 -3.498438
26.114813 -80.846474 -3.3057
26.176357 -82.481491 -5.580122
25.7642 -81.430748 -7.64863
26.260563 -83.990944 -7.807304
26.312401 -85.363281 -10.275331
26.678411 -86.687164 -8.497791
27.162439 -93.310249 -7.789117
27.127131 -92.087715 -9.596391
27.04854 -94.785172 -10.381851
26.797827 -96.099472 -13.346253
26.752047 -97.100227 -11.267365
23.734009 -103.188828 -9.287918
25.043999 -101.222252 -8.113061
24.541506 -102.64785 -11.375639
25.183088 -101.762085 -13.319915
23.931252 -103.660934 -14.399288
23.006205 -104.487144 -17.447533
22.433266 -105.173286 -15.510783
17.310493 -107.468399 -15.398019
18.415262 -107.327644 -17.437475
16.044741 -107.845985 -18.464344
14.37619 -107.895363 -21.248823
13.42686 -107.992859 -19.013405
8.121883 -107.274323 -20.124725
25.025408 -56.524788 -7.787255
22.962181 -67.42173 -11.192253
22.785126 -65.876648 -12.404061
22.829357 -68.121658 -12.884032
22.994762 -71.477303 -16.759771
22.749258 -69.250977 -16.155132
22.685596 -69.285141 -17.883476
22.422615 -66.839958 -18.945271
22.610788 -69.46579 -19.546381
24.646191 -81.977905 -19.592815
24.236 -79.307182 -18.96134
24.035446 -79.525429 -20.840357
22.349369 -74.245453 -24.971119
22.820606 -74.555046 -23.137064
22.252926 -71.824875 -23.977264
22.096279 -69.123871 -23.136951
21.619335 -68.585159 -24.901207
20.947493 -65.359962 -25.954071
20.955416 -67.951385 -26.764933
19.138132 -66.012291 -30.191189
20.750521 -99.855156 -28.508131
22.35165 -98.340294 -27.162373
20.586288 -97.644356 -29.752237
19.698177 -92.53231 -31.953432
19.155113 -89.58297 -32.772057
20.358459 -87.921387 -31.480829
24.423147 -55.948299 -11.22771
24.121508 -55.730511 -12.917194
23.723703 -57.966259 -12.348875
23.179291 -60.051247 -13.277062
22.800505 -62.255161 -14.134405
26.477417 -92.897148 -17.07659
26.111721 -91.18853 -18.731955
25.981268 -93.780464 -19.729366
25.279114 -94.225632 -22.286333
24.331425 -94.36721 -24.793861
15.16262 -45.552044 -32.937275
22.766785 -54.02755 -19.568815
22.897108 -51.002113 -20.268705
22.250095 -53.418587 -21.287924
21.642296 -52.532997 -22.98414
20.90201 -51.796303 -24.649797
19.986969 -50.811054 -26.382225
20.383471 -54.18354 -25.695969
20.024824 -56.528774 -26.60984
19.742449 -58.883099 -27.501011
26.794088 -84.540665 -1.237729
26.895561 -86.396889 -3.860899
26.962374 -87.95137 -6.546398
27.126305 -89.107498 -4.306539
27.188408 -91.813026 -5.017727
27.027109 -94.42112 -5.610729
22.904221 -103.242096 -6.956967
22.284239 -104.642845 -10.274902
21.422829 -105.772491 -13.576972
20.497671 -105.875801 -11.390107
18.386219 -106.750832 -12.320333
16.066742 -107.24939 -13.173309
23.369423 -71.996368 -11.843823
23.025728 -70.452995 -13.304033
23.356945 -72.821869 -13.599148
23.373747 -73.548676 -15.503492
23.392805 -74.139633 -17.323059
23.827129 -82.248169 -23.88983
23.689411 -79.701042 -22.909239
23.129898 -79.455345 -24.970608
22.432802 -76.75029 -25.944645
21.699568 -73.621979 -26.770357
20.88813 -70.281097 -27.716372
20.837076 -72.731453 -28.57575
19.763641 -71.83403 -30.363121
16.669634 -97.890305 -33.187286
18.52389 -96.644463 -32.170563
16.43347 -95.193832 -34.247803
24.804016 -49.951862 -15.509103
23.88727 -52.299625 -16.80759
23.86274 -55.37154 -14.50018
23.5495 -55.040203 -16.135334
23.186405 -54.625473 -17.840336
22.643188 -56.737835 -18.936117
22.262434 -59.287651 -19.842857
22.028135 -61.669128 -20.825319
25.385006 -82.446083 -13.836744
24.879379 -80.742195 -15.280395
25.359591 -83.363365 -15.988868
25.191723 -83.933449 -18.254292
24.947195 -84.596085 -20.477362
25.684935 -89.328575 -20.071075
25.124239 -87.19249 -21.448473
24.471474 -84.773056 -22.745085
23.814219 -84.750809 -24.946613
22.931929 -84.334648 -27.057812
21.768465 -83.598663 -29.152685
23.796885 -102.05513 -21.159481
23.879354 -100.399162 -22.955843
22.501827 -102.089134 -24.149933
20.865332 -101.896362 -26.907009
19.074936 -101.285568 -29.398853
16.819601 -103.935768 -28.989017
17.087143 -102.220505 -30.405256
17.01005 -100.263794 -31.79397
14.693469 -98.86647 -34.002487
12.369174 -97.034393 -35.926708
23.078619 -47.736965 -20.854067
18.906071 -49.640392 -28.1276
15.991785 -49.131744 -32.238316
15.551397 -51.215469 -33.086987
23.513058 -62.200848 -9.051748
23.142921 -63.137932 -10.427353
23.277359 -64.172218 -9.296519
23.187765 -66.468689 -9.515725
23.249338 -68.804237 -9.798018
23.862968 -68.596954 -6.472901
23.602764 -69.868744 -8.255421
23.451944 -71.060791 -10.032616
23.808937 -73.607468 -10.363334
24.27257 -76.097084 -10.665072
24.784079 -78.682365 -11.173794
25.256466 -77.283737 -5.13819
25.235527 -78.676849 -7.304607
25.265337 -80.00486 -9.424381
25.306534 -81.199303 -11.668547
25.852554 -83.869362 -12.120321
26.337124 -86.743469 -12.783817
26.65601 -89.435318 -13.504561
26.98752 -89.356857 -8.984128
26.954466 -90.819214 -11.504936
26.798281 -92.006508 -14.297077
26.731493 -94.523392 -15.17169
26.386234 -97.052277 -16.242144
25.774025 -99.399857 -17.144178
26.637119 -96.874474 -6.46164
25.299795 -99.779839 -5.046141
25.965693 -99.175934 -7.179214
26.455929 -98.28186 -9.258206
26.146322 -99.507339 -12.164742
25.544622 -100.791 -15.200022
24.821405 -101.476311 -18.31216
23.440439 -103.458214 -19.440237
21.866934 -104.903526 -20.552517
19.904066 -106.070992 -21.734905
20.569849 -106.426666 -16.545891
19.268938 -106.883797 -19.464859
17.777386 -106.945442 -22.409737
14.698797 -106.734512 -11.087778
13.546637 -107.389473 -13.99631
10.937304 -107.192818 -14.754261
12.207331 -107.740791 -16.830616
10.821257 -107.798737 -19.682859
24.717676 -59.390434 -6.085328
24.045977 -60.877499 -7.663431
23.808561 -60.367496 -9.106874
25.988726 -51.282478 -10.148618
25.283615 -53.87989 -9.914827
24.695171 -56.258755 -9.587012
24.222437 -58.382217 -9.255693
22.905054 -63.702923 -11.866806
22.74095 -64.13974 -13.304108
22.608961 -64.471901 -14.905592
22.762991 -68.611504 -14.490761
22.595652 -66.713501 -15.548032
22.502085 -64.47168 -16.554726
22.38938 -64.559486 -18.143795
22.220098 -64.348541 -19.86335
21.963045 -64.051598 -21.558155
24.324558 -78.733459 -16.800289
23.841221 -76.802422 -18.017645
23.309227 -74.348724 -19.263735
23.419891 -77.0495 -22.028513
23.147339 -74.629135 -21.235176
22.841238 -71.91671 -20.420378
22.410927 -69.385307 -21.413363
21.974867 -66.4216 -22.380699
21.573425 -63.47839 -23.282867
21.061031 -62.961296 -24.969612
20.347925 -62.205681 -26.755219
19.522537 -61.241806 -28.390268
20.096495 -66.996529 -28.57312
19.375645 -63.795258 -29.241579
18.563292 -60.185192 -29.968857
17.342272 -58.575344 -31.637726
23.744007 -98.67025 -24.539373
23.402798 -96.584869 -26.133774
23.055128 -94.144424 -27.335508
20.121916 -95.193756 -31.021931
21.447741 -93.571518 -29.784519
22.427111 -91.565109 -28.615395
21.87327 -88.848869 -29.47452
21.110649 -85.871101 -30.406586
20.326231 -82.730484 -31.202255
19.187117 -104.179829 -4.942602
20.088173 -103.702401 -4.347198
18.904711 -104.84441 -6.487246
19.187117 -104.179829 -4.942602
20.987572 -47.459673 -24.830124
21.426414 -47.813015 -24.000829
21.078659 -48.989992 -24.478965
20.486186 -46.997734 -25.656621
20.987572 -47.459673 -24.830124
20.102735 -48.008484 -26.191635
20.486186 -46.997734 -25.656621
24.099894 -65.446872 -5.423094
23.931787 -65.020424 -6.252052
18.203726 -88.908146 -33.681993
18.457818 -90.360024 -33.358965
18.859081 -88.103798 -33.09935
18.203726 -88.908146 -33.681993
14.230742 -45.858423 -34.14609
14.487844 -44.822193 -33.703728
14.905518 -46.588274 -33.379637
26.910497 -85.868424 -1.481515
26.87139 -85.050488 -0.236297
26.987799 -86.378246 -0.480083
27.123638 -92.243404 -3.886704
27.164048 -90.94619 -3.571201
27.099277 -91.376567 -2.440179
27.042988 -93.547451 -4.183205
27.107758 -93.117073 -5.314228
27.123638 -92.243404 -3.886704
22.036088 -103.971142 -7.551011
22.295998 -103.271717 -5.959008
21.427865 -104.000763 -6.553051
19.52853 -72.827263 -30.903963
20.159588 -73.498474 -30.035208
19.924477 -74.491707 -30.576051
19.068051 -71.045086 -31.253675
19.52853 -72.827263 -30.903963
15.702892 -104.261867 -29.317646
16.622358 -104.702336 -28.11777
9.847563 -96.159142 -37.159092
11.080482 -95.955048 -36.800247
11.136256 -97.238487 -36.285553
17.508686 -49.577618 -30.200599
18.078323 -50.172477 -29.40867
17.827807 -51.255104 -29.861674
16.865831 -48.836556 -31.017667
17.508686 -49.577618 -30.200599
16.624977 -49.895994 -31.44596
16.232639 -48.072305 -31.810023
16.865831 -48.836556 -31.017667
15.697426 -53.975172 -33.243424
15.283839 -52.219791 -33.569756
15.964984 -52.97085 -32.760655
24.093672 -69.113426 -5.530888
24.056719 -67.92321 -5.518721
26.298316 -80.562455 -1.05926
26.469269 -80.931984 0.114376
25.724552 -79.150757 -4.246601
25.919794 -79.603814 -3.21172
25.919571 -80.393417 -4.340582
25.490398 -78.612049 -5.256827
25.49062 -77.822445 -4.127965
25.724552 -79.150757 -4.246601
26.401487 -97.244633 -5.387945
26.685166 -96.015137 -4.872039
24.767035 -100.741371 -5.604523
24.923513 -99.916264 -4.023199
24.390753 -100.877797 -4.581581
16.163432 -107.493911 -21.864213
16.583389 -107.182552 -22.845772
17.357428 -107.256801 -21.428178
13.612435 -107.721802 -22.639429
13.140165 -107.872002 -21.62566
13.510469 -106.718914 -11.456765
14.001599 -106.298755 -9.943417
12.934389 -107.046394 -12.911031
14.122717 -107.061993 -12.542044
13.510469 -106.718914 -11.456765
10.243457 -107.278759 -16.068393
9.664502 -106.918362 -14.916052
8.970655 -107.004303 -16.230185
8.65937 -107.386486 -21.201094
7.227593 -107.02628 -21.392623
24.858359 -59.675907 -5.251005
25.112153 -58.49673 -5.282941
23.879691 -61.999489 -7.686404
24.171093 -61.223762 -6.905387
24.004807 -62.345753 -6.92836
26.573588 -50.069131 -9.308733
26.385875 -49.856763 -10.263124
25.940769 -52.968099 -8.271903
26.100043 -53.142998 -7.349396
25.429087 -54.072748 -9.042959
25.795298 -52.775241 -9.143771
25.940769 -52.968099 -8.271903
20.307195 -85.296436 -31.386366
20.734554 -86.896244 -30.943708
19.9311 -86.321579 -31.923488
19.914986 -83.726128 -31.784201
20.71844 -84.300793 -30.80442
20.307195 -85.296436 -31.386366
13.95545 -46.861891 -34.600052
14.402484 -48.64788 -34.258392
27.045564 -87.762123 -0.660503
26.987799 -86.378246 -0.480083
27.101956 -89.203709 -0.86019
27.083296 -88.637767 -1.924989
27.045564 -87.762123 -0.660503
27.070943 -90.539089 -1.020098
27.101956 -89.203709 -0.86019
27.099277 -91.376567 -2.440179
27.070943 -90.539089 -1.020098
20.804985 -103.857452 -5.443834
20.088173 -103.702401 -4.347198
20.545075 -104.556877 -7.035837
21.427865 -104.000763 -6.553051
20.804985 -103.857452 -5.443834
18.587117 -105.508804 -8.152928
19.604601 -105.077961 -7.592302
18.904711 -104.84441 -6.487246
17.457749 -105.850055 -8.625457
18.157639 -106.083607 -9.730513
18.587117 -105.508804 -8.152928
19.74013 -75.627858 -31.082074
19.924477 -74.491707 -30.576051
20.371188 -76.299069 -30.213319
14.327567 -94.865632 -35.630639
13.342876 -95.346463 -36.009438
25.505228 -50.496266 -12.753773
25.854096 -49.08778 -12.924572
26.029261 -49.38361 -12.033513
13.513009 -103.112091 -31.672533
14.629418 -103.720112 -30.531417
13.469776 -103.979946 -30.787391
24.537748 -47.785705 -17.521135
24.835478 -48.121934 -16.624131
24.266248 -47.352093 -18.41039
24.537748 -47.785705 -17.521135
24.026204 -48.976974 -18.185789
23.89598 -47.006743 -19.344836
24.266248 -47.352093 -18.41039
21.882133 -48.243433 -23.135814
22.268365 -48.692629 -22.263346
21.903734 -49.79253 -22.777202
21.882133 -48.243433 -23.135814
21.426414 -47.813015 -24.000829
23.758089 -64.601304 -7.067385
23.612341 -64.244425 -7.820447
23.859154 -63.478358 -6.956315
23.684973 -65.786492 -7.116183
23.758089 -64.601304 -7.067385
23.931787 -65.020424 -6.252052
24.277795 -71.580616 -5.666175
24.182344 -70.3447 -5.583331
24.419827 -70.865814 -4.671721
12.665499 -107.920749 -20.507951
13.140165 -107.872002 -21.62566
13.901525 -107.944111 -20.131114
8.270793 -107.045009 -17.614008
8.970655 -107.004303 -16.230185
7.55693 -106.999821 -18.985108
8.835746 -107.319512 -18.753625
8.270793 -107.045009 -17.614008
6.750964 -106.852531 -20.226517
7.55693 -106.999821 -18.985108
7.227593 -107.02628 -21.392623
6.750964 -106.852531 -20.226517
23.859154 -63.478358 -6.956315
24.004807 -62.345753 -6.92836
25.755007 -54.377702 -7.23172
26.100043 -53.142998 -7.349396
25.480432 -55.507294 -7.039803
25.299983 -55.395197 -7.979173
25.755007 -54.377702 -7.23172
25.134618 -56.825138 -6.96206
25.480432 -55.507294 -7.039803
24.868541 -57.930414 -6.903292
24.759331 -57.630064 -7.728486
25.134618 -56.825138 -6.96206
18.966262 -67.075913 -30.685014
19.535489 -67.68195 -29.852621
19.363619 -68.745571 -30.346446
18.548833 -65.302838 -30.984537
18.966262 -67.075913 -30.685014
18.105402 -63.497471 -31.349098
18.694701 -64.206924 -30.55575
18.548833 -65.302838 -30.984537
17.612777 -61.652057 -31.737702
18.105402 -63.497471 -31.349098
18.72935 -91.834694 -32.949652
18.921009 -93.265614 -32.569358
17.952182 -92.567997 -33.565579
19.426645 -91.05764 -32.362744
18.72935 -91.834694 -32.949652
18.457818 -90.360024 -33.358965
19.460754 -87.273007 -32.453736
19.756786 -88.752178 -32.126443
18.859081 -88.103798 -33.09935
19.9311 -86.321579 -31.923488
19.460754 -87.273007 -32.453736
14.784542 -43.856909 -33.251841
15.484231 -44.643185 -32.460021
14.784542 -43.856909 -33.251841
14.487844 -44.822193 -33.703728
14.230742 -45.858423 -34.14609
13.95545 -46.861891 -34.600052
17.350794 -105.71825 -25.888562
17.152093 -106.265171 -24.972323
12.118441 -104.110839 -31.13326
13.469776 -103.979946 -30.787391
10.962885 -103.394142 -32.207558
12.118441 -104.110839 -31.13326
9.649472 -102.56136 -33.282539
11.039953 -102.539142 -33.003487
10.962885 -103.394142 -32.207558
24.639469 -71.305774 -3.778143
24.419827 -70.865814 -4.671721
24.760814 -72.496143 -3.711683
24.639469 -71.305774 -3.778143
24.926888 -73.720516 -3.721767
24.681351 -73.326103 -4.764649
24.760814 -72.496143 -3.711683
26.604482 -82.320236 0.036159
26.469269 -80.931984 0.114376
26.762097 -83.643403 -0.0431
26.87139 -85.050488 -0.236297
26.636474 -83.217499 -1.15847
26.604482 -82.320236 0.036159
26.762097 -83.643403 -0.0431
23.760154 -101.71698 -4.977358
24.390753 -100.877797 -4.581581
23.095126 -102.486576 -5.374389
22.295998 -103.271717 -5.959008
23.569249 -102.4725 -6.559936
23.760154 -101.71698 -4.977358
23.095126 -102.486576 -5.374389
19.279016 -69.986782 -30.77098
19.363619 -68.745571 -30.346446
19.848244 -70.592819 -29.938587
19.279016 -69.986782 -30.77098
19.068051 -71.045086 -31.253675
15.254449 -94.325325 -35.2034
15.506588 -95.734139 -34.675041
14.327567 -94.865632 -35.630639
16.278105 -93.868568 -34.640503
15.254449 -94.325325 -35.2034
17.133291 -93.271111 -34.109244
17.288655 -94.596374 -33.716544
16.278105 -93.868568 -34.640503
17.952182 -92.567997 -33.565579
17.133291 -93.271111 -34.109244
25.617943 -48.782263 -13.897396
25.854096 -49.08778 -12.924572
25.35492 -48.657976 -14.829531
25.617943 -48.782263 -13.897396
25.067039 -50.076149 -14.576967
25.088634 -48.392572 -15.730415
25.35492 -48.657976 -14.829531
24.55086 -49.681224 -16.402819
24.835478 -48.121934 -16.624131
25.088634 -48.392572 -15.730415
17.524209 -105.070256 -26.840739
18.449886 -105.319603 -25.482778
17.350794 -105.71825 -25.888562
17.721451 -104.303688 -27.711987
17.524209 -105.070256 -26.840739
16.622358 -104.702336 -28.11777
15.746126 -103.394013 -30.202788
15.702892 -104.261867 -29.317646
14.629418 -103.720112 -30.531417
12.237611 -95.726437 -36.421651
13.342876 -95.346463 -36.009438
13.474439 -96.654419 -35.514494
12.237611 -95.726437 -36.421651
11.080482 -95.955048 -36.800247
8.443043 -101.628986 -34.255262
9.649472 -102.56136 -33.282539
8.52675 -100.661049 -35.005261
8.443043 -101.628986 -34.255262
8.616298 -99.696331 -35.670647
9.816088 -100.741642 -34.743854
8.52675 -100.661049 -35.005261
8.678604 -98.607155 -36.294557
8.616298 -99.696331 -35.670647
8.677455 -97.439984 -36.912136
9.904487 -98.609752 -36.02682
8.678604 -98.607155 -36.294557
8.665786 -96.262001 -37.437859
8.677455 -97.439984 -36.912136
9.847563 -96.159142 -37.159092
8.665786 -96.262001 -37.437859
23.557938 -46.603544 -20.234348
23.89598 -47.006743 -19.344836
23.416662 -48.140163 -19.964555
22.662691 -47.440248 -21.738012
22.684293 -48.989345 -21.379401
22.268365 -48.692629 -22.263346
23.116021 -46.25901 -21.180717
22.662691 -47.440248 -21.738012
23.557938 -46.603544 -20.234348
23.116021 -46.25901 -21.180717
19.776311 -49.095686 -26.728617
20.102735 -48.008484 -26.191635
20.313392 -49.723852 -25.845242
19.235862 -48.510355 -27.601305
19.776311 -49.095686 -26.728617
19.44652 -50.225723 -27.254912
18.621816 -47.978679 -28.481276
19.235862 -48.510355 -27.601305
18.332637 -49.067691 -28.937598
18.651758 -50.745178 -28.598672
18.078323 -50.172477 -29.40867
18.621816 -47.978679 -28.481276
18.332637 -49.067691 -28.937598
15.818056 -46.282455 -32.159503
15.484231 -44.643185 -32.460021
15.577203 -47.341894 -32.587795
15.818056 -46.282455 -32.159503
16.232639 -48.072305 -31.810023
14.853974 -50.443363 -33.890887
14.402484 -48.64788 -34.258392
15.099907 -49.419987 -33.454493
14.853974 -50.443363 -33.890887
15.283839 -52.219791 -33.569756
24.054571 -66.727539 -5.432695
24.099894 -65.446872 -5.423094
23.860819 -67.401283 -6.386876
24.054571 -66.727539 -5.432695
24.056719 -67.92321 -5.518721
23.95164 -69.828228 -6.525343
24.093672 -69.113426 -5.530888
24.182344 -70.3447 -5.583331
25.0873 -75.105404 -3.839083
24.926888 -73.720516 -3.721767
26.116293 -80.038525 -2.172505
26.298316 -80.562455 -1.05926
26.296836 -81.370404 -2.192455
26.116293 -80.038525 -2.172505
25.919794 -79.603814 -3.21172
25.291821 -76.472035 -4.020811
25.49062 -77.822445 -4.127965
25.051946 -75.917107 -4.956461
25.0873 -75.105404 -3.839083
25.291821 -76.472035 -4.020811
26.880161 -94.78846 -4.446583
27.042988 -93.547451 -4.183205
26.832114 -95.647797 -6.036185
26.880161 -94.78846 -4.446583
26.685166 -96.015137 -4.872039
25.418245 -98.879963 -3.490367
24.923513 -99.916264 -4.023199
25.732825 -98.697316 -4.680196
25.418245 -98.879963 -3.490367
26.065774 -98.395363 -5.746733
25.732825 -98.697316 -4.680196
25.632744 -99.477886 -6.112678
26.301406 -98.025204 -6.820427
26.401487 -97.244633 -5.387945
26.065774 -98.395363 -5.746733
16.90255 -106.754093 -23.911891
17.152093 -106.265171 -24.972323
18.026929 -106.45652 -23.470168
16.90255 -106.754093 -23.911891
16.583389 -107.182552 -22.845772
14.882791 -107.657512 -22.265315
16.163432 -107.493911 -21.864213
15.65683 -107.731762 -20.847721
14.882791 -107.657512 -22.265315
13.612435 -107.721802 -22.639429
16.349552 -106.111553 -9.163024
17.457749 -105.850055 -8.625457
15.184815 -106.26638 -9.605392
14.001599 -106.298755 -9.943417
15.863534 -106.579685 -10.64541
16.349552 -106.111553 -9.163024
15.184815 -106.26638 -9.605392
10.350492 -106.765991 -13.595816
9.664502 -106.918362 -14.916052
11.629723 -106.948067 -13.290007
10.350492 -106.765991 -13.595816
12.241971 -107.291145 -14.375286
12.934389 -107.046394 -12.911031
11.629723 -106.948067 -13.290007
11.362698 -107.823689 -20.842678
12.665499 -107.920749 -20.507951
12.124059 -107.895798 -19.348132
10.009056 -107.648694 -20.980162
9.47157 -107.53653 -19.903792
8.65937 -107.386486 -21.201094
11.362698 -107.823689 -20.842678
10.009056 -107.648694 -20.980162
24.980752 -58.257961 -6.111097
25.112153 -58.49673 -5.282941
24.605465 -59.062887 -6.877523
24.868541 -57.930414 -6.903292
24.980752 -58.257961 -6.111097
24.506943 -60.48023 -6.116335
24.858359 -59.675907 -5.251005
24.381827 -60.133966 -6.874379
24.506943 -60.48023 -6.116335
24.171093 -61.223762 -6.905387
26.231708 -49.611572 -11.120171
26.029261 -49.38361 -12.033513
25.834559 -51.037287 -11.005665
26.231708 -49.611572 -11.120171
26.385875 -49.856763 -10.263124
26.147853 -51.476535 -9.260666
26.573588 -50.069131 -9.308733
25.63617 -52.581184 -10.031723
26.147853 -51.476535 -9.260666
25.795298 -52.775241 -9.143771
17.158279 -59.738951 -32.096409
17.796771 -60.488451 -31.279018
17.612777 -61.652057 -31.737702
16.665751 -57.83514 -32.474079
17.158279 -59.738951 -32.096409
16.183901 -55.910584 -32.872377
16.860422 -56.650787 -32.036024
16.665751 -57.83514 -32.474079
15.697426 -53.975172 -33.243424
16.183901 -55.910584 -32.872377
19.525514 -82.037369 -32.114323
19.914986 -83.726128 -31.784201
19.99138 -81.137508 -31.473904
19.525514 -82.037369 -32.114323
20.346435 -80.102089 -30.832021
20.681287 -81.695065 -30.560372
19.99138 -81.137508 -31.473904
19.921685 -78.489876 -31.232448
20.611593 -79.047432 -30.318915
20.346435 -80.102089 -30.832021
19.415484 -76.693493 -31.658496
19.921685 -78.489876 -31.232448
19.74013 -75.627858 -31.082074
19.415484 -76.693493 -31.658496
3 0 96 94
3 1 99 97
3 2 102 100
3 2 104 102
3 370 106 371
3 373 372 106
3 3 110 108
3 4 113 111
3 4 115 113
3 5 118 116
3 7 121 119
3 7 123 121
3 8 126 124
3 10 129 127
3 10 131 129
3 11 134 132
3 13 137 135
3 13 139 137
3 6 141 140
3 14 374 376
3 376 375 142
3 374 375 376
3 14 377 378
3 14 379 380
3 15 145 143
3 15 147 145
3 381 149 382
3 17 152 150
3 17 154 152
3 18 157 155
3 18 159 157
3 18 161 159
3 19 164 162
3 19 166 164
3 20 169 167
3 20 171 169
3 20 173 171
3 21 176 174
3 21 178 176
3 16 183 181
3 22 186 184
3 22 188 186
3 9 191 189
3 23 194 192
3 23 196 194
3 23 198 196
3 12 202 200
3 383 204 384
3 386 385 204
3 24 208 206
3 26 209 95
3 26 210 209
3 27 213 211
3 29 214 98
3 29 215 214
3 30 387 389
3 389 388 216
3 387 388 389
3 31 219 217
3 33 220 101
3 33 221 220
3 33 223 221
3 35 224 103
3 35 225 224
3 37 390 392
3 390 226 391
3 390 391 392
3 37 227 226
3 37 229 227
3 393 230 394
3 395 394 105
3 393 394 395
3 396 231 397
3 398 397 230
3 396 397 398
3 40 399 401
3 399 232 400
3 399 400 401
3 40 233 232
3 40 235 233
3 42 236 107
3 42 237 236
3 43 240 238
3 45 241 109
3 45 242 241
3 46 245 243
3 48 246 112
3 48 247 246
3 48 249 247
3 402 250 403
3 404 403 114
3 402 403 404
3 406 405 250
3 50 253 251
3 52 254 117
3 52 255 254
3 25 256 207
3 53 257 120
3 53 258 257
3 53 259 258
3 54 260 122
3 54 261 260
3 55 264 262
3 57 265 125
3 57 266 265
3 28 267 212
3 58 268 128
3 58 269 268
3 58 270 269
3 59 271 130
3 59 272 271
3 60 275 273
3 62 276 133
3 62 277 276
3 407 278 408
3 63 279 136
3 63 280 279
3 63 281 280
3 64 282 138
3 64 409 411
3 411 410 282
3 409 410 411
3 32 283 218
3 34 284 222
3 65 412 414
3 414 413 144
3 412 413 414
3 65 415 416
3 65 417 419
3 417 285 418
3 417 418 419
3 66 286 146
3 66 420 422
3 422 421 286
3 420 421 422
3 67 289 287
3 69 290 148
3 69 291 290
3 423 292 424
3 70 293 151
3 70 294 293
3 70 295 294
3 71 296 153
3 71 297 296
3 36 425 426
3 72 427 429
3 429 428 156
3 427 428 429
3 72 430 432
3 430 298 431
3 430 431 432
3 72 299 298
3 73 300 158
3 73 301 300
3 73 302 301
3 74 303 160
3 74 304 303
3 38 305 228
3 75 306 163
3 75 307 306
3 75 308 307
3 76 309 165
3 76 310 309
3 433 311 434
3 39 435 437
3 435 312 436
3 435 436 437
3 77 313 168
3 77 314 313
3 77 315 314
3 78 316 170
3 78 317 316
3 78 318 317
3 79 319 172
3 79 320 319
3 41 321 234
3 80 322 175
3 80 323 322
3 80 438 440
3 440 439 323
3 438 439 440
3 442 441 177
3 443 324 444
3 445 325 446
3 447 446 324
3 445 446 447
3 81 448 450
3 448 326 449
3 448 449 450
3 81 327 326
3 81 328 327
3 452 451 179
3 453 329 454
3 67 455 457
3 455 330 456
3 455 456 457
3 67 287 330
3 458 332 459
3 83 460 461
3 83 462 464
3 462 333 463
3 462 463 464
3 83 334 333
3 82 335 180
3 82 331 335
3 68 336 288
3 84 337 182
3 84 338 337
3 44 339 239
3 85 340 185
3 85 341 340
3 85 342 341
3 86 343 187
3 86 344 343
3 56 345 263
3 87 346 190
3 87 347 346
3 47 348 244
3 88 349 193
3 88 350 349
3 88 351 350
3 89 352 195
3 89 353 352
3 89 354 353
3 90 355 197
3 90 356 355
3 49 357 248
3 91 358 199
3 91 359 358
3 91 360 359
3 61 361 274
3 92 362 201
3 92 363 362
3 51 364 252
3 93 365 203
3 93 366 365
3 93 367 366
3 465 368 466
3 467 466 205
3 465 466 467
3 468 369 469
3 470 469 368
3 468 469 470
3 94 95 24
3 96 95 94
3 96 26 95
3 97 98 27
3 99 98 97
3 99 29 98
3 472 471 30
3 100 101 31
3 102 101 100
3 102 33 101
3 102 103 33
3 104 103 102
3 104 35 103
3 473 37 474
3 475 105 476
3 477 476 37
3 475 476 477
3 478 105 479
3 481 480 105
3 106 482 483
3 106 484 486
3 484 40 485
3 484 485 486
3 106 107 40
3 487 107 488
3 489 488 106
3 487 488 489
3 490 42 491
3 492 491 107
3 490 491 492
3 108 109 43
3 110 109 108
3 110 45 109
3 111 112 46
3 113 112 111
3 113 48 112
3 113 114 48
3 115 114 113
3 115 493 495
3 495 494 114
3 493 494 495
3 497 496 50
3 116 498 500
3 498 117 499
3 498 499 500
3 118 117 116
3 118 52 117
3 119 120 25
3 121 120 119
3 121 53 120
3 121 122 53
3 123 122 121
3 123 54 122
3 124 125 55
3 126 125 124
3 126 57 125
3 127 128 28
3 129 128 127
3 129 58 128
3 129 130 58
3 131 130 129
3 131 59 130
3 132 133 60
3 134 133 132
3 134 62 133
3 135 501 503
3 501 136 502
3 501 502 503
3 137 136 135
3 137 63 136
3 137 138 63
3 139 138 137
3 139 64 138
3 140 504 505
3 141 506 508
3 508 507 140
3 506 507 508
3 141 509 510
3 142 511 513
3 513 512 32
3 511 512 513
3 515 514 142
3 143 144 34
3 145 144 143
3 145 65 144
3 145 146 65
3 147 146 145
3 147 66 146
3 516 148 517
3 518 517 67
3 516 517 518
3 149 519 521
3 519 148 520
3 519 520 521
3 149 69 148
3 150 522 524
3 522 151 523
3 522 523 524
3 152 151 150
3 152 70 151
3 152 153 70
3 154 153 152
3 154 71 153
3 155 156 36
3 157 156 155
3 157 72 156
3 157 158 72
3 159 158 157
3 159 73 158
3 159 160 73
3 161 160 159
3 161 74 160
3 162 163 38
3 164 163 162
3 164 75 163
3 164 165 75
3 166 165 164
3 166 76 165
3 167 168 39
3 169 168 167
3 169 77 168
3 169 170 77
3 171 170 169
3 171 78 170
3 171 172 78
3 173 172 171
3 173 79 172
3 174 175 41
3 176 175 174
3 176 80 175
3 176 177 80
3 178 177 176
3 178 525 527
3 527 526 177
3 525 526 527
3 528 81 529
3 530 179 531
3 532 531 81
3 530 531 532
3 533 179 534
3 536 535 179
3 537 67 538
3 539 83 540
3 541 180 542
3 543 542 83
3 541 542 543
3 544 180 545
3 546 82 547
3 548 547 180
3 546 547 548
3 181 182 68
3 183 182 181
3 183 84 182
3 184 185 44
3 186 185 184
3 186 85 185
3 186 187 85
3 188 187 186
3 188 86 187
3 189 190 56
3 191 190 189
3 191 87 190
3 192 193 47
3 194 193 192
3 194 88 193
3 194 195 88
3 196 195 194
3 196 89 195
3 196 197 89
3 198 197 196
3 198 90 197
3 549 199 550
3 551 550 49
3 549 550 551
3 552 199 553
3 554 91 555
3 556 555 199
3 554 555 556
3 558 557 91
3 200 201 61
3 202 201 200
3 202 92 201
3 559 203 560
3 561 560 51
3 559 560 561
3 204 562 564
3 562 203 563
3 562 563 564
3 204 93 203
3 204 205 93
3 565 205 566
3 567 566 204
3 565 566 567
3 569 568 205
3 206 207 5
3 208 207 206
3 208 25 207
3 95 208 24
3 209 208 95
3 209 25 208
3 209 119 25
3 210 119 209
3 210 7 119
3 211 212 8
3 213 212 211
3 213 28 212
3 98 213 27
3 214 213 98
3 214 28 213
3 214 127 28
3 215 127 214
3 215 10 127
3 216 570 571
3 573 572 216
3 575 574 30
3 577 576 11
3 578 135 579
3 580 135 581
3 582 13 583
3 584 583 135
3 582 583 584
3 217 218 6
3 219 218 217
3 219 32 218
3 101 219 31
3 220 219 101
3 220 32 219
3 220 142 32
3 221 142 220
3 221 14 142
3 221 222 14
3 223 222 221
3 223 34 222
3 103 223 33
3 224 223 103
3 224 34 223
3 224 143 34
3 225 143 224
3 225 15 143
3 585 150 586
3 587 150 588
3 589 17 590
3 591 590 150
3 589 590 591
3 592 36 593
3 226 594 595
3 226 596 598
3 596 36 597
3 596 597 598
3 226 155 36
3 227 155 226
3 227 18 155
3 227 228 18
3 229 228 227
3 229 38 228
3 105 229 37
3 230 229 105
3 230 38 229
3 230 162 38
3 231 162 230
3 231 19 162
3 599 39 600
3 232 601 602
3 232 603 605
3 603 39 604
3 603 604 605
3 232 167 39
3 233 167 232
3 233 20 167
3 233 234 20
3 235 234 233
3 235 41 234
3 107 235 40
3 236 235 107
3 236 41 235
3 236 174 41
3 237 174 236
3 237 21 174
3 238 239 16
3 240 239 238
3 240 44 239
3 109 240 43
3 241 240 109
3 241 44 240
3 241 184 44
3 242 184 241
3 242 22 184
3 243 244 9
3 245 244 243
3 245 47 244
3 112 245 46
3 246 245 112
3 246 47 245
3 246 192 47
3 247 192 246
3 247 23 192
3 247 248 23
3 249 248 247
3 249 49 248
3 114 249 48
3 250 249 114
3 250 49 249
3 250 606 608
3 608 607 49
3 606 607 608
3 610 609 250
3 251 252 12
3 253 252 251
3 253 51 252
3 611 253 612
3 613 612 50
3 611 612 613
3 614 253 615
3 616 51 617
3 618 617 253
3 616 617 618
3 620 619 51
3 117 621 622
3 254 623 625
3 625 624 117
3 623 624 625
3 254 626 627
3 254 628 630
3 628 140 629
3 628 629 630
3 255 140 254
3 255 6 140
3 207 118 5
3 256 118 207
3 256 52 118
3 120 256 25
3 257 256 120
3 257 52 256
3 257 255 52
3 258 255 257
3 258 6 255
3 258 217 6
3 259 217 258
3 259 31 217
3 122 259 53
3 260 259 122
3 260 31 259
3 260 100 31
3 261 100 260
3 261 2 100
3 262 263 3
3 264 263 262
3 264 56 263
3 125 264 55
3 265 264 125
3 265 56 264
3 265 189 56
3 266 189 265
3 266 9 189
3 212 126 8
3 267 126 212
3 267 57 126
3 128 267 28
3 268 267 128
3 268 57 267
3 268 266 57
3 269 266 268
3 269 9 266
3 269 243 9
3 270 243 269
3 270 46 243
3 130 270 58
3 271 270 130
3 271 46 270
3 271 111 46
3 272 111 271
3 272 4 111
3 273 274 1
3 275 274 273
3 275 61 274
3 133 275 60
3 276 275 133
3 276 61 275
3 276 200 61
3 277 200 276
3 277 12 200
3 631 134 632
3 633 632 11
3 631 632 633
3 278 634 636
3 634 134 635
3 634 635 636
3 278 62 134
3 136 637 639
3 637 278 638
3 637 638 639
3 279 278 136
3 279 62 278
3 279 277 62
3 280 277 279
3 280 12 277
3 280 251 12
3 281 251 280
3 281 50 251
3 138 281 63
3 282 281 138
3 282 50 281
3 282 640 642
3 642 641 50
3 640 641 642
3 644 643 282
3 645 13 646
3 647 13 648
3 649 139 650
3 651 650 13
3 649 650 651
3 652 139 653
3 654 64 655
3 656 655 139
3 654 655 656
3 657 64 658
3 660 659 64
3 218 141 6
3 283 141 218
3 283 661 663
3 663 662 141
3 661 662 663
3 664 283 665
3 666 665 32
3 664 665 666
3 667 283 668
3 670 669 283
3 222 671 673
3 673 672 14
3 671 672 673
3 284 674 676
3 676 675 222
3 674 675 676
3 284 677 678
3 144 284 34
3 679 284 680
3 681 680 144
3 679 680 681
3 683 682 284
3 684 216 685
3 285 686 688
3 686 216 687
3 686 687 688
3 285 30 216
3 146 285 65
3 286 285 146
3 286 30 285
3 286 689 691
3 691 690 30
3 689 690 691
3 693 692 286
3 287 288 0
3 289 288 287
3 289 68 288
3 148 289 67
3 290 289 148
3 290 68 289
3 290 181 68
3 291 181 290
3 291 16 181
3 694 149 695
3 292 696 698
3 696 149 697
3 696 697 698
3 292 69 149
3 151 699 701
3 699 292 700
3 699 700 701
3 293 292 151
3 293 69 292
3 293 291 69
3 294 291 293
3 294 16 291
3 294 238 16
3 295 238 294
3 295 43 238
3 153 295 70
3 296 295 153
3 296 43 295
3 296 108 43
3 297 108 296
3 297 3 108
3 702 17 703
3 156 704 706
3 706 705 36
3 704 705 706
3 708 707 156
3 298 709 710
3 298 711 713
3 711 17 712
3 711 712 713
3 298 154 17
3 299 154 298
3 299 71 154
3 158 299 72
3 300 299 158
3 300 71 299
3 300 297 71
3 301 297 300
3 301 3 297
3 301 262 3
3 302 262 301
3 302 55 262
3 160 302 73
3 303 302 160
3 303 55 302
3 303 124 55
3 304 124 303
3 304 8 124
3 228 161 18
3 305 161 228
3 305 74 161
3 163 305 38
3 306 305 163
3 306 74 305
3 306 304 74
3 307 304 306
3 307 8 304
3 307 211 8
3 308 211 307
3 308 27 211
3 165 308 75
3 309 308 165
3 309 27 308
3 309 97 27
3 310 97 309
3 310 1 97
3 714 231 715
3 311 716 718
3 716 231 717
3 716 717 718
3 311 19 231
3 312 719 720
3 312 721 722
3 168 312 39
3 313 312 168
3 313 723 725
3 725 724 312
3 723 724 725
3 313 726 728
3 726 311 727
3 726 727 728
3 314 311 313
3 314 19 311
3 314 166 19
3 315 166 314
3 315 76 166
3 170 315 77
3 316 315 170
3 316 76 315
3 316 310 76
3 317 310 316
3 317 1 310
3 317 273 1
3 318 273 317
3 318 60 273
3 172 318 78
3 319 318 172
3 319 60 318
3 319 132 60
3 320 132 319
3 320 11 132
3 234 173 20
3 321 173 234
3 321 79 173
3 175 321 41
3 322 321 175
3 322 79 321
3 322 320 79
3 323 320 322
3 323 11 320
3 323 729 731
3 731 730 11
3 729 730 731
3 733 732 323
3 177 734 736
3 736 735 80
3 734 735 736
3 738 737 177
3 739 42 740
3 324 741 742
3 324 743 745
3 743 42 744
3 743 744 745
3 324 237 42
3 325 237 324
3 325 21 237
3 326 746 747
3 326 748 749
3 326 750 752
3 750 325 751
3 750 751 752
3 327 325 326
3 327 21 325
3 327 178 21
3 328 178 327
3 328 753 755
3 755 754 178
3 753 754 755
3 179 328 81
3 756 328 757
3 758 757 179
3 756 757 758
3 760 759 328
3 329 761 762
3 329 763 765
3 763 82 764
3 763 764 765
3 766 329 767
3 330 768 770
3 768 329 769
3 768 769 770
3 330 82 329
3 330 331 82
3 287 331 330
3 287 0 331
3 771 116 772
3 332 773 775
3 773 116 774
3 773 774 775
3 332 5 116
3 776 332 777
3 333 778 780
3 778 332 779
3 778 779 780
3 333 5 332
3 333 206 5
3 334 206 333
3 334 24 206
3 180 334 83
3 335 334 180
3 335 24 334
3 335 94 24
3 331 94 335
3 331 0 94
3 288 96 0
3 336 96 288
3 336 26 96
3 182 336 68
3 337 336 182
3 337 26 336
3 337 210 26
3 338 210 337
3 338 7 210
3 239 183 16
3 339 183 239
3 339 84 183
3 185 339 44
3 340 339 185
3 340 84 339
3 340 338 84
3 341 338 340
3 341 7 338
3 341 123 7
3 342 123 341
3 342 54 123
3 187 342 85
3 343 342 187
3 343 54 342
3 343 261 54
3 344 261 343
3 344 2 261
3 263 110 3
3 345 110 263
3 345 45 110
3 190 345 56
3 346 345 190
3 346 45 345
3 346 242 45
3 347 242 346
3 347 22 242
3 244 191 9
3 348 191 244
3 348 87 191
3 193 348 47
3 349 348 193
3 349 87 348
3 349 347 87
3 350 347 349
3 350 22 347
3 350 188 22
3 351 188 350
3 351 86 188
3 195 351 88
3 352 351 195
3 352 86 351
3 352 344 86
3 353 344 352
3 353 2 344
3 353 104 2
3 354 104 353
3 354 35 104
3 197 354 89
3 355 354 197
3 355 35 354
3 355 225 35
3 356 225 355
3 356 15 225
3 248 198 23
3 357 198 248
3 357 90 198
3 199 357 49
3 358 357 199
3 358 90 357
3 358 356 90
3 359 356 358
3 359 15 356
3 359 147 15
3 360 147 359
3 360 66 147
3 781 360 782
3 783 782 91
3 781 782 783
3 784 360 785
3 786 66 787
3 788 787 360
3 786 787 788
3 790 789 66
3 274 99 1
3 361 99 274
3 361 29 99
3 201 361 61
3 362 361 201
3 362 29 361
3 362 215 29
3 363 215 362
3 363 10 215
3 252 202 12
3 364 202 252
3 364 92 202
3 203 364 51
3 365 364 203
3 365 92 364
3 365 363 92
3 366 363 365
3 366 10 363
3 366 131 10
3 367 131 366
3 367 59 131
3 205 367 93
3 368 367 205
3 368 59 367
3 368 272 59
3 369 272 368
3 369 4 272
3 791 369 792
3 793 369 794
3 795 4 796
3 797 796 369
3 795 796 797
3 798 115 799
3 800 799 4
3 798 799 800
3 801 115 802
3 804 803 115
