ply
format ascii 1.0
element vertex 580
property float x
property float y
property float z
element face 674
property list uchar int vertex_index
end_header
10.774954 83.594551 6.69945
5.583107 97.017273 -12.214788
-14.250804 107.228745 -12.825541
15.242155 81.890648 0.482383
8.907242 90.159058 -1.360725
14.124074 88.363304 -10.148912
4.764969 88.263931 8.058882
0.553652 97.086395 -1.984386
-10.101385 106.223206 -25.129707
-19.8785 106.40094 -24.944153
-15.78131 102.652748 -36.086388
-21.332802 93.462311 -44.220913
1.058252 101.061424 -23.831718
11.057216 93.048004 -21.014462
-4.306807 103.732971 -13.232364
12.764057 83.148087 3.800973
10.078156 86.597771 3.15851
12.335803 86.393028 -0.782051
8.259385 85.666 7.341908
6.732028 89.677719 3.153274
-7.368177 103.862915 -30.361727
-13.043454 105.180893 -30.8752
-13.638537 99.088394 -40.331062
3.64982 99.410561 -17.989058
6.241457 97.362473 -22.545189
8.46483 95.451172 -16.885666
2.998762 97.405975 -7.049831
-1.788754 100.818565 -7.56439
0.762241 100.637291 -12.829229
-1.705058 102.951408 -18.854324
-18.753176 107.126221 -12.092445
-22.590214 103.598114 -30.169764
7.419984 93.753105 -6.580012
10.009239 93.006241 -11.346598
11.511187 89.686516 -5.955264
14.872993 85.304581 -4.703724
2.676294 92.911423 3.20684
4.842122 93.831238 -1.818658
-12.246848 107.284279 -19.295313
-17.111832 107.651215 -18.909557
-15.270865 107.01149 -25.316885
-17.907278 105.147476 -30.911139
-20.71277 101.779076 -35.843704
-23.249777 96.923592 -40.110111
-18.676067 98.734833 -40.557354
-1.953897 101.583389 -29.390995
8.694981 94.322609 -26.375917
12.87429 90.963318 -15.439209
15.25014 88.220139 -19.0187
-11.49277 105.328522 -6.764976
-6.788849 103.487556 -7.16234
-9.507905 106.035065 -13.050268
-7.143116 105.672546 -19.207327
-4.509726 104.152023 -24.537779
6.779299 83.847816 11.695386
10.006962 81.570091 10.373031
-21.396233 106.527 -18.196274
11.66708 83.432129 5.424038
12.719615 81.597313 6.071642
11.595548 82.09893 7.371646
10.472222 84.971916 5.134821
11.485166 84.947578 3.410675
9.708656 84.534256 6.950962
9.100993 86.337059 5.135484
-6.073048 102.305885 -32.635136
-8.941618 103.16851 -33.155777
4.674606 98.309418 -15.122577
5.993382 97.584122 -17.507332
7.044124 96.33815 -14.565714
4.290121 97.328453 -9.70747
1.853644 99.145378 -9.879713
3.203295 98.869141 -12.464159
2.130537 100.195976 -15.44931
-15.295194 106.829514 -9.582942
-17.462738 106.821983 -9.129094
-16.491907 107.391235 -12.767406
-23.777267 101.570938 -32.816078
16.450239 81.228111 -1.382841
8.244745 91.97261 -3.980394
9.603419 91.773331 -6.496806
10.079292 90.134987 -3.670692
13.80195 84.293747 -0.177402
13.663912 85.767113 -2.57143
15.147151 83.55069 -2.024206
16.382196 82.944954 -4.158832
3.753846 90.633141 5.652465
7.781494 90.131279 0.691451
5.857683 91.675751 0.86914
6.866902 92.090187 -1.626743
6.161147 93.852974 -4.227333
-10.98574 106.855499 -22.183645
-13.617695 107.342049 -22.288857
-12.627364 106.754204 -25.308369
-14.470529 104.100708 -33.549335
-15.539567 105.367554 -30.869761
-16.923794 104.087448 -33.514896
-19.380089 103.700714 -33.331123
-18.270729 102.446083 -36.008266
-19.793867 100.508171 -38.156315
-17.27553 100.8964 -38.37886
-15.01938 97.131622 -42.300606
-0.388195 101.460205 -26.676207
0.957488 99.945847 -28.814053
2.376076 99.737564 -26.163784
8.662881 95.326889 -21.735262
7.672751 95.841316 -24.42885
10.02915 93.727325 -23.644947
12.155835 91.574554 -22.807577
12.114954 90.777603 -10.816217
11.431129 92.135765 -13.470309
13.392971 89.909065 -12.775327
15.890975 87.378578 -16.28112
-0.590106 96.495262 0.902868
-1.822066 98.554924 -1.704334
-3.145847 102.407333 -10.181986
-4.344572 102.232368 -7.27825
-5.602423 103.766838 -10.294111
-8.078795 104.918137 -10.231667
-6.967606 105.026344 -13.177876
-8.282625 105.960846 -16.110426
-5.700906 104.841408 -16.019863
-0.450736 102.217918 -21.361708
-3.158997 103.746643 -21.718027
-1.71022 102.688194 -24.39225
-3.296084 103.022484 -27.115334
8.467397 82.725288 11.003293
-18.592743 107.213753 -22.065153
-19.350254 107.267334 -18.802067
-20.687073 106.62429 -21.447056
-22.311386 95.365593 -42.255848
-24.555365 93.867325 -41.886459
-23.506897 92.304016 -43.93277
14.00708 82.600883 2.116235
15.185398 80.307213 2.894299
13.996528 80.979149 4.451349
9.603834 88.326874 0.925572
10.752177 88.251823 -1.107297
11.190515 86.568924 1.202226
12.709728 84.629532 1.568487
6.636407 87.004822 7.544157
5.626786 89.166649 5.558418
7.483928 87.704926 5.326361
8.512897 88.229614 2.929996
-8.767202 105.202621 -27.80497
-11.428704 105.827972 -28.185436
-10.202994 104.645866 -30.750227
-11.727486 103.776726 -33.437042
-13.297431 102.573509 -35.952209
-14.703261 100.962479 -38.360954
-12.096566 100.834015 -38.044739
2.260232 100.470398 -20.985882
3.755376 99.230537 -23.340868
4.843101 98.598312 -20.452192
7.438644 96.493607 -19.556255
9.819503 94.340294 -18.988575
15.862462 85.96534 -9.413059
15.400556 87.336281 -11.998566
1.631386 97.475784 -4.653481
-0.740985 99.055695 -4.556604
0.597768 99.166367 -7.246492
-0.602256 100.871452 -10.199875
-1.821407 102.277092 -12.926523
-3.173112 103.554344 -16.07494
-0.593562 102.015839 -15.770028
1.018442 101.249886 -18.343803
-21.272257 105.127174 -27.813042
-21.98761 105.520851 -24.582285
6.555377 95.426476 -9.302908
7.926784 94.961082 -11.666227
8.661835 93.535225 -9.004654
10.816807 91.432388 -8.744668
12.816434 89.150276 -8.132473
11.950336 88.029213 -3.223473
13.23511 87.538971 -5.267873
14.606377 86.805374 -7.383995
16.25338 84.375313 -6.726715
1.566431 95.04332 0.765487
4.818071 91.204506 3.264663
3.812587 93.374107 0.737813
2.736655 95.539291 -2.028476
3.865214 95.765678 -4.47852
5.189482 95.708412 -6.94359
-13.340814 107.402908 -16.071182
-15.548182 107.641785 -15.989787
-14.778327 107.648026 -19.307344
-16.147934 107.489075 -22.185415
-17.55088 106.967392 -24.907179
-14.062482 106.258865 -28.092289
-16.556877 106.271347 -28.155016
-18.942123 105.926758 -28.006252
-20.34606 104.578529 -30.620634
-21.644857 102.881653 -33.087387
-22.874008 100.711655 -35.600418
-24.138033 98.190254 -37.751072
-21.983004 99.486519 -38.165245
-20.999273 98.112167 -40.357063
-20.145819 96.195175 -42.522987
-16.212727 99.074623 -40.524075
-17.751139 96.693954 -42.628643
-18.91604 94.121338 -44.429047
5.013209 97.894302 -25.462906
9.251848 94.342728 -14.107973
10.812897 93.189552 -16.179844
11.96735 92.162842 -18.216333
14.799804 88.590851 -14.470092
14.078777 89.745872 -17.321611
13.202599 90.739044 -20.097635
-12.937025 106.465446 -9.790439
-3.010367 100.507744 -4.596641
-5.324234 101.723465 -4.269065
-7.752947 102.951042 -4.164104
-9.120686 104.508347 -7.003357
-10.510173 105.786362 -9.888243
-11.892569 106.761131 -12.921429
-10.89912 106.854927 -16.272644
-9.601955 106.580948 -19.296072
-8.488485 106.081032 -22.373625
-4.453127 104.439682 -18.943151
-5.787967 105.022491 -21.987133
-7.260579 105.316849 -24.831129
-5.951679 104.226471 -27.417257
-4.642682 102.817795 -29.964161
3.883756 87.339317 10.444316
5.075334 84.939316 12.300048
5.847999 86.037994 9.919147
7.506027 84.886627 9.425334
9.105663 83.693428 8.932027
10.38411 82.79409 8.336391
11.282804 80.910957 9.319105
-17.919142 107.53241 -15.599532
-19.981339 107.070564 -15.239723
-22.068998 106.160858 -14.760461
-22.731104 105.55513 -21.274733
-23.286501 105.403076 -17.691072
-25.256083 95.369896 -39.691845
-6.913996 101.92733 -33.914952
-5.442983 101.421841 -33.641711
-24.70036 100.797744 -32.486864
-24.353029 100.381508 -33.989549
15.853248 80.687935 0.8148
16.45729 80.356666 -0.117812
15.846197 81.55938 -0.450229
4.259408 89.448536 6.855673
3.28304 90.208416 6.898156
3.788601 89.023811 8.101364
13.251533 80.553947 6.405954
12.630851 80.828361 7.187594
-11.148714 102.959007 -34.589556
-10.334552 103.472618 -33.296409
-9.75578 102.654899 -34.448923
-11.933687 102.357399 -35.847139
-12.512459 103.175117 -34.694626
-11.148714 102.959007 -34.589556
-11.333254 101.487652 -36.893404
-12.696998 101.703762 -36.998474
-11.933687 102.357399 -35.847139
16.493863 85.364715 -10.2802
16.624633 84.710842 -8.94498
-19.202778 106.796311 -10.43288
-18.557559 106.644192 -8.951204
-18.107957 106.974102 -10.610769
-19.78929 106.823246 -11.908657
-19.202778 106.796311 -10.43288
-22.917081 103.858722 -28.641241
-22.258102 104.623253 -27.46288
-21.931235 104.362644 -28.991403
15.725794 79.109039 3.25829
15.119266 79.460469 4.117621
16.997639 82.440643 -5.011559
17.029651 81.678257 -3.731753
1.580321 93.570053 3.475719
2.201758 92.473011 4.563417
2.121363 93.977372 1.986163
1.025389 94.636001 2.255042
1.580321 93.570053 3.475719
-17.102047 95.652359 -43.460831
-16.38526 96.912788 -42.464624
-15.736168 95.871193 -43.296812
-17.684497 94.366051 -44.361033
-18.333589 95.407646 -43.528845
-17.102047 95.652359 -43.460831
-18.396402 92.927933 -45.244333
-17.684497 94.366051 -44.361033
-1.252247 100.715408 -30.414773
-2.544419 101.337936 -30.744681
1.664122 99.045613 -29.73989
2.374049 99.047673 -28.413575
7.494459 95.316688 -26.810859
6.983344 96.076042 -25.837325
8.183866 95.081963 -25.402383
8.045269 94.425018 -27.679959
7.494459 95.316688 -26.810859
9.26568 93.323113 -27.228139
8.045269 94.425018 -27.679959
15.707138 87.332432 -14.05982
15.10018 87.963566 -13.234329
16.007514 86.705147 -12.824057
14.804357 88.630989 -20.332063
13.780586 89.890442 -20.87153
14.22637 89.479591 -19.558167
-12.69994 105.597527 -6.554772
-12.000045 104.978867 -5.11165
-12.214897 105.896984 -8.277707
-13.422068 106.165988 -8.067503
-12.69994 105.597527 -6.554772
-2.544419 101.337936 -30.744681
-3.888812 101.95514 -31.031264
-3.29829 102.200592 -29.677578
3.582538 86.634704 11.734818
2.917258 87.969646 10.652486
5.927316 84.393566 11.997717
5.639124 83.683003 13.214212
6.491106 83.137252 12.911881
-23.335638 104.912346 -22.57177
-22.359357 105.537991 -22.928509
-22.963891 104.895207 -24.225546
-24.141698 104.645095 -17.431829
-23.887246 104.80444 -19.155983
-23.554965 105.176747 -15.89059
-24.141698 104.645095 -17.431829
-25.458695 93.048462 -41.610346
-25.059024 92.253971 -42.690242
12.068818 81.07917 7.837597
12.630851 80.828361 7.187594
12.157581 81.848121 6.721644
-8.348282 102.358643 -34.175272
-7.507333 102.737198 -32.895457
-6.913996 101.92733 -33.914952
-9.75578 102.654899 -34.448923
-8.348282 102.358643 -34.175272
-16.378966 106.825749 -9.356018
-16.788466 106.47287 -7.605321
-15.704694 106.476635 -7.832245
-24.127294 101.899608 -31.296281
-23.533767 102.913196 -29.973125
-23.18374 102.584526 -31.492921
-24.127294 101.899608 -31.296281
-24.70036 100.797744 -32.486864
17.113276 79.900833 -1.081909
17.063672 80.819835 -2.343758
17.113276 79.900833 -1.081909
16.45729 80.356666 -0.117812
17.063672 80.819835 -2.343758
17.029651 81.678257 -3.731753
16.416218 82.086533 -2.770837
2.740534 91.33387 5.78623
3.28304 90.208416 6.898156
3.21507 91.772282 4.429653
2.201758 92.473011 4.563417
2.740534 91.33387 5.78623
-13.669039 97.08775 -42.137596
-14.328958 98.110008 -41.315834
-12.978617 98.066136 -41.152824
-14.462312 95.993412 -43.118643
-13.669039 97.08775 -42.137596
-15.736168 95.871193 -43.296812
-14.462312 95.993412 -43.118643
3.083343 98.943531 -27.08844
2.374049 99.047673 -28.413575
1.666782 99.841706 -27.488919
10.496392 92.955192 -24.56576
9.829308 93.252835 -25.931246
9.362065 94.024967 -25.010432
11.559735 91.878807 -24.147075
10.496392 92.955192 -24.56576
11.092492 92.650939 -23.226262
12.653163 90.719482 -23.569063
11.559735 91.878807 -24.147075
16.715895 86.142224 -15.889263
16.252724 86.726295 -14.965334
16.385512 86.639099 -17.215661
16.715895 86.142224 -15.889263
16.065095 87.059879 -18.584451
15.570557 87.799359 -17.64991
16.385512 86.639099 -17.215661
15.699413 87.431786 -19.814698
16.065095 87.059879 -18.584451
-10.834938 104.635304 -5.326351
-12.000045 104.978867 -5.11165
-1.741459 97.181682 1.054885
-1.081225 96.057857 2.366233
-2.357438 98.211513 -0.248717
-1.741459 97.181682 1.054885
-1.206086 97.525093 -0.400733
-2.933985 99.233398 -1.671193
-2.357438 98.211513 -0.248717
7.319567 82.65081 12.497857
6.491106 83.137252 12.911881
8.163616 82.089546 12.15181
7.623348 83.286552 11.349339
7.319567 82.65081 12.497857
8.914712 81.588905 11.773405
8.163616 82.089546 12.15181
9.684494 81.011307 11.458274
9.237179 82.14769 10.688162
8.914712 81.588905 11.773405
10.443948 80.530682 10.949564
9.684494 81.011307 11.458274
-24.53479 91.472317 -43.713398
-25.059024 92.253971 -42.690242
-24.031131 93.08567 -42.909615
14.524831 79.796436 4.896146
15.119266 79.460469 4.117621
14.590963 80.643181 3.672824
13.889989 80.244866 5.595808
13.358071 81.288231 5.261496
13.251533 80.553947 6.405954
14.524831 79.796436 4.896146
13.889989 80.244866 5.595808
-10.610627 100.566917 -37.839177
-11.333254 101.487652 -36.893404
-11.459256 99.836372 -38.97726
-10.610627 100.566917 -37.839177
-12.230242 98.963562 -40.120422
-12.867551 99.961204 -39.1879
-11.459256 99.836372 -38.97726
-12.978617 98.066136 -41.152824
-12.230242 98.963562 -40.120422
16.262911 86.050186 -11.572954
15.631509 86.650811 -10.705813
16.493863 85.364715 -10.2802
16.007514 86.705147 -12.824057
16.262911 86.050186 -11.572954
-17.909116 106.430744 -7.423722
-16.788466 106.47287 -7.605321
-17.909116 106.430744 -7.423722
-18.557559 106.644192 -8.951204
-22.615779 104.820091 -25.847502
-21.629933 105.324012 -26.197663
-22.258102 104.623253 -27.46288
-22.963891 104.895207 -24.225546
-22.615779 104.820091 -25.847502
-22.917081 103.858722 -28.641241
-23.533767 102.913196 -29.973125
-21.881616 91.873829 -45.017977
-20.799344 92.356556 -45.099671
15.82487 79.896218 2.020758
15.853248 80.687935 0.8148
15.213776 81.09893 1.688341
15.82487 79.896218 2.020758
15.725794 79.109039 3.25829
16.820092 83.915829 -7.601809
16.624633 84.710842 -8.94498
16.057921 85.170327 -8.069887
16.933231 83.155823 -6.295501
16.317788 83.660134 -5.442774
16.997639 82.440643 -5.011559
16.820092 83.915829 -7.601809
16.933231 83.155823 -6.295501
-0.052879 95.361973 2.323733
-1.081225 96.057857 2.366233
0.488162 95.769291 0.834178
-0.052879 95.361973 2.323733
1.025389 94.636001 2.255042
-23.9014 99.951866 -35.38172
-24.353029 100.381508 -33.989549
-23.325637 101.141296 -34.208248
-23.50602 99.450954 -36.675745
-24.533412 98.691166 -36.457047
-23.9014 99.951866 -35.38172
-19.590963 92.68607 -45.203738
-20.799344 92.356556 -45.099671
-20.124421 93.791824 -44.32498
-19.590963 92.68607 -45.203738
-18.396402 92.927933 -45.244333
0.203445 99.896637 -30.126302
-1.252247 100.715408 -30.414773
-0.498204 100.764618 -29.102524
0.203445 99.896637 -30.126302
1.664122 99.045613 -29.73989
4.40191 98.0219 -26.738001
3.083343 98.943531 -27.08844
3.694642 98.815933 -25.813345
5.653574 97.102535 -26.354353
6.34298 96.867809 -24.945878
6.983344 96.076042 -25.837325
4.40191 98.0219 -26.738001
5.653574 97.102535 -26.354353
9.26568 93.323113 -27.228139
9.829308 93.252835 -25.931246
15.345389 87.984714 -15.375606
15.707138 87.332432 -14.05982
16.252724 86.726295 -14.965334
13.257204 90.308197 -22.226501
12.679217 91.156799 -21.452606
13.780586 89.890442 -20.87153
12.653163 90.719482 -23.569063
13.257204 90.308197 -22.226501
14.804357 88.630989 -20.332063
15.699413 87.431786 -19.814698
-14.601152 106.348022 -7.963755
-15.704694 106.476635 -7.832245
-14.11611 106.64748 -9.68669
-14.601152 106.348022 -7.963755
-13.422068 106.165988 -8.067503
-3.528136 100.209809 -3.117346
-2.933985 99.233398 -1.671193
-2.416216 99.531334 -3.150488
-4.685069 100.817669 -2.953558
-3.528136 100.209809 -3.117346
-4.1673 101.115605 -4.432853
-5.865318 101.439839 -2.831172
-4.685069 100.817669 -2.953558
-7.079675 102.053627 -2.778691
-5.865318 101.439839 -2.831172
-6.53859 102.337254 -4.216584
-8.324947 102.607307 -2.571709
-7.079675 102.053627 -2.778691
-8.965027 103.446563 -4.025915
-8.324947 102.607307 -2.571709
-9.648896 104.225216 -5.445542
-8.965027 103.446563 -4.025915
-8.436816 103.729694 -5.58373
-10.306728 104.918435 -6.884167
-10.834938 104.635304 -5.326351
-9.648896 104.225216 -5.445542
-4.603994 101.699185 -32.366751
-5.357865 102.56184 -31.299649
-3.888812 101.95514 -31.031264
-5.442983 101.421841 -33.641711
-4.603994 101.699185 -32.366751
3.347994 88.561504 9.294082
2.917258 87.969646 10.652486
4.324362 87.801624 9.251599
3.788601 89.023811 8.101364
3.347994 88.561504 9.294082
4.695763 84.278313 13.555907
5.639124 83.683003 13.214212
4.178327 85.434704 12.662685
4.695763 84.278313 13.555907
4.479545 86.139317 11.372182
3.582538 86.634704 11.734818
4.178327 85.434704 12.662685
11.912446 80.485184 8.811326
12.068818 81.07917 7.837597
11.439176 81.504943 8.345375
11.081869 80.201114 10.422601
10.644883 81.240524 9.846068
10.443948 80.530682 10.949564
11.73172 79.823871 9.853931
11.081869 80.201114 10.422601
11.912446 80.485184 8.811326
11.73172 79.823871 9.853931
-20.403372 106.795417 -13.482296
-19.78929 106.823246 -11.908657
-19.367258 107.098393 -13.666084
-21.447201 106.340564 -13.242665
-20.403372 106.795417 -13.482296
-21.025168 106.615711 -15.000092
-22.322855 105.886463 -13.0072
-21.447201 106.340564 -13.242665
-23.609547 104.880467 -20.947814
-23.335638 104.912346 -22.57177
-23.008803 105.479103 -19.482903
-23.609547 104.880467 -20.947814
-23.887246 104.80444 -19.155983
-22.946213 105.555638 -14.425285
-22.67775 105.781967 -16.225766
-23.554965 105.176747 -15.89059
-22.322855 105.886463 -13.0072
-22.946213 105.555638 -14.425285
-25.056729 97.363777 -37.50295
-24.533412 98.691166 -36.457047
-25.615755 95.953598 -38.473337
-25.056729 97.363777 -37.50295
-24.697058 96.780075 -38.721458
-26.123613 94.443649 -39.406422
-25.615755 95.953598 -38.473337
-25.809054 93.799747 -40.513039
-24.905724 94.61861 -40.789152
-25.458695 93.048462 -41.610346
-26.123613 94.443649 -39.406422
-25.809054 93.799747 -40.513039
-22.968664 91.294681 -44.873905
-22.419849 92.883163 -44.076842
-21.881616 91.873829 -45.017977
-24.026628 90.603996 -44.691278
-22.968664 91.294681 -44.873905
-24.53479 91.472317 -43.713398
-24.026628 90.603996 -44.691278
3 0 59 57
3 0 57 60
3 0 60 62
3 236 235 64
3 1 68 66
3 1 71 69
3 1 66 71
3 2 75 73
3 238 237 76
3 3 239 241
3 241 240 77
3 239 240 241
3 4 80 78
3 3 83 81
3 3 77 83
3 6 242 244
3 242 85 243
3 242 243 244
3 4 88 86
3 4 78 88
3 8 92 90
3 10 95 93
3 10 97 95
3 10 99 97
3 12 103 101
3 13 106 104
3 13 107 106
3 5 110 108
3 7 113 112
3 14 116 114
3 14 118 116
3 14 120 118
3 12 123 121
3 12 101 123
3 9 128 126
3 11 131 129
3 15 134 132
3 246 245 58
3 16 137 135
3 15 138 61
3 15 132 138
3 18 141 139
3 16 142 63
3 16 135 142
3 20 145 143
3 247 146 248
3 249 248 65
3 247 248 249
3 250 147 251
3 252 251 146
3 250 251 252
3 253 149 254
3 255 254 147
3 253 254 255
3 23 152 150
3 25 153 67
3 25 154 153
3 257 256 155
3 26 159 157
3 28 160 70
3 28 161 160
3 28 163 161
3 23 164 72
3 23 150 164
3 30 258 260
3 260 259 74
3 258 259 260
3 30 261 262
3 31 263 265
3 265 264 165
3 263 264 265
3 267 266 133
3 32 169 167
3 34 170 79
3 34 171 170
3 17 172 136
3 35 173 82
3 35 174 173
3 35 175 174
3 269 268 84
3 36 270 271
3 36 272 274
3 272 176 273
3 272 273 274
3 19 177 140
3 37 178 87
3 37 179 178
3 37 180 179
3 32 181 89
3 32 167 181
3 38 184 182
3 40 185 91
3 40 186 185
3 21 187 144
3 41 188 94
3 41 189 188
3 41 190 189
3 42 191 96
3 42 192 191
3 42 194 192
3 44 195 98
3 44 196 195
3 22 197 148
3 275 198 276
3 277 276 100
3 275 276 277
3 278 199 279
3 280 279 198
3 278 279 280
3 282 281 199
3 45 283 284
3 286 285 102
3 24 200 151
3 46 287 289
3 289 288 105
3 287 288 289
3 46 290 291
3 46 292 293
3 33 201 168
3 47 202 109
3 47 203 202
3 294 204 295
3 296 295 156
3 294 295 296
3 48 205 111
3 48 206 205
3 48 297 299
3 299 298 206
3 297 298 299
3 49 300 301
3 49 302 304
3 302 207 303
3 302 303 304
3 27 208 158
3 50 209 115
3 50 210 209
3 50 211 210
3 51 212 117
3 51 213 212
3 51 214 213
3 52 215 119
3 52 216 215
3 29 217 162
3 53 218 122
3 53 219 218
3 53 220 219
3 45 221 124
3 45 305 307
3 307 306 221
3 305 306 307
3 308 222 309
3 54 310 312
3 310 223 311
3 310 311 312
3 54 224 223
3 54 225 224
3 55 226 125
3 55 227 226
3 55 228 227
3 39 229 183
3 56 230 127
3 56 231 230
3 313 232 314
3 315 314 166
3 313 314 315
3 316 233 317
3 319 318 233
3 43 234 193
3 321 320 130
3 57 58 15
3 59 58 57
3 59 322 324
3 324 323 58
3 322 323 324
3 60 61 16
3 57 61 60
3 57 15 61
3 62 63 18
3 60 63 62
3 60 16 63
3 64 65 20
3 325 65 326
3 327 326 64
3 325 326 327
3 329 328 65
3 66 67 23
3 68 67 66
3 68 25 67
3 69 70 26
3 71 70 69
3 71 28 70
3 71 72 28
3 66 72 71
3 66 23 72
3 73 330 332
3 330 74 331
3 330 331 332
3 75 74 73
3 75 30 74
3 76 333 335
3 335 334 31
3 333 334 335
3 337 336 76
3 77 338 339
3 341 340 77
3 78 79 32
3 80 79 78
3 80 34 79
3 81 82 17
3 83 82 81
3 83 35 82
3 83 84 35
3 77 84 83
3 77 342 344
3 344 343 84
3 342 343 344
3 85 345 346
3 85 347 349
3 347 36 348
3 347 348 349
3 86 87 19
3 88 87 86
3 88 37 87
3 88 89 37
3 78 89 88
3 78 32 89
3 90 91 38
3 92 91 90
3 92 40 91
3 93 94 21
3 95 94 93
3 95 41 94
3 95 96 41
3 97 96 95
3 97 42 96
3 97 98 42
3 99 98 97
3 99 44 98
3 350 100 351
3 352 351 22
3 350 351 352
3 353 100 354
3 356 355 100
3 101 102 45
3 103 102 101
3 103 357 359
3 359 358 102
3 357 358 359
3 104 105 24
3 106 105 104
3 106 46 105
3 106 360 362
3 362 361 46
3 360 361 362
3 107 363 365
3 365 364 106
3 363 364 365
3 107 366 367
3 108 109 33
3 110 109 108
3 110 47 109
3 368 111 369
3 370 111 371
3 372 48 373
3 374 373 111
3 372 373 374
3 376 375 48
3 377 49 378
3 112 379 380
3 113 381 383
3 383 382 112
3 381 382 383
3 113 384 385
3 114 115 27
3 116 115 114
3 116 50 115
3 116 117 50
3 118 117 116
3 118 51 117
3 118 119 51
3 120 119 118
3 120 52 119
3 121 122 29
3 123 122 121
3 123 53 122
3 123 124 53
3 101 124 123
3 101 45 124
3 386 54 387
3 388 125 389
3 390 389 54
3 388 389 390
3 391 125 392
3 393 55 394
3 395 394 125
3 393 394 395
3 397 396 55
3 126 127 39
3 128 127 126
3 128 56 127
3 129 130 43
3 131 130 129
3 131 398 400
3 400 399 130
3 398 399 400
3 132 133 3
3 134 133 132
3 134 401 403
3 403 402 133
3 401 402 403
3 58 134 15
3 404 134 405
3 406 405 58
3 404 405 406
3 408 407 134
3 135 136 4
3 137 136 135
3 137 17 136
3 61 137 16
3 138 137 61
3 138 17 137
3 138 81 17
3 132 81 138
3 132 3 81
3 139 140 6
3 141 140 139
3 141 19 140
3 63 141 18
3 142 141 63
3 142 19 141
3 142 86 19
3 135 86 142
3 135 4 86
3 143 144 8
3 145 144 143
3 145 21 144
3 65 145 20
3 146 145 65
3 146 21 145
3 146 93 21
3 147 93 146
3 147 10 93
3 147 148 10
3 149 148 147
3 149 22 148
3 409 149 410
3 411 149 412
3 413 22 414
3 415 414 149
3 413 414 415
3 417 416 22
3 150 151 12
3 152 151 150
3 152 24 151
3 67 152 23
3 153 152 67
3 153 24 152
3 153 104 24
3 154 104 153
3 154 13 104
3 155 156 5
3 418 156 419
3 420 419 155
3 418 419 420
3 422 421 156
3 157 158 7
3 159 158 157
3 159 27 158
3 70 159 26
3 160 159 70
3 160 27 159
3 160 114 27
3 161 114 160
3 161 14 114
3 161 162 14
3 163 162 161
3 163 29 162
3 72 163 28
3 164 163 72
3 164 29 163
3 164 121 29
3 150 121 164
3 150 12 121
3 74 423 424
3 426 425 74
3 165 166 9
3 427 166 428
3 429 428 165
3 427 428 429
3 431 430 166
3 433 432 31
3 435 434 11
3 133 436 438
3 438 437 3
3 436 437 438
3 440 439 133
3 167 168 1
3 169 168 167
3 169 33 168
3 79 169 32
3 170 169 79
3 170 33 169
3 170 108 33
3 171 108 170
3 171 5 108
3 136 80 4
3 172 80 136
3 172 34 80
3 82 172 17
3 173 172 82
3 173 34 172
3 173 171 34
3 174 171 173
3 174 5 171
3 174 155 5
3 175 155 174
3 175 441 443
3 443 442 155
3 441 442 443
3 84 175 35
3 444 175 445
3 446 445 84
3 444 445 446
3 448 447 175
3 449 112 450
3 176 451 453
3 451 112 452
3 451 452 453
3 176 7 112
3 140 85 6
3 177 85 140
3 177 36 85
3 87 177 19
3 178 177 87
3 178 36 177
3 178 176 36
3 179 176 178
3 179 7 176
3 179 157 7
3 180 157 179
3 180 26 157
3 89 180 37
3 181 180 89
3 181 26 180
3 181 69 26
3 167 69 181
3 167 1 69
3 182 183 2
3 184 183 182
3 184 39 183
3 91 184 38
3 185 184 91
3 185 39 184
3 185 126 39
3 186 126 185
3 186 9 126
3 144 92 8
3 187 92 144
3 187 40 92
3 94 187 21
3 188 187 94
3 188 40 187
3 188 186 40
3 189 186 188
3 189 9 186
3 189 165 9
3 190 165 189
3 190 31 165
3 96 190 41
3 191 190 96
3 191 31 190
3 191 76 31
3 192 76 191
3 192 454 456
3 456 455 76
3 454 455 456
3 192 457 459
3 457 193 458
3 457 458 459
3 194 193 192
3 194 43 193
3 98 194 42
3 195 194 98
3 195 43 194
3 195 129 43
3 196 129 195
3 196 11 129
3 148 99 10
3 197 99 148
3 197 44 99
3 100 197 22
3 198 197 100
3 198 44 197
3 198 196 44
3 199 196 198
3 199 11 196
3 199 460 462
3 462 461 11
3 460 461 462
3 464 463 199
3 102 465 467
3 467 466 45
3 465 466 467
3 469 468 102
3 151 103 12
3 200 103 151
3 200 470 472
3 472 471 103
3 470 471 472
3 105 200 24
3 473 200 474
3 475 474 105
3 473 474 475
3 477 476 200
3 479 478 46
3 168 68 1
3 201 68 168
3 201 25 68
3 109 201 33
3 202 201 109
3 202 25 201
3 202 154 25
3 203 154 202
3 203 13 154
3 156 110 5
3 204 110 156
3 204 47 110
3 111 480 482
3 480 204 481
3 480 481 482
3 205 204 111
3 205 47 204
3 205 203 47
3 206 203 205
3 206 13 203
3 206 107 13
3 483 107 484
3 485 484 206
3 483 484 485
3 487 486 107
3 489 488 48
3 490 73 491
3 207 492 494
3 492 73 493
3 492 493 494
3 207 2 73
3 158 113 7
3 208 113 158
3 208 495 497
3 497 496 113
3 495 496 497
3 115 208 27
3 209 208 115
3 209 498 500
3 500 499 208
3 498 499 500
3 209 501 502
3 210 503 505
3 505 504 209
3 503 504 505
3 210 506 507
3 210 508 509
3 211 510 512
3 512 511 210
3 510 511 512
3 211 513 515
3 513 49 514
3 513 514 515
3 117 211 50
3 212 211 117
3 212 49 211
3 212 207 49
3 213 207 212
3 213 2 207
3 213 182 2
3 214 182 213
3 214 38 182
3 119 214 51
3 215 214 119
3 215 38 214
3 215 90 38
3 216 90 215
3 216 8 90
3 162 120 14
3 217 120 162
3 217 52 120
3 122 217 29
3 218 217 122
3 218 52 217
3 218 216 52
3 219 216 218
3 219 8 216
3 219 143 8
3 220 143 219
3 220 20 143
3 124 220 53
3 221 220 124
3 221 20 220
3 221 64 20
3 516 64 517
3 518 517 221
3 516 517 518
3 520 519 64
3 222 521 522
3 222 523 525
3 523 6 524
3 523 524 525
3 223 526 527
3 223 528 529
3 223 530 532
3 530 222 531
3 530 531 532
3 224 222 223
3 224 6 222
3 224 139 6
3 225 139 224
3 225 18 139
3 125 225 54
3 226 225 125
3 226 18 225
3 226 62 18
3 227 62 226
3 227 0 62
3 227 59 0
3 228 59 227
3 228 533 535
3 535 534 59
3 533 534 535
3 536 228 537
3 538 537 55
3 536 537 538
3 539 228 540
3 542 541 228
3 183 75 2
3 229 75 183
3 229 30 75
3 127 229 39
3 230 229 127
3 230 30 229
3 230 543 545
3 545 544 30
3 543 544 545
3 231 546 548
3 548 547 230
3 546 547 548
3 231 549 550
3 166 128 9
3 232 128 166
3 232 56 128
3 551 232 552
3 233 553 555
3 553 232 554
3 553 554 555
3 233 56 232
3 233 231 56
3 556 231 557
3 558 557 233
3 556 557 558
3 560 559 231
3 193 561 562
3 234 563 565
3 565 564 193
3 563 564 565
3 234 566 567
3 130 234 43
3 568 234 569
3 570 569 130
3 568 569 570
3 572 571 234
3 573 131 574
3 575 574 11
3 573 574 575
3 576 131 577
3 579 578 131
