ply
format ascii 1.0
element vertex 856
property float x
property float y
property float z
element face 873
property list uchar int vertex_index
end_header
-13.444104 -5.583815 53.716228
-25.656282 2.004882 38.759708
2.444294 -10.801052 65.552353
-36.950645 7.442912 22.150604
-5.975513 -8.720084 60.081825
-31.463057 5.207117 30.751188
-32.443512 13.727259 25.753315
-37.022942 15.994127 16.656055
15.050969 -20.887747 71.988647
22.335506 -22.68425 72.505722
-17.074604 -9.923631 50.445908
-19.728189 -1.793596 46.5956
6.450805 -18.903114 68.273613
-2.355528 -16.310614 63.068176
-10.279991 -13.33072 57.117859
-39.273666 17.051561 7.945505
28.558199 -23.56164 60.023567
27.062794 -23.812483 68.241486
-15.32816 -7.635264 52.20636
-18.472258 -5.743446 48.670406
-16.645546 -3.842841 50.318901
4.622661 -14.690897 67.109901
2.100766 -17.52976 65.845985
0.05856 -13.699946 64.465988
-9.762907 -7.400892 57.115112
-8.182179 -11.029363 58.768543
-11.818105 -9.552151 55.685341
-13.818842 -11.541497 53.866314
8.897513 -15.57841 69.33287
-24.591703 -2.16434 41.001171
-26.350458 -4.527247 39.222931
-27.593018 -0.284941 37.033257
-34.360027 6.391604 26.527996
-39.069538 7.928655 17.637556
-38.563087 16.538015 12.167053
25.064476 -23.441971 71.003448
27.087461 -29.049854 66.117683
-11.323769 -3.57171 55.115421
-14.752297 -1.705901 51.677036
-1.946435 -9.957125 62.864754
-26.572418 6.22714 36.362522
-28.584064 3.661356 34.775482
-29.40975 7.919651 32.303429
-32.117416 9.519486 28.209078
-34.899437 10.576906 23.834059
-37.21637 11.622112 19.406425
-34.802116 14.974083 21.455824
17.345022 -16.932823 72.562141
18.773352 -21.720186 72.768845
-21.572147 -3.962539 44.887562
-22.68766 0.009833 42.780327
-17.736687 0.138093 48.252892
-20.702673 2.173226 44.46603
-23.677544 4.321242 40.404427
-4.096773 -12.471462 61.771294
-6.380361 -14.853403 60.241791
13.204536 -16.29668 71.239189
10.701446 -19.774296 70.336578
-30.669878 1.110159 33.004108
-39.003777 12.218996 14.961895
-40.010681 12.427443 10.568467
28.179289 -23.762646 64.520493
27.930573 -29.172211 62.021481
-14.325812 -6.734282 53.080093
-16.005411 -5.740169 51.287971
-15.091003 -4.616881 52.005634
3.523782 -12.778301 66.359291
2.348571 -14.202653 65.826057
1.336809 -12.335898 65.093689
-11.630713 -6.550906 55.46246
-10.886035 -8.411018 56.358734
-12.593658 -7.5484 54.783222
-13.536139 -8.693867 54.050419
5.790091 -13.18231 67.604675
-25.158028 -0.132185 39.900829
-26.073078 -1.186904 39.040951
-26.61162 0.789429 37.945309
-35.741772 6.907486 24.318581
-35.33334 4.860558 25.747387
-36.685547 5.393034 23.476173
-37.861019 5.579551 21.356747
-38.052956 7.688344 20.015047
-26.844013 8.157309 35.380726
-27.982792 7.063594 34.368069
-28.166548 9.157743 33.390373
-31.016569 10.820271 29.088318
-32.452324 11.539155 26.835804
-33.507305 10.005276 26.114376
-33.71283 12.192002 24.733578
-35.003468 12.733096 22.495535
-33.688591 14.406609 23.548388
16.193802 -18.911995 72.30677
18.104029 -19.351418 72.731529
16.896738 -21.336185 72.471558
-19.10976 -3.848452 47.688995
-19.978714 -4.911425 46.868382
-20.642876 -2.869097 45.781349
-22.087601 -1.938328 43.926159
-21.233364 -0.735934 44.646893
-16.305601 -0.955155 49.995094
-16.738691 1.10573 48.987228
-22.175762 3.159391 42.499813
7.302739 -20.975733 68.736748
5.011898 -20.2104 67.518341
-0.055641 -17.077515 64.544807
-1.310424 -18.294603 63.722385
-3.367976 -17.650076 62.337585
-3.986542 -9.373013 61.497089
-2.880992 -11.201332 62.43573
-4.990967 -10.626152 60.999325
-9.206841 -12.264906 58.029545
-7.306658 -12.920019 59.532433
-8.319482 -14.156042 58.74173
-7.414637 -16.145144 59.358921
-15.46633 -10.773527 52.182983
7.730459 -17.177382 68.856735
9.945724 -17.594973 69.926376
8.642591 -19.339022 69.380676
9.565445 -21.539623 69.8433
-27.797604 -3.743091 37.413353
-30.012764 4.606352 32.741772
-29.656277 2.487712 33.840786
-31.127628 3.257195 31.819195
-37.183651 13.793988 18.015362
-38.166176 12.021818 17.209122
-38.072121 14.130337 15.83709
-39.015335 16.793406 10.054741
-39.407936 14.44904 11.401735
-39.721317 14.647369 9.195253
-40.138943 12.459561 8.403798
-39.780235 14.897417 7.036937
-39.358482 17.111519 5.803013
28.791769 -20.559006 59.186226
28.552031 -23.376419 57.726551
28.364847 -26.179329 58.687729
21.690453 -20.069305 72.819778
23.315916 -20.401039 72.395508
26.250999 -23.646353 69.672768
25.954441 -21.089293 70.541962
26.926394 -21.087172 69.233719
27.685003 -21.17975 67.606438
28.215271 -21.298014 65.780441
27.696852 -24.006117 66.503654
27.603485 -29.129402 64.126724
13.746856 -22.61878 71.550163
15.600353 -23.281176 72.104431
-16.198978 -8.767027 51.388569
-17.85651 -7.806304 49.537407
-16.996922 -6.727878 50.384911
-17.63125 -4.712039 49.441284
-18.20281 -2.777744 48.477234
5.598297 -16.709829 67.747467
4.220347 -18.107895 67.059425
3.302582 -16.104002 66.477386
1.139028 -15.60587 65.219322
-1.035664 -15.101476 63.886333
-7.871964 -8.063481 58.645023
-7.026975 -9.891636 59.506657
-8.964153 -9.139044 57.982838
-9.976187 -10.288774 57.300949
-11.037487 -11.319578 56.466217
-12.117716 -12.490448 55.484058
-12.820098 -10.621434 54.838493
-14.546019 -9.623602 53.131271
8.051865 -13.535487 68.778725
6.750036 -15.118504 68.247559
-23.990551 -4.035083 42.011433
-25.494242 -3.275497 40.09745
-26.902946 -2.400342 38.275745
-28.397739 -1.689829 36.37101
-32.919556 5.864341 28.660963
-32.556183 3.890173 29.830557
-33.992039 4.388854 27.78503
-37.887241 16.205294 14.466961
-38.570965 18.997858 8.695462
-38.815605 19.189348 6.516719
28.997969 -17.910778 60.631767
28.75428 -20.894814 61.435261
23.736511 -23.038511 71.948196
25.374023 -26.14506 70.156586
26.310808 -26.494184 68.813118
27.067125 -26.493649 67.277817
-12.357462 -4.62617 54.486282
-14.064338 -3.649436 52.774223
1.352684 -8.923396 64.678543
0.253382 -10.444942 64.251869
-0.784424 -8.702324 63.388729
-2.864041 -8.157091 62.022125
-4.921658 -7.667364 60.61483
-7.012122 -6.911443 59.06052
-8.805903 -6.194323 57.630947
-10.582122 -5.531173 56.133087
-26.175886 4.152781 37.507023
-27.156082 3.018948 36.683731
-27.563742 4.951307 35.59177
-28.940929 5.816559 33.634178
-30.434164 6.643051 31.50738
-29.592663 9.924873 31.301065
-30.82773 8.646976 30.242521
-31.917423 7.327981 29.381264
-33.325916 7.919718 27.299414
-34.651749 8.489231 25.214701
-35.981308 9.071789 22.943132
-37.192055 9.434239 20.727543
-36.174667 11.155932 21.51952
-36.095161 13.349141 20.328325
-36.015778 15.415788 19.070599
19.303663 -17.233482 72.894867
19.982029 -19.794977 72.91465
20.543642 -22.314423 72.797508
17.504419 -23.688576 72.504318
19.338915 -24.213633 72.664932
21.07308 -24.732113 72.543159
-19.44536 -6.798332 47.673561
-20.954952 -5.927223 45.839794
-22.486408 -4.94255 43.92194
-23.111065 -2.897388 42.898781
-23.675613 -1.0293 41.863903
-24.173019 1.025972 40.777699
-15.615915 -2.798885 51.125626
-17.272726 -1.824614 49.241806
-18.785587 -0.732902 47.37748
-18.234335 2.128755 47.161575
-19.265511 1.121618 46.355354
-20.238674 0.13413 45.554272
-21.711861 1.136384 43.612709
-23.209318 2.153458 41.593987
-24.689402 3.246147 39.542625
-25.137314 5.264826 38.389256
-0.792782 -11.798322 63.787647
-1.996694 -13.088625 63.169727
-3.126308 -14.31417 62.520771
-6.181719 -11.819803 60.295216
-5.245758 -13.76646 61.060059
-4.34127 -15.598263 61.715309
-5.450345 -16.851803 60.853302
15.347382 -16.483055 72.003456
14.220463 -18.51755 71.689583
11.076714 -15.82787 70.341362
12.08147 -18.151983 70.869781
12.953919 -20.326439 71.265518
11.657907 -22.054146 70.761589
-28.118328 1.682735 35.913975
-29.095337 0.317899 35.100601
-29.999214 -1.005925 34.325455
-32.068516 1.82036 31.088835
-38.195873 9.755908 18.600288
-39.044731 10.119216 16.379541
-39.722984 10.139318 14.286559
-38.818932 14.398826 13.597724
-39.598557 12.392291 12.831399
-40.167145 10.288179 12.067199
24.765293 -20.693413 71.625076
28.584133 -21.046339 63.684456
28.446772 -23.755289 62.288174
27.66507 -26.511042 65.375282
28.06369 -26.417294 63.297501
28.264477 -26.55039 61.039917
28.128592 -29.0252 59.619366
3.514654 -10.937787 66.154526
2.921574 -9.971396 65.708298
2.984038 -11.789677 65.955822
4.054398 -11.926411 66.557995
3.514654 -10.937787 66.154526
-27.622194 9.709324 33.871427
-27.50528 8.657526 34.385549
-26.960927 9.209107 34.866604
-32.447918 12.633207 26.294559
-31.822664 12.236704 27.365878
-31.818258 13.330756 26.824634
-17.892323 -9.3943 49.517409
-17.537132 -10.390683 49.875624
-16.258961 1.595302 49.314527
-16.010115 0.607777 49.836946
-9.834834 -14.330419 57.437725
-8.854579 -14.74308 58.24966
-9.299737 -13.743381 57.929794
-10.789203 -13.906063 56.608174
-9.834834 -14.330419 57.437725
-16.753594 -10.915828 50.732207
-15.949457 -11.340777 51.600744
-16.270467 -10.348579 51.314446
-17.537132 -10.390683 49.875624
-16.753594 -10.915828 50.732207
-28.241445 -4.422419 36.963094
-28.563216 -3.334315 36.448666
13.986961 -23.81865 71.590271
12.974021 -23.498901 71.241108
7.415461 -12.564451 68.37014
8.480393 -12.592713 68.903217
-35.18689 3.841715 26.313775
-35.829149 4.023337 25.309413
-39.349934 6.911139 17.387305
-38.952831 6.887412 18.433875
-39.427845 7.923604 16.597994
-39.349934 6.911139 17.387305
-38.072096 19.991394 9.225395
-38.340402 18.902553 9.808773
-38.311007 20.018906 8.124676
-38.072096 19.991394 9.225395
28.953167 -18.019373 61.709536
29.068545 -16.558532 61.302225
28.831322 -19.511391 62.111283
28.876125 -19.402796 61.033514
28.953167 -18.019373 61.709536
25.412569 -27.422514 69.768093
24.828117 -27.239724 70.398896
25.880962 -27.597076 69.09636
25.842416 -26.319622 69.484852
25.412569 -27.422514 69.768093
26.332606 -27.808691 68.323929
25.880962 -27.597076 69.09636
-12.197258 -3.121112 54.273105
-12.714105 -3.648341 53.958536
-11.840616 -4.09894 54.800852
-0.362077 -7.878132 63.503084
0.28413 -8.81286 64.033636
0.706477 -7.988668 64.147991
-3.405545 -7.228399 61.508642
-2.397876 -7.490295 62.195345
-4.434354 -6.983536 60.804994
-3.892849 -7.912228 61.318478
-3.405545 -7.228399 61.508642
-7.439393 -5.988084 58.573562
-6.469309 -6.360453 59.325561
-8.336284 -5.629524 57.858776
-7.909013 -6.552883 58.345733
-7.439393 -5.988084 58.573562
-10.952946 -4.551442 55.624254
-10.103262 -4.941841 56.382563
-10.474086 -3.96211 55.873729
0.706477 -7.988668 64.147991
1.787338 -8.117446 64.799576
-29.730286 10.986662 30.687066
-29.037858 10.574024 31.754718
18.324343 -17.083152 72.728504
18.794772 -15.989976 72.793148
17.815452 -15.839647 72.626785
16.887806 -24.719684 72.322837
16.552386 -23.484876 72.304374
15.935773 -24.515984 72.122894
19.569792 -25.525751 72.535873
18.726463 -25.210419 72.535518
20.436875 -25.784991 72.474987
20.205998 -24.472873 72.604045
19.569792 -25.525751 72.535873
21.245963 -26.057528 72.340561
20.436875 -25.784991 72.474987
-18.448735 3.14598 46.636723
-17.723508 2.653298 47.533455
-19.984092 1.647422 45.410692
-19.497327 2.129094 45.80961
-20.215908 2.654898 44.864948
2.495279 -18.537092 66.08039
3.555069 -18.826159 66.687111
3.160557 -17.818827 66.452705
-7.054854 -17.175897 59.535448
-8.011737 -16.728238 58.77215
-13.42555 -12.596462 54.17808
-12.574987 -13.070938 54.986952
-12.968279 -12.015973 54.675186
14.275959 -16.389868 71.621322
14.811774 -15.398582 71.769985
13.740351 -15.305395 71.387851
9.987113 -15.70314 69.837116
10.584357 -14.82284 70.056076
9.494757 -14.69811 69.55183
9.873958 -22.648491 69.967427
8.784343 -22.316052 69.452011
-25.983942 -5.500587 39.719978
-25.543031 -4.9102 40.226788
-32.806452 2.09965 30.06499
-32.312349 2.855266 30.459696
-33.050286 3.134556 29.435851
-40.187717 11.325082 10.29168
-40.265949 10.25545 11.041045
-40.088913 11.357811 11.317833
-40.212384 11.317053 8.190618
-40.065876 12.48209 7.407038
-38.840643 19.218708 5.496647
-38.530327 20.260001 5.923813
25.775413 -19.688623 70.893673
26.316404 -19.71276 70.310383
5.187553 -12.128415 67.180687
6.284574 -12.387863 67.783115
4.656937 -12.980306 66.981983
5.187553 -12.128415 67.180687
4.054398 -11.926411 66.557995
-36.505253 4.289575 24.173806
-35.829149 4.023337 25.309413
-36.009444 5.126796 24.61178
-37.080349 4.458611 23.169902
-36.505253 4.289575 24.173806
-37.668085 4.55187 22.110188
-37.080349 4.458611 23.169902
-37.273283 5.486293 22.41646
-38.212696 4.616574 21.039192
-37.668085 4.55187 22.110188
-38.348571 5.71286 20.29347
-38.212696 4.616574 21.039192
-38.44454 6.767257 19.622621
-38.348571 5.71286 20.29347
-37.956987 6.633947 20.685897
-38.561247 7.808499 18.826301
-38.952831 6.887412 18.433875
-38.44454 6.767257 19.622621
-11.666931 -2.681114 54.612682
-10.864825 -3.055968 55.356184
-10.864825 -3.055968 55.356184
-10.474086 -3.96211 55.873729
-31.104787 11.877261 28.492135
-30.442239 11.434361 29.580693
-31.734446 11.179713 27.962061
-31.104787 11.877261 28.492135
-31.822664 12.236704 27.365878
-15.79357 -0.422666 50.340879
-15.528949 -1.330528 50.836065
-15.016918 -0.798039 51.18185
-16.522146 0.075288 49.491161
-15.79357 -0.422666 50.340879
-16.010115 0.607777 49.836946
-20.939324 3.20782 43.895212
-20.215908 2.654898 44.864948
-21.675868 3.700902 42.912104
-21.439217 2.666308 43.482922
-20.939324 3.20782 43.895212
-22.374963 4.148411 41.973955
-21.675868 3.700902 42.912104
-23.125855 4.729337 40.926262
-22.926653 3.740316 41.45212
-22.374963 4.148411 41.973955
-23.829202 5.325971 39.915493
-23.125855 4.729337 40.926262
6.603328 -21.687289 68.352902
7.65299 -22.034108 68.898735
5.457908 -21.304623 67.743698
6.603328 -21.687289 68.352902
6.157319 -20.593066 68.127544
4.324698 -20.950626 67.107949
5.457908 -21.304623 67.743698
0.330251 -18.037237 64.776279
1.408454 -18.26336 65.426868
1.022563 -17.303638 65.195396
-0.297141 -18.645781 64.365068
0.330251 -18.037237 64.776279
-0.683033 -17.686059 64.133596
-0.938315 -19.358518 63.910165
-0.297141 -18.645781 64.365068
-1.957066 -18.971107 63.226664
-0.938315 -19.358518 63.910165
-2.985842 -18.648844 62.534263
-1.957066 -18.971107 63.226664
-2.3392 -17.972339 63.029985
-3.988051 -18.256172 61.824337
-2.985842 -18.648844 62.534263
-8.402157 -15.737631 58.558256
-7.867059 -15.150593 59.050325
-8.854579 -14.74308 58.24966
-8.011737 -16.728238 58.77215
-8.402157 -15.737631 58.558256
-15.09507 -11.75585 52.50296
-14.271327 -12.139835 53.344626
-14.642586 -11.157512 53.024648
-15.09507 -11.75585 52.50296
-15.949457 -11.340777 51.600744
12.72097 -15.12098 70.979866
13.740351 -15.305395 71.387851
7.65299 -22.034108 68.898735
8.784343 -22.316052 69.452011
8.434092 -21.257678 69.290024
-27.499487 -4.762064 37.860241
-26.775914 -5.154141 38.76503
-27.074031 -4.135169 38.318142
-27.499487 -4.762064 37.860241
-28.241445 -4.422419 36.963094
-39.886522 13.701018 6.723607
-40.065876 12.48209 7.407038
-39.959589 13.678489 7.720368
-39.702743 14.901096 6.039007
-39.886522 13.701018 6.723607
-39.491867 16.008147 5.422045
-39.702743 14.901096 6.039007
-39.569358 16.004468 6.419975
-39.280647 17.091804 4.808963
-39.491867 16.008147 5.422045
28.753834 -20.476422 58.007686
28.886378 -19.051718 58.817014
28.633965 -21.885128 57.277849
28.753834 -20.476422 58.007686
28.6719 -21.967712 58.456389
28.515522 -23.134418 56.521628
28.633965 -21.885128 57.277849
28.448276 -24.656357 57.001028
28.515522 -23.134418 56.521628
28.354684 -26.057812 57.481617
28.448276 -24.656357 57.001028
28.458439 -24.777874 58.20714
28.278426 -27.522116 57.91654
28.354684 -26.057812 57.481617
22.248358 -18.924208 72.760433
21.384666 -18.749848 72.88652
23.06109 -19.090075 72.548298
22.248358 -18.924208 72.760433
22.503185 -20.235172 72.607643
23.784989 -19.200803 72.275925
23.06109 -19.090075 72.548298
26.802381 -19.7117 69.656261
26.316404 -19.71276 70.310383
26.440417 -21.088233 69.88784
27.230568 -19.750165 68.940273
26.802381 -19.7117 69.656261
27.609873 -19.796453 68.126633
27.230568 -19.750165 68.940273
27.305698 -21.133461 68.420078
27.953783 -19.76023 67.228645
27.609873 -19.796453 68.126633
27.950137 -21.238882 66.693439
28.218917 -19.819362 66.315647
27.953783 -19.76023 67.228645
27.335077 -30.382293 64.513329
27.345473 -29.089628 65.122203
27.077065 -30.34252 65.508808
27.564603 -30.446191 63.489847
27.335077 -30.382293 64.513329
27.728147 -30.467596 62.437225
27.767029 -29.150807 63.074102
27.564603 -30.446191 63.489847
27.888065 -30.395823 61.32333
27.728147 -30.467596 62.437225
-31.817449 14.410517 26.294713
-31.818258 13.330756 26.824634
-32.409863 14.776281 25.229919
-31.817449 14.410517 26.294713
14.913709 -24.149848 71.867405
14.673604 -22.949978 71.827297
13.986961 -23.81865 71.590271
15.935773 -24.515984 72.122894
14.913709 -24.149848 71.867405
9.071932 -13.676648 69.274757
8.480393 -12.592713 68.903217
8.474689 -14.556949 69.055797
9.494757 -14.69811 69.55183
9.071932 -13.676648 69.274757
6.920978 -13.358898 68.1917
7.415461 -12.564451 68.37014
6.284574 -12.387863 67.783115
-24.363078 -4.664118 41.621038
-23.647447 -5.045967 42.514037
-25.114923 -4.284325 40.664047
-24.363078 -4.664118 41.621038
-24.742396 -3.65529 41.054441
-25.92235 -3.901372 39.66019
-25.543031 -4.9102 40.226788
-25.114923 -4.284325 40.664047
-28.863284 -2.307684 35.927494
-28.563216 -3.334315 36.448666
-28.097672 -2.71646 36.892181
-33.768214 3.383897 28.413087
-33.050286 3.134556 29.435851
-33.274111 4.139513 28.807793
-34.516239 3.605863 27.332597
-34.662689 4.624706 26.766208
-35.18689 3.841715 26.313775
-33.768214 3.383897 28.413087
-34.516239 3.605863 27.332597
-37.308039 17.165105 14.94886
-37.455092 16.099711 15.561508
-36.875889 17.059521 16.043408
-37.705275 17.307223 13.829462
-37.308039 17.165105 14.94886
-38.043198 17.473583 12.679508
-38.225164 16.371654 13.317007
-37.705275 17.307223 13.829462
-38.336464 17.672632 11.544569
-38.043198 17.473583 12.679508
-38.562587 17.800328 10.488412
-38.789211 16.665711 11.110897
-38.336464 17.672632 11.544569
-38.79315 17.895632 9.375101
-38.562587 17.800328 10.488412
-38.340402 18.902553 9.808773
-38.433326 20.11465 7.035305
-38.693285 19.093603 7.60609
-38.311007 20.018906 8.124676
-38.530327 20.260001 5.923813
-38.433326 20.11465 7.035305
29.090038 -16.425137 60.21205
29.068545 -16.558532 61.302225
28.989477 -17.727604 59.539785
29.090038 -16.425137 60.21205
28.894869 -19.234892 59.908997
28.886378 -19.051718 58.817014
28.989477 -17.727604 59.539785
23.189134 -24.23416 72.017288
23.036009 -22.86138 72.226959
22.488631 -24.057029 72.296051
23.909785 -24.368744 71.642135
23.189134 -24.23416 72.017288
24.573767 -24.570474 71.169761
24.400493 -23.240241 71.475822
23.909785 -24.368744 71.642135
24.728541 -25.922019 70.74633
24.828117 -27.239724 70.398896
25.21925 -24.793515 70.580017
24.573767 -24.570474 71.169761
24.728541 -25.922019 70.74633
26.710764 -27.808423 67.556278
26.688966 -26.493917 68.045468
26.332606 -27.808691 68.323929
26.720932 -29.086526 66.976212
27.077293 -27.771752 66.69775
26.710764 -27.808423 67.556278
26.772887 -30.271449 66.387753
26.720932 -29.086526 66.976212
27.077065 -30.34252 65.508808
26.772887 -30.271449 66.387753
-13.567543 -3.159975 53.102507
-13.2109 -4.137803 53.630252
-12.714105 -3.648341 53.958536
-13.911522 -2.188207 52.553913
-14.408317 -2.677669 52.225629
-13.567543 -3.159975 53.102507
-12.197258 -3.121112 54.273105
-11.666931 -2.681114 54.612682
-14.195567 -1.246601 52.059443
-13.911522 -2.188207 52.553913
-15.016918 -0.798039 51.18185
-14.195567 -1.246601 52.059443
-1.358068 -7.762912 62.878647
-0.362077 -7.878132 63.503084
-1.824232 -8.429707 62.705427
-1.358068 -7.762912 62.878647
-2.397876 -7.490295 62.195345
-5.424078 -6.738413 60.102716
-4.434354 -6.983536 60.804994
-5.96689 -7.289404 59.837675
-5.424078 -6.738413 60.102716
-6.469309 -6.360453 59.325561
-9.215153 -5.273416 57.131493
-8.336284 -5.629524 57.858776
-9.694012 -5.862748 56.882017
-9.215153 -5.273416 57.131493
-10.103262 -4.941841 56.382563
2.375769 -9.032568 65.271393
1.787338 -8.117446 64.799576
1.898489 -9.862224 65.115448
2.921574 -9.971396 65.708298
2.375769 -9.032568 65.271393
-28.324801 10.190459 32.799371
-27.622194 9.709324 33.871427
-28.879606 9.541308 32.345719
-28.324801 10.190459 32.799371
-29.037858 10.574024 31.754718
-30.304616 10.372572 30.194692
-29.730286 10.986662 30.687066
-30.442239 11.434361 29.580693
-33.032402 15.115956 24.127455
-33.066052 14.066934 24.650852
-32.409863 14.776281 25.229919
-33.61981 15.493375 22.995578
-33.032402 15.115956 24.127455
-34.176572 15.777112 21.949296
-34.245354 14.690346 22.502106
-33.61981 15.493375 22.995578
-34.741573 16.04976 20.832071
-34.176572 15.777112 21.949296
-35.348404 16.270612 19.639459
-35.408947 15.194935 20.263212
-34.741573 16.04976 20.832071
-35.893006 16.549758 18.435791
-35.348404 16.270612 19.639459
-36.396587 16.838928 17.228518
-36.51936 15.704957 17.863327
-35.893006 16.549758 18.435791
-36.875889 17.059521 16.043408
-36.396587 16.838928 17.228518
19.742261 -16.050528 72.911492
18.794772 -15.989976 72.793148
20.191271 -17.331936 72.924065
19.742261 -16.050528 72.911492
20.530454 -18.612684 72.933956
20.191271 -17.331936 72.924065
19.642846 -18.514229 72.904758
20.836241 -19.932141 72.867214
21.384666 -18.749848 72.88652
20.530454 -18.612684 72.933956
17.809214 -24.94789 72.455211
16.887806 -24.719684 72.322837
18.421667 -23.951104 72.584625
17.809214 -24.94789 72.455211
18.726463 -25.210419 72.535518
21.857418 -25.08096 72.31477
22.488631 -24.057029 72.296051
21.704293 -23.708181 72.52444
21.857418 -25.08096 72.31477
21.245963 -26.057528 72.340561
-18.283276 -8.335637 49.063158
-17.892323 -9.3943 49.517409
-17.465557 -8.864968 49.991658
-19.077701 -7.831651 48.131235
-18.283276 -8.335637 49.063158
-18.650935 -7.302318 48.605484
-19.814948 -7.414351 47.259701
-19.077701 -7.831651 48.131235
-20.569744 -6.978796 46.342817
-19.814948 -7.414351 47.259701
-20.200156 -6.362777 46.756677
-21.36507 -6.47458 45.37661
-20.569744 -6.978796 46.342817
-22.130798 -5.982244 44.417682
-21.36507 -6.47458 45.37661
-21.72068 -5.434886 44.880867
-22.895376 -5.4997 43.46929
-22.130798 -5.982244 44.417682
-23.23848 -4.488817 42.966686
-23.647447 -5.045967 42.514037
-22.895376 -5.4997 43.46929
-16.975686 2.141786 48.446281
-16.258961 1.595302 49.314527
-17.486513 1.617243 48.074402
-16.975686 2.141786 48.446281
-17.723508 2.653298 47.533455
-18.981739 2.632663 46.212721
-18.448735 3.14598 46.636723
-18.749923 1.625186 46.758465
-18.981739 2.632663 46.212721
-19.497327 2.129094 45.80961
-24.559087 5.797764 38.907908
-24.407429 4.793034 39.396842
-23.829202 5.325971 39.915493
-25.289651 6.229154 37.896772
-24.559087 5.797764 38.907908
-26.007203 6.710311 36.883405
-25.854866 5.745983 37.375889
-25.289651 6.229154 37.896772
-26.143 7.675396 36.392508
-26.708216 7.192225 35.871624
-26.007203 6.710311 36.883405
-26.299709 8.742303 35.85039
-26.143 7.675396 36.392508
-26.960927 9.209107 34.866604
-26.299709 8.742303 35.85039
3.950845 -19.877412 66.916569
4.616123 -19.159147 67.288883
3.555069 -18.826159 66.687111
4.324698 -20.950626 67.107949
3.950845 -19.877412 66.916569
2.495279 -18.537092 66.08039
1.408454 -18.26336 65.426868
-5.029236 -17.857035 61.082195
-3.988051 -18.256172 61.824337
-4.409161 -17.25094 61.595444
-6.072707 -17.529227 60.282639
-6.432491 -16.498473 60.106111
-7.054854 -17.175897 59.535448
-5.029236 -17.857035 61.082195
-6.072707 -17.529227 60.282639
-11.708066 -13.485927 55.791273
-10.789203 -13.906063 56.608174
-11.198854 -12.910584 56.300959
-11.708066 -13.485927 55.791273
-12.574987 -13.070938 54.986952
-13.42555 -12.596462 54.17808
-14.271327 -12.139835 53.344626
16.894678 -15.742019 72.404613
17.815452 -15.839647 72.626785
15.895858 -15.517136 72.125271
14.811774 -15.398582 71.769985
16.346202 -16.707939 72.282798
16.894678 -15.742019 72.404613
15.895858 -15.517136 72.125271
11.65706 -14.886575 70.530953
10.584357 -14.82284 70.056076
12.140625 -16.062275 70.790276
12.72097 -15.12098 70.979866
11.65706 -14.886575 70.530953
11.929547 -23.216583 70.846821
12.974021 -23.498901 71.241108
12.702381 -22.336463 71.155876
10.920189 -22.905753 70.426571
10.611676 -21.796884 70.302445
9.873958 -22.648491 69.967427
11.929547 -23.216583 70.846821
10.920189 -22.905753 70.426571
-25.983942 -5.500587 39.719978
-26.775914 -5.154141 38.76503
-29.664021 -1.965732 34.904716
-28.863284 -2.307684 35.927494
-29.198476 -1.347877 35.348232
-32.550427 1.03859 30.697546
-32.806452 2.09965 30.06499
-31.768421 0.715939 31.750366
-32.550427 1.03859 30.697546
-31.069102 0.360838 32.708002
-31.369197 1.465259 32.046472
-31.768421 0.715939 31.750366
-30.73377 -0.697203 33.368675
-30.334546 0.052117 33.664782
-31.069102 0.360838 32.708002
-30.429828 -1.703299 33.948391
-30.73377 -0.697203 33.368675
-29.664021 -1.965732 34.904716
-30.429828 -1.703299 33.948391
-39.415442 9.018884 15.968986
-39.427845 7.923604 16.597994
-39.057135 9.023936 17.008548
-39.754568 9.028935 14.922495
-39.415442 9.018884 15.968986
-39.383857 10.129267 15.33305
-39.991872 9.085626 13.861745
-39.754568 9.028935 14.922495
-40.213953 9.160056 12.752065
-39.991872 9.085626 13.861745
-39.945065 10.213748 13.176879
-40.334299 9.110627 11.689972
-40.213953 9.160056 12.752065
-40.334299 9.110627 11.689972
-40.265949 10.25545 11.041045
-40.251848 11.341141 9.209345
-40.187717 11.325082 10.29168
-40.074812 12.443502 9.486133
-40.251848 11.341141 9.209345
-40.212384 11.317053 8.190618
-39.112082 18.179794 5.139794
-39.087044 18.150433 6.159866
-38.840643 19.218708 5.496647
-39.280647 17.091804 4.808963
-39.112082 18.179794 5.139794
24.509677 -19.346991 71.890709
23.784989 -19.200803 72.275925
24.040605 -20.547226 72.010292
25.180839 -19.490683 71.43523
25.359867 -20.891353 71.083519
25.775413 -19.688623 70.893673
24.509677 -19.346991 71.890709
25.180839 -19.490683 71.43523
28.432208 -19.871049 65.337479
28.218917 -19.819362 66.315647
28.616639 -19.745211 64.289486
28.432208 -19.871049 65.337479
28.399702 -21.172176 64.732449
28.746249 -19.587153 63.23588
28.616639 -19.745211 64.289486
28.669207 -20.970576 62.559858
28.831322 -19.511391 62.111283
28.746249 -19.587153 63.23588
28.160299 -28.945052 58.382358
28.278426 -27.522116 57.91654
28.24672 -27.602265 59.153548
27.987075 -30.322317 60.122273
28.029583 -29.098706 60.820424
27.888065 -30.395823 61.32333
28.072014 -30.281338 58.900982
27.987075 -30.322317 60.122273
28.160299 -28.945052 58.382358
28.072014 -30.281338 58.900982
3 0 65 63
3 2 68 66
3 0 71 69
3 0 63 71
3 2 259 260
3 2 261 263
3 261 66 262
3 261 262 263
3 1 76 74
3 3 79 77
3 3 80 79
3 3 81 80
3 264 84 265
3 266 265 82
3 264 265 266
3 6 267 269
3 267 86 268
3 267 268 269
3 6 88 86
3 6 90 88
3 8 93 91
3 10 270 271
3 11 96 94
3 11 98 96
3 272 100 273
3 12 103 102
3 13 105 104
3 13 106 105
3 4 109 107
3 14 112 110
3 14 274 276
3 276 275 112
3 274 275 276
3 14 277 278
3 10 279 281
3 281 280 114
3 279 280 281
3 10 282 283
3 12 117 115
3 12 102 117
3 285 284 119
3 5 122 120
3 7 125 123
3 15 128 126
3 15 130 128
3 15 131 130
3 16 133 132
3 16 134 133
3 9 136 135
3 17 139 137
3 17 140 139
3 17 142 140
3 287 286 144
3 18 148 146
3 20 149 64
3 20 150 149
3 21 153 151
3 23 154 67
3 23 155 154
3 24 158 156
3 26 159 70
3 26 160 159
3 26 162 160
3 18 163 72
3 18 146 163
3 288 164 289
3 21 165 73
3 21 151 165
3 29 167 166
3 31 168 75
3 31 169 168
3 32 172 170
3 291 290 78
3 33 292 293
3 33 294 295
3 296 174 297
3 299 298 174
3 300 176 301
3 302 177 303
3 304 303 176
3 302 303 304
3 305 179 306
3 307 180 308
3 309 308 179
3 307 308 309
3 311 310 180
3 37 312 314
3 314 313 182
3 312 313 314
3 315 186 316
3 317 316 184
3 315 316 317
3 318 187 319
3 320 188 321
3 322 321 187
3 320 321 322
3 323 189 324
3 325 190 326
3 327 326 189
3 325 326 327
3 37 328 330
3 328 191 329
3 328 329 330
3 37 182 191
3 331 184 332
3 40 194 192
3 42 195 83
3 42 196 195
3 333 197 334
3 43 198 85
3 43 199 198
3 43 200 199
3 44 201 87
3 44 202 201
3 44 204 202
3 46 205 89
3 46 206 205
3 47 335 337
3 335 207 336
3 335 336 337
3 48 208 92
3 48 209 208
3 338 210 339
3 340 339 145
3 338 339 340
3 341 211 342
3 343 212 344
3 345 344 211
3 343 344 345
3 347 346 212
3 19 213 147
3 49 214 95
3 49 215 214
3 49 216 215
3 50 217 97
3 50 218 217
3 38 219 183
3 51 220 99
3 51 221 220
3 348 222 349
3 52 350 352
3 350 223 351
3 350 351 352
3 52 224 223
3 52 225 224
3 53 226 101
3 53 227 226
3 53 228 227
3 22 353 355
3 355 354 152
3 353 354 355
3 39 229 185
3 54 230 108
3 54 231 230
3 25 232 157
3 55 233 111
3 55 234 233
3 55 235 234
3 357 356 113
3 27 358 360
3 360 359 161
3 358 359 360
3 56 361 363
3 361 236 362
3 361 362 363
3 56 237 236
3 28 364 366
3 364 238 365
3 364 365 366
3 57 239 116
3 57 240 239
3 57 241 240
3 368 367 118
3 30 369 370
3 41 242 193
3 58 243 121
3 58 244 243
3 371 245 372
3 373 372 171
3 371 372 373
3 45 246 203
3 59 247 124
3 59 248 247
3 34 249 173
3 60 250 127
3 60 251 250
3 60 374 376
3 376 375 251
3 374 375 376
3 378 377 129
3 380 379 175
3 35 252 178
3 382 381 138
3 61 253 141
3 61 254 253
3 36 255 181
3 62 256 143
3 62 257 256
3 62 258 257
3 63 64 18
3 65 64 63
3 65 20 64
3 66 67 21
3 68 67 66
3 68 23 67
3 69 70 24
3 71 70 69
3 71 26 70
3 71 72 26
3 63 72 71
3 63 18 72
3 383 73 384
3 66 385 387
3 385 73 386
3 385 386 387
3 66 21 73
3 74 75 29
3 76 75 74
3 76 31 75
3 77 78 32
3 79 78 77
3 79 388 390
3 390 389 78
3 388 389 390
3 79 391 392
3 80 393 395
3 395 394 79
3 393 394 395
3 80 396 397
3 80 398 399
3 81 400 402
3 402 401 80
3 400 401 402
3 81 403 405
3 403 33 404
3 403 404 405
3 407 406 37
3 408 37 409
3 82 83 40
3 84 83 82
3 84 42 83
3 410 85 411
3 86 412 414
3 412 85 413
3 412 413 414
3 86 43 85
3 86 87 43
3 88 87 86
3 88 44 87
3 88 89 44
3 90 89 88
3 90 46 89
3 91 92 47
3 93 92 91
3 93 48 92
3 94 95 19
3 96 95 94
3 96 49 95
3 96 97 49
3 98 97 96
3 98 50 97
3 415 99 416
3 417 416 38
3 415 416 417
3 100 418 420
3 418 99 419
3 418 419 420
3 100 51 99
3 421 52 422
3 423 101 424
3 425 424 52
3 423 424 425
3 426 101 427
3 428 53 429
3 430 429 101
3 428 429 430
3 432 431 53
3 102 433 434
3 103 435 437
3 437 436 102
3 435 436 437
3 103 438 439
3 104 440 442
3 442 441 22
3 440 441 442
3 105 443 445
3 445 444 104
3 443 444 445
3 105 446 447
3 105 448 449
3 106 450 452
3 452 451 105
3 450 451 452
3 106 453 454
3 107 108 39
3 109 108 107
3 109 54 108
3 110 111 25
3 112 111 110
3 112 55 111
3 112 113 55
3 455 113 456
3 457 456 112
3 455 456 457
3 459 458 113
3 114 460 462
3 462 461 27
3 460 461 462
3 464 463 114
3 465 56 466
3 115 116 28
3 117 116 115
3 117 57 116
3 117 118 57
3 102 118 117
3 102 467 469
3 469 468 118
3 467 468 469
3 119 470 472
3 472 471 30
3 470 471 472
3 474 473 119
3 120 121 41
3 122 121 120
3 122 58 121
3 123 124 45
3 125 124 123
3 125 59 124
3 126 127 34
3 128 127 126
3 128 60 127
3 128 129 60
3 130 129 128
3 130 475 477
3 477 476 129
3 475 476 477
3 130 478 479
3 131 480 482
3 482 481 130
3 480 481 482
3 131 483 484
3 132 485 486
3 133 487 489
3 489 488 132
3 487 488 489
3 133 490 491
3 133 492 493
3 134 494 496
3 496 495 133
3 494 495 496
3 134 497 498
3 135 499 500
3 136 501 503
3 503 502 135
3 501 502 503
3 136 504 505
3 137 138 35
3 139 138 137
3 139 506 508
3 508 507 138
3 506 507 508
3 139 509 510
3 140 511 513
3 513 512 139
3 511 512 513
3 140 514 515
3 140 516 518
3 516 141 517
3 516 517 518
3 142 141 140
3 142 61 141
3 519 143 520
3 521 520 36
3 519 520 521
3 522 143 523
3 524 62 525
3 526 525 143
3 524 525 526
3 528 527 62
3 529 6 530
3 532 531 6
3 144 145 8
3 533 145 534
3 535 534 144
3 533 534 535
3 537 536 145
3 146 147 10
3 148 147 146
3 148 19 147
3 64 148 18
3 149 148 64
3 149 19 148
3 149 94 19
3 150 94 149
3 150 11 94
3 151 152 12
3 153 152 151
3 153 22 152
3 67 153 21
3 154 153 67
3 154 22 153
3 154 104 22
3 155 104 154
3 155 13 104
3 156 157 4
3 158 157 156
3 158 25 157
3 70 158 24
3 159 158 70
3 159 25 158
3 159 110 25
3 160 110 159
3 160 14 110
3 160 161 14
3 162 161 160
3 162 27 161
3 72 162 26
3 163 162 72
3 163 27 162
3 163 114 27
3 146 114 163
3 146 10 114
3 164 538 539
3 164 540 542
3 540 28 541
3 540 541 542
3 73 543 545
3 543 164 544
3 543 544 545
3 165 164 73
3 165 28 164
3 165 115 28
3 151 115 165
3 151 12 115
3 166 546 547
3 167 548 550
3 550 549 166
3 548 549 550
3 167 551 553
3 551 30 552
3 551 552 553
3 75 167 29
3 168 167 75
3 168 30 167
3 168 119 30
3 169 119 168
3 169 554 556
3 556 555 119
3 554 555 556
3 170 171 5
3 172 171 170
3 172 557 559
3 559 558 171
3 557 558 559
3 78 172 32
3 560 172 561
3 562 561 78
3 560 561 562
3 564 563 172
3 565 173 566
3 567 566 7
3 565 566 567
3 568 173 569
3 570 34 571
3 572 571 173
3 570 571 572
3 573 34 574
3 575 126 576
3 577 576 34
3 575 576 577
3 174 578 580
3 578 126 579
3 578 579 580
3 174 15 126
3 174 175 15
3 581 175 582
3 583 582 174
3 581 582 583
3 585 584 175
3 176 586 587
3 176 588 589
3 176 590 592
3 590 132 591
3 590 591 592
3 177 132 176
3 177 16 132
3 593 178 594
3 595 594 9
3 593 594 595
3 596 178 597
3 598 35 599
3 600 599 178
3 598 599 600
3 179 601 602
3 179 603 605
3 603 35 604
3 603 604 605
3 179 137 35
3 180 137 179
3 180 17 137
3 180 181 17
3 606 181 607
3 608 607 180
3 606 607 608
3 609 36 610
3 611 610 181
3 609 610 611
3 612 36 613
3 615 614 36
3 182 183 0
3 616 183 617
3 618 617 182
3 616 617 618
3 619 38 620
3 621 620 183
3 619 620 621
3 623 622 37
3 624 38 625
3 627 626 38
3 184 185 2
3 186 185 184
3 186 39 185
3 628 186 629
3 187 630 632
3 630 186 631
3 630 631 632
3 187 39 186
3 187 107 39
3 188 107 187
3 188 4 107
3 633 188 634
3 189 635 637
3 635 188 636
3 635 636 637
3 189 4 188
3 189 156 4
3 190 156 189
3 190 24 156
3 638 190 639
3 191 640 642
3 640 190 641
3 640 641 642
3 191 24 190
3 191 69 24
3 182 69 191
3 182 0 69
3 184 643 644
3 184 645 647
3 645 2 646
3 645 646 647
3 192 193 1
3 194 193 192
3 194 41 193
3 83 194 40
3 195 194 83
3 195 41 194
3 195 120 41
3 196 120 195
3 196 5 120
3 648 84 649
3 197 650 652
3 650 84 651
3 650 651 652
3 197 42 84
3 85 653 655
3 653 197 654
3 653 654 655
3 198 197 85
3 198 42 197
3 198 196 42
3 199 196 198
3 199 5 196
3 199 170 5
3 200 170 199
3 200 32 170
3 87 200 43
3 201 200 87
3 201 32 200
3 201 77 32
3 202 77 201
3 202 3 77
3 202 203 3
3 204 203 202
3 204 45 203
3 89 204 44
3 205 204 89
3 205 45 204
3 205 123 45
3 206 123 205
3 206 7 123
3 656 90 657
3 658 657 6
3 656 657 658
3 659 90 660
3 661 46 662
3 663 662 90
3 661 662 663
3 664 46 665
3 666 206 667
3 668 667 46
3 666 667 668
3 669 206 670
3 671 7 672
3 673 672 206
3 671 672 673
3 675 674 7
3 207 676 677
3 207 678 679
3 92 207 47
3 208 207 92
3 208 680 682
3 682 681 207
3 680 681 682
3 208 683 685
3 683 135 684
3 683 684 685
3 209 135 208
3 209 9 135
3 145 93 8
3 210 93 145
3 210 48 93
3 686 210 687
3 211 688 690
3 688 210 689
3 688 689 690
3 211 48 210
3 211 209 48
3 212 209 211
3 212 9 209
3 212 691 693
3 693 692 9
3 691 692 693
3 695 694 212
3 147 696 698
3 698 697 10
3 696 697 698
3 213 699 701
3 701 700 147
3 699 700 701
3 213 702 703
3 95 213 19
3 214 213 95
3 214 704 706
3 706 705 213
3 704 705 706
3 214 707 708
3 215 709 711
3 711 710 214
3 709 710 711
3 215 712 713
3 215 714 716
3 714 166 715
3 714 715 716
3 216 166 215
3 216 29 166
3 97 216 49
3 217 216 97
3 217 29 216
3 217 74 29
3 218 74 217
3 218 1 74
3 183 65 0
3 219 65 183
3 219 20 65
3 99 219 38
3 220 219 99
3 220 20 219
3 220 150 20
3 221 150 220
3 221 11 150
3 717 100 718
3 222 719 721
3 719 100 720
3 719 720 721
3 222 51 100
3 722 222 723
3 223 724 726
3 724 222 725
3 724 725 726
3 223 51 222
3 223 221 51
3 224 221 223
3 224 11 221
3 224 98 11
3 225 98 224
3 225 50 98
3 101 225 52
3 226 225 101
3 226 50 225
3 226 218 50
3 227 218 226
3 227 1 218
3 227 192 1
3 228 192 227
3 228 40 192
3 727 228 728
3 729 728 53
3 727 728 729
3 730 228 731
3 732 40 733
3 734 733 228
3 732 733 734
3 735 82 736
3 737 736 40
3 735 736 737
3 738 82 739
3 741 740 82
3 152 103 12
3 742 103 743
3 744 743 152
3 742 743 744
3 746 745 103
3 748 747 22
3 185 68 2
3 229 68 185
3 229 23 68
3 108 229 39
3 230 229 108
3 230 23 229
3 230 155 23
3 231 155 230
3 231 13 155
3 157 109 4
3 232 109 157
3 232 54 109
3 111 232 25
3 233 232 111
3 233 54 232
3 233 231 54
3 234 231 233
3 234 13 231
3 234 106 13
3 235 106 234
3 235 749 751
3 751 750 106
3 749 750 751
3 113 235 55
3 752 235 753
3 754 753 113
3 752 753 754
3 756 755 235
3 161 757 759
3 759 758 14
3 757 758 759
3 761 760 161
3 763 762 27
3 764 47 765
3 236 766 767
3 236 768 770
3 768 47 769
3 768 769 770
3 236 91 47
3 237 91 236
3 237 8 91
3 238 771 772
3 238 773 775
3 773 56 774
3 773 774 775
3 116 238 28
3 239 238 116
3 239 56 238
3 239 237 56
3 240 237 239
3 240 8 237
3 240 144 8
3 241 144 240
3 241 776 778
3 778 777 144
3 776 777 778
3 118 241 57
3 779 241 780
3 781 780 118
3 779 780 781
3 783 782 241
3 785 784 30
3 193 76 1
3 242 76 193
3 242 31 76
3 121 242 41
3 243 242 121
3 243 31 242
3 243 169 31
3 244 169 243
3 244 786 788
3 788 787 169
3 786 787 788
3 171 122 5
3 245 122 171
3 245 58 122
3 789 245 790
3 791 245 792
3 793 58 794
3 795 794 245
3 793 794 795
3 796 244 797
3 798 797 58
3 796 797 798
3 799 244 800
3 802 801 244
3 203 81 3
3 246 81 203
3 246 33 81
3 124 246 45
3 247 246 124
3 247 33 246
3 247 803 805
3 805 804 33
3 803 804 805
3 248 806 808
3 808 807 247
3 806 807 808
3 248 809 810
3 173 125 7
3 249 125 173
3 249 59 125
3 127 249 34
3 250 249 127
3 250 59 249
3 250 248 59
3 251 248 250
3 251 811 813
3 813 812 248
3 811 812 813
3 251 814 815
3 817 816 251
3 129 818 820
3 820 819 60
3 818 819 820
3 822 821 129
3 175 131 15
3 823 131 824
3 825 824 175
3 823 824 825
3 827 826 131
3 178 136 9
3 252 136 178
3 252 828 830
3 830 829 136
3 828 829 830
3 138 252 35
3 831 252 832
3 833 832 138
3 831 832 833
3 835 834 252
3 141 836 837
3 253 838 840
3 840 839 141
3 838 839 840
3 253 841 842
3 253 843 845
3 843 177 844
3 843 844 845
3 254 177 253
3 254 16 177
3 181 142 17
3 255 142 181
3 255 61 142
3 143 255 36
3 256 255 143
3 256 61 255
3 256 254 61
3 257 254 256
3 257 16 254
3 257 134 16
3 258 134 257
3 258 846 848
3 848 847 134
3 846 847 848
3 849 258 850
3 851 850 62
3 849 850 851
3 852 258 853
3 855 854 258
