ply
format ascii 1.0
element vertex 176
property float x
property float y
property float z
element face 163
property list uchar int vertex_index
end_header
-22.337431 46.181484 -51.025429
-28.943462 50.868393 -47.705826
-21.577196 52.104603 -51.983803
-19.109072 44.969933 -51.817654
-31.657909 53.53941 -44.877621
-30.280018 60.490906 -47.194698
-27.666294 57.595451 -49.557453
-23.079561 59.685081 -52.059589
-25.895142 48.411285 -49.641113
-24.643322 54.417309 -51.110401
-21.11426 54.738537 -52.313644
-20.133144 51.60804 -52.252316
-31.404972 61.827423 -45.670513
-30.303427 52.015213 -46.454716
-30.843588 48.212837 -45.219345
-29.411924 47.13538 -46.625824
-27.788309 45.887436 -47.85984
-26.118477 44.713097 -48.863369
-27.439455 49.706005 -48.791588
-26.836586 60.294838 -50.306664
-26.137745 55.924522 -50.458809
-25.388365 58.749348 -51.084885
-24.00839 57.364517 -51.628372
-24.500025 61.359173 -51.584633
-22.036623 49.441422 -51.560146
-20.702631 45.310886 -51.448853
-20.414408 48.658459 -51.917789
-18.854639 48.045109 -52.165565
-32.836365 54.718456 -43.078747
-32.177246 58.52346 -44.411606
-31.028494 56.986603 -46.074013
-29.819754 56.030151 -47.457172
-28.428303 54.349796 -48.631424
-29.044476 58.864475 -48.460003
-28.277042 62.035664 -49.263485
-21.735699 57.949486 -52.357056
-32.149155 49.742466 -43.664944
-24.081144 47.186356 -50.435101
-26.866133 53.019619 -49.671776
-25.240274 51.435596 -50.459206
-23.615648 50.338448 -51.091991
-23.154848 53.490417 -51.631927
-22.482819 55.892414 -52.056259
-20.41564 54.429665 -52.3999
-20.855649 55.654812 -52.411182
-21.619493 44.026673 -50.964733
-22.520927 44.536631 -50.697005
-25.61942 60.81921 -51.017222
-26.112476 59.522093 -50.695774
-26.34353 61.591955 -50.628111
-25.17525 62.124122 -51.267095
-24.944195 60.05426 -51.334759
-25.61942 60.81921 -51.017222
-18.736314 49.488985 -52.289167
-19.493892 49.826574 -52.20894
-19.375567 51.270451 -52.332543
-18.004822 47.903447 -52.269596
-18.736314 49.488985 -52.289167
-32.303383 61.044863 -44.110779
-32.65559 59.093224 -43.510599
-28.341017 64.355493 -49.141989
-28.881074 62.8258 -48.680555
-27.712023 63.40576 -49.688956
-28.341017 64.355493 -49.141989
-19.157091 43.304062 -51.607473
-19.95387 43.474539 -51.423073
-19.905852 45.14041 -51.633253
-31.013127 46.349888 -44.651266
-30.311619 45.787529 -45.356956
-25.194167 46.182991 -49.6669
-25.305835 44.333897 -49.278028
-26.006809 46.562191 -49.252241
-24.988143 47.798821 -50.038107
-24.287168 45.570526 -50.063895
-25.194167 46.182991 -49.6669
-19.925082 52.864416 -52.369236
-20.623702 53.173288 -52.28298
-20.41564 54.429665 -52.3999
-19.375567 51.270451 -52.332543
-19.925082 52.864416 -52.369236
-31.491407 64.235775 -45.358013
-31.917246 62.696844 -44.740233
-30.978929 63.529899 -46.20949
-31.491407 64.235775 -45.358013
-31.065363 65.938252 -45.89699
-30.416452 62.861641 -46.971582
-30.842495 61.159165 -46.432606
-30.978929 63.529899 -46.20949
-29.882562 62.053421 -47.646162
-30.416452 62.861641 -46.971582
-18.325895 43.173924 -51.800619
-18.219468 44.774933 -51.971229
-29.595787 45.248801 -46.060196
-30.311619 45.787529 -45.356956
-30.127756 47.674109 -45.922584
-28.78424 44.68045 -46.718626
-29.595787 45.248801 -46.060196
-27.972433 44.056478 -47.335634
-28.78424 44.68045 -46.718626
-28.600116 46.511408 -47.242832
-27.092764 43.431769 -47.895381
-27.972433 44.056478 -47.335634
-26.953393 45.300266 -48.361604
-26.257848 42.844599 -48.397146
-27.092764 43.431769 -47.895381
-18.092251 46.312521 -52.145185
-18.219468 44.774933 -51.971229
-18.981856 46.507521 -51.991609
-18.092251 46.312521 -52.145185
-18.004822 47.903447 -52.269596
-32.98515 57.190722 -42.844169
-33.316006 55.481232 -42.138768
-32.506805 56.620958 -43.745176
-32.98515 57.190722 -42.844169
-32.65559 59.093224 -43.510599
-31.791109 60.175442 -45.04106
-32.303383 61.044863 -44.110779
-31.917246 62.696844 -44.740233
-29.264791 61.240206 -48.278814
-29.662247 59.67769 -47.827351
-29.882562 62.053421 -47.646162
-28.660759 60.450069 -48.861744
-29.264791 61.240206 -48.278814
-28.881074 62.8258 -48.680555
-26.991795 62.535347 -50.210545
-27.556814 61.165251 -49.785075
-27.712023 63.40576 -49.688956
-26.34353 61.591955 -50.628111
-26.991795 62.535347 -50.210545
-20.802093 43.591374 -51.176445
-21.619493 44.026673 -50.964733
-21.520031 45.746185 -51.237141
-20.802093 43.591374 -51.176445
-19.95387 43.474539 -51.423073
-19.157091 43.304062 -51.607473
-18.325895 43.173924 -51.800619
-24.556596 63.310091 -51.534788
-25.17525 62.124122 -51.267095
-23.947211 62.339258 -51.776254
-24.556596 63.310091 -51.534788
-23.236978 61.502212 -52.013733
-23.789793 60.522127 -51.822111
-23.947211 62.339258 -51.776254
-22.525526 60.486919 -52.202486
-23.236978 61.502212 -52.013733
-21.853595 59.619121 -52.351219
-22.40763 58.817284 -52.208323
-22.525526 60.486919 -52.202486
-21.214734 58.603442 -52.451531
-21.853595 59.619121 -52.351219
-21.166369 57.260286 -52.432888
-21.214734 58.603442 -52.451531
-33.098074 52.87714 -42.422232
-33.316006 55.481232 -42.138768
-32.754469 50.389145 -42.715331
-33.098074 52.87714 -42.422232
-32.49276 52.230461 -43.371845
-32.394654 47.764269 -42.954401
-32.754469 50.389145 -42.715331
-31.665911 47.114702 -43.874066
-31.496372 48.977652 -44.442144
-31.013127 46.349888 -44.651266
-32.394654 47.764269 -42.954401
-31.665911 47.114702 -43.874066
-25.425283 42.450283 -48.853555
-26.257848 42.844599 -48.397146
-25.425283 42.450283 -48.853555
-25.305835 44.333897 -49.278028
-23.392783 45.039067 -50.401841
-24.287168 45.570526 -50.063895
-23.209287 46.68392 -50.730265
-22.520927 44.536631 -50.697005
-23.392783 45.039067 -50.401841
-21.166369 57.260286 -52.432888
-20.855649 55.654812 -52.411182
-21.424979 56.344012 -52.33535
3 44 43 10
3 0 45 46
3 1 15 13
3 1 16 15
3 1 18 16
3 47 21 48
3 49 48 19
3 47 48 49
3 50 23 51
3 52 51 21
3 50 51 52
3 2 26 24
3 53 27 54
3 55 54 11
3 53 54 55
3 57 56 27
3 58 29 59
3 5 30 12
3 5 31 30
3 5 33 31
3 60 34 61
3 63 62 34
3 3 64 66
3 66 65 25
3 64 65 66
3 4 36 28
3 68 67 14
3 8 69 71
3 71 70 17
3 69 70 71
3 8 72 74
3 72 37 73
3 72 73 74
3 6 38 32
3 9 39 20
3 9 40 39
3 9 41 40
3 7 42 22
3 7 35 42
3 10 11 2
3 75 11 76
3 77 76 10
3 75 76 77
3 79 78 11
3 80 12 81
3 82 12 83
3 82 83 84
3 85 5 86
3 87 86 12
3 85 86 87
3 89 88 5
3 91 90 3
3 13 14 4
3 15 14 13
3 15 92 94
3 94 93 14
3 92 93 94
3 15 95 96
3 16 97 99
3 99 98 15
3 97 98 99
3 16 100 101
3 16 102 104
3 102 17 103
3 102 103 104
3 18 17 16
3 18 8 17
3 19 20 6
3 21 20 19
3 21 9 20
3 21 22 9
3 23 22 21
3 23 7 22
3 24 25 0
3 26 25 24
3 26 3 25
3 11 26 2
3 27 26 11
3 27 3 26
3 27 105 107
3 107 106 3
3 105 106 107
3 109 108 27
3 110 28 111
3 29 112 114
3 112 28 113
3 112 113 114
3 29 4 28
3 12 115 117
3 115 29 116
3 115 116 117
3 30 29 12
3 30 4 29
3 30 13 4
3 31 13 30
3 31 1 13
3 31 32 1
3 33 32 31
3 33 6 32
3 118 33 119
3 120 119 5
3 118 119 120
3 34 121 123
3 121 33 122
3 121 122 123
3 34 6 33
3 34 19 6
3 124 19 125
3 126 125 34
3 124 125 126
3 128 127 19
3 25 129 131
3 131 130 0
3 129 130 131
3 133 132 25
3 135 134 3
3 136 23 137
3 138 23 139
3 140 7 141
3 142 141 23
3 140 141 142
3 143 7 144
3 145 35 146
3 147 146 7
3 145 146 147
3 148 35 149
3 151 150 35
3 28 152 153
3 36 154 156
3 156 155 28
3 154 155 156
3 36 157 158
3 14 36 4
3 159 36 160
3 161 160 14
3 159 160 161
3 163 162 36
3 17 164 165
3 167 166 17
3 37 168 169
3 37 170 172
3 170 0 171
3 170 171 172
3 32 18 1
3 38 18 32
3 38 8 18
3 20 38 6
3 39 38 20
3 39 8 38
3 39 37 8
3 40 37 39
3 40 0 37
3 40 24 0
3 41 24 40
3 41 2 24
3 22 41 9
3 42 41 22
3 42 2 41
3 42 10 2
3 35 10 42
3 35 173 175
3 175 174 10
3 173 174 175
