ply
format ascii 1.0
element vertex 484
property float x
property float y
property float z
element face 549
property list uchar int vertex_index
end_header
-8.736671 93.161316 -27.075119
-1.238522 98.245697 -6.819683
12.588191 105.789536 -27.833925
2.545226 95.914993 4.384449
21.892311 105.857269 -24.42738
19.729342 100.79081 -36.641636
-14.229426 88.202614 -16.397032
-5.166464 97.577583 -17.938803
1.44423 100.907555 -28.542181
5.280593 104.559265 -17.699146
-10.268914 90.251869 -6.762197
9.3248 98.898705 -38.125401
-11.625905 91.296135 -21.892733
-3.058753 98.472717 -12.488165
-0.068096 101.372604 -17.994732
1.902848 101.947395 -12.238676
-3.719533 93.989616 -1.438025
-8.092038 90.160362 -1.751182
-5.889757 94.488991 -6.922797
-7.972806 94.286812 -12.374844
7.092803 103.794754 -28.62331
5.247106 100.621185 -33.545586
11.170377 102.871704 -33.568802
22.829159 95.744423 -40.258305
0.738994 97.389542 -1.089141
3.489361 101.404915 -6.326842
5.32098 100.30748 -0.426163
17.612066 106.482368 -26.575649
16.391996 104.017227 -32.65955
20.844637 103.924156 -31.065535
24.046295 99.690994 -34.920139
-16.042833 84.701599 -11.064426
-7.272789 95.689697 -22.750813
-3.750025 97.448509 -27.959652
-1.883642 99.942245 -23.337965
3.362089 103.244049 -23.393318
8.792567 105.853737 -22.905666
6.984588 104.742287 -11.446501
10.54855 106.822289 -16.619987
13.905029 107.424782 -21.618961
-12.406383 89.59362 -11.75801
-10.015993 93.122688 -17.214546
-0.051842 97.705978 -33.101227
3.82324 96.562225 -37.766983
7.675148 93.81398 -41.953545
14.928373 100.281105 -37.932785
-10.221039 92.374077 -24.534462
-12.314219 89.958305 -23.974653
-2.125009 98.48909 -9.705277
-0.712253 100.206894 -12.430669
0.29399 100.197754 -9.470554
-2.516292 96.220543 -4.153698
-4.859214 94.26622 -4.154461
-3.596316 96.393684 -6.823238
-4.594728 96.513161 -9.66145
9.803625 104.900963 -28.323803
9.071972 103.503822 -31.185469
11.865109 104.496346 -30.763054
1.703526 96.785629 1.616633
3.112203 99.089844 -1.026867
3.752653 98.083168 2.011795
-0.496335 95.22821 1.330866
19.986107 106.284775 -25.660662
19.385883 105.353096 -28.921421
21.530464 104.929199 -28.01405
25.422731 97.017639 -36.621826
-15.059965 86.722534 -13.672577
-15.899633 85.7901 -15.988153
-6.216718 96.772263 -20.459303
-4.628001 97.885994 -23.178078
-3.622553 98.856285 -20.787525
2.521458 103.016357 -17.794071
1.767259 102.569687 -20.613472
4.430274 104.092789 -20.553782
6.050222 104.63369 -23.321138
6.996816 105.365433 -20.364178
5.932065 102.777 -5.918616
5.15592 103.178726 -8.888484
12.842025 107.477516 -16.048254
12.287004 107.315025 -19.20952
14.787679 107.818268 -18.524023
16.389408 107.693611 -21.168833
-9.292903 90.098412 -4.08612
-11.291151 87.947632 -4.019037
-12.376511 87.809937 -6.44909
-13.346812 87.592995 -8.863025
-11.366384 89.959152 -9.116126
-6.742817 95.921799 -15.074112
-9.080788 93.735703 -14.842319
-7.642972 95.438034 -17.782761
-8.752362 94.484741 -20.031054
-1.110627 99.300171 -28.346409
-2.042501 97.695381 -30.528759
0.726873 99.462341 -30.915972
7.298891 99.955025 -35.906097
4.478444 98.679283 -35.761742
6.528544 97.620369 -38.219666
5.666492 95.322441 -39.948814
8.566114 96.567184 -40.119774
17.952484 102.635765 -34.687275
15.484035 102.305481 -35.396034
17.440857 100.708763 -37.343697
23.751261 104.949181 -23.39407
23.412491 104.284821 -26.715464
-13.005133 89.847382 -19.110861
-14.8115 87.427322 -18.72315
-13.62375 88.808495 -21.337885
-4.247229 98.040581 -15.295433
-2.57043 99.612152 -18.156494
-1.724841 99.971481 -15.334179
0.942195 101.774918 -14.978737
3.573378 103.404945 -14.928534
-4.945193 91.700172 0.922323
-5.968351 92.065132 -1.545491
-7.100202 92.314774 -4.288916
-8.184419 92.319946 -6.741756
-9.305774 92.222504 -9.509598
-7.085246 94.338135 -9.583746
-5.553524 96.42305 -12.360616
4.208638 102.413971 -28.699276
3.397239 100.948097 -31.1707
6.264174 102.328651 -31.298338
8.225972 101.878937 -33.646107
10.216945 101.115303 -35.806828
21.329954 98.49604 -38.518932
19.211565 98.592033 -39.262142
20.720018 96.258957 -40.888069
-0.224565 97.895088 -3.886913
1.19871 99.909302 -6.478389
2.015805 99.449287 -3.687173
4.433203 101.009186 -3.502922
-2.805229 93.472557 1.078287
-1.566891 95.746933 -1.405931
15.130195 106.283897 -27.345306
14.568471 105.085083 -30.387762
17.048246 105.38475 -29.751913
18.720436 104.106354 -31.989363
20.414314 102.456688 -33.973618
22.965105 103.283493 -30.077606
22.506435 102.021278 -33.040485
21.969336 100.228447 -36.122536
23.457481 97.918961 -37.688511
24.88242 95.20105 -39.116322
-7.845289 94.711861 -25.117792
-6.262741 95.400459 -27.662449
-5.598841 96.671387 -25.448278
-2.837345 98.796211 -25.805704
-0.290463 100.570267 -25.917879
-0.999856 100.756645 -20.881685
0.710434 101.670441 -23.426765
2.437822 102.215584 -26.092787
5.321473 103.714584 -26.216627
7.8895 104.960037 -25.757811
10.675424 106.015945 -25.392666
2.674007 101.760498 -9.2959
4.535974 103.495995 -11.90514
6.078831 104.741547 -14.575558
8.68903 105.919647 -14.049932
7.895255 105.799881 -17.292286
9.812066 106.532898 -19.799406
11.427188 106.798454 -22.332752
13.227603 106.752792 -24.801723
15.770249 107.161621 -24.186796
18.224152 107.200233 -23.473938
20.257277 106.956154 -22.379871
22.379145 106.258278 -21.091949
-15.218306 85.109543 -8.712429
-14.229665 87.305679 -11.434115
-13.271132 89.146286 -14.324279
-10.285757 91.943306 -11.97864
-11.221808 91.511009 -14.537437
-12.174157 90.764694 -16.807575
-10.907909 92.284859 -19.553406
-9.512635 93.565521 -22.413719
-4.658158 95.781204 -30.064217
-2.850095 95.878166 -32.57732
-0.983322 95.650551 -34.965904
2.598469 99.2202 -33.460999
1.757009 97.197594 -35.541496
2.860618 93.976059 -39.542622
4.922545 92.819748 -41.498955
13.799642 103.601845 -33.165607
12.985301 101.749649 -35.839367
12.10609 99.773903 -38.056664
16.660528 98.478241 -39.803806
14.063397 98.13575 -40.058891
11.347649 97.264771 -40.364998
-7.939992 93.41457 -28.322016
-9.124412 92.258797 -27.990644
-9.864476 91.976249 -26.730293
-10.60666 91.58263 -25.459964
-9.478855 92.767696 -25.804791
-9.124412 92.258797 -27.990644
-9.864476 91.976249 -26.730293
1.440883 95.169426 4.186184
1.984197 94.872177 5.402865
2.124376 96.350311 3.000541
1.020033 95.604744 2.802277
1.440883 95.169426 4.186184
6.723636 103.556987 -7.133751
7.171794 103.356419 -5.607137
13.988185 107.677105 -15.627527
13.128478 107.423038 -14.317362
14.961012 107.847481 -16.865411
13.814852 107.647892 -17.286138
13.988185 107.677105 -15.627527
15.879868 107.900742 -18.029732
14.961012 107.847481 -16.865411
24.491949 104.072663 -24.307384
24.61898 104.31665 -22.655882
-13.235131 88.717011 -23.607387
-12.601544 89.163433 -24.872018
6.068466 101.270786 -1.653683
5.624577 101.62164 -3.192063
4.877091 100.658333 -1.964542
-2.274 93.174617 2.398253
-3.307734 92.363877 2.269852
23.880961 102.846397 -29.424563
23.188798 103.784157 -28.396535
24.104653 103.347061 -27.743492
23.276365 100.856136 -33.980312
23.470629 101.586803 -32.563141
24.240558 100.421661 -33.502967
25.826463 94.639152 -38.522465
25.152575 96.109344 -37.869074
26.096618 95.547447 -37.275217
25.520653 93.618248 -39.811634
25.826463 94.639152 -38.522465
-16.829073 83.390972 -10.924613
-16.435018 83.634487 -9.706508
-15.63891 86.126937 -18.348978
-15.129494 86.788452 -19.652763
9.61879 106.370968 -15.33496
9.872301 106.334633 -13.626542
10.802061 106.785954 -14.91157
18.420315 107.437161 -21.736438
17.30678 107.446922 -22.321385
17.502943 107.68385 -20.583886
19.436878 107.315121 -21.189405
19.240714 107.078193 -22.926904
18.420315 107.437161 -21.736438
22.494006 106.383099 -19.326888
21.534759 106.760331 -20.027299
23.276317 105.747013 -20.408195
22.494006 106.383099 -19.326888
-8.570229 88.931072 -0.374994
-7.59383 89.900669 -0.361707
-14.740704 85.22842 -7.421489
-15.562479 84.021694 -7.302834
2.41347 95.796661 -37.557141
1.380355 96.114345 -36.444397
2.790125 96.879909 -36.65424
3.341929 95.269142 -38.654803
1.932159 94.503578 -38.44496
2.41347 95.796661 -37.557141
7.175458 92.407409 -42.650671
5.799157 91.910293 -42.423376
6.298846 93.316864 -41.72625
17.515861 97.361099 -40.676455
17.936046 98.535137 -39.532974
18.791379 97.417996 -40.405622
13.618415 96.802853 -41.117086
14.944875 97.045601 -41.029936
12.260541 96.367363 -41.27014
12.705523 97.70026 -40.211945
13.618415 96.802853 -41.117086
10.876306 96.078721 -41.202324
12.260541 96.367363 -41.27014
-11.65325 90.374744 -25.180059
-11.267629 91.166191 -24.254558
-10.60666 91.58263 -25.459964
-12.601544 89.163433 -24.872018
-11.65325 90.374744 -25.180059
22.514541 94.538425 -41.368296
23.625103 94.243244 -40.904959
-0.079898 94.826034 2.659393
-1.119553 94.052444 2.524542
0.603596 96.00692 1.47375
-0.079898 94.826034 2.659393
1.020033 95.604744 2.802277
25.0055 99.145973 -34.312822
24.240558 100.421661 -33.502967
25.693718 97.809296 -35.163666
24.734513 98.354317 -35.770983
25.0055 99.145973 -34.312822
26.247474 96.499211 -35.954008
25.693718 97.809296 -35.163666
26.096618 95.547447 -37.275217
26.247474 96.499211 -35.954008
-15.90877 85.41793 -13.491988
-16.400205 84.407463 -12.187912
-15.551399 85.712066 -12.368502
-16.328605 84.951713 -14.649776
-15.90877 85.41793 -13.491988
-15.479799 86.256317 -14.830365
-16.688613 84.432724 -15.721522
-16.328605 84.951713 -14.649776
6.335563 103.75785 -8.618685
5.543992 102.977863 -7.40355
6.723636 103.556987 -7.133751
7.249897 104.539631 -9.897693
6.070254 103.960507 -10.167492
6.335563 103.75785 -8.618685
11.948798 107.113567 -14.625704
13.128478 107.423038 -14.317362
11.695287 107.149902 -16.33412
10.802061 106.785954 -14.91157
11.948798 107.113567 -14.625704
16.680732 107.838413 -19.352137
15.588544 107.75594 -19.846428
15.879868 107.900742 -18.029732
17.502943 107.68385 -20.583886
16.680732 107.838413 -19.352137
-9.75864 88.94228 -2.739409
-9.158207 88.973255 -1.57194
-8.692471 90.129387 -2.918651
-10.757763 87.86689 -2.705868
-9.75864 88.94228 -2.739409
-10.292027 89.023022 -4.052579
-11.720237 86.734619 -2.622597
-10.757763 87.86689 -2.705868
-12.241741 86.785691 -3.921412
-11.720237 86.734619 -2.622597
-12.784421 86.716843 -5.136439
-12.241741 86.785691 -3.921412
-11.833831 87.878784 -5.234063
-13.319806 86.578618 -6.289819
-12.784421 86.716843 -5.136439
-12.861662 87.701466 -7.656058
-13.804956 86.470146 -7.496787
-13.319806 86.578618 -6.289819
3.603389 96.568489 4.599474
3.000903 95.527721 5.619032
3.000903 95.527721 5.619032
1.984197 94.872177 5.402865
24.322564 103.740482 -25.968082
23.581876 104.617001 -25.054767
24.491949 104.072663 -24.307384
24.104653 103.347061 -27.743492
24.322564 103.740482 -25.968082
-14.535619 87.479039 -20.96013
-15.129494 86.788452 -19.652763
-14.217625 88.117908 -20.030518
-13.889896 88.142105 -22.289003
-12.968984 89.3834 -22.656269
-13.235131 88.717011 -23.607387
-14.535619 87.479039 -20.96013
-13.889896 88.142105 -22.289003
-6.020407 90.670574 0.975046
-5.395164 90.555428 2.188403
-6.531987 90.853054 -0.258861
-6.020407 90.670574 0.975046
-5.456772 91.882652 -0.311584
-7.030195 91.112747 -1.648337
-7.59383 89.900669 -0.361707
-6.531987 90.853054 -0.258861
19.545606 96.251458 -41.218586
18.791379 97.417996 -40.405622
19.965792 97.425495 -40.075105
21.459971 94.795693 -41.683178
21.774589 96.00169 -40.573187
22.514541 94.538425 -41.368296
20.315819 94.918556 -42.017964
21.459971 94.795693 -41.683178
19.545606 96.251458 -41.218586
20.315819 94.918556 -42.017964
6.374008 102.505547 -4.39991
5.182634 101.893093 -4.710769
5.624577 101.62164 -3.192063
7.171794 103.356419 -5.607137
6.374008 102.505547 -4.39991
4.207102 97.652577 3.413147
3.14894 96.99908 3.198122
3.603389 96.568489 4.599474
4.861675 98.685112 2.31323
4.207102 97.652577 3.413147
5.645839 99.797268 1.094251
4.536816 99.195324 0.792816
4.861675 98.685112 2.31323
6.380587 100.780544 -0.013362
5.645839 99.797268 1.094251
6.068466 101.270786 -1.653683
6.380587 100.780544 -0.013362
-4.377715 91.477684 2.19187
-5.395164 90.555428 2.188403
-3.875211 92.586365 1.000305
-4.377715 91.477684 2.19187
-3.307734 92.363877 2.269852
-1.650782 94.350383 1.204576
-2.274 93.174617 2.398253
-1.119553 94.052444 2.524542
23.699964 102.217911 -31.081701
23.880961 102.846397 -29.424563
22.73577 102.652386 -31.559045
23.699964 102.217911 -31.081701
23.470629 101.586803 -32.563141
24.651733 93.971557 -40.333967
23.625103 94.243244 -40.904959
23.85579 95.472736 -39.687314
24.651733 93.971557 -40.333967
25.520653 93.618248 -39.811634
-16.829073 83.390972 -10.924613
-16.400205 84.407463 -12.187912
-16.182976 85.308326 -16.981479
-15.355567 86.608711 -17.355652
-15.63891 86.126937 -18.348978
-16.688613 84.432724 -15.721522
-16.182976 85.308326 -16.981479
8.191306 105.234662 -11.045084
7.249897 104.539631 -9.897693
9.043527 105.823341 -12.3468
9.872301 106.334633 -13.626542
7.836809 105.330967 -12.748216
8.191306 105.234662 -11.045084
9.043527 105.823341 -12.3468
20.473825 107.109268 -20.67126
19.436878 107.315121 -21.189405
21.318211 106.607216 -21.73591
20.473825 107.109268 -20.67126
21.534759 106.760331 -20.027299
23.962375 105.092465 -21.559255
23.065203 105.60373 -22.243009
23.276317 105.747013 -20.408195
24.61898 104.31665 -22.655882
23.962375 105.092465 -21.559255
-8.570229 88.931072 -0.374994
-9.158207 88.973255 -1.57194
-16.022755 83.838459 -8.53051
-15.562479 84.021694 -7.302834
-15.63057 84.905571 -9.888427
-16.435018 83.634487 -9.706508
-16.022755 83.838459 -8.53051
-14.282559 86.351269 -8.787727
-14.740704 85.22842 -7.421489
-13.804956 86.470146 -7.496787
-6.703027 94.534142 -28.615681
-7.939992 93.41457 -28.322016
-7.499706 94.280888 -27.368784
-5.900735 94.724514 -29.816565
-6.703027 94.534142 -28.615681
-5.46045 95.590832 -28.863333
-5.035329 94.834122 -31.059624
-5.900735 94.724514 -29.816565
-4.131297 94.882602 -32.316175
-5.035329 94.834122 -31.059624
-3.754126 95.829685 -31.320768
-3.156491 94.851513 -33.562954
-4.131297 94.882602 -32.316175
-2.223104 94.737706 -34.757246
-3.156491 94.851513 -33.562954
-1.916708 95.764358 -33.771612
-1.234432 94.540581 -35.918132
-2.223104 94.737706 -34.757246
0.010189 95.340824 -36.156601
0.386844 96.424072 -35.2537
1.380355 96.114345 -36.444397
-1.234432 94.540581 -35.918132
0.010189 95.340824 -36.156601
1.518375 93.188656 -39.289206
1.932159 94.503578 -38.44496
2.546807 92.689545 -40.287331
1.518375 93.188656 -39.289206
3.577771 92.111389 -41.265498
2.546807 92.689545 -40.287331
3.891582 93.397904 -40.520789
4.580502 91.345208 -42.222407
3.577771 92.111389 -41.265498
4.580502 91.345208 -42.222407
5.799157 91.910293 -42.423376
16.24344 97.216847 -40.902393
17.515861 97.361099 -40.676455
15.361963 98.306995 -39.931348
16.24344 97.216847 -40.902393
14.944875 97.045601 -41.029936
9.485539 95.729927 -41.079712
9.956882 96.915977 -40.242386
10.876306 96.078721 -41.202324
9.040056 94.353325 -41.996598
8.120631 95.190582 -41.036659
9.485539 95.729927 -41.079712
8.603027 92.878795 -42.841164
9.040056 94.353325 -41.996598
7.175458 92.407409 -42.650671
8.603027 92.878795 -42.841164
3 0 187 188
3 0 189 191
3 191 190 46
3 189 190 191
3 0 192 193
3 1 50 48
3 1 53 51
3 1 48 53
3 2 57 55
3 3 60 58
3 3 194 195
3 3 196 198
3 196 58 197
3 196 197 198
3 4 64 62
3 6 67 66
3 7 70 68
3 9 73 71
3 9 75 73
3 200 199 76
3 201 78 202
3 203 80 204
3 205 204 78
3 203 204 205
3 207 206 80
3 10 83 82
3 10 84 83
3 10 86 84
3 7 89 87
3 7 68 89
3 8 93 91
3 11 96 94
3 11 98 96
3 5 101 99
3 209 208 102
3 12 106 104
3 211 210 47
3 13 109 107
3 15 110 49
3 15 111 110
3 16 113 112
3 18 114 52
3 18 115 114
3 18 117 115
3 13 118 54
3 13 107 118
3 20 121 119
3 22 122 56
3 22 123 122
3 23 126 124
3 24 129 127
3 26 130 59
3 26 212 214
3 214 213 130
3 212 213 214
3 215 131 216
3 24 132 61
3 24 127 132
3 27 135 133
3 29 136 63
3 29 137 136
3 217 138 218
3 219 218 103
3 217 218 219
3 30 220 222
3 220 139 221
3 220 221 222
3 30 140 139
3 30 141 140
3 223 142 224
3 225 224 65
3 223 224 225
3 227 226 142
3 31 228 229
3 231 230 105
3 32 145 143
3 34 146 69
3 34 147 146
3 14 148 108
3 35 149 72
3 35 150 149
3 35 151 150
3 36 152 74
3 36 153 152
3 25 154 128
3 37 155 77
3 37 156 155
3 38 232 234
3 232 157 233
3 232 233 234
3 38 158 157
3 38 159 158
3 39 160 79
3 39 161 160
3 39 162 161
3 235 163 236
3 237 236 81
3 235 236 237
3 238 164 239
3 240 239 163
3 238 239 240
3 241 165 242
3 244 243 165
3 17 245 246
3 247 166 248
3 40 167 85
3 40 168 167
3 19 169 116
3 41 170 88
3 41 171 170
3 41 172 171
3 32 173 90
3 32 143 173
3 33 174 144
3 42 175 92
3 42 176 175
3 21 177 120
3 43 178 95
3 43 249 251
3 251 250 178
3 249 250 251
3 43 252 254
3 252 179 253
3 252 253 254
3 44 180 97
3 44 255 257
3 257 256 180
3 255 256 257
3 28 181 134
3 45 182 100
3 45 183 182
3 258 184 259
3 260 259 125
3 258 259 260
3 261 185 262
3 263 186 264
3 265 264 185
3 263 264 265
3 267 266 186
3 46 47 12
3 268 47 269
3 270 269 46
3 268 269 270
3 272 271 47
3 48 49 13
3 50 49 48
3 50 15 49
3 51 52 16
3 53 52 51
3 53 18 52
3 53 54 18
3 48 54 53
3 48 13 54
3 55 56 20
3 57 56 55
3 57 22 56
3 274 273 23
3 58 59 24
3 60 59 58
3 60 26 59
3 275 61 276
3 58 277 279
3 277 61 278
3 277 278 279
3 58 24 61
3 62 63 27
3 64 63 62
3 64 29 63
3 280 30 281
3 282 65 283
3 284 283 30
3 282 283 284
3 285 65 286
3 288 287 65
3 66 289 291
3 291 290 31
3 289 290 291
3 67 292 294
3 294 293 66
3 292 293 294
3 67 295 296
3 68 69 32
3 70 69 68
3 70 34 69
3 71 72 14
3 73 72 71
3 73 35 72
3 73 74 35
3 75 74 73
3 75 36 74
3 76 77 25
3 297 77 298
3 299 298 76
3 297 298 299
3 300 37 301
3 302 301 77
3 300 301 302
3 78 303 304
3 78 305 307
3 305 38 306
3 305 306 307
3 78 79 38
3 80 79 78
3 80 39 79
3 80 81 39
3 308 81 309
3 310 309 80
3 308 309 310
3 312 311 81
3 82 313 315
3 315 314 17
3 313 314 315
3 83 316 318
3 318 317 82
3 316 317 318
3 83 319 320
3 83 321 322
3 84 323 325
3 325 324 83
3 323 324 325
3 84 326 327
3 84 328 330
3 328 85 329
3 328 329 330
3 86 85 84
3 86 40 85
3 87 88 19
3 89 88 87
3 89 41 88
3 89 90 41
3 68 90 89
3 68 32 90
3 91 92 33
3 93 92 91
3 93 42 92
3 94 95 21
3 96 95 94
3 96 43 95
3 96 97 43
3 98 97 96
3 98 44 97
3 99 100 28
3 101 100 99
3 101 45 100
3 332 331 3
3 333 3 334
3 102 103 4
3 335 103 336
3 337 336 102
3 335 336 337
3 339 338 103
3 104 105 6
3 106 105 104
3 106 340 342
3 342 341 105
3 340 341 342
3 47 106 12
3 343 106 344
3 345 344 47
3 343 344 345
3 347 346 106
3 107 108 7
3 109 108 107
3 109 14 108
3 49 109 13
3 110 109 49
3 110 14 109
3 110 71 14
3 111 71 110
3 111 9 71
3 112 348 349
3 113 350 352
3 352 351 112
3 350 351 352
3 113 353 355
3 353 17 354
3 353 354 355
3 52 113 16
3 114 113 52
3 114 17 113
3 114 82 17
3 115 82 114
3 115 10 82
3 115 116 10
3 117 116 115
3 117 19 116
3 54 117 18
3 118 117 54
3 118 19 117
3 118 87 19
3 107 87 118
3 107 7 87
3 119 120 8
3 121 120 119
3 121 21 120
3 56 121 20
3 122 121 56
3 122 21 121
3 122 94 21
3 123 94 122
3 123 11 94
3 124 125 5
3 126 125 124
3 126 356 358
3 358 357 125
3 356 357 358
3 359 126 360
3 361 360 23
3 359 360 361
3 362 126 363
3 365 364 126
3 127 128 1
3 129 128 127
3 129 25 128
3 59 129 24
3 130 129 59
3 130 25 129
3 130 76 25
3 366 76 367
3 368 367 130
3 366 367 368
3 370 369 76
3 371 60 372
3 373 372 3
3 371 372 373
3 374 60 375
3 376 26 377
3 378 377 60
3 376 377 378
3 379 26 380
3 382 381 26
3 383 112 384
3 131 385 387
3 385 112 386
3 385 386 387
3 131 16 112
3 61 388 390
3 388 131 389
3 388 389 390
3 132 131 61
3 132 16 131
3 132 51 16
3 127 51 132
3 127 1 51
3 133 134 2
3 135 134 133
3 135 28 134
3 63 135 27
3 136 135 63
3 136 28 135
3 136 99 28
3 137 99 136
3 137 5 99
3 103 64 4
3 138 64 103
3 138 29 64
3 391 138 392
3 139 393 395
3 393 138 394
3 393 394 395
3 139 29 138
3 139 137 29
3 140 137 139
3 140 5 137
3 140 124 5
3 141 124 140
3 141 23 124
3 65 141 30
3 142 141 65
3 142 23 141
3 142 396 398
3 398 397 23
3 396 397 398
3 400 399 142
3 402 401 31
3 105 67 6
3 403 67 404
3 405 404 105
3 403 404 405
3 407 406 67
3 143 144 0
3 145 144 143
3 145 33 144
3 69 145 32
3 146 145 69
3 146 33 145
3 146 91 33
3 147 91 146
3 147 8 91
3 108 70 7
3 148 70 108
3 148 34 70
3 72 148 14
3 149 148 72
3 149 34 148
3 149 147 34
3 150 147 149
3 150 8 147
3 150 119 8
3 151 119 150
3 151 20 119
3 74 151 35
3 152 151 74
3 152 20 151
3 152 55 20
3 153 55 152
3 153 2 55
3 128 50 1
3 154 50 128
3 154 15 50
3 77 154 25
3 155 154 77
3 155 15 154
3 155 111 15
3 156 111 155
3 156 9 111
3 408 37 409
3 157 410 411
3 157 412 414
3 412 37 413
3 412 413 414
3 157 156 37
3 158 156 157
3 158 9 156
3 158 75 9
3 159 75 158
3 159 36 75
3 79 159 38
3 160 159 79
3 160 36 159
3 160 153 36
3 161 153 160
3 161 2 153
3 161 133 2
3 162 133 161
3 162 27 133
3 81 162 39
3 163 162 81
3 163 27 162
3 163 62 27
3 164 62 163
3 164 4 62
3 415 164 416
3 165 417 419
3 417 164 418
3 417 418 419
3 165 4 164
3 165 102 4
3 420 102 421
3 422 421 165
3 420 421 422
3 424 423 102
3 426 425 17
3 166 427 428
3 166 429 431
3 429 31 430
3 429 430 431
3 85 432 434
3 432 166 433
3 432 433 434
3 167 166 85
3 167 31 166
3 167 66 31
3 168 66 167
3 168 6 66
3 116 86 10
3 169 86 116
3 169 40 86
3 88 169 19
3 170 169 88
3 170 40 169
3 170 168 40
3 171 168 170
3 171 6 168
3 171 104 6
3 172 104 171
3 172 12 104
3 90 172 41
3 173 172 90
3 173 12 172
3 173 46 12
3 143 46 173
3 143 0 46
3 144 435 437
3 437 436 0
3 435 436 437
3 174 438 440
3 440 439 144
3 438 439 440
3 174 441 442
3 92 174 33
3 175 174 92
3 175 443 445
3 445 444 174
3 443 444 445
3 175 446 447
3 176 448 450
3 450 449 175
3 448 449 450
3 176 451 452
3 120 93 8
3 177 93 120
3 177 42 93
3 95 177 21
3 178 177 95
3 178 42 177
3 178 176 42
3 453 176 454
3 455 454 178
3 453 454 455
3 457 456 176
3 179 458 459
3 179 460 461
3 97 179 43
3 180 179 97
3 180 462 464
3 464 463 179
3 462 463 464
3 180 465 466
3 468 467 180
3 134 57 2
3 181 57 134
3 181 22 57
3 100 181 28
3 182 181 100
3 182 22 181
3 182 123 22
3 183 123 182
3 183 11 123
3 125 101 5
3 184 101 125
3 184 45 101
3 469 184 470
3 185 471 473
3 471 184 472
3 471 472 473
3 185 45 184
3 185 183 45
3 186 183 185
3 186 11 183
3 186 98 11
3 474 98 475
3 476 475 186
3 474 475 476
3 477 44 478
3 479 478 98
3 477 478 479
3 480 44 481
3 483 482 44
