ply
format ascii 1.0
element vertex 194
property float x
property float y
property float z
element face 171
property list uchar int vertex_index
end_header
30.994955 54.374344 -45.654152
17.9678 45.193554 -51.349934
28.110184 57.738396 -48.044163
24.915897 49.992142 -49.442528
28.023546 47.360214 -47.536873
33.503757 51.229603 -42.696972
21.533321 52.553974 -50.746738
21.145306 42.764221 -50.338455
33.12397 60.763588 -42.924797
35.225212 57.209541 -39.582165
29.563812 56.010357 -46.95565
28.142725 52.577671 -47.85471
29.599045 51.182896 -46.717831
23.225677 55.969437 -50.322517
24.681082 45.261635 -49.176758
23.117804 46.637821 -49.943901
22.737225 41.496101 -49.638958
34.221581 59.052189 -41.300606
26.467558 58.791035 -49.01778
25.02733 55.202999 -49.635536
26.644598 53.911701 -48.810814
26.53229 48.700047 -48.551121
26.196281 43.808392 -48.264935
17.697323 40.734245 -51.220325
16.092119 41.693829 -51.661697
32.315887 52.643478 -44.210903
30.956474 49.24614 -45.416641
32.318535 47.643089 -43.920433
19.828234 48.715607 -51.051674
23.296026 51.555119 -50.169823
21.546947 47.821487 -50.549229
19.684755 44.102001 -50.875591
19.23246 39.245964 -50.668373
29.402214 45.70153 -46.392567
27.528822 41.895893 -47.244884
30.873806 59.22863 -45.782345
32.1292 57.796497 -44.444763
33.352173 56.28949 -42.890327
34.42284 54.363033 -41.322582
35.463936 52.38184 -39.567337
36.156891 55.028019 -37.821484
24.024149 58.0135 -50.043104
23.142039 58.295168 -50.344432
23.540557 40.803459 -49.208618
23.709153 43.378868 -49.407858
24.512486 42.686226 -48.977518
22.467301 39.017292 -49.466852
23.540557 40.803459 -49.208618
17.171669 45.772871 -51.519588
18.064653 47.580763 -51.385024
16.773349 39.082971 -51.385864
17.500104 38.321228 -51.112232
20.679625 53.028126 -50.951629
21.477604 54.815321 -50.788902
20.680777 50.63479 -50.899206
19.827081 51.108942 -51.104097
20.679625 53.028126 -50.951629
30.108604 45.046558 -45.732687
30.179344 47.473835 -45.904604
30.885734 46.818863 -45.244724
27.395375 39.478342 -46.977758
28.302779 41.389128 -46.639602
26.643462 40.196078 -47.538887
27.395375 39.478342 -46.977758
30.742216 61.747806 -45.769598
30.180753 60.063519 -46.388832
32.512389 61.7255 -43.675523
32.302386 64.185564 -43.656075
32.913967 63.223652 -42.905348
32.626585 59.280043 -43.68478
32.015004 60.241955 -44.435507
32.512389 61.7255 -43.675523
36.547287 53.962492 -36.992863
36.399445 56.236592 -36.87512
36.240972 52.733356 -37.879335
36.547287 53.962492 -36.992863
15.316153 42.31606 -51.833063
15.210947 40.07444 -51.835083
33.503131 48.673653 -42.550724
34.049127 50.249403 -41.887598
22.323782 56.523052 -50.576791
23.142039 58.295168 -50.344432
22.379499 54.261705 -50.534627
21.477604 54.815321 -50.788902
22.323782 56.523052 -50.576791
21.734797 39.748638 -49.841566
20.938837 40.382698 -50.191315
21.941266 42.130161 -49.988707
21.734797 39.748638 -49.841566
22.467301 39.017292 -49.466852
33.507208 62.225967 -42.048624
32.913967 63.223652 -42.905348
34.056013 61.370268 -41.236529
33.672776 59.907888 -42.112702
33.507208 62.225967 -42.048624
34.531121 60.497864 -40.423721
34.056013 61.370268 -41.236529
35.032936 59.57654 -39.564501
34.723396 58.130865 -40.441386
34.531121 60.497864 -40.423721
25.747444 56.997017 -49.326658
24.924975 57.630281 -49.699613
25.645089 59.4243 -49.390736
25.270085 41.959604 -48.521607
24.512486 42.686226 -48.977518
25.438682 44.535013 -48.720847
15.970747 39.562764 -51.60655
16.894721 41.214037 -51.441011
16.773349 39.082971 -51.385864
15.210947 40.07444 -51.835083
15.970747 39.562764 -51.60655
31.566765 46.017337 -44.49662
30.885734 46.818863 -45.244724
31.637504 48.444615 -44.668537
32.91052 46.880396 -43.162455
32.911146 49.436346 -43.308703
33.503131 48.673653 -42.550724
32.195455 45.11706 -43.778395
32.91052 46.880396 -43.162455
31.566765 46.017337 -44.49662
32.195455 45.11706 -43.778395
18.99487 49.34179 -51.235894
19.827081 51.108942 -51.104097
18.898017 46.95458 -51.200804
18.064653 47.580763 -51.385024
18.99487 49.34179 -51.235894
24.126503 55.586218 -49.979027
24.024149 58.0135 -50.043104
24.924975 57.630281 -49.699613
18.267672 37.577088 -50.836256
17.500104 38.321228 -51.112232
18.464892 39.990105 -50.944349
19.982414 38.62357 -50.356274
20.188883 41.005093 -50.503414
20.938837 40.382698 -50.191315
18.985225 36.925221 -50.531145
19.982414 38.62357 -50.356274
18.267672 37.577088 -50.836256
18.985225 36.925221 -50.531145
29.239475 43.291946 -46.213444
30.108604 45.046558 -45.732687
28.465518 43.798711 -46.818725
29.239475 43.291946 -46.213444
28.302779 41.389128 -46.639602
25.977191 41.152327 -48.048913
26.862552 42.852142 -47.754909
26.643462 40.196078 -47.538887
25.270085 41.959604 -48.521607
25.977191 41.152327 -48.048913
26.330371 61.183678 -49.039566
25.645089 59.4243 -49.390736
27.16057 60.579245 -48.585402
26.330371 61.183678 -49.039566
27.981883 60.052926 -48.098593
27.288871 58.264716 -48.530971
27.16057 60.579245 -48.585402
28.798942 59.318402 -47.519741
27.981883 60.052926 -48.098593
29.525756 58.454382 -46.975485
28.836998 56.874376 -47.499906
28.798942 59.318402 -47.519741
30.218809 57.619494 -46.368997
29.525756 58.454382 -46.975485
30.180753 60.063519 -46.388832
31.387307 60.958021 -45.104298
30.742216 61.747806 -45.769598
31.501503 58.512563 -45.113554
31.387307 60.958021 -45.104298
32.015004 60.241955 -44.435507
34.508669 51.816118 -41.200403
34.049127 50.249403 -41.887598
33.963299 52.796318 -42.009777
35.029217 50.825521 -40.322781
34.508669 51.816118 -41.200403
34.943388 53.372436 -40.444959
35.504509 49.765995 -39.521288
35.029217 50.825521 -40.322781
35.503067 58.512552 -38.666399
35.032936 59.57654 -39.564501
35.968907 57.421791 -37.786058
36.399445 56.236592 -36.87512
35.691052 56.11878 -38.701825
35.503067 58.512552 -38.666399
35.968907 57.421791 -37.786058
35.894495 51.410267 -38.752262
35.810413 53.704929 -38.694411
36.240972 52.733356 -37.879335
35.504509 49.765995 -39.521288
35.894495 51.410267 -38.752262
16.233829 44.023009 -51.67547
17.171669 45.772871 -51.519588
17.02996 43.443691 -51.505815
16.233829 44.023009 -51.67547
15.316153 42.31606 -51.833063
3 0 12 10
3 41 13 42
3 43 16 44
3 45 44 14
3 43 44 45
3 47 46 16
3 1 48 49
3 2 20 18
3 4 21 11
3 4 22 21
3 51 50 23
3 5 27 25
3 6 52 53
3 6 54 56
3 54 28 55
3 54 55 56
3 3 29 19
3 7 30 15
3 7 31 30
3 7 32 31
3 57 33 58
3 59 58 26
3 57 58 59
3 60 34 61
3 63 62 34
3 64 35 65
3 8 66 68
3 66 67 68
3 8 69 71
3 69 36 70
3 69 70 71
3 8 37 36
3 9 38 17
3 9 39 38
3 72 40 73
3 75 74 40
3 77 76 24
3 10 11 2
3 12 11 10
3 12 4 11
3 79 78 5
3 13 80 81
3 13 82 84
3 82 6 83
3 82 83 84
3 14 15 3
3 16 15 14
3 16 7 15
3 16 85 87
3 87 86 7
3 85 86 87
3 89 88 16
3 90 8 91
3 92 17 93
3 94 93 8
3 92 93 94
3 95 17 96
3 97 9 98
3 99 98 17
3 97 98 99
3 18 100 102
3 100 19 101
3 100 101 102
3 20 19 18
3 20 3 19
3 11 20 2
3 21 20 11
3 21 3 20
3 21 14 3
3 22 14 21
3 22 103 105
3 105 104 14
3 103 104 105
3 23 24 1
3 106 24 107
3 108 107 23
3 106 107 108
3 110 109 24
3 25 26 0
3 27 26 25
3 27 111 113
3 113 112 26
3 111 112 113
3 114 27 115
3 116 115 5
3 114 115 116
3 117 27 118
3 120 119 27
3 28 121 122
3 28 123 125
3 123 1 124
3 123 124 125
3 19 126 128
3 126 13 127
3 126 127 128
3 29 13 19
3 29 6 13
3 15 29 3
3 30 29 15
3 30 6 29
3 30 28 6
3 31 28 30
3 31 1 28
3 31 23 1
3 32 23 31
3 32 129 131
3 131 130 23
3 129 130 131
3 132 32 133
3 134 133 7
3 132 133 134
3 135 32 136
3 138 137 32
3 26 12 0
3 33 12 26
3 33 4 12
3 139 33 140
3 34 141 143
3 141 33 142
3 141 142 143
3 34 4 33
3 34 22 4
3 144 22 145
3 146 145 34
3 144 145 146
3 148 147 22
3 149 18 150
3 151 18 152
3 153 2 154
3 155 154 18
3 153 154 155
3 156 2 157
3 158 10 159
3 160 159 2
3 158 159 160
3 35 161 163
3 161 10 162
3 161 162 163
3 35 0 10
3 164 35 165
3 36 166 168
3 166 35 167
3 166 167 168
3 36 0 35
3 36 25 0
3 37 25 36
3 37 5 25
3 17 37 8
3 38 37 17
3 38 5 37
3 38 169 171
3 171 170 5
3 169 170 171
3 39 172 174
3 174 173 38
3 172 173 174
3 39 175 176
3 177 9 178
3 40 179 180
3 40 181 183
3 181 9 182
3 181 182 183
3 40 39 9
3 184 39 185
3 186 185 40
3 184 185 186
3 188 187 39
3 24 189 191
3 191 190 1
3 189 190 191
3 193 192 24
