ply
format ascii 1.0
element vertex 417
property float x
property float y
property float z
element face 456
property list uchar int vertex_index
end_header
-10.057684 75.500885 -36.069984
0.428223 62.079052 -47.410851
-3.703894 82.724983 -41.263294
8.540997 63.255203 -50.456841
3.89147 50.611832 -51.221378
-8.804253 64.58567 -36.722088
-4.647708 70.937546 -42.396343
3.332971 75.180359 -47.06218
-12.48711 66.273621 -29.889446
-9.439204 70.031128 -36.483856
-7.148571 68.059822 -39.666817
-7.347888 73.580124 -39.45919
-0.041718 79.493652 -44.523949
-12.712161 76.065399 -32.195244
-13.857501 71.04628 -29.240585
-11.691688 71.301956 -33.050335
-10.688843 65.955139 -33.353569
-2.927421 60.862816 -45.078583
-1.020056 56.043278 -47.622066
4.939553 44.421417 -52.864002
-10.54792 80.51181 -34.97044
-7.383429 79.283424 -38.865128
-7.174828 84.725716 -37.473694
-13.309158 80.754715 -30.896868
4.374492 62.968815 -49.228149
2.407654 56.58334 -49.430809
6.403233 56.612938 -50.766125
-7.102482 62.294254 -39.65414
-4.956594 64.97168 -42.47662
-1.961234 66.812065 -45.101387
-4.278085 76.959099 -42.077862
-1.131218 73.218102 -44.922554
1.968162 68.288681 -47.405254
6.146541 69.685287 -48.985294
-14.122559 65.401917 -26.403276
-12.566044 60.563324 -27.199631
0.462404 50.754154 -49.994827
-9.761084 72.735992 -36.335934
-8.514183 71.983841 -38.013641
-8.733464 74.69207 -37.790123
-11.407918 75.885155 -34.179047
-12.217752 73.75795 -32.703129
-10.990214 73.304268 -34.569389
-10.55768 70.834579 -34.834972
-1.391268 61.367542 -46.282597
-1.900685 58.499916 -46.405704
-0.283489 58.905254 -47.507839
-10.507637 83.142448 -34.255684
-8.98012 82.595497 -36.327492
-13.482472 82.954926 -29.825516
-12.11084 83.121323 -32.001137
-11.923061 80.913383 -32.987633
6.499353 62.96479 -49.959423
5.317925 59.803925 -50.007427
7.389494 59.807594 -50.587509
-8.619085 61.997494 -36.771351
-7.887463 61.117905 -38.211536
-7.972935 63.720787 -38.165058
-6.037975 69.639206 -41.035397
-6.074955 66.514 -41.063141
-4.732956 67.893539 -42.516548
-3.450895 65.761894 -43.951942
-3.246153 69.01828 -43.819118
-5.590317 80.994759 -40.208088
-5.787256 78.26725 -40.57375
-3.882011 79.795349 -41.885803
1.548251 77.462692 -45.803909
-0.655558 76.240364 -44.781601
0.935283 74.258408 -46.022064
0.478861 70.934067 -46.230518
2.535097 71.862312 -47.198895
3.922356 69.103958 -48.214756
4.896991 72.377853 -48.151958
-13.129295 68.877228 -29.736654
-14.034595 68.285751 -27.86471
-13.329105 65.981529 -28.137232
-13.352017 62.997948 -26.705345
-12.60647 63.544796 -28.460585
-11.91768 60.868813 -28.798819
-11.798856 63.627026 -30.206062
-9.710503 65.489243 -35.155617
-10.161243 63.302505 -33.690353
-9.373532 62.714607 -35.270397
3.241642 53.629696 -50.355186
1.470138 53.705803 -49.632935
2.162569 50.770496 -50.671871
-9.13873 67.315514 -36.552589
-8.054045 66.435173 -38.240547
-8.323514 69.127014 -38.069057
-7.22965 70.9534 -39.622467
-5.951653 72.544525 -41.012646
-1.863152 81.314461 -42.960861
-13.930139 75.958214 -30.218752
-14.500572 73.472946 -28.846483
-13.448523 73.615318 -30.652956
-12.807647 71.415421 -31.171829
-12.18896 68.932205 -31.472622
-11.604223 66.272835 -31.636324
-11.222514 68.732826 -33.174057
-10.239335 68.154869 -34.791508
-4.271996 60.123302 -43.826889
-3.378683 57.905243 -45.203762
-2.589557 55.694744 -46.480339
-1.910479 53.229469 -47.767208
4.494641 47.624859 -52.043613
2.789159 47.801216 -51.694054
-10.35761 78.054276 -35.581688
-8.823518 77.389091 -37.54858
-8.942876 80.084793 -37.020748
-7.203148 82.117836 -38.389534
-5.339705 83.958374 -39.515793
-14.641724 80.258514 -28.730673
-14.280143 78.287498 -29.660641
-13.028385 78.348747 -31.703077
-11.715031 78.448624 -33.678337
2.34351 62.481956 -48.409122
1.471908 59.395813 -48.454041
3.398034 59.614597 -49.331532
4.330126 56.595242 -50.172081
5.230478 53.56218 -50.956295
5.717938 50.250023 -51.661701
6.188073 46.783661 -52.384338
6.662555 43.707813 -52.976051
-6.214765 60.828148 -41.171318
-7.097524 64.999397 -39.663189
-6.153462 63.539082 -41.067589
-5.188911 61.97543 -42.473549
-3.909804 62.949299 -43.817589
-2.426652 63.714867 -45.101532
-0.708805 64.583618 -46.301495
-7.344409 76.471634 -39.279064
-5.887982 75.267906 -40.863308
-4.326736 73.891098 -42.420341
-2.194504 78.213852 -43.428162
-2.635634 75.230797 -43.602776
-2.89034 72.054436 -43.798397
-1.451218 69.993248 -45.104664
-0.074422 67.779205 -46.302536
1.221365 65.096603 -47.43853
3.284893 65.675865 -48.397457
5.351889 66.251617 -49.15834
7.508834 66.73381 -49.789162
-14.860387 70.702179 -27.392378
-14.12359 62.551716 -25.041231
-10.960257 63.580563 -32.02412
0.7273 56.37286 -48.637569
-0.248578 53.390335 -48.823151
-1.244548 50.633373 -49.123318
1.148381 47.981361 -51.195103
-9.628671 84.204842 -34.877264
-10.494637 84.267521 -33.742508
-11.296239 84.256958 -32.615234
-12.069076 84.238606 -31.46301
-10.494637 84.267521 -33.742508
-11.309238 83.131886 -33.128411
-11.296239 84.256958 -32.615234
4.131552 44.646803 -52.76372
3.909095 46.248524 -52.353525
4.717097 46.023138 -52.453807
6.639318 50.017369 -51.812952
6.390642 51.66675 -51.535263
6.874386 48.284188 -52.17427
5.953005 48.516842 -52.02302
6.639318 50.017369 -51.812952
7.485136 43.258516 -52.974823
7.331738 45.101673 -52.722635
6.740897 42.042439 -53.279392
7.485136 43.258516 -52.974823
-7.11235 60.994207 -39.691946
-7.504841 60.406032 -38.970644
-7.494973 61.70608 -38.932838
-6.658624 61.561201 -40.412729
-6.668492 60.261154 -40.450535
-7.11235 60.994207 -39.691946
-14.531878 66.647297 -26.259335
-14.487896 68.089214 -26.990052
-14.078577 66.843834 -27.133993
-14.55605 65.231506 -25.570141
-14.531878 66.647297 -26.259335
-14.123075 63.976816 -25.722254
-14.556565 63.806406 -24.889119
-14.55605 65.231506 -25.570141
-12.901412 60.279694 -26.35985
-13.294398 61.497006 -26.112707
-12.959031 61.780636 -26.952488
-12.52222 58.949944 -26.596688
-12.901412 60.279694 -26.35985
-12.236422 59.265389 -27.427036
-12.52222 58.949944 -26.596688
-11.624054 59.652768 -29.064535
-11.547068 60.981701 -29.724518
-10.306599 62.053535 -33.007988
-9.965276 62.046302 -33.838329
1.408752 46.620077 -51.754047
1.96877 47.891289 -51.444579
2.229141 46.530004 -52.003523
4.319954 43.224695 -53.209816
5.093454 42.836212 -53.248956
-8.864913 83.931366 -35.913168
-9.743879 82.868972 -35.291588
-9.628671 84.204842 -34.877264
-7.962267 84.996476 -36.486269
-8.077474 83.660607 -36.900593
-8.864913 83.931366 -35.913168
-12.754891 84.155407 -30.3752
-13.477181 83.891835 -29.257783
-12.796656 83.038125 -30.913327
-12.754891 84.155407 -30.3752
-12.069076 84.238606 -31.46301
-8.253274 61.557699 -37.491444
-8.162287 60.32934 -37.605571
-8.528098 60.769134 -36.885479
-11.487656 62.360807 -30.42814
-11.547068 60.981701 -29.724518
-11.858268 62.24792 -29.50244
-9.57142 61.752353 -34.628351
-9.965276 62.046302 -33.838329
-9.767388 63.008556 -34.480375
-9.234129 61.476045 -35.391348
-9.57142 61.752353 -34.628351
-8.856905 61.117489 -36.141825
-9.234129 61.476045 -35.391348
-8.996309 62.356051 -36.020874
-8.528098 60.769134 -36.885479
-8.856905 61.117489 -36.141825
8.984619 61.486542 -50.732668
9.639796 63.353748 -50.653488
-1.612559 82.781669 -42.673862
-2.783523 82.019722 -42.112077
-2.53293 83.48693 -41.825079
-0.725423 81.991017 -43.459511
-1.612559 82.781669 -42.673862
0.185293 81.080612 -44.241055
-0.952435 80.404056 -43.742405
-0.725423 81.991017 -43.459511
1.078073 80.061909 -44.980324
0.185293 81.080612 -44.241055
1.873058 79.046429 -45.620304
0.753267 78.478172 -45.163929
1.078073 80.061909 -44.980324
2.755666 77.979317 -46.258787
1.873058 79.046429 -45.620304
3.648026 76.83815 -46.887923
2.440611 76.321526 -46.433044
2.755666 77.979317 -46.258787
4.80724 77.195355 -47.291334
4.492185 75.537564 -47.465592
3.648026 76.83815 -46.887923
-14.215356 74.71558 -29.532618
-14.800415 74.579044 -28.526245
-14.515199 75.821678 -29.212379
-4.460471 58.65313 -43.887171
-4.850526 59.554865 -43.193281
-4.013814 57.5441 -44.575608
-4.460471 58.65313 -43.887171
-3.82534 59.014273 -44.515326
-3.706248 56.42888 -45.235046
-4.013814 57.5441 -44.575608
-3.311685 55.323631 -45.873335
-3.706248 56.42888 -45.235046
-2.98412 56.799993 -45.84205
-2.935358 54.312206 -46.594544
-3.311685 55.323631 -45.873335
-2.59582 53.079569 -47.237978
-2.935358 54.312206 -46.594544
-2.250018 54.462107 -47.123773
-2.314232 51.854503 -47.956459
-2.59582 53.079569 -47.237978
3.056355 46.336703 -52.178746
3.6419 47.713037 -51.868834
3.909095 46.248524 -52.353525
2.229141 46.530004 -52.003523
3.056355 46.336703 -52.178746
4.131552 44.646803 -52.76372
4.319954 43.224695 -53.209816
-6.977523 86.001755 -37.022232
-7.962267 84.996476 -36.486269
-6.094711 85.63454 -38.069558
-6.977523 86.001755 -37.022232
-5.17715 85.250869 -39.090607
-6.257267 84.342045 -38.494743
-6.094711 85.63454 -38.069558
-4.277444 84.713219 -40.073929
-5.17715 85.250869 -39.090607
-3.459538 84.096523 -40.947679
-4.5218 83.341679 -40.389544
-4.277444 84.713219 -40.073929
-2.53293 83.48693 -41.825079
-3.459538 84.096523 -40.947679
-14.124885 82.685975 -28.744266
-13.477181 83.891835 -29.257783
-14.704511 81.337769 -28.196844
-14.124885 82.685975 -28.744266
-14.062098 81.60672 -29.278095
-15.228632 80.074241 -27.655076
-14.704511 81.337769 -28.196844
-15.093535 78.993061 -28.099798
-15.228632 80.074241 -27.655076
-14.912745 78.007553 -28.564782
-15.093535 78.993061 -28.099798
-14.460933 79.273006 -29.195657
-14.6902 76.986321 -28.933324
-14.912745 78.007553 -28.564782
-14.105141 77.122856 -29.939696
-14.515199 75.821678 -29.212379
-14.6902 76.986321 -28.933324
8.408867 59.762737 -50.798002
7.965245 61.531399 -50.522175
8.984619 61.486542 -50.732668
7.817625 58.061339 -50.886009
8.408867 59.762737 -50.798002
7.324494 56.464011 -50.975317
6.896363 58.210266 -50.676817
7.817625 58.061339 -50.886009
6.733289 54.848208 -51.087475
7.324494 56.464011 -50.975317
6.146911 53.322828 -51.18256
5.816855 55.087559 -50.86121
6.733289 54.848208 -51.087475
5.474208 51.906101 -51.308998
6.146911 53.322828 -51.18256
6.390642 51.66675 -51.535263
7.094497 46.639597 -52.426778
6.874386 48.284188 -52.17427
6.425314 45.245737 -52.680194
7.094497 46.639597 -52.426778
7.331738 45.101673 -52.722635
5.954956 42.47941 -53.304981
5.093454 42.836212 -53.248956
5.801054 44.064615 -52.920026
5.954956 42.47941 -53.304981
6.740897 42.042439 -53.279392
-7.855538 59.83979 -38.303733
-8.162287 60.32934 -37.605571
-7.855538 59.83979 -38.303733
-7.504841 60.406032 -38.970644
-6.341337 59.509098 -41.12887
-6.668492 60.261154 -40.450535
-5.821911 59.907287 -41.865495
-6.341337 59.509098 -41.12887
-5.308984 60.480929 -42.516611
-5.821911 59.907287 -41.865495
-5.701838 61.401789 -41.822434
-4.730453 61.049366 -43.150219
-4.850526 59.554865 -43.193281
-5.308984 60.480929 -42.516611
5.274195 74.136311 -48.01048
4.114981 73.779106 -47.607069
4.492185 75.537564 -47.465592
6.054558 72.79298 -48.491722
5.274195 74.136311 -48.01048
6.679333 71.446697 -48.90839
5.521766 71.03157 -48.568626
6.054558 72.79298 -48.491722
7.283868 70.018234 -49.283037
6.679333 71.446697 -48.90839
7.965015 68.542496 -49.684971
6.827687 68.209549 -49.387228
7.283868 70.018234 -49.283037
8.59057 66.76236 -50.049525
7.965015 68.542496 -49.684971
9.106651 65.023056 -50.383364
8.024916 64.994506 -50.123002
8.59057 66.76236 -50.049525
9.639796 63.353748 -50.653488
9.106651 65.023056 -50.383364
-15.048963 73.233207 -27.853414
-14.800415 74.579044 -28.526245
-15.22887 71.847824 -27.126362
-15.048963 73.233207 -27.853414
-14.68048 72.087562 -28.11943
-15.347661 70.364918 -26.441344
-15.22887 71.847824 -27.126362
-14.900792 69.297428 -26.753887
-14.447491 69.493965 -27.628544
-14.487896 68.089214 -26.990052
-15.347661 70.364918 -26.441344
-14.900792 69.297428 -26.753887
-14.50733 62.242899 -24.228043
-14.556565 63.806406 -24.889119
-14.040967 60.983548 -24.445334
-14.50733 62.242899 -24.228043
-13.680184 61.273889 -25.28065
-13.737804 62.774832 -25.873288
-13.294398 61.497006 -26.112707
-14.040967 60.983548 -24.445334
-13.680184 61.273889 -25.28065
-11.91224 59.418133 -28.22663
-12.236422 59.265389 -27.427036
-12.241862 60.716069 -27.999225
-11.91224 59.418133 -28.22663
-11.624054 59.652768 -29.064535
-11.068357 62.337576 -31.337169
-11.487656 62.360807 -30.42814
-11.379556 63.603794 -31.115091
-10.706106 62.192564 -32.174872
-10.56075 63.441534 -32.857236
-10.306599 62.053535 -33.007988
-11.068357 62.337576 -31.337169
-10.706106 62.192564 -32.174872
-1.981267 50.556455 -48.634514
-2.314232 51.854503 -47.956459
-1.577514 51.931421 -48.445263
0.562201 46.79515 -51.473324
1.408752 46.620077 -51.754047
0.322053 48.059649 -50.845263
0.562201 46.79515 -51.473324
-0.020936 49.446045 -50.245125
0.805393 49.367757 -50.594965
0.322053 48.059649 -50.845263
-0.874412 49.385655 -49.80937
-0.391072 50.693764 -49.559072
-0.020936 49.446045 -50.245125
-1.704264 49.398618 -49.34895
-0.874412 49.385655 -49.80937
-1.981267 50.556455 -48.634514
-1.704264 49.398618 -49.34895
3 0 39 37
3 0 42 40
3 0 37 42
3 1 46 44
3 150 149 47
3 151 50 152
3 153 47 154
3 155 154 50
3 153 154 155
3 3 54 52
3 5 57 55
3 6 60 58
3 6 62 60
3 2 65 63
3 7 68 66
3 7 70 68
3 7 72 70
3 8 75 73
3 8 77 75
3 8 79 77
3 5 82 80
3 5 55 82
3 4 85 83
3 9 88 86
3 11 89 38
3 11 90 89
3 13 94 92
3 15 95 41
3 15 96 95
3 15 98 96
3 9 99 43
3 9 86 99
3 17 101 100
3 18 102 45
3 18 103 102
3 19 156 158
3 158 157 104
3 156 157 158
3 20 108 106
3 22 109 48
3 22 110 109
3 23 111 49
3 23 112 111
3 23 113 112
3 20 114 51
3 20 106 114
3 24 117 115
3 26 118 53
3 26 119 118
3 159 120 160
3 161 121 162
3 163 162 120
3 161 162 163
3 164 122 165
3 167 166 122
3 27 168 170
3 170 169 56
3 168 169 170
3 27 171 173
3 171 123 172
3 171 172 173
3 10 124 87
3 28 125 59
3 28 126 125
3 28 127 126
3 29 128 61
3 29 129 128
3 21 130 107
3 30 131 64
3 30 132 131
3 12 133 91
3 31 134 67
3 31 135 134
3 31 136 135
3 32 137 69
3 32 138 137
3 32 139 138
3 33 140 71
3 33 141 140
3 14 142 93
3 34 174 176
3 176 175 74
3 174 175 176
3 34 177 178
3 34 179 181
3 179 143 180
3 179 180 181
3 35 182 184
3 184 183 76
3 182 183 184
3 35 185 186
3 35 187 188
3 190 189 78
3 16 144 97
3 192 191 81
3 25 145 116
3 36 146 84
3 36 147 146
3 193 148 194
3 195 194 105
3 193 194 195
3 37 38 9
3 39 38 37
3 39 11 38
3 40 41 13
3 42 41 40
3 42 15 41
3 42 43 15
3 37 43 42
3 37 9 43
3 44 45 17
3 46 45 44
3 46 18 45
3 197 196 19
3 47 48 20
3 198 48 199
3 200 199 47
3 198 199 200
3 201 22 202
3 203 202 48
3 201 202 203
3 204 49 205
3 50 206 208
3 206 49 207
3 206 207 208
3 50 23 49
3 50 51 23
3 47 51 50
3 47 20 51
3 52 53 24
3 54 53 52
3 54 26 53
3 55 209 211
3 209 56 210
3 209 210 211
3 57 56 55
3 57 27 56
3 58 59 10
3 60 59 58
3 60 28 59
3 60 61 28
3 62 61 60
3 62 29 61
3 63 64 21
3 65 64 63
3 65 30 64
3 66 67 12
3 68 67 66
3 68 31 67
3 68 69 31
3 70 69 68
3 70 32 69
3 70 71 32
3 72 71 70
3 72 33 71
3 73 74 14
3 75 74 73
3 75 34 74
3 75 76 34
3 77 76 75
3 77 35 76
3 77 78 35
3 79 78 77
3 79 212 214
3 214 213 78
3 212 213 214
3 80 81 16
3 82 81 80
3 82 215 217
3 217 216 81
3 215 216 217
3 82 218 219
3 55 220 222
3 222 221 82
3 220 221 222
3 55 223 224
3 83 84 25
3 85 84 83
3 85 36 84
3 226 225 3
3 86 87 5
3 88 87 86
3 88 10 87
3 38 88 9
3 89 88 38
3 89 10 88
3 89 58 10
3 90 58 89
3 90 6 58
3 227 91 228
3 229 228 2
3 227 228 229
3 230 91 231
3 232 12 233
3 234 233 91
3 232 233 234
3 235 12 236
3 237 66 238
3 239 238 12
3 237 238 239
3 240 66 241
3 242 7 243
3 244 243 66
3 242 243 244
3 247 246 7
3 245 246 247
3 92 248 250
3 248 93 249
3 248 249 250
3 94 93 92
3 94 14 93
3 41 94 13
3 95 94 41
3 95 14 94
3 95 73 14
3 96 73 95
3 96 8 73
3 96 97 8
3 98 97 96
3 98 16 97
3 43 98 15
3 99 98 43
3 99 16 98
3 99 80 16
3 86 80 99
3 86 5 80
3 100 251 252
3 101 253 255
3 255 254 100
3 253 254 255
3 101 256 257
3 45 101 17
3 102 101 45
3 102 258 260
3 260 259 101
3 258 259 260
3 102 261 262
3 103 263 265
3 265 264 102
3 263 264 265
3 103 266 267
3 104 105 4
3 268 105 269
3 270 269 104
3 268 269 270
3 272 271 105
3 274 273 19
3 106 107 0
3 108 107 106
3 108 21 107
3 48 108 20
3 109 108 48
3 109 21 108
3 109 63 21
3 110 63 109
3 110 2 63
3 275 22 276
3 277 22 278
3 279 110 280
3 281 280 22
3 279 280 281
3 282 110 283
3 284 2 285
3 286 285 110
3 284 285 286
3 288 287 2
3 49 289 290
3 111 291 293
3 293 292 49
3 291 292 293
3 111 294 295
3 111 296 297
3 112 298 300
3 300 299 111
3 298 299 300
3 112 301 302
3 112 303 305
3 303 92 304
3 303 304 305
3 113 92 112
3 113 13 92
3 51 113 23
3 114 113 51
3 114 13 113
3 114 40 13
3 106 40 114
3 106 0 40
3 115 116 1
3 117 116 115
3 117 25 116
3 53 117 24
3 118 117 53
3 118 25 117
3 118 83 25
3 119 83 118
3 119 4 83
3 306 54 307
3 308 307 3
3 306 307 308
3 309 54 310
3 311 26 312
3 313 312 54
3 311 312 313
3 314 26 315
3 316 119 317
3 318 317 26
3 316 317 318
3 120 319 321
3 319 119 320
3 319 320 321
3 120 4 119
3 120 104 4
3 121 104 120
3 121 19 104
3 322 121 323
3 122 324 326
3 324 121 325
3 324 325 326
3 122 19 121
3 122 327 329
3 329 328 19
3 327 328 329
3 331 330 122
3 56 332 333
3 335 334 56
3 123 336 337
3 123 338 339
3 87 57 5
3 124 57 87
3 124 27 57
3 59 124 10
3 125 124 59
3 125 27 124
3 125 123 27
3 126 123 125
3 126 340 342
3 342 341 123
3 340 341 342
3 126 343 345
3 343 100 344
3 343 344 345
3 127 100 126
3 127 17 100
3 61 127 28
3 128 127 61
3 128 17 127
3 128 44 17
3 129 44 128
3 129 1 44
3 107 39 0
3 130 39 107
3 130 11 39
3 64 130 21
3 131 130 64
3 131 11 130
3 131 90 11
3 132 90 131
3 132 6 90
3 91 65 2
3 133 65 91
3 133 30 65
3 67 133 12
3 134 133 67
3 134 30 133
3 134 132 30
3 135 132 134
3 135 6 132
3 135 62 6
3 136 62 135
3 136 29 62
3 69 136 31
3 137 136 69
3 137 29 136
3 137 129 29
3 138 129 137
3 138 1 129
3 138 115 1
3 139 115 138
3 139 24 115
3 71 139 32
3 140 139 71
3 140 24 139
3 140 52 24
3 141 52 140
3 141 3 52
3 346 72 347
3 348 347 7
3 346 347 348
3 349 72 350
3 351 33 352
3 353 352 72
3 351 352 353
3 354 33 355
3 356 141 357
3 358 357 33
3 356 357 358
3 359 141 360
3 361 3 362
3 363 362 141
3 361 362 363
3 365 364 3
3 93 366 367
3 142 368 370
3 370 369 93
3 368 369 370
3 142 371 372
3 74 142 14
3 373 142 374
3 375 374 74
3 373 374 375
3 377 376 142
3 143 378 379
3 143 380 381
3 76 143 34
3 382 143 383
3 384 383 76
3 382 383 384
3 386 385 143
3 78 387 389
3 389 388 35
3 387 388 389
3 391 390 78
3 97 79 8
3 144 79 97
3 144 392 394
3 394 393 79
3 392 393 394
3 81 144 16
3 395 144 396
3 397 396 81
3 395 396 397
3 399 398 144
3 116 46 1
3 145 46 116
3 145 18 46
3 84 145 25
3 146 145 84
3 146 18 145
3 146 103 18
3 147 103 146
3 147 400 402
3 402 401 103
3 400 401 402
3 105 85 4
3 148 85 105
3 148 36 85
3 403 148 404
3 405 148 406
3 407 36 408
3 409 408 148
3 407 408 409
3 410 147 411
3 412 411 36
3 410 411 412
3 413 147 414
3 416 415 147
