ply
format ascii 1.0
element vertex 322
property float x
property float y
property float z
element face 337
property list uchar int vertex_index
end_header
-22.949369 -7.076767 -6.347281
-33.306313 -9.364587 -17.582508
-22.699825 4.374025 -18.287949
-26.965027 -9.586326 -10.78345
-28.051201 -2.864251 -17.768002
-21.881517 -2.0132 -11.443166
-23.938404 11.645998 -26.532045
-24.563931 -8.832864 -8.232061
-24.440945 -6.121453 -11.112356
-22.167473 -4.850245 -8.655448
-24.386044 -8.930233 -4.160193
-25.355312 -11.220985 -5.651246
-33.977333 -5.478679 -21.324968
-25.237219 0.577752 -17.914051
-28.796787 0.881451 -21.592758
-26.023905 4.306423 -21.936174
-23.333546 7.994767 -22.308441
-32.805031 -13.106665 -13.954384
-30.158056 -9.834822 -13.978119
-30.686367 -6.004763 -17.665159
-27.336052 -6.433951 -14.071551
-24.647974 -2.891353 -14.306993
-22.109844 1.031212 -14.60116
-29.922323 -13.096654 -10.700305
-20.953787 -2.415253 -7.155027
-31.439205 -2.269812 -21.386208
-23.67292 -8.177349 -7.142745
-23.330019 -6.949358 -8.380859
-22.461229 -5.975803 -7.444369
-23.564173 -8.003903 -5.246374
-24.712479 -10.161271 -4.82541
-24.135893 -9.259463 -5.964876
-24.883627 -10.114203 -6.858728
-34.80254 -9.082504 -19.455158
-33.61327 -7.367009 -19.472324
-23.97175 2.39237 -18.09305
-25.61726 2.527766 -19.974312
-24.32427 4.26298 -20.114042
-24.522564 6.178432 -22.034777
-22.910341 6.16532 -20.132353
-33.092033 -11.312638 -15.78287
-34.350739 -12.987918 -15.854262
-34.573784 -11.072628 -17.649786
-28.577105 -9.855154 -12.321551
-28.8162 -8.10172 -14.118732
-27.189005 -8.110516 -12.435557
-23.131638 -4.218195 -11.188814
-24.496319 -4.575802 -12.637501
-23.182941 -2.659548 -12.739378
-23.330259 -0.960459 -14.442664
-21.986835 -0.598105 -12.960964
-27.077518 -11.224742 -9.183144
-28.440969 -12.884582 -9.098914
-28.410307 -11.416012 -10.639634
-29.944756 -11.505733 -12.265027
-29.405161 -4.54632 -17.642887
-31.078365 -4.154015 -19.525454
-29.684305 -2.557502 -19.530064
-29.064074 2.937716 -23.610876
-30.53479 1.360792 -23.578466
-20.448156 -1.321406 -8.158638
-25.742239 -9.448513 -9.368529
-25.629225 -7.919911 -10.836685
-24.372889 -7.479661 -9.592837
-23.156803 -5.586801 -9.782388
-21.922567 -3.437702 -9.982494
-25.781744 -10.664065 -7.907405
-26.638506 -1.146644 -17.861467
-28.346878 -1.045821 -19.556831
-26.960611 0.759686 -19.780443
-27.387985 2.556302 -21.727621
-27.675831 4.556897 -23.762186
-26.307713 6.282232 -23.99987
-25.027374 8.041862 -24.29862
-23.597393 9.863098 -24.371521
-31.672213 -9.634058 -15.678158
-32.055058 -7.690702 -17.637512
-30.376135 -7.865719 -15.851851
-28.892666 -6.23195 -15.770092
-27.627108 -4.576051 -15.936668
-25.77836 -6.322477 -12.525937
-26.029322 -4.675218 -14.254846
-26.308887 -2.891922 -16.063923
-24.933048 -1.084218 -16.17808
-23.57221 0.655332 -16.139067
-22.373621 2.613851 -16.336149
-31.403131 -13.151731 -12.335534
-31.501995 -11.396059 -14.014988
-22.55933 -5.830946 -5.68811
-21.896975 -4.791251 -6.665595
-21.626213 -3.407423 -6.155072
-32.435505 -5.764461 -19.542454
-32.787525 -3.820689 -21.429222
-33.114117 -1.811834 -23.367729
-30.181883 -0.601928 -21.601242
-31.76309 -0.136483 -23.444796
-21.391771 -3.709436 -7.760344
-21.078905 -2.605996 -8.926779
-20.877304 -1.294034 -10.24443
-20.77906 0.18494 -11.680681
-21.213978 4.71208 -16.545692
-21.409838 6.408063 -18.332033
-21.724512 8.138635 -20.33255
-21.968918 9.994904 -22.378906
-22.253681 11.829319 -24.514851
-29.957931 3.107113 -24.579725
-29.284208 3.93822 -24.712208
-24.732997 11.75274 -27.579301
-24.64837 10.814825 -26.531142
-24.013622 12.636768 -27.652457
-24.732997 11.75274 -27.579301
-24.9687 -10.024584 -3.901508
-24.892275 -9.349407 -3.598194
-25.668326 -11.730419 -5.024735
-25.346909 -11.200563 -4.611817
-25.033895 -10.691128 -5.238328
-26.015267 -12.181874 -5.485838
-25.668326 -11.730419 -5.024735
-25.780423 -11.619699 -6.120527
-26.015267 -12.181874 -5.485838
-34.706587 -5.384969 -22.202866
-34.515564 -6.305426 -21.278115
-34.134733 -4.566045 -22.206525
-34.706587 -5.384969 -22.202866
-33.466605 -13.983791 -13.980798
-32.804766 -14.04995 -13.102147
-34.875486 -13.860964 -15.806485
-35.029156 -12.952161 -16.736702
-29.921176 -13.823149 -9.914993
-29.180499 -13.717113 -9.114297
-29.181646 -12.990618 -9.89961
-30.635362 -13.934817 -10.695774
-29.921176 -13.823149 -9.914993
-30.662727 -13.124192 -11.51792
-31.375766 -13.962356 -11.513389
-30.635362 -13.934817 -10.695774
-22.075034 -3.926318 -5.650189
-22.092771 -4.619185 -5.921591
-22.541593 -5.13808 -5.416708
-22.541593 -5.13808 -5.416708
-22.954201 -6.236199 -5.180044
-31.996253 0.802178 -24.466624
-31.14894 0.612155 -23.511631
-31.382103 1.550815 -24.533459
-32.617528 -0.017743 -24.379925
-31.996253 0.802178 -24.466624
-20.591981 -1.396086 -9.12017
-20.763531 -1.963701 -8.542708
-20.276606 -0.753791 -8.736099
-20.49118 -0.740105 -9.778996
-20.978105 -1.950015 -9.585604
-20.591981 -1.396086 -9.12017
-20.283735 1.328467 -11.811347
-20.316611 0.686911 -11.138884
-20.8361 0.864883 -12.446564
-20.283735 1.328467 -11.811347
-20.549979 5.094899 -15.7924
-21.058391 3.959019 -15.641375
-20.860148 7.484604 -18.438716
-20.726282 6.76176 -17.562264
-21.017485 8.349889 -19.438975
-21.567175 7.273349 -19.332292
-20.860148 7.484604 -18.438716
-21.312647 11.115004 -22.447427
-21.226741 10.145957 -21.397191
-21.455029 12.032211 -23.5154
-22.1113 10.912111 -23.446879
-21.312647 11.115004 -22.447427
-34.928168 -8.107338 -20.34321
-35.520197 -9.000128 -20.396507
-34.333533 -7.249591 -20.351793
-34.928168 -8.107338 -20.34321
-34.207905 -8.224756 -19.463741
-33.795302 -6.422844 -20.398646
-34.515564 -6.305426 -21.278115
-34.333533 -7.249591 -20.351793
-35.140678 -11.994516 -17.634464
-35.029156 -12.952161 -16.736702
-34.462261 -12.030273 -16.752024
-35.271675 -11.006143 -18.562093
-35.140678 -11.994516 -17.634464
-35.386053 -10.011081 -19.464779
-35.271675 -11.006143 -18.562093
-34.688162 -10.077566 -18.552472
-35.520197 -9.000128 -20.396507
-35.386053 -10.011081 -19.464779
-27.759244 -12.054662 -9.141029
-27.800626 -12.688499 -8.404696
-27.118901 -11.85858 -8.44681
-30.693289 2.318651 -24.563519
-29.799432 2.149254 -23.594671
-29.957931 3.107113 -24.579725
-31.382103 1.550815 -24.533459
-30.693289 2.318651 -24.563519
-20.273344 -0.528415 -7.888288
-20.700972 -1.868329 -7.656833
-20.526159 -1.075338 -7.386483
-20.010974 0.009797 -8.391052
-20.273344 -0.528415 -7.888288
-20.276606 -0.753791 -8.736099
-20.010974 0.009797 -8.391052
-25.131918 -10.640103 -4.234116
-24.9687 -10.024584 -3.901508
-24.549262 -9.545752 -4.492801
-25.131918 -10.640103 -4.234116
-25.346909 -11.200563 -4.611817
-25.544581 -11.066308 -6.724268
-25.780423 -11.619699 -6.120527
-25.11947 -10.667594 -6.254987
-25.993639 -11.341238 -7.248607
-25.544581 -11.066308 -6.724268
-25.332686 -10.389134 -7.383066
-26.471014 -11.578241 -7.808941
-25.993639 -11.341238 -7.248607
-26.429631 -10.944403 -8.545274
-27.118901 -11.85858 -8.44681
-26.471014 -11.578241 -7.808941
-28.590086 4.74781 -24.787863
-29.284208 3.93822 -24.712208
-28.369953 3.747307 -23.686531
-27.915997 5.530064 -24.884621
-28.590086 4.74781 -24.787863
-27.231938 6.392731 -25.003463
-27.915997 5.530064 -24.884621
-26.991772 5.419564 -23.881028
-26.512061 7.274672 -25.14064
-27.231938 6.392731 -25.003463
-25.871891 8.154487 -25.290015
-26.512061 7.274672 -25.14064
-25.667544 7.162047 -24.149245
-25.192856 9.012757 -25.41443
-25.871891 8.154487 -25.290015
-24.477865 9.923375 -25.45088
-25.192856 9.012757 -25.41443
-24.312383 8.95248 -24.335071
-23.767899 10.754548 -25.451783
-24.64837 10.814825 -26.531142
-24.477865 9.923375 -25.45088
-34.239458 -13.924418 -14.930737
-33.466605 -13.983791 -13.980798
-33.577885 -13.047292 -14.904323
-34.239458 -13.924418 -14.930737
-34.875486 -13.860964 -15.806485
-28.530063 -13.572224 -8.358321
-27.800626 -12.688499 -8.404696
-28.530063 -13.572224 -8.358321
-29.180499 -13.717113 -9.114297
-32.103816 -14.072482 -12.292722
-31.375766 -13.962356 -11.513389
-32.104081 -13.129198 -13.144959
-32.804766 -14.04995 -13.102147
-32.103816 -14.072482 -12.292722
-21.636204 -2.578752 -5.962063
-22.075034 -3.926318 -5.650189
-21.20917 -2.152095 -6.43051
-21.636204 -2.578752 -5.962063
-20.872957 -1.656009 -6.930487
-21.29 -2.911338 -6.655049
-21.20917 -2.152095 -6.43051
-20.526159 -1.075338 -7.386483
-20.872957 -1.656009 -6.930487
-24.384801 -8.204536 -3.886284
-24.892275 -9.349407 -3.598194
-23.867559 -7.785842 -4.416085
-24.384801 -8.204536 -3.886284
-23.456623 -7.322677 -4.959176
-23.975108 -8.467068 -4.703283
-23.867559 -7.785842 -4.416085
-23.061751 -6.917424 -5.467242
-23.456623 -7.322677 -4.959176
-22.954201 -6.236199 -5.180044
-33.539829 -3.73705 -22.258653
-34.134733 -4.566045 -22.206525
-33.382429 -4.649684 -21.377095
-33.703125 -2.732623 -23.227906
-33.539829 -3.73705 -22.258653
-32.950821 -2.816261 -22.398475
-33.877358 -1.756571 -24.201763
-33.703125 -2.732623 -23.227906
-33.293042 -0.855419 -24.341392
-32.438603 -0.974158 -23.406263
-32.617528 -0.017743 -24.379925
-33.877358 -1.756571 -24.201763
-33.293042 -0.855419 -24.341392
-20.365733 -0.052576 -10.420758
-20.49118 -0.740105 -9.778996
-20.828182 -0.554547 -10.962556
-20.365733 -0.052576 -10.420758
-20.316611 0.686911 -11.138884
-21.439987 0.473361 -13.086706
-21.382948 -0.206583 -12.320823
-20.8361 0.864883 -12.446564
-21.501492 1.288019 -13.906803
-22.048339 0.216554 -13.781062
-21.439987 0.473361 -13.086706
-21.506324 2.118585 -14.66911
-21.501492 1.288019 -13.906803
-21.638212 2.909904 -15.536604
-22.241732 1.822531 -15.468654
-21.506324 2.118585 -14.66911
-21.793799 3.662966 -16.44092
-21.638212 2.909904 -15.536604
-21.058391 3.959019 -15.641375
-20.628352 5.913768 -16.669093
-20.549979 5.094899 -15.7924
-21.311908 5.560072 -17.438862
-20.628352 5.913768 -16.669093
-20.726282 6.76176 -17.562264
-21.104538 9.217822 -20.374013
-21.017485 8.349889 -19.438975
-21.846715 9.066769 -21.355728
-21.104538 9.217822 -20.374013
-21.226741 10.145957 -21.397191
-21.568514 12.864268 -24.504646
-21.455029 12.032211 -23.5154
-22.38066 12.731911 -25.58909
-21.568514 12.864268 -24.504646
-23.223022 12.640251 -26.597687
-23.096042 11.737659 -25.523448
-22.38066 12.731911 -25.58909
-24.013622 12.636768 -27.652457
-23.223022 12.640251 -26.597687
3 0 28 26
3 0 31 29
3 0 26 31
3 1 34 33
3 2 37 35
3 2 39 37
3 1 42 40
3 1 33 42
3 3 45 43
3 5 48 46
3 5 50 48
3 3 53 51
3 3 43 53
3 4 57 55
3 106 105 58
3 6 107 108
3 6 109 110
3 7 63 61
3 9 64 27
3 9 65 64
3 10 111 112
3 11 113 115
3 115 114 30
3 113 114 115
3 11 116 117
3 11 118 119
3 7 66 32
3 7 61 66
3 12 120 121
3 12 122 123
3 13 69 67
3 15 70 36
3 15 71 70
3 15 72 71
3 16 73 38
3 16 74 73
3 17 124 125
3 127 126 41
3 18 77 75
3 20 78 44
3 20 79 78
3 8 80 62
3 21 81 47
3 21 82 81
3 21 83 82
3 22 84 49
3 22 85 84
3 23 128 130
3 130 129 52
3 128 129 130
3 23 131 132
3 23 133 135
3 133 86 134
3 133 134 135
3 18 87 54
3 18 75 87
3 136 90 137
3 138 137 88
3 136 137 138
3 139 88 140
3 19 91 76
3 25 92 56
3 25 93 92
3 14 94 68
3 141 95 142
3 143 142 59
3 141 142 143
3 145 144 95
3 24 96 89
3 146 97 147
3 148 147 60
3 146 147 148
3 149 98 150
3 151 150 97
3 149 150 151
3 152 99 153
3 155 154 99
3 156 100 157
3 158 101 159
3 160 102 161
3 162 161 101
3 160 161 162
3 163 103 164
3 165 104 166
3 167 166 103
3 165 166 167
3 26 27 7
3 28 27 26
3 28 9 27
3 29 30 10
3 31 30 29
3 31 11 30
3 31 32 11
3 26 32 31
3 26 7 32
3 33 168 169
3 34 170 172
3 172 171 33
3 170 171 172
3 34 173 175
3 173 12 174
3 173 174 175
3 35 36 13
3 37 36 35
3 37 15 36
3 37 38 15
3 39 38 37
3 39 16 38
3 40 41 17
3 42 41 40
3 42 176 178
3 178 177 41
3 176 177 178
3 42 179 180
3 33 181 183
3 183 182 42
3 181 182 183
3 33 184 185
3 43 44 18
3 45 44 43
3 45 20 44
3 46 47 8
3 48 47 46
3 48 21 47
3 48 49 21
3 50 49 48
3 50 22 49
3 51 186 188
3 186 52 187
3 186 187 188
3 53 52 51
3 53 23 52
3 53 54 23
3 43 54 53
3 43 18 54
3 55 56 19
3 57 56 55
3 57 25 56
3 58 59 14
3 189 59 190
3 191 190 58
3 189 190 191
3 193 192 59
3 194 60 195
3 196 195 24
3 194 195 196
3 197 60 198
3 200 199 60
3 61 62 3
3 63 62 61
3 63 8 62
3 27 63 7
3 64 63 27
3 64 8 63
3 64 46 8
3 65 46 64
3 65 5 46
3 30 201 203
3 203 202 10
3 201 202 203
3 205 204 30
3 32 206 208
3 208 207 11
3 206 207 208
3 66 209 211
3 211 210 32
3 209 210 211
3 66 212 213
3 66 214 216
3 214 51 215
3 214 215 216
3 61 51 66
3 61 3 51
3 67 68 4
3 69 68 67
3 69 14 68
3 36 69 13
3 70 69 36
3 70 14 69
3 70 58 14
3 71 58 70
3 71 217 219
3 219 218 58
3 217 218 219
3 71 220 221
3 72 222 224
3 224 223 71
3 222 223 224
3 72 225 226
3 38 72 15
3 73 72 38
3 73 227 229
3 229 228 72
3 227 228 229
3 73 230 231
3 74 232 234
3 234 233 73
3 232 233 234
3 74 235 237
3 235 6 236
3 235 236 237
3 41 238 240
3 240 239 17
3 238 239 240
3 242 241 41
3 75 76 1
3 77 76 75
3 77 19 76
3 44 77 18
3 78 77 44
3 78 19 77
3 78 55 19
3 79 55 78
3 79 4 55
3 62 45 3
3 80 45 62
3 80 20 45
3 47 80 8
3 81 80 47
3 81 20 80
3 81 79 20
3 82 79 81
3 82 4 79
3 82 67 4
3 83 67 82
3 83 13 67
3 49 83 21
3 84 83 49
3 84 13 83
3 84 35 13
3 85 35 84
3 85 2 35
3 52 243 244
3 246 245 52
3 86 247 248
3 86 249 251
3 249 17 250
3 249 250 251
3 54 86 23
3 87 86 54
3 87 17 86
3 87 40 17
3 75 40 87
3 75 1 40
3 88 89 0
3 90 89 88
3 90 24 89
3 252 90 253
3 254 90 255
3 256 24 257
3 258 257 90
3 256 257 258
3 260 259 24
3 261 10 262
3 263 10 264
3 265 29 266
3 267 266 10
3 265 266 267
3 88 268 270
3 268 29 269
3 268 269 270
3 88 0 29
3 76 34 1
3 91 34 76
3 91 12 34
3 56 91 19
3 92 91 56
3 92 12 91
3 92 271 273
3 273 272 12
3 271 272 273
3 93 274 276
3 276 275 92
3 274 275 276
3 93 277 278
3 68 57 4
3 94 57 68
3 94 25 57
3 59 94 14
3 95 94 59
3 95 25 94
3 95 93 25
3 279 93 280
3 281 280 95
3 279 280 281
3 283 282 93
3 89 28 0
3 96 28 89
3 96 9 28
3 60 96 24
3 97 96 60
3 97 9 96
3 97 65 9
3 98 65 97
3 98 5 65
3 284 98 285
3 99 286 288
3 286 98 287
3 286 287 288
3 99 5 98
3 99 50 5
3 289 50 290
3 291 290 99
3 289 290 291
3 292 22 293
3 294 293 50
3 292 293 294
3 295 22 296
3 297 85 298
3 299 298 22
3 297 298 299
3 100 300 302
3 300 85 301
3 300 301 302
3 100 2 85
3 303 100 304
3 101 305 307
3 305 100 306
3 305 306 307
3 101 2 100
3 101 39 2
3 102 39 101
3 102 16 39
3 308 102 309
3 103 310 312
3 310 102 311
3 310 311 312
3 103 16 102
3 103 74 16
3 104 74 103
3 104 6 74
3 313 104 314
3 315 104 316
3 317 6 318
3 319 318 104
3 317 318 319
3 321 320 6
