ply
format ascii 1.0
element vertex 387
property float x
property float y
property float z
element face 410
property list uchar int vertex_index
end_header
2.927184 78.868828 -42.734539
13.616772 63.721127 -29.478897
15.361182 75.839066 -29.286892
0.875525 56.505856 -48.405788
-2.588588 69.591805 -47.832043
4.989321 65.589211 -42.956364
9.239076 84.473328 -35.549667
9.969376 72.493362 -36.617069
-1.573732 81.100571 -45.181126
-4.536226 76.291481 -47.717735
-0.035233 74.596062 -45.54747
1.459051 67.766273 -45.625999
4.116498 72.26107 -42.846466
12.199725 85.435196 -31.366041
14.57956 70.055809 -29.649315
12.749164 74.516243 -32.957417
12.236762 68.293198 -33.024551
9.951637 65.919197 -36.484711
11.725621 61.951031 -32.902924
15.433653 80.909531 -28.460951
16.974373 70.715004 -26.082842
-2.77343 57.507832 -49.964939
-4.419386 51.644806 -51.651707
-0.663879 51.397968 -50.684605
-4.837725 63.73138 -49.765312
-0.89635 62.946926 -47.997246
2.83093 61.306297 -45.772587
6.106113 82.130722 -39.39415
12.784333 80.159531 -32.535862
9.868639 78.563698 -36.366791
6.900828 75.840775 -39.828461
7.43912 69.308304 -39.837875
0.714144 80.020401 -44.038616
-0.802972 77.830536 -45.443863
1.487339 76.815414 -44.156261
2.172731 73.369881 -44.231239
3.63671 75.616867 -42.758476
14.164993 66.81144 -29.455788
13.418033 69.296349 -31.311409
13.066776 66.201965 -31.202488
12.013418 65.333847 -32.907845
12.64622 63.140968 -31.237436
13.137113 60.561111 -29.457836
-0.850833 56.864525 -49.247398
-1.838057 54.337364 -50.298935
-0.002713 53.951817 -49.62112
-3.669834 73.042976 -47.846539
-4.952454 70.354095 -48.856533
-6.001964 67.312637 -49.726002
-3.85927 66.930542 -48.866806
-2.902917 63.516415 -48.951756
-1.675629 66.032867 -47.906422
3.278093 66.772705 -44.358532
2.261515 64.489944 -45.584328
4.005712 63.462837 -44.282703
5.5135 62.447922 -42.923752
7.069806 86.199028 -37.077915
5.512233 85.198349 -38.935577
7.776976 83.446457 -37.443836
15.433165 78.592323 -29.005274
14.044511 80.848686 -30.621195
14.215122 78.030449 -30.870472
11.340413 73.50444 -34.83849
11.405004 76.592873 -34.719532
10.006016 75.526993 -36.492275
8.301946 77.455704 -38.210041
8.612201 74.189507 -38.189869
7.329795 72.656219 -39.71381
8.754991 70.87587 -38.166779
8.904675 64.59153 -38.128277
-3.271542 48.723854 -52.092716
1.7049 53.487949 -48.858639
-4.056903 82.121529 -46.228901
-5.575337 79.728851 -47.501678
-3.138084 78.964203 -46.509724
-2.277843 75.542801 -46.706951
-1.370771 72.234001 -46.742443
-0.511213 68.755745 -46.783844
0.777063 71.206596 -45.557487
2.792701 70.03476 -44.256187
4.612225 68.933914 -42.852779
10.786044 85.190384 -33.413513
15.04605 73.028862 -29.51067
14.100317 75.130081 -31.093521
13.834109 72.373344 -31.215866
12.49575 71.512321 -33.075539
11.241851 70.579216 -34.81385
10.085354 69.203743 -36.396954
11.103275 67.373039 -34.740124
10.985349 64.161018 -34.621441
-5.116493 85.204361 -45.817356
-2.553651 84.332214 -44.827305
0.011444 83.368294 -43.630444
2.332106 82.034286 -42.446957
16.57415 75.973747 -27.417395
16.178301 73.261719 -27.834562
15.794732 70.544006 -27.878056
15.292986 67.633896 -27.826452
14.669551 64.575035 -27.821325
-4.744949 57.6731 -50.659588
-5.581295 54.71954 -51.36887
-3.641996 54.516178 -50.873699
-2.55652 51.512772 -51.238144
-1.411326 48.80175 -51.725319
0.962275 51.032234 -50.157211
-5.831938 60.820461 -50.5476
-3.739344 60.518024 -49.819103
-1.803137 60.214417 -48.999966
0.073874 59.767139 -48.069016
0.347067 65.481926 -46.778484
1.025079 62.423561 -46.893536
1.821054 58.957714 -47.12318
3.966633 83.85537 -40.696625
4.391695 80.798378 -41.183262
13.91608 83.272888 -29.924295
12.523868 82.924767 -32.107792
11.123285 82.461555 -34.070824
12.836223 77.438416 -32.819332
11.401007 79.582405 -34.406445
9.616091 81.421928 -36.099239
8.135296 80.541512 -37.855385
6.520761 79.091919 -39.697483
4.971225 77.678856 -41.322891
5.511384 74.183655 -41.355709
5.995358 70.903351 -41.27161
6.151231 67.663025 -41.453907
8.802896 67.869286 -38.172028
7.687576 66.17173 -39.748405
6.503319 64.367264 -41.448715
8.154441 85.336178 -36.313791
7.849614 86.720978 -35.98785
8.934249 85.858128 -35.223726
-3.559814 47.257624 -52.483034
-2.738587 47.374491 -52.407055
11.16753 86.585484 -32.054034
11.850749 86.727768 -30.94732
11.492885 85.31279 -32.389777
10.46069 86.463077 -33.07777
11.16753 86.585484 -32.054034
11.273408 61.395222 -33.803549
10.903272 62.500215 -34.662807
11.355485 63.056024 -33.762182
11.620389 60.294432 -32.926836
11.273408 61.395222 -33.803549
-4.277662 86.36026 -44.983362
-5.620933 86.762619 -45.459757
-2.996242 85.924186 -44.488337
-3.835072 84.768287 -45.32233
-4.277662 86.36026 -44.983362
0.783195 84.30014 -42.823639
-0.500441 84.945118 -43.412231
1.943526 83.633137 -42.231896
1.171775 82.70129 -43.0387
0.783195 84.30014 -42.823639
17.13183 76.063934 -26.49318
16.619563 77.257912 -27.226559
17.20801 72.102684 -25.983483
17.514845 70.776466 -25.249302
16.576337 71.988361 -26.958702
16.809974 73.376041 -26.859344
17.20801 72.102684 -25.983483
15.518363 66.247268 -26.945894
15.826936 67.761593 -27.011157
15.206646 64.717838 -26.943331
14.981269 66.104466 -27.823889
15.518363 66.247268 -26.945894
14.868174 63.266071 -26.933333
15.206646 64.717838 -26.943331
1.75507 50.923677 -49.787033
1.333588 52.260092 -49.507925
2.126383 52.151535 -49.137747
-5.73582 76.603313 -48.177894
-6.255375 78.321999 -48.069866
-5.055782 78.010166 -47.609707
-5.919461 64.041967 -50.120735
-6.501581 65.832595 -50.10108
-5.419844 65.522008 -49.745657
-5.334831 62.27592 -50.156456
-6.416568 62.586507 -50.511879
-5.919461 64.041967 -50.120735
3.181947 59.772675 -45.859527
2.677009 58.598383 -46.534824
2.325992 60.132006 -46.447884
14.674867 82.091209 -29.192623
14.557108 83.307933 -28.832213
15.315894 82.126255 -28.100541
7.793249 64.590693 -39.751194
8.296125 65.38163 -38.938341
8.401798 63.800593 -38.94113
7.201121 63.68846 -40.601349
7.095448 65.269497 -40.59856
7.793249 64.590693 -39.751194
6.725959 62.787033 -41.409414
7.201121 63.68846 -40.601349
-5.27858 51.625383 -51.809594
-5.859535 53.162751 -51.668175
-5.000341 53.182173 -51.510289
12.849785 85.602055 -30.222511
11.850749 86.727768 -30.94732
12.489031 61.470274 -31.181086
12.028731 60.875305 -32.013829
12.18592 62.546 -32.07018
12.734477 60.180346 -30.291286
12.489031 61.470274 -31.181086
12.891666 61.851039 -30.347636
12.963147 58.851215 -29.357564
12.734477 60.180346 -30.291286
17.233816 69.292797 -25.247336
17.514845 70.776466 -25.249302
16.66763 69.302147 -26.139352
17.233816 69.292797 -25.247336
-4.845957 73.305389 -48.340828
-5.279153 74.929642 -48.276426
-4.10303 74.667228 -47.782137
-5.487267 71.960949 -48.845825
-4.845957 73.305389 -48.340828
-4.311144 71.698535 -48.351536
-6.092837 70.599395 -49.284846
-5.487267 71.960949 -48.845825
-5.477209 68.833366 -49.291268
-6.617593 69.078666 -49.71958
-6.092837 70.599395 -49.284846
4.242225 61.980967 -44.365383
3.654834 60.902697 -45.110325
3.418321 62.384567 -45.027645
4.996119 61.473509 -43.685907
4.242225 61.980967 -44.365383
4.759606 62.955379 -43.603228
5.738008 60.910599 -42.994636
4.996119 61.473509 -43.685907
6.723273 87.658481 -36.625078
7.849614 86.720978 -35.98785
6.006418 87.115871 -37.621099
6.723273 87.658481 -36.625078
6.291019 85.698689 -38.006746
5.227632 86.615532 -38.549931
6.006418 87.115871 -37.621099
9.42202 63.629773 -37.292694
9.428156 65.255364 -37.306494
9.945501 64.293606 -36.470911
8.9823 62.94258 -38.110294
9.42202 63.629773 -37.292694
8.401798 63.800593 -38.94113
8.9823 62.94258 -38.110294
-4.145986 48.712261 -52.208241
-4.719907 50.172737 -51.987736
-3.845464 50.18433 -51.872212
-4.145986 48.712261 -52.208241
-3.559814 47.257624 -52.483034
2.161208 54.735195 -48.122509
1.290212 54.996903 -48.632213
1.746521 56.244149 -47.896084
2.530367 53.305011 -48.364973
2.161208 54.735195 -48.122509
2.126383 52.151535 -49.137747
2.530367 53.305011 -48.364973
-4.81612 80.92519 -46.86529
-6.138933 81.353794 -47.336967
-5.379716 82.550133 -46.700578
9.707733 86.216656 -34.155649
10.46069 86.463077 -33.07777
10.01256 84.831856 -34.48159
8.934249 85.858128 -35.223726
9.707733 86.216656 -34.155649
10.462357 63.414516 -35.539276
9.945501 64.293606 -36.470911
10.468493 65.040108 -35.553076
10.462357 63.414516 -35.539276
10.903272 62.500215 -34.662807
11.620389 60.294432 -32.926836
12.028731 60.875305 -32.013829
-6.372656 85.632969 -46.201132
-6.877097 87.191227 -45.843533
-5.620933 86.762619 -45.459757
-5.909511 84.091549 -46.494806
-6.372656 85.632969 -46.201132
-4.586698 83.662945 -46.023128
-5.379716 82.550133 -46.700578
-5.909511 84.091549 -46.494806
-1.782989 85.427078 -44.010662
-2.996242 85.924186 -44.488337
-1.271103 83.850254 -44.228875
-1.782989 85.427078 -44.010662
-0.500441 84.945118 -43.412231
16.037 80.907356 -27.40661
15.315894 82.126255 -28.100541
16.049315 79.725803 -27.748337
16.037 80.907356 -27.40661
16.04907 78.567199 -28.020499
15.433409 79.750927 -28.733113
16.049315 79.725803 -27.748337
16.003657 77.283035 -28.211334
16.04907 78.567199 -28.020499
16.619563 77.257912 -27.226559
17.007898 74.732056 -26.65076
17.13183 76.063934 -26.49318
16.376226 74.617733 -27.625978
17.007898 74.732056 -26.65076
16.809974 73.376041 -26.859344
16.077809 69.216648 -27.036959
16.384552 70.629505 -26.980449
16.66763 69.302147 -26.139352
15.543859 69.088951 -27.852254
16.077809 69.216648 -27.036959
15.826936 67.761593 -27.011157
14.368205 62.94228 -27.774352
13.841815 62.515326 -28.603138
14.143161 64.148081 -28.650111
14.368205 62.94228 -27.774352
14.868174 63.266071 -26.933333
-5.163122 56.19632 -51.014229
-6.173523 56.326327 -51.291511
-5.75535 57.803106 -50.93687
-1.808479 47.413438 -52.223356
-2.738587 47.374491 -52.407055
-2.341434 48.762802 -51.909018
1.473527 49.761482 -50.468437
1.75507 50.923677 -49.787033
0.622669 49.785494 -50.76818
1.473527 49.761482 -50.468437
-0.190408 49.968361 -51.031878
0.149198 51.215101 -50.420908
0.622669 49.785494 -50.76818
-0.564132 48.670252 -51.552234
-1.037602 50.099859 -51.204962
-0.190408 49.968361 -51.031878
-0.955391 47.467825 -52.1139
-0.564132 48.670252 -51.552234
-1.808479 47.413438 -52.223356
-0.955391 47.467825 -52.1139
-6.800892 79.957088 -47.94309
-6.138933 81.353794 -47.336967
-6.800892 79.957088 -47.94309
-6.255375 78.321999 -48.069866
-5.73582 76.603313 -48.177894
-5.279153 74.929642 -48.276426
-7.107116 67.482143 -50.096561
-6.617593 69.078666 -49.71958
-7.107116 67.482143 -50.096561
-6.501581 65.832595 -50.10108
-6.901533 61.019388 -50.845913
-6.416568 62.586507 -50.511879
-6.298844 59.376787 -50.880876
-6.901533 61.019388 -50.845913
-5.288443 59.24678 -50.603594
-5.75535 57.803106 -50.93687
-6.298844 59.376787 -50.880876
2.219285 57.470078 -47.254779
1.746521 56.244149 -47.896084
1.348289 57.731785 -47.764484
2.219285 57.470078 -47.254779
2.677009 58.598383 -46.534824
3.181947 59.772675 -45.859527
3.654834 60.902697 -45.110325
4.315621 86.008629 -39.592106
5.227632 86.615532 -38.549931
3.542821 85.33714 -40.472629
4.315621 86.008629 -39.592106
4.739433 84.52686 -39.816101
2.760789 84.543678 -41.35673
3.542821 85.33714 -40.472629
3.149369 82.944828 -41.571791
1.943526 83.633137 -42.231896
2.760789 84.543678 -41.35673
13.707963 84.5209 -29.501638
14.557108 83.307933 -28.832213
13.057903 84.354042 -30.645168
12.849785 85.602055 -30.222511
13.707963 84.5209 -29.501638
6.231049 61.827362 -42.146933
6.008409 63.407593 -42.186234
6.725959 62.787033 -41.409414
5.738008 60.910599 -42.994636
6.231049 61.827362 -42.146933
13.601986 60.935318 -28.592607
13.376942 62.141119 -29.468367
13.841815 62.515326 -28.603138
13.32543 59.266565 -28.555742
13.601986 60.935318 -28.592607
12.963147 58.851215 -29.357564
13.32543 59.266565 -28.555742
-6.522794 54.688158 -51.575418
-6.173523 56.326327 -51.291511
-6.522794 54.688158 -51.575418
-5.859535 53.162751 -51.668175
-5.27858 51.625383 -51.809594
-4.719907 50.172737 -51.987736
3 0 34 32
3 0 36 34
3 1 39 37
3 1 41 39
3 1 42 41
3 3 45 43
3 4 47 46
3 4 49 47
3 4 51 49
3 5 54 52
3 5 55 54
3 6 129 131
3 129 56 130
3 129 130 131
3 6 58 56
3 2 61 59
3 7 64 62
3 7 66 64
3 7 68 66
3 133 132 70
3 8 74 72
3 10 75 33
3 10 76 75
3 10 78 76
3 12 79 35
3 12 80 79
3 13 134 135
3 13 136 138
3 136 81 137
3 136 137 138
3 14 84 82
3 16 85 38
3 16 86 85
3 16 88 86
3 18 89 40
3 18 139 141
3 141 140 89
3 139 140 141
3 18 142 143
3 144 90 145
3 146 91 147
3 148 147 90
3 146 147 148
3 149 92 150
3 151 93 152
3 153 152 92
3 151 152 153
3 154 94 155
3 20 156 157
3 20 158 160
3 158 95 159
3 158 159 160
3 20 96 95
3 161 97 162
3 163 98 164
3 165 164 97
3 163 164 165
3 167 166 98
3 21 101 99
3 23 102 44
3 23 103 102
3 168 104 169
3 170 169 71
3 168 169 170
3 9 171 173
3 173 172 73
3 171 172 173
3 24 174 176
3 176 175 48
3 174 175 176
3 24 177 179
3 177 105 178
3 177 178 179
3 24 106 105
3 25 107 50
3 25 108 107
3 11 109 77
3 26 110 53
3 26 111 110
3 26 180 182
3 182 181 111
3 180 181 182
3 27 112 57
3 27 113 112
3 19 183 185
3 183 114 184
3 183 184 185
3 28 115 60
3 28 116 115
3 15 117 83
3 29 118 63
3 29 119 118
3 29 120 119
3 30 121 65
3 30 122 121
3 30 123 122
3 31 124 67
3 31 125 124
3 17 126 87
3 186 127 187
3 188 187 69
3 186 187 188
3 189 128 190
3 191 190 127
3 189 190 191
3 193 192 128
3 22 194 196
3 196 195 100
3 194 195 196
3 32 33 8
3 34 33 32
3 34 10 33
3 34 35 10
3 36 35 34
3 36 12 35
3 197 13 198
3 37 38 14
3 39 38 37
3 39 16 38
3 39 40 16
3 41 40 39
3 41 18 40
3 41 199 201
3 201 200 18
3 199 200 201
3 42 202 204
3 204 203 41
3 202 203 204
3 42 205 206
3 207 20 208
3 210 209 20
3 43 44 21
3 45 44 43
3 45 23 44
3 46 211 213
3 213 212 9
3 211 212 213
3 47 214 216
3 216 215 46
3 214 215 216
3 47 217 218
3 47 219 221
3 219 48 220
3 219 220 221
3 49 48 47
3 49 24 48
3 49 50 24
3 51 50 49
3 51 25 50
3 52 53 11
3 54 53 52
3 54 26 53
3 54 222 224
3 224 223 26
3 222 223 224
3 55 225 227
3 227 226 54
3 225 226 227
3 55 228 229
3 56 230 231
3 56 232 233
3 56 234 236
3 234 57 235
3 234 235 236
3 58 57 56
3 58 27 57
3 59 60 19
3 61 60 59
3 61 28 60
3 62 63 15
3 64 63 62
3 64 29 63
3 64 65 29
3 66 65 64
3 66 30 65
3 66 67 30
3 68 67 66
3 68 31 67
3 237 69 238
3 239 238 17
3 237 238 239
3 240 69 241
3 243 242 69
3 70 244 246
3 246 245 22
3 244 245 246
3 248 247 70
3 249 71 250
3 251 250 3
3 249 250 251
3 252 71 253
3 255 254 71
3 72 256 258
3 256 73 257
3 256 257 258
3 74 73 72
3 74 9 73
3 33 74 8
3 75 74 33
3 75 9 74
3 75 46 9
3 76 46 75
3 76 4 46
3 76 77 4
3 78 77 76
3 78 11 77
3 35 78 10
3 79 78 35
3 79 11 78
3 79 52 11
3 80 52 79
3 80 5 52
3 81 259 260
3 81 261 263
3 261 6 262
3 261 262 263
3 82 83 2
3 84 83 82
3 84 15 83
3 38 84 14
3 85 84 38
3 85 15 84
3 85 62 15
3 86 62 85
3 86 7 62
3 86 87 7
3 88 87 86
3 88 17 87
3 40 88 16
3 89 88 40
3 89 17 88
3 89 264 266
3 266 265 17
3 264 265 266
3 268 267 89
3 270 269 18
3 90 271 273
3 271 272 273
3 90 274 275
3 90 276 278
3 276 72 277
3 276 277 278
3 91 72 90
3 91 8 72
3 279 91 280
3 92 281 283
3 281 91 282
3 281 282 283
3 92 8 91
3 92 32 8
3 93 32 92
3 93 0 32
3 284 19 285
3 286 19 287
3 288 59 289
3 290 289 19
3 288 289 290
3 94 291 293
3 291 59 292
3 291 292 293
3 94 2 59
3 294 94 295
3 95 296 298
3 296 94 297
3 296 297 298
3 95 2 94
3 95 82 2
3 96 82 95
3 96 14 82
3 299 96 300
3 301 300 20
3 299 300 301
3 97 302 304
3 302 96 303
3 302 303 304
3 97 14 96
3 97 37 14
3 98 37 97
3 98 1 37
3 98 305 307
3 307 306 1
3 305 306 307
3 309 308 98
3 99 310 312
3 310 100 311
3 310 311 312
3 101 100 99
3 101 22 100
3 44 101 21
3 102 101 44
3 102 22 101
3 102 70 22
3 103 70 102
3 103 313 315
3 315 314 70
3 313 314 315
3 71 45 3
3 104 45 71
3 104 23 45
3 316 104 317
3 318 104 319
3 320 23 321
3 322 321 104
3 320 321 322
3 323 103 324
3 325 324 23
3 323 324 325
3 326 103 327
3 329 328 103
3 73 330 331
3 333 332 73
3 335 334 9
3 48 336 337
3 339 338 48
3 105 340 341
3 105 342 343
3 105 344 346
3 344 99 345
3 344 345 346
3 106 99 105
3 106 21 99
3 50 106 24
3 107 106 50
3 107 21 106
3 107 43 21
3 108 43 107
3 108 3 43
3 77 51 4
3 109 51 77
3 109 25 51
3 53 109 11
3 110 109 53
3 110 25 109
3 110 108 25
3 111 108 110
3 111 3 108
3 111 347 349
3 349 348 3
3 347 348 349
3 351 350 111
3 353 352 26
3 57 354 355
3 112 356 358
3 358 357 57
3 356 357 358
3 112 359 360
3 112 361 363
3 361 93 362
3 361 362 363
3 113 93 112
3 113 0 93
3 114 364 365
3 114 366 368
3 366 13 367
3 366 367 368
3 60 114 19
3 115 114 60
3 115 13 114
3 115 81 13
3 116 81 115
3 116 6 81
3 83 61 2
3 117 61 83
3 117 28 61
3 63 117 15
3 118 117 63
3 118 28 117
3 118 116 28
3 119 116 118
3 119 6 116
3 119 58 6
3 120 58 119
3 120 27 58
3 65 120 29
3 121 120 65
3 121 27 120
3 121 113 27
3 122 113 121
3 122 0 113
3 122 36 0
3 123 36 122
3 123 12 36
3 67 123 30
3 124 123 67
3 124 12 123
3 124 80 12
3 125 80 124
3 125 5 80
3 87 68 7
3 126 68 87
3 126 31 68
3 69 126 17
3 127 126 69
3 127 31 126
3 127 125 31
3 128 125 127
3 128 5 125
3 128 55 5
3 369 55 370
3 371 370 128
3 369 370 371
3 373 372 55
3 374 42 375
3 376 375 1
3 374 375 376
3 377 42 378
3 380 379 42
3 100 381 382
3 384 383 100
3 386 385 22
