ply
format ascii 1.0
element vertex 404
property float x
property float y
property float z
element face 452
property list uchar int vertex_index
end_header
17.165039 62.778118 -51.248756
6.071878 88.000343 -44.613766
25.632113 89.413521 -42.811924
11.230453 48.556496 -52.163887
24.82262 60.057564 -49.763691
12.8407 77.410286 -49.363594
16.534964 90.682693 -45.302849
22.192945 77.413986 -48.906933
29.439291 73.700485 -45.47966
12.955297 63.173347 -51.139145
10.150247 56.249138 -51.45237
14.147142 55.742004 -51.677143
8.038297 76.455521 -48.535767
9.787875 83.392479 -47.374176
18.371193 96.243958 -41.549103
21.477091 90.56929 -44.494705
19.665134 84.51371 -47.581322
24.075443 83.840958 -46.441017
26.109947 75.874786 -47.629223
27.91448 81.965805 -44.419552
14.329775 38.455051 -52.008469
7.560699 49.784714 -51.964203
8.307718 42.809219 -52.973595
21.214096 61.589405 -50.79995
17.949324 54.369869 -51.459755
10.779076 70.376343 -50.104755
15.383924 70.827072 -50.568146
13.173433 95.469955 -42.175282
11.458139 89.683609 -45.356598
14.863297 84.293373 -47.86274
17.670345 78.048195 -49.468719
19.783756 70.293678 -50.445625
23.860268 69.095352 -49.643829
27.460667 66.965721 -48.12368
30.610626 64.266983 -45.756851
14.643045 47.172108 -51.944386
11.307005 40.779366 -52.67683
15.06919 63.478512 -51.231594
13.728921 59.580128 -51.449574
15.753196 59.335384 -51.477226
7.283359 82.55114 -46.939156
8.041951 85.97612 -46.078285
24.421047 92.742065 -41.551613
22.199924 93.332428 -42.478287
23.632814 90.317558 -43.675503
22.809784 87.613541 -45.483536
24.786673 86.938141 -44.758392
25.997536 83.190941 -45.542343
26.741947 85.835358 -43.793594
10.875859 52.734257 -51.822826
9.011549 52.889877 -51.684776
9.463299 49.489925 -52.094902
8.000921 46.495533 -52.469219
9.63097 45.6231 -52.513123
23.058401 60.620899 -50.366348
21.421886 57.076668 -50.831066
10.39942 77.000694 -49.016449
9.621163 73.604095 -49.418224
11.999143 73.969505 -49.822144
13.085855 70.794601 -50.398693
14.254725 74.301788 -50.044601
17.525867 93.456894 -43.662441
15.826352 95.955452 -42.00098
14.976637 93.271469 -43.837879
12.161475 92.686913 -43.87851
14.131002 90.339096 -45.409489
13.359569 87.361961 -46.644241
15.862379 87.555275 -46.729485
20.985474 80.997055 -48.367168
18.672007 81.405151 -48.631306
20.009626 77.785126 -49.287769
18.979261 74.331573 -50.017651
21.207558 73.874168 -49.759262
21.873627 69.796425 -50.129803
23.119493 73.509895 -49.337795
27.890471 74.709412 -46.661285
26.971066 71.59964 -47.885418
28.599699 70.30751 -46.901653
29.128727 65.877716 -46.993347
30.116743 69.338753 -45.632694
18.161507 49.967972 -51.420113
16.244865 50.794983 -51.701271
16.375538 46.352188 -51.689243
12.868988 39.783485 -52.372967
11.239166 36.877827 -52.852028
10.738596 63.452293 -50.850136
9.428241 59.71788 -51.008495
11.526132 59.83041 -51.277443
12.188331 56.050789 -51.620441
12.679976 51.901436 -51.89986
5.6514 75.894768 -47.869003
6.442631 79.2911 -47.473331
8.987713 79.934113 -48.079395
11.443811 80.602898 -48.455406
19.911621 93.578156 -43.147858
19.037836 90.897644 -44.94384
18.320171 87.911064 -46.470192
20.551247 87.84404 -46.120361
21.954992 84.548866 -47.028275
23.107527 80.689171 -47.840897
24.235041 76.564171 -48.40163
25.146719 79.89183 -47.165707
27.003448 79.201065 -46.179169
28.680634 78.055885 -45.06205
26.158886 92.035446 -40.506947
27.386852 88.497841 -41.633953
8.245755 56.315083 -51.184509
7.063345 53.083477 -51.408825
19.240147 62.381611 -51.093239
17.809189 58.658913 -51.387508
19.619259 57.868408 -51.179447
19.825928 53.502277 -51.156521
7.212125 73.208107 -48.831486
8.421195 70.351181 -49.58078
9.672305 66.790909 -50.309887
11.948254 67.047005 -50.671349
14.090514 67.166206 -50.880527
16.449327 66.899994 -50.977127
6.675768 91.000839 -43.347797
10.404963 94.89267 -42.03965
9.530905 91.943611 -43.728783
8.603617 89.106705 -44.950279
10.639567 86.651993 -46.476181
12.465988 84.109276 -47.665737
13.777616 80.999077 -48.697304
17.237043 84.722961 -47.757648
16.353613 81.368675 -48.748978
15.23005 77.769081 -49.517792
16.633537 74.475143 -50.110813
17.606625 70.833992 -50.566978
18.578606 66.718094 -50.897068
20.623388 65.982803 -50.692924
22.653254 65.412933 -50.29285
24.478035 64.582169 -49.761036
25.132185 72.711441 -48.702583
25.786932 68.408546 -48.925125
26.193184 63.576321 -49.061352
27.853582 62.367455 -48.153023
29.4877 60.898407 -46.995319
28.479362 84.655067 -42.539288
29.434788 80.95491 -43.102791
30.230057 76.618881 -43.717335
30.921377 72.157349 -44.098663
31.411654 67.45533 -44.429688
31.900808 62.687412 -44.42625
16.117533 55.308929 -51.619453
14.605371 51.600723 -51.834366
12.978714 47.968597 -52.094391
14.540187 42.93829 -52.004429
12.934725 43.802963 -52.264648
11.303583 44.704418 -52.43927
9.806533 41.73098 -52.885117
5.744751 86.469966 -45.085852
4.803147 87.405682 -44.337971
7.056914 86.988231 -45.346025
6.729787 85.457855 -45.818112
5.744751 86.469966 -45.085852
24.024149 58.0135 -50.043104
23.142039 58.295168 -50.344432
23.940511 60.339231 -50.06502
17.171669 45.772871 -51.519588
17.268522 48.16008 -51.554678
18.064653 47.580763 -51.385024
11.110427 35.009594 -52.918039
11.930806 36.250311 -52.645935
10.458783 35.687611 -53.148353
11.110427 35.009594 -52.918039
5.54014 80.487336 -46.855209
5.202856 78.89352 -47.093498
26.464696 93.05635 -39.217777
25.520653 93.618248 -39.811634
27.016524 91.489182 -39.839626
26.464696 93.05635 -39.217777
6.639318 50.017369 -51.812952
6.390642 51.66675 -51.535263
7.312022 51.434095 -51.686514
6.874386 48.284188 -52.17427
6.639318 50.017369 -51.812952
7.485136 43.258516 -52.974823
7.331738 45.101673 -52.722635
8.154319 44.652376 -52.721407
7.563478 41.593142 -53.278164
7.485136 43.258516 -52.974823
20.679625 53.028126 -50.951629
20.623907 55.289473 -50.993793
21.477604 54.815321 -50.788902
19.827081 51.108942 -51.104097
20.679625 53.028126 -50.951629
7.175458 92.407409 -42.650671
5.799157 91.910293 -42.423376
17.515861 97.361099 -40.676455
18.791379 97.417996 -40.405622
13.618415 96.802853 -41.117086
14.944875 97.045601 -41.029936
14.499892 95.712704 -42.088131
12.260541 96.367363 -41.27014
13.618415 96.802853 -41.117086
11.789198 95.181312 -42.107466
10.876306 96.078721 -41.202324
12.260541 96.367363 -41.27014
30.742216 61.747806 -45.769598
30.180753 60.063519 -46.388832
30.049163 62.582695 -46.376085
28.687356 86.012058 -41.430439
27.933107 86.576454 -42.08662
28.141101 87.933445 -40.977772
30.125504 80.147674 -42.423298
29.71722 82.171143 -42.063643
30.523138 77.97966 -42.73057
29.832422 78.786895 -43.410063
30.125504 80.147674 -42.423298
31.532965 71.29565 -43.415203
31.257454 73.504032 -43.186354
31.778104 68.944641 -43.580715
31.166515 69.80634 -44.264176
31.532965 71.29565 -43.415203
32.512389 61.7255 -43.675523
32.302386 64.185564 -43.656075
32.015004 60.241955 -44.435507
32.512389 61.7255 -43.675523
14.434981 40.69667 -52.006449
15.316153 42.31606 -51.833063
15.210947 40.07444 -51.835083
6.350491 83.745365 -46.248547
5.960504 82.117356 -46.588121
7.662655 84.26363 -46.50872
6.350491 83.745365 -46.248547
6.729787 85.457855 -45.818112
23.310485 93.037246 -42.01495
22.514541 94.538425 -41.368296
23.625103 94.243244 -40.904959
22.323782 56.523052 -50.576791
22.240144 58.848783 -50.598707
23.142039 58.295168 -50.344432
21.477604 54.815321 -50.788902
22.323782 56.523052 -50.576791
12.745717 37.70314 -52.406405
13.599381 39.119268 -52.190718
13.476111 37.038923 -52.224155
12.054077 38.330656 -52.612498
12.745717 37.70314 -52.406405
11.930806 36.250311 -52.645935
10.529211 37.53118 -53.015194
10.56313 39.481949 -52.927595
11.273086 38.828597 -52.764429
10.529211 37.53118 -53.015194
10.458783 35.687611 -53.148353
10.083419 61.585087 -50.929316
8.984619 61.486542 -50.732668
9.639796 63.353748 -50.653488
24.924975 57.630281 -49.699613
25.645089 59.4243 -49.390736
4.80724 77.195355 -47.291334
4.492185 75.537564 -47.465592
6.047016 77.592934 -47.671167
4.80724 77.195355 -47.291334
5.202856 78.89352 -47.093498
6.862995 80.92112 -47.206243
5.54014 80.487336 -46.855209
5.960504 82.117356 -46.588121
19.545606 96.251458 -41.218586
18.791379 97.417996 -40.405622
21.459971 94.795693 -41.683178
22.514541 94.538425 -41.368296
20.315819 94.918556 -42.017964
21.459971 94.795693 -41.683178
21.055772 93.455292 -42.813073
19.141407 94.911057 -42.348481
19.545606 96.251458 -41.218586
20.315819 94.918556 -42.017964
15.089575 37.943374 -51.779936
15.210947 40.07444 -51.835083
14.193503 36.478601 -51.978298
15.089575 37.943374 -51.779936
13.476111 37.038923 -52.224155
14.193503 36.478601 -51.978298
5.155168 88.935505 -43.779812
4.803147 87.405682 -44.337971
24.651733 93.971557 -40.333967
23.625103 94.243244 -40.904959
25.289966 92.388756 -41.02928
24.651733 93.971557 -40.333967
25.520653 93.618248 -39.811634
27.630508 89.720379 -40.403129
26.772869 90.266643 -41.07045
27.016524 91.489182 -39.839626
28.141101 87.933445 -40.977772
27.630508 89.720379 -40.403129
8.408867 59.762737 -50.798002
8.984619 61.486542 -50.732668
7.817625 58.061339 -50.886009
8.408867 59.762737 -50.798002
8.836998 58.016481 -51.096502
7.324494 56.464011 -50.975317
7.817625 58.061339 -50.886009
6.733289 54.848208 -51.087475
7.324494 56.464011 -50.975317
7.65455 54.69928 -51.296667
6.146911 53.322828 -51.18256
6.733289 54.848208 -51.087475
6.146911 53.322828 -51.18256
6.390642 51.66675 -51.535263
7.094497 46.639597 -52.426778
6.874386 48.284188 -52.17427
7.78081 48.140124 -52.216711
7.094497 46.639597 -52.426778
7.331738 45.101673 -52.722635
18.99487 49.34179 -51.235894
18.993718 51.735124 -51.288317
19.827081 51.108942 -51.104097
18.064653 47.580763 -51.385024
18.99487 49.34179 -51.235894
24.024149 58.0135 -50.043104
24.924975 57.630281 -49.699613
5.274195 74.136311 -48.01048
4.492185 75.537564 -47.465592
6.054558 72.79298 -48.491722
5.274195 74.136311 -48.01048
6.431762 74.551437 -48.350245
6.679333 71.446697 -48.90839
6.054558 72.79298 -48.491722
7.283868 70.018234 -49.283037
6.679333 71.446697 -48.90839
7.81666 71.779644 -49.206133
7.965015 68.542496 -49.684971
7.283868 70.018234 -49.283037
8.59057 66.76236 -50.049525
7.965015 68.542496 -49.684971
9.04675 68.571045 -49.945334
9.106651 65.023056 -50.383364
8.59057 66.76236 -50.049525
10.20545 65.121601 -50.580011
9.639796 63.353748 -50.653488
9.106651 65.023056 -50.383364
5.457113 90.435753 -43.146828
5.799157 91.910293 -42.423376
6.373823 89.500591 -43.980781
5.155168 88.935505 -43.779812
5.457113 90.435753 -43.146828
16.24344 97.216847 -40.902393
17.515861 97.361099 -40.676455
17.098773 96.099705 -41.775042
16.24344 97.216847 -40.902393
14.944875 97.045601 -41.029936
9.485539 95.729927 -41.079712
10.876306 96.078721 -41.202324
9.040056 94.353325 -41.996598
9.485539 95.729927 -41.079712
8.603027 92.878795 -42.841164
9.040056 94.353325 -41.996598
9.967934 93.41814 -42.884217
8.103337 91.472225 -43.53829
7.175458 92.407409 -42.650671
8.603027 92.878795 -42.841164
26.330371 61.183678 -49.039566
25.645089 59.4243 -49.390736
25.507902 61.816942 -49.412521
27.16057 60.579245 -48.585402
26.330371 61.183678 -49.039566
27.023383 62.971888 -48.607187
27.981883 60.052926 -48.098593
27.16057 60.579245 -48.585402
28.798942 59.318402 -47.519741
27.981883 60.052926 -48.098593
28.670641 61.632931 -47.574171
29.525756 58.454382 -46.975485
28.798942 59.318402 -47.519741
29.525756 58.454382 -46.975485
30.180753 60.063519 -46.388832
29.239507 84.021221 -41.781891
28.687356 86.012058 -41.430439
28.957075 82.804989 -42.821039
29.239507 84.021221 -41.781891
29.71722 82.171143 -42.063643
30.911794 75.734799 -42.995689
30.523138 77.97966 -42.73057
30.575717 74.388115 -43.907999
30.911794 75.734799 -42.995689
31.257454 73.504032 -43.186354
32.057809 66.569523 -43.657793
31.778104 68.944641 -43.580715
31.656231 65.071371 -44.427969
32.057809 66.569523 -43.657793
32.302386 64.185564 -43.656075
31.387307 60.958021 -45.104298
30.742216 61.747806 -45.769598
31.255717 63.477198 -45.09155
31.387307 60.958021 -45.104298
32.015004 60.241955 -44.435507
16.233829 44.023009 -51.67547
17.171669 45.772871 -51.519588
15.457862 44.645239 -51.846836
16.233829 44.023009 -51.67547
15.316153 42.31606 -51.833063
9.812894 39.957756 -53.031739
10.556769 41.255173 -52.780974
10.56313 39.481949 -52.927595
9.029854 40.423981 -53.180532
9.812894 39.957756 -53.031739
8.280447 40.9631 -53.224772
9.057125 42.2701 -52.929356
9.029854 40.423981 -53.180532
7.563478 41.593142 -53.278164
8.280447 40.9631 -53.224772
3 0 39 37
3 1 152 153
3 1 154 156
3 154 41 155
3 154 155 156
3 2 44 42
3 2 46 44
3 2 48 46
3 3 51 49
3 3 53 51
3 4 157 159
3 159 158 54
3 157 158 159
3 5 58 56
3 5 60 58
3 6 63 61
3 6 65 63
3 6 67 65
3 7 70 68
3 7 72 70
3 7 74 72
3 8 77 75
3 8 79 77
3 160 82 161
3 162 161 80
3 160 161 162
3 163 84 164
3 166 165 84
3 9 87 85
3 11 88 38
3 11 89 88
3 167 91 168
3 13 92 40
3 13 93 92
3 15 94 43
3 15 95 94
3 15 97 95
3 17 98 45
3 17 99 98
3 17 101 99
3 19 102 47
3 19 103 102
3 169 104 170
3 172 171 104
3 10 106 86
3 21 107 50
3 21 173 175
3 175 174 107
3 173 174 175
3 21 176 177
3 22 178 180
3 180 179 52
3 178 179 180
3 22 181 182
3 23 110 108
3 183 111 184
3 185 184 55
3 183 184 185
3 187 186 111
3 12 112 90
3 25 113 57
3 25 114 113
3 25 115 114
3 26 116 59
3 26 117 116
3 188 118 189
3 14 190 191
3 27 192 194
3 194 193 62
3 192 193 194
3 27 195 196
3 27 197 199
3 197 119 198
3 197 198 199
3 28 120 64
3 28 121 120
3 28 122 121
3 29 123 66
3 29 124 123
3 16 125 96
3 30 126 69
3 30 127 126
3 30 128 127
3 31 129 71
3 31 130 129
3 31 131 130
3 32 132 73
3 32 133 132
3 18 134 100
3 33 135 76
3 33 136 135
3 33 137 136
3 34 138 78
3 34 200 202
3 202 201 138
3 200 201 202
3 203 139 204
3 205 204 105
3 203 204 205
3 206 140 207
3 208 141 209
3 210 209 140
3 208 209 210
3 211 142 212
3 213 143 214
3 215 214 142
3 213 214 215
3 216 144 217
3 219 218 144
3 24 145 109
3 35 146 81
3 35 147 146
3 20 220 222
3 220 148 221
3 220 221 222
3 36 149 83
3 36 150 149
3 36 151 150
3 37 38 9
3 39 38 37
3 39 11 38
3 223 40 224
3 41 225 227
3 225 40 226
3 225 226 227
3 41 13 40
3 42 228 230
3 228 43 229
3 228 229 230
3 44 43 42
3 44 15 43
3 44 45 15
3 46 45 44
3 46 17 45
3 46 47 17
3 48 47 46
3 48 19 47
3 49 50 10
3 51 50 49
3 51 21 50
3 51 52 21
3 53 52 51
3 53 22 52
3 54 55 23
3 231 55 232
3 233 232 54
3 231 232 233
3 235 234 55
3 56 57 12
3 58 57 56
3 58 25 57
3 58 59 25
3 60 59 58
3 60 26 59
3 61 62 14
3 63 62 61
3 63 27 62
3 63 64 27
3 65 64 63
3 65 28 64
3 65 66 28
3 67 66 65
3 67 29 66
3 68 69 16
3 70 69 68
3 70 30 69
3 70 71 30
3 72 71 70
3 72 31 71
3 72 73 31
3 74 73 72
3 74 32 73
3 75 76 18
3 77 76 75
3 77 33 76
3 77 78 33
3 79 78 77
3 79 34 78
3 80 81 24
3 82 81 80
3 82 35 81
3 236 83 237
3 238 237 20
3 236 237 238
3 84 239 241
3 239 83 240
3 239 240 241
3 84 36 83
3 84 242 244
3 244 243 36
3 242 243 244
3 246 245 84
3 85 247 249
3 247 86 248
3 247 248 249
3 87 86 85
3 87 10 86
3 38 87 9
3 88 87 38
3 88 10 87
3 88 49 10
3 89 49 88
3 89 3 49
3 251 250 4
3 252 90 253
3 91 254 256
3 254 90 255
3 254 255 256
3 91 12 90
3 40 257 259
3 257 91 258
3 257 258 259
3 92 91 40
3 92 12 91
3 92 56 12
3 93 56 92
3 93 5 56
3 260 14 261
3 43 262 263
3 94 264 266
3 266 265 43
3 264 265 266
3 94 267 269
3 267 14 268
3 267 268 269
3 94 61 14
3 95 61 94
3 95 6 61
3 95 96 6
3 97 96 95
3 97 16 96
3 45 97 15
3 98 97 45
3 98 16 97
3 98 68 16
3 99 68 98
3 99 7 68
3 99 100 7
3 101 100 99
3 101 18 100
3 47 101 17
3 102 101 47
3 102 18 101
3 102 75 18
3 103 75 102
3 103 8 75
3 270 20 271
3 272 20 273
3 275 274 20
3 276 1 277
3 278 42 279
3 104 280 282
3 280 42 281
3 280 281 282
3 104 2 42
3 104 105 2
3 283 105 284
3 285 284 104
3 283 284 285
3 287 286 105
3 86 288 289
3 106 290 292
3 292 291 86
3 290 291 292
3 106 293 294
3 50 106 10
3 107 106 50
3 107 295 297
3 297 296 106
3 295 296 297
3 107 298 299
3 301 300 107
3 52 302 304
3 304 303 21
3 302 303 304
3 306 305 52
3 108 109 0
3 110 109 108
3 110 24 109
3 55 110 23
3 111 110 55
3 111 24 110
3 111 80 24
3 307 80 308
3 309 308 111
3 307 308 309
3 311 310 80
3 313 312 4
3 90 314 315
3 112 316 318
3 318 317 90
3 316 317 318
3 112 319 320
3 57 112 12
3 113 112 57
3 113 321 323
3 323 322 112
3 321 322 323
3 113 324 325
3 114 326 328
3 328 327 113
3 326 327 328
3 114 329 330
3 114 331 333
3 331 85 332
3 331 332 333
3 115 85 114
3 115 9 85
3 59 115 25
3 116 115 59
3 116 9 115
3 116 37 9
3 117 37 116
3 117 0 37
3 118 334 335
3 118 336 338
3 336 1 337
3 336 337 338
3 62 339 341
3 341 340 14
3 339 340 341
3 343 342 62
3 119 344 345
3 119 346 347
3 64 119 27
3 120 119 64
3 120 348 350
3 350 349 119
3 348 349 350
3 120 351 353
3 351 118 352
3 351 352 353
3 121 118 120
3 121 1 118
3 121 41 1
3 122 41 121
3 122 13 41
3 66 122 28
3 123 122 66
3 123 13 122
3 123 93 13
3 124 93 123
3 124 5 93
3 96 67 6
3 125 67 96
3 125 29 67
3 69 125 16
3 126 125 69
3 126 29 125
3 126 124 29
3 127 124 126
3 127 5 124
3 127 60 5
3 128 60 127
3 128 26 60
3 71 128 30
3 129 128 71
3 129 26 128
3 129 117 26
3 130 117 129
3 130 0 117
3 130 108 0
3 131 108 130
3 131 23 108
3 73 131 31
3 132 131 73
3 132 23 131
3 132 54 23
3 133 54 132
3 133 4 54
3 100 74 7
3 134 74 100
3 134 32 74
3 76 134 18
3 135 134 76
3 135 32 134
3 135 133 32
3 136 133 135
3 136 4 133
3 136 354 356
3 356 355 4
3 354 355 356
3 137 357 359
3 359 358 136
3 357 358 359
3 137 360 361
3 78 137 33
3 138 137 78
3 138 362 364
3 364 363 137
3 362 363 364
3 138 365 366
3 368 367 138
3 105 48 2
3 139 48 105
3 139 19 48
3 369 139 370
3 140 371 373
3 371 139 372
3 371 372 373
3 140 19 139
3 140 103 19
3 141 103 140
3 141 8 103
3 374 141 375
3 142 376 378
3 376 141 377
3 376 377 378
3 142 8 141
3 142 79 8
3 143 79 142
3 143 34 79
3 379 143 380
3 144 381 383
3 381 143 382
3 381 382 383
3 144 34 143
3 144 384 386
3 386 385 34
3 384 385 386
3 388 387 144
3 109 39 0
3 145 39 109
3 145 11 39
3 81 145 24
3 146 145 81
3 146 11 145
3 146 89 11
3 147 89 146
3 147 3 89
3 389 82 390
3 148 391 393
3 391 82 392
3 391 392 393
3 148 35 82
3 83 148 20
3 149 148 83
3 149 35 148
3 149 147 35
3 150 147 149
3 150 3 147
3 150 53 3
3 151 53 150
3 151 22 53
3 394 151 395
3 396 395 36
3 394 395 396
3 397 151 398
3 399 22 400
3 401 400 151
3 399 400 401
3 403 402 22
