ply
format ascii 1.0
element vertex 429
property float x
property float y
property float z
element face 484
property list uchar int vertex_index
end_header
-20.597038 56.571087 -52.50872
-16.595654 83.526215 -49.506371
-6.765751 57.933113 -51.214153
-15.656381 44.229809 -52.352444
-6.702529 82.978737 -47.172256
-20.012562 69.454704 -52.144062
-14.560674 57.515198 -52.515133
-11.762963 71.395676 -51.023964
-25.055664 79.681992 -49.069157
-25.850475 62.889072 -50.949558
-8.926097 44.747826 -52.946301
-18.617989 50.932861 -52.412769
-18.638378 76.660782 -51.205383
-15.996691 70.912514 -51.843071
-14.241638 77.431602 -50.645477
-19.110708 88.902191 -47.415741
-23.522257 86.866959 -47.134373
-21.012814 82.302345 -49.673672
-22.671362 74.920593 -51.055756
-28.404991 66.675323 -49.020493
-10.802977 58.12912 -52.037537
-11.826715 51.072067 -52.550327
-8.055686 51.529736 -52.235268
-14.247037 89.571785 -46.991291
-11.767893 83.697906 -48.662773
-8.854021 89.14267 -45.823246
-16.452955 94.610764 -44.293018
-20.68285 62.491962 -52.508183
-18.054266 57.040169 -52.658085
-17.41732 63.821037 -52.496895
-13.417173 64.719086 -52.013199
-9.249566 64.486679 -51.137939
-9.468635 77.632179 -49.4104
-7.233221 70.844696 -49.713158
-25.562683 90.640617 -43.494026
-27.206093 83.300789 -46.130955
-28.182354 75.359734 -47.9063
-25.863533 71.487724 -50.358673
-23.283575 67.167809 -51.824818
-15.302791 51.102924 -52.604153
-12.358906 44.517128 -52.71669
-5.509336 45.429459 -52.966743
-19.71702 54.120792 -52.486156
-17.703928 80.101288 -50.471878
-16.419544 77.287651 -50.970776
-15.440136 80.587608 -50.176067
-17.890198 86.257317 -48.620796
-20.09494 85.710426 -48.649761
-18.944002 82.881767 -49.726387
-19.79674 79.563545 -50.563419
-30.552885 65.232376 -46.748466
-29.485106 63.615936 -48.097626
-29.551622 68.24826 -47.719936
-8.854052 57.915665 -51.70216
-9.372482 54.745644 -52.085327
-7.464293 54.656776 -51.781967
-17.329863 44.579933 -52.124805
-12.603254 92.252396 -45.335529
-11.595066 89.381859 -46.545349
-13.905245 94.855202 -43.93668
-15.225194 92.284286 -45.708687
-20.51082 65.98732 -52.372585
-19.204786 63.52113 -52.547768
-18.746387 66.951729 -52.365822
-13.913664 71.373062 -51.481392
-14.792461 67.752106 -51.988842
-12.589473 67.984802 -51.583038
-11.233508 64.362076 -51.627773
-10.473772 67.957306 -51.093121
-9.198647 83.295815 -48.014793
-10.562094 80.665657 -49.114197
-8.026448 80.185326 -48.384502
-6.022081 73.567802 -48.835117
-24.209164 83.406372 -48.273109
-25.43652 85.156822 -46.79446
-26.166262 81.65609 -47.712025
-27.828863 79.51149 -47.026817
-26.731749 77.809975 -48.526932
-27.162319 73.579201 -49.179077
-25.608418 75.594452 -49.787273
-21.256119 72.265289 -51.724701
-23.052486 70.927223 -51.534691
-21.791897 68.428589 -52.051323
-22.002832 64.836464 -52.242771
-16.463722 57.499294 -52.629559
-16.736147 54.21265 -52.63261
-15.060726 54.326794 -52.605286
-10.317771 48.069504 -52.6726
-12.079716 47.917114 -52.669704
-10.663384 44.708912 -52.842239
-10.856547 41.36956 -52.930569
-9.254285 41.639378 -53.140289
-5.020429 48.700668 -52.323765
-17.155005 47.761784 -52.373627
-19.454309 73.165588 -51.749004
-18.007521 70.331665 -52.066078
-17.39435 73.825668 -51.613766
-15.109642 74.331345 -51.293175
-12.894659 74.575089 -50.851902
-20.265886 91.250801 -45.978428
-22.430431 90.285347 -45.815041
-21.435217 88.13504 -47.318184
-22.24263 84.809906 -48.5163
-23.097467 81.217133 -49.474411
-23.885691 77.43206 -50.179352
-21.931053 78.844131 -50.428631
-20.797884 76.183769 -51.175865
-27.147003 64.775856 -50.114426
-12.703854 58.076931 -52.308228
-13.120691 54.46204 -52.497578
-11.283476 54.665516 -52.32531
-9.949242 51.505085 -52.413765
-8.644605 48.232346 -52.62648
-15.497743 86.701103 -48.348122
-14.216624 83.63652 -49.19973
-12.940061 86.681808 -47.95298
-10.208656 86.449806 -47.337894
-7.62882 86.061577 -46.584908
-17.876764 91.734528 -46.05962
-16.618853 89.411392 -47.282467
-20.693769 59.257397 -52.546005
-19.528019 56.859062 -52.608227
-19.387884 59.997948 -52.63105
-17.786699 60.42408 -52.627686
-15.93224 60.771633 -52.522594
-16.816013 67.202805 -52.257717
-15.50826 64.194756 -52.328018
-14.092633 61.208294 -52.322781
-12.106563 61.350842 -52.031597
-10.08689 61.230938 -51.656273
-7.971127 61.218315 -51.144226
-13.016424 80.621109 -49.753033
-11.855907 77.53775 -50.11554
-10.538908 74.371239 -50.290375
-6.935414 76.915146 -48.638054
-8.288783 74.223595 -49.602375
-9.409351 71.038704 -50.423927
-8.212267 67.651649 -50.467121
-7.001198 64.352554 -50.476158
-24.546358 88.903976 -45.449787
-26.350424 87.074554 -45.037495
-27.971298 85.25827 -44.24707
-28.701893 81.325821 -45.289219
-29.175785 76.996353 -46.324474
-29.49456 72.511276 -47.109055
-28.424501 71.041679 -48.533184
-27.253 69.452614 -49.720451
-26.008495 67.115936 -50.721592
-24.320526 73.254951 -50.812355
-24.655886 69.056564 -51.210629
-24.613167 65.261009 -51.484943
-23.394396 63.319344 -51.967876
-21.971491 61.288757 -52.345383
-18.354422 54.032494 -52.586632
-17.035984 51.080112 -52.544601
-15.586492 47.777466 -52.5168
-13.599918 51.173706 -52.600082
-13.879304 47.696445 -52.615723
-14.069263 44.323055 -52.549976
-6.137774 51.605961 -51.96748
-6.773894 48.332733 -52.530323
-7.271711 45.035702 -52.990875
-5.823723 42.262897 -53.506073
-7.542405 41.825809 -53.350666
-20.157029 55.34594 -52.497438
-20.41564 54.429665 -52.3999
-20.855649 55.654812 -52.411182
-30.58229 67.432514 -46.448207
-31.065363 65.938252 -45.89699
-30.081659 68.940456 -46.933943
-30.052253 66.740318 -47.234201
-30.58229 67.432514 -46.448207
-15.727449 42.590411 -52.230804
-16.56419 42.765473 -52.116985
-16.493122 44.404871 -52.238625
-14.837192 42.471773 -52.387367
-15.727449 42.590411 -52.230804
-11.24168 92.055252 -45.085188
-11.886775 93.411648 -44.450235
-12.537771 94.713051 -43.750811
-13.111971 95.94954 -42.955633
-11.886775 93.411648 -44.450235
-13.25425 93.553799 -44.636105
-12.537771 94.713051 -43.750811
-25.61942 60.81921 -51.017222
-26.34353 61.591955 -50.628111
-25.17525 62.124122 -51.267095
-25.61942 60.81921 -51.017222
-18.736314 49.488985 -52.289167
-19.375567 51.270451 -52.332543
-17.886497 49.347323 -52.393198
-18.004822 47.903447 -52.269596
-18.736314 49.488985 -52.289167
-28.341017 64.355493 -49.141989
-28.881074 62.8258 -48.680555
-28.945048 65.145629 -48.55906
-27.775997 65.72559 -49.567459
-27.712023 63.40576 -49.688956
-28.341017 64.355493 -49.141989
-17.102047 95.652359 -43.460831
-15.736168 95.871193 -43.296812
-17.684497 94.366051 -44.361033
-17.102047 95.652359 -43.460831
-17.164859 93.172646 -45.176319
-18.396402 92.927933 -45.244333
-17.684497 94.366051 -44.361033
-5.73582 76.603313 -48.177894
-6.255375 78.321999 -48.069866
-5.919461 64.041967 -50.120735
-6.501581 65.832595 -50.10108
-6.416568 62.586507 -50.511879
-5.919461 64.041967 -50.120735
-25.962353 91.435108 -42.414129
-25.059024 92.253971 -42.690242
-26.376055 89.820141 -43.173595
-25.962353 91.435108 -42.414129
-12.405962 42.777879 -52.703825
-13.26114 42.680843 -52.620468
-13.214084 44.420091 -52.633333
-10.919113 39.667581 -52.928526
-10.132857 39.851938 -53.100205
-5.27858 51.625383 -51.809594
-5.859535 53.162751 -51.668175
-6.036264 40.78079 -53.699709
-5.223532 40.965668 -53.852577
-6.895606 40.562246 -53.622006
-6.683064 42.044353 -53.42837
-6.036264 40.78079 -53.699709
-7.667056 40.305445 -53.477026
-6.895606 40.562246 -53.622006
-19.925082 52.864416 -52.369236
-20.41564 54.429665 -52.3999
-19.167504 52.526826 -52.449462
-19.375567 51.270451 -52.332543
-19.925082 52.864416 -52.369236
-30.978929 63.529899 -46.20949
-31.065363 65.938252 -45.89699
-30.416452 62.861641 -46.971582
-30.978929 63.529899 -46.20949
-30.018995 64.424156 -47.423046
-29.882562 62.053421 -47.646162
-30.416452 62.861641 -46.971582
-17.43629 42.978923 -51.954195
-18.219468 44.774933 -51.971229
-17.43629 42.978923 -51.954195
-16.56419 42.765473 -52.116985
-10.737586 90.619984 -45.690098
-12.09916 90.817127 -45.940439
-11.24168 92.055252 -45.085188
-9.367064 90.500389 -45.329046
-10.224543 89.262265 -46.184297
-10.737586 90.619984 -45.690098
-14.462312 95.993412 -43.118643
-13.111971 95.94954 -42.955633
-15.1791 94.732983 -44.114849
-15.736168 95.871193 -43.296812
-14.462312 95.993412 -43.118643
-4.845957 73.305389 -48.340828
-5.279153 74.929642 -48.276426
-5.487267 71.960949 -48.845825
-4.845957 73.305389 -48.340828
-6.092837 70.599395 -49.284846
-6.627651 72.206249 -49.274137
-5.487267 71.960949 -48.845825
-6.617593 69.078666 -49.71958
-6.092837 70.599395 -49.284846
-24.53479 91.472317 -43.713398
-25.059024 92.253971 -42.690242
-9.331726 39.986847 -53.205065
-10.132857 39.851938 -53.100205
-10.055416 41.504469 -53.035429
-4.145986 48.712261 -52.208241
-4.719907 50.172737 -51.987736
-4.434257 47.246031 -52.598558
-4.145986 48.712261 -52.208241
-4.678711 45.610426 -52.920047
-5.264883 47.065064 -52.645254
-4.434257 47.246031 -52.598558
-18.092251 46.312521 -52.145185
-18.219468 44.774933 -51.971229
-17.242434 46.170858 -52.249216
-18.092251 46.312521 -52.145185
-18.004822 47.903447 -52.269596
-6.138933 81.353794 -47.336967
-5.379716 82.550133 -46.700578
-21.348158 90.768074 -45.896735
-21.881616 91.873829 -45.017977
-20.799344 92.356556 -45.099671
-29.264791 61.240206 -48.278814
-29.882562 62.053421 -47.646162
-29.264791 61.240206 -48.278814
-28.881074 62.8258 -48.680555
-26.991795 62.535347 -50.210545
-27.712023 63.40576 -49.688956
-26.498739 63.832464 -50.531992
-26.34353 61.591955 -50.628111
-26.991795 62.535347 -50.210545
-8.01536 90.207676 -44.98764
-9.367064 90.500389 -45.329046
-7.489697 88.731774 -45.462702
-8.01536 90.207676 -44.98764
-6.877097 87.191227 -45.843533
-8.241421 87.602124 -46.204077
-7.489697 88.731774 -45.462702
-6.372656 85.632969 -46.201132
-6.877097 87.191227 -45.843533
-5.909511 84.091549 -46.494806
-7.165674 84.520157 -46.878582
-6.372656 85.632969 -46.201132
-5.379716 82.550133 -46.700578
-5.909511 84.091549 -46.494806
-19.590963 92.68607 -45.203738
-20.799344 92.356556 -45.099671
-19.071325 91.492664 -46.019024
-19.590963 92.68607 -45.203738
-18.396402 92.927933 -45.244333
-6.173523 56.326327 -51.291511
-5.75535 57.803106 -50.93687
-6.800892 79.957088 -47.94309
-7.364489 81.582031 -47.778379
-6.138933 81.353794 -47.336967
-7.480931 78.550236 -48.511278
-6.800892 79.957088 -47.94309
-6.255375 78.321999 -48.069866
-6.478747 75.241474 -48.736585
-5.73582 76.603313 -48.177894
-5.279153 74.929642 -48.276426
-7.107116 67.482143 -50.096561
-7.722744 69.248173 -50.090139
-6.617593 69.078666 -49.71958
-7.606732 66.002102 -50.471639
-7.107116 67.482143 -50.096561
-6.501581 65.832595 -50.10108
-6.901533 61.019388 -50.845913
-7.486162 62.785434 -50.810192
-6.416568 62.586507 -50.511879
-6.298844 59.376787 -50.880876
-7.368439 59.575714 -51.17919
-6.901533 61.019388 -50.845913
-5.75535 57.803106 -50.93687
-6.298844 59.376787 -50.880876
-22.968664 91.294681 -44.873905
-21.881616 91.873829 -45.017977
-24.026628 90.603996 -44.691278
-22.968664 91.294681 -44.873905
-23.488394 89.594662 -45.632414
-25.054521 89.772297 -44.471907
-24.53479 91.472317 -43.713398
-24.026628 90.603996 -44.691278
-26.769925 88.037109 -43.94533
-26.376055 89.820141 -43.173595
-25.956553 88.857585 -44.26576
-27.580362 87.128967 -43.550117
-26.769925 88.037109 -43.94533
-27.160861 86.166412 -44.642283
-28.33894 86.073375 -43.170229
-27.580362 87.128967 -43.550117
-28.712057 84.095535 -43.791828
-28.33894 86.073375 -43.170229
-29.077354 82.129311 -44.312902
-28.712057 84.095535 -43.791828
-28.336596 83.292046 -44.768145
-29.358982 80.02182 -44.871035
-29.077354 82.129311 -44.312902
-29.595928 77.857086 -45.388662
-29.358982 80.02182 -44.871035
-28.938839 79.161087 -45.806847
-29.805978 75.663208 -45.828512
-29.595928 77.857086 -45.388662
-29.965366 73.42067 -46.220802
-29.805978 75.663208 -45.828512
-29.335172 74.753815 -46.716764
-30.053128 71.071964 -46.628502
-29.965366 73.42067 -46.220802
-29.523091 70.379768 -47.414496
-30.081659 68.940456 -46.933943
-30.053128 71.071964 -46.628502
-24.556596 63.310091 -51.534788
-25.17525 62.124122 -51.267095
-25.231821 64.075041 -51.217251
-23.947211 62.339258 -51.776254
-24.556596 63.310091 -51.534788
-24.003782 64.290177 -51.72641
-23.236978 61.502212 -52.013733
-23.947211 62.339258 -51.776254
-22.525526 60.486919 -52.202486
-23.236978 61.502212 -52.013733
-22.682944 62.304051 -52.156629
-21.853595 59.619121 -52.351219
-22.525526 60.486919 -52.202486
-21.214734 58.603442 -52.451531
-21.853595 59.619121 -52.351219
-21.33263 60.273077 -52.445694
-20.645404 57.914242 -52.527362
-21.166369 57.260286 -52.432888
-21.214734 58.603442 -52.451531
-21.166369 57.260286 -52.432888
-20.855649 55.654812 -52.411182
-14.043633 42.518396 -52.486134
-14.837192 42.471773 -52.387367
-14.862822 44.276432 -52.45121
-14.043633 42.518396 -52.486134
-13.26114 42.680843 -52.620468
-11.654782 41.204096 -52.810764
-12.405962 42.777879 -52.703825
-11.607727 42.943344 -52.823629
-11.654782 41.204096 -52.810764
-10.919113 39.667581 -52.928526
-6.522794 54.688158 -51.575418
-7.115022 56.294944 -51.49806
-6.173523 56.326327 -51.291511
-6.801033 53.131369 -51.874724
-6.522794 54.688158 -51.575418
-5.859535 53.162751 -51.668175
-5.579102 50.153315 -52.145623
-5.27858 51.625383 -51.809594
-4.719907 50.172737 -51.987736
-4.857466 44.056206 -53.283971
-4.678711 45.610426 -52.920047
-5.01466 42.472925 -53.553636
-5.223532 40.965668 -53.852577
-5.66653 43.846178 -53.236408
-4.857466 44.056206 -53.283971
-5.01466 42.472925 -53.553636
-8.522996 40.212229 -53.371837
-8.398345 41.732594 -53.245477
-7.667056 40.305445 -53.477026
-9.331726 39.986847 -53.205065
-8.522996 40.212229 -53.371837
3 0 164 166
3 164 42 165
3 164 165 166
3 1 45 43
3 1 48 46
3 1 43 48
3 167 50 168
3 169 52 170
3 171 170 50
3 169 170 171
3 2 55 53
3 3 172 174
3 174 173 56
3 172 173 174
3 3 175 176
3 178 177 57
3 179 59 180
3 181 57 182
3 183 182 59
3 181 182 183
3 5 63 61
3 7 66 64
3 7 68 66
3 4 71 69
3 8 75 73
3 8 77 75
3 8 79 77
3 5 82 80
3 5 61 82
3 9 184 185
3 9 186 187
3 6 86 84
3 10 89 87
3 10 91 89
3 11 188 189
3 11 190 192
3 190 93 191
3 190 191 192
3 12 96 94
3 14 97 44
3 14 98 97
3 15 101 99
3 17 102 47
3 17 103 102
3 17 105 103
3 12 106 49
3 12 94 106
3 19 193 195
3 195 194 51
3 193 194 195
3 19 196 198
3 196 107 197
3 196 197 198
3 20 110 108
3 22 111 54
3 22 112 111
3 23 115 113
3 25 116 58
3 25 117 116
3 26 199 200
3 26 201 202
3 26 203 205
3 203 118 204
3 203 204 205
3 23 119 60
3 23 113 119
3 27 122 120
3 29 123 62
3 29 124 123
3 13 125 95
3 30 126 65
3 30 127 126
3 30 128 127
3 31 129 67
3 31 130 129
3 24 131 114
3 32 132 70
3 32 133 132
3 206 134 207
3 33 135 72
3 33 136 135
3 33 137 136
3 208 138 209
3 211 210 138
3 34 212 213
3 34 214 215
3 16 139 100
3 35 140 74
3 35 141 140
3 35 142 141
3 36 143 76
3 36 144 143
3 36 145 144
3 37 146 78
3 37 147 146
3 18 148 104
3 38 149 81
3 38 150 149
3 38 151 150
3 27 152 83
3 27 120 152
3 28 153 121
3 39 154 85
3 39 155 154
3 21 156 109
3 40 157 88
3 40 158 157
3 40 216 218
3 218 217 158
3 216 217 218
3 220 219 90
3 221 159 222
3 41 160 92
3 41 161 160
3 223 162 224
3 225 163 226
3 227 226 162
3 225 226 227
3 229 228 163
3 42 230 231
3 42 232 234
3 232 11 233
3 232 233 234
3 43 44 12
3 45 44 43
3 45 14 44
3 46 47 15
3 48 47 46
3 48 17 47
3 48 49 17
3 43 49 48
3 43 12 49
3 50 235 236
3 50 237 238
3 50 239 241
3 239 51 240
3 239 240 241
3 52 51 50
3 52 19 51
3 53 54 20
3 55 54 53
3 55 22 54
3 56 242 243
3 245 244 56
3 57 58 23
3 246 58 247
3 248 247 57
3 246 247 248
3 249 25 250
3 251 250 58
3 249 250 251
3 59 252 253
3 59 254 256
3 254 26 255
3 254 255 256
3 59 60 26
3 57 60 59
3 57 23 60
3 61 62 27
3 63 62 61
3 63 29 62
3 64 65 13
3 66 65 64
3 66 30 65
3 66 67 30
3 68 67 66
3 68 31 67
3 69 70 24
3 71 70 69
3 71 32 70
3 257 72 258
3 259 72 260
3 261 33 262
3 263 262 72
3 261 262 263
3 265 264 33
3 266 34 267
3 73 74 16
3 75 74 73
3 75 35 74
3 75 76 35
3 77 76 75
3 77 36 76
3 77 78 36
3 79 78 77
3 79 37 78
3 80 81 18
3 82 81 80
3 82 38 81
3 82 83 38
3 61 83 82
3 61 27 83
3 84 85 28
3 86 85 84
3 86 39 85
3 87 88 21
3 89 88 87
3 89 40 88
3 89 90 40
3 91 90 89
3 91 268 270
3 270 269 90
3 268 269 270
3 271 92 272
3 273 92 274
3 275 41 276
3 277 276 92
3 275 276 277
3 278 56 279
3 93 280 282
3 280 56 281
3 280 281 282
3 93 3 56
3 94 95 5
3 96 95 94
3 96 13 95
3 44 96 12
3 97 96 44
3 97 13 96
3 97 64 13
3 98 64 97
3 98 7 64
3 284 283 4
3 99 285 287
3 285 100 286
3 285 286 287
3 101 100 99
3 101 16 100
3 47 101 15
3 102 101 47
3 102 16 101
3 102 73 16
3 103 73 102
3 103 8 73
3 103 104 8
3 105 104 103
3 105 18 104
3 49 105 17
3 106 105 49
3 106 18 105
3 106 80 18
3 94 80 106
3 94 5 80
3 51 288 289
3 291 290 51
3 107 292 293
3 107 294 296
3 294 9 295
3 294 295 296
3 108 109 6
3 110 109 108
3 110 21 109
3 54 110 20
3 111 110 54
3 111 21 110
3 111 87 21
3 112 87 111
3 112 10 87
3 113 114 1
3 115 114 113
3 115 24 114
3 58 115 23
3 116 115 58
3 116 24 115
3 116 69 24
3 117 69 116
3 117 4 69
3 297 25 298
3 299 25 300
3 301 117 302
3 303 302 25
3 301 302 303
3 304 117 305
3 306 4 307
3 308 307 117
3 306 307 308
3 310 309 4
3 311 99 312
3 118 313 315
3 313 99 314
3 313 314 315
3 118 15 99
3 60 118 26
3 119 118 60
3 119 15 118
3 119 46 15
3 113 46 119
3 113 1 46
3 317 316 2
3 120 121 0
3 122 121 120
3 122 28 121
3 62 122 27
3 123 122 62
3 123 28 122
3 123 84 28
3 124 84 123
3 124 6 84
3 95 63 5
3 125 63 95
3 125 29 63
3 65 125 13
3 126 125 65
3 126 29 125
3 126 124 29
3 127 124 126
3 127 6 124
3 127 108 6
3 128 108 127
3 128 20 108
3 67 128 30
3 129 128 67
3 129 20 128
3 129 53 20
3 130 53 129
3 130 2 53
3 114 45 1
3 131 45 114
3 131 14 45
3 70 131 24
3 132 131 70
3 132 14 131
3 132 98 14
3 133 98 132
3 133 7 98
3 318 71 319
3 320 319 4
3 318 319 320
3 134 321 323
3 321 71 322
3 321 322 323
3 134 32 71
3 72 324 326
3 324 134 325
3 324 325 326
3 135 134 72
3 135 32 134
3 135 133 32
3 136 133 135
3 136 7 133
3 136 68 7
3 137 68 136
3 137 31 68
3 327 137 328
3 329 328 33
3 327 328 329
3 138 330 332
3 330 137 331
3 330 331 332
3 138 31 137
3 138 130 31
3 333 130 334
3 335 334 138
3 333 334 335
3 336 2 337
3 338 337 130
3 336 337 338
3 340 339 2
3 100 341 342
3 139 343 345
3 345 344 100
3 343 344 345
3 139 346 348
3 346 34 347
3 346 347 348
3 74 139 16
3 140 139 74
3 140 34 139
3 140 349 351
3 351 350 34
3 349 350 351
3 141 352 354
3 354 353 140
3 352 353 354
3 141 355 356
3 141 357 358
3 142 359 361
3 361 360 141
3 359 360 361
3 142 362 363
3 76 142 35
3 143 142 76
3 143 364 366
3 366 365 142
3 364 365 366
3 143 367 368
3 144 369 371
3 371 370 143
3 369 370 371
3 144 372 373
3 144 374 376
3 374 52 375
3 374 375 376
3 145 52 144
3 145 19 52
3 78 145 36
3 146 145 78
3 146 19 145
3 146 107 19
3 147 107 146
3 147 9 107
3 104 79 8
3 148 79 104
3 148 37 79
3 81 148 18
3 149 148 81
3 149 37 148
3 149 147 37
3 150 147 149
3 150 9 147
3 150 377 379
3 379 378 9
3 377 378 379
3 151 380 382
3 382 381 150
3 380 381 382
3 151 383 384
3 83 151 38
3 152 151 83
3 152 385 387
3 387 386 151
3 385 386 387
3 152 388 389
3 120 390 392
3 392 391 152
3 390 391 392
3 120 393 395
3 393 0 394
3 393 394 395
3 396 0 397
3 121 42 0
3 153 42 121
3 153 11 42
3 85 153 28
3 154 153 85
3 154 11 153
3 154 93 11
3 155 93 154
3 155 3 93
3 109 86 6
3 156 86 109
3 156 39 86
3 88 156 21
3 157 156 88
3 157 39 156
3 157 155 39
3 158 155 157
3 158 3 155
3 158 398 400
3 400 399 3
3 398 399 400
3 402 401 158
3 90 403 405
3 405 404 40
3 403 404 405
3 407 406 90
3 408 55 409
3 410 409 2
3 408 409 410
3 159 411 413
3 411 55 412
3 411 412 413
3 159 22 55
3 92 414 416
3 414 159 415
3 414 415 416
3 160 159 92
3 160 22 159
3 160 112 22
3 161 112 160
3 161 10 112
3 417 41 418
3 162 419 420
3 162 421 423
3 421 41 422
3 421 422 423
3 162 161 41
3 163 161 162
3 163 10 161
3 163 91 10
3 424 91 425
3 426 425 163
3 424 425 426
3 428 427 91
