ply
format ascii 1.0
element vertex 325
property float x
property float y
property float z
element face 343
property list uchar int vertex_index
end_header
25.076122 7.595218 -22.21653
25.195616 -3.933396 -8.002165
19.537027 13.339046 -22.03451
19.400257 8.12622 -14.9815
24.891895 1.17836 -14.593688
30.806204 -4.644537 -14.712835
22.503397 -0.258792 -8.620264
22.024481 2.037099 -11.47241
24.794682 -1.468041 -11.107872
27.859087 -1.779743 -14.568269
27.882368 -4.733864 -10.970621
22.09338 10.308691 -22.046072
22.196037 13.67132 -25.934597
25.190578 11.195137 -26.316114
23.337385 -2.154346 -6.094872
28.120338 4.992857 -22.296413
28.331184 8.843018 -26.606977
19.42083 10.597263 -18.446175
22.067844 7.229806 -18.330969
22.02552 4.36117 -14.669696
25.033373 4.244755 -18.36076
27.960791 1.498735 -18.365065
30.99024 -1.366521 -18.518305
24.645819 -3.610777 -3.826251
26.013191 -6.003912 -5.181726
28.183262 -7.255598 -7.658573
19.41856 16.504137 -25.31613
23.863245 -2.184386 -8.344473
23.59919 -1.038158 -9.763303
25.054792 -2.841982 -9.5476
26.32527 -3.197081 -10.933547
26.535955 -4.550164 -9.331366
23.542295 8.99267 -22.197321
23.689213 10.612522 -24.189125
25.195612 9.322715 -24.258615
29.693041 3.773641 -22.517412
29.784473 5.586611 -24.49283
19.393126 9.331918 -16.686668
20.717873 8.831404 -18.373735
20.591246 7.576759 -16.548811
23.405874 1.365841 -12.841656
22.040707 3.119056 -13.042845
23.363482 2.762305 -14.566969
23.367144 4.276382 -16.430588
24.812096 2.716088 -16.330843
26.383698 2.873666 -18.251097
26.451361 1.266361 -16.501534
29.373497 -3.200797 -14.666385
29.338476 -1.524053 -16.51383
30.805223 -3.023487 -16.528172
32.346436 -2.797054 -18.600826
32.232407 -4.465924 -16.673977
25.948631 -5.71925 -3.201591
25.222698 -4.96742 -4.345128
26.619293 -6.903749 -3.809939
29.421282 -7.615558 -9.056066
19.545048 14.855602 -23.757275
23.640038 14.344808 -28.217287
22.097754 15.480796 -27.749407
21.277113 1.729652 -8.921646
20.940063 2.815601 -10.190002
22.184511 0.894605 -9.985554
23.334837 0.252174 -11.221595
24.839849 -0.275582 -12.727106
26.389563 -0.293051 -14.619729
26.27965 -1.764397 -12.708573
27.749031 -3.256641 -12.6768
29.304518 -4.767179 -12.730738
20.737499 11.751369 -21.96261
20.848688 13.333374 -23.914371
22.188324 11.844989 -23.914734
23.618986 12.468911 -26.167717
25.122061 13.186759 -28.426937
21.661848 0.787009 -7.747064
22.820599 -1.182826 -7.330189
24.137857 -3.164264 -6.907279
26.689072 6.252254 -22.3011
26.638733 8.186471 -24.367916
28.270779 6.897289 -24.46884
29.80393 7.603901 -26.628431
19.455776 11.952368 -20.239605
20.721228 10.285841 -20.187672
22.089954 8.756927 -20.207632
23.512123 7.274281 -20.174498
20.860252 3.809629 -11.738295
20.778837 4.945787 -13.287456
20.740295 6.164931 -14.92329
22.014275 5.853314 -16.552505
23.572025 5.627775 -18.305048
24.989634 6.010427 -20.336126
26.540987 4.523632 -20.254681
28.115641 3.211416 -20.381588
29.578751 1.85161 -20.393539
27.868387 -0.180769 -16.403662
29.518801 0.063115 -18.43416
31.132612 0.487781 -20.603096
23.927114 -2.957685 -4.970535
24.68679 -4.218709 -5.590319
25.556522 -5.021492 -6.597411
27.064228 -6.834277 -6.236911
26.577856 -5.607552 -7.682651
27.896688 -6.002172 -9.213383
29.258173 -6.261288 -10.759839
30.753246 -6.234203 -12.756239
32.194767 -6.216066 -14.653023
20.789867 15.005111 -25.654247
26.886471 10.049119 -26.619652
26.734922 11.924504 -28.529984
30.471342 4.021314 -23.544422
30.424169 3.098477 -22.557835
19.396691 8.729069 -15.834084
18.847862 9.725854 -15.963529
18.851427 9.123005 -15.110945
26.630702 -6.667354 -2.848972
26.36484 -5.979907 -2.582788
26.966033 -7.259604 -3.153146
26.283962 -6.3115 -3.505765
26.630702 -6.667354 -2.848972
19.541038 14.097324 -22.895893
18.949927 14.896801 -22.821377
18.945916 14.138523 -21.959995
23.564847 15.274094 -29.133384
24.386645 14.773912 -29.425494
21.363912 1.46046 -7.39505
21.100314 1.889659 -7.961536
23.078992 -1.668586 -6.71253
22.469233 -0.595365 -6.939362
22.727626 -1.081125 -6.321703
30.563688 6.981734 -26.713489
29.794201 6.595256 -25.560631
30.553959 5.97309 -25.645688
30.578573 7.977654 -27.772596
30.563688 6.981734 -26.713489
18.858248 11.521733 -18.545833
18.832514 10.94672 -17.675623
19.438303 11.274815 -19.34289
18.875721 12.199286 -19.442548
18.858248 11.521733 -18.545833
31.73799 -1.176494 -19.57181
31.809176 -0.249342 -20.614206
31.061426 -0.43937 -19.560701
33.051169 -2.605926 -19.680919
33.006525 -3.597354 -18.609152
24.541418 -2.880597 -3.624108
25.126791 -3.968796 -3.251177
24.074832 -2.582238 -4.1548
24.541418 -2.880597 -3.624108
24.286466 -3.284231 -4.398393
23.71548 -2.255692 -4.726942
24.074832 -2.582238 -4.1548
27.623745 -7.044937 -6.947742
27.739555 -7.584774 -6.113796
28.299072 -7.795435 -6.824628
30.030985 -6.988374 -10.832617
29.339728 -6.938423 -9.907953
30.11254 -7.665509 -9.98073
30.778522 -6.974832 -11.830817
30.00571 -6.247746 -11.758039
30.030985 -6.988374 -10.832617
32.891174 -7.021087 -14.680495
32.219549 -7.037098 -13.692656
32.861773 -6.176959 -15.603689
32.891174 -7.021087 -14.680495
18.820094 17.239036 -25.103678
18.877578 16.423353 -24.367578
19.356989 17.411062 -26.135343
18.820094 17.239036 -25.103678
21.378597 16.141675 -27.552619
22.036215 16.443821 -28.684114
27.508598 12.389469 -29.735974
27.588833 11.40267 -28.721409
26.723416 12.935465 -29.63187
27.508598 12.389469 -29.735974
23.030921 -1.468088 -5.800361
22.727626 -1.081125 -6.321703
30.517058 4.927799 -24.532131
29.738757 4.680126 -23.505121
30.471342 4.021314 -23.544422
30.553959 5.97309 -25.645688
30.517058 4.927799 -24.532131
18.818662 10.314047 -16.79587
18.847862 9.725854 -15.963529
19.406978 9.96459 -17.566422
18.832514 10.94672 -17.675623
18.818662 10.314047 -16.79587
32.949511 -4.431789 -17.645727
33.006525 -3.597354 -18.609152
32.289422 -3.631489 -17.637402
25.778197 -5.023033 -2.938847
26.36484 -5.979907 -2.582788
25.297225 -4.665013 -3.513921
25.126791 -3.968796 -3.251177
25.778197 -5.023033 -2.938847
28.905781 -8.055232 -7.50344
28.299072 -7.795435 -6.824628
29.524791 -8.235212 -8.202186
28.802272 -7.435578 -8.357319
28.905781 -8.055232 -7.50344
30.198169 -8.395677 -9.046145
29.524791 -8.235212 -8.202186
30.11254 -7.665509 -9.98073
30.198169 -8.395677 -9.046145
18.940823 15.599086 -23.58815
18.949927 14.896801 -22.821377
19.481804 15.679869 -24.536703
18.877578 16.423353 -24.367578
18.940823 15.599086 -23.58815
22.793705 15.842088 -28.899445
22.868896 14.912802 -27.983347
23.564847 15.274094 -29.133384
22.036215 16.443821 -28.684114
22.793705 15.842088 -28.899445
28.386964 9.861928 -27.759906
29.104439 9.2205 -27.714824
18.876016 8.631866 -14.326881
18.851427 9.123005 -15.110945
21.108588 2.272626 -9.555824
20.504106 3.430519 -9.758163
20.672632 2.887544 -9.123985
25.127656 14.194887 -29.530319
24.386645 14.773912 -29.425494
24.381049 13.765784 -28.322112
20.907947 2.360981 -8.548827
20.672632 2.887544 -9.123985
21.46948 1.258331 -8.334355
20.907947 2.360981 -8.548827
21.100314 1.889659 -7.961536
21.889857 0.389552 -7.147799
21.363912 1.46046 -7.39505
22.241224 -0.197908 -7.538626
21.889857 0.389552 -7.147799
22.469233 -0.595365 -6.939362
29.840812 8.600941 -27.725552
29.104439 9.2205 -27.714824
29.067557 8.22346 -26.617704
29.840812 8.600941 -27.725552
30.578573 7.977654 -27.772596
18.933521 13.50017 -21.166257
18.945916 14.138523 -21.959995
18.892896 12.806831 -20.268805
18.875721 12.199286 -19.442548
19.496401 12.645707 -21.137058
18.933521 13.50017 -21.166257
18.892896 12.806831 -20.268805
19.46114 7.541052 -14.230249
18.876016 8.631866 -14.326881
20.406028 3.819516 -10.406045
20.504106 3.430519 -9.758163
20.366122 4.31653 -11.180191
20.406028 3.819516 -10.406045
20.900157 3.312615 -10.964149
20.25318 4.833718 -11.840518
20.366122 4.31653 -11.180191
20.212472 5.401797 -12.615099
20.25318 4.833718 -11.840518
20.819544 4.377708 -12.512875
20.15043 5.950836 -13.383228
20.212472 5.401797 -12.615099
20.131158 6.560408 -14.201144
20.15043 5.950836 -13.383228
20.759566 5.555359 -14.105373
20.070276 7.145575 -14.952395
19.46114 7.541052 -14.230249
20.131158 6.560408 -14.201144
30.367024 2.137461 -21.495899
30.424169 3.098477 -22.557835
29.635896 2.812626 -21.455475
31.143955 1.455547 -21.600677
30.367024 2.137461 -21.495899
30.355682 1.169695 -20.498317
31.835791 0.71045 -21.606918
31.143955 1.455547 -21.600677
31.835791 0.71045 -21.606918
31.809176 -0.249342 -20.614206
32.416089 -1.89176 -19.61307
31.73799 -1.176494 -19.57181
31.668338 -2.081787 -18.559566
32.416089 -1.89176 -19.61307
33.051169 -2.605926 -19.680919
23.325786 -1.869758 -5.238192
23.71548 -2.255692 -4.726942
23.63225 -2.556015 -5.532704
23.030921 -1.468088 -5.800361
23.325786 -1.869758 -5.238192
27.285996 -7.733225 -3.620357
26.966033 -7.259604 -3.153146
26.996811 -7.293775 -4.286306
27.285996 -7.733225 -3.620357
26.69376 -6.843856 -4.9722
26.316242 -6.453831 -4.495833
26.996811 -7.293775 -4.286306
27.219279 -7.259039 -5.499792
27.739555 -7.584774 -6.113796
26.538709 -6.419094 -5.709319
26.69376 -6.843856 -4.9722
27.219279 -7.259039 -5.499792
31.498789 -7.046166 -12.744264
30.778522 -6.974832 -11.830817
31.474007 -6.225134 -13.704631
31.498789 -7.046166 -12.744264
32.219549 -7.037098 -13.692656
32.880593 -5.301888 -16.614165
32.213587 -5.340995 -15.6635
32.861773 -6.176959 -15.603689
32.949511 -4.431789 -17.645727
32.880593 -5.301888 -16.614165
20.724654 15.903832 -26.505039
21.44381 15.242953 -26.701827
21.378597 16.141675 -27.552619
20.039001 16.653345 -26.33598
20.104214 15.754624 -25.485188
20.724654 15.903832 -26.505039
19.356989 17.411062 -26.135343
20.039001 16.653345 -26.33598
27.664608 10.464978 -27.766243
27.608828 9.446068 -26.613315
28.386964 9.861928 -27.759906
26.810696 10.986811 -27.574818
27.664608 10.464978 -27.766243
27.588833 11.40267 -28.721409
25.916985 13.566592 -29.580346
25.928491 12.555632 -28.47846
26.723416 12.935465 -29.63187
25.127656 14.194887 -29.530319
25.916985 13.566592 -29.580346
3 1 29 27
3 1 31 29
3 0 34 32
3 109 108 35
3 3 110 112
3 110 37 111
3 110 111 112
3 3 39 37
3 4 42 40
3 4 44 42
3 4 46 44
3 5 49 47
3 5 51 49
3 113 52 114
3 115 54 116
3 117 116 52
3 115 116 117
3 2 118 120
3 118 56 119
3 118 119 120
3 122 121 57
3 6 61 59
3 8 62 28
3 8 63 62
3 8 65 63
3 10 66 30
3 10 67 66
3 11 70 68
3 13 71 33
3 13 72 71
3 123 73 124
3 14 125 127
3 125 74 126
3 125 126 127
3 14 75 74
3 15 78 76
3 128 79 129
3 130 129 36
3 128 129 130
3 132 131 79
3 17 133 134
3 17 135 137
3 135 80 136
3 135 136 137
3 17 81 80
3 18 82 38
3 18 83 82
3 7 84 60
3 19 85 41
3 19 86 85
3 19 87 86
3 20 88 43
3 20 89 88
3 20 90 89
3 21 91 45
3 21 92 91
3 9 93 64
3 22 94 48
3 22 95 94
3 22 138 140
3 140 139 95
3 138 139 140
3 142 141 50
3 23 143 144
3 23 145 146
3 23 147 149
3 147 96 148
3 147 148 149
3 24 97 53
3 24 98 97
3 25 150 152
3 150 99 151
3 150 151 152
3 25 100 99
3 25 101 100
3 153 102 154
3 155 154 55
3 153 154 155
3 156 103 157
3 158 157 102
3 156 157 158
3 159 104 160
3 162 161 104
3 26 163 164
3 26 165 166
3 12 105 69
3 168 167 58
3 16 106 77
3 169 107 170
3 172 171 107
3 27 28 6
3 29 28 27
3 29 8 28
3 29 30 8
3 31 30 29
3 31 10 30
3 32 33 11
3 34 33 32
3 34 13 33
3 173 14 174
3 35 36 15
3 175 36 176
3 177 176 35
3 175 176 177
3 179 178 36
3 37 180 181
3 37 182 184
3 182 17 183
3 182 183 184
3 37 38 17
3 39 38 37
3 39 18 38
3 40 41 7
3 42 41 40
3 42 19 41
3 42 43 19
3 44 43 42
3 44 20 43
3 44 45 20
3 46 45 44
3 46 21 45
3 47 48 9
3 49 48 47
3 49 22 48
3 49 50 22
3 51 50 49
3 51 185 187
3 187 186 50
3 185 186 187
3 52 188 189
3 52 190 192
3 190 23 191
3 190 191 192
3 52 53 23
3 54 53 52
3 54 24 53
3 193 25 194
3 195 55 196
3 197 196 25
3 195 196 197
3 198 55 199
3 201 200 55
3 56 202 203
3 56 204 206
3 204 26 205
3 204 205 206
3 57 58 12
3 207 58 208
3 209 208 57
3 207 208 209
3 211 210 58
3 213 212 16
3 214 3 215
3 59 216 218
3 216 60 217
3 216 217 218
3 61 60 59
3 61 7 60
3 28 61 6
3 62 61 28
3 62 7 61
3 62 40 7
3 63 40 62
3 63 4 40
3 63 64 4
3 65 64 63
3 65 9 64
3 30 65 8
3 66 65 30
3 66 9 65
3 66 47 9
3 67 47 66
3 67 5 47
3 68 69 2
3 70 69 68
3 70 12 69
3 33 70 11
3 71 70 33
3 71 12 70
3 71 57 12
3 72 57 71
3 72 219 221
3 221 220 57
3 219 220 221
3 222 59 223
3 73 224 226
3 224 59 225
3 224 225 226
3 73 6 59
3 227 73 228
3 74 229 231
3 229 73 230
3 229 230 231
3 74 6 73
3 74 27 6
3 75 27 74
3 75 1 27
3 76 77 0
3 78 77 76
3 78 16 77
3 36 78 15
3 79 78 36
3 79 16 78
3 79 232 234
3 234 233 16
3 232 233 234
3 236 235 79
3 237 2 238
3 80 239 240
3 80 241 243
3 241 2 242
3 241 242 243
3 80 68 2
3 81 68 80
3 81 11 68
3 38 81 17
3 82 81 38
3 82 11 81
3 82 32 11
3 83 32 82
3 83 0 32
3 244 3 245
3 60 246 247
3 84 248 250
3 250 249 60
3 248 249 250
3 84 251 252
3 41 84 7
3 85 84 41
3 85 253 255
3 255 254 84
3 253 254 255
3 85 256 257
3 86 258 260
3 260 259 85
3 258 259 260
3 86 261 263
3 261 3 262
3 261 262 263
3 86 39 3
3 87 39 86
3 87 18 39
3 43 87 19
3 88 87 43
3 88 18 87
3 88 83 18
3 89 83 88
3 89 0 83
3 89 76 0
3 90 76 89
3 90 15 76
3 45 90 20
3 91 90 45
3 91 15 90
3 91 35 15
3 92 35 91
3 92 264 266
3 266 265 35
3 264 265 266
3 64 46 4
3 93 46 64
3 93 21 46
3 48 93 9
3 94 93 48
3 94 21 93
3 94 92 21
3 95 92 94
3 95 267 269
3 269 268 92
3 267 268 269
3 95 270 271
3 273 272 95
3 50 274 276
3 276 275 22
3 274 275 276
3 278 277 50
3 96 279 280
3 96 281 283
3 281 14 282
3 281 282 283
3 53 96 23
3 97 96 53
3 97 14 96
3 97 75 14
3 98 75 97
3 98 1 75
3 284 54 285
3 286 54 287
3 288 24 289
3 290 289 54
3 288 289 290
3 99 291 292
3 99 293 295
3 293 24 294
3 293 294 295
3 99 98 24
3 100 98 99
3 100 1 98
3 100 31 1
3 101 31 100
3 101 10 31
3 55 101 25
3 102 101 55
3 102 10 101
3 102 67 10
3 103 67 102
3 103 5 67
3 296 103 297
3 104 298 300
3 298 103 299
3 298 299 300
3 104 5 103
3 104 51 5
3 301 51 302
3 303 302 104
3 301 302 303
3 305 304 51
3 69 56 2
3 105 56 69
3 105 26 56
3 58 105 12
3 306 105 307
3 308 307 58
3 306 307 308
3 309 26 310
3 311 310 105
3 309 310 311
3 313 312 26
3 77 34 0
3 106 34 77
3 106 13 34
3 314 106 315
3 316 315 16
3 314 315 316
3 107 317 319
3 317 106 318
3 317 318 319
3 107 13 106
3 107 72 13
3 320 72 321
3 322 321 107
3 320 321 322
3 324 323 72
