ply
format ascii 1.0
element vertex 580
property float x
property float y
property float z
element face 674
property list uchar int vertex_index
end_header
40.055321 61.472893 24.367535
34.284664 75.107491 4.032663
13.597265 88.057419 2.25206
43.255672 60.191452 17.780977
37.077663 68.749542 15.412534
41.869514 66.840141 6.497102
32.650387 64.993118 24.216349
28.320986 74.338974 13.851702
17.561028 85.886665 -9.737833
7.045027 88.504112 -9.574484
10.181911 84.713005 -20.462393
4.757772 75.901688 -29.055029
30.293816 79.457817 -7.564821
40.755836 71.730392 -4.651949
23.954544 81.487411 2.167412
41.702991 61.308571 21.643847
38.646358 64.899513 20.517519
40.493336 64.984352 16.528133
36.926064 63.156677 24.361565
34.764042 67.501564 19.740753
20.432968 83.814522 -14.342196
13.798399 86.247391 -15.313969
12.87849 80.914307 -23.85359
32.56348 77.493805 -1.820795
36.016434 75.967834 -6.1068
37.493473 73.980278 -0.463465
31.179878 75.204163 8.790934
26.309021 78.22686 8.123588
29.275816 78.189423 2.916615
26.913677 80.713203 -3.028765
9.050196 89.272079 3.087247
4.359369 85.723862 -15.037514
35.686287 72.221146 9.826101
38.517868 71.498489 5.273478
39.413681 68.479042 10.984397
42.386566 63.672859 12.174652
30.334967 69.843414 19.247292
32.904449 71.628212 14.452335
15.343995 87.343376 -4.126703
10.251995 89.243301 -3.772657
11.710186 88.186226 -10.012045
8.220436 87.170906 -15.584801
5.283703 84.121857 -20.717611
3.059479 79.236282 -25.245634
7.108955 81.16304 -25.087946
27.349192 80.753609 -12.954399
39.425827 73.270241 -9.917042
41.460205 69.547951 0.870136
44.584251 66.566444 -3.174877
16.691807 85.255722 8.349497
21.463161 81.7323 7.980089
18.674107 85.064819 1.933063
21.035484 84.124634 -3.852858
23.954252 82.73069 -8.853134
35.372398 60.145729 28.61327
39.443897 58.82058 27.960453
6.318277 88.767441 -2.855204
40.852142 61.492821 23.218401
42.158302 59.519547 23.985432
41.133919 59.871887 25.243652
39.431385 63.026962 22.705627
40.263897 63.26564 21.018003
38.732983 62.271492 24.401443
37.754795 64.240166 22.412151
22.063915 82.462341 -16.207434
18.531044 83.806358 -16.910891
33.480927 76.353691 1.104715
35.144638 75.821228 -1.146095
35.880104 74.678276 1.751211
32.713364 75.279884 6.37823
30.270363 76.762787 5.87231
31.850872 76.661568 3.443318
30.88826 77.927887 0.490812
12.796946 88.037804 5.656244
10.519577 88.744446 6.119684
11.223671 88.951172 2.611775
3.266441 83.620285 -17.597952
44.051758 59.285179 15.655032
36.364742 70.554695 12.657304
37.658752 70.482674 10.401423
38.245476 68.80204 13.216505
41.937489 62.696487 17.135395
41.416176 64.481979 14.381429
42.779198 61.959511 14.998921
43.708401 60.979111 12.813101
31.442776 67.438652 21.792873
35.909973 68.310822 17.577768
33.801628 69.618546 17.157104
35.073292 70.262993 14.90416
34.284019 72.087715 12.127665
16.374691 86.690887 -7.043436
13.539497 87.97316 -7.100777
14.528393 87.21489 -9.961462
11.943459 85.735779 -17.947447
10.82955 86.961922 -15.550562
9.095245 86.092499 -18.192392
6.666056 85.896584 -18.215521
7.503386 84.70784 -20.712442
6.083651 82.827728 -23.093061
8.560108 83.179199 -22.847372
11.196547 78.986122 -25.922251
28.90942 80.220543 -10.320295
30.688951 79.099556 -12.19418
32.071434 78.540215 -9.580206
38.515862 73.969048 -5.37463
37.742599 74.784042 -8.076014
40.186836 72.595657 -7.333649
42.375633 70.173134 -6.588022
40.288101 69.30368 5.886543
39.966209 70.666252 3.042406
41.67717 68.25676 3.674017
44.695259 65.439583 -0.488325
27.05143 73.574387 16.517834
26.028671 75.861359 13.75661
25.192976 79.931984 5.165218
23.872635 79.926659 7.984209
22.653488 81.69323 5.001317
20.138826 83.514061 4.971479
21.298031 83.277618 1.981733
19.792988 84.664085 -1.04925
22.571205 82.891624 -0.847057
28.561878 80.160759 -5.380657
25.510965 81.803032 -5.969933
27.167192 81.096123 -8.244808
25.611229 81.844398 -11.020781
37.513268 59.448112 28.362274
8.60372 89.128441 -6.708649
8.104055 89.342232 -3.372589
6.654255 88.770012 -6.280787
3.791517 77.766563 -27.349474
2.19075 76.23777 -27.222509
2.899733 74.704597 -29.175585
42.497871 60.875114 19.803398
43.763401 58.390656 20.494297
43.019272 59.047432 22.365921
37.842567 66.842842 18.05257
38.883751 67.004135 15.955522
39.571781 65.135139 18.575466
41.110725 63.143288 19.157965
34.85564 64.053177 24.281525
33.669502 66.369598 21.942146
35.805019 65.329666 22.160667
36.807125 66.279831 20.103254
18.918215 84.936897 -12.179604
15.690479 86.278656 -12.573114
17.032631 85.155281 -14.899389
15.122677 84.933472 -17.506601
13.245926 84.220955 -19.993479
11.458603 82.998505 -22.355165
14.695663 82.37571 -21.664057
31.507425 78.534103 -4.720491
33.263443 77.772858 -6.843147
34.280815 76.855499 -4.020182
36.828007 75.03653 -3.307901
39.121368 73.000427 -2.602858
43.325466 64.162605 7.12748
43.236031 65.61544 4.317026
29.706429 74.887383 11.278677
27.337387 76.364365 11.023839
28.758575 76.66404 8.397055
27.744122 78.290794 5.459864
26.625414 79.783554 2.483613
25.37429 81.153404 -0.511421
28.164421 79.503685 -0.057846
29.798344 79.095047 -2.45895
5.620672 87.364105 -12.356218
5.334152 87.678268 -9.115393
35.006794 73.736298 6.945076
36.518108 73.417274 4.651553
37.09663 72.022316 7.539865
38.958893 70.057175 8.138597
40.607986 67.810783 8.733498
39.920174 66.778 13.790841
40.973419 66.196777 11.571612
42.090843 65.306976 9.334266
43.469826 62.611221 9.963493
29.305813 72.157234 16.596199
32.580631 68.657158 19.443682
31.576582 70.866142 16.818249
30.63114 72.952164 14.090561
32.043686 73.494728 11.656511
33.510841 73.76049 9.27863
14.432953 87.812889 -1.018339
11.934889 88.873566 -0.780369
12.690836 88.536652 -4.028584
10.923134 88.832008 -6.988049
9.189787 88.653801 -9.880892
12.659805 87.324181 -12.802189
9.917555 87.930428 -12.844931
7.549059 87.971397 -12.693123
6.047853 86.774918 -15.409401
4.716311 85.076813 -18.010965
3.562578 82.914009 -20.47637
2.576153 80.336472 -22.781008
4.08399 81.883759 -23.068884
4.847708 80.494682 -25.313425
5.842043 78.716393 -27.165022
9.807915 81.278687 -24.586138
8.326233 79.104347 -26.676344
7.029306 76.534935 -28.608839
35.031242 76.749565 -8.826321
38.044209 72.803375 2.402258
39.592216 71.897942 0.209101
41.167694 70.708458 -1.909262
43.147884 66.955276 1.536165
43.006256 68.170631 -1.213892
42.762627 69.24942 -3.927542
15.192981 86.837494 5.303944
24.984348 77.982033 10.908309
22.665987 79.736649 10.933066
20.373133 81.563225 11.087981
19.073273 83.552666 8.10471
17.649807 85.278305 5.073688
16.097866 86.711174 2.02357
17.068928 86.355652 -1.108122
18.143642 85.819099 -4.065702
19.356644 85.143913 -6.824348
23.974247 82.395111 -3.501226
22.421871 83.479271 -6.459515
20.727962 84.351204 -9.360111
22.253586 83.42865 -11.651333
23.902388 82.32798 -13.681353
31.719633 63.464844 26.577734
33.129448 60.938927 28.807482
33.963741 62.552795 26.496824
36.140465 61.74411 26.42823
38.137089 61.001091 26.293465
39.825981 60.337204 25.982677
41.07505 58.265701 27.285423
9.643324 89.396255 -0.40379
7.636538 89.28405 0.090448
5.985365 88.497498 0.670559
5.127897 87.726761 -5.736496
4.943659 87.517441 -2.256392
1.735237 77.400085 -24.89908
21.099725 82.317745 -17.399389
22.907063 81.63536 -16.988771
2.775772 82.596714 -17.304364
2.79811 82.361416 -18.805706
43.864095 58.868725 18.121225
44.262138 58.415588 17.058252
43.653715 59.738315 16.718004
32.046582 66.215885 23.004611
30.927164 66.738312 23.00766
31.53097 65.515545 24.219397
42.78343 58.372284 24.406172
42.270454 58.641048 25.112536
15.860883 84.136143 -18.42888
16.826861 84.369915 -17.208746
17.565067 83.572586 -18.131025
14.922508 83.779885 -19.67232
14.184302 84.577213 -18.75004
15.860883 84.136143 -18.42888
15.647376 82.857262 -20.507608
13.970795 83.298333 -20.828768
14.922508 83.779885 -19.67232
44.018015 63.490017 6.065431
44.023187 62.757869 7.46805
8.745365 89.066329 4.881151
9.480055 88.802513 6.397369
9.784886 89.008263 4.603466
8.104361 89.110412 3.370011
8.745365 89.066329 4.881151
4.263225 85.905686 -13.449571
4.893877 86.725807 -12.108923
4.99002 86.543983 -13.696866
44.33524 57.081863 20.848962
43.991978 57.480999 21.807209
44.254627 60.393704 11.730497
44.344141 59.589135 13.159263
29.216639 70.494529 19.216387
29.771938 69.22974 20.501341
29.82039 71.000324 17.921746
28.702061 71.65144 17.89084
29.216639 70.494529 19.216387
9.004942 77.87463 -27.270344
9.76139 79.045234 -26.299298
10.440099 77.815517 -26.893297
8.356478 76.589924 -28.236591
7.67777 77.819641 -27.642592
9.004942 77.87463 -27.270344
7.69287 75.245369 -29.135277
8.356478 76.589924 -28.236591
28.229608 80.064885 -13.803481
26.485093 80.864555 -14.198105
31.569411 78.376972 -13.030983
32.268591 78.216698 -11.810287
38.098453 74.337913 -10.291837
37.256839 75.094814 -9.371323
38.584213 74.027141 -8.996528
38.932932 73.486709 -11.136579
38.098453 74.337913 -10.291837
40.225001 72.344326 -10.764147
38.932932 73.486709 -11.136579
43.934145 65.569996 1.887021
43.191958 66.285358 2.926596
43.978218 64.900078 3.277452
44.46426 67.056038 -4.493862
43.553448 68.397526 -4.870195
43.673439 67.907932 -3.551209
15.507811 85.974743 8.528061
16.235336 85.107624 10.041811
15.942394 86.046608 6.826721
14.758398 86.765629 7.005285
15.507811 85.974743 8.528061
26.485093 80.864555 -14.198105
24.761691 81.651741 -14.561582
25.62579 81.540795 -13.317876
31.299509 62.666878 27.797532
30.607729 63.997239 26.654109
34.250923 60.542328 28.710376
33.874134 59.710392 29.850763
34.995609 59.313793 29.753656
4.604352 86.95689 -7.137933
5.231025 87.702515 -7.425944
4.707479 86.932644 -8.827382
4.46595 86.58585 -1.93453
4.49138 86.777764 -3.684931
4.83959 87.288296 -0.478199
4.46595 86.58585 -1.93453
1.602536 75.197727 -27.013738
1.823246 74.589882 -28.098197
41.758263 58.817218 25.741647
42.270454 58.641048 25.112536
41.64611 59.695717 24.614542
19.333289 82.989754 -17.751118
20.29748 83.134349 -16.559162
21.099725 82.317745 -17.399389
17.565067 83.572586 -18.131025
19.333289 82.989754 -17.751118
11.658262 88.391125 5.887964
11.262085 88.23555 7.643597
12.400769 87.882229 7.411877
3.211082 83.827988 -16.049468
3.757547 84.879776 -14.769249
3.812905 84.672073 -16.317733
3.211082 83.827988 -16.049468
2.775772 82.596714 -17.304364
44.653363 57.912152 16.005238
44.515819 58.742168 14.580228
44.653363 57.912152 16.005238
44.262138 58.415588 17.058252
44.515819 58.742168 14.580228
44.344141 59.589135 13.159263
43.88008 60.132145 14.234067
30.325843 68.027359 21.774131
30.927164 66.738312 23.00766
30.888872 68.641033 20.520083
29.771938 69.22974 20.501341
30.325843 68.027359 21.774131
12.788772 78.713986 -25.445839
12.037519 79.950214 -24.88792
13.629744 79.678078 -24.411509
11.931294 77.643685 -26.401512
12.788772 78.713986 -25.445839
10.440099 77.815517 -26.893297
11.931294 77.643685 -26.401512
32.959833 77.937027 -10.5033
32.268591 78.216698 -11.810287
31.380192 78.819885 -10.887193
40.997448 71.753422 -8.248816
40.616943 72.090713 -9.540512
39.806331 72.932949 -8.625345
42.091847 70.54216 -7.876002
40.997448 71.753422 -8.248816
41.281234 71.384396 -6.960835
43.156723 69.260838 -7.483491
42.091847 70.54216 -7.876002
45.494152 64.016087 -0.092062
44.707832 64.812149 0.874776
45.484674 64.595196 -1.423106
45.494152 64.016087 -0.092062
45.42917 65.158626 -2.766382
44.639755 66.003014 -1.831601
45.484674 64.595196 -1.423106
45.36091 65.670105 -4.073391
45.42917 65.158626 -2.766382
17.387267 84.302723 9.854264
16.235336 85.107624 10.041811
25.950542 74.365433 16.555133
26.484763 73.095101 17.897056
25.439163 75.508919 15.174521
25.950542 74.365433 16.555133
26.54005 74.717873 15.137222
24.904689 76.700336 13.782726
25.439163 75.508919 15.174521
36.109245 58.960899 29.581445
34.995609 59.313793 29.753656
37.17968 58.612091 29.455947
36.442833 59.79692 28.487772
36.109245 58.960899 29.581445
38.225691 58.29636 29.224145
37.17968 58.612091 29.455947
39.191006 57.982594 29.023235
38.478583 59.134346 28.161364
38.225691 58.29636 29.224145
40.120966 57.689754 28.68943
39.191006 57.982594 29.023235
2.177738 73.823296 -29.074736
1.823246 74.589882 -28.098197
2.545241 75.471183 -28.199047
43.619913 57.809387 22.743021
43.991978 57.480999 21.807209
43.391337 58.719044 21.430109
43.213915 58.136226 23.596417
42.588787 59.28349 23.175677
42.78343 58.372284 24.406172
43.619913 57.809387 22.743021
43.213915 58.136226 23.596417
16.433463 81.893414 -21.250737
15.647376 82.857262 -20.507608
15.464241 81.268223 -22.311115
16.433463 81.893414 -21.250737
14.555654 80.537521 -23.405882
13.787076 81.645008 -22.758823
15.464241 81.268223 -22.311115
13.629744 79.678078 -24.411509
14.555654 80.537521 -23.405882
43.973298 64.216435 4.660204
43.280749 64.889023 5.722253
44.018015 63.490017 6.065431
43.978218 64.900078 3.277452
43.973298 64.216435 4.660204
10.160424 88.492645 7.919289
11.262085 88.23555 7.643597
10.160424 88.492645 7.919289
9.480055 88.802513 6.397369
4.750617 86.882889 -10.488511
5.477412 87.521186 -10.735805
4.893877 86.725807 -12.108923
4.707479 86.932644 -8.827382
4.750617 86.882889 -10.488511
4.263225 85.905686 -13.449571
3.757547 84.879776 -14.769249
4.301029 74.341251 -29.892117
5.337717 74.768692 -29.706266
44.11796 57.968327 19.477885
43.864095 58.868725 18.121225
43.509536 59.291054 19.137637
44.11796 57.968327 19.477885
44.33524 57.081863 20.848962
44.095367 61.982177 8.886057
44.023187 62.757869 7.46805
43.397646 63.386913 8.545486
44.13534 61.209758 10.305692
43.589113 61.795166 11.388297
44.254627 60.393704 11.730497
44.095367 61.982177 8.886057
44.13534 61.209758 10.305692
27.57487 72.360016 17.851658
26.484763 73.095101 17.897056
28.178621 72.865811 16.557016
27.57487 72.360016 17.851658
28.702061 71.65144 17.89084
2.946178 82.008278 -20.244915
2.79811 82.361416 -18.805706
3.414509 83.267147 -19.037161
3.069365 81.62524 -21.628689
2.452966 80.71951 -21.397234
2.946178 82.008278 -20.244915
6.473484 75.085316 -29.483171
5.337717 74.768692 -29.706266
5.893539 76.218311 -28.831934
6.473484 75.085316 -29.483171
7.69287 75.245369 -29.135277
29.899487 79.237858 -13.423372
28.229608 80.064885 -13.803481
29.019071 79.926582 -12.574289
29.899487 79.237858 -13.423372
31.569411 78.376972 -13.030983
34.439737 77.041702 -10.126358
32.959833 77.937027 -10.5033
33.551338 77.64489 -9.203264
35.901161 76.077575 -9.746476
36.386921 75.766804 -8.451168
37.256839 75.094814 -9.371323
34.439737 77.041702 -10.126358
35.901161 76.077575 -9.746476
40.225001 72.344326 -10.764147
40.616943 72.090713 -9.540512
43.921571 66.197429 0.52392
43.934145 65.569996 1.887021
44.707832 64.812149 0.874776
43.359951 68.859383 -6.200435
42.56913 69.711277 -5.257782
43.553448 68.397526 -4.870195
43.156723 69.260838 -7.483491
43.359951 68.859383 -6.200435
44.46426 67.056038 -4.493862
45.36091 65.670105 -4.073391
13.56038 87.365784 7.181434
12.400769 87.882229 7.411877
13.994964 87.437649 5.480094
13.56038 87.365784 7.181434
14.758398 86.765629 7.005285
24.382528 77.760673 12.358576
24.904689 76.700336 13.782726
25.506509 76.921696 12.332459
23.223348 78.637981 12.370954
24.382528 77.760673 12.358576
23.825167 78.859341 10.920687
22.118757 79.534943 12.465013
23.223348 78.637981 12.370954
20.97233 80.448231 12.54247
22.118757 79.534943 12.465013
21.51956 80.649937 11.010523
19.872979 81.357902 12.695067
20.97233 80.448231 12.54247
19.22793 82.456474 11.223506
19.872979 81.357902 12.695067
18.578 83.451195 9.731871
19.22793 82.456474 11.223506
19.723203 82.557946 9.596345
17.88254 84.404194 8.227104
17.387267 84.302723 9.854264
18.578 83.451195 9.731871
23.842455 81.718921 -15.824623
22.983151 82.395161 -14.944394
24.761691 81.651741 -14.561582
22.907063 81.63536 -16.988771
23.842455 81.718921 -15.824623
31.065593 64.751407 25.40009
30.607729 63.997239 26.654109
32.18501 64.228981 25.397042
31.53097 65.515545 24.219397
31.065593 64.751407 25.40009
32.740967 60.118893 30.000556
33.874134 59.710392 29.850763
32.004416 61.40392 28.912406
32.740967 60.118893 30.000556
32.42454 62.201886 27.692608
31.299509 62.666878 27.797532
32.004416 61.40392 28.912406
41.728828 58.014125 26.762532
41.758263 58.817218 25.741647
41.104484 59.068794 26.264538
40.936543 57.412315 28.351915
40.259473 58.54314 27.622938
40.120966 57.689754 28.68943
41.715812 57.128803 27.878082
40.936543 57.412315 28.351915
41.728828 58.014125 26.762532
41.715812 57.128803 27.878082
7.397531 89.116398 1.871611
8.104361 89.110412 3.370011
8.343367 89.278064 1.588847
6.571945 88.723122 2.161666
7.397531 89.116398 1.871611
6.810951 88.890774 0.380503
5.802443 88.231289 2.472503
6.571945 88.723122 2.161666
4.583499 86.882424 -5.424983
4.604352 86.95689 -7.137933
5.035778 87.622101 -3.996444
4.583499 86.882424 -5.424983
4.49138 86.777764 -3.684931
5.360443 87.778324 0.985277
5.464512 88.007469 -0.792917
4.83959 87.288296 -0.478199
5.802443 88.231289 2.472503
5.360443 87.778324 0.985277
2.050533 79.280957 -22.519421
2.452966 80.71951 -21.397234
1.630075 77.812763 -23.578457
2.050533 79.280957 -22.519421
2.155695 78.868279 -23.840044
1.279378 76.220531 -24.601803
1.630075 77.812763 -23.578457
1.374779 75.778885 -25.852024
1.962994 76.818928 -26.060795
1.602536 75.197727 -27.013738
1.279378 76.220531 -24.601803
1.374779 75.778885 -25.852024
3.372009 73.742706 -29.952395
3.828753 75.303143 -29.115307
4.301029 74.341251 -29.892117
2.526645 73.033878 -29.970009
3.372009 73.742706 -29.952395
2.177738 73.823296 -29.074736
2.526645 73.033878 -29.970009
3 0 59 57
3 0 57 60
3 0 60 62
3 236 235 64
3 1 68 66
3 1 71 69
3 1 66 71
3 2 75 73
3 238 237 76
3 3 239 241
3 241 240 77
3 239 240 241
3 4 80 78
3 3 83 81
3 3 77 83
3 6 242 244
3 242 85 243
3 242 243 244
3 4 88 86
3 4 78 88
3 8 92 90
3 10 95 93
3 10 97 95
3 10 99 97
3 12 103 101
3 13 106 104
3 13 107 106
3 5 110 108
3 7 113 112
3 14 116 114
3 14 118 116
3 14 120 118
3 12 123 121
3 12 101 123
3 9 128 126
3 11 131 129
3 15 134 132
3 246 245 58
3 16 137 135
3 15 138 61
3 15 132 138
3 18 141 139
3 16 142 63
3 16 135 142
3 20 145 143
3 247 146 248
3 249 248 65
3 247 248 249
3 250 147 251
3 252 251 146
3 250 251 252
3 253 149 254
3 255 254 147
3 253 254 255
3 23 152 150
3 25 153 67
3 25 154 153
3 257 256 155
3 26 159 157
3 28 160 70
3 28 161 160
3 28 163 161
3 23 164 72
3 23 150 164
3 30 258 260
3 260 259 74
3 258 259 260
3 30 261 262
3 31 263 265
3 265 264 165
3 263 264 265
3 267 266 133
3 32 169 167
3 34 170 79
3 34 171 170
3 17 172 136
3 35 173 82
3 35 174 173
3 35 175 174
3 269 268 84
3 36 270 271
3 36 272 274
3 272 176 273
3 272 273 274
3 19 177 140
3 37 178 87
3 37 179 178
3 37 180 179
3 32 181 89
3 32 167 181
3 38 184 182
3 40 185 91
3 40 186 185
3 21 187 144
3 41 188 94
3 41 189 188
3 41 190 189
3 42 191 96
3 42 192 191
3 42 194 192
3 44 195 98
3 44 196 195
3 22 197 148
3 275 198 276
3 277 276 100
3 275 276 277
3 278 199 279
3 280 279 198
3 278 279 280
3 282 281 199
3 45 283 284
3 286 285 102
3 24 200 151
3 46 287 289
3 289 288 105
3 287 288 289
3 46 290 291
3 46 292 293
3 33 201 168
3 47 202 109
3 47 203 202
3 294 204 295
3 296 295 156
3 294 295 296
3 48 205 111
3 48 206 205
3 48 297 299
3 299 298 206
3 297 298 299
3 49 300 301
3 49 302 304
3 302 207 303
3 302 303 304
3 27 208 158
3 50 209 115
3 50 210 209
3 50 211 210
3 51 212 117
3 51 213 212
3 51 214 213
3 52 215 119
3 52 216 215
3 29 217 162
3 53 218 122
3 53 219 218
3 53 220 219
3 45 221 124
3 45 305 307
3 307 306 221
3 305 306 307
3 308 222 309
3 54 310 312
3 310 223 311
3 310 311 312
3 54 224 223
3 54 225 224
3 55 226 125
3 55 227 226
3 55 228 227
3 39 229 183
3 56 230 127
3 56 231 230
3 313 232 314
3 315 314 166
3 313 314 315
3 316 233 317
3 319 318 233
3 43 234 193
3 321 320 130
3 57 58 15
3 59 58 57
3 59 322 324
3 324 323 58
3 322 323 324
3 60 61 16
3 57 61 60
3 57 15 61
3 62 63 18
3 60 63 62
3 60 16 63
3 64 65 20
3 325 65 326
3 327 326 64
3 325 326 327
3 329 328 65
3 66 67 23
3 68 67 66
3 68 25 67
3 69 70 26
3 71 70 69
3 71 28 70
3 71 72 28
3 66 72 71
3 66 23 72
3 73 330 332
3 330 74 331
3 330 331 332
3 75 74 73
3 75 30 74
3 76 333 335
3 335 334 31
3 333 334 335
3 337 336 76
3 77 338 339
3 341 340 77
3 78 79 32
3 80 79 78
3 80 34 79
3 81 82 17
3 83 82 81
3 83 35 82
3 83 84 35
3 77 84 83
3 77 342 344
3 344 343 84
3 342 343 344
3 85 345 346
3 85 347 349
3 347 36 348
3 347 348 349
3 86 87 19
3 88 87 86
3 88 37 87
3 88 89 37
3 78 89 88
3 78 32 89
3 90 91 38
3 92 91 90
3 92 40 91
3 93 94 21
3 95 94 93
3 95 41 94
3 95 96 41
3 97 96 95
3 97 42 96
3 97 98 42
3 99 98 97
3 99 44 98
3 350 100 351
3 352 351 22
3 350 351 352
3 353 100 354
3 356 355 100
3 101 102 45
3 103 102 101
3 103 357 359
3 359 358 102
3 357 358 359
3 104 105 24
3 106 105 104
3 106 46 105
3 106 360 362
3 362 361 46
3 360 361 362
3 107 363 365
3 365 364 106
3 363 364 365
3 107 366 367
3 108 109 33
3 110 109 108
3 110 47 109
3 368 111 369
3 370 111 371
3 372 48 373
3 374 373 111
3 372 373 374
3 376 375 48
3 377 49 378
3 112 379 380
3 113 381 383
3 383 382 112
3 381 382 383
3 113 384 385
3 114 115 27
3 116 115 114
3 116 50 115
3 116 117 50
3 118 117 116
3 118 51 117
3 118 119 51
3 120 119 118
3 120 52 119
3 121 122 29
3 123 122 121
3 123 53 122
3 123 124 53
3 101 124 123
3 101 45 124
3 386 54 387
3 388 125 389
3 390 389 54
3 388 389 390
3 391 125 392
3 393 55 394
3 395 394 125
3 393 394 395
3 397 396 55
3 126 127 39
3 128 127 126
3 128 56 127
3 129 130 43
3 131 130 129
3 131 398 400
3 400 399 130
3 398 399 400
3 132 133 3
3 134 133 132
3 134 401 403
3 403 402 133
3 401 402 403
3 58 134 15
3 404 134 405
3 406 405 58
3 404 405 406
3 408 407 134
3 135 136 4
3 137 136 135
3 137 17 136
3 61 137 16
3 138 137 61
3 138 17 137
3 138 81 17
3 132 81 138
3 132 3 81
3 139 140 6
3 141 140 139
3 141 19 140
3 63 141 18
3 142 141 63
3 142 19 141
3 142 86 19
3 135 86 142
3 135 4 86
3 143 144 8
3 145 144 143
3 145 21 144
3 65 145 20
3 146 145 65
3 146 21 145
3 146 93 21
3 147 93 146
3 147 10 93
3 147 148 10
3 149 148 147
3 149 22 148
3 409 149 410
3 411 149 412
3 413 22 414
3 415 414 149
3 413 414 415
3 417 416 22
3 150 151 12
3 152 151 150
3 152 24 151
3 67 152 23
3 153 152 67
3 153 24 152
3 153 104 24
3 154 104 153
3 154 13 104
3 155 156 5
3 418 156 419
3 420 419 155
3 418 419 420
3 422 421 156
3 157 158 7
3 159 158 157
3 159 27 158
3 70 159 26
3 160 159 70
3 160 27 159
3 160 114 27
3 161 114 160
3 161 14 114
3 161 162 14
3 163 162 161
3 163 29 162
3 72 163 28
3 164 163 72
3 164 29 163
3 164 121 29
3 150 121 164
3 150 12 121
3 74 423 424
3 426 425 74
3 165 166 9
3 427 166 428
3 429 428 165
3 427 428 429
3 431 430 166
3 433 432 31
3 435 434 11
3 133 436 438
3 438 437 3
3 436 437 438
3 440 439 133
3 167 168 1
3 169 168 167
3 169 33 168
3 79 169 32
3 170 169 79
3 170 33 169
3 170 108 33
3 171 108 170
3 171 5 108
3 136 80 4
3 172 80 136
3 172 34 80
3 82 172 17
3 173 172 82
3 173 34 172
3 173 171 34
3 174 171 173
3 174 5 171
3 174 155 5
3 175 155 174
3 175 441 443
3 443 442 155
3 441 442 443
3 84 175 35
3 444 175 445
3 446 445 84
3 444 445 446
3 448 447 175
3 449 112 450
3 176 451 453
3 451 112 452
3 451 452 453
3 176 7 112
3 140 85 6
3 177 85 140
3 177 36 85
3 87 177 19
3 178 177 87
3 178 36 177
3 178 176 36
3 179 176 178
3 179 7 176
3 179 157 7
3 180 157 179
3 180 26 157
3 89 180 37
3 181 180 89
3 181 26 180
3 181 69 26
3 167 69 181
3 167 1 69
3 182 183 2
3 184 183 182
3 184 39 183
3 91 184 38
3 185 184 91
3 185 39 184
3 185 126 39
3 186 126 185
3 186 9 126
3 144 92 8
3 187 92 144
3 187 40 92
3 94 187 21
3 188 187 94
3 188 40 187
3 188 186 40
3 189 186 188
3 189 9 186
3 189 165 9
3 190 165 189
3 190 31 165
3 96 190 41
3 191 190 96
3 191 31 190
3 191 76 31
3 192 76 191
3 192 454 456
3 456 455 76
3 454 455 456
3 192 457 459
3 457 193 458
3 457 458 459
3 194 193 192
3 194 43 193
3 98 194 42
3 195 194 98
3 195 43 194
3 195 129 43
3 196 129 195
3 196 11 129
3 148 99 10
3 197 99 148
3 197 44 99
3 100 197 22
3 198 197 100
3 198 44 197
3 198 196 44
3 199 196 198
3 199 11 196
3 199 460 462
3 462 461 11
3 460 461 462
3 464 463 199
3 102 465 467
3 467 466 45
3 465 466 467
3 469 468 102
3 151 103 12
3 200 103 151
3 200 470 472
3 472 471 103
3 470 471 472
3 105 200 24
3 473 200 474
3 475 474 105
3 473 474 475
3 477 476 200
3 479 478 46
3 168 68 1
3 201 68 168
3 201 25 68
3 109 201 33
3 202 201 109
3 202 25 201
3 202 154 25
3 203 154 202
3 203 13 154
3 156 110 5
3 204 110 156
3 204 47 110
3 111 480 482
3 480 204 481
3 480 481 482
3 205 204 111
3 205 47 204
3 205 203 47
3 206 203 205
3 206 13 203
3 206 107 13
3 483 107 484
3 485 484 206
3 483 484 485
3 487 486 107
3 489 488 48
3 490 73 491
3 207 492 494
3 492 73 493
3 492 493 494
3 207 2 73
3 158 113 7
3 208 113 158
3 208 495 497
3 497 496 113
3 495 496 497
3 115 208 27
3 209 208 115
3 209 498 500
3 500 499 208
3 498 499 500
3 209 501 502
3 210 503 505
3 505 504 209
3 503 504 505
3 210 506 507
3 210 508 509
3 211 510 512
3 512 511 210
3 510 511 512
3 211 513 515
3 513 49 514
3 513 514 515
3 117 211 50
3 212 211 117
3 212 49 211
3 212 207 49
3 213 207 212
3 213 2 207
3 213 182 2
3 214 182 213
3 214 38 182
3 119 214 51
3 215 214 119
3 215 38 214
3 215 90 38
3 216 90 215
3 216 8 90
3 162 120 14
3 217 120 162
3 217 52 120
3 122 217 29
3 218 217 122
3 218 52 217
3 218 216 52
3 219 216 218
3 219 8 216
3 219 143 8
3 220 143 219
3 220 20 143
3 124 220 53
3 221 220 124
3 221 20 220
3 221 64 20
3 516 64 517
3 518 517 221
3 516 517 518
3 520 519 64
3 222 521 522
3 222 523 525
3 523 6 524
3 523 524 525
3 223 526 527
3 223 528 529
3 223 530 532
3 530 222 531
3 530 531 532
3 224 222 223
3 224 6 222
3 224 139 6
3 225 139 224
3 225 18 139
3 125 225 54
3 226 225 125
3 226 18 225
3 226 62 18
3 227 62 226
3 227 0 62
3 227 59 0
3 228 59 227
3 228 533 535
3 535 534 59
3 533 534 535
3 536 228 537
3 538 537 55
3 536 537 538
3 539 228 540
3 542 541 228
3 183 75 2
3 229 75 183
3 229 30 75
3 127 229 39
3 230 229 127
3 230 30 229
3 230 543 545
3 545 544 30
3 543 544 545
3 231 546 548
3 548 547 230
3 546 547 548
3 231 549 550
3 166 128 9
3 232 128 166
3 232 56 128
3 551 232 552
3 233 553 555
3 553 232 554
3 553 554 555
3 233 56 232
3 233 231 56
3 556 231 557
3 558 557 233
3 556 557 558
3 560 559 231
3 193 561 562
3 234 563 565
3 565 564 193
3 563 564 565
3 234 566 567
3 130 234 43
3 568 234 569
3 570 569 130
3 568 569 570
3 572 571 234
3 573 131 574
3 575 574 11
3 573 574 575
3 576 131 577
3 579 578 131
