ply
format ascii 1.0
element vertex 322
property float x
property float y
property float z
element face 337
property list uchar int vertex_index
end_header
-41.798634 -31.329998 13.8415
-61.900928 -26.686428 -1.258465
-46.781338 -20.386074 -1.312229
-49.361092 -31.904053 5.432495
-54.145748 -23.138411 -0.305429
-42.659241 -26.720022 6.90132
-50.705627 -12.07436 -10.388014
-44.363514 -32.747383 9.678873
-45.64782 -29.556152 6.380133
-41.584366 -29.303324 10.569099
-43.56284 -32.577934 16.591103
-44.433163 -35.199921 12.940783
-63.529018 -21.698946 -3.680395
-50.316528 -21.926119 -0.50862
-56.496765 -18.408571 -3.442852
-52.660053 -17.592731 -4.395256
-48.922939 -16.526711 -5.77117
-60.058197 -31.646709 1.385838
-55.712971 -29.507465 1.763669
-58.060993 -24.635185 -0.738565
-51.582253 -27.667133 2.530345
-47.819878 -25.902664 3.031682
-44.557281 -23.745901 2.926353
-53.712269 -34.094025 4.655773
-40.213482 -26.59182 14.318583
-60.186455 -19.674494 -3.299179
-42.733566 -32.337528 11.83045
-42.855804 -31.118221 10.177991
-41.507191 -30.400955 12.262399
-42.483212 -32.061962 15.289163
-43.64246 -34.156982 14.910655
-42.989182 -33.360123 13.414003
-44.209293 -34.084503 11.320089
-64.412308 -25.463284 -2.641352
-62.773609 -24.183756 -2.465847
-48.496628 -21.247795 -0.866531
-51.530968 -19.810501 -2.402035
-49.665981 -19.259775 -2.934612
-50.762737 -17.147137 -5.07748
-47.882908 -18.52696 -3.517826
-60.974312 -29.183578 0.007732
-62.950218 -30.420668 -0.019646
-63.709118 -27.942944 -1.37204
-52.455208 -30.833508 3.507326
-53.607662 -28.559612 2.137994
-50.391052 -29.834665 3.952561
-44.056473 -28.226938 6.713692
-46.658295 -27.774036 4.719073
-45.012554 -26.614164 4.908518
-46.114548 -24.913458 3.048917
-43.537525 -25.277519 4.948912
-48.561943 -33.83799 6.99589
-50.697933 -35.031685 6.574517
-51.464401 -33.004284 4.978396
-54.635143 -31.853809 3.140942
-56.10231 -23.827238 -0.468904
-59.184723 -22.158976 -1.978769
-57.297157 -21.406082 -1.817888
-57.467106 -15.960117 -5.222549
-59.286682 -16.478662 -4.884275
-39.832504 -25.826151 12.710169
-46.612427 -32.579399 7.512151
-47.41925 -30.766319 5.930099
-44.860802 -31.22514 8.031013
-43.315536 -29.736938 8.470127
-41.987095 -28.067646 8.777747
-46.098236 -34.228653 9.140522
-52.209373 -22.526636 -0.311694
-55.376495 -20.799109 -1.814381
-53.445194 -20.291426 -2.01071
-54.582336 -17.979479 -3.826164
-55.585052 -15.580343 -5.774212
-53.670387 -15.260624 -6.491919
-51.755081 -14.898102 -7.290554
-49.871292 -14.375799 -8.063707
-58.932354 -28.076607 0.189475
-60.003178 -25.584949 -1.0289
-56.879444 -27.091482 0.4879
-54.848724 -26.216206 0.830163
-52.85873 -25.429527 1.126712
-48.45562 -28.828575 4.384035
-49.648758 -26.797838 2.850644
-50.923546 -24.694521 1.297454
-49.06102 -23.953564 1.296495
-47.295856 -23.127386 1.126496
-45.65699 -22.119936 0.837831
-56.903698 -32.917217 2.92944
-57.876812 -30.531406 1.493541
-41.584404 -29.757563 15.579191
-40.871815 -29.082378 14.156003
-40.953476 -27.22286 15.727286
-61.018646 -23.082064 -2.222431
-61.91312 -20.586199 -3.460667
-62.633987 -18.108852 -4.813684
-58.373371 -18.957003 -3.273737
-61.017025 -17.186687 -4.761282
-40.538868 -28.241394 12.562476
-40.558388 -27.260359 10.817497
-40.887318 -26.163616 8.942005
-41.472046 -24.968927 6.956485
-44.171066 -20.829063 0.513537
-45.198421 -19.231279 -1.748085
-46.209908 -17.497705 -4.045454
-47.169365 -15.614933 -6.367205
-48.049141 -13.576836 -8.703979
-58.738516 -14.964448 -5.952624
-57.864858 -14.704476 -6.196932
-52.02248 -11.032392 -11.143884
-51.662581 -12.292068 -9.977439
-51.057659 -10.853831 -11.563946
-52.02248 -11.032392 -11.143884
-44.126612 -33.645095 16.446753
-44.289893 -32.726263 17.166553
-44.741062 -35.633036 13.73022
-44.345711 -35.111566 14.715156
-44.037812 -34.678452 13.925719
-45.275263 -36.038222 12.723845
-44.741062 -35.633036 13.73022
-45.178556 -35.43649 11.87597
-45.275263 -36.038222 12.723845
-64.479033 -21.149789 -4.424938
-64.265794 -22.353572 -3.782478
-63.821378 -20.474311 -4.327343
-64.479033 -21.149789 -4.424938
-61.124459 -32.257188 1.421803
-59.634208 -32.845156 2.149112
-63.866287 -31.108075 0.042519
-64.156456 -29.888072 -0.685698
-53.354765 -35.140873 5.49059
-51.847597 -35.609703 6.449962
-52.205101 -34.562855 5.615145
-54.890924 -34.645756 4.590584
-53.354765 -35.140873 5.49059
-55.307983 -33.505621 3.792606
-56.486639 -34.057352 3.727417
-54.890924 -34.645756 4.590584
-41.507868 -27.461227 16.325153
-41.26894 -28.490212 15.653239
-41.823332 -28.728578 16.251106
-41.823332 -28.728578 16.251106
-42.133736 -30.002103 16.199223
-61.33151 -15.941987 -5.58754
-60.151854 -16.832674 -4.822779
-60.466339 -15.587974 -5.649037
-62.082251 -16.421726 -5.552147
-61.33151 -15.941987 -5.58754
-40.170654 -26.103632 10.870758
-40.195446 -26.543255 11.763833
-39.807713 -25.386528 11.817094
-40.33512 -25.555261 9.933012
-40.722853 -26.711987 9.879751
-40.170654 -26.103632 10.870758
-40.988928 -23.938409 6.940743
-40.747957 -24.469981 7.97148
-41.86283 -24.326685 5.917972
-40.988928 -23.938409 6.940743
-43.07324 -20.671289 1.523022
-43.671669 -21.568573 1.620304
-44.482185 -18.45833 -1.912326
-44.026817 -19.19626 -0.751155
-44.987928 -17.591543 -3.061011
-45.704165 -18.364492 -2.89677
-44.482185 -18.45833 -1.912326
-46.346685 -14.962687 -6.568976
-45.917915 -15.843281 -5.393322
-46.786574 -13.943638 -7.737362
-47.609253 -14.595885 -7.535592
-46.346685 -14.962687 -6.568976
-64.707439 -24.235741 -3.262957
-65.351562 -24.983519 -3.331874
-63.88809 -23.595977 -3.175204
-64.707439 -24.235741 -3.262957
-63.592958 -24.82352 -2.553599
-63.151314 -22.941351 -3.073121
-64.265794 -22.353572 -3.782478
-63.88809 -23.595977 -3.175204
-64.535906 -28.64921 -1.361895
-64.156456 -29.888072 -0.685698
-63.329668 -29.181806 -0.695843
-64.795317 -27.429367 -2.042299
-64.535906 -28.64921 -1.361895
-65.146912 -26.189538 -2.676956
-64.795317 -27.429367 -2.042299
-64.060713 -26.703114 -2.006696
-65.351562 -24.983519 -3.331874
-65.146912 -26.189538 -2.676956
-49.629938 -34.434838 6.785203
-49.373985 -35.313023 7.613239
-48.30599 -34.716175 7.823926
-59.648304 -15.22372 -5.783487
-58.376894 -16.219389 -5.053412
-58.738516 -14.964448 -5.952624
-60.466339 -15.587974 -5.649037
-59.648304 -15.22372 -5.783487
-39.825241 -24.832065 13.514658
-40.022993 -26.208985 13.514376
-40.01573 -25.2149 14.318866
-39.607031 -24.477055 12.711856
-39.825241 -24.832065 13.514658
-39.807713 -25.386528 11.817094
-39.607031 -24.477055 12.711856
-44.166422 -34.434619 15.606528
-44.126612 -33.645095 16.446753
-43.60265 -33.367458 15.750879
-44.166422 -34.434619 15.606528
-44.345711 -35.111566 14.715156
-45.066621 -34.87878 11.065623
-45.178556 -35.43649 11.87597
-44.321228 -34.642212 12.130436
-46.011093 -34.950856 9.975839
-45.066621 -34.87878 11.065623
-45.153765 -34.156578 10.230306
-47.074137 -34.911507 8.896242
-46.011093 -34.950856 9.975839
-47.330089 -34.033321 8.068206
-48.30599 -34.716175 7.823926
-47.074137 -34.911507 8.896242
-56.923831 -14.514589 -6.472764
-57.864858 -14.704476 -6.196932
-56.526079 -15.77023 -5.49838
-56.007227 -14.334254 -6.817165
-56.923831 -14.514589 -6.472764
-55.049894 -14.174395 -7.176018
-56.007227 -14.334254 -6.817165
-54.627719 -15.420483 -6.133066
-54.104309 -14.034855 -7.59044
-55.049894 -14.174395 -7.176018
-53.146656 -13.853594 -7.989758
-54.104309 -14.034855 -7.59044
-52.712734 -15.079363 -6.891236
-52.187308 -13.70394 -8.428709
-53.146656 -13.853594 -7.989758
-51.245413 -13.442788 -8.815286
-52.187308 -13.70394 -8.428709
-50.813187 -14.636951 -7.677131
-50.28846 -13.225079 -9.22586
-51.662581 -12.292068 -9.977439
-51.245413 -13.442788 -8.815286
-62.570469 -31.644168 0.71906
-61.124459 -32.257188 1.421803
-61.504207 -31.033689 0.683096
-62.570469 -31.644168 0.71906
-63.866287 -31.108075 0.042519
-50.450403 -35.952528 7.437415
-49.373985 -35.313023 7.613239
-50.450403 -35.952528 7.437415
-51.847597 -35.609703 6.449962
-58.056959 -33.48041 2.920913
-56.486639 -34.057352 3.727417
-58.480947 -32.281963 2.157639
-59.634208 -32.845156 2.149112
-58.056959 -33.48041 2.920913
-41.327751 -26.072829 16.294825
-41.507868 -27.461227 16.325153
-40.770551 -25.832408 15.717158
-41.327751 -26.072829 16.294825
-40.400554 -25.516889 15.012806
-40.583479 -26.90734 15.022934
-40.770551 -25.832408 15.717158
-40.01573 -25.2149 14.318866
-40.400554 -25.516889 15.012806
-43.857496 -31.559548 17.233082
-44.289893 -32.726263 17.166553
-43.122954 -31.412288 16.705179
-43.857496 -31.559548 17.233082
-42.58314 -31.154303 16.054209
-43.023026 -32.319948 15.940133
-43.122954 -31.412288 16.705179
-42.033808 -30.909762 15.434177
-42.58314 -31.154303 16.054209
-42.133736 -30.002103 16.199223
-63.01343 -19.917938 -4.217479
-63.821378 -20.474311 -4.327343
-62.721069 -21.142572 -3.570531
-63.373863 -18.679264 -4.893987
-63.01343 -19.917938 -4.217479
-62.273553 -19.347525 -4.137175
-63.562934 -17.478579 -5.615286
-63.373863 -18.679264 -4.893987
-62.890732 -16.882809 -5.578348
-61.825506 -17.647769 -4.787483
-62.082251 -16.421726 -5.552147
-63.562934 -17.478579 -5.615286
-62.890732 -16.882809 -5.578348
-40.455593 -25.067326 8.96424
-40.33512 -25.555261 9.933012
-41.179682 -25.566271 7.949245
-40.455593 -25.067326 8.96424
-40.747957 -24.469981 7.97148
-42.895569 -24.480981 4.914186
-42.504785 -25.123223 5.952699
-41.86283 -24.326685 5.917972
-43.405447 -23.715173 3.902906
-44.047403 -24.51171 3.937633
-42.895569 -24.480981 4.914186
-43.864777 -23.026992 2.826712
-43.405447 -23.715173 3.902906
-44.414631 -22.214009 1.782451
-45.107135 -22.932918 1.882092
-43.864777 -23.026992 2.826712
-44.914028 -21.4745 0.675684
-44.414631 -22.214009 1.782451
-43.671669 -21.568573 1.620304
-43.51314 -19.995151 0.379657
-43.07324 -20.671289 1.523022
-44.684744 -20.030171 -0.617274
-43.51314 -19.995151 0.379657
-44.026817 -19.19626 -0.751155
-45.438187 -16.784667 -4.232447
-44.987928 -17.591543 -3.061011
-46.689636 -16.556319 -5.20633
-45.438187 -16.784667 -4.232447
-45.917915 -15.843281 -5.393322
-47.181793 -12.988049 -8.912992
-46.786574 -13.943638 -7.737362
-48.439173 -12.481694 -9.876895
-47.181793 -12.988049 -8.912992
-49.767416 -11.730456 -10.718913
-49.377384 -12.825598 -9.545997
-48.439173 -12.481694 -9.876895
-51.057659 -10.853831 -11.563946
-49.767416 -11.730456 -10.718913
3 0 28 26
3 0 31 29
3 0 26 31
3 1 34 33
3 2 37 35
3 2 39 37
3 1 42 40
3 1 33 42
3 3 45 43
3 5 48 46
3 5 50 48
3 3 53 51
3 3 43 53
3 4 57 55
3 106 105 58
3 6 107 108
3 6 109 110
3 7 63 61
3 9 64 27
3 9 65 64
3 10 111 112
3 11 113 115
3 115 114 30
3 113 114 115
3 11 116 117
3 11 118 119
3 7 66 32
3 7 61 66
3 12 120 121
3 12 122 123
3 13 69 67
3 15 70 36
3 15 71 70
3 15 72 71
3 16 73 38
3 16 74 73
3 17 124 125
3 127 126 41
3 18 77 75
3 20 78 44
3 20 79 78
3 8 80 62
3 21 81 47
3 21 82 81
3 21 83 82
3 22 84 49
3 22 85 84
3 23 128 130
3 130 129 52
3 128 129 130
3 23 131 132
3 23 133 135
3 133 86 134
3 133 134 135
3 18 87 54
3 18 75 87
3 136 90 137
3 138 137 88
3 136 137 138
3 139 88 140
3 19 91 76
3 25 92 56
3 25 93 92
3 14 94 68
3 141 95 142
3 143 142 59
3 141 142 143
3 145 144 95
3 24 96 89
3 146 97 147
3 148 147 60
3 146 147 148
3 149 98 150
3 151 150 97
3 149 150 151
3 152 99 153
3 155 154 99
3 156 100 157
3 158 101 159
3 160 102 161
3 162 161 101
3 160 161 162
3 163 103 164
3 165 104 166
3 167 166 103
3 165 166 167
3 26 27 7
3 28 27 26
3 28 9 27
3 29 30 10
3 31 30 29
3 31 11 30
3 31 32 11
3 26 32 31
3 26 7 32
3 33 168 169
3 34 170 172
3 172 171 33
3 170 171 172
3 34 173 175
3 173 12 174
3 173 174 175
3 35 36 13
3 37 36 35
3 37 15 36
3 37 38 15
3 39 38 37
3 39 16 38
3 40 41 17
3 42 41 40
3 42 176 178
3 178 177 41
3 176 177 178
3 42 179 180
3 33 181 183
3 183 182 42
3 181 182 183
3 33 184 185
3 43 44 18
3 45 44 43
3 45 20 44
3 46 47 8
3 48 47 46
3 48 21 47
3 48 49 21
3 50 49 48
3 50 22 49
3 51 186 188
3 186 52 187
3 186 187 188
3 53 52 51
3 53 23 52
3 53 54 23
3 43 54 53
3 43 18 54
3 55 56 19
3 57 56 55
3 57 25 56
3 58 59 14
3 189 59 190
3 191 190 58
3 189 190 191
3 193 192 59
3 194 60 195
3 196 195 24
3 194 195 196
3 197 60 198
3 200 199 60
3 61 62 3
3 63 62 61
3 63 8 62
3 27 63 7
3 64 63 27
3 64 8 63
3 64 46 8
3 65 46 64
3 65 5 46
3 30 201 203
3 203 202 10
3 201 202 203
3 205 204 30
3 32 206 208
3 208 207 11
3 206 207 208
3 66 209 211
3 211 210 32
3 209 210 211
3 66 212 213
3 66 214 216
3 214 51 215
3 214 215 216
3 61 51 66
3 61 3 51
3 67 68 4
3 69 68 67
3 69 14 68
3 36 69 13
3 70 69 36
3 70 14 69
3 70 58 14
3 71 58 70
3 71 217 219
3 219 218 58
3 217 218 219
3 71 220 221
3 72 222 224
3 224 223 71
3 222 223 224
3 72 225 226
3 38 72 15
3 73 72 38
3 73 227 229
3 229 228 72
3 227 228 229
3 73 230 231
3 74 232 234
3 234 233 73
3 232 233 234
3 74 235 237
3 235 6 236
3 235 236 237
3 41 238 240
3 240 239 17
3 238 239 240
3 242 241 41
3 75 76 1
3 77 76 75
3 77 19 76
3 44 77 18
3 78 77 44
3 78 19 77
3 78 55 19
3 79 55 78
3 79 4 55
3 62 45 3
3 80 45 62
3 80 20 45
3 47 80 8
3 81 80 47
3 81 20 80
3 81 79 20
3 82 79 81
3 82 4 79
3 82 67 4
3 83 67 82
3 83 13 67
3 49 83 21
3 84 83 49
3 84 13 83
3 84 35 13
3 85 35 84
3 85 2 35
3 52 243 244
3 246 245 52
3 86 247 248
3 86 249 251
3 249 17 250
3 249 250 251
3 54 86 23
3 87 86 54
3 87 17 86
3 87 40 17
3 75 40 87
3 75 1 40
3 88 89 0
3 90 89 88
3 90 24 89
3 252 90 253
3 254 90 255
3 256 24 257
3 258 257 90
3 256 257 258
3 260 259 24
3 261 10 262
3 263 10 264
3 265 29 266
3 267 266 10
3 265 266 267
3 88 268 270
3 268 29 269
3 268 269 270
3 88 0 29
3 76 34 1
3 91 34 76
3 91 12 34
3 56 91 19
3 92 91 56
3 92 12 91
3 92 271 273
3 273 272 12
3 271 272 273
3 93 274 276
3 276 275 92
3 274 275 276
3 93 277 278
3 68 57 4
3 94 57 68
3 94 25 57
3 59 94 14
3 95 94 59
3 95 25 94
3 95 93 25
3 279 93 280
3 281 280 95
3 279 280 281
3 283 282 93
3 89 28 0
3 96 28 89
3 96 9 28
3 60 96 24
3 97 96 60
3 97 9 96
3 97 65 9
3 98 65 97
3 98 5 65
3 284 98 285
3 99 286 288
3 286 98 287
3 286 287 288
3 99 5 98
3 99 50 5
3 289 50 290
3 291 290 99
3 289 290 291
3 292 22 293
3 294 293 50
3 292 293 294
3 295 22 296
3 297 85 298
3 299 298 22
3 297 298 299
3 100 300 302
3 300 85 301
3 300 301 302
3 100 2 85
3 303 100 304
3 101 305 307
3 305 100 306
3 305 306 307
3 101 2 100
3 101 39 2
3 102 39 101
3 102 16 39
3 308 102 309
3 103 310 312
3 310 102 311
3 310 311 312
3 103 16 102
3 103 74 16
3 104 74 103
3 104 6 74
3 313 104 314
3 315 104 316
3 317 6 318
3 319 318 104
3 317 318 319
3 321 320 6
