ply
format ascii 1.0
element vertex 854
property float x
property float y
property float z
element face 785
property list uchar int vertex_index
end_header
3.192894 -40.244576 37.971535
-2.725733 -58.574894 3.758702
-12.098032 -52.460793 -8.529631
-26.266478 -25.451096 -37.110443
4.723461 -25.084797 37.464714
4.971291 -38.953972 30.500929
4.542828 -51.595329 21.361744
3.046612 -52.785965 29.880951
-28.009529 -16.825783 -39.389393
-7.204556 -55.622253 -2.746944
0.476433 -61.371796 11.594064
-27.927532 2.162468 -45.079456
-26.76263 -5.598968 -47.673157
-26.317345 -34.925735 -28.787048
4.017384 -32.92202 37.802658
4.852188 -31.962177 34.206856
4.011803 -39.449402 34.321423
3.978996 -46.022102 30.342216
3.136776 -46.523685 34.175537
-4.916077 -57.096714 0.354098
3.069283 -57.761196 20.812439
3.171631 -56.794361 16.305086
-27.980499 1.216381 -39.354031
-28.075384 -2.942591 -41.884575
-27.301029 -1.538025 -47.074688
-27.699602 -7.075931 -43.360191
-27.002159 -21.094709 -38.589134
-26.379051 -15.631702 -42.871262
-26.212318 -20.168671 -41.322517
5.744793 -23.855164 33.867302
4.983414 -45.614967 26.210052
3.799015 -52.224201 25.787231
2.697853 -58.594971 25.138893
-14.930495 -53.405739 -13.937267
-17.815468 -50.525764 -16.837193
-20.670231 -47.244858 -19.886322
-23.068661 -43.569176 -23.20113
-9.547672 -54.106873 -5.662798
1.536551 -54.141243 7.558913
2.774094 -55.578999 11.804773
-0.862133 -60.026714 7.517542
-29.789589 9.699902 -44.047489
-28.485493 5.5776 -41.954643
-28.657169 7.135633 -47.76437
-27.015734 -11.288547 -43.628368
-26.524958 -9.998066 -47.006126
-26.486015 -30.39604 -32.882183
-24.766016 -39.499645 -26.851711
3.630524 -36.634125 37.913872
4.022568 -36.154709 36.117287
3.617298 -39.798775 36.159004
3.588432 -43.020531 34.285912
3.17057 -43.358307 36.134548
-1.590036 -55.605217 3.726772
-2.804085 -54.867855 1.987303
-3.79657 -57.835354 2.013212
2.343479 -60.747829 20.512161
2.330906 -60.249744 18.306818
-28.228451 -3.257931 -39.149162
-28.372526 -5.475022 -40.161983
-27.941553 -5.003894 -42.774521
-28.346262 -7.652832 -40.918274
-26.564693 -23.247139 -37.931919
-26.323151 -20.593979 -40.070599
-26.18224 -22.844746 -39.22897
5.066624 -20.935589 37.236294
5.579422 -20.19132 35.453407
5.184925 -24.41667 35.697449
4.912598 -35.471199 32.419441
5.403187 -31.612131 32.331345
5.512562 -35.219231 30.469389
5.007366 -42.352409 28.433537
3.514465 -49.426018 30.147629
3.927025 -49.192596 28.134949
3.42997 -52.50161 27.873001
3.252007 -55.431549 25.479147
2.932961 -55.770447 27.554127
-13.626623 -54.702038 -12.513807
-19.276432 -48.935349 -18.335686
-5.497156 -53.468632 -1.221449
-6.919718 -52.803123 -2.727253
-8.378117 -52.145844 -4.194954
-8.362408 -54.874657 -4.219353
2.00246 -59.142323 13.872629
3.058254 -56.22044 14.038893
1.640368 -58.511406 11.691381
1.109482 -57.828251 9.566748
-0.121536 -60.717319 9.521282
-2.177269 -62.89238 7.560797
-30.33474 10.830856 -41.946381
-29.410162 9.101324 -41.142296
-28.070147 1.514887 -42.221172
-28.152437 3.40988 -40.700241
-28.224136 3.894108 -43.624149
-28.592781 6.231283 -44.903111
-28.164932 4.682693 -46.504719
-27.768871 3.013121 -47.814533
-27.009157 -3.523916 -47.547676
-27.161047 -0.722788 -49.36792
-28.436638 -14.670008 -39.497494
-27.844893 -11.949633 -41.588413
-27.444414 -14.089341 -41.525715
-26.33606 -12.820488 -44.961838
-26.479038 -32.716007 -30.811195
-24.011345 -41.584229 -24.983604
4.375984 -29.078552 37.651333
4.793427 -28.48378 35.88324
4.408573 -32.391846 36.022694
4.427391 -35.774033 34.29216
4.445866 -39.176422 32.444042
4.460293 -42.543579 30.459442
3.998901 -42.75679 32.401527
3.556946 -46.248154 32.285236
3.100796 -49.685669 32.0914
-4.117855 -54.1549 0.343363
-6.056721 -56.360298 -1.227999
3.792229 -54.712078 21.106747
4.003418 -54.287991 18.826141
3.162205 -57.303654 18.571945
2.223469 -59.71925 16.085974
0.935099 -61.9869 13.721338
-27.922033 -0.981041 -37.936024
-28.088055 -0.876537 -40.723076
-27.911146 -0.389023 -43.530197
-27.613853 0.356262 -46.245728
-27.682878 -2.325924 -44.556808
-27.400204 -4.310583 -45.260281
-27.087296 -6.350342 -45.630344
-27.508276 -18.961979 -39.079216
-27.015409 -16.235132 -41.234402
-26.620432 -18.398113 -40.742607
-26.212324 -17.869963 -42.185314
-4.001715 -61.545902 3.861216
-4.967661 -60.842754 2.121093
6.193417 -19.559534 33.590267
5.29298 -27.991835 34.067577
5.909702 -27.582775 32.176582
4.848518 -48.703125 23.841537
4.448448 -45.820713 28.323843
4.370682 -48.960953 26.036129
4.173054 -51.930664 23.615986
3.535835 -55.085796 23.32888
2.914124 -58.185394 23.00584
-28.638723 -19.48041 -37.239086
-28.068752 -21.603767 -36.914513
-27.448702 -23.704273 -36.429131
-26.862255 -25.81295 -35.788342
-12.416754 -54.148079 -9.886328
-13.497885 -51.555553 -9.981915
-13.652016 -53.084499 -11.324686
-15.006043 -51.941681 -12.783915
-16.34609 -52.015327 -15.375389
-17.928112 -49.379993 -15.787994
-19.395203 -47.947449 -17.345436
-20.794205 -46.409142 -18.949848
-22.076759 -44.763977 -20.609241
-23.203819 -43.011429 -22.330662
-21.946938 -45.455872 -21.504185
4.303017 -25.87068 39.186714
3.968147 -29.788769 39.384178
3.598518 -33.566368 39.553596
-10.785254 -53.306652 -7.094368
-5.922642 -60.120296 0.454003
-9.424667 -56.963039 -5.614506
-10.324188 -56.07851 -7.041925
-11.311312 -55.142891 -8.461853
2.66658 -46.868809 36.032234
2.64286 -49.991501 33.986065
2.615616 -53.095848 31.82575
2.55574 -56.119282 29.559422
0.554346 -53.391579 5.595778
-0.513987 -56.356312 5.571238
4.125084 -53.794914 16.510841
2.275703 -54.879253 9.635195
0.391745 -57.103966 7.520981
-1.737247 -59.308796 5.594224
-3.059376 -62.229729 5.674938
-27.7647 3.364197 -37.867695
-28.155544 5.329084 -39.060581
-28.692259 7.252419 -40.163712
-29.020571 7.688334 -43.085972
-29.211161 8.487459 -46.01429
-27.428381 1.210726 -48.778114
-28.160553 -9.807163 -41.392982
-27.377373 -9.168658 -43.638409
-26.777761 -8.447954 -45.68206
-26.664787 -13.440847 -43.361515
-26.512529 -10.604302 -45.446762
-26.590534 -7.758487 -47.479622
-27.1364 -28.280264 -33.660038
-26.392595 -27.971813 -34.987808
-24.147671 -41.150841 -24.119114
-24.893261 -39.181442 -25.976849
-25.439568 -37.102962 -27.902828
-25.801058 -34.916367 -29.892227
-26.008743 -32.624413 -31.935707
-26.109852 -30.231995 -34.018787
1.908173 -61.933994 19.289741
1.955215 -62.204535 20.37858
-28.559807 -6.721754 -39.271507
-28.404277 -5.544097 -38.839456
-28.546675 -7.810659 -39.649653
-28.359394 -6.563927 -40.540128
-28.559807 -6.721754 -39.271507
-26.255094 -25.315171 -37.666092
-26.212975 -24.011996 -38.725355
-26.224359 -24.147921 -38.169706
-12.565774 -51.253052 -8.543579
-11.762379 -51.623524 -7.811459
5.286341 -38.852711 29.482042
5.556976 -36.98534 29.466273
5.241926 -37.086602 30.485159
4.989329 -40.653191 29.467233
5.304379 -40.551929 28.448346
5.286341 -38.852711 29.482042
4.704201 -51.394829 20.200749
4.934036 -49.99319 21.457991
-0.45523 -62.451723 10.555065
-0.754214 -62.124485 9.518674
0.177449 -61.044558 10.557673
-29.118024 9.034461 -39.745854
-29.566612 9.81642 -40.152279
-26.872273 -4.188415 -48.628353
-26.995537 -3.150888 -48.565613
-26.885894 -4.561442 -47.610416
-26.834669 -5.270673 -48.560254
-26.872273 -4.188415 -48.628353
-26.824351 -33.906932 -29.149777
-26.732328 -34.970581 -28.148616
-26.398191 -33.820871 -29.799121
-26.905197 -32.802068 -30.16185
-26.824351 -33.906932 -29.149777
1.743756 -61.142817 15.985847
2.277188 -59.984497 17.196396
1.797474 -61.408063 17.096269
1.099571 -62.276641 14.803529
1.579284 -60.853075 14.903656
1.743756 -61.142817 15.985847
0.38701 -63.364048 13.667894
1.099571 -62.276641 14.803529
-27.923184 -2.074406 -37.199391
-27.584339 -0.796055 -36.615744
-26.314558 -18.807223 -42.348506
-26.314561 -17.657869 -42.779905
-26.212321 -19.019317 -41.753915
-26.474158 -20.018546 -41.820892
-26.314558 -18.807223 -42.348506
-5.125962 -62.702011 3.090269
-4.676991 -63.016634 3.95102
6.080002 -23.618664 32.905733
6.304314 -21.470849 32.767215
5.969105 -21.707349 33.728785
5.99081 -29.448906 31.27027
5.656445 -29.597453 32.253963
5.737552 -31.463584 31.347651
6.269039 -27.407211 31.177143
5.99081 -29.448906 31.27027
5.272261 -45.494511 25.100314
5.308661 -43.883243 26.256018
4.915966 -47.159046 25.025794
5.204813 -47.03859 23.916056
5.272261 -45.494511 25.100314
2.482506 -59.912239 23.910642
2.590642 -59.707451 22.844115
2.805988 -58.390183 24.072367
-28.944304 -20.760948 -36.168495
-29.172304 -19.673851 -36.260633
-28.659318 -21.822626 -36.006208
-28.353738 -20.542088 -37.076799
-28.944304 -20.760948 -36.168495
-27.663081 -24.959752 -35.35601
-28.031003 -23.926474 -35.595376
-27.369858 -26.014091 -35.035616
-27.155479 -24.758612 -36.108736
-27.663081 -24.959752 -35.35601
-13.065574 -54.498255 -11.212198
-13.034385 -53.616289 -10.605507
-12.447943 -55.030045 -10.493019
-15.688754 -52.057659 -14.103507
-15.726529 -51.32563 -13.526831
-14.968269 -52.67371 -13.360591
-17.080779 -51.270545 -16.106291
-16.365508 -52.74834 -15.807875
-17.100197 -52.003559 -16.538776
4.071199 -26.324016 40.024105
4.229484 -24.330687 39.908833
3.903765 -28.283061 40.122837
4.135582 -27.829724 39.285446
4.071199 -26.324016 40.024105
3.335171 -33.948918 40.40866
3.540786 -32.092836 40.313859
3.386186 -35.396442 39.618972
3.335171 -33.948918 40.40866
-9.712402 -52.793395 -5.653571
-9.127624 -51.81288 -4.919649
-8.962895 -53.126358 -4.928876
-10.166463 -53.706762 -6.378583
-10.331193 -52.393284 -6.369356
-9.712402 -52.793395 -5.653571
-6.499926 -61.657223 0.55546
-5.445151 -60.481525 1.287548
-6.022436 -62.018451 1.389005
-9.470667 -58.501534 -5.529841
-8.99778 -57.383188 -4.889974
-10.521405 -57.09272 -7.663395
-10.197661 -57.591566 -6.957389
-11.014967 -56.62491 -8.373359
-10.81775 -55.610701 -7.751889
-10.521405 -57.09272 -7.663395
-11.411184 -56.093663 -9.076667
-11.014967 -56.62491 -8.373359
2.387672 -47.084124 36.949804
2.676443 -45.328642 36.995899
2.375579 -51.718571 33.856054
2.374867 -50.175503 34.918036
2.361956 -53.270744 32.775897
2.629238 -51.543674 32.905907
2.375579 -51.718571 33.856054
2.292116 -57.772278 29.386806
2.326874 -56.304675 30.533936
2.481667 -57.56214 28.383125
2.292116 -57.772278 29.386806
1.045449 -53.766411 6.577345
1.538148 -52.269016 6.607733
2.02925 -52.643849 7.589301
3.434508 -54.401267 12.999395
3.576588 -54.721987 14.116454
2.916174 -55.89972 12.921833
3.310924 -54.0784 11.859828
3.434508 -54.401267 12.999395
2.524898 -55.229126 10.719984
3.061729 -53.728527 10.775039
3.310924 -54.0784 11.859828
-3.301179 -63.991417 6.691093
-2.847064 -64.283837 7.611717
-30.300838 10.629408 -44.41317
-30.573413 11.194885 -43.362616
-30.062165 10.265379 -42.996935
-29.946976 10.156757 -45.473354
-30.300838 10.629408 -44.41317
-27.872599 2.290289 -38.610863
-27.62107 2.371945 -37.237423
-27.728969 1.298037 -37.980591
-29.04409 8.306508 -48.283034
-29.321086 8.982421 -47.407994
-28.934165 7.811546 -46.88933
-28.757936 7.622478 -49.090173
-29.04409 8.306508 -48.283034
-27.355932 0.647571 -50.211857
-27.297161 -0.372629 -50.375538
-28.44513 -11.144945 -40.385115
-28.501579 -10.030112 -40.200085
-26.73894 -8.601646 -48.00138
-26.771729 -7.481856 -48.238129
-26.557746 -8.878277 -47.242874
-14.095779 -50.396921 -10.016172
-14.238906 -51.06635 -10.721923
-26.811207 -29.338152 -33.27111
-27.22475 -29.460606 -32.612131
-26.899557 -30.518494 -32.223203
-25.778863 -34.972994 -30.352825
-25.570441 -36.115433 -29.345672
-25.882706 -33.827017 -31.374565
-25.904901 -33.77039 -30.913967
-25.778863 -34.972994 -30.352825
-26.201847 -30.205412 -34.492012
-26.083276 -31.440329 -33.447654
-26.137524 -28.989306 -35.070349
-26.201847 -30.205412 -34.492012
-2.197061 -55.236536 2.857038
-1.726479 -53.762609 2.870131
-1.119454 -54.131291 3.739866
1.901887 -61.684951 18.18707
2.337193 -60.498787 19.409489
1.908173 -61.933994 19.289741
1.797474 -61.408063 17.096269
1.901887 -61.684951 18.18707
-28.33224 -4.435551 -38.333046
-28.076393 -3.212852 -37.80596
-28.300489 -4.366477 -39.655572
-28.33224 -4.435551 -38.333046
-28.404277 -5.544097 -38.839456
-26.298235 -22.695223 -39.761612
-26.313274 -21.357185 -40.808385
-26.197279 -21.506709 -40.275743
-26.298235 -22.695223 -39.761612
-26.212975 -24.011996 -38.725355
5.323023 -20.563454 36.34485
5.49056 -18.415635 36.201147
5.234161 -18.787769 37.092591
5.79224 -33.267134 30.416674
5.737552 -31.463584 31.347651
5.457874 -33.415681 31.400367
5.863018 -35.10326 29.440736
5.79224 -33.267134 30.416674
5.863018 -35.10326 29.440736
5.556976 -36.98534 29.466273
5.320636 -42.251964 27.367761
5.304379 -40.551929 28.448346
4.99539 -43.983688 27.321795
5.308661 -43.883243 26.256018
5.320636 -42.251964 27.367761
-13.018403 -56.253225 -12.315786
-13.052878 -55.307024 -11.806758
-13.597497 -55.581793 -13.003775
-13.018403 -56.253225 -12.315786
-14.249433 -54.933644 -13.715505
-14.278559 -54.053888 -13.225537
-13.597497 -55.581793 -13.003775
-17.864441 -51.181551 -17.235974
-17.100197 -52.003559 -16.538776
-18.594923 -50.386343 -17.98522
-18.54595 -49.730557 -17.586439
-17.864441 -51.181551 -17.235974
-19.352759 -49.514119 -18.703081
-18.594923 -50.386343 -17.98522
-20.049659 -48.668873 -19.4784
-19.973332 -48.090103 -19.111004
-19.352759 -49.514119 -18.703081
-20.769924 -47.748646 -20.229056
-20.049659 -48.668873 -19.4784
-5.332759 -52.090521 -1.193693
-4.525528 -52.390243 -0.414563
-6.04404 -51.757767 -1.946595
-5.332759 -52.090521 -1.193693
-6.208437 -53.135877 -1.974351
-6.883734 -51.477092 -2.701245
-6.04404 -51.757767 -1.946595
-7.648917 -52.474483 -3.461104
-7.612933 -51.148453 -3.435096
-6.883734 -51.477092 -2.701245
2.434245 -53.008488 8.635842
2.02925 -52.643849 7.589301
-1.78208 -63.212015 8.538431
-1.149402 -61.80485 8.54104
-0.754214 -62.124485 9.518674
-2.847064 -64.283837 7.611717
-1.78208 -63.212015 8.538431
-30.0289 10.681186 -40.554322
-30.5622 11.393757 -40.869053
-29.872451 9.96609 -41.544339
-30.0289 10.681186 -40.554322
-29.566612 9.81642 -40.152279
-28.17044 5.146609 -47.863905
-28.416559 6.373079 -48.49373
-28.411051 5.909163 -47.134545
-27.97241 4.311823 -48.518812
-28.17044 5.146609 -47.863905
-27.966901 3.847907 -47.159626
-27.78492 3.457508 -49.073358
-27.97241 4.311823 -48.518812
-27.071481 -1.750325 -49.475735
-27.085102 -2.123352 -48.457798
-26.995537 -3.150888 -48.565613
-27.297161 -0.372629 -50.375538
-27.071481 -1.750325 -49.475735
-28.140766 -13.309821 -40.542954
-28.287301 -12.216181 -40.48283
-28.583173 -13.576368 -39.437371
-26.313901 -13.959869 -44.611931
-26.357556 -14.226095 -43.91655
-26.335397 -15.365476 -43.566643
-26.466766 -12.56764 -45.627442
-26.313901 -13.959869 -44.611931
-26.561216 -11.156429 -46.649586
-26.430509 -11.409277 -45.983982
-26.466766 -12.56764 -45.627442
-26.831524 -9.777994 -47.640636
-26.561216 -11.156429 -46.649586
-26.896068 -31.678478 -31.18771
-26.905197 -32.802068 -30.16185
-26.482526 -31.556023 -31.846689
-26.899557 -30.518494 -32.223203
-26.896068 -31.678478 -31.18771
-23.675358 -42.940208 -24.416735
-23.540003 -42.576702 -24.092367
-23.204016 -43.932682 -23.525498
-24.162875 -41.882575 -25.314579
-23.675358 -42.940208 -24.416735
-24.54021 -40.840283 -26.248632
-24.38868 -40.541937 -25.917658
-24.162875 -41.882575 -25.314579
-2.418849 -53.41403 2.005745
-1.726479 -53.762609 2.870131
-3.075734 -53.057552 1.183775
-2.418849 -53.41403 2.005745
-3.46097 -54.511377 1.165333
-3.835877 -52.733378 0.367843
-3.075734 -53.057552 1.183775
-4.807505 -53.811766 -0.439043
-4.525528 -52.390243 -0.414563
-3.835877 -52.733378 0.367843
0.112268 -63.066944 12.628879
-0.117065 -62.759392 11.565242
0.705766 -61.679348 12.657701
0.112268 -63.066944 12.628879
0.38701 -63.364048 13.667894
-27.699737 0.199326 -37.271588
-27.584339 -0.796055 -36.615744
-27.951266 0.11767 -38.645027
-27.728969 1.298037 -37.980591
-27.699737 0.199326 -37.271588
-28.075242 -2.119486 -38.542593
-27.923184 -2.074406 -37.199391
-28.076393 -3.212852 -37.80596
-26.252033 -16.484607 -43.223669
-26.335397 -15.365476 -43.566643
-26.295687 -16.750833 -42.528288
-26.252033 -16.484607 -43.223669
-26.314561 -17.657869 -42.779905
-26.474158 -20.018546 -41.820892
-26.313274 -21.357185 -40.808385
-26.140303 -35.97314 -27.801752
-26.732328 -34.970581 -28.148616
-5.608935 -62.350437 2.220207
-4.484688 -61.194328 2.991155
-5.125962 -62.702011 3.090269
-6.022436 -62.018451 1.389005
-5.608935 -62.350437 2.220207
5.771902 -18.00697 35.291984
5.49056 -18.415635 36.201147
6.0789 -17.691077 34.360414
5.771902 -18.00697 35.291984
5.88642 -19.875427 34.521837
6.406645 -17.342748 33.402405
6.0789 -17.691077 34.360414
6.54607 -19.292116 32.603387
6.406645 -17.342748 33.402405
6.54607 -19.292116 32.603387
6.304314 -21.470849 32.767215
6.162457 -25.48247 32.060373
6.080002 -23.618664 32.905733
5.827248 -25.71897 33.021942
6.162457 -25.48247 32.060373
6.269039 -27.407211 31.177143
5.086882 -48.547089 22.697887
5.204813 -47.03859 23.916056
4.695673 -50.149227 22.601641
4.934036 -49.99319 21.457991
5.086882 -48.547089 22.697887
2.305319 -60.988668 21.597276
2.628801 -59.466611 21.759
2.590642 -59.707451 22.844115
1.955215 -62.204535 20.37858
2.305319 -60.988668 21.597276
-28.888618 -14.878448 -38.416668
-28.583173 -13.576368 -39.437371
-28.759932 -15.991497 -38.442231
-28.888618 -14.878448 -38.416668
-28.546378 -17.069384 -38.38818
-28.223084 -15.747896 -39.443444
-28.759932 -15.991497 -38.442231
-28.860975 -18.396698 -37.313026
-29.172304 -19.673851 -36.260633
-28.324126 -18.153097 -38.314239
-28.546378 -17.069384 -38.38818
-28.860975 -18.396698 -37.313026
-28.341028 -22.876221 -35.838066
-28.659318 -21.822626 -36.006208
-27.758727 -22.65402 -36.671822
-28.341028 -22.876221 -35.838066
-28.031003 -23.926474 -35.595376
-14.315972 -51.830824 -11.393308
-14.238906 -51.06635 -10.721923
-13.57495 -52.320026 -10.653301
-13.639319 -53.893269 -11.919246
-13.065574 -54.498255 -11.212198
-13.052878 -55.307024 -11.806758
-14.992985 -51.259415 -12.122923
-14.315972 -51.830824 -11.393308
-14.32903 -52.51309 -12.054301
-15.763691 -50.727124 -12.880805
-14.992985 -51.259415 -12.122923
-15.763691 -50.727124 -12.880805
-15.726529 -51.32563 -13.526831
-14.921915 -54.214042 -14.401273
-14.249433 -54.933644 -13.715505
-15.629713 -53.518836 -15.120334
-16.365508 -52.74834 -15.807875
-15.638293 -52.710533 -14.656328
-14.921915 -54.214042 -14.401273
-15.629713 -53.518836 -15.120334
-16.396552 -51.362453 -14.822568
-15.688754 -52.057659 -14.103507
-15.638293 -52.710533 -14.656328
-17.187563 -50.044786 -15.028871
-16.396552 -51.362453 -14.822568
-17.137101 -50.69766 -15.581691
-18.006293 -48.865267 -15.161427
-17.187563 -50.044786 -15.028871
-18.775402 -48.231133 -15.962619
-18.006293 -48.865267 -15.161427
-19.508947 -47.51486 -16.74134
-18.775402 -48.231133 -15.962619
-18.661657 -48.663721 -16.566715
-20.241043 -46.824543 -17.566448
-19.508947 -47.51486 -16.74134
-20.940545 -46.05539 -18.368654
-20.241043 -46.824543 -17.566448
-20.094704 -47.178296 -18.147642
-21.612599 -45.306929 -19.218643
-20.940545 -46.05539 -18.368654
-22.253875 -44.484347 -20.04834
-21.612599 -45.306929 -19.218643
-21.435482 -45.586559 -19.779545
-22.846252 -43.676552 -20.924011
-22.253875 -44.484347 -20.04834
-22.640289 -43.887703 -21.469952
-23.409782 -42.800278 -21.784721
-22.846252 -43.676552 -20.924011
-21.408278 -46.854153 -21.037987
-21.308585 -46.350365 -20.695253
-20.769924 -47.748646 -20.229056
-22.065878 -45.887794 -21.832167
-21.408278 -46.854153 -21.037987
-22.626739 -44.944446 -22.680639
-22.507799 -44.512524 -22.352657
-22.065878 -45.887794 -21.832167
-23.204016 -43.932682 -23.525498
-22.626739 -44.944446 -22.680639
4.99016 -19.26036 37.965079
5.234161 -18.787769 37.092591
4.841738 -21.368618 38.098524
4.99016 -19.26036 37.965079
4.670157 -23.443222 38.212734
4.895043 -23.010193 37.350504
4.841738 -21.368618 38.098524
4.459934 -23.836163 39.073734
4.229484 -24.330687 39.908833
4.513239 -25.477739 38.325714
4.670157 -23.443222 38.212734
4.459934 -23.836163 39.073734
3.725601 -30.204037 40.229151
3.903765 -28.283061 40.122837
3.783333 -31.677568 39.468887
3.725601 -30.204037 40.229151
3.540786 -32.092836 40.313859
3.402189 -36.930321 38.79911
3.614521 -35.100246 38.733734
3.386186 -35.396442 39.618972
3.183375 -38.735546 38.827942
3.411709 -38.439351 37.942704
3.402189 -36.930321 38.79911
-8.477435 -50.877232 -4.176604
-7.612933 -51.148453 -3.435096
-8.477435 -50.877232 -4.176604
-9.127624 -51.81288 -4.919649
-11.105991 -52.046453 -7.093828
-10.331193 -52.393284 -6.369356
-11.441643 -52.883723 -7.812
-11.762379 -51.623524 -7.811459
-11.105991 -52.046453 -7.093828
-6.865036 -61.303593 -0.246225
-6.499926 -61.657223 0.55546
-6.382606 -59.748198 -0.344886
-6.865036 -61.303593 -0.246225
-5.879323 -58.236407 -0.394839
-5.419359 -58.608505 0.40405
-6.382606 -59.748198 -0.344886
-6.449645 -57.868199 -1.185887
-5.486399 -56.728506 -0.436951
-5.879323 -58.236407 -0.394839
-6.888736 -57.482985 -1.953916
-6.449645 -57.868199 -1.185887
-7.462654 -57.113962 -2.713388
-6.630638 -55.991276 -1.987472
-6.888736 -57.482985 -1.953916
-7.887724 -56.712795 -3.456193
-7.462654 -57.113962 -2.713388
-8.46665 -56.338997 -4.192398
-7.783482 -55.248455 -3.483148
-7.887724 -56.712795 -3.456193
-8.893538 -55.918848 -4.91693
-8.46665 -56.338997 -4.192398
-8.99778 -57.383188 -4.889974
-9.747901 -58.033831 -6.24368
-9.470667 -58.501534 -5.529841
-9.874427 -56.520775 -6.328216
-9.747901 -58.033831 -6.24368
-10.197661 -57.591566 -6.957389
-11.963905 -55.596257 -9.788905
-11.864033 -54.645485 -9.174091
-11.411184 -56.093663 -9.076667
-12.447943 -55.030045 -10.493019
-11.963905 -55.596257 -9.788905
2.93403 -40.522782 38.86538
3.183375 -38.735546 38.827942
2.9396 -42.016526 37.96555
2.93403 -40.522782 38.86538
2.928438 -43.573391 37.047056
3.181732 -41.801442 37.053042
2.9396 -42.016526 37.96555
2.918575 -45.113558 36.083391
2.928438 -43.573391 37.047056
2.676443 -45.328642 36.995899
2.386726 -48.614157 35.94112
2.387672 -47.084124 36.949804
2.65472 -48.430155 35.00915
2.386726 -48.614157 35.94112
2.374867 -50.175503 34.918036
2.356813 -54.792957 31.6671
2.361956 -53.270744 32.775897
2.585678 -54.607565 30.692586
2.356813 -54.792957 31.6671
2.326874 -56.304675 30.533936
2.670277 -57.387722 27.380478
2.744351 -55.944864 28.556775
2.481667 -57.56214 28.383125
2.552723 -58.799984 26.172861
2.815407 -57.182709 26.34651
2.670277 -57.387722 27.380478
2.397709 -60.151626 24.971255
2.552723 -58.799984 26.172861
2.482506 -59.912239 23.910642
2.397709 -60.151626 24.971255
0.988802 -51.907883 5.62473
1.538148 -52.269016 6.607733
-0.047263 -53.024472 4.674369
0.988802 -51.907883 5.62473
-0.517845 -54.498398 4.661275
-1.119454 -54.131291 3.739866
-0.047263 -53.024472 4.674369
4.434496 -52.741159 18.932947
4.704201 -51.394829 20.200749
4.273123 -52.94166 20.093943
4.495329 -52.494621 17.775297
4.434496 -52.741159 18.932947
4.064251 -54.041452 17.668491
4.598289 -52.253137 16.594904
4.495329 -52.494621 17.775297
4.110003 -53.509224 15.352428
3.591669 -55.007677 15.274867
3.576588 -54.721987 14.116454
4.598289 -52.253137 16.594904
4.110003 -53.509224 15.352428
2.803821 -53.377493 9.673983
3.061729 -53.728527 10.775039
1.906127 -54.510248 8.597054
2.434245 -53.008488 8.635842
2.803821 -53.377493 9.673983
-4.205821 -63.358548 4.857881
-4.676991 -63.016634 3.95102
-3.530545 -61.887816 4.768077
-3.742233 -63.660091 5.748164
-2.618322 -62.561054 6.617868
-3.301179 -63.991417 6.691093
-4.205821 -63.358548 4.857881
-3.742233 -63.660091 5.748164
-0.45523 -62.451723 10.555065
-0.117065 -62.759392 11.565242
-30.906277 11.607903 -42.230576
-30.5622 11.393757 -40.869053
-30.906277 11.607903 -42.230576
-30.573413 11.194885 -43.362616
-27.347459 3.606463 -36.566601
-27.62107 2.371945 -37.237423
-27.612422 4.481009 -37.11829
-27.347459 3.606463 -36.566601
-27.807844 5.463453 -37.714733
-27.612422 4.481009 -37.11829
-27.960122 4.34664 -38.464138
-28.118108 6.320323 -38.232973
-27.807844 5.463453 -37.714733
-28.386466 7.281991 -38.784538
-28.118108 6.320323 -38.232973
-28.423901 6.290751 -39.612146
-28.759073 8.110008 -39.256562
-28.386466 7.281991 -38.784538
-29.05121 8.176872 -40.653004
-29.118024 9.034461 -39.745854
-28.759073 8.110008 -39.256562
-29.657763 9.550535 -46.456755
-29.946976 10.156757 -45.473354
-29.500375 9.09368 -45.03089
-29.657763 9.550535 -46.456755
-29.321086 8.982421 -47.407994
-28.757936 7.622478 -49.090173
-28.416559 6.373079 -48.49373
-27.614676 2.55631 -49.555149
-27.78492 3.457508 -49.073358
-27.598626 2.111924 -48.296323
-27.489598 1.614327 -49.916954
-27.294714 0.243969 -49.073017
-27.355932 0.647571 -50.211857
-27.614676 2.55631 -49.555149
-27.489598 1.614327 -49.916954
-28.594433 -8.952946 -39.96273
-28.546675 -7.810659 -39.649653
-28.253408 -8.729997 -41.155628
-28.594433 -8.952946 -39.96273
-28.501579 -10.030112 -40.200085
-28.002723 -10.878398 -41.490698
-28.44513 -11.144945 -40.385115
-28.287301 -12.216181 -40.48283
-26.748621 -6.350433 -48.463486
-26.834669 -5.270673 -48.560254
-26.676582 -6.678727 -47.57639
-26.748621 -6.350433 -48.463486
-26.771729 -7.481856 -48.238129
-26.73894 -8.601646 -48.00138
-26.831524 -9.777994 -47.640636
-13.265701 -50.800432 -9.269721
-12.565774 -51.253052 -8.543579
-12.797959 -52.008173 -9.255773
-13.265701 -50.800432 -9.269721
-14.095779 -50.396921 -10.016172
-27.67294 -28.449692 -32.914301
-27.22475 -29.460606 -32.612131
-27.50693 -27.247747 -33.971464
-27.67294 -28.449692 -32.914301
-26.999327 -27.046607 -34.72419
-27.369858 -26.014091 -35.035616
-27.50693 -27.247747 -33.971464
-23.907311 -41.932438 -22.686861
-23.409782 -42.800278 -21.784721
-24.379236 -41.002144 -23.581087
-23.907311 -41.932438 -22.686861
-23.675745 -42.081135 -23.224888
-24.77189 -40.07396 -24.510483
-24.379236 -41.002144 -23.581087
-25.144685 -39.08926 -25.439351
-24.77189 -40.07396 -24.510483
-24.520466 -40.166141 -25.047981
-25.428261 -38.100994 -26.396653
-25.144685 -39.08926 -25.439351
-25.701414 -37.061754 -27.359642
-25.428261 -38.100994 -26.396653
-25.166415 -38.142202 -26.939839
-25.878456 -36.014348 -28.344938
-26.140303 -35.97314 -27.801752
-25.701414 -37.061754 -27.359642
-24.937224 -39.735841 -27.19669
-24.54021 -40.840283 -26.248632
-25.05292 -38.407072 -27.825415
-24.937224 -39.735841 -27.19669
-25.389696 -37.208731 -28.350973
-25.102792 -38.301304 -27.37727
-25.05292 -38.407072 -27.825415
-25.620313 -36.009664 -28.897527
-25.389696 -37.208731 -28.350973
-25.570441 -36.115433 -29.345672
-26.032722 -32.636538 -32.406115
-25.882706 -33.827017 -31.374565
-26.059297 -31.428204 -32.977247
-26.032722 -32.636538 -32.406115
-26.083276 -31.440329 -33.447654
-26.278895 -27.859215 -35.554859
-26.251224 -29.101904 -34.503298
-26.137524 -28.989306 -35.070349
-26.215837 -26.598856 -36.616176
-26.329536 -26.711455 -36.049126
-26.278895 -27.859215 -35.554859
-26.255094 -25.315171 -37.666092
-26.215837 -26.598856 -36.616176
3 0 50 48
3 0 52 50
3 1 55 53
3 198 197 56
3 199 59 200
3 201 61 202
3 203 202 59
3 201 202 203
3 3 64 62
3 3 204 206
3 206 205 64
3 204 205 206
3 2 207 208
3 4 67 65
3 5 70 68
3 5 209 211
3 211 210 70
3 209 210 211
3 5 212 214
3 212 71 213
3 212 213 214
3 7 74 72
3 7 76 74
3 9 80 79
3 9 82 80
3 6 215 216
3 10 85 83
3 10 87 85
3 10 217 219
3 219 218 87
3 217 218 219
3 220 90 221
3 11 93 91
3 11 95 93
3 11 96 95
3 12 222 224
3 224 223 97
3 222 223 224
3 12 225 226
3 8 101 99
3 13 227 228
3 13 229 231
3 229 103 230
3 229 230 231
3 14 107 105
3 16 108 49
3 16 109 108
3 16 111 109
3 18 112 51
3 18 113 112
3 19 114 54
3 19 115 114
3 20 118 116
3 232 119 233
3 234 233 57
3 232 233 234
3 235 120 236
3 237 236 119
3 235 236 237
3 239 238 120
3 240 121 241
3 23 122 58
3 23 123 122
3 23 125 123
3 25 126 60
3 25 127 126
3 26 130 128
3 28 131 63
3 28 242 244
3 244 243 131
3 242 243 244
3 28 245 246
3 248 247 132
3 29 134 66
3 29 249 251
3 251 250 134
3 249 250 251
3 15 135 106
3 252 136 253
3 254 253 69
3 252 253 254
3 256 255 136
3 30 257 258
3 30 259 261
3 259 137 260
3 259 260 261
3 17 138 110
3 31 139 73
3 31 140 139
3 31 141 140
3 32 142 75
3 32 262 264
3 264 263 142
3 262 263 264
3 265 143 266
3 267 144 268
3 269 268 143
3 267 268 269
3 270 145 271
3 272 146 273
3 274 273 145
3 272 273 274
3 275 149 276
3 277 276 147
3 275 276 277
3 33 150 77
3 33 278 280
3 280 279 150
3 278 279 280
3 34 281 283
3 281 151 282
3 281 282 283
3 34 152 151
3 34 153 152
3 35 154 78
3 35 155 154
3 35 157 155
3 284 158 285
3 286 159 287
3 288 287 158
3 286 287 288
3 289 160 290
3 292 291 160
3 37 293 295
3 295 294 81
3 293 294 295
3 37 296 298
3 296 161 297
3 296 297 298
3 299 162 300
3 301 300 133
3 299 300 301
3 302 163 303
3 304 164 305
3 306 165 307
3 308 307 164
3 306 307 308
3 310 309 165
3 311 166 312
3 313 167 314
3 315 168 316
3 317 316 167
3 315 316 317
3 318 169 319
3 321 320 169
3 38 322 324
3 322 170 323
3 322 323 324
3 38 171 170
3 21 172 117
3 39 325 327
3 327 326 84
3 325 326 327
3 39 328 329
3 39 330 332
3 330 173 331
3 330 331 332
3 40 174 86
3 40 175 174
3 40 176 175
3 334 333 88
3 41 335 337
3 337 336 89
3 335 336 337
3 41 338 339
3 22 340 342
3 340 177 341
3 340 341 342
3 42 178 92
3 42 179 178
3 42 180 179
3 43 181 94
3 43 343 345
3 345 344 181
3 343 344 345
3 43 346 347
3 24 182 124
3 349 348 98
3 350 183 351
3 44 184 100
3 44 185 184
3 27 186 129
3 45 187 102
3 45 188 187
3 45 352 354
3 354 353 188
3 352 353 354
3 356 355 148
3 46 357 359
3 357 189 358
3 357 358 359
3 46 190 189
3 36 191 156
3 47 192 104
3 47 193 192
3 360 194 361
3 362 195 363
3 364 363 194
3 362 363 364
3 365 196 366
3 368 367 196
3 48 49 14
3 50 49 48
3 50 16 49
3 50 51 16
3 52 51 50
3 52 18 51
3 53 369 371
3 369 54 370
3 369 370 371
3 55 54 53
3 55 19 54
3 56 57 20
3 372 57 373
3 374 373 56
3 372 373 374
3 376 375 57
3 377 58 378
3 59 379 381
3 379 58 380
3 379 380 381
3 59 23 58
3 59 60 23
3 61 60 59
3 61 25 60
3 62 63 26
3 64 63 62
3 64 28 63
3 64 382 384
3 384 383 28
3 382 383 384
3 386 385 64
3 65 387 389
3 387 66 388
3 387 388 389
3 67 66 65
3 67 29 66
3 68 69 15
3 70 69 68
3 70 390 392
3 392 391 69
3 390 391 392
3 70 393 394
3 396 395 70
3 71 397 398
3 71 399 401
3 399 30 400
3 399 400 401
3 72 73 17
3 74 73 72
3 74 31 73
3 74 75 31
3 76 75 74
3 76 32 75
3 402 77 403
3 404 77 405
3 406 33 407
3 408 407 77
3 406 407 408
3 409 34 410
3 411 78 412
3 413 412 34
3 411 412 413
3 414 78 415
3 416 35 417
3 418 417 78
3 416 417 418
3 420 419 35
3 79 421 422
3 80 423 425
3 425 424 79
3 423 424 425
3 80 426 427
3 80 428 430
3 428 81 429
3 428 429 430
3 82 81 80
3 82 37 81
3 431 38 432
3 83 84 21
3 85 84 83
3 85 39 84
3 85 86 39
3 87 86 85
3 87 40 86
3 87 88 40
3 433 88 434
3 435 434 87
3 433 434 435
3 437 436 88
3 438 89 439
3 90 440 442
3 440 89 441
3 440 441 442
3 90 41 89
3 91 92 22
3 93 92 91
3 93 42 92
3 93 94 42
3 95 94 93
3 95 43 94
3 95 443 445
3 445 444 43
3 443 444 445
3 96 446 448
3 448 447 95
3 446 447 448
3 96 449 450
3 97 98 24
3 451 98 452
3 453 452 97
3 451 452 453
3 455 454 98
3 99 456 458
3 456 100 457
3 456 457 458
3 101 100 99
3 101 44 100
3 459 102 460
3 461 460 27
3 459 460 461
3 462 102 463
3 464 45 465
3 466 465 102
3 464 465 466
3 468 467 45
3 103 469 470
3 103 471 473
3 471 46 472
3 471 472 473
3 474 104 475
3 476 475 36
3 474 475 476
3 477 104 478
3 479 47 480
3 481 480 104
3 479 480 481
3 105 106 4
3 107 106 105
3 107 15 106
3 49 107 14
3 108 107 49
3 108 15 107
3 108 68 15
3 109 68 108
3 109 5 68
3 109 110 5
3 111 110 109
3 111 17 110
3 51 111 16
3 112 111 51
3 112 17 111
3 112 72 17
3 113 72 112
3 113 7 72
3 54 482 483
3 114 484 486
3 486 485 54
3 484 485 486
3 114 487 488
3 114 489 491
3 489 79 490
3 489 490 491
3 115 79 114
3 115 9 79
3 116 117 6
3 118 117 116
3 118 21 117
3 57 118 20
3 119 118 57
3 119 21 118
3 119 83 21
3 120 83 119
3 120 10 83
3 120 492 494
3 494 493 10
3 492 493 494
3 496 495 120
3 121 497 498
3 121 499 501
3 499 22 500
3 499 500 501
3 58 502 504
3 502 121 503
3 502 503 504
3 122 121 58
3 122 22 121
3 122 91 22
3 123 91 122
3 123 11 91
3 123 124 11
3 125 124 123
3 125 24 124
3 60 125 23
3 126 125 60
3 126 24 125
3 126 97 24
3 127 97 126
3 127 12 97
3 128 129 8
3 130 129 128
3 130 27 129
3 63 130 26
3 131 130 63
3 131 27 130
3 131 505 507
3 507 506 27
3 505 506 507
3 509 508 131
3 511 510 28
3 512 13 513
3 132 133 1
3 514 133 515
3 516 515 132
3 514 515 516
3 518 517 133
3 66 519 520
3 134 521 523
3 523 522 66
3 521 522 523
3 134 524 525
3 134 526 527
3 529 528 134
3 106 67 4
3 135 67 106
3 135 29 67
3 69 135 15
3 136 135 69
3 136 29 135
3 136 530 532
3 532 531 29
3 530 531 532
3 534 533 136
3 137 535 536
3 137 537 539
3 537 6 538
3 537 538 539
3 110 71 5
3 138 71 110
3 138 30 71
3 73 138 17
3 139 138 73
3 139 30 138
3 139 137 30
3 140 137 139
3 140 6 137
3 140 116 6
3 141 116 140
3 141 20 116
3 75 141 31
3 142 141 75
3 142 20 141
3 142 56 20
3 540 56 541
3 542 541 142
3 540 541 542
3 544 543 56
3 545 99 546
3 547 99 548
3 549 8 550
3 551 550 99
3 549 550 551
3 143 552 553
3 143 554 556
3 554 8 555
3 554 555 556
3 143 128 8
3 144 128 143
3 144 26 128
3 557 144 558
3 145 559 561
3 559 144 560
3 559 560 561
3 145 26 144
3 145 62 26
3 146 62 145
3 146 3 62
3 147 148 2
3 149 148 147
3 149 562 564
3 564 563 148
3 562 563 564
3 77 565 567
3 565 149 566
3 565 566 567
3 150 149 77
3 150 568 570
3 570 569 149
3 568 569 570
3 150 571 572
3 574 573 150
3 575 33 576
3 151 577 578
3 151 579 581
3 579 33 580
3 579 580 581
3 151 582 584
3 584 583 33
3 582 583 584
3 152 585 587
3 587 586 151
3 585 586 587
3 152 588 589
3 152 590 591
3 153 592 594
3 594 593 152
3 592 593 594
3 153 595 596
3 78 153 34
3 154 153 78
3 154 597 599
3 599 598 153
3 597 598 599
3 154 600 601
3 155 602 604
3 604 603 154
3 602 603 604
3 155 605 606
3 155 607 609
3 607 156 608
3 607 608 609
3 157 156 155
3 157 36 156
3 610 157 611
3 612 611 35
3 610 611 612
3 613 157 614
3 615 36 616
3 617 616 157
3 615 616 617
3 619 618 36
3 620 65 621
3 622 65 623
3 624 4 625
3 626 625 65
3 624 625 626
3 158 627 628
3 158 629 631
3 629 4 630
3 629 630 631
3 158 105 4
3 159 105 158
3 159 14 105
3 632 159 633
3 160 634 636
3 634 159 635
3 634 635 636
3 160 14 159
3 160 48 14
3 637 48 638
3 639 638 160
3 637 638 639
3 640 0 641
3 642 641 48
3 640 641 642
3 81 643 644
3 646 645 81
3 161 647 648
3 161 649 651
3 649 2 650
3 649 650 651
3 133 55 1
3 162 55 133
3 162 19 55
3 652 162 653
3 654 162 655
3 656 19 657
3 658 657 162
3 656 657 658
3 659 115 660
3 661 660 19
3 659 660 661
3 662 115 663
3 664 9 665
3 666 665 115
3 664 665 666
3 667 9 668
3 669 82 670
3 671 670 9
3 669 670 671
3 163 672 674
3 672 82 673
3 672 673 674
3 163 37 82
3 675 163 676
3 164 677 679
3 677 163 678
3 677 678 679
3 164 37 163
3 164 161 37
3 165 161 164
3 165 2 161
3 165 147 2
3 680 147 681
3 682 681 165
3 680 681 682
3 684 683 147
3 685 0 686
3 687 0 688
3 689 52 690
3 691 690 0
3 689 690 691
3 166 692 694
3 692 52 693
3 692 693 694
3 166 18 52
3 695 166 696
3 167 697 699
3 697 166 698
3 697 698 699
3 167 18 166
3 167 113 18
3 168 113 167
3 168 7 113
3 700 168 701
3 169 702 704
3 702 168 703
3 702 703 704
3 169 7 168
3 169 76 7
3 705 76 706
3 707 706 169
3 705 706 707
3 708 32 709
3 710 709 76
3 708 709 710
3 711 32 712
3 714 713 32
3 170 715 716
3 170 717 718
3 170 719 721
3 719 53 720
3 719 720 721
3 171 53 170
3 171 1 53
3 117 722 724
3 724 723 6
3 722 723 724
3 172 725 727
3 727 726 117
3 725 726 727
3 172 728 729
3 84 172 21
3 730 172 731
3 732 731 84
3 730 731 732
3 734 733 172
3 173 735 736
3 173 737 739
3 737 38 738
3 737 738 739
3 86 173 39
3 174 173 86
3 174 38 173
3 174 171 38
3 175 171 174
3 175 1 171
3 175 132 1
3 176 132 175
3 176 740 742
3 742 741 132
3 740 741 742
3 88 176 40
3 743 176 744
3 745 744 88
3 743 744 745
3 747 746 176
3 749 748 10
3 89 750 751
3 753 752 89
3 177 754 755
3 177 756 757
3 92 177 22
3 178 177 92
3 178 758 760
3 760 759 177
3 758 759 760
3 178 761 762
3 179 763 765
3 765 764 178
3 763 764 765
3 179 766 767
3 179 768 770
3 768 90 769
3 768 769 770
3 180 90 179
3 180 41 90
3 94 180 42
3 181 180 94
3 181 41 180
3 181 771 773
3 773 772 41
3 771 772 773
3 775 774 181
3 777 776 43
3 124 96 11
3 182 96 124
3 182 778 780
3 780 779 96
3 778 779 780
3 98 182 24
3 781 182 782
3 783 782 98
3 781 782 783
3 785 784 182
3 786 61 787
3 183 788 790
3 788 61 789
3 788 789 790
3 183 25 61
3 100 791 793
3 791 183 792
3 791 792 793
3 184 183 100
3 184 25 183
3 184 127 25
3 185 127 184
3 185 12 127
3 129 101 8
3 186 101 129
3 186 44 101
3 102 186 27
3 187 186 102
3 187 44 186
3 187 185 44
3 188 185 187
3 188 12 185
3 188 794 796
3 796 795 12
3 794 795 796
3 798 797 188
3 800 799 45
3 148 801 803
3 803 802 2
3 801 802 803
3 805 804 148
3 189 806 807
3 189 808 809
3 189 810 812
3 810 146 811
3 810 811 812
3 190 146 189
3 190 3 146
3 156 813 814
3 191 815 817
3 817 816 156
3 815 816 817
3 191 818 819
3 104 191 36
3 192 191 104
3 192 820 822
3 822 821 191
3 820 821 822
3 192 823 824
3 193 825 827
3 827 826 192
3 825 826 827
3 193 828 830
3 828 13 829
3 828 829 830
3 831 47 832
3 833 47 834
3 835 193 836
3 837 836 47
3 835 836 837
3 194 838 840
3 838 193 839
3 838 839 840
3 194 13 193
3 194 103 13
3 195 103 194
3 195 46 103
3 841 195 842
3 196 843 845
3 843 195 844
3 843 844 845
3 196 46 195
3 196 190 46
3 846 190 847
3 848 847 196
3 846 847 848
3 849 3 850
3 851 850 190
3 849 850 851
3 853 852 3
