ply
format ascii 1.0
element vertex 387
property float x
property float y
property float z
element face 410
property list uchar int vertex_index
end_header
33.691959 56.614212 -23.119101
40.666019 45.65435 -10.237114
47.220535 54.726784 -13.422504
28.197561 35.128887 -28.282503
25.680761 47.385567 -27.897837
33.918861 44.344112 -23.644773
41.794807 62.963242 -18.702749
41.055084 51.244164 -19.044291
27.788845 59.200493 -24.671629
23.802834 54.215355 -27.296793
29.471317 52.253166 -25.369967
30.408924 45.937431 -25.962446
34.286232 50.189392 -23.648008
44.71077 64.217583 -15.493031
44.469658 50.284889 -12.244444
44.364254 53.565018 -16.51309
41.613773 48.615288 -15.16765
38.707893 45.933609 -17.840536
38.3894 43.452721 -13.332739
47.92038 59.370064 -13.140818
47.265182 50.726288 -9.000563
24.51651 35.665569 -30.217726
23.015848 29.622494 -31.224421
26.579617 29.575916 -30.009108
22.557625 41.99918 -30.252024
27.059729 41.119434 -28.313986
30.723396 40.053993 -26.048525
37.972618 60.311935 -21.071066
45.483276 58.799431 -16.684042
42.227085 56.903214 -19.389647
38.362106 53.909767 -21.546289
37.473827 48.083733 -21.32102
30.838873 57.930626 -23.841757
28.713238 55.654694 -25.007967
31.546576 54.500702 -24.200903
32.038609 51.231316 -24.531763
34.119934 53.318192 -23.42993
42.603634 48.036148 -11.284437
43.049595 49.595665 -13.746052
41.26543 47.211983 -12.789064
39.963089 46.108566 -14.251642
39.487564 44.687225 -11.789904
38.87109 43.039871 -9.24328
26.444876 35.433441 -29.310087
25.512585 32.595745 -30.096678
27.264812 32.423824 -29.225996
24.803858 50.722832 -27.59041
23.073895 48.079628 -28.913118
21.522522 45.319016 -30.146544
24.022413 44.758968 -29.138945
24.879726 41.567837 -29.299719
26.427195 44.195198 -28.157827
32.351017 45.161896 -24.891676
30.613131 42.969692 -26.078936
32.255772 42.273235 -24.847216
33.546555 41.503277 -23.417707
39.283657 64.992149 -19.403395
37.319633 63.63855 -20.617296
39.974327 61.795662 -19.966043
47.848846 57.020851 -13.480118
46.806335 59.250786 -15.017939
46.592804 56.74295 -15.220121
42.758698 52.531967 -17.833628
43.572968 55.216896 -18.132196
41.834946 54.010468 -19.344133
40.34824 55.519539 -20.505377
39.984276 52.564911 -20.45669
38.063454 50.928001 -21.527998
39.281555 49.747719 -20.19145
37.260448 44.312897 -19.141905
24.461811 26.522747 -31.04624
28.86034 32.145088 -28.224672
24.644741 60.413124 -25.678141
22.694147 57.84285 -27.057398
25.72979 56.771042 -25.944307
26.691277 53.248535 -26.267241
27.505878 49.881882 -26.617239
28.157011 46.675789 -26.936228
30.038334 49.018036 -25.709204
32.300312 48.12838 -24.779345
34.200504 47.214584 -23.727808
43.383354 63.77552 -17.221487
46.061764 52.492554 -12.990051
45.853981 54.303963 -15.047789
44.635525 51.934845 -14.533268
43.139183 51.073418 -15.955599
41.578556 49.939369 -17.274729
39.967213 48.575226 -18.521833
40.163994 47.380447 -16.524488
38.692314 44.765362 -15.682013
23.454456 64.10923 -25.460531
26.72547 62.835365 -24.37702
29.945631 61.47847 -23.489244
33.023781 60.050667 -22.75773
48.464745 54.834641 -11.643148
47.417305 52.735413 -11.32498
45.874989 50.661659 -10.659872
43.983135 48.552231 -9.736996
41.937088 46.320045 -8.678194
22.456692 35.870789 -31.028357
21.639883 32.817039 -31.492228
23.624554 32.709854 -30.848574
24.848589 29.617176 -30.675016
26.149162 26.61097 -30.623907
28.191528 29.444935 -29.221609
21.315281 39.108501 -31.147875
23.545856 38.791344 -30.280909
25.671041 38.472305 -29.355574
27.625319 38.112179 -28.344133
28.650307 43.605366 -27.160036
29.025787 40.623501 -27.247923
29.359486 37.674206 -27.208952
35.208023 61.971947 -21.707701
35.855263 58.566238 -22.095934
46.512215 61.791801 -14.4433
45.316364 61.514122 -16.252768
43.877098 60.884232 -17.826136
45.16571 56.138367 -16.768686
43.950439 58.010071 -18.133043
42.207336 59.906502 -19.173231
40.341255 58.611259 -20.337831
38.330296 57.0467 -21.386751
36.235802 55.266792 -22.395426
36.323334 52.121704 -22.57757
36.119698 49.137619 -22.608183
35.672207 46.279297 -22.46715
38.326935 47.023857 -19.733564
36.686649 45.318504 -20.942461
35.080662 43.477268 -22.169054
40.539232 63.977695 -19.053072
40.159014 65.488957 -18.698549
41.414589 64.474503 -18.348227
24.40472 24.932092 -31.145924
25.214903 25.041622 -31.06851
43.618523 65.406502 -15.917654
44.22506 65.521912 -14.965757
44.047062 63.996552 -16.357259
42.954815 65.185471 -16.781881
43.618523 65.406502 -15.917654
37.874519 42.722084 -14.101145
38.025976 43.378405 -15.275782
38.540857 44.109042 -14.507376
37.738224 42.00143 -12.938913
37.874519 42.722084 -14.101145
24.498287 65.292812 -24.781952
22.8113 65.940064 -25.35421
26.133794 64.65588 -24.240197
25.089963 63.472297 -24.918776
24.498287 65.292812 -24.781952
31.047101 62.521103 -22.928072
29.420676 63.273846 -23.317659
32.586176 61.807201 -22.562314
31.484706 60.764568 -23.123487
31.047101 62.521103 -22.928072
49.027317 54.742981 -10.686792
48.702038 55.91087 -11.604008
47.983738 51.700856 -9.27574
47.949478 50.613853 -8.140536
47.341244 51.730851 -10.162771
48.059799 52.705418 -10.437949
47.983738 51.700856 -9.27574
43.645617 47.608483 -8.430454
44.694494 48.651016 -8.945735
42.622593 46.49239 -7.901053
42.960111 47.436138 -9.207595
43.645617 47.608483 -8.430454
41.561507 45.347574 -7.361366
42.622593 46.49239 -7.901053
28.93759 29.309536 -28.766718
28.525934 30.795012 -28.72314
29.271996 30.659613 -28.26825
22.350241 54.683064 -27.889014
21.795898 56.496811 -27.769316
23.248491 56.029103 -27.177096
21.365434 42.221311 -30.722158
20.847883 43.88123 -30.669418
22.040073 43.659098 -30.199284
21.936453 40.55384 -30.699949
20.744262 40.775972 -31.170084
21.365434 42.221311 -30.722158
30.78505 38.590595 -25.984225
30.103095 37.400701 -26.564438
30.041441 38.864099 -26.628739
47.216297 60.580933 -13.792059
46.992272 61.765411 -13.430231
47.696354 60.554542 -12.77899
36.265367 43.931806 -20.696179
36.973548 44.8157 -20.042183
36.552267 43.429003 -19.795901
35.462374 43.011189 -21.309475
35.883656 44.397886 -21.555757
36.265367 43.931806 -20.696179
34.784087 42.060438 -21.972504
35.462374 43.011189 -21.309475
22.065225 29.633242 -31.441752
21.377243 31.230514 -31.575655
22.327866 31.219766 -31.358325
45.242233 64.260666 -14.508507
44.22506 65.521912 -14.965757
38.705067 43.304485 -11.33819
38.155985 42.687233 -12.109608
38.938482 44.069973 -12.561322
38.39683 42.480808 -10.064878
38.705067 43.304485 -11.33819
39.179327 43.863548 -10.516592
38.140314 41.572599 -8.84162
38.39683 42.480808 -10.064878
47.065479 49.683491 -7.774699
47.949478 50.613853 -8.140536
46.335518 49.738045 -8.577519
47.065479 49.683491 -7.774699
23.416846 51.134563 -28.134515
22.916334 52.880825 -27.987707
24.303346 52.469093 -27.443601
22.551865 49.812962 -28.79587
23.416846 51.134563 -28.134515
23.938876 49.40123 -28.251764
21.750536 48.42501 -29.46035
22.551865 49.812962 -28.79587
22.298209 46.699322 -29.529831
20.974849 47.044704 -30.077063
21.750536 48.42501 -29.46035
32.189335 40.831474 -24.761834
31.423147 39.721853 -25.362488
31.489584 41.163614 -25.447871
32.834727 40.446495 -24.047079
32.189335 40.831474 -24.761834
32.901163 41.888256 -24.132461
33.384953 40.057142 -23.268566
32.834727 40.446495 -24.047079
38.798809 66.544521 -19.031174
40.159014 65.488957 -18.698549
37.84678 65.960964 -19.717574
38.798809 66.544521 -19.031174
38.301645 64.315349 -20.010345
36.864768 65.284165 -20.324524
37.84678 65.960964 -19.717574
37.357107 43.768007 -18.119065
37.98417 45.123253 -18.491221
38.08083 44.578363 -17.46838
36.758003 42.914545 -18.826822
37.357107 43.768007 -18.119065
36.552267 43.429003 -19.795901
36.758003 42.914545 -18.826822
23.580475 26.473807 -31.20253
22.857493 28.02368 -31.291621
23.73883 28.07262 -31.135331
23.580475 26.473807 -31.20253
24.40472 24.932092 -31.145924
29.305506 33.427979 -27.669559
28.528951 33.636988 -28.253588
28.974117 34.919878 -27.698475
29.578819 31.930786 -27.657432
29.305506 33.427979 -27.669559
29.271996 30.659613 -28.26825
29.578819 31.930786 -27.657432
23.669444 59.127987 -26.36777
22.09359 59.699543 -26.967399
23.068886 60.98468 -26.277771
42.208862 64.880642 -17.607596
42.954815 65.185471 -16.781881
42.58908 63.369381 -17.962118
41.414589 64.474503 -18.348227
42.208862 64.880642 -17.607596
38.07304 43.99424 -16.389118
38.08083 44.578363 -17.46838
38.700103 45.349486 -16.761274
38.07304 43.99424 -16.389118
38.025976 43.378405 -15.275782
37.738224 42.00143 -12.938913
38.155985 42.687233 -12.109608
21.831297 64.695305 -26.092771
21.188141 66.526139 -25.986451
22.8113 65.940064 -25.35421
22.473744 62.832733 -26.168966
21.831297 64.695305 -26.092771
24.049599 62.261177 -25.569336
23.068886 60.98468 -26.277771
22.473744 62.832733 -26.168966
27.810596 63.952293 -23.761547
26.133794 64.65588 -24.240197
28.335551 62.156918 -23.933132
27.810596 63.952293 -23.761547
29.420676 63.273846 -23.317659
48.378265 59.277691 -12.110625
47.696354 60.554542 -12.77899
48.429856 58.178581 -12.352843
48.378265 59.277691 -12.110625
48.394089 57.003975 -12.522493
47.884613 58.195458 -13.310468
48.429856 58.178581 -12.352843
48.156796 55.927746 -12.561633
48.394089 57.003975 -12.522493
48.702038 55.91087 -11.604008
48.583519 53.755032 -10.597033
49.027317 54.742981 -10.686792
47.941025 53.785027 -11.484064
48.583519 53.755032 -10.597033
48.059799 52.705418 -10.437949
45.640421 49.705731 -9.407173
46.570086 50.693973 -9.830217
46.335518 49.738045 -8.577519
44.929062 49.606945 -10.198434
45.640421 49.705731 -9.407173
44.694494 48.651016 -8.945735
40.945375 45.093367 -8.151141
40.309841 44.760519 -8.930601
41.301553 45.987198 -9.457654
40.945375 45.093367 -8.151141
41.561507 45.347574 -7.361366
22.048288 34.343914 -31.260292
20.98226 34.455383 -31.62278
21.390664 35.982258 -31.390845
26.058578 25.085733 -30.857343
25.214903 25.041622 -31.06851
25.305487 26.566858 -30.835074
28.726539 27.992781 -29.334524
28.93759 29.309536 -28.766718
27.970018 28.039973 -29.656337
28.726539 27.992781 -29.334524
27.164062 28.105463 -30.050087
27.385573 29.510426 -29.615358
27.970018 28.039973 -29.656337
26.948835 26.62299 -30.357487
26.36439 28.093443 -30.316508
27.164062 28.105463 -30.050087
26.836269 25.178692 -30.732166
26.948835 26.62299 -30.357487
26.058578 25.085733 -30.857343
26.836269 25.178692 -30.732166
21.190437 58.350369 -27.697496
22.09359 59.699543 -26.967399
21.190437 58.350369 -27.697496
21.795898 56.496811 -27.769316
22.350241 54.683064 -27.889014
22.916334 52.880825 -27.987707
20.267221 45.606083 -30.664994
20.974849 47.044704 -30.077063
20.267221 45.606083 -30.664994
20.847883 43.88123 -30.669418
20.18384 39.283441 -31.553764
20.744262 40.775972 -31.170084
20.819958 37.601114 -31.450603
20.18384 39.283441 -31.553764
21.885987 37.489645 -31.088116
21.390664 35.982258 -31.390845
20.819958 37.601114 -31.450603
29.555079 36.192538 -27.161699
28.974117 34.919878 -27.698475
28.778523 36.401546 -27.745728
29.555079 36.192538 -27.161699
30.103095 37.400701 -26.564438
30.78505 38.590595 -25.984225
31.423147 39.721853 -25.362488
35.824509 64.519813 -20.929327
36.864768 65.284165 -20.324524
34.768704 63.686512 -21.47453
35.824509 64.519813 -20.929327
36.263828 62.805249 -21.162498
33.678297 62.767842 -22.0373
34.768704 63.686512 -21.47453
34.115902 61.011307 -22.232715
32.586176 61.807201 -22.562314
33.678297 62.767842 -22.0373
46.142956 63.047775 -13.983642
46.992272 61.765411 -13.430231
45.611492 63.004692 -14.968166
45.242233 64.260666 -14.508507
46.142956 63.047775 -13.983642
34.017033 41.073442 -22.59683
34.313609 42.490273 -22.79338
34.784087 42.060438 -21.972504
33.384953 40.057142 -23.268566
34.017033 41.073442 -22.59683
39.412377 43.45328 -8.433684
39.768555 44.34711 -9.740197
40.309841 44.760519 -8.930601
38.554066 42.070299 -7.979832
39.412377 43.45328 -8.433684
38.140314 41.572599 -8.84162
38.554066 42.070299 -7.979832
20.625262 32.890234 -31.759813
20.98226 34.455383 -31.62278
20.625262 32.890234 -31.759813
21.377243 31.230514 -31.575655
22.065225 29.633242 -31.441752
22.857493 28.02368 -31.291621
3 0 34 32
3 0 36 34
3 1 39 37
3 1 41 39
3 1 42 41
3 3 45 43
3 4 47 46
3 4 49 47
3 4 51 49
3 5 54 52
3 5 55 54
3 6 129 131
3 129 56 130
3 129 130 131
3 6 58 56
3 2 61 59
3 7 64 62
3 7 66 64
3 7 68 66
3 133 132 70
3 8 74 72
3 10 75 33
3 10 76 75
3 10 78 76
3 12 79 35
3 12 80 79
3 13 134 135
3 13 136 138
3 136 81 137
3 136 137 138
3 14 84 82
3 16 85 38
3 16 86 85
3 16 88 86
3 18 89 40
3 18 139 141
3 141 140 89
3 139 140 141
3 18 142 143
3 144 90 145
3 146 91 147
3 148 147 90
3 146 147 148
3 149 92 150
3 151 93 152
3 153 152 92
3 151 152 153
3 154 94 155
3 20 156 157
3 20 158 160
3 158 95 159
3 158 159 160
3 20 96 95
3 161 97 162
3 163 98 164
3 165 164 97
3 163 164 165
3 167 166 98
3 21 101 99
3 23 102 44
3 23 103 102
3 168 104 169
3 170 169 71
3 168 169 170
3 9 171 173
3 173 172 73
3 171 172 173
3 24 174 176
3 176 175 48
3 174 175 176
3 24 177 179
3 177 105 178
3 177 178 179
3 24 106 105
3 25 107 50
3 25 108 107
3 11 109 77
3 26 110 53
3 26 111 110
3 26 180 182
3 182 181 111
3 180 181 182
3 27 112 57
3 27 113 112
3 19 183 185
3 183 114 184
3 183 184 185
3 28 115 60
3 28 116 115
3 15 117 83
3 29 118 63
3 29 119 118
3 29 120 119
3 30 121 65
3 30 122 121
3 30 123 122
3 31 124 67
3 31 125 124
3 17 126 87
3 186 127 187
3 188 187 69
3 186 187 188
3 189 128 190
3 191 190 127
3 189 190 191
3 193 192 128
3 22 194 196
3 196 195 100
3 194 195 196
3 32 33 8
3 34 33 32
3 34 10 33
3 34 35 10
3 36 35 34
3 36 12 35
3 197 13 198
3 37 38 14
3 39 38 37
3 39 16 38
3 39 40 16
3 41 40 39
3 41 18 40
3 41 199 201
3 201 200 18
3 199 200 201
3 42 202 204
3 204 203 41
3 202 203 204
3 42 205 206
3 207 20 208
3 210 209 20
3 43 44 21
3 45 44 43
3 45 23 44
3 46 211 213
3 213 212 9
3 211 212 213
3 47 214 216
3 216 215 46
3 214 215 216
3 47 217 218
3 47 219 221
3 219 48 220
3 219 220 221
3 49 48 47
3 49 24 48
3 49 50 24
3 51 50 49
3 51 25 50
3 52 53 11
3 54 53 52
3 54 26 53
3 54 222 224
3 224 223 26
3 222 223 224
3 55 225 227
3 227 226 54
3 225 226 227
3 55 228 229
3 56 230 231
3 56 232 233
3 56 234 236
3 234 57 235
3 234 235 236
3 58 57 56
3 58 27 57
3 59 60 19
3 61 60 59
3 61 28 60
3 62 63 15
3 64 63 62
3 64 29 63
3 64 65 29
3 66 65 64
3 66 30 65
3 66 67 30
3 68 67 66
3 68 31 67
3 237 69 238
3 239 238 17
3 237 238 239
3 240 69 241
3 243 242 69
3 70 244 246
3 246 245 22
3 244 245 246
3 248 247 70
3 249 71 250
3 251 250 3
3 249 250 251
3 252 71 253
3 255 254 71
3 72 256 258
3 256 73 257
3 256 257 258
3 74 73 72
3 74 9 73
3 33 74 8
3 75 74 33
3 75 9 74
3 75 46 9
3 76 46 75
3 76 4 46
3 76 77 4
3 78 77 76
3 78 11 77
3 35 78 10
3 79 78 35
3 79 11 78
3 79 52 11
3 80 52 79
3 80 5 52
3 81 259 260
3 81 261 263
3 261 6 262
3 261 262 263
3 82 83 2
3 84 83 82
3 84 15 83
3 38 84 14
3 85 84 38
3 85 15 84
3 85 62 15
3 86 62 85
3 86 7 62
3 86 87 7
3 88 87 86
3 88 17 87
3 40 88 16
3 89 88 40
3 89 17 88
3 89 264 266
3 266 265 17
3 264 265 266
3 268 267 89
3 270 269 18
3 90 271 273
3 271 272 273
3 90 274 275
3 90 276 278
3 276 72 277
3 276 277 278
3 91 72 90
3 91 8 72
3 279 91 280
3 92 281 283
3 281 91 282
3 281 282 283
3 92 8 91
3 92 32 8
3 93 32 92
3 93 0 32
3 284 19 285
3 286 19 287
3 288 59 289
3 290 289 19
3 288 289 290
3 94 291 293
3 291 59 292
3 291 292 293
3 94 2 59
3 294 94 295
3 95 296 298
3 296 94 297
3 296 297 298
3 95 2 94
3 95 82 2
3 96 82 95
3 96 14 82
3 299 96 300
3 301 300 20
3 299 300 301
3 97 302 304
3 302 96 303
3 302 303 304
3 97 14 96
3 97 37 14
3 98 37 97
3 98 1 37
3 98 305 307
3 307 306 1
3 305 306 307
3 309 308 98
3 99 310 312
3 310 100 311
3 310 311 312
3 101 100 99
3 101 22 100
3 44 101 21
3 102 101 44
3 102 22 101
3 102 70 22
3 103 70 102
3 103 313 315
3 315 314 70
3 313 314 315
3 71 45 3
3 104 45 71
3 104 23 45
3 316 104 317
3 318 104 319
3 320 23 321
3 322 321 104
3 320 321 322
3 323 103 324
3 325 324 23
3 323 324 325
3 326 103 327
3 329 328 103
3 73 330 331
3 333 332 73
3 335 334 9
3 48 336 337
3 339 338 48
3 105 340 341
3 105 342 343
3 105 344 346
3 344 99 345
3 344 345 346
3 106 99 105
3 106 21 99
3 50 106 24
3 107 106 50
3 107 21 106
3 107 43 21
3 108 43 107
3 108 3 43
3 77 51 4
3 109 51 77
3 109 25 51
3 53 109 11
3 110 109 53
3 110 25 109
3 110 108 25
3 111 108 110
3 111 3 108
3 111 347 349
3 349 348 3
3 347 348 349
3 351 350 111
3 353 352 26
3 57 354 355
3 112 356 358
3 358 357 57
3 356 357 358
3 112 359 360
3 112 361 363
3 361 93 362
3 361 362 363
3 113 93 112
3 113 0 93
3 114 364 365
3 114 366 368
3 366 13 367
3 366 367 368
3 60 114 19
3 115 114 60
3 115 13 114
3 115 81 13
3 116 81 115
3 116 6 81
3 83 61 2
3 117 61 83
3 117 28 61
3 63 117 15
3 118 117 63
3 118 28 117
3 118 116 28
3 119 116 118
3 119 6 116
3 119 58 6
3 120 58 119
3 120 27 58
3 65 120 29
3 121 120 65
3 121 27 120
3 121 113 27
3 122 113 121
3 122 0 113
3 122 36 0
3 123 36 122
3 123 12 36
3 67 123 30
3 124 123 67
3 124 12 123
3 124 80 12
3 125 80 124
3 125 5 80
3 87 68 7
3 126 68 87
3 126 31 68
3 69 126 17
3 127 126 69
3 127 31 126
3 127 125 31
3 128 125 127
3 128 5 125
3 128 55 5
3 369 55 370
3 371 370 128
3 369 370 371
3 373 372 55
3 374 42 375
3 376 375 1
3 374 375 376
3 377 42 378
3 380 379 42
3 100 381 382
3 384 383 100
3 386 385 22
