ply
format ascii 1.0
element vertex 903
property float x
property float y
property float z
element face 806
property list uchar int vertex_index
end_header
30.126993 -2.654116 -44.498985
16.179115 -53.338146 -12.451799
28.770947 -24.248219 -37.430534
29.162489 -13.058142 -42.695946
-3.417261 -25.581194 40.935364
-3.710997 -39.185684 33.964436
5.887709 -56.510582 2.250235
30.88666 6.573606 -41.49498
25.883593 -41.957405 -22.698122
29.951731 -32.260002 -28.152838
12.899403 -57.651875 -5.500502
11.504934 -52.823639 -4.218313
31.159454 -7.287211 -40.184143
30.998991 -12.478386 -39.48703
29.641605 -7.73316 -44.161057
28.642673 -8.074938 -47.171738
29.087294 -2.649885 -48.440498
17.446957 -53.187786 -15.179287
-3.96501 -16.950161 40.509941
4.319586 -58.736343 5.363585
30.018667 -23.115814 -35.582687
29.339888 -28.460693 -32.806541
28.473654 -33.857342 -29.679007
28.815264 -30.154228 -33.97776
13.799772 -58.257832 -8.07918
15.196817 -53.373043 -9.634317
30.582212 -17.773794 -37.8703
28.849384 -18.570335 -40.381004
28.935772 -19.791952 -41.822891
28.566042 -13.796758 -44.875725
30.97975 -2.217247 -39.769333
-4.411882 -23.799725 37.438225
-3.700369 -32.270897 37.673256
-2.885695 -40.126194 37.686981
-2.776777 -46.66972 33.712372
-2.516085 -53.107666 29.413691
-1.818979 -58.3587 20.905294
-1.642012 -57.312771 16.778313
7.543495 -54.177197 -0.309404
30.51116 2.77993 -38.333168
30.530272 2.118961 -43.554405
30.705776 6.854094 -46.961418
29.780979 2.378773 -48.400047
21.016479 -48.221149 -17.107676
28.196545 -37.094933 -25.419287
27.244276 -39.476257 -26.36537
9.795219 -54.097164 -2.477957
11.10635 -54.691467 -3.676815
30.611336 -5.036806 -42.386566
30.467531 -7.574968 -42.270195
29.892365 -5.158736 -44.486465
29.217052 -5.217478 -46.356506
29.509638 -2.646906 -46.598946
14.897846 -55.867599 -11.576712
15.240336 -55.904636 -12.867964
16.730812 -53.277546 -13.836147
29.181973 -23.62611 -36.633324
29.695784 -25.787832 -34.246925
29.003443 -26.39435 -35.135262
28.821264 -29.197807 -33.528481
28.79203 -27.164589 -35.759483
28.919138 -25.06266 -37.947662
13.214285 -55.413311 -6.262758
13.498686 -58.008335 -6.798725
13.895266 -55.615704 -7.595232
14.344521 -55.742958 -8.931162
30.050404 -12.79372 -41.201561
30.814774 -15.116145 -38.777107
29.814451 -15.462042 -40.31633
29.58502 -18.160269 -39.242592
28.977097 -15.793559 -41.628784
28.553909 -16.201113 -42.675751
28.604658 -13.365813 -43.930229
28.903116 -5.558352 -49.249672
28.856693 -8.431789 -48.231255
29.53001 -5.991718 -50.219574
31.167629 -4.157948 -37.771194
30.78046 -1.545876 -37.324989
-3.102934 -29.737568 41.073292
-4.162298 -35.17878 34.025295
-4.132254 -31.618135 35.858734
-3.72658 -35.713852 35.874298
-3.315752 -36.286182 37.703545
-3.305017 -39.642006 35.834038
-2.847666 -43.390694 35.752083
-3.255217 -43.018089 33.852608
-3.043707 -49.676773 29.603598
-2.821379 -52.868732 27.385078
-2.242239 -56.169052 27.227833
-2.441889 -55.907043 25.161243
-1.827829 -58.751198 22.98954
-2.594572 -55.56493 23.09882
7.374716 -59.555229 2.186047
8.028233 -58.255756 0.753713
8.65485 -56.888252 -0.525295
6.708836 -55.334297 0.892603
30.21759 5.284962 -37.363632
30.666981 4.619366 -39.942017
30.712551 2.269104 -40.932838
30.71027 4.383371 -42.639893
30.212337 4.695786 -47.849068
30.068111 4.937284 -50.149704
29.639385 2.503681 -50.459969
20.175472 -48.600384 -15.5403
25.211111 -42.975555 -20.883123
23.634579 -45.301624 -19.737257
24.510277 -44.491058 -21.389898
30.63018 -29.782925 -29.467691
29.082781 -36.23967 -24.596437
29.141823 -34.690376 -26.795767
28.334984 -34.988808 -30.059378
27.919247 -36.625122 -28.032587
12.273933 -55.113293 -4.948732
12.721933 -53.056622 -5.507378
31.11878 -9.867384 -39.966461
30.274876 -10.162428 -41.864784
29.391041 -10.369 -43.552032
28.743889 -10.586357 -44.985062
28.95521 -7.86758 -45.806519
28.827915 -5.320884 -47.95414
29.055792 -2.768017 -49.986122
18.391281 -53.054623 -16.465841
-3.700991 -21.305866 40.751724
-4.158987 -38.743027 32.081696
-3.66271 -42.64967 31.944872
5.088911 -57.656399 3.745294
30.662365 -25.246971 -33.139778
30.215191 -27.84901 -31.847475
29.687132 -30.424648 -30.470613
29.070435 -32.983219 -29.027796
28.938755 -31.144342 -31.277784
28.609863 -32.05468 -31.829504
13.890337 -58.435661 -9.335798
14.640989 -55.819256 -10.261021
15.701649 -53.372261 -11.045338
-4.806364 -11.477987 38.355461
30.314386 -20.442965 -36.797127
29.373423 -20.882477 -38.007896
28.783377 -21.387165 -38.975838
28.726473 -22.041662 -39.667122
28.597216 -19.091518 -41.248199
28.697292 -16.75849 -43.431091
28.549948 -10.901971 -46.133018
28.928963 -11.382061 -46.973045
31.112619 -4.738385 -40.119133
30.697491 -2.551105 -42.195938
-4.523222 -15.910081 38.734341
-4.229055 -20.315002 39.013973
-3.925852 -24.653433 39.217365
-4.060537 -28.099115 37.587822
-3.607798 -28.886158 39.360458
-3.260542 -32.978535 39.452473
-2.863733 -36.90448 39.498852
-2.391459 -43.783535 37.635433
-2.338148 -46.958347 35.648415
-2.261221 -50.142929 33.573341
-3.173906 -46.377548 31.769855
-2.67544 -49.924328 31.589493
-2.153051 -53.294292 31.443256
-1.971064 -56.360851 29.299465
-0.708143 -60.929752 18.828396
-1.759336 -57.879616 18.833906
-0.453653 -60.407097 16.755156
-0.136921 -59.804134 14.711788
0.254677 -59.118122 12.708153
0.73568 -58.346729 10.758186
1.31666 -57.490803 8.878752
2.00112 -56.557301 7.087353
2.785641 -55.56168 5.399714
3.662315 -54.529205 3.828325
8.365395 -53.110451 -1.325375
9.252663 -55.494312 -1.619255
30.772743 0.284548 -39.157768
30.727686 -0.117519 -41.701691
30.338684 -0.226706 -44.185242
30.865654 6.590437 -44.263763
30.494053 4.458414 -45.315483
30.147364 2.203375 -46.075394
29.820648 -0.168812 -46.507935
29.406799 -0.076929 -48.596313
29.302952 -0.073893 -50.400085
17.039124 -51.1287 -11.723143
17.697672 -51.012829 -13.225504
18.398287 -50.844749 -14.711592
19.211853 -50.617737 -16.160036
20.187937 -50.317505 -17.556826
21.94945 -47.738651 -18.635798
27.111736 -39.50478 -24.0464
28.35375 -35.544121 -27.539541
27.521931 -38.135208 -26.028929
26.556633 -40.78904 -24.520727
9.999978 -53.32069 -2.753169
9.432215 -53.186426 -2.272798
13.824506 -54.42054 -7.223925
13.554775 -55.514508 -6.928995
13.484015 -54.319344 -6.557688
14.232749 -54.47198 -7.914008
13.824506 -54.42054 -7.223925
29.531599 -4.535304 -50.713951
29.216563 -5.775035 -49.734623
29.218152 -4.318621 -50.229
30.037475 -4.809236 -51.152966
29.531599 -4.535304 -50.713951
30.385185 -1.000172 -36.157307
30.702334 -2.376915 -36.389458
-3.113187 -26.077557 41.749584
-3.258812 -23.976011 41.668518
-3.260097 -27.659381 41.004328
-2.956024 -28.155744 41.818549
-3.113187 -26.077557 41.749584
-2.959301 -52.715826 26.369993
-3.110512 -51.125696 27.499174
-2.769556 -54.234982 25.258075
-2.631634 -54.387888 26.27316
-2.959301 -52.715826 26.369993
-2.845897 -54.063925 24.226864
-2.518231 -55.735986 24.130032
-2.769556 -54.234982 25.258075
30.77682 5.596486 -40.718498
30.635925 5.783999 -39.369492
30.745765 6.761119 -40.145973
30.391658 6.191556 -50.930851
30.332304 6.066249 -49.811008
30.151259 4.987823 -51.152008
30.391658 6.191556 -50.930851
25.660975 -42.747503 -22.868341
24.974317 -44.01433 -22.21423
25.196935 -43.224232 -22.04401
30.396256 -31.910046 -27.64615
30.735481 -30.671507 -28.303577
30.290955 -31.021463 -28.810264
29.99967 -33.098934 -27.014768
30.396256 -31.910046 -27.64615
29.546777 -33.475189 -27.474303
29.594716 -34.314121 -26.336233
29.99967 -33.098934 -27.014768
28.144732 -36.507368 -29.152328
28.513886 -35.717495 -30.112911
31.139117 -8.577298 -40.075302
31.37957 -9.625999 -38.942066
31.399907 -8.335912 -39.050907
17.02825 -54.568581 -15.250644
16.614887 -54.561526 -14.650227
17.919119 -53.121205 -15.822564
17.500412 -54.501999 -15.893921
17.02825 -54.568581 -15.250644
-3.66317 -17.512353 41.353946
-3.781296 -15.337477 41.222078
-3.833 -19.128014 40.630832
-3.531161 -19.690206 41.474838
-3.66317 -17.512353 41.353946
-4.421047 -38.520424 31.128684
-4.416368 -36.705601 32.117991
-4.13613 -40.505703 31.053172
-4.421047 -38.520424 31.128684
5.50649 -59.74426 4.556717
5.154528 -60.280766 5.396344
4.704249 -58.196371 4.554439
5.891153 -59.204289 3.747571
5.50649 -59.74426 4.556717
30.340516 -24.181393 -34.361232
30.847721 -23.932789 -33.734504
30.525872 -22.867211 -34.955959
28.807112 -31.697145 -33.041248
28.704411 -32.647371 -31.96712
28.712564 -31.104454 -32.903632
29.077951 -30.773416 -34.066387
28.807112 -31.697145 -33.041248
13.117175 -59.041527 -5.661943
12.822895 -58.761375 -5.021879
13.669299 -59.552227 -7.570552
13.518756 -59.427479 -6.930325
13.649229 -58.133083 -7.438952
13.624549 -59.708242 -8.167739
13.669299 -59.552227 -7.570552
13.845054 -58.346747 -8.707489
13.669832 -59.797157 -8.796048
13.624549 -59.708242 -8.167739
31.337311 -13.569104 -38.27523
31.354899 -12.246783 -38.546948
31.0635 -17.544126 -37.093345
31.179781 -16.215302 -37.546749
30.698493 -16.444969 -38.323704
30.955224 -18.872365 -36.633087
31.0635 -17.544126 -37.093345
30.448299 -19.108379 -37.333714
30.821311 -20.20695 -36.096501
30.955224 -18.872365 -36.633087
28.845743 -14.10273 -45.194325
28.911368 -15.583596 -44.472008
28.631667 -15.277624 -44.153408
29.288429 -10.184975 -47.968872
28.892828 -9.906925 -47.60215
29.252294 -8.709839 -48.597977
29.409102 -11.724821 -47.231209
29.288429 -10.184975 -47.968872
-4.81456 -15.438225 37.810866
-4.664793 -13.694034 38.544901
-4.956131 -13.222179 37.621426
-4.320469 -22.057364 38.226099
-4.49505 -19.861963 38.112573
-4.586464 -21.604324 37.3247
-2.641491 -40.387738 38.596348
-2.63051 -38.776881 39.502283
-2.874714 -38.515337 38.592917
-2.638577 -41.954864 37.661207
-2.394373 -42.216408 38.570573
-2.641491 -40.387738 38.596348
-3.37204 -46.220565 30.795806
-3.418308 -44.513609 31.857363
-3.616442 -44.356627 30.883315
-1.942451 -57.72841 27.210089
-2.009308 -57.614216 26.156743
-1.361785 -59.866115 20.915336
-1.36621 -60.062365 21.957459
-1.823404 -58.554949 21.947417
-1.263561 -59.644226 19.866845
-0.806367 -61.151641 19.876887
-1.361785 -59.866115 20.915336
-1.700674 -57.596193 17.806109
-2.27315 -56.248452 18.906486
-2.214488 -55.965029 17.87869
-0.445652 -57.517832 12.728966
-0.595919 -57.888088 13.72702
-0.20515 -57.132136 11.753982
0.495178 -58.732426 11.733169
-0.445652 -57.517832 12.728966
0.589444 -55.850769 8.910346
0.300629 -56.294161 9.843502
0.931674 -55.384018 8.014647
1.65889 -57.024052 7.983053
0.589444 -55.850769 8.910346
2.130869 -53.945099 5.453465
1.689612 -54.419834 6.284903
2.569206 -53.428861 4.66777
3.223978 -55.045443 4.61402
2.130869 -53.945099 5.453465
30.161504 3.26246 -37.114464
30.014719 4.514977 -36.629696
30.364375 4.032446 -37.8484
30.41515 1.931501 -37.505752
30.161504 3.26246 -37.114464
30.641951 1.532239 -38.745468
30.545942 0.68381 -37.918053
30.41515 1.931501 -37.505752
30.983122 7.846914 -46.367108
30.966892 8.050357 -47.705204
30.785715 6.722265 -45.61259
31.063061 7.715085 -45.01828
30.983122 7.846914 -46.367108
29.593314 1.192205 -51.304481
29.471169 1.214894 -50.430027
29.76153 2.480992 -51.334423
29.477348 -0.165267 -51.142391
29.593314 1.192205 -51.304481
17.383538 -50.170696 -11.242905
16.690525 -51.160608 -10.974835
18.541637 -49.950209 -13.585591
18.144204 -50.051562 -12.785346
18.891944 -49.866169 -14.328636
18.04798 -50.928789 -13.968548
18.541637 -49.950209 -13.585591
22.472057 -47.438749 -19.381504
22.792015 -46.520137 -19.186528
23.314622 -46.220236 -19.932234
21.648543 -48.831016 -18.768887
22.472057 -47.438749 -19.381504
28.073056 -37.791748 -24.371502
28.516174 -37.364117 -23.960077
28.639663 -36.667301 -25.007862
27.654141 -38.299856 -24.732844
27.530652 -38.996672 -23.685058
28.073056 -37.791748 -24.371502
26.828972 -40.956844 -25.536199
26.485151 -41.613236 -24.613878
26.900455 -40.132649 -25.443048
29.096849 -21.350001 -40.945988
28.9922 -22.474857 -39.868103
28.831122 -20.916807 -40.745007
10.450785 -54.394316 -3.077386
10.92339 -55.575583 -3.290421
10.267824 -55.278431 -2.690993
10.655544 -53.617841 -3.352598
10.450785 -54.394316 -3.077386
9.999978 -53.32069 -2.753169
10.854836 -52.683927 -3.623347
11.305642 -53.757553 -3.947564
10.655544 -53.617841 -3.352598
14.440613 -57.286955 -11.675311
14.399614 -57.221708 -11.07214
14.611857 -57.305473 -12.320937
14.440613 -57.286955 -11.675311
15.069091 -55.886117 -12.222338
14.75977 -57.373701 -12.90915
14.611857 -57.305473 -12.320937
15.511576 -55.91995 -13.494566
14.75977 -57.373701 -12.90915
16.256814 -54.606406 -13.978658
15.511576 -55.91995 -13.494566
15.985574 -54.591091 -13.352056
17.088884 -53.232666 -14.507717
16.614887 -54.561526 -14.650227
16.256814 -54.606406 -13.978658
-4.088768 -14.751937 40.349636
-3.781296 -15.337477 41.222078
3.95439 -59.232149 6.227813
5.154528 -60.280766 5.396344
28.965756 -27.668396 -35.931954
28.977373 -29.163215 -35.041092
28.803647 -28.659408 -34.868622
29.02931 -26.617432 -37.026043
28.965756 -27.668396 -35.931954
28.855584 -26.113625 -36.853572
29.272424 -25.593226 -38.06633
29.02931 -26.617432 -37.026043
14.457377 -54.535607 -8.581973
14.119893 -55.679331 -8.263197
14.232749 -54.47198 -7.914008
14.883525 -53.350649 -8.93355
14.770669 -54.558001 -9.282739
14.457377 -54.535607 -8.581973
29.588953 -7.489803 -49.592137
29.252294 -8.709839 -48.597977
29.193351 -7.211754 -49.225414
30.113979 -6.322691 -50.533127
29.588953 -7.489803 -49.592137
30.113979 -6.322691 -50.533127
30.037475 -4.809236 -51.152966
30.895919 -3.682951 -36.61256
31.169272 -5.042277 -36.75359
30.974045 -2.851912 -37.548091
30.895919 -3.682951 -36.61256
30.702334 -2.376915 -36.389458
-2.789286 -30.191935 41.883757
-2.956024 -28.155744 41.818549
-2.921793 -31.739918 41.122347
-2.789286 -30.191935 41.883757
-4.679115 -23.411065 36.52496
-4.586464 -21.604324 37.3247
-4.147276 -33.398457 34.942014
-4.377203 -31.315734 34.938202
-4.392225 -33.096056 34.021483
-3.221676 -49.529716 28.608434
-3.30694 -47.870178 29.712678
-2.932543 -51.272752 28.494338
-3.221676 -49.529716 28.608434
-3.110512 -51.125696 27.499174
-2.109133 -57.483211 25.123448
-2.009308 -57.614216 26.156743
-2.342064 -56.038048 26.194538
-2.134859 -57.329121 24.075392
-1.802103 -58.905289 24.037596
-2.109133 -57.483211 25.123448
-2.217089 -55.65988 16.85154
-2.214488 -55.965029 17.87869
-1.544264 -56.985412 15.7621
-2.217089 -55.65988 16.85154
8.433135 -60.401806 1.444009
8.169108 -61.07909 2.204673
8.759894 -59.752069 0.727842
8.433135 -60.401806 1.444009
7.701474 -58.905492 1.46988
8.989893 -59.003439 0.037078
8.759894 -59.752069 0.727842
8.341541 -57.572004 0.114209
9.303202 -58.319687 -0.602426
8.989893 -59.003439 0.037078
30.41123 6.116796 -38.0803
30.065657 6.55065 -36.84383
30.442286 4.952164 -38.652825
30.41123 6.116796 -38.0803
30.635925 5.783999 -39.369492
30.651137 7.024655 -48.216865
30.966892 8.050357 -47.705204
30.404418 5.9455 -48.660691
30.459057 5.77494 -47.405243
30.651137 7.024655 -48.216865
30.140224 4.816535 -48.999386
30.404418 5.9455 -48.660691
30.332304 6.066249 -49.811008
29.936896 3.771021 -51.307141
29.853748 3.720483 -50.304837
30.151259 4.987823 -51.152008
29.76153 2.480992 -51.334423
29.936896 3.771021 -51.307141
20.668948 -47.766256 -15.1032
19.780537 -48.743986 -14.74299
21.083014 -47.558186 -15.95581
20.668948 -47.766256 -15.1032
21.503518 -47.368568 -16.739498
20.595976 -48.410766 -16.323988
21.083014 -47.558186 -15.95581
24.422845 -44.138589 -20.31019
24.075992 -44.570414 -19.401724
24.864258 -43.407379 -19.974657
23.752471 -45.814953 -20.758554
23.314622 -46.220236 -19.932234
24.072428 -44.896341 -20.563578
24.330128 -45.448885 -21.495126
23.752471 -45.814953 -20.758554
24.330128 -45.448885 -21.495126
24.974317 -44.01433 -22.21423
31.046391 -29.439823 -28.913297
30.905513 -28.516467 -30.09308
31.046391 -29.439823 -28.913297
30.735481 -30.671507 -28.303577
29.565195 -35.088768 -25.236568
29.492392 -35.834331 -24.129921
29.112302 -35.465023 -25.696102
29.565195 -35.088768 -25.236568
29.594716 -34.314121 -26.336233
27.936864 -37.325525 -28.138933
28.127115 -35.806965 -29.045983
28.144732 -36.507368 -29.152328
27.599379 -38.751092 -27.305324
27.581761 -38.050689 -27.198978
27.936864 -37.325525 -28.138933
27.332513 -40.332531 -26.392815
27.599379 -38.751092 -27.305324
29.390526 -20.254215 -41.962402
29.187221 -18.654311 -42.852161
12.435589 -57.401741 -4.848903
12.822895 -58.761375 -5.021879
11.539062 -55.921537 -3.93706
10.92339 -55.575583 -3.290421
12.122854 -56.132451 -4.573018
11.539062 -55.921537 -3.93706
11.690141 -54.90238 -4.312773
12.586668 -56.382584 -5.224617
12.435589 -57.401741 -4.848903
12.122854 -56.132451 -4.573018
13.237839 -53.140999 -6.179998
13.484015 -54.319344 -6.557688
12.968109 -54.234966 -5.885068
31.414793 -10.941282 -38.786663
31.37957 -9.625999 -38.942066
31.058886 -11.172885 -39.726745
31.354899 -12.246783 -38.546948
31.414793 -10.941282 -38.786663
29.29449 -2.923453 -50.597225
29.218152 -4.318621 -50.229
28.979454 -4.163184 -49.617897
18.076377 -54.488163 -16.463749
17.500412 -54.501999 -15.893921
18.991318 -52.953957 -17.078678
18.076377 -54.488163 -16.463749
-3.400677 -21.838347 41.576698
-3.531161 -19.690206 41.474838
-3.559126 -23.44353 40.843544
-3.258812 -23.976011 41.668518
-3.400677 -21.838347 41.576698
-4.418024 -34.923478 33.08979
-4.392225 -33.096056 34.021483
-4.160642 -36.960904 33.053495
-4.418024 -34.923478 33.08979
-4.416368 -36.705601 32.117991
-3.887991 -42.459024 30.98476
-3.910849 -40.696348 32.013284
-4.13613 -40.505703 31.053172
-3.616442 -44.356627 30.883315
-3.887991 -42.459024 30.98476
7.034055 -60.153703 2.967948
8.169108 -61.07909 2.204673
6.231814 -58.605814 2.96567
7.034055 -60.153703 2.967948
5.891153 -59.204289 3.747571
30.974176 7.638629 -40.839035
30.745765 6.761119 -40.145973
25.663795 -42.371021 -20.506301
24.864258 -43.407379 -19.974657
25.933122 -41.847557 -21.481873
25.663795 -42.371021 -20.506301
26.269364 -41.338482 -22.389372
25.547352 -42.46648 -21.790623
25.933122 -41.847557 -21.481873
31.134791 -24.954973 -32.511872
30.847721 -23.932789 -33.734504
30.921606 -26.24849 -31.929124
31.134791 -24.954973 -32.511872
30.698019 -27.54951 -31.282972
30.921606 -26.24849 -31.929124
30.438778 -26.54799 -32.493626
30.422686 -28.815967 -30.657583
30.905513 -28.516467 -30.09308
30.698019 -27.54951 -31.282972
28.566972 -34.114435 -31.082057
28.472423 -33.521744 -30.944441
28.704411 -32.647371 -31.96712
28.513886 -35.717495 -30.112911
28.566972 -34.114435 -31.082057
29.077951 -30.773416 -34.066387
28.977373 -29.163215 -35.041092
13.416816 -59.219757 -6.311055
13.117175 -59.041527 -5.661943
13.199044 -57.830105 -6.149614
13.416816 -59.219757 -6.311055
13.518756 -59.427479 -6.930325
13.550952 -59.92256 -9.374139
13.669832 -59.797157 -8.796048
13.89586 -58.505739 -9.951683
13.550952 -59.92256 -9.374139
14.271185 -57.197536 -10.414295
13.89586 -58.505739 -9.951683
14.265663 -57.127459 -9.798409
14.769417 -55.843428 -10.918867
14.399614 -57.221708 -11.07214
14.271185 -57.197536 -10.414295
-4.938734 -9.266028 38.102545
-4.623401 -9.815449 39.05886
-5.122189 -10.994414 37.398983
-4.938734 -9.266028 38.102545
-4.956131 -13.222179 37.621426
-5.122189 -10.994414 37.398983
31.245203 -14.887983 -37.920269
31.337311 -13.569104 -38.27523
30.906883 -13.797265 -39.132069
31.245203 -14.887983 -37.920269
31.179781 -16.215302 -37.546749
30.673731 -21.530786 -35.563179
30.821311 -20.20695 -36.096501
30.166526 -21.77939 -36.189907
30.525872 -22.867211 -34.955959
30.673731 -21.530786 -35.563179
29.067981 -17.13758 -43.656261
29.187221 -18.654311 -42.852161
28.816532 -18.275221 -42.626991
29.067981 -17.13758 -43.656261
28.911368 -15.583596 -44.472008
29.027203 -12.895382 -46.242984
28.845743 -14.10273 -45.194325
28.747502 -12.58941 -45.924385
29.027203 -12.895382 -46.242984
29.409102 -11.724821 -47.231209
31.308978 -7.027312 -39.079265
31.399907 -8.335912 -39.050907
31.313066 -5.462681 -37.872791
31.169272 -5.042277 -36.75359
31.28556 -5.752899 -39.04676
31.313066 -5.462681 -37.872791
31.140124 -4.448167 -38.945163
31.136036 -6.012798 -40.151638
31.308978 -7.027312 -39.079265
31.28556 -5.752899 -39.04676
-4.509445 -12.01585 39.272396
-4.623401 -9.815449 39.05886
-4.367874 -14.231897 39.461836
-4.509445 -12.01585 39.272396
-4.664793 -13.694034 38.544901
-4.244116 -16.430121 39.622141
-4.088768 -14.751937 40.349636
-4.367874 -14.231897 39.461836
-4.642133 -17.659502 37.972758
-4.81456 -15.438225 37.810866
-4.376138 -18.112541 38.874157
-4.642133 -17.659502 37.972758
-4.49505 -19.861963 38.112573
-4.474428 -25.588459 36.606898
-4.679115 -23.411065 36.52496
-4.334614 -29.497664 35.817152
-4.377203 -31.315734 34.938202
-4.298756 -27.738154 36.681696
-4.334614 -29.497664 35.817152
-4.096395 -29.858625 36.723278
-4.23621 -25.94942 37.513024
-4.474428 -25.588459 36.606898
-4.298756 -27.738154 36.681696
-3.000597 -33.360402 40.311937
-2.921793 -31.739918 41.122347
-3.181738 -31.358052 40.262883
-2.802192 -35.323374 40.335127
-3.000597 -33.360402 40.311937
-3.062137 -34.941508 39.475662
-2.587463 -37.238523 40.365934
-2.802192 -35.323374 40.335127
-2.587463 -37.238523 40.365934
-2.63051 -38.776881 39.502283
-2.120953 -43.997045 38.559888
-2.394373 -42.216408 38.570573
-2.108918 -45.522692 37.601661
-2.120953 -43.997045 38.559888
-2.082262 -47.110098 36.608153
-2.108918 -45.522692 37.601661
-2.364803 -45.370941 36.641924
-2.055842 -48.655412 35.599614
-2.082262 -47.110098 36.608153
-2.017378 -50.247704 34.562077
-2.055842 -48.655412 35.599614
-2.299684 -48.550638 34.610878
-1.984278 -51.794962 33.522686
-2.017378 -50.247704 34.562077
-3.108807 -48.02716 30.686726
-3.37204 -46.220565 30.795806
-3.30694 -47.870178 29.712678
-1.930193 -53.370643 32.457644
-1.984278 -51.794962 33.522686
-2.207136 -51.71861 32.508299
-1.878694 -54.895544 31.408877
-1.930193 -53.370643 32.457644
-1.787701 -56.428824 30.336982
-1.878694 -54.895544 31.408877
-2.062057 -54.827571 30.371361
-1.686813 -57.902878 29.303179
-1.787701 -56.428824 30.336982
-1.806864 -57.82431 28.245905
-2.106651 -56.264951 28.263649
-1.942451 -57.72841 27.210089
-1.686813 -57.902878 29.303179
-1.806864 -57.82431 28.245905
-1.431276 -60.244807 23.01585
-1.802103 -58.905289 24.037596
-1.431276 -60.244807 23.01585
-1.36621 -60.062365 21.957459
-0.164184 -62.348475 18.917454
-0.806367 -61.151641 19.876887
0.031656 -62.10753 17.864682
-0.164184 -62.348475 18.917454
-2.977138 -53.87204 23.208291
-2.845897 -54.063925 24.226864
-2.653389 -55.350601 22.068594
-2.977138 -53.87204 23.208291
-2.265592 -56.747486 20.971831
-2.206776 -56.961815 22.002057
-2.653389 -55.350601 22.068594
-2.235771 -56.507944 19.936137
-2.27315 -56.248452 18.906486
-1.789157 -58.119158 19.8696
-2.265592 -56.747486 20.971831
-2.235771 -56.507944 19.936137
0.158901 -61.846203 16.828062
0.031656 -62.10753 17.864682
-0.580898 -60.668425 17.791776
0.382621 -61.572113 15.792116
0.158901 -61.846203 16.828062
0.540987 -61.270632 14.770433
0.382621 -61.572113 15.792116
-0.295287 -60.105615 15.733472
0.792646 -60.960459 13.755801
0.540987 -61.270632 14.770433
-0.791718 -58.231094 14.728838
-0.889467 -58.558453 15.745051
-1.544264 -56.985412 15.7621
0.058878 -59.461128 13.709971
-0.791718 -58.231094 14.728838
-0.595919 -57.888088 13.72702
0.988445 -60.617452 12.753984
0.792646 -60.960459 13.755801
0.058878 -59.461128 13.709971
1.269729 -60.266437 11.7664
0.988445 -60.617452 12.753984
1.510231 -59.880741 10.791417
1.269729 -60.266437 11.7664
0.495178 -58.732426 11.733169
1.821943 -59.48377 9.837685
1.510231 -59.880741 10.791417
0.01014 -56.722124 10.783219
-0.20515 -57.132136 11.753982
1.02617 -57.918766 9.818469
0.01014 -56.722124 10.783219
0.300629 -56.294161 9.843502
2.112433 -59.055807 8.897968
1.821943 -59.48377 9.837685
1.02617 -57.918766 9.818469
2.452926 -58.609379 7.985397
2.112433 -59.055807 8.897968
2.795157 -58.142628 7.089697
2.452926 -58.609379 7.985397
1.65889 -57.024052 7.983053
3.160353 -57.646822 6.225469
3.95439 -59.232149 6.227813
2.795157 -58.142628 7.089697
1.297352 -54.917645 7.128722
0.931674 -55.384018 8.014647
2.393381 -56.059491 6.243533
1.297352 -54.917645 7.128722
1.689612 -54.419834 6.284903
3.081676 -52.964264 3.89484
2.569206 -53.428861 4.66777
4.141928 -54.012344 3.105319
3.081676 -52.964264 3.89484
5.254625 -55.003033 2.316274
4.775012 -55.519893 3.03928
4.141928 -54.012344 3.105319
5.665188 -54.41489 1.637458
6.298272 -55.922439 1.571419
5.254625 -55.003033 2.316274
6.180902 -53.920921 0.980344
5.665188 -54.41489 1.637458
6.598231 -53.342371 0.37934
7.126165 -54.755747 0.2916
6.180902 -53.920921 0.980344
7.143729 -52.903107 -0.210257
6.598231 -53.342371 0.37934
7.554679 -52.369734 -0.718242
7.954445 -53.643824 -0.817389
7.143729 -52.903107 -0.210257
8.124465 -52.034817 -1.245074
7.554679 -52.369734 -0.718242
8.717302 -52.69307 -1.696506
8.124465 -52.034817 -1.245074
9.507989 -57.516517 -1.209358
9.303202 -58.319687 -0.602426
9.806895 -56.819547 -1.756338
9.507989 -57.516517 -1.209358
8.953757 -56.191282 -1.072275
9.996546 -55.977005 -2.261642
9.806895 -56.819547 -1.756338
9.523941 -54.795738 -2.048606
10.267824 -55.278431 -2.690993
9.996546 -55.977005 -2.261642
8.717302 -52.69307 -1.696506
9.432215 -53.186426 -2.272798
9.080307 -53.603808 -1.901666
29.753283 5.869912 -36.208351
30.065657 6.55065 -36.84383
29.753283 5.869912 -36.208351
30.014719 4.514977 -36.629696
30.5498 -0.231402 -37.001663
30.385185 -1.000172 -36.157307
30.776601 -0.630664 -38.241378
30.5498 -0.231402 -37.001663
30.545942 0.68381 -37.918053
31.073705 7.587692 -42.233013
30.974176 7.638629 -40.839035
31.063202 7.596107 -43.617404
31.063061 7.715085 -45.01828
30.876157 6.582021 -42.879371
31.073705 7.587692 -42.233013
31.063202 7.596107 -43.617404
29.353769 -1.512329 -50.93541
29.179372 -1.420955 -50.193103
29.477348 -0.165267 -51.142391
29.29449 -2.923453 -50.597225
29.353769 -1.512329 -50.93541
11.03951 -51.786808 -3.782664
10.854836 -52.683927 -3.623347
11.763822 -51.861489 -4.408938
11.03951 -51.786808 -3.782664
12.372321 -51.97798 -5.05347
12.113433 -52.94013 -4.862846
11.763822 -51.861489 -4.408938
13.046479 -52.051029 -5.71845
12.372321 -51.97798 -5.05347
13.237839 -53.140999 -6.179998
13.046479 -52.051029 -5.71845
15.363408 -52.286938 -9.194062
14.883525 -53.350649 -8.93355
15.769372 -52.28278 -9.930421
15.363408 -52.286938 -9.194062
16.021788 -52.282388 -10.635932
15.449233 -53.372652 -10.339827
15.769372 -52.28278 -9.930421
16.370387 -52.250481 -11.384241
16.021788 -52.282388 -10.635932
16.690525 -51.160608 -10.974835
17.81493 -50.109497 -12.034166
17.383538 -50.170696 -11.242905
17.368398 -51.070765 -12.474324
17.81493 -50.109497 -12.034166
18.144204 -50.051562 -12.785346
19.286879 -49.722566 -15.125946
18.891944 -49.866169 -14.328636
19.780537 -48.743986 -14.74299
19.889647 -51.585398 -17.62417
18.991318 -52.953957 -17.078678
19.289609 -51.686064 -17.011333
21.909482 -47.09786 -17.586466
21.503518 -47.368568 -16.739498
23.218532 -45.638098 -18.901257
24.075992 -44.570414 -19.401724
22.375968 -46.856611 -18.350527
23.218532 -45.638098 -18.901257
22.792015 -46.520137 -19.186528
21.482965 -47.9799 -17.871737
21.909482 -47.09786 -17.586466
22.375968 -46.856611 -18.350527
20.767787 -50.120443 -18.229401
21.068694 -49.028078 -18.096312
21.648543 -48.831016 -18.768887
19.889647 -51.585398 -17.62417
20.767787 -50.120443 -18.229401
28.957177 -36.922413 -23.519911
29.492392 -35.834331 -24.129921
28.957177 -36.922413 -23.519911
28.516174 -37.364117 -23.960077
26.883435 -40.112169 -23.063511
27.530652 -38.996672 -23.685058
26.497664 -40.731093 -23.372261
26.269364 -41.338482 -22.389372
26.883435 -40.112169 -23.063511
25.997495 -42.16332 -23.779644
25.660975 -42.747503 -22.868341
26.220113 -41.373222 -23.609425
25.997495 -42.16332 -23.779644
26.485151 -41.613236 -24.613878
26.828972 -40.956844 -25.536199
27.332513 -40.332531 -26.392815
29.088532 -23.985356 -39.008373
28.822806 -23.552161 -38.807392
28.9922 -22.474857 -39.868103
29.272424 -25.593226 -38.06633
29.088532 -23.985356 -39.008373
29.096849 -21.350001 -40.945988
29.390526 -20.254215 -41.962402
3 192 191 46
3 0 50 48
3 0 52 50
3 1 54 53
3 1 55 54
3 2 58 56
3 2 60 58
3 2 61 60
3 193 64 194
3 195 194 62
3 193 194 195
3 197 196 64
3 3 68 66
3 3 70 68
3 3 72 70
3 198 75 199
3 200 199 73
3 198 199 200
3 202 201 75
3 203 77 204
3 4 205 206
3 4 207 209
3 207 78 208
3 207 208 209
3 5 81 79
3 5 83 81
3 5 85 83
3 210 87 211
3 212 89 213
3 214 213 87
3 212 213 214
3 215 91 216
3 217 216 89
3 215 216 217
3 6 93 92
3 6 95 93
3 7 218 220
3 218 97 219
3 218 219 220
3 7 99 97
3 221 101 222
3 224 223 101
3 8 106 104
3 8 225 227
3 227 226 106
3 225 226 227
3 9 228 230
3 230 229 107
3 228 229 230
3 9 231 232
3 9 233 235
3 233 109 234
3 233 234 235
3 237 236 110
3 11 112 47
3 11 113 112
3 12 238 240
3 238 114 239
3 238 239 240
3 14 115 49
3 14 116 115
3 14 118 116
3 16 119 51
3 16 120 119
3 17 241 242
3 17 243 245
3 243 121 244
3 243 244 245
3 18 246 247
3 18 248 250
3 248 122 249
3 248 249 250
3 251 123 252
3 254 253 123
3 19 255 256
3 19 257 259
3 257 125 258
3 257 258 259
3 20 260 262
3 260 126 261
3 260 261 262
3 21 127 57
3 21 128 127
3 21 130 128
3 23 131 59
3 23 263 265
3 265 264 131
3 263 264 265
3 23 266 267
3 10 268 269
3 24 270 272
3 272 271 63
3 270 271 272
3 24 273 274
3 24 275 277
3 275 132 276
3 275 276 277
3 25 133 65
3 25 134 133
3 13 278 279
3 26 280 282
3 282 281 67
3 280 281 282
3 26 283 284
3 26 285 287
3 285 136 286
3 285 286 287
3 27 137 69
3 27 138 137
3 27 140 138
3 29 141 71
3 29 288 290
3 290 289 141
3 288 289 290
3 15 142 117
3 291 143 292
3 293 292 74
3 291 292 293
3 295 294 143
3 30 144 76
3 30 145 144
3 296 146 297
3 298 297 135
3 296 297 298
3 31 299 301
3 299 147 300
3 299 300 301
3 31 148 147
3 32 149 80
3 32 150 149
3 32 151 150
3 33 152 82
3 33 302 304
3 304 303 152
3 302 303 304
3 33 305 307
3 305 153 306
3 305 306 307
3 34 154 84
3 34 155 154
3 308 156 309
3 310 309 124
3 308 309 310
3 35 157 86
3 35 158 157
3 35 159 158
3 312 311 88
3 36 313 315
3 315 314 90
3 313 314 315
3 36 316 318
3 316 160 317
3 316 317 318
3 37 319 321
3 319 161 320
3 319 320 321
3 37 162 161
3 37 163 162
3 322 164 323
3 324 165 325
3 326 325 164
3 324 325 326
3 327 166 328
3 329 167 330
3 331 330 166
3 329 330 331
3 332 168 333
3 334 169 335
3 336 335 168
3 334 335 336
3 38 171 94
3 38 170 171
3 39 337 339
3 339 338 96
3 337 338 339
3 39 340 341
3 39 342 344
3 342 172 343
3 342 343 344
3 40 173 98
3 40 174 173
3 41 345 346
3 41 347 349
3 347 175 348
3 347 348 349
3 41 176 175
3 42 177 100
3 42 178 177
3 42 179 178
3 350 180 351
3 352 351 102
3 350 351 352
3 354 353 180
3 355 181 356
3 357 182 358
3 359 183 360
3 361 360 182
3 359 360 361
3 43 184 103
3 43 185 184
3 362 186 363
3 364 363 105
3 362 363 364
3 366 365 186
3 44 367 369
3 369 368 108
3 367 368 369
3 44 370 372
3 370 187 371
3 370 371 372
3 22 188 129
3 45 189 111
3 45 190 189
3 45 373 375
3 375 374 190
3 373 374 375
3 28 376 378
3 378 377 139
3 376 377 378
3 46 379 381
3 379 47 380
3 379 380 381
3 382 47 383
3 384 383 46
3 382 383 384
3 385 11 386
3 387 386 47
3 385 386 387
3 48 49 12
3 50 49 48
3 50 14 49
3 50 51 14
3 52 51 50
3 52 16 51
3 53 388 389
3 54 390 392
3 392 391 53
3 390 391 392
3 54 393 394
3 54 395 396
3 55 397 399
3 399 398 54
3 397 398 399
3 55 400 402
3 400 17 401
3 400 401 402
3 403 18 404
3 405 19 406
3 56 57 20
3 58 57 56
3 58 21 57
3 58 59 21
3 60 59 58
3 60 23 59
3 60 407 409
3 409 408 23
3 407 408 409
3 61 410 412
3 412 411 60
3 410 411 412
3 61 413 414
3 62 63 10
3 64 63 62
3 64 24 63
3 64 65 24
3 415 65 416
3 417 416 64
3 415 416 417
3 418 25 419
3 420 419 65
3 418 419 420
3 66 67 13
3 68 67 66
3 68 26 67
3 68 69 26
3 70 69 68
3 70 27 69
3 70 71 27
3 72 71 70
3 72 29 71
3 73 74 15
3 75 74 73
3 75 421 423
3 423 422 74
3 421 422 423
3 75 424 425
3 427 426 75
3 428 76 429
3 77 430 432
3 430 76 431
3 430 431 432
3 77 30 76
3 78 433 434
3 78 435 436
3 437 31 438
3 79 439 441
3 439 80 440
3 439 440 441
3 81 80 79
3 81 32 80
3 81 82 32
3 83 82 81
3 83 33 82
3 83 84 33
3 85 84 83
3 85 34 84
3 442 86 443
3 87 444 446
3 444 86 445
3 444 445 446
3 87 35 86
3 87 88 35
3 89 88 87
3 89 447 449
3 449 448 88
3 447 448 449
3 89 450 452
3 450 90 451
3 450 451 452
3 91 90 89
3 91 36 90
3 453 37 454
3 456 455 37
3 92 457 458
3 93 459 461
3 461 460 92
3 459 460 461
3 93 462 463
3 93 464 466
3 464 94 465
3 464 465 466
3 95 94 93
3 95 38 94
3 467 96 468
3 97 469 471
3 469 96 470
3 469 470 471
3 97 39 96
3 97 98 39
3 99 98 97
3 99 40 98
3 472 41 473
3 474 100 475
3 476 475 41
3 474 475 476
3 101 477 479
3 477 100 478
3 477 478 479
3 101 42 100
3 101 102 42
3 480 102 481
3 482 481 101
3 480 481 482
3 484 483 102
3 485 103 486
3 487 103 488
3 489 43 490
3 491 490 103
3 489 490 491
3 104 492 494
3 492 105 493
3 492 493 494
3 106 105 104
3 106 495 497
3 497 496 105
3 495 496 497
3 106 498 499
3 501 500 106
3 107 502 503
3 505 504 107
3 506 108 507
3 109 508 510
3 508 108 509
3 508 509 510
3 109 44 108
3 110 111 22
3 511 111 512
3 513 512 110
3 511 512 513
3 514 45 515
3 516 515 111
3 514 515 516
3 518 517 45
3 520 519 28
3 521 10 522
3 47 523 524
3 112 525 527
3 527 526 47
3 525 526 527
3 112 528 530
3 528 10 529
3 528 529 530
3 112 62 10
3 113 62 112
3 113 531 533
3 533 532 62
3 531 532 533
3 114 534 535
3 114 536 538
3 536 13 537
3 536 537 538
3 49 114 12
3 115 114 49
3 115 13 114
3 115 66 13
3 116 66 115
3 116 3 66
3 116 117 3
3 118 117 116
3 118 15 117
3 51 118 14
3 119 118 51
3 119 15 118
3 119 73 15
3 120 73 119
3 120 539 541
3 541 540 73
3 539 540 541
3 121 542 543
3 121 544 545
3 122 546 547
3 122 548 550
3 548 4 549
3 548 549 550
3 551 79 552
3 123 553 555
3 553 79 554
3 553 554 555
3 123 5 79
3 123 124 5
3 556 124 557
3 558 557 123
3 556 557 558
3 560 559 124
3 561 92 562
3 125 563 565
3 563 92 564
3 563 564 565
3 125 6 92
3 566 7 567
3 568 104 569
3 570 104 571
3 572 8 573
3 574 573 104
3 572 573 574
3 126 575 576
3 126 577 578
3 57 126 20
3 127 126 57
3 127 579 581
3 581 580 126
3 579 580 581
3 127 582 584
3 582 107 583
3 582 583 584
3 128 107 127
3 128 9 107
3 128 129 9
3 130 129 128
3 130 22 129
3 59 130 21
3 131 130 59
3 131 22 130
3 131 110 22
3 585 110 586
3 587 586 131
3 585 586 587
3 589 588 110
3 591 590 23
3 63 592 594
3 594 593 10
3 592 593 594
3 596 595 63
3 132 597 598
3 132 599 600
3 65 132 24
3 133 132 65
3 133 601 603
3 603 602 132
3 601 602 603
3 133 604 606
3 604 53 605
3 604 605 606
3 134 53 133
3 134 1 53
3 607 135 608
3 609 135 610
3 612 611 135
3 67 613 615
3 615 614 13
3 613 614 615
3 617 616 67
3 136 618 619
3 136 620 622
3 620 20 621
3 620 621 622
3 69 136 26
3 137 136 69
3 137 20 136
3 137 56 20
3 138 56 137
3 138 2 56
3 138 139 2
3 140 139 138
3 140 28 139
3 71 140 27
3 141 140 71
3 141 28 140
3 141 623 625
3 625 624 28
3 623 624 625
3 627 626 141
3 117 72 3
3 142 72 117
3 142 29 72
3 74 142 15
3 143 142 74
3 143 29 142
3 143 628 630
3 630 629 29
3 628 629 630
3 632 631 143
3 633 12 634
3 76 635 636
3 144 637 639
3 639 638 76
3 637 638 639
3 144 640 642
3 640 12 641
3 640 641 642
3 144 48 12
3 145 48 144
3 145 0 48
3 135 643 644
3 146 645 647
3 647 646 135
3 645 646 647
3 146 648 650
3 648 18 649
3 648 649 650
3 651 146 652
3 147 653 655
3 653 146 654
3 653 654 655
3 147 18 146
3 147 122 18
3 148 122 147
3 148 4 122
3 656 31 657
3 80 658 659
3 149 660 662
3 662 661 80
3 660 661 662
3 149 663 665
3 663 31 664
3 663 664 665
3 149 148 31
3 150 148 149
3 150 4 148
3 150 78 4
3 151 78 150
3 151 666 668
3 668 667 78
3 666 667 668
3 82 151 32
3 152 151 82
3 152 669 671
3 671 670 151
3 669 670 671
3 152 672 673
3 675 674 152
3 153 676 677
3 153 678 679
3 84 153 33
3 154 153 84
3 154 680 682
3 682 681 153
3 680 681 682
3 154 683 684
3 155 685 687
3 687 686 154
3 685 686 687
3 155 688 689
3 124 85 5
3 156 85 124
3 156 34 85
3 86 690 692
3 690 156 691
3 690 691 692
3 157 156 86
3 157 34 156
3 157 155 34
3 158 155 157
3 158 693 695
3 695 694 155
3 693 694 695
3 158 696 697
3 159 698 700
3 700 699 158
3 698 699 700
3 159 701 702
3 88 159 35
3 703 159 704
3 705 704 88
3 703 704 705
3 707 706 159
3 90 708 709
3 711 710 90
3 160 712 713
3 160 714 715
3 716 91 717
3 718 91 719
3 720 36 721
3 722 721 91
3 720 721 722
3 161 723 724
3 161 725 727
3 725 36 726
3 725 726 727
3 161 160 36
3 162 160 161
3 162 728 730
3 730 729 160
3 728 729 730
3 162 731 732
3 163 733 735
3 735 734 162
3 733 734 735
3 163 736 737
3 738 163 739
3 740 739 37
3 738 739 740
3 164 741 743
3 741 163 742
3 741 742 743
3 164 744 746
3 746 745 163
3 744 745 746
3 164 747 748
3 165 749 751
3 751 750 164
3 749 750 751
3 165 752 753
3 754 165 755
3 166 756 758
3 756 165 757
3 756 757 758
3 166 759 761
3 761 760 165
3 759 760 761
3 166 762 763
3 167 764 766
3 766 765 166
3 764 765 766
3 167 767 769
3 767 19 768
3 767 768 769
3 770 167 771
3 168 772 774
3 772 167 773
3 772 773 774
3 168 19 167
3 168 125 19
3 169 125 168
3 169 6 125
3 775 169 776
3 777 169 778
3 779 6 780
3 781 780 169
3 779 780 781
3 782 95 783
3 784 783 6
3 782 783 784
3 785 95 786
3 787 38 788
3 789 788 95
3 787 788 789
3 790 38 791
3 792 170 793
3 794 793 38
3 792 793 794
3 795 170 796
3 798 797 170
3 94 799 800
3 171 801 803
3 803 802 94
3 801 802 803
3 171 804 805
3 171 806 808
3 806 46 807
3 806 807 808
3 170 46 171
3 170 809 811
3 811 810 46
3 809 810 811
3 96 812 813
3 815 814 96
3 816 77 817
3 172 818 820
3 818 77 819
3 818 819 820
3 172 30 77
3 98 172 39
3 173 172 98
3 173 30 172
3 173 145 30
3 174 145 173
3 174 0 145
3 821 7 822
3 175 823 824
3 175 825 827
3 825 7 826
3 825 826 827
3 175 99 7
3 176 99 175
3 176 40 99
3 100 176 41
3 177 176 100
3 177 40 176
3 177 174 40
3 178 174 177
3 178 0 174
3 178 52 0
3 179 52 178
3 179 16 52
3 102 179 42
3 180 179 102
3 180 16 179
3 180 120 16
3 828 120 829
3 830 829 180
3 828 829 830
3 832 831 120
3 833 11 834
3 835 11 836
3 837 113 838
3 839 838 11
3 837 838 839
3 840 113 841
3 843 842 113
3 844 25 845
3 846 25 847
3 848 134 849
3 850 849 25
3 848 849 850
3 181 851 853
3 851 134 852
3 851 852 853
3 181 1 134
3 854 181 855
3 182 856 858
3 856 181 857
3 856 857 858
3 182 1 181
3 182 55 1
3 183 55 182
3 183 17 55
3 103 859 861
3 859 183 860
3 859 860 861
3 184 183 103
3 184 17 183
3 184 121 17
3 185 121 184
3 185 862 864
3 864 863 121
3 862 863 864
3 865 43 866
3 105 867 868
3 186 869 871
3 871 870 105
3 869 870 871
3 186 872 874
3 872 43 873
3 872 873 874
3 186 185 43
3 875 185 876
3 877 876 186
3 875 876 877
3 879 878 185
3 108 880 881
3 883 882 108
3 187 884 885
3 187 886 888
3 886 8 887
3 886 887 888
3 129 109 9
3 188 109 129
3 188 44 109
3 111 188 22
3 189 188 111
3 189 44 188
3 189 187 44
3 190 187 189
3 190 8 187
3 190 889 891
3 891 890 8
3 889 890 891
3 893 892 190
3 895 894 45
3 139 61 2
3 896 61 897
3 898 897 139
3 896 897 898
3 900 899 61
3 902 901 28
