ply
format ascii 1.0
element vertex 805
property float x
property float y
property float z
element face 998
property list uchar int vertex_index
end_header
-11.488285 -78.566772 6.409495
-1.269779 -119.455109 -3.612608
-9.238657 -79.194824 -4.195185
-5.426655 -97.988327 5.072063
-2.568136 -100.869583 -10.702463
-8.017303 -70.113129 4.636198
-10.192057 -68.211891 -1.730318
-12.717447 -80.313629 1.102376
-0.605923 -109.002121 2.118323
-1.732515 -102.337601 -2.612814
-1.128853 -112.538086 -8.877348
-7.077288 -126.060013 -9.699503
-6.135807 -119.773987 -15.378782
-15.789948 -121.723206 -19.896633
-10.043928 -64.76712 -7.456696
-7.826767 -75.291138 -9.489393
-11.5261 -87.532394 5.66717
-8.081692 -89.805389 12.202354
-1.904495 -100.291794 11.831027
1.287533 -112.346069 9.740324
-1.681715 -122.978607 4.881916
-9.641903 -127.439819 -0.296653
-7.868162 -91.44458 -0.020724
-3.603846 -90.380127 -5.833607
-10.239424 -75.039536 5.499653
-11.544174 -74.976318 2.468179
-12.637691 -79.588593 3.928304
-0.236984 -114.483932 -0.537788
-0.551962 -111.64299 -3.441158
-1.244701 -116.521637 -6.759668
-12.663895 -64.365326 -13.926355
-10.937693 -73.606667 -3.327477
-10.161718 -66.695679 -4.656778
-9.676271 -71.988258 -6.017265
-9.130522 -69.88604 -8.691778
-7.67094 -77.496826 -6.786545
-3.610941 -95.929871 16.180063
-0.678278 -101.591949 16.15798
0.438597 -106.217926 11.139754
-0.244686 -119.219437 12.249696
-3.236179 -123.370926 9.52528
-5.147615 -126.222824 2.090267
-7.38973 -125.646332 6.793852
-8.859602 -92.719269 5.470083
-10.330582 -90.133606 2.756076
-6.844727 -95.51944 2.372836
-1.078228 -102.291931 -6.776031
-2.35202 -96.928329 -4.255203
-2.292196 -95.798157 -7.840151
-4.440205 -88.507919 -9.014091
-10.419382 -117.037354 -18.927902
-6.193422 -114.968918 -16.419952
-9.504717 -69.308578 1.373949
-11.805273 -74.602173 -0.507802
-11.360451 -80.205429 -1.616863
-2.420549 -103.420944 4.031309
-3.521292 -100.905518 1.392601
-1.306992 -106.329819 -0.575954
-0.666899 -107.635834 -5.447685
-1.401667 -107.294662 -10.061409
-3.582781 -123.457214 -6.78026
-3.272011 -120.57991 -10.092014
-6.531103 -123.449493 -13.157867
-10.461893 -121.49762 -17.98275
-15.685439 -117.668777 -20.986736
-10.098413 -67.368698 -11.369484
-10.07453 -72.5327 -12.156101
-10.491348 -79.628021 8.881107
-12.390921 -82.558456 5.977412
-11.128906 -84.14241 8.831125
-9.853828 -88.981537 8.70483
-7.0007 -94.016159 8.554932
-5.11812 -94.828644 12.084479
-3.661013 -99.310059 8.175034
-0.960796 -104.955597 7.24403
0.422436 -110.832535 5.57383
0.303291 -116.557159 3.211085
0.529457 -118.148346 7.579461
-1.226929 -121.597137 0.374807
-4.024357 -125.397995 -2.595488
-7.959574 -127.478043 -5.24765
-14.822994 -126.506104 -1.914108
-8.605165 -75.423981 8.595432
-6.169491 -70.868896 8.05946
-12.614647 -84.733017 3.132225
-11.184721 -85.894073 0.401966
-8.634447 -85.854462 -2.186581
-4.306929 -96.910889 -0.830265
-5.13043 -91.427078 -2.828154
-6.265274 -84.812012 -4.788145
-5.538982 -83.069984 -7.575583
-7.211342 -80.691277 -10.464201
-2.989174 -116.697052 -12.303804
-3.154388 -111.627335 -13.438799
-11.030132 -77.063034 5.979619
-11.71813 -77.241524 4.591256
-12.124548 -79.056213 5.282143
-0.585835 -117.061951 -2.044121
-0.689041 -115.727112 -3.679098
-1.282682 -118.100571 -5.307966
-10.343712 -76.389252 -3.834414
-10.287394 -72.867233 -4.681444
-9.478024 -75.627609 -5.138252
-8.782232 -74.724205 -6.444357
-8.298828 -78.416031 -5.478315
0.420715 -104.59549 16.013857
-4.493393 -123.093277 11.74914
-5.18672 -124.768066 8.126537
-7.158703 -95.339478 5.324802
-7.961416 -94.278381 3.921852
-6.189056 -96.938705 3.679315
-1.517517 -101.750381 -8.800152
-1.565428 -99.167007 -7.313927
-2.23925 -98.39209 -9.195501
-3.218796 -94.828796 -9.60041
-3.550644 -97.309799 -10.968405
-6.711256 -67.359131 4.299847
-7.567223 -66.839043 2.609109
-8.842218 -69.73381 2.987334
-12.478638 -77.594452 1.68996
-11.831009 -74.855957 0.965178
-12.375004 -77.582596 0.249649
-11.931114 -77.382721 -1.153193
-12.198822 -80.377754 -0.278955
-1.338346 -106.203156 3.183363
-1.843071 -105.062485 1.783187
-1.007866 -107.807266 0.678581
-0.713734 -112.315979 -6.221481
-0.609732 -109.804459 -4.549461
-0.714663 -110.157593 -7.128193
-0.801683 -107.668808 -7.825901
-1.179642 -110.076691 -9.566843
-5.188053 -124.957626 -8.296122
-4.964037 -123.694489 -10.119957
-6.785734 -124.890411 -11.575005
-13.212883 -123.50856 -18.026272
-10.65661 -123.308945 -17.015499
-13.017134 -121.800568 -19.050182
-12.911697 -119.806564 -19.69836
-15.683014 -119.835327 -20.618565
-8.875345 -65.649101 -0.630276
-9.29026 -64.949226 -2.175304
-10.061941 -65.779037 -6.066914
-8.450939 -72.567429 -9.10828
-9.402119 -68.681213 -10.036152
-8.976742 -71.319626 -10.452326
-9.979685 -69.942467 -11.773462
-8.70274 -73.99102 -10.844162
-11.025911 -81.832169 8.878763
-10.328856 -82.357605 10.532385
-9.0842 -87.415573 12.259197
-9.901754 -87.007721 10.45429
-8.954758 -89.418671 10.396812
-8.565636 -91.474319 8.640226
-7.62048 -91.887527 10.335251
-2.681099 -98.029099 14.009546
-4.295322 -95.310394 14.055351
-3.463892 -97.498474 11.991541
-4.361309 -97.057144 10.132036
-2.749542 -99.79277 9.923992
-2.175667 -102.089615 7.795613
-1.333956 -102.638763 9.592399
1.066576 -109.285004 10.538335
0.547245 -108.587814 8.434166
0.920073 -111.605682 7.576805
0.548342 -113.745361 4.468337
0.900688 -114.570023 6.537403
-0.831512 -121.225586 8.597958
0.300217 -118.76387 9.900546
-0.407196 -120.725677 6.273749
-0.254721 -120.040451 4.003826
-1.347704 -122.392654 2.585512
-2.474993 -123.685379 -1.119631
-2.756922 -124.390671 1.1346
-7.284554 -127.101212 0.818455
-6.446766 -127.069672 -1.617998
-8.675562 -127.655838 -2.796795
-10.291332 -127.76973 -6.304916
-11.108961 -127.708252 -3.77552
-16.389027 -126.255295 -5.016462
-7.432306 -73.227585 8.329041
-12.218239 -84.994217 5.80012
-12.713305 -83.749237 4.548402
-12.174841 -86.332794 4.334029
-9.213541 -90.964828 1.359988
-10.842375 -88.219604 1.534545
-9.655745 -88.681824 0.193423
-9.982601 -86.019516 -0.903833
-8.274466 -88.815475 -1.126863
-2.559055 -101.813522 -0.573772
-3.934311 -99.105591 0.240418
-2.847492 -99.629929 -1.58005
-2.884684 -93.77182 -5.033831
-3.5819 -94.187027 -3.409451
-4.124714 -91.012726 -4.300085
-5.653818 -88.232971 -3.803995
-4.810621 -87.606384 -5.210869
-5.625217 -84.01683 -6.155489
-4.500536 -86.800018 -6.677965
-5.780022 -84.654037 -9.702944
-4.555338 -120.421799 -12.932932
-3.109119 -118.776291 -11.341089
-4.407759 -118.39003 -13.894581
-4.519409 -113.441315 -14.992012
-4.902239 -110.509048 -15.206108
-3.567169 -108.630142 -13.693396
-9.212864 -72.694366 5.041702
-10.003799 -72.481842 3.448187
-10.984938 -75.012688 3.984488
-12.239697 -77.457481 3.147725
-12.860209 -80.033974 2.51501
-0.239525 -111.77887 0.86441
-0.538713 -110.529388 -0.633341
-0.435999 -113.185867 -2.104019
-0.724104 -114.160461 -5.074957
-1.175169 -114.679321 -7.949247
-12.399185 -62.052261 -13.503651
-10.898516 -70.871796 -2.630997
-10.237005 -67.508362 -3.214449
-10.569216 -70.153831 -4.049448
-10.178032 -69.306732 -5.435066
-9.851589 -68.344055 -6.801517
-9.712223 -67.279358 -8.160822
-9.249607 -70.989754 -7.351095
-8.404085 -73.700882 -7.767357
-7.487898 -76.454964 -8.127377
-2.064713 -98.696625 16.193884
-1.194145 -100.879425 13.90885
-0.571436 -103.205811 11.560463
0.035469 -103.850082 13.704202
0.914215 -106.909241 13.346781
1.387564 -110.004578 12.797621
-1.57679 -121.499832 10.923687
-2.298992 -123.31871 7.214334
-3.270044 -124.832413 3.46559
-4.07242 -124.970963 5.817498
-6.119875 -126.125168 4.474324
-8.403444 -126.744583 3.243722
-10.367071 -90.116104 5.567616
-11.119108 -88.971329 4.186588
-9.661772 -91.624374 4.068057
-8.649261 -92.831741 2.601554
-7.398623 -93.689133 1.142519
-1.189215 -102.491318 -4.694796
-1.984293 -99.798798 -3.462332
-1.509821 -99.638077 -5.385612
-2.020119 -96.497421 -6.041441
-2.748451 -93.118195 -6.707453
-3.691689 -89.546692 -7.417042
-3.25996 -92.232101 -8.397511
-4.431414 -91.102417 -10.05158
-8.080881 -118.640488 -17.376698
-6.077463 -117.519455 -16.031881
-8.164913 -116.176346 -17.727718
-8.299751 -66.27475 0.965056
-9.958176 -68.808228 -0.200268
-10.610655 -72.233032 1.876822
-10.969183 -71.90097 0.334237
-11.056395 -71.453049 -1.170298
-11.48317 -74.188019 -1.939278
-11.21357 -76.981949 -2.512024
-10.319681 -79.80262 -2.916212
-3.809177 -100.679977 4.654828
-4.501581 -99.618408 3.272632
-3.024137 -102.327057 2.649308
-2.241402 -103.617004 0.538025
-1.529974 -104.515625 -1.663414
-0.742992 -109.017731 -1.920115
-0.878555 -107.19046 -3.006411
-1.002825 -105.016235 -3.918051
-0.798262 -105.126648 -6.172895
-1.049553 -104.856842 -8.36348
-1.853422 -104.213089 -10.419092
-2.2731 -121.60553 -5.204353
-2.201578 -120.253433 -6.948195
-3.432396 -122.134232 -8.563925
-4.753262 -122.184174 -11.672903
-6.305151 -121.745987 -14.42646
-8.592148 -124.341339 -14.509146
-8.345036 -122.716476 -15.798964
-8.159767 -120.817596 -16.747311
-10.366703 -119.407394 -18.604404
-12.93619 -117.536087 -20.02198
-9.573833 -64.167694 -3.671951
-9.858406 -66.120987 -9.517986
-11.204403 -65.934875 -12.671511
-11.409269 -68.417244 -13.045021
-11.090761 -79.084671 7.464862
-12.084583 -80.329857 6.191787
-11.651083 -81.180885 7.412093
-11.833109 -83.474045 7.312115
-11.530851 -85.894379 7.211553
-10.369137 -84.651947 10.504663
-10.734884 -86.533737 8.768047
-10.730612 -88.38707 7.126633
-9.498491 -90.920212 7.052423
-7.958229 -93.484329 6.96358
-6.263706 -96.087296 6.817883
-6.711386 -92.270523 12.146683
-6.036572 -94.427414 10.256434
-5.314222 -96.622238 8.414206
-4.571875 -98.744995 6.564648
-3.021265 -101.470734 6.156017
-1.719007 -104.265915 5.557412
-0.736603 -107.115189 4.753863
-0.214014 -105.581635 9.103277
-0.083374 -107.883896 6.503579
-0.112581 -109.985733 3.750759
0.140657 -112.830383 2.569769
0.028418 -115.592178 1.242489
-0.43442 -118.208755 -0.195128
1.435877 -113.066895 12.035477
0.724182 -116.608459 13.43442
1.065849 -116.015427 11.061554
1.102638 -115.327469 8.747383
0.502108 -117.407303 5.335688
-0.295006 -119.198029 1.833734
-1.230061 -120.615967 -1.705338
-2.342216 -122.750214 -3.247705
-3.757647 -124.550629 -4.776293
-5.464514 -125.961273 -6.237581
-4.463816 -125.96817 -0.287748
-5.859705 -126.677597 -3.992239
-7.447817 -126.934143 -7.571594
-9.801403 -125.985031 5.582063
-10.87756 -126.816605 2.171957
-13.491259 -126.35347 1.291049
-12.17197 -127.234726 -1.215595
-13.697321 -127.231903 -4.520927
-7.840992 -75.812424 10.280883
-9.646317 -77.519623 8.793617
-10.329185 -77.153549 7.335767
-5.786175 -67.854553 6.038215
-7.100527 -70.480774 6.323037
-8.326427 -72.927032 6.66153
-9.417482 -75.156067 7.020934
-12.687611 -81.291512 4.853419
-12.940348 -82.099777 3.459045
-12.800976 -82.717468 2.058775
-11.706718 -87.426529 2.912445
-12.092916 -85.461151 1.746517
-12.257557 -83.094368 0.685246
-11.355379 -83.201004 -0.646494
-10.201727 -83.036636 -1.938755
-8.956104 -82.625443 -3.208572
-5.088667 -98.207062 1.991533
-5.585934 -96.399139 0.795162
-6.025534 -94.184525 -0.332607
-3.169241 -97.07605 -2.513638
-4.690624 -94.337738 -1.84457
-6.444536 -91.586182 -1.408676
-6.873495 -88.650742 -2.450186
-7.328424 -85.436951 -3.471916
-7.808277 -82.005859 -4.482141
-6.947771 -81.217026 -5.785442
-6.532743 -80.286407 -7.133081
-6.666355 -79.222504 -8.519711
-4.817133 -85.820511 -8.188753
-6.070066 -81.968201 -9.025955
-7.385523 -78.014801 -9.918314
-8.66301 -76.640518 -11.287857
-2.098553 -118.677383 -8.444555
-1.978302 -116.847885 -9.670572
-1.892004 -114.732574 -10.620806
-4.37306 -116.068008 -14.57058
-2.980522 -114.318115 -12.992235
-1.911598 -112.307358 -11.311098
-2.110098 -109.565063 -11.778786
-2.54488 -106.518799 -12.078163
-3.248074 -103.199509 -12.271782
-5.266968 -122.77066 12.783117
-4.27248 -122.138001 13.537566
-5.546926 -123.642364 11.036199
-5.266968 -122.77066 12.783117
-10.023415 -63.561524 -7.003712
-10.032422 -64.067482 -6.308821
-10.052934 -65.273078 -6.761805
-10.177866 -63.049509 -7.705732
-10.023415 -63.561524 -7.003712
-10.125039 -64.217514 -8.146178
-10.177866 -63.049509 -7.705732
-9.746037 -81.482429 11.42297
-10.076142 -81.244419 10.524085
-6.022063 -109.741035 -15.904289
-5.719931 -111.313217 -15.898601
-5.227534 -108.897789 -15.238485
-6.022063 -109.741035 -15.904289
-13.267121 -62.415362 -14.348225
-13.134766 -61.258829 -14.136872
-12.53154 -63.208793 -13.715003
-1.371495 -100.144287 16.175932
-1.859396 -99.103249 17.366452
-1.166179 -100.550911 17.348499
1.02849 -107.287865 14.524987
0.667465 -105.752365 14.680319
0.78174 -106.130989 15.858526
1.265165 -108.835533 14.250407
1.150889 -108.456909 13.072201
1.02849 -107.287865 14.524987
-2.406484 -122.435379 10.224483
-2.116589 -121.500709 12.056418
-2.946284 -122.436256 11.357215
-4.605109 -92.340385 -10.656242
-3.825105 -92.965607 -9.825995
-3.9988 -94.203575 -10.430657
-5.319389 -90.407059 -10.830261
-4.605109 -92.340385 -10.656242
-9.754437 -124.587364 -15.093112
-8.737655 -125.013169 -13.693632
-15.759699 -116.451583 -21.029545
-14.385074 -116.385238 -20.547166
-14.310814 -117.602432 -20.504358
-10.224612 -66.118961 -11.119089
-9.876465 -66.775219 -10.452423
-9.750266 -68.024956 -10.702818
-10.652312 -65.442735 -11.785452
-10.224612 -66.118961 -11.119089
-10.651408 -66.651787 -12.020498
-11.205307 -64.725824 -12.436466
-10.652312 -65.442735 -11.785452
-10.966276 -71.714661 -12.776336
-11.633645 -69.656933 -13.220796
-10.741899 -70.474972 -12.600561
-9.99232 -84.870728 11.406918
-10.001071 -83.736809 11.419321
-4.386009 -94.612137 16.171645
-4.094302 -94.978432 17.281151
-5.499255 -93.773308 13.085272
-5.087856 -94.014183 14.070708
-4.706721 -95.069519 13.069915
-5.914753 -93.549583 12.115581
-6.295888 -92.494248 13.116373
-5.499255 -93.773308 13.085272
1.36535 -113.410325 13.228906
1.437264 -111.905716 13.607903
0.239748 -117.913948 12.842058
0.383064 -116.835685 14.622259
-0.10137 -118.141175 14.029896
-8.821562 -127.455483 -6.982435
-8.565684 -127.183533 -8.144407
-7.703696 -127.206093 -6.409622
-11.213188 -127.603966 -7.962678
-11.551029 -127.656792 -6.712414
-11.087029 -125.886978 5.057114
-10.62497 -125.403435 6.672759
-11.625108 -126.302765 3.352062
-10.339482 -126.400818 3.87701
-11.087029 -125.886978 5.057114
-14.157127 -126.429787 -0.31153
-14.842715 -125.871994 0.955611
-15.508583 -125.948311 -0.646967
-15.927711 -126.534859 -6.341207
-17.298016 -125.936783 -6.475629
-7.494906 -76.039883 11.189975
-6.848362 -74.938492 11.103545
-10.068832 -78.573822 8.837362
-9.299643 -77.741474 9.613957
-9.722158 -78.795673 9.657702
-4.651517 -66.764923 6.850426
-5.105632 -66.472503 5.929802
-5.512249 -69.606632 7.944827
-5.073373 -69.856361 8.872595
-6.635009 -70.674835 7.191249
-5.977767 -69.412571 7.076616
-5.512249 -69.606632 7.944827
-3.397537 -105.934319 -12.947322
-3.056024 -107.574471 -12.885779
-3.908681 -106.98999 -13.754938
-3.749134 -104.274674 -13.044131
-2.896477 -104.859154 -12.174972
-3.397537 -105.934319 -12.947322
-13.528056 -63.50828 -14.529324
-12.921758 -65.547584 -14.089255
-0.540025 -102.009986 17.360535
-1.166179 -100.550911 17.348499
0.009471 -103.511757 17.288474
-0.128782 -103.093719 16.085918
-0.540025 -102.009986 17.360535
0.478322 -105.013047 17.238376
0.009471 -103.511757 17.288474
0.78174 -106.130989 15.858526
0.478322 -105.013047 17.238376
-3.574891 -122.297432 12.469145
-4.27248 -122.138001 13.537566
-3.864786 -123.232101 10.63721
-2.946284 -122.436256 11.357215
-3.574891 -122.297432 12.469145
-5.89359 -124.479759 9.224897
-4.840057 -123.930672 9.937839
-5.546926 -123.642364 11.036199
-6.995095 -124.918892 8.558554
-6.288225 -125.207199 7.460195
-5.89359 -124.479759 9.224897
-4.164724 -95.444076 -11.114655
-3.9988 -94.203575 -10.430657
-3.38472 -96.069298 -10.284408
-10.543329 -115.71064 -18.970726
-11.776129 -116.014435 -19.508215
-7.13924 -67.099087 3.454478
-6.459745 -65.663205 3.324966
-6.031761 -65.923248 4.170335
-11.934746 -123.408752 -17.520885
-10.786669 -124.071167 -16.346288
-12.064805 -124.170974 -16.851675
-8.341387 -64.067995 -0.788364
-7.976278 -64.421625 0.013321
-8.548845 -63.718058 -1.560879
-8.341387 -64.067995 -0.788364
-9.082802 -65.299163 -1.40279
-8.864199 -63.339012 -2.334236
-8.548845 -63.718058 -1.560879
-9.923513 -64.540775 -5.596923
-9.973402 -64.999096 -4.891855
-10.111829 -66.237358 -5.361846
-9.923513 -64.540775 -5.596923
-10.032422 -64.067482 -6.308821
-10.42467 -80.981701 9.697274
-10.75863 -80.730095 8.879935
-10.157388 -79.879627 9.698446
-10.677384 -82.094887 9.705574
-10.42467 -80.981701 9.697274
-10.076142 -81.244419 10.524085
-9.492977 -87.211647 11.356744
-9.758629 -86.048614 11.381732
-9.349851 -86.25254 12.284185
-11.959844 -127.626053 -5.447716
-11.551029 -127.656792 -6.712414
-10.700147 -127.738991 -5.040218
-16.184867 -125.901543 -2.14779
-15.508583 -125.948311 -0.646967
-16.967884 -125.776139 -3.698967
-15.606011 -126.380699 -3.465285
-16.184867 -125.901543 -2.14779
-17.763721 -125.542419 -5.138367
-16.967884 -125.776139 -3.698967
-17.298016 -125.936783 -6.475629
-17.763721 -125.542419 -5.138367
-10.157388 -79.879627 9.698446
-9.722158 -78.795673 9.657702
-5.73086 -71.083541 8.961584
-5.073373 -69.856361 8.872595
-6.362267 -72.262886 9.096374
-6.800898 -72.048241 8.19425
-5.73086 -71.083541 8.961584
-7.013936 -73.419365 9.202651
-6.362267 -72.262886 9.096374
-7.600365 -74.517563 9.335847
-8.018736 -74.325783 8.462236
-7.013936 -73.419365 9.202651
-5.803935 -85.949264 -10.136812
-5.110113 -86.580978 -9.358518
-5.134026 -87.876205 -9.792385
-6.560612 -83.965103 -10.434943
-5.803935 -85.949264 -10.136812
-7.276272 -81.983723 -10.815571
-6.495682 -82.672657 -10.083572
-6.560612 -83.965103 -10.434943
-8.053773 -79.952328 -11.152591
-7.276272 -81.983723 -10.815571
-5.528515 -112.77935 -15.791553
-5.356415 -114.205117 -15.705982
-6.365522 -113.543152 -16.505523
-4.710824 -111.975182 -15.09906
-5.528515 -112.77935 -15.791553
-5.719931 -111.313217 -15.898601
-4.559999 -107.958336 -14.482129
-4.234704 -109.569595 -14.449752
-5.227534 -108.897789 -15.238485
-3.908681 -106.98999 -13.754938
-4.559999 -107.958336 -14.482129
-13.006919 -60.219545 -13.872235
-12.371363 -60.952517 -13.209633
-13.006919 -60.219545 -13.872235
-13.134766 -61.258829 -14.136872
-13.267121 -62.415362 -14.348225
-13.528056 -63.50828 -14.529324
-7.980225 -125.872505 -11.288811
-8.155066 -126.393143 -10.315313
-13.343725 -124.209137 -17.314951
-12.064805 -124.170974 -16.851675
-14.593926 -123.409835 -18.39922
-13.343725 -124.209137 -17.314951
-15.882459 -122.517158 -19.3344
-14.501416 -122.615883 -18.961453
-14.593926 -123.409835 -18.39922
-8.993716 -86.476097 13.243324
-9.349851 -86.25254 12.284185
-8.700274 -87.631813 13.217841
-8.993716 -86.476097 13.243324
-8.19902 -88.826721 13.189419
-8.582946 -88.610481 12.230776
-8.700274 -87.631813 13.217841
-3.354094 -96.317734 17.31995
-4.094302 -94.978432 17.281151
-2.580979 -97.701111 17.326861
-1.859396 -99.103249 17.366452
-2.837827 -97.313248 16.186974
-3.354094 -96.317734 17.31995
-2.580979 -97.701111 17.326861
-0.687751 -119.343727 13.408949
-0.10137 -118.141175 14.029896
-1.353803 -120.483925 12.745945
-2.116589 -121.500709 12.056418
-0.910738 -120.359634 11.586692
-0.687751 -119.343727 13.408949
-1.353803 -120.483925 12.745945
-5.129631 -89.173454 -10.311129
-5.134026 -87.876205 -9.792385
-4.435809 -89.805168 -9.532836
-5.129631 -89.173454 -10.311129
-5.319389 -90.407059 -10.830261
-9.416094 -115.280136 -18.370634
-9.292148 -116.60685 -18.32781
-10.543329 -115.71064 -18.970726
-8.314049 -114.797722 -17.790503
-9.416094 -115.280136 -18.370634
-7.328303 -114.194008 -17.13662
-7.179168 -115.572632 -17.073835
-8.314049 -114.797722 -17.790503
-6.365522 -113.543152 -16.505523
-7.328303 -114.194008 -17.13662
-6.908717 -65.348581 2.464215
-6.459745 -65.663205 3.324966
-7.27498 -65.066435 1.642189
-6.908717 -65.348581 2.464215
-7.933487 -66.556896 1.787083
-7.688481 -64.734449 0.810987
-7.27498 -65.066435 1.642189
-8.587548 -65.961926 0.16739
-7.976278 -64.421625 0.013321
-7.688481 -64.734449 0.810987
-7.834448 -125.287704 -12.226562
-6.931511 -125.475212 -10.637254
-7.980225 -125.872505 -11.288811
-7.688941 -124.615875 -13.042075
-7.834448 -125.287704 -12.226562
-8.737655 -125.013169 -13.693632
-9.624379 -123.825142 -15.762322
-9.754437 -124.587364 -15.093112
-10.786669 -124.071167 -16.346288
-13.034534 -116.263801 -20.055254
-11.776129 -116.014435 -19.508215
-11.677786 -117.286721 -19.474941
-13.034534 -116.263801 -20.055254
-14.385074 -116.385238 -20.547166
-17.261011 -121.497689 -20.178099
-15.882459 -122.517158 -19.3344
-17.212802 -120.612229 -20.600758
-17.261011 -121.497689 -20.178099
-17.159335 -119.668289 -20.961723
-15.736481 -120.779267 -20.257599
-17.212802 -120.612229 -20.600758
-17.154171 -118.639237 -21.194893
-17.159335 -119.668289 -20.961723
-17.155383 -117.555961 -21.378979
-15.684227 -118.752052 -20.80265
-17.154171 -118.639237 -21.194893
-17.208973 -116.393639 -21.457079
-17.155383 -117.555961 -21.378979
-15.759699 -116.451583 -21.029545
-17.208973 -116.393639 -21.457079
-9.005985 -62.948246 -3.082559
-8.864199 -63.339012 -2.334236
-9.432047 -64.55846 -2.923628
-9.67946 -63.735103 -4.399442
-9.867776 -65.431686 -4.164364
-9.973402 -64.999096 -4.891855
-9.283171 -62.540977 -3.830679
-9.67946 -63.735103 -4.399442
-9.005985 -62.948246 -3.082559
-9.283171 -62.540977 -3.830679
-9.959186 -65.473633 -8.49824
-10.125039 -64.217514 -8.146178
-9.878075 -66.023239 -7.808759
-10.032278 -64.894447 -9.176823
-9.959186 -65.473633 -8.49824
-9.785315 -66.700173 -8.839404
-10.240813 -64.302952 -9.862766
-10.032278 -64.894447 -9.176823
-10.104609 -65.495106 -10.19334
-9.630263 -67.4011 -9.777069
-9.876465 -66.775219 -10.452423
-10.240813 -64.302952 -9.862766
-10.104609 -65.495106 -10.19334
-11.802698 -62.784517 -12.852536
-12.371363 -60.952517 -13.209633
-11.801794 -63.993568 -13.087581
-11.802698 -62.784517 -12.852536
-11.205307 -64.725824 -12.436466
-12.294445 -67.573543 -13.648588
-12.921758 -65.547584 -14.089255
-12.036582 -66.391285 -13.485688
-12.294445 -67.573543 -13.648588
-11.633645 -69.656933 -13.220796
-9.98093 -82.589638 11.433182
-9.746037 -81.482429 11.42297
-10.348997 -83.504776 10.518524
-9.98093 -82.589638 11.433182
-10.001071 -83.736809 11.419321
-10.135445 -85.829834 10.479477
-9.99232 -84.870728 11.406918
-9.758629 -86.048614 11.381732
-7.676395 -90.020966 13.163716
-8.19902 -88.826721 13.189419
-4.728199 -94.302399 15.109289
-4.386009 -94.612137 16.171645
-3.953131 -95.620133 15.117707
-4.728199 -94.302399 15.109289
-5.087856 -94.014183 14.070708
-6.991242 -91.253533 13.13588
-6.295888 -92.494248 13.116373
-7.396539 -91.037956 12.174518
-7.676395 -90.020966 13.163716
-6.991242 -91.253533 13.13588
1.413108 -110.374557 13.988975
1.265165 -108.835533 14.250407
1.41172 -111.535736 12.416549
1.413108 -110.374557 13.988975
1.437264 -111.905716 13.607903
0.772698 -115.488731 15.141635
0.383064 -116.835685 14.622259
1.009502 -115.181106 13.928377
0.772698 -115.488731 15.141635
1.180336 -114.884591 12.741944
1.009502 -115.181106 13.928377
0.895015 -116.311943 12.247987
1.250863 -114.541161 11.548516
1.36535 -113.410325 13.228906
1.180336 -114.884591 12.741944
-8.34033 -126.830208 -9.251358
-8.155066 -126.393143 -10.315313
-7.262552 -126.497078 -8.635549
-8.34033 -126.830208 -9.251358
-8.565684 -127.183533 -8.144407
-9.987441 -127.601326 -7.511068
-8.821562 -127.455483 -6.982435
-9.125453 -127.623886 -5.776283
-9.987441 -127.601326 -7.511068
-11.213188 -127.603966 -7.962678
-8.162066 -125.207313 7.885542
-6.995095 -124.918892 8.558554
-9.367902 -125.376663 7.279648
-10.62497 -125.403435 6.672759
-8.595567 -125.815682 6.187957
-8.162066 -125.207313 7.885542
-9.367902 -125.376663 7.279648
-14.271938 -125.719963 2.481693
-14.842715 -125.871994 0.955611
-12.931957 -126.071198 2.911608
-14.271938 -125.719963 2.481693
-12.18441 -126.585037 1.731503
-11.625108 -126.302765 3.352062
-12.931957 -126.071198 2.911608
-13.254024 -127.387878 -5.820419
-11.959844 -127.626053 -5.447716
-12.403141 -127.470078 -4.148224
-14.581858 -127.023163 -6.09344
-15.043174 -126.743599 -4.768695
-15.927711 -126.534859 -6.341207
-13.254024 -127.387878 -5.820419
-14.581858 -127.023163 -6.09344
-7.218279 -74.711784 10.178572
-6.848362 -74.938492 11.103545
-8.223078 -75.618202 9.438157
-7.600365 -74.517563 9.335847
-7.218279 -74.711784 10.178572
-8.39698 -76.887875 10.357591
-7.494906 -76.039883 11.189975
-8.743654 -76.666023 9.53725
-8.39698 -76.887875 10.357591
-9.299643 -77.741474 9.613957
-5.568172 -66.224793 5.060618
-6.031761 -65.923248 4.170335
-6.248715 -67.606842 5.169031
-5.568172 -66.224793 5.060618
-5.105632 -66.472503 5.929802
-5.320591 -68.09946 6.934205
-4.651517 -66.764923 6.850426
-6.443351 -69.167664 6.180626
-5.320591 -68.09946 6.934205
-5.977767 -69.412571 7.076616
-8.779607 -77.926949 -11.564419
-7.937176 -78.665897 -10.876029
-8.053773 -79.952328 -11.152591
-9.541819 -75.85815 -11.937723
-8.779607 -77.926949 -11.564419
-10.247579 -73.804242 -12.371845
-9.36877 -74.586609 -11.721979
-9.541819 -75.85815 -11.937723
-10.966276 -71.714661 -12.776336
-10.247579 -73.804242 -12.371845
-4.227749 -102.511582 -13.070638
-3.749134 -104.274674 -13.044131
-3.736124 -101.42463 -12.345897
-4.227749 -102.511582 -13.070638
-3.396155 -100.259667 -11.561238
-2.908105 -102.034546 -11.487122
-3.736124 -101.42463 -12.345897
-3.887409 -98.479774 -11.694209
-3.05939 -99.089691 -10.835434
-3.396155 -100.259667 -11.561238
-4.501511 -96.612572 -11.770441
-3.887409 -98.479774 -11.694209
-4.164724 -95.444076 -11.114655
-4.501511 -96.612572 -11.770441
3 0 96 94
3 1 99 97
3 2 102 100
3 2 104 102
3 370 106 371
3 373 372 106
3 3 110 108
3 4 113 111
3 4 115 113
3 5 118 116
3 7 121 119
3 7 123 121
3 8 126 124
3 10 129 127
3 10 131 129
3 11 134 132
3 13 137 135
3 13 139 137
3 6 141 140
3 14 374 376
3 376 375 142
3 374 375 376
3 14 377 378
3 14 379 380
3 15 145 143
3 15 147 145
3 381 149 382
3 17 152 150
3 17 154 152
3 18 157 155
3 18 159 157
3 18 161 159
3 19 164 162
3 19 166 164
3 20 169 167
3 20 171 169
3 20 173 171
3 21 176 174
3 21 178 176
3 16 183 181
3 22 186 184
3 22 188 186
3 9 191 189
3 23 194 192
3 23 196 194
3 23 198 196
3 12 202 200
3 383 204 384
3 386 385 204
3 24 208 206
3 26 209 95
3 26 210 209
3 27 213 211
3 29 214 98
3 29 215 214
3 30 387 389
3 389 388 216
3 387 388 389
3 31 219 217
3 33 220 101
3 33 221 220
3 33 223 221
3 35 224 103
3 35 225 224
3 37 390 392
3 390 226 391
3 390 391 392
3 37 227 226
3 37 229 227
3 393 230 394
3 395 394 105
3 393 394 395
3 396 231 397
3 398 397 230
3 396 397 398
3 40 399 401
3 399 232 400
3 399 400 401
3 40 233 232
3 40 235 233
3 42 236 107
3 42 237 236
3 43 240 238
3 45 241 109
3 45 242 241
3 46 245 243
3 48 246 112
3 48 247 246
3 48 249 247
3 402 250 403
3 404 403 114
3 402 403 404
3 406 405 250
3 50 253 251
3 52 254 117
3 52 255 254
3 25 256 207
3 53 257 120
3 53 258 257
3 53 259 258
3 54 260 122
3 54 261 260
3 55 264 262
3 57 265 125
3 57 266 265
3 28 267 212
3 58 268 128
3 58 269 268
3 58 270 269
3 59 271 130
3 59 272 271
3 60 275 273
3 62 276 133
3 62 277 276
3 407 278 408
3 63 279 136
3 63 280 279
3 63 281 280
3 64 282 138
3 64 409 411
3 411 410 282
3 409 410 411
3 32 283 218
3 34 284 222
3 65 412 414
3 414 413 144
3 412 413 414
3 65 415 416
3 65 417 419
3 417 285 418
3 417 418 419
3 66 286 146
3 66 420 422
3 422 421 286
3 420 421 422
3 67 289 287
3 69 290 148
3 69 291 290
3 423 292 424
3 70 293 151
3 70 294 293
3 70 295 294
3 71 296 153
3 71 297 296
3 36 425 426
3 72 427 429
3 429 428 156
3 427 428 429
3 72 430 432
3 430 298 431
3 430 431 432
3 72 299 298
3 73 300 158
3 73 301 300
3 73 302 301
3 74 303 160
3 74 304 303
3 38 305 228
3 75 306 163
3 75 307 306
3 75 308 307
3 76 309 165
3 76 310 309
3 433 311 434
3 39 435 437
3 435 312 436
3 435 436 437
3 77 313 168
3 77 314 313
3 77 315 314
3 78 316 170
3 78 317 316
3 78 318 317
3 79 319 172
3 79 320 319
3 41 321 234
3 80 322 175
3 80 323 322
3 80 438 440
3 440 439 323
3 438 439 440
3 442 441 177
3 443 324 444
3 445 325 446
3 447 446 324
3 445 446 447
3 81 448 450
3 448 326 449
3 448 449 450
3 81 327 326
3 81 328 327
3 452 451 179
3 453 329 454
3 67 455 457
3 455 330 456
3 455 456 457
3 67 287 330
3 458 332 459
3 83 460 461
3 83 462 464
3 462 333 463
3 462 463 464
3 83 334 333
3 82 335 180
3 82 331 335
3 68 336 288
3 84 337 182
3 84 338 337
3 44 339 239
3 85 340 185
3 85 341 340
3 85 342 341
3 86 343 187
3 86 344 343
3 56 345 263
3 87 346 190
3 87 347 346
3 47 348 244
3 88 349 193
3 88 350 349
3 88 351 350
3 89 352 195
3 89 353 352
3 89 354 353
3 90 355 197
3 90 356 355
3 49 357 248
3 91 358 199
3 91 359 358
3 91 360 359
3 61 361 274
3 92 362 201
3 92 363 362
3 51 364 252
3 93 365 203
3 93 366 365
3 93 367 366
3 465 368 466
3 467 466 205
3 465 466 467
3 468 369 469
3 470 469 368
3 468 469 470
3 94 95 24
3 96 95 94
3 96 26 95
3 97 98 27
3 99 98 97
3 99 29 98
3 472 471 30
3 100 101 31
3 102 101 100
3 102 33 101
3 102 103 33
3 104 103 102
3 104 35 103
3 473 37 474
3 475 105 476
3 477 476 37
3 475 476 477
3 478 105 479
3 481 480 105
3 106 482 483
3 106 484 486
3 484 40 485
3 484 485 486
3 106 107 40
3 487 107 488
3 489 488 106
3 487 488 489
3 490 42 491
3 492 491 107
3 490 491 492
3 108 109 43
3 110 109 108
3 110 45 109
3 111 112 46
3 113 112 111
3 113 48 112
3 113 114 48
3 115 114 113
3 115 493 495
3 495 494 114
3 493 494 495
3 497 496 50
3 116 498 500
3 498 117 499
3 498 499 500
3 118 117 116
3 118 52 117
3 119 120 25
3 121 120 119
3 121 53 120
3 121 122 53
3 123 122 121
3 123 54 122
3 124 125 55
3 126 125 124
3 126 57 125
3 127 128 28
3 129 128 127
3 129 58 128
3 129 130 58
3 131 130 129
3 131 59 130
3 132 133 60
3 134 133 132
3 134 62 133
3 135 501 503
3 501 136 502
3 501 502 503
3 137 136 135
3 137 63 136
3 137 138 63
3 139 138 137
3 139 64 138
3 140 504 505
3 141 506 508
3 508 507 140
3 506 507 508
3 141 509 510
3 142 511 513
3 513 512 32
3 511 512 513
3 515 514 142
3 143 144 34
3 145 144 143
3 145 65 144
3 145 146 65
3 147 146 145
3 147 66 146
3 516 148 517
3 518 517 67
3 516 517 518
3 149 519 521
3 519 148 520
3 519 520 521
3 149 69 148
3 150 522 524
3 522 151 523
3 522 523 524
3 152 151 150
3 152 70 151
3 152 153 70
3 154 153 152
3 154 71 153
3 155 156 36
3 157 156 155
3 157 72 156
3 157 158 72
3 159 158 157
3 159 73 158
3 159 160 73
3 161 160 159
3 161 74 160
3 162 163 38
3 164 163 162
3 164 75 163
3 164 165 75
3 166 165 164
3 166 76 165
3 167 168 39
3 169 168 167
3 169 77 168
3 169 170 77
3 171 170 169
3 171 78 170
3 171 172 78
3 173 172 171
3 173 79 172
3 174 175 41
3 176 175 174
3 176 80 175
3 176 177 80
3 178 177 176
3 178 525 527
3 527 526 177
3 525 526 527
3 528 81 529
3 530 179 531
3 532 531 81
3 530 531 532
3 533 179 534
3 536 535 179
3 537 67 538
3 539 83 540
3 541 180 542
3 543 542 83
3 541 542 543
3 544 180 545
3 546 82 547
3 548 547 180
3 546 547 548
3 181 182 68
3 183 182 181
3 183 84 182
3 184 185 44
3 186 185 184
3 186 85 185
3 186 187 85
3 188 187 186
3 188 86 187
3 189 190 56
3 191 190 189
3 191 87 190
3 192 193 47
3 194 193 192
3 194 88 193
3 194 195 88
3 196 195 194
3 196 89 195
3 196 197 89
3 198 197 196
3 198 90 197
3 549 199 550
3 551 550 49
3 549 550 551
3 552 199 553
3 554 91 555
3 556 555 199
3 554 555 556
3 558 557 91
3 200 201 61
3 202 201 200
3 202 92 201
3 559 203 560
3 561 560 51
3 559 560 561
3 204 562 564
3 562 203 563
3 562 563 564
3 204 93 203
3 204 205 93
3 565 205 566
3 567 566 204
3 565 566 567
3 569 568 205
3 206 207 5
3 208 207 206
3 208 25 207
3 95 208 24
3 209 208 95
3 209 25 208
3 209 119 25
3 210 119 209
3 210 7 119
3 211 212 8
3 213 212 211
3 213 28 212
3 98 213 27
3 214 213 98
3 214 28 213
3 214 127 28
3 215 127 214
3 215 10 127
3 216 570 571
3 573 572 216
3 575 574 30
3 577 576 11
3 578 135 579
3 580 135 581
3 582 13 583
3 584 583 135
3 582 583 584
3 217 218 6
3 219 218 217
3 219 32 218
3 101 219 31
3 220 219 101
3 220 32 219
3 220 142 32
3 221 142 220
3 221 14 142
3 221 222 14
3 223 222 221
3 223 34 222
3 103 223 33
3 224 223 103
3 224 34 223
3 224 143 34
3 225 143 224
3 225 15 143
3 585 150 586
3 587 150 588
3 589 17 590
3 591 590 150
3 589 590 591
3 592 36 593
3 226 594 595
3 226 596 598
3 596 36 597
3 596 597 598
3 226 155 36
3 227 155 226
3 227 18 155
3 227 228 18
3 229 228 227
3 229 38 228
3 105 229 37
3 230 229 105
3 230 38 229
3 230 162 38
3 231 162 230
3 231 19 162
3 599 39 600
3 232 601 602
3 232 603 605
3 603 39 604
3 603 604 605
3 232 167 39
3 233 167 232
3 233 20 167
3 233 234 20
3 235 234 233
3 235 41 234
3 107 235 40
3 236 235 107
3 236 41 235
3 236 174 41
3 237 174 236
3 237 21 174
3 238 239 16
3 240 239 238
3 240 44 239
3 109 240 43
3 241 240 109
3 241 44 240
3 241 184 44
3 242 184 241
3 242 22 184
3 243 244 9
3 245 244 243
3 245 47 244
3 112 245 46
3 246 245 112
3 246 47 245
3 246 192 47
3 247 192 246
3 247 23 192
3 247 248 23
3 249 248 247
3 249 49 248
3 114 249 48
3 250 249 114
3 250 49 249
3 250 606 608
3 608 607 49
3 606 607 608
3 610 609 250
3 251 252 12
3 253 252 251
3 253 51 252
3 611 253 612
3 613 612 50
3 611 612 613
3 614 253 615
3 616 51 617
3 618 617 253
3 616 617 618
3 620 619 51
3 117 621 622
3 254 623 625
3 625 624 117
3 623 624 625
3 254 626 627
3 254 628 630
3 628 140 629
3 628 629 630
3 255 140 254
3 255 6 140
3 207 118 5
3 256 118 207
3 256 52 118
3 120 256 25
3 257 256 120
3 257 52 256
3 257 255 52
3 258 255 257
3 258 6 255
3 258 217 6
3 259 217 258
3 259 31 217
3 122 259 53
3 260 259 122
3 260 31 259
3 260 100 31
3 261 100 260
3 261 2 100
3 262 263 3
3 264 263 262
3 264 56 263
3 125 264 55
3 265 264 125
3 265 56 264
3 265 189 56
3 266 189 265
3 266 9 189
3 212 126 8
3 267 126 212
3 267 57 126
3 128 267 28
3 268 267 128
3 268 57 267
3 268 266 57
3 269 266 268
3 269 9 266
3 269 243 9
3 270 243 269
3 270 46 243
3 130 270 58
3 271 270 130
3 271 46 270
3 271 111 46
3 272 111 271
3 272 4 111
3 273 274 1
3 275 274 273
3 275 61 274
3 133 275 60
3 276 275 133
3 276 61 275
3 276 200 61
3 277 200 276
3 277 12 200
3 631 134 632
3 633 632 11
3 631 632 633
3 278 634 636
3 634 134 635
3 634 635 636
3 278 62 134
3 136 637 639
3 637 278 638
3 637 638 639
3 279 278 136
3 279 62 278
3 279 277 62
3 280 277 279
3 280 12 277
3 280 251 12
3 281 251 280
3 281 50 251
3 138 281 63
3 282 281 138
3 282 50 281
3 282 640 642
3 642 641 50
3 640 641 642
3 644 643 282
3 645 13 646
3 647 13 648
3 649 139 650
3 651 650 13
3 649 650 651
3 652 139 653
3 654 64 655
3 656 655 139
3 654 655 656
3 657 64 658
3 660 659 64
3 218 141 6
3 283 141 218
3 283 661 663
3 663 662 141
3 661 662 663
3 664 283 665
3 666 665 32
3 664 665 666
3 667 283 668
3 670 669 283
3 222 671 673
3 673 672 14
3 671 672 673
3 284 674 676
3 676 675 222
3 674 675 676
3 284 677 678
3 144 284 34
3 679 284 680
3 681 680 144
3 679 680 681
3 683 682 284
3 684 216 685
3 285 686 688
3 686 216 687
3 686 687 688
3 285 30 216
3 146 285 65
3 286 285 146
3 286 30 285
3 286 689 691
3 691 690 30
3 689 690 691
3 693 692 286
3 287 288 0
3 289 288 287
3 289 68 288
3 148 289 67
3 290 289 148
3 290 68 289
3 290 181 68
3 291 181 290
3 291 16 181
3 694 149 695
3 292 696 698
3 696 149 697
3 696 697 698
3 292 69 149
3 151 699 701
3 699 292 700
3 699 700 701
3 293 292 151
3 293 69 292
3 293 291 69
3 294 291 293
3 294 16 291
3 294 238 16
3 295 238 294
3 295 43 238
3 153 295 70
3 296 295 153
3 296 43 295
3 296 108 43
3 297 108 296
3 297 3 108
3 702 17 703
3 156 704 706
3 706 705 36
3 704 705 706
3 708 707 156
3 298 709 710
3 298 711 713
3 711 17 712
3 711 712 713
3 298 154 17
3 299 154 298
3 299 71 154
3 158 299 72
3 300 299 158
3 300 71 299
3 300 297 71
3 301 297 300
3 301 3 297
3 301 262 3
3 302 262 301
3 302 55 262
3 160 302 73
3 303 302 160
3 303 55 302
3 303 124 55
3 304 124 303
3 304 8 124
3 228 161 18
3 305 161 228
3 305 74 161
3 163 305 38
3 306 305 163
3 306 74 305
3 306 304 74
3 307 304 306
3 307 8 304
3 307 211 8
3 308 211 307
3 308 27 211
3 165 308 75
3 309 308 165
3 309 27 308
3 309 97 27
3 310 97 309
3 310 1 97
3 714 231 715
3 311 716 718
3 716 231 717
3 716 717 718
3 311 19 231
3 312 719 720
3 312 721 722
3 168 312 39
3 313 312 168
3 313 723 725
3 725 724 312
3 723 724 725
3 313 726 728
3 726 311 727
3 726 727 728
3 314 311 313
3 314 19 311
3 314 166 19
3 315 166 314
3 315 76 166
3 170 315 77
3 316 315 170
3 316 76 315
3 316 310 76
3 317 310 316
3 317 1 310
3 317 273 1
3 318 273 317
3 318 60 273
3 172 318 78
3 319 318 172
3 319 60 318
3 319 132 60
3 320 132 319
3 320 11 132
3 234 173 20
3 321 173 234
3 321 79 173
3 175 321 41
3 322 321 175
3 322 79 321
3 322 320 79
3 323 320 322
3 323 11 320
3 323 729 731
3 731 730 11
3 729 730 731
3 733 732 323
3 177 734 736
3 736 735 80
3 734 735 736
3 738 737 177
3 739 42 740
3 324 741 742
3 324 743 745
3 743 42 744
3 743 744 745
3 324 237 42
3 325 237 324
3 325 21 237
3 326 746 747
3 326 748 749
3 326 750 752
3 750 325 751
3 750 751 752
3 327 325 326
3 327 21 325
3 327 178 21
3 328 178 327
3 328 753 755
3 755 754 178
3 753 754 755
3 179 328 81
3 756 328 757
3 758 757 179
3 756 757 758
3 760 759 328
3 329 761 762
3 329 763 765
3 763 82 764
3 763 764 765
3 766 329 767
3 330 768 770
3 768 329 769
3 768 769 770
3 330 82 329
3 330 331 82
3 287 331 330
3 287 0 331
3 771 116 772
3 332 773 775
3 773 116 774
3 773 774 775
3 332 5 116
3 776 332 777
3 333 778 780
3 778 332 779
3 778 779 780
3 333 5 332
3 333 206 5
3 334 206 333
3 334 24 206
3 180 334 83
3 335 334 180
3 335 24 334
3 335 94 24
3 331 94 335
3 331 0 94
3 288 96 0
3 336 96 288
3 336 26 96
3 182 336 68
3 337 336 182
3 337 26 336
3 337 210 26
3 338 210 337
3 338 7 210
3 239 183 16
3 339 183 239
3 339 84 183
3 185 339 44
3 340 339 185
3 340 84 339
3 340 338 84
3 341 338 340
3 341 7 338
3 341 123 7
3 342 123 341
3 342 54 123
3 187 342 85
3 343 342 187
3 343 54 342
3 343 261 54
3 344 261 343
3 344 2 261
3 263 110 3
3 345 110 263
3 345 45 110
3 190 345 56
3 346 345 190
3 346 45 345
3 346 242 45
3 347 242 346
3 347 22 242
3 244 191 9
3 348 191 244
3 348 87 191
3 193 348 47
3 349 348 193
3 349 87 348
3 349 347 87
3 350 347 349
3 350 22 347
3 350 188 22
3 351 188 350
3 351 86 188
3 195 351 88
3 352 351 195
3 352 86 351
3 352 344 86
3 353 344 352
3 353 2 344
3 353 104 2
3 354 104 353
3 354 35 104
3 197 354 89
3 355 354 197
3 355 35 354
3 355 225 35
3 356 225 355
3 356 15 225
3 248 198 23
3 357 198 248
3 357 90 198
3 199 357 49
3 358 357 199
3 358 90 357
3 358 356 90
3 359 356 358
3 359 15 356
3 359 147 15
3 360 147 359
3 360 66 147
3 781 360 782
3 783 782 91
3 781 782 783
3 784 360 785
3 786 66 787
3 788 787 360
3 786 787 788
3 790 789 66
3 274 99 1
3 361 99 274
3 361 29 99
3 201 361 61
3 362 361 201
3 362 29 361
3 362 215 29
3 363 215 362
3 363 10 215
3 252 202 12
3 364 202 252
3 364 92 202
3 203 364 51
3 365 364 203
3 365 92 364
3 365 363 92
3 366 363 365
3 366 10 363
3 366 131 10
3 367 131 366
3 367 59 131
3 205 367 93
3 368 367 205
3 368 59 367
3 368 272 59
3 369 272 368
3 369 4 272
3 791 369 792
3 793 369 794
3 795 4 796
3 797 796 369
3 795 796 797
3 798 115 799
3 800 799 4
3 798 799 800
3 801 115 802
3 804 803 115
