ply
format ascii 1.0
element vertex 404
property float x
property float y
property float z
element face 452
property list uchar int vertex_index
end_header
-8.314447 42.529835 -32.877678
-20.882017 66.455368 -25.408886
0.115778 69.983734 -29.817879
-15.135777 26.896774 -30.7178
-1.18479 40.450409 -33.002716
-12.566252 56.237873 -31.080734
-7.822794 71.090042 -29.747959
-2.803162 57.736675 -34.180843
2.193407 53.746761 -32.191376
-12.691938 42.033298 -32.146896
-15.638957 34.391907 -31.544178
-11.530058 34.588413 -31.715847
-18.434872 54.188412 -28.870682
-16.271576 61.786274 -28.413769
-5.899792 77.236404 -27.171719
-2.931692 71.44133 -30.638382
-4.828167 64.924362 -32.594799
-0.881121 64.389847 -32.993835
0.400566 56.405552 -33.99649
1.394388 62.238316 -31.679756
-12.745764 17.033455 -28.497551
-18.885017 27.212807 -30.97123
-19.161568 19.924156 -30.259544
-4.415627 42.084679 -33.216183
-7.723143 34.138752 -31.642345
-15.009011 48.530514 -31.097939
-9.915268 49.851917 -32.723759
-11.801834 75.944611 -26.048832
-14.025398 69.24855 -27.699356
-10.126091 63.906078 -30.837967
-7.25 57.58749 -33.062069
-5.378384 50.346996 -33.891182
-1.628469 49.605556 -34.284069
1.047157 47.551693 -33.540833
2.594971 44.470856 -31.281952
-11.540688 26.172657 -30.203587
-15.920045 18.72686 -29.394154
-10.450159 42.37252 -32.556961
-11.96545 38.434944 -32.10778
-9.882551 38.553581 -32.292091
-19.521879 60.47813 -27.231106
-18.482218 64.240005 -26.916424
-0.749981 73.511032 -28.439369
-2.263905 74.258835 -28.957314
-1.16083 70.939316 -30.455956
-1.800434 68.046417 -31.972466
-0.258581 67.336823 -31.665176
0.467056 63.4995 -32.558445
0.8225 66.212265 -30.906223
-15.22392 30.744602 -31.251774
-17.219223 30.724606 -31.242661
-16.997711 27.085049 -30.890198
-18.865627 23.620037 -30.640057
-17.106842 23.287769 -30.384701
-2.70083 41.417698 -33.199356
-4.250193 37.534142 -32.414478
-15.448972 55.269833 -29.957672
-16.589157 51.458317 -30.08984
-13.790543 52.369228 -31.090435
-12.402924 49.262905 -31.942829
-11.107119 53.153217 -32.070045
-6.796902 74.324417 -28.675041
-8.667059 76.785904 -26.760147
-9.696545 73.705154 -27.977303
-12.899733 72.734756 -27.032875
-10.80265 70.322357 -28.815948
-11.953348 66.710358 -29.346115
-8.94379 67.593399 -30.443321
-3.701084 61.448177 -33.565483
-5.992773 61.330074 -32.973892
-4.894196 57.838642 -33.759888
-6.194239 54.086369 -33.668926
-4.030422 54.113628 -34.173588
-3.386063 50.145458 -34.203423
-2.117672 53.79211 -34.420483
1.464918 55.216747 -33.307117
0.79631 52.091961 -33.948784
1.764599 50.774784 -33.136276
1.946867 46.113552 -32.612999
2.439232 49.216976 -31.90659
-7.804365 29.541306 -30.694897
-9.562061 30.127251 -30.875393
-9.81579 25.552319 -29.927124
-14.324534 17.956581 -28.929661
-16.769608 14.511887 -28.852459
-15.028726 41.57275 -31.665478
-16.379856 37.826366 -31.516914
-14.135559 38.173775 -31.847172
-13.550266 34.544235 -31.667477
-13.276266 30.684155 -31.17944
-21.479794 53.042248 -27.90099
-20.523521 56.727535 -27.54324
-17.366991 57.972767 -28.638481
-14.291384 59.115467 -29.831573
-4.294033 74.524994 -29.025089
-5.172291 71.481781 -30.38409
-6.199167 68.148727 -31.305809
-3.795532 68.31366 -31.838612
-2.656719 64.867355 -32.994308
-1.739536 61.176167 -33.814995
-1.025951 57.257084 -34.275093
-0.153492 60.504551 -33.675175
1.036425 59.456226 -33.112019
1.847872 58.082653 -32.114391
0.254669 72.311401 -27.483719
0.927254 68.624237 -28.745403
-17.777544 34.181038 -31.341763
-19.237522 30.665142 -31.138489
-6.29644 42.448254 -33.100639
-7.894028 38.472385 -32.403019
-6.010229 38.142883 -32.445911
-5.951948 33.557022 -31.549202
-19.469145 50.473766 -29.145889
-17.708899 47.712322 -30.252235
-16.223347 44.748795 -31.119099
-13.707611 45.39362 -31.804031
-11.289663 45.936611 -32.443413
-8.986446 46.317371 -32.995621
-19.841179 70.023376 -24.891453
-15.200153 74.786545 -25.148232
-16.310764 71.48558 -25.96273
-17.409466 67.93898 -26.523266
-15.154634 65.570221 -28.129444
-13.122427 62.949604 -29.654495
-11.340641 60.099949 -31.021084
-7.339878 64.586578 -31.850601
-8.557993 60.860836 -32.100204
-9.821453 57.032627 -32.144962
-8.565392 53.747334 -32.950989
-7.565754 50.23357 -33.38665
-6.812664 46.473736 -33.431335
-4.789267 46.352283 -33.729427
-2.946724 45.918415 -33.864342
-1.321341 45.162533 -33.794849
-0.498903 53.111942 -34.362381
-0.143183 48.731274 -34.08223
0.054691 44.100449 -33.463223
1.165987 42.768185 -32.807384
2.024378 41.213291 -31.781368
1.488888 64.735046 -29.718849
1.958498 60.674709 -30.37833
2.345711 56.452869 -30.698826
2.655136 52.061031 -30.663704
2.891411 47.47765 -30.276058
3.062805 42.675514 -29.570026
-9.585955 34.470051 -31.701603
-11.387587 30.494656 -31.045212
-13.314793 26.607376 -30.478474
-11.992697 21.664131 -29.314659
-13.66526 22.346867 -29.686333
-15.370673 22.875774 -30.055779
-17.53307 19.372307 -29.850235
-21.379055 64.6159 -25.613756
-22.628805 65.651291 -24.930535
-19.682118 65.347687 -26.162655
-20.179156 63.508218 -26.367525
-21.379055 64.6159 -25.613756
-1.912891 38.544041 -32.640836
-2.670911 39.027685 -32.739156
-1.94281 40.934054 -33.101036
-8.980387 25.134652 -29.800998
-8.810078 27.546813 -30.311011
-7.974675 27.129145 -30.184885
-17.333122 12.407553 -28.686172
-16.027012 14.00998 -28.585203
-18.008191 12.961751 -29.009521
-17.333122 12.407553 -28.686172
-21.671655 57.901737 -26.872543
-22.114655 56.075825 -27.080751
0.224032 73.313652 -26.104965
-0.151861 74.027779 -26.720676
0.537083 71.520386 -26.810719
0.224032 73.313652 -26.104965
-19.827244 27.261927 -30.955774
-20.003496 28.988094 -31.039404
-19.06127 28.938975 -31.054859
-19.757126 25.558247 -30.883135
-19.827244 27.261927 -30.955774
-19.979266 20.16762 -30.424879
-19.831295 22.01556 -30.615136
-19.013597 21.772096 -30.449801
-20.201214 18.401516 -30.350779
-19.979266 20.16762 -30.424879
-5.121522 33.131809 -31.481098
-5.101071 35.545582 -31.98184
-4.270644 35.120369 -31.913736
-6.038596 31.134224 -31.031592
-5.121522 33.131809 -31.481098
-19.300303 71.702309 -24.535698
-21.113889 70.904159 -24.074631
-6.823837 78.374 -26.146492
-5.529582 78.511634 -26.194454
-11.282512 77.377724 -25.368021
-9.715125 77.798371 -25.723678
-10.234447 76.365257 -26.40449
-12.951511 76.852631 -25.0287
-11.282512 77.377724 -25.368021
-13.500993 75.365578 -25.598532
-14.650671 76.273598 -24.5784
-12.951511 76.852631 -25.0287
2.634116 41.978248 -30.828165
2.348819 40.349466 -31.077873
2.309674 42.842073 -31.53166
1.4241 65.837631 -28.503132
1.208071 66.679642 -29.232126
1.143283 67.782227 -28.016409
2.108781 59.781326 -29.538433
1.897155 61.83107 -29.264219
2.302388 57.670406 -29.698681
2.152105 58.563789 -30.538578
2.108781 59.781326 -29.538433
2.802015 51.141338 -29.716845
2.642809 53.349926 -29.786219
2.920153 48.849648 -29.523021
2.773274 49.76934 -30.469881
2.802015 51.141338 -29.716845
3.250835 41.723217 -28.553554
3.139378 44.142084 -28.933301
3.12232 40.153317 -29.093534
3.250835 41.723217 -28.553554
-12.369231 19.348793 -28.906105
-11.17353 21.230797 -29.145717
-11.550063 18.915458 -28.737164
-20.698986 61.627281 -26.524866
-21.170834 59.777034 -26.716476
-19.002049 62.359067 -27.073765
-20.698986 61.627281 -26.524866
-20.179156 63.508218 -26.367525
-1.506943 73.884934 -28.698341
-2.034394 75.496003 -27.876396
-1.277432 75.122101 -27.617424
-3.445593 37.085907 -32.346717
-3.475512 39.47592 -32.806917
-2.670911 39.027685 -32.739156
-4.270644 35.120369 -31.913736
-3.445593 37.085907 -32.346717
-14.804475 15.732326 -28.623804
-13.535149 17.495018 -28.713606
-14.01509 15.270764 -28.407749
-15.547071 16.234234 -28.89106
-14.804475 15.732326 -28.623804
-16.027012 14.00998 -28.585203
-17.512736 14.95212 -29.131645
-17.087954 17.059607 -29.402493
-16.344826 16.619373 -29.123306
-17.512736 14.95212 -29.131645
-18.008191 12.961751 -29.009521
-15.704291 39.699558 -31.591196
-16.910001 39.436029 -31.328428
-16.234437 41.309221 -31.40271
-1.197809 37.958709 -32.493873
-0.539155 39.829026 -32.7825
-22.592791 54.233181 -27.259626
-22.9997 52.455803 -27.496593
-21.001658 54.884892 -27.722115
-22.592791 54.233181 -27.259626
-22.114655 56.075825 -27.080751
-20.0227 58.602833 -27.387173
-21.671655 57.901737 -26.872543
-21.170834 59.777034 -26.716476
-4.745607 77.23407 -27.185555
-5.529582 78.511634 -26.194454
-2.927663 75.745285 -28.078352
-2.034394 75.496003 -27.876396
-3.942727 75.878365 -28.11224
-2.927663 75.745285 -28.078352
-3.278969 74.391915 -28.991202
-5.096913 75.880699 -28.098404
-4.745607 77.23407 -27.185555
-3.942727 75.878365 -28.11224
-11.965072 16.485529 -28.314812
-11.550063 18.915458 -28.737164
-13.271396 14.697693 -28.1726
-11.965072 16.485529 -28.314812
-14.01509 15.270764 -28.407749
-13.271396 14.697693 -28.1726
-22.147149 67.428223 -24.668005
-22.628805 65.651291 -24.930535
-0.654186 74.627594 -27.198501
-1.277432 75.122101 -27.617424
-0.247656 72.911216 -27.961544
-0.654186 74.627594 -27.198501
-0.151861 74.027779 -26.720676
0.873375 69.676804 -27.441561
0.590962 70.467819 -28.114561
0.537083 71.520386 -26.810719
1.143283 67.782227 -28.016409
0.873375 69.676804 -27.441561
-17.525257 37.633274 -31.322874
-16.910001 39.436029 -31.328428
-18.224101 35.81061 -31.235298
-17.525257 37.633274 -31.322874
-17.0787 36.003702 -31.429339
-18.854119 34.065653 -31.199542
-18.224101 35.81061 -31.235298
-19.584108 32.307705 -31.097904
-18.854119 34.065653 -31.199542
-18.507533 32.42309 -31.240126
-20.238231 30.630038 -31.031368
-19.584108 32.307705 -31.097904
-20.238231 30.630038 -31.031368
-20.003496 28.988094 -31.039404
-19.747431 23.761862 -30.717548
-19.757126 25.558247 -30.883135
-18.875322 25.416422 -30.805643
-19.747431 23.761862 -30.717548
-19.831295 22.01556 -30.615136
-6.964804 29.126366 -30.604439
-6.878156 31.549164 -31.12205
-6.038596 31.134224 -31.031592
-7.974675 27.129145 -30.184885
-6.964804 29.126366 -30.604439
-1.912891 38.544041 -32.640836
-1.197809 37.958709 -32.493873
-21.929319 51.249649 -28.107449
-22.9997 52.455803 -27.496593
-20.923995 49.965408 -28.729899
-21.929319 51.249649 -28.107449
-20.474469 51.758007 -28.52344
-19.965877 48.664074 -29.303518
-20.923995 49.965408 -28.729899
-19.085753 47.283352 -29.856691
-19.965877 48.664074 -29.303518
-18.589022 49.093044 -29.699062
-18.258155 45.882698 -30.34292
-19.085753 47.283352 -29.856691
-17.515379 44.400935 -30.776352
-18.258155 45.882698 -30.34292
-16.966123 46.230559 -30.685667
-16.831747 42.897244 -31.12952
-17.515379 44.400935 -30.776352
-15.626037 43.160773 -31.392288
-16.234437 41.309221 -31.40271
-16.831747 42.897244 -31.12952
-21.62673 69.212226 -24.409288
-21.113889 70.904159 -24.074631
-20.361598 68.239372 -25.150169
-22.147149 67.428223 -24.668005
-21.62673 69.212226 -24.409288
-8.207471 78.148751 -25.940706
-6.823837 78.374 -26.146492
-7.283425 77.011154 -26.965933
-8.207471 78.148751 -25.940706
-9.715125 77.798371 -25.723678
-16.425323 75.611053 -24.172846
-14.650671 76.273598 -24.5784
-16.97979 74.083893 -24.664088
-16.425323 75.611053 -24.172846
-17.535095 72.433411 -25.071337
-16.97979 74.083893 -24.664088
-15.755458 73.136063 -25.555481
-18.075972 70.754478 -25.427091
-19.300303 71.702309 -24.535698
-17.535095 72.433411 -25.071337
0.080586 41.654045 -33.012753
-0.539155 39.829026 -32.7825
-0.565049 42.275429 -33.232969
0.636234 40.987914 -32.684833
0.080586 41.654045 -33.012753
0.610339 43.434317 -33.135303
1.165709 40.2486 -32.311256
0.636234 40.987914 -32.684833
1.594904 39.471153 -31.798248
1.165709 40.2486 -32.311256
1.595182 41.990738 -32.294376
2.017608 38.636976 -31.251131
1.594904 39.471153 -31.798248
2.017608 38.636976 -31.251131
2.348819 40.349466 -31.077873
1.66235 63.861238 -28.934478
1.4241 65.837631 -28.503132
1.723693 62.704877 -30.048589
1.66235 63.861238 -28.934478
1.897155 61.83107 -29.264219
2.488097 55.545845 -29.80378
2.302388 57.670406 -29.698681
2.500424 54.25695 -30.681265
2.488097 55.545845 -29.80378
2.642809 53.349926 -29.786219
3.053681 46.543152 -29.286317
2.920153 48.849648 -29.523021
2.977108 45.076582 -29.923042
3.053681 46.543152 -29.286317
3.139378 44.142084 -28.933301
2.868032 41.080578 -29.972202
2.634116 41.978248 -30.828165
2.828888 43.573185 -30.425989
2.868032 41.080578 -29.972202
3.12232 40.153317 -29.093534
-10.085076 23.174891 -29.45195
-8.980387 25.134652 -29.800998
-10.904243 23.608225 -29.620891
-10.085076 23.174891 -29.45195
-11.17353 21.230797 -29.145717
-17.894467 17.38233 -29.630533
-16.726557 19.049583 -29.622194
-17.087954 17.059607 -29.402493
-18.639728 17.772812 -29.901305
-17.894467 17.38233 -29.630533
-19.453978 18.048737 -30.105959
-18.347319 19.648232 -30.05489
-18.639728 17.772812 -29.901305
-20.201214 18.401516 -30.350779
-19.453978 18.048737 -30.105959
3 0 39 37
3 1 152 153
3 1 154 156
3 154 41 155
3 154 155 156
3 2 44 42
3 2 46 44
3 2 48 46
3 3 51 49
3 3 53 51
3 4 157 159
3 159 158 54
3 157 158 159
3 5 58 56
3 5 60 58
3 6 63 61
3 6 65 63
3 6 67 65
3 7 70 68
3 7 72 70
3 7 74 72
3 8 77 75
3 8 79 77
3 160 82 161
3 162 161 80
3 160 161 162
3 163 84 164
3 166 165 84
3 9 87 85
3 11 88 38
3 11 89 88
3 167 91 168
3 13 92 40
3 13 93 92
3 15 94 43
3 15 95 94
3 15 97 95
3 17 98 45
3 17 99 98
3 17 101 99
3 19 102 47
3 19 103 102
3 169 104 170
3 172 171 104
3 10 106 86
3 21 107 50
3 21 173 175
3 175 174 107
3 173 174 175
3 21 176 177
3 22 178 180
3 180 179 52
3 178 179 180
3 22 181 182
3 23 110 108
3 183 111 184
3 185 184 55
3 183 184 185
3 187 186 111
3 12 112 90
3 25 113 57
3 25 114 113
3 25 115 114
3 26 116 59
3 26 117 116
3 188 118 189
3 14 190 191
3 27 192 194
3 194 193 62
3 192 193 194
3 27 195 196
3 27 197 199
3 197 119 198
3 197 198 199
3 28 120 64
3 28 121 120
3 28 122 121
3 29 123 66
3 29 124 123
3 16 125 96
3 30 126 69
3 30 127 126
3 30 128 127
3 31 129 71
3 31 130 129
3 31 131 130
3 32 132 73
3 32 133 132
3 18 134 100
3 33 135 76
3 33 136 135
3 33 137 136
3 34 138 78
3 34 200 202
3 202 201 138
3 200 201 202
3 203 139 204
3 205 204 105
3 203 204 205
3 206 140 207
3 208 141 209
3 210 209 140
3 208 209 210
3 211 142 212
3 213 143 214
3 215 214 142
3 213 214 215
3 216 144 217
3 219 218 144
3 24 145 109
3 35 146 81
3 35 147 146
3 20 220 222
3 220 148 221
3 220 221 222
3 36 149 83
3 36 150 149
3 36 151 150
3 37 38 9
3 39 38 37
3 39 11 38
3 223 40 224
3 41 225 227
3 225 40 226
3 225 226 227
3 41 13 40
3 42 228 230
3 228 43 229
3 228 229 230
3 44 43 42
3 44 15 43
3 44 45 15
3 46 45 44
3 46 17 45
3 46 47 17
3 48 47 46
3 48 19 47
3 49 50 10
3 51 50 49
3 51 21 50
3 51 52 21
3 53 52 51
3 53 22 52
3 54 55 23
3 231 55 232
3 233 232 54
3 231 232 233
3 235 234 55
3 56 57 12
3 58 57 56
3 58 25 57
3 58 59 25
3 60 59 58
3 60 26 59
3 61 62 14
3 63 62 61
3 63 27 62
3 63 64 27
3 65 64 63
3 65 28 64
3 65 66 28
3 67 66 65
3 67 29 66
3 68 69 16
3 70 69 68
3 70 30 69
3 70 71 30
3 72 71 70
3 72 31 71
3 72 73 31
3 74 73 72
3 74 32 73
3 75 76 18
3 77 76 75
3 77 33 76
3 77 78 33
3 79 78 77
3 79 34 78
3 80 81 24
3 82 81 80
3 82 35 81
3 236 83 237
3 238 237 20
3 236 237 238
3 84 239 241
3 239 83 240
3 239 240 241
3 84 36 83
3 84 242 244
3 244 243 36
3 242 243 244
3 246 245 84
3 85 247 249
3 247 86 248
3 247 248 249
3 87 86 85
3 87 10 86
3 38 87 9
3 88 87 38
3 88 10 87
3 88 49 10
3 89 49 88
3 89 3 49
3 251 250 4
3 252 90 253
3 91 254 256
3 254 90 255
3 254 255 256
3 91 12 90
3 40 257 259
3 257 91 258
3 257 258 259
3 92 91 40
3 92 12 91
3 92 56 12
3 93 56 92
3 93 5 56
3 260 14 261
3 43 262 263
3 94 264 266
3 266 265 43
3 264 265 266
3 94 267 269
3 267 14 268
3 267 268 269
3 94 61 14
3 95 61 94
3 95 6 61
3 95 96 6
3 97 96 95
3 97 16 96
3 45 97 15
3 98 97 45
3 98 16 97
3 98 68 16
3 99 68 98
3 99 7 68
3 99 100 7
3 101 100 99
3 101 18 100
3 47 101 17
3 102 101 47
3 102 18 101
3 102 75 18
3 103 75 102
3 103 8 75
3 270 20 271
3 272 20 273
3 275 274 20
3 276 1 277
3 278 42 279
3 104 280 282
3 280 42 281
3 280 281 282
3 104 2 42
3 104 105 2
3 283 105 284
3 285 284 104
3 283 284 285
3 287 286 105
3 86 288 289
3 106 290 292
3 292 291 86
3 290 291 292
3 106 293 294
3 50 106 10
3 107 106 50
3 107 295 297
3 297 296 106
3 295 296 297
3 107 298 299
3 301 300 107
3 52 302 304
3 304 303 21
3 302 303 304
3 306 305 52
3 108 109 0
3 110 109 108
3 110 24 109
3 55 110 23
3 111 110 55
3 111 24 110
3 111 80 24
3 307 80 308
3 309 308 111
3 307 308 309
3 311 310 80
3 313 312 4
3 90 314 315
3 112 316 318
3 318 317 90
3 316 317 318
3 112 319 320
3 57 112 12
3 113 112 57
3 113 321 323
3 323 322 112
3 321 322 323
3 113 324 325
3 114 326 328
3 328 327 113
3 326 327 328
3 114 329 330
3 114 331 333
3 331 85 332
3 331 332 333
3 115 85 114
3 115 9 85
3 59 115 25
3 116 115 59
3 116 9 115
3 116 37 9
3 117 37 116
3 117 0 37
3 118 334 335
3 118 336 338
3 336 1 337
3 336 337 338
3 62 339 341
3 341 340 14
3 339 340 341
3 343 342 62
3 119 344 345
3 119 346 347
3 64 119 27
3 120 119 64
3 120 348 350
3 350 349 119
3 348 349 350
3 120 351 353
3 351 118 352
3 351 352 353
3 121 118 120
3 121 1 118
3 121 41 1
3 122 41 121
3 122 13 41
3 66 122 28
3 123 122 66
3 123 13 122
3 123 93 13
3 124 93 123
3 124 5 93
3 96 67 6
3 125 67 96
3 125 29 67
3 69 125 16
3 126 125 69
3 126 29 125
3 126 124 29
3 127 124 126
3 127 5 124
3 127 60 5
3 128 60 127
3 128 26 60
3 71 128 30
3 129 128 71
3 129 26 128
3 129 117 26
3 130 117 129
3 130 0 117
3 130 108 0
3 131 108 130
3 131 23 108
3 73 131 31
3 132 131 73
3 132 23 131
3 132 54 23
3 133 54 132
3 133 4 54
3 100 74 7
3 134 74 100
3 134 32 74
3 76 134 18
3 135 134 76
3 135 32 134
3 135 133 32
3 136 133 135
3 136 4 133
3 136 354 356
3 356 355 4
3 354 355 356
3 137 357 359
3 359 358 136
3 357 358 359
3 137 360 361
3 78 137 33
3 138 137 78
3 138 362 364
3 364 363 137
3 362 363 364
3 138 365 366
3 368 367 138
3 105 48 2
3 139 48 105
3 139 19 48
3 369 139 370
3 140 371 373
3 371 139 372
3 371 372 373
3 140 19 139
3 140 103 19
3 141 103 140
3 141 8 103
3 374 141 375
3 142 376 378
3 376 141 377
3 376 377 378
3 142 8 141
3 142 79 8
3 143 79 142
3 143 34 79
3 379 143 380
3 144 381 383
3 381 143 382
3 381 382 383
3 144 34 143
3 144 384 386
3 386 385 34
3 384 385 386
3 388 387 144
3 109 39 0
3 145 39 109
3 145 11 39
3 81 145 24
3 146 145 81
3 146 11 145
3 146 89 11
3 147 89 146
3 147 3 89
3 389 82 390
3 148 391 393
3 391 82 392
3 391 392 393
3 148 35 82
3 83 148 20
3 149 148 83
3 149 35 148
3 149 147 35
3 150 147 149
3 150 3 147
3 150 53 3
3 151 53 150
3 151 22 53
3 394 151 395
3 396 395 36
3 394 395 396
3 397 151 398
3 399 22 400
3 401 400 151
3 399 400 401
3 403 402 22
