ply
format ascii 1.0
element vertex 194
property float x
property float y
property float z
element face 171
property list uchar int vertex_index
end_header
2.688457 34.248611 -29.277363
-8.144985 24.716984 -29.674873
1.16543 37.729015 -31.815128
-1.395979 30.22887 -30.842606
0.845982 26.91135 -29.468475
3.799892 30.362846 -25.525734
-4.291096 32.706596 -31.412994
-5.013493 22.362289 -29.237339
3.438866 40.77092 -27.537083
4.244949 36.74905 -22.867279
2.010839 36.060661 -30.720894
1.056538 32.435429 -30.662239
1.918493 30.659111 -29.542294
-2.640993 36.637672 -32.278957
-1.742285 24.777267 -29.688919
-3.076263 26.311123 -30.062462
-3.583618 20.862389 -28.983982
3.810333 38.788818 -25.2701
0.10648 39.207642 -32.562283
-1.210829 35.46701 -31.985031
0.021528 34.052757 -31.465839
-0.194881 28.655914 -30.283848
-0.543606 23.063526 -29.1353
-8.755299 19.728558 -28.695126
-10.354362 20.797462 -28.976776
3.262436 32.335884 -27.522545
2.652588 28.768044 -28.111641
3.314564 26.806938 -26.411194
-6.125244 28.711426 -30.513981
-2.76499 31.590233 -31.197124
-4.542412 27.630928 -30.317356
-6.539042 23.652767 -29.452209
-7.205408 18.453144 -28.468891
1.753889 25.038158 -28.372429
0.5327 21.209332 -28.355816
2.67326 39.485641 -30.374378
3.181835 37.631119 -28.617043
3.629471 35.688744 -26.576145
4.088013 33.690643 -24.341217
4.606255 31.66357 -22.008739
4.778088 34.660374 -20.423981
-1.912891 38.544041 -32.640836
-2.670911 39.027685 -32.739156
-2.920766 20.021285 -28.808433
-2.662952 22.819828 -29.33645
-2.0001 21.978724 -29.160902
-3.94177 18.095993 -28.518666
-2.920766 20.021285 -28.808433
-8.980387 25.134652 -29.800998
-7.974675 27.129145 -30.184885
-9.96984 17.833081 -28.413599
-9.200162 17.194387 -28.272821
-5.121522 33.131809 -31.481098
-4.270644 35.120369 -31.913736
-5.20817 30.709011 -30.963487
-6.038596 31.134224 -31.031592
-5.121522 33.131809 -31.481098
2.161919 24.060144 -27.688671
2.203239 26.903101 -28.242035
2.611269 25.925087 -27.558277
0.319052 18.31033 -27.889606
1.023118 20.234058 -27.84305
-0.250303 19.279554 -28.241354
0.319052 18.31033 -27.889606
2.634116 41.978248 -30.828165
2.348819 40.349466 -31.077873
3.250835 41.723217 -28.553554
3.139378 44.142084 -28.933301
3.327408 43.189787 -27.91683
3.310351 39.20102 -28.077063
3.12232 40.153317 -29.093534
3.250835 41.723217 -28.553554
5.093241 33.590128 -19.224684
4.851721 36.00215 -19.527876
4.989382 32.145216 -20.047396
5.093241 33.590128 -19.224684
-11.17353 21.230797 -29.145717
-11.550063 18.915458 -28.737164
3.878088 27.593252 -25.015753
4.077423 29.366156 -24.449232
-3.445593 37.085907 -32.346717
-2.670911 39.027685 -32.739156
-3.466044 34.672134 -31.845976
-4.270644 35.120369 -31.913736
-3.445593 37.085907 -32.346717
-4.650311 18.921326 -28.627482
-5.365249 19.671276 -28.75416
-4.298555 21.612339 -29.110661
-4.650311 18.921326 -28.627482
-3.94177 18.095993 -28.518666
3.47583 42.209408 -26.79295
3.327408 43.189787 -27.91683
3.661563 41.218357 -25.659458
3.624599 39.779869 -26.403591
3.47583 42.209408 -26.79295
3.838688 40.202682 -24.448904
3.661563 41.218357 -25.659458
4.055996 39.182798 -23.247493
4.027641 37.768934 -24.068689
3.838688 40.202682 -24.448904
-0.552175 37.337326 -32.273657
-1.197809 37.958709 -32.493873
-0.539155 39.829026 -32.7825
-1.40076 21.121853 -28.884093
-2.0001 21.978724 -29.160902
-1.142946 23.920396 -29.412109
-10.769372 18.367532 -28.554424
-9.554831 20.26301 -28.835951
-9.96984 17.833081 -28.413599
-11.550063 18.915458 -28.737164
-10.769372 18.367532 -28.554424
2.942257 24.944534 -26.708053
2.611269 25.925087 -27.558277
2.983576 27.787491 -27.261418
3.635424 25.815298 -25.458483
3.557228 28.584892 -25.968464
3.878088 27.593252 -25.015753
3.326334 23.950697 -25.906945
3.635424 25.815298 -25.458483
2.942257 24.944534 -26.708053
3.326334 23.950697 -25.906945
-6.964804 29.126366 -30.604439
-6.038596 31.134224 -31.031592
-7.135115 26.714205 -30.094427
-7.974675 27.129145 -30.184885
-6.964804 29.126366 -30.604439
-1.925911 36.052341 -32.131994
-1.912891 38.544041 -32.640836
-1.197809 37.958709 -32.493873
-8.425217 16.55668 -28.159704
-9.200162 17.194387 -28.272821
-7.980354 19.090851 -28.582009
-6.461207 17.716704 -28.369936
-6.109451 20.407716 -28.853115
-5.365249 19.671276 -28.75416
-7.670657 15.828556 -28.057572
-6.461207 17.716704 -28.369936
-8.425217 16.55668 -28.159704
-7.670657 15.828556 -28.057572
1.633712 22.148471 -27.851357
2.161919 24.060144 -27.688671
1.143295 23.123745 -28.364123
1.633712 22.148471 -27.851357
1.023118 20.234058 -27.84305
-0.788456 20.206651 -28.631096
-0.005453 22.136429 -28.745558
-0.250303 19.279554 -28.241354
-1.40076 21.121853 -28.884093
-0.788456 20.206651 -28.631096
0.080586 41.654045 -33.012753
-0.539155 39.829026 -32.7825
0.636234 40.987914 -32.684833
0.080586 41.654045 -33.012753
1.165709 40.2486 -32.311256
0.635955 38.468328 -32.188705
0.636234 40.987914 -32.684833
1.594904 39.471153 -31.798248
1.165709 40.2486 -32.311256
2.017608 38.636976 -31.251131
1.588134 36.894838 -31.268011
1.594904 39.471153 -31.798248
2.342049 37.773151 -30.547636
2.017608 38.636976 -31.251131
2.348819 40.349466 -31.077873
2.868032 41.080578 -29.972202
2.634116 41.978248 -30.828165
2.927548 38.55838 -29.495711
2.868032 41.080578 -29.972202
3.12232 40.153317 -29.093534
4.221483 31.030054 -23.856974
4.077423 29.366156 -24.449232
3.943952 32.026744 -24.933476
4.480605 30.016517 -22.690734
4.221483 31.030054 -23.856974
4.347134 32.677107 -23.174978
4.781467 29.030779 -21.580334
4.480605 30.016517 -22.690734
4.288874 38.134018 -21.997393
4.055996 39.182798 -23.247493
4.555443 37.08968 -20.775744
4.851721 36.00215 -19.527876
4.511519 35.704712 -21.64563
4.288874 38.134018 -21.997393
4.555443 37.08968 -20.775744
4.903465 30.646814 -20.839775
4.692172 33.161972 -21.21636
4.989382 32.145216 -20.047396
4.781467 29.030779 -21.580334
4.903465 30.646814 -20.839775
-10.085076 23.174891 -29.45195
-8.980387 25.134652 -29.800998
-9.249674 22.757223 -29.325825
-10.085076 23.174891 -29.45195
-11.17353 21.230797 -29.145717
3 0 12 10
3 41 13 42
3 43 16 44
3 45 44 14
3 43 44 45
3 47 46 16
3 1 48 49
3 2 20 18
3 4 21 11
3 4 22 21
3 51 50 23
3 5 27 25
3 6 52 53
3 6 54 56
3 54 28 55
3 54 55 56
3 3 29 19
3 7 30 15
3 7 31 30
3 7 32 31
3 57 33 58
3 59 58 26
3 57 58 59
3 60 34 61
3 63 62 34
3 64 35 65
3 8 66 68
3 66 67 68
3 8 69 71
3 69 36 70
3 69 70 71
3 8 37 36
3 9 38 17
3 9 39 38
3 72 40 73
3 75 74 40
3 77 76 24
3 10 11 2
3 12 11 10
3 12 4 11
3 79 78 5
3 13 80 81
3 13 82 84
3 82 6 83
3 82 83 84
3 14 15 3
3 16 15 14
3 16 7 15
3 16 85 87
3 87 86 7
3 85 86 87
3 89 88 16
3 90 8 91
3 92 17 93
3 94 93 8
3 92 93 94
3 95 17 96
3 97 9 98
3 99 98 17
3 97 98 99
3 18 100 102
3 100 19 101
3 100 101 102
3 20 19 18
3 20 3 19
3 11 20 2
3 21 20 11
3 21 3 20
3 21 14 3
3 22 14 21
3 22 103 105
3 105 104 14
3 103 104 105
3 23 24 1
3 106 24 107
3 108 107 23
3 106 107 108
3 110 109 24
3 25 26 0
3 27 26 25
3 27 111 113
3 113 112 26
3 111 112 113
3 114 27 115
3 116 115 5
3 114 115 116
3 117 27 118
3 120 119 27
3 28 121 122
3 28 123 125
3 123 1 124
3 123 124 125
3 19 126 128
3 126 13 127
3 126 127 128
3 29 13 19
3 29 6 13
3 15 29 3
3 30 29 15
3 30 6 29
3 30 28 6
3 31 28 30
3 31 1 28
3 31 23 1
3 32 23 31
3 32 129 131
3 131 130 23
3 129 130 131
3 132 32 133
3 134 133 7
3 132 133 134
3 135 32 136
3 138 137 32
3 26 12 0
3 33 12 26
3 33 4 12
3 139 33 140
3 34 141 143
3 141 33 142
3 141 142 143
3 34 4 33
3 34 22 4
3 144 22 145
3 146 145 34
3 144 145 146
3 148 147 22
3 149 18 150
3 151 18 152
3 153 2 154
3 155 154 18
3 153 154 155
3 156 2 157
3 158 10 159
3 160 159 2
3 158 159 160
3 35 161 163
3 161 10 162
3 161 162 163
3 35 0 10
3 164 35 165
3 36 166 168
3 166 35 167
3 166 167 168
3 36 0 35
3 36 25 0
3 37 25 36
3 37 5 25
3 17 37 8
3 38 37 17
3 38 5 37
3 38 169 171
3 171 170 5
3 169 170 171
3 39 172 174
3 174 173 38
3 172 173 174
3 39 175 176
3 177 9 178
3 40 179 180
3 40 181 183
3 181 9 182
3 181 182 183
3 40 39 9
3 184 39 185
3 186 185 40
3 184 185 186
3 188 187 39
3 24 189 191
3 191 190 1
3 189 190 191
3 193 192 24
