ply
format ascii 1.0
element vertex 429
property float x
property float y
property float z
element face 484
property list uchar int vertex_index
end_header
6.655773 38.4352 -33.075203
9.998684 64.695969 -32.218971
20.324636 36.093727 -31.753332
12.213037 23.880409 -29.976263
21.493032 61.556236 -26.877401
6.982426 51.358734 -35.054306
12.271032 37.570675 -33.429329
15.316761 50.134987 -32.290161
1.994446 62.044792 -34.136856
1.679049 45.329498 -34.090981
19.201355 22.955685 -31.11706
8.796366 31.982243 -31.630175
8.141315 58.196533 -34.319084
10.78145 51.227997 -34.149879
12.738132 57.546776 -32.395973
7.216644 70.983757 -31.282473
3.086376 69.406929 -32.155785
5.466129 64.404495 -33.815689
4.368822 57.214745 -35.105469
-0.480284 48.487 -33.425438
16.10141 36.717701 -32.892197
15.427614 30.164825 -32.199768
19.18808 29.725487 -31.973055
12.584885 70.618546 -29.207952
15.429079 63.52523 -29.645628
18.843212 68.926353 -26.538965
9.683651 76.644913 -27.864344
6.518005 44.444134 -34.396523
9.027424 38.302338 -33.35778
9.569941 44.743111 -34.426636
13.367311 43.953384 -33.640076
17.804625 42.921249 -32.105316
18.050085 56.042389 -29.78583
20.427177 48.770393 -30.007582
1.455742 72.941994 -28.973886
0.322758 65.617195 -31.699526
-0.367008 57.448639 -33.228409
1.479836 53.990257 -34.787498
3.940144 49.594948 -34.981316
11.956772 30.949566 -31.949911
15.703634 23.198959 -30.574759
22.668373 23.140648 -31.303686
7.534086 35.618519 -32.440895
8.981756 61.501335 -33.416382
10.340996 58.025032 -33.485756
11.387236 61.190804 -32.368233
8.595028 67.984352 -31.880869
6.256516 67.785316 -32.683479
7.607719 64.777328 -33.17112
6.793848 61.425629 -34.180611
-1.778677 46.225136 -31.198076
-1.13386 45.0373 -32.333244
-1.238134 49.82769 -32.490967
18.185764 36.370087 -32.383682
17.59272 33.182529 -32.440468
19.610641 32.963428 -32.027397
10.456635 24.381584 -29.81143
14.158823 73.252342 -27.514059
15.629454 69.89743 -27.894617
12.66604 76.301247 -26.880774
11.121744 73.801521 -28.68799
6.664667 47.884926 -34.875374
7.945538 44.801136 -34.501457
8.280073 48.133125 -34.794266
12.961613 50.748764 -33.316757
12.071104 47.60408 -33.92662
14.238256 47.07238 -33.149193
15.519213 43.433662 -32.942619
16.564613 46.484665 -32.208488
18.402897 62.607178 -28.228994
16.770187 59.789673 -29.720392
19.686726 58.857887 -28.337595
22.029835 51.546295 -28.678621
2.471519 65.819588 -33.301941
1.537525 67.784348 -32.088211
1.044596 63.995964 -33.119133
-0.082632 61.633736 -32.624748
0.677835 60.013878 -33.832123
0.450562 55.846489 -34.208359
1.659374 58.098274 -34.636177
5.67098 54.396614 -35.174988
4.065756 53.448029 -35.216072
5.365828 50.768097 -35.127563
5.240414 47.108398 -34.752869
10.569931 37.984512 -33.451691
10.402294 34.736195 -32.682198
12.028358 34.299438 -32.804504
17.240803 26.508259 -31.600164
15.459693 26.7374 -31.449488
17.450806 23.020195 -30.879213
17.876926 19.440636 -30.106688
19.591047 19.445946 -30.511503
22.699139 26.424866 -31.35882
10.36167 27.99696 -30.778658
7.474808 54.807175 -34.87339
8.787592 51.471138 -34.73407
9.474504 54.777267 -34.292099
11.667387 54.418701 -33.437729
14.045723 53.839447 -32.357559
5.917662 73.635696 -30.357504
3.844286 72.780815 -30.729204
4.981863 70.46714 -31.887602
4.209927 67.078972 -33.159874
3.59141 63.507164 -34.135635
3.123047 59.775795 -34.781418
4.837427 60.873352 -34.634338
6.148441 57.957581 -34.858925
0.50679 46.981033 -33.939865
14.11977 37.129356 -33.246704
13.774815 33.870403 -32.828796
15.635705 33.488071 -32.711464
17.280472 29.895905 -32.155327
19.057018 26.386803 -31.640184
11.197897 67.748833 -30.793974
12.615635 64.248375 -31.01362
14.029764 67.164825 -29.50017
17.048855 66.317917 -28.105322
20.208138 65.28138 -26.725012
8.356434 73.955803 -29.661715
9.764191 71.008995 -30.368395
6.528809 41.16338 -33.729805
7.677013 38.461861 -33.210693
7.762884 41.540043 -33.933533
9.229492 41.500618 -34.023712
10.884567 41.210995 -33.967842
10.082851 47.995193 -34.482292
11.37953 44.420471 -34.142982
12.712152 40.785751 -33.728531
14.700785 40.314831 -33.29512
16.827894 39.861485 -32.690514
19.052399 39.458382 -31.959654
13.99194 60.590721 -31.102583
15.316752 56.859398 -31.127234
16.590883 53.129555 -31.136797
20.897648 55.150772 -28.481234
19.26923 52.353035 -29.879332
17.820286 49.46096 -31.156351
19.011919 45.89315 -31.183443
20.173244 42.443443 -31.192293
2.153557 71.363159 -30.764433
0.836205 69.392036 -30.474512
-0.143106 66.913567 -29.882856
-0.590561 62.957962 -31.008314
-0.937735 58.791481 -31.828566
-1.162792 54.414543 -32.3256
-0.508722 53.064934 -33.495728
0.384417 51.499557 -34.240616
1.477219 49.730164 -34.596352
2.809877 55.901299 -35.076431
2.665207 51.897682 -35.019661
2.709816 47.780502 -34.634789
4.01066 45.683868 -34.448151
5.306242 43.476582 -34.126823
8.901052 35.158146 -32.532127
10.341623 31.429508 -31.760435
12.026258 27.486858 -30.973623
13.650898 30.522949 -32.118233
13.722416 27.067181 -31.221453
13.959747 23.487309 -30.252279
21.114603 29.64399 -31.659082
20.886726 26.366711 -31.558802
20.946251 23.001575 -31.261377
22.902531 19.79557 -31.140032
21.267912 19.568184 -30.862741
7.09493 37.02686 -32.758049
6.883727 36.037445 -32.483658
6.44457 37.445785 -32.800812
-1.765726 48.611172 -31.162216
-1.987259 46.756531 -30.422325
-1.495455 50.412449 -31.808661
-1.508406 48.026413 -31.844521
-1.765726 48.611172 -31.162216
12.357045 22.001926 -29.507241
11.478844 22.252514 -29.424824
11.334836 24.130997 -29.893847
13.273846 21.831606 -29.643913
12.357045 22.001926 -29.507241
15.781337 72.822392 -26.877086
15.032308 74.420124 -26.628777
14.285916 75.944577 -26.312134
13.523519 77.371548 -25.9251
15.032308 74.420124 -26.628777
13.412432 74.776794 -27.197416
14.285916 75.944577 -26.312134
1.898256 43.065435 -33.706906
1.263661 43.816895 -33.715642
2.325536 44.447872 -34.031052
1.898256 43.065435 -33.706906
8.756025 30.302713 -31.167603
8.046613 32.341223 -31.632919
9.579018 29.989601 -31.204417
9.538678 28.310072 -30.741844
8.756025 30.302713 -31.167603
-0.365882 46.106289 -33.23114
-0.69267 44.381439 -32.685043
-0.807072 46.76215 -32.879341
0.013253 47.734016 -33.682651
0.127655 45.353305 -33.488354
-0.365882 46.106289 -33.23114
9.004942 77.87463 -27.270344
10.440099 77.815517 -26.893297
8.356478 76.589924 -28.236591
9.004942 77.87463 -27.270344
9.020042 75.300358 -28.76303
7.69287 75.245369 -29.135277
8.356478 76.589924 -28.236591
22.350241 54.683064 -27.889014
21.795898 56.496811 -27.769316
21.365434 42.221311 -30.722158
20.847883 43.88123 -30.669418
20.744262 40.775972 -31.170084
21.365434 42.221311 -30.722158
1.235032 73.549839 -27.889427
1.823246 74.589882 -28.098197
0.92391 71.797138 -28.723984
1.235032 73.549839 -27.889427
15.914734 21.376529 -30.131377
15.042791 21.520705 -29.970137
14.831691 23.343134 -30.413519
18.178659 17.615763 -29.744999
19.031873 17.660351 -30.016859
22.065225 29.633242 -31.441752
21.377243 31.230514 -31.575655
23.13535 18.106703 -31.049809
23.876943 18.319067 -31.271454
22.31804 17.993009 -30.911163
22.085221 19.681877 -31.001387
23.13535 18.106703 -31.049809
21.541346 17.829803 -30.662817
22.31804 17.993009 -30.911163
7.415473 34.159361 -32.03828
6.883727 36.037445 -32.483658
8.165226 33.800381 -32.035535
8.046613 32.341223 -31.632919
7.415473 34.159361 -32.03828
-1.983145 44.287098 -30.421043
-1.987259 46.756531 -30.422325
-1.698099 43.735703 -31.087108
-1.983145 44.287098 -30.421043
-1.456269 45.631218 -31.76566
-1.375691 43.141784 -31.654692
-1.698099 43.735703 -31.087108
10.54272 22.478943 -29.363125
9.572581 24.69212 -29.805878
10.54272 22.478943 -29.363125
11.478844 22.252514 -29.424824
16.516652 71.144936 -27.067366
14.894139 71.574886 -27.704338
15.781337 72.822392 -26.877086
18.123531 70.659397 -26.389539
17.236333 69.411891 -27.216791
16.516652 71.144936 -27.067366
11.931294 77.643685 -26.401512
13.523519 77.371548 -25.9251
11.174845 76.47308 -27.372559
10.440099 77.815517 -26.893297
11.931294 77.643685 -26.401512
23.416846 51.134563 -28.134515
22.916334 52.880825 -27.987707
22.551865 49.812962 -28.79587
23.416846 51.134563 -28.134515
21.750536 48.42501 -29.46035
21.228506 50.158344 -29.343101
22.551865 49.812962 -28.79587
20.974849 47.044704 -30.077063
21.750536 48.42501 -29.46035
2.177738 73.823296 -29.074736
1.823246 74.589882 -28.098197
19.888934 17.663006 -30.219267
19.031873 17.660351 -30.016859
18.733987 19.443291 -30.309095
23.580475 26.473807 -31.20253
22.857493 28.02368 -31.291621
23.523384 24.883152 -31.302214
23.580475 26.473807 -31.20253
23.508001 23.241043 -31.274646
22.683756 24.782757 -31.331253
23.523384 24.883152 -31.302214
9.58616 26.502384 -30.25823
9.572581 24.69212 -29.805878
10.409153 26.189272 -30.295044
9.58616 26.502384 -30.25823
9.538678 28.310072 -30.741844
22.09359 59.699543 -26.967399
23.068886 60.98468 -26.277771
4.880974 73.208256 -30.543354
4.301029 74.341251 -29.892117
5.337717 74.768692 -29.706266
-0.976993 42.549063 -32.10888
-1.375691 43.141784 -31.654692
-0.976993 42.549063 -32.10888
-0.69267 44.381439 -32.685043
0.677532 44.642662 -33.640084
0.127655 45.353305 -33.488354
1.09292 46.155265 -34.015423
1.263661 43.816895 -33.715642
0.677532 44.642662 -33.640084
19.816351 70.111645 -25.755242
18.123531 70.659397 -26.389539
20.505678 68.348625 -25.893427
19.816351 70.111645 -25.755242
21.188141 66.526139 -25.986451
19.525675 67.103867 -26.631988
20.505678 68.348625 -25.893427
21.831297 64.695305 -26.092771
21.188141 66.526139 -25.986451
22.473744 62.832733 -26.168966
20.850585 63.418808 -26.801206
21.831297 64.695305 -26.092771
23.068886 60.98468 -26.277771
22.473744 62.832733 -26.168966
6.473484 75.085316 -29.483171
5.337717 74.768692 -29.706266
7.137048 73.795749 -30.009609
6.473484 75.085316 -29.483171
7.69287 75.245369 -29.135277
20.98226 34.455383 -31.62278
21.390664 35.982258 -31.390845
21.190437 58.350369 -27.697496
20.589879 60.207061 -27.607498
22.09359 59.699543 -26.967399
20.292187 57.004329 -28.409415
21.190437 58.350369 -27.697496
21.795898 56.496811 -27.769316
21.463741 53.348534 -28.579928
22.350241 54.683064 -27.889014
22.916334 52.880825 -27.987707
20.267221 45.606083 -30.664994
19.719548 47.331772 -30.595512
20.974849 47.044704 -30.077063
19.592582 44.168296 -31.187868
20.267221 45.606083 -30.664994
20.847883 43.88123 -30.669418
20.18384 39.283441 -31.553764
19.612822 40.950913 -31.575973
20.744262 40.775972 -31.170084
20.819958 37.601114 -31.450603
19.688518 37.776055 -31.856493
20.18384 39.283441 -31.553764
21.390664 35.982258 -31.390845
20.819958 37.601114 -31.450603
3.372009 73.742706 -29.952395
4.301029 74.341251 -29.892117
2.526645 73.033878 -29.970009
3.372009 73.742706 -29.952395
2.998921 72.071987 -30.746818
1.80465 72.152576 -29.86916
2.177738 73.823296 -29.074736
2.526645 73.033878 -29.970009
0.614142 70.02216 -29.474297
0.92391 71.797138 -28.723984
1.145973 71.167015 -29.724199
0.124486 68.782925 -29.178469
0.614142 70.02216 -29.474297
0.346549 68.152802 -30.178684
-0.248697 67.410355 -28.793816
0.124486 68.782925 -29.178469
-0.493844 65.458455 -29.447508
-0.248697 67.410355 -28.793816
-0.717572 63.480652 -30.010236
-0.493844 65.458455 -29.447508
-0.366834 64.935765 -30.445585
-0.923707 61.4216 -30.518743
-0.717572 63.480652 -30.010236
-1.097294 59.33836 -30.928869
-0.923707 61.4216 -30.518743
-0.764148 60.874721 -31.41844
-1.253319 57.171222 -31.283089
-1.097294 59.33836 -30.928869
-1.365848 54.982754 -31.531606
-1.253319 57.171222 -31.283089
-1.050264 56.603012 -32.077083
-1.457784 52.705876 -31.725978
-1.365848 54.982754 -31.531606
-1.200463 52.121116 -32.408283
-1.495455 50.412449 -31.808661
-1.457784 52.705876 -31.725978
2.84092 45.673374 -34.302956
2.325536 44.447872 -34.031052
2.194433 46.555 -34.362885
3.491341 44.625057 -34.209637
2.84092 45.673374 -34.302956
3.360238 46.732185 -34.54147
4.15914 43.714113 -34.069367
3.491341 44.625057 -34.209637
4.80693 42.61047 -33.908703
4.15914 43.714113 -34.069367
4.658451 44.580225 -34.287487
5.449404 41.716276 -33.742325
4.80693 42.61047 -33.908703
6.060688 40.559675 -33.543816
5.449404 41.716276 -33.742325
5.917525 42.319981 -33.928314
6.592291 39.79929 -33.402504
6.124169 39.195585 -33.216515
6.060688 40.559675 -33.543816
6.124169 39.195585 -33.216515
6.44457 37.445785 -32.800812
14.147201 21.635056 -29.781921
13.273846 21.831606 -29.643913
13.086392 23.683859 -30.114271
14.147201 21.635056 -29.781921
15.042791 21.520705 -29.970137
17.00138 19.497368 -29.897341
15.914734 21.376529 -30.131377
16.79028 21.319797 -30.340723
17.00138 19.497368 -29.897341
18.178659 17.615763 -29.744999
20.625262 32.890234 -31.759813
19.967638 34.528577 -31.890365
20.98226 34.455383 -31.62278
20.362622 31.303709 -31.84324
20.625262 32.890234 -31.759813
21.377243 31.230514 -31.575655
21.906871 28.034428 -31.508951
22.065225 29.633242 -31.441752
22.857493 28.02368 -31.291621
23.577966 21.622419 -31.320755
23.508001 23.241043 -31.274646
23.695045 19.94988 -31.238928
23.876943 18.319067 -31.271454
22.785452 21.468109 -31.221859
23.577966 21.622419 -31.320755
23.695045 19.94988 -31.238928
20.702914 17.768684 -30.487198
20.429479 19.507065 -30.687122
21.541346 17.829803 -30.662817
19.888934 17.663006 -30.219267
20.702914 17.768684 -30.487198
3 0 164 166
3 164 42 165
3 164 165 166
3 1 45 43
3 1 48 46
3 1 43 48
3 167 50 168
3 169 52 170
3 171 170 50
3 169 170 171
3 2 55 53
3 3 172 174
3 174 173 56
3 172 173 174
3 3 175 176
3 178 177 57
3 179 59 180
3 181 57 182
3 183 182 59
3 181 182 183
3 5 63 61
3 7 66 64
3 7 68 66
3 4 71 69
3 8 75 73
3 8 77 75
3 8 79 77
3 5 82 80
3 5 61 82
3 9 184 185
3 9 186 187
3 6 86 84
3 10 89 87
3 10 91 89
3 11 188 189
3 11 190 192
3 190 93 191
3 190 191 192
3 12 96 94
3 14 97 44
3 14 98 97
3 15 101 99
3 17 102 47
3 17 103 102
3 17 105 103
3 12 106 49
3 12 94 106
3 19 193 195
3 195 194 51
3 193 194 195
3 19 196 198
3 196 107 197
3 196 197 198
3 20 110 108
3 22 111 54
3 22 112 111
3 23 115 113
3 25 116 58
3 25 117 116
3 26 199 200
3 26 201 202
3 26 203 205
3 203 118 204
3 203 204 205
3 23 119 60
3 23 113 119
3 27 122 120
3 29 123 62
3 29 124 123
3 13 125 95
3 30 126 65
3 30 127 126
3 30 128 127
3 31 129 67
3 31 130 129
3 24 131 114
3 32 132 70
3 32 133 132
3 206 134 207
3 33 135 72
3 33 136 135
3 33 137 136
3 208 138 209
3 211 210 138
3 34 212 213
3 34 214 215
3 16 139 100
3 35 140 74
3 35 141 140
3 35 142 141
3 36 143 76
3 36 144 143
3 36 145 144
3 37 146 78
3 37 147 146
3 18 148 104
3 38 149 81
3 38 150 149
3 38 151 150
3 27 152 83
3 27 120 152
3 28 153 121
3 39 154 85
3 39 155 154
3 21 156 109
3 40 157 88
3 40 158 157
3 40 216 218
3 218 217 158
3 216 217 218
3 220 219 90
3 221 159 222
3 41 160 92
3 41 161 160
3 223 162 224
3 225 163 226
3 227 226 162
3 225 226 227
3 229 228 163
3 42 230 231
3 42 232 234
3 232 11 233
3 232 233 234
3 43 44 12
3 45 44 43
3 45 14 44
3 46 47 15
3 48 47 46
3 48 17 47
3 48 49 17
3 43 49 48
3 43 12 49
3 50 235 236
3 50 237 238
3 50 239 241
3 239 51 240
3 239 240 241
3 52 51 50
3 52 19 51
3 53 54 20
3 55 54 53
3 55 22 54
3 56 242 243
3 245 244 56
3 57 58 23
3 246 58 247
3 248 247 57
3 246 247 248
3 249 25 250
3 251 250 58
3 249 250 251
3 59 252 253
3 59 254 256
3 254 26 255
3 254 255 256
3 59 60 26
3 57 60 59
3 57 23 60
3 61 62 27
3 63 62 61
3 63 29 62
3 64 65 13
3 66 65 64
3 66 30 65
3 66 67 30
3 68 67 66
3 68 31 67
3 69 70 24
3 71 70 69
3 71 32 70
3 257 72 258
3 259 72 260
3 261 33 262
3 263 262 72
3 261 262 263
3 265 264 33
3 266 34 267
3 73 74 16
3 75 74 73
3 75 35 74
3 75 76 35
3 77 76 75
3 77 36 76
3 77 78 36
3 79 78 77
3 79 37 78
3 80 81 18
3 82 81 80
3 82 38 81
3 82 83 38
3 61 83 82
3 61 27 83
3 84 85 28
3 86 85 84
3 86 39 85
3 87 88 21
3 89 88 87
3 89 40 88
3 89 90 40
3 91 90 89
3 91 268 270
3 270 269 90
3 268 269 270
3 271 92 272
3 273 92 274
3 275 41 276
3 277 276 92
3 275 276 277
3 278 56 279
3 93 280 282
3 280 56 281
3 280 281 282
3 93 3 56
3 94 95 5
3 96 95 94
3 96 13 95
3 44 96 12
3 97 96 44
3 97 13 96
3 97 64 13
3 98 64 97
3 98 7 64
3 284 283 4
3 99 285 287
3 285 100 286
3 285 286 287
3 101 100 99
3 101 16 100
3 47 101 15
3 102 101 47
3 102 16 101
3 102 73 16
3 103 73 102
3 103 8 73
3 103 104 8
3 105 104 103
3 105 18 104
3 49 105 17
3 106 105 49
3 106 18 105
3 106 80 18
3 94 80 106
3 94 5 80
3 51 288 289
3 291 290 51
3 107 292 293
3 107 294 296
3 294 9 295
3 294 295 296
3 108 109 6
3 110 109 108
3 110 21 109
3 54 110 20
3 111 110 54
3 111 21 110
3 111 87 21
3 112 87 111
3 112 10 87
3 113 114 1
3 115 114 113
3 115 24 114
3 58 115 23
3 116 115 58
3 116 24 115
3 116 69 24
3 117 69 116
3 117 4 69
3 297 25 298
3 299 25 300
3 301 117 302
3 303 302 25
3 301 302 303
3 304 117 305
3 306 4 307
3 308 307 117
3 306 307 308
3 310 309 4
3 311 99 312
3 118 313 315
3 313 99 314
3 313 314 315
3 118 15 99
3 60 118 26
3 119 118 60
3 119 15 118
3 119 46 15
3 113 46 119
3 113 1 46
3 317 316 2
3 120 121 0
3 122 121 120
3 122 28 121
3 62 122 27
3 123 122 62
3 123 28 122
3 123 84 28
3 124 84 123
3 124 6 84
3 95 63 5
3 125 63 95
3 125 29 63
3 65 125 13
3 126 125 65
3 126 29 125
3 126 124 29
3 127 124 126
3 127 6 124
3 127 108 6
3 128 108 127
3 128 20 108
3 67 128 30
3 129 128 67
3 129 20 128
3 129 53 20
3 130 53 129
3 130 2 53
3 114 45 1
3 131 45 114
3 131 14 45
3 70 131 24
3 132 131 70
3 132 14 131
3 132 98 14
3 133 98 132
3 133 7 98
3 318 71 319
3 320 319 4
3 318 319 320
3 134 321 323
3 321 71 322
3 321 322 323
3 134 32 71
3 72 324 326
3 324 134 325
3 324 325 326
3 135 134 72
3 135 32 134
3 135 133 32
3 136 133 135
3 136 7 133
3 136 68 7
3 137 68 136
3 137 31 68
3 327 137 328
3 329 328 33
3 327 328 329
3 138 330 332
3 330 137 331
3 330 331 332
3 138 31 137
3 138 130 31
3 333 130 334
3 335 334 138
3 333 334 335
3 336 2 337
3 338 337 130
3 336 337 338
3 340 339 2
3 100 341 342
3 139 343 345
3 345 344 100
3 343 344 345
3 139 346 348
3 346 34 347
3 346 347 348
3 74 139 16
3 140 139 74
3 140 34 139
3 140 349 351
3 351 350 34
3 349 350 351
3 141 352 354
3 354 353 140
3 352 353 354
3 141 355 356
3 141 357 358
3 142 359 361
3 361 360 141
3 359 360 361
3 142 362 363
3 76 142 35
3 143 142 76
3 143 364 366
3 366 365 142
3 364 365 366
3 143 367 368
3 144 369 371
3 371 370 143
3 369 370 371
3 144 372 373
3 144 374 376
3 374 52 375
3 374 375 376
3 145 52 144
3 145 19 52
3 78 145 36
3 146 145 78
3 146 19 145
3 146 107 19
3 147 107 146
3 147 9 107
3 104 79 8
3 148 79 104
3 148 37 79
3 81 148 18
3 149 148 81
3 149 37 148
3 149 147 37
3 150 147 149
3 150 9 147
3 150 377 379
3 379 378 9
3 377 378 379
3 151 380 382
3 382 381 150
3 380 381 382
3 151 383 384
3 83 151 38
3 152 151 83
3 152 385 387
3 387 386 151
3 385 386 387
3 152 388 389
3 120 390 392
3 392 391 152
3 390 391 392
3 120 393 395
3 393 0 394
3 393 394 395
3 396 0 397
3 121 42 0
3 153 42 121
3 153 11 42
3 85 153 28
3 154 153 85
3 154 11 153
3 154 93 11
3 155 93 154
3 155 3 93
3 109 86 6
3 156 86 109
3 156 39 86
3 88 156 21
3 157 156 88
3 157 39 156
3 157 155 39
3 158 155 157
3 158 3 155
3 158 398 400
3 400 399 3
3 398 399 400
3 402 401 158
3 90 403 405
3 405 404 40
3 403 404 405
3 407 406 90
3 408 55 409
3 410 409 2
3 408 409 410
3 159 411 413
3 411 55 412
3 411 412 413
3 159 22 55
3 92 414 416
3 414 159 415
3 414 415 416
3 160 159 92
3 160 22 159
3 160 112 22
3 161 112 160
3 161 10 112
3 417 41 418
3 162 419 420
3 162 421 423
3 421 41 422
3 421 422 423
3 162 161 41
3 163 161 162
3 163 10 161
3 163 91 10
3 424 91 425
3 426 425 163
3 424 425 426
3 428 427 91
