ply
format ascii 1.0
element vertex 963
property float x
property float y
property float z
element face 1083
property list uchar int vertex_index
end_header
-37.245678 -111.40596 -7.303373
-16.946491 -125.937897 -13.051924
-16.158829 -112.537033 -20.955261
-39.227745 -104.517731 -20.471245
-0.39283 -103.353973 21.09186
-6.040543 -122.448044 13.817093
-28.226177 -119.360275 -11.564283
-27.921629 -117.88504 -19.970753
-38.383682 -110.252457 -14.514956
-6.270067 -114.203445 27.254539
-14.005286 -115.831711 19.727238
-15.990278 -122.60614 8.701454
-29.314949 -99.270218 -23.590366
-19.21566 -99.265472 -19.868938
-28.134079 -110.573593 -23.388523
-39.472492 -94.853226 -23.750153
-31.391481 -114.756042 -1.4566
0.000381 -114.857574 19.251377
-20.306087 -123.670959 -2.616957
-7.773224 -85.735275 -12.029026
-7.141888 -108.973022 -16.60247
-11.945801 -94.064972 -16.163206
-33.369247 -115.043015 -9.462986
-33.306656 -115.458725 -13.833199
-37.738178 -111.342117 -10.683641
-35.159283 -90.920837 -25.160561
-30.196171 -92.376205 -23.739368
-11.625851 -126.930634 -11.931301
-10.916727 -124.833389 -15.677078
-16.222326 -124.567154 -17.232029
-33.90892 -111.722214 -20.811638
-27.97963 -114.814468 -22.348881
-34.071095 -107.922363 -22.698399
-34.262367 -103.128738 -23.730389
-39.325001 -100.139297 -22.292507
1.142765 -107.666489 15.703194
-5.652065 -118.42868 20.666584
-2.622412 -115.186569 23.697714
-2.35158 -119.455505 16.788845
-21.527126 -120.168442 7.32807
-17.795033 -123.926102 3.021054
-23.342213 -120.497604 2.388636
-25.855238 -119.505646 -2.421434
-28.892775 -116.114014 2.6725
-4.778803 -93.578354 -11.260904
-11.142803 -111.447418 -18.926533
-21.397661 -91.41449 -19.633263
-15.198649 -97.188705 -18.042255
-18.035791 -89.003616 -17.863605
-22.618553 -123.249863 -12.883871
-22.059128 -122.686523 -17.439827
-27.92186 -119.472504 -16.220509
-33.619415 -114.31813 -17.789303
-38.936657 -107.937851 -17.90097
-9.712397 -115.789062 23.516399
-9.794542 -119.950836 17.263462
-10.708435 -123.485428 10.962181
-14.709544 -119.756241 14.219709
-20.073219 -118.195206 12.083235
-22.749039 -106.53952 -22.262402
-17.373596 -106.372803 -20.4151
-23.998787 -99.972107 -21.822338
-25.467003 -92.60788 -21.659409
-21.782608 -120.463547 -20.681019
-21.700813 -116.876083 -22.305347
-21.967106 -112.193909 -22.617714
-28.563578 -105.364975 -23.603123
-34.650402 -97.434921 -24.422703
-39.771881 -88.699387 -25.209599
-36.755291 -110.016495 -0.033364
-34.479118 -113.08139 -4.947506
-3.986628 -111.049606 30.038166
-1.076462 -110.595032 25.663275
0.683617 -109.268784 20.699497
1.294823 -113.753754 14.422335
-12.810726 -127.543854 -7.119911
-12.372656 -125.788925 4.532166
-18.207005 -125.618271 -7.934795
-23.776619 -122.083832 -7.68351
-29.276161 -117.637756 -6.558498
-41.971733 -106.1828 -10.585917
-42.768929 -103.894913 -14.151756
-43.291107 -100.712555 -17.186558
-43.496815 -96.714951 -19.612328
-4.250193 -105.349838 -13.816481
-12.791567 -104.769394 -18.486515
-9.127411 -101.906906 -16.382601
-6.418612 -98.096222 -13.90583
-9.431906 -90.209839 -14.074911
-35.572151 -113.027771 -8.307093
-35.533508 -113.372574 -10.291803
-37.456135 -111.468369 -8.83049
-14.21437 -126.664291 -12.649378
-13.800889 -125.973328 -14.795216
-16.53751 -125.454285 -15.304104
-36.69223 -108.225204 -20.749702
-34.000351 -109.956696 -21.889599
-36.773708 -106.294418 -21.756489
-36.831028 -104.118454 -22.554985
-39.286163 -102.4431 -21.455284
-1.474777 -100.442917 21.023912
-1.654079 -99.509872 18.539019
-0.401772 -102.428024 18.563091
0.535929 -105.430603 18.462894
-5.720364 -120.498703 17.267633
-3.875111 -119.126114 18.841908
-4.051567 -121.182724 15.325992
-2.656389 -121.501587 13.18915
-6.60046 -124.191452 10.323257
-24.306112 -118.514297 7.029908
-22.371172 -120.526962 4.870198
-25.148197 -118.624146 4.730924
-26.119129 -118.384705 2.418043
-27.913231 -116.526947 4.839754
-13.132877 -114.991516 -20.088528
-10.667276 -114.383926 -19.01355
-13.533398 -112.173813 -19.970844
-22.531403 -87.29599 -19.681011
-19.63727 -90.33577 -18.724461
-25.454006 -121.412231 -12.349493
-25.180611 -121.535995 -14.774675
-28.010664 -119.631912 -13.966883
-35.892296 -113.01886 -14.347952
-33.447525 -115.081894 -15.898355
-36.141113 -112.313553 -16.258785
-36.374043 -111.263077 -17.992622
-38.686157 -109.244492 -16.296293
-11.848242 -113.827423 24.58017
-11.768862 -115.985382 21.569841
-9.64595 -117.909454 20.390125
-11.876167 -118.084686 18.601965
-12.17543 -120.052277 15.65732
-14.276582 -117.888535 16.956785
-22.820255 -117.046555 11.467495
-26.087029 -103.052856 -22.896152
-23.328394 -103.365005 -22.025124
-26.617411 -99.785416 -22.771935
-27.767258 -92.66684 -22.728737
-28.321335 -88.862732 -22.853325
-26.202156 -88.68985 -21.741814
-24.92651 -120.470718 -18.937511
-21.89794 -121.766312 -19.257366
-24.870895 -119.322647 -20.521858
-28.033651 -112.823792 -23.011169
-24.844423 -115.990768 -22.516624
-24.902176 -113.886734 -22.973419
-21.776848 -114.661102 -22.587727
-25.040724 -111.528717 -23.156696
-25.281666 -108.931885 -23.151501
-28.305708 -108.083618 -23.558659
-36.998642 -99.072693 -23.759872
-34.429596 -100.390793 -24.088943
-37.1488 -96.213943 -24.285053
-37.338161 -93.142319 -24.817989
-39.60944 -91.878464 -24.465717
-6.8923 -112.127869 30.409962
-5.750971 -110.772491 31.874098
-4.962685 -112.808395 28.813168
-1.157522 -115.153534 21.5583
-1.64316 -113.025452 24.844231
-0.37923 -112.685486 22.544287
-0.037134 -110.002457 23.220898
0.565845 -112.144012 20.118444
1.172104 -111.47493 17.640472
0.821215 -114.369003 16.84885
-13.296169 -123.268295 9.735656
-11.448538 -124.821838 7.763455
-14.093466 -124.374817 6.720985
-18.944267 -123.983185 0.169012
-16.194172 -125.390518 0.620174
-17.546741 -125.296982 -2.381472
-19.138416 -124.829544 -5.260273
-20.98827 -124.014664 -7.934111
-21.91185 -123.026901 -5.261396
-28.629961 -117.15799 -2.021053
-27.455753 -118.661591 -4.610195
-30.198734 -116.301178 -4.017075
-31.93292 -115.331009 -5.777937
-32.894299 -113.940903 -3.307486
-44.241844 -101.901001 -12.124834
-44.605633 -100.435608 -13.807232
-43.071022 -102.409134 -15.749834
-44.900166 -98.785141 -15.350063
-45.248032 -94.951096 -18.022816
-43.531784 -94.407593 -20.672905
-5.827847 -87.244492 -10.570679
-7.341202 -83.276169 -11.166941
-8.896204 -79.213379 -11.840982
-9.401962 -81.665268 -12.529955
-6.537622 -112.117386 -16.591095
-5.55283 -107.28653 -15.270863
-18.232784 -102.927246 -20.118542
-14.971439 -105.745407 -19.457043
-15.970545 -102.167236 -19.17775
-13.480274 -95.733948 -17.126724
-12.081499 -99.690979 -17.281425
-10.454199 -98.061172 -16.254356
-7.649706 -100.10199 -15.190378
-9.03886 -96.225449 -15.144402
-7.844555 -94.212173 -13.965479
-10.59351 -92.217194 -15.139482
-30.885925 -117.198853 -10.580093
-30.722105 -117.567062 -12.91221
-33.254765 -115.443954 -11.66716
-35.670628 -113.369751 -12.331533
-38.057331 -110.949142 -12.616816
-32.355057 -95.214966 -24.352226
-29.757231 -95.914383 -23.629997
-32.686714 -91.775452 -24.585583
-9.232843 -126.726273 -10.931122
-8.883163 -125.684998 -12.878119
-11.233387 -126.050797 -13.970858
-13.474566 -124.909714 -16.60363
-15.974969 -123.311111 -18.772167
-30.951498 -114.956879 -20.576096
-27.947203 -116.514816 -21.34351
-31.026506 -113.378937 -21.776779
-31.091948 -111.502625 -22.65324
-31.169361 -109.36058 -23.24625
-31.286072 -106.975281 -23.621716
-34.148895 -105.641846 -23.289608
-36.896744 -101.709213 -23.201843
-39.379051 -97.608826 -23.039459
-5.840473 -116.312561 24.001125
-4.347452 -114.889008 25.608824
-3.974752 -117.006912 22.277388
-2.338076 -117.324951 20.301027
-0.98575 -117.322647 18.122749
0.041945 -117.062912 15.810097
-1.130816 -119.468018 14.568202
-18.746286 -121.552719 7.8909
-16.820988 -123.470261 5.878182
-19.589972 -122.165604 5.256014
-20.564964 -122.371628 2.590533
-21.713757 -122.203537 -0.058826
-23.078821 -121.70929 -2.626463
-24.489874 -120.135986 -0.064222
-27.269289 -117.871307 0.145988
-30.047836 -115.497986 0.554816
-6.207365 -89.7117 -11.608942
-8.463184 -113.419098 -17.853287
-9.008095 -110.371582 -17.812889
-20.282694 -95.416443 -19.699833
-17.108294 -98.38208 -18.944016
-18.343372 -94.425339 -18.786545
-16.584877 -93.151459 -17.910057
-14.991791 -91.647797 -17.034393
-13.550535 -89.959167 -16.131052
-19.766096 -124.782501 -13.126997
-19.386347 -124.513214 -15.46974
-22.287107 -123.188171 -15.287437
-25.019669 -121.218491 -16.998829
-27.905663 -118.882965 -18.246193
-30.704016 -117.523605 -15.147633
-30.766956 -117.06279 -17.216572
-30.860504 -116.197525 -19.045753
-33.780952 -113.187698 -19.441238
-36.561699 -109.890549 -19.497646
-39.117401 -106.354782 -19.29438
-8.312862 -113.089874 28.631271
-9.976055 -113.650131 26.645615
-7.867241 -115.20047 25.451385
-7.62121 -117.323471 22.225319
-7.606588 -119.414246 18.962738
-7.827702 -121.405975 15.668017
-8.274389 -123.218063 12.340301
-10.153381 -121.836792 14.125523
-12.654169 -121.806335 12.710018
-15.285964 -121.352295 11.477978
-16.811749 -117.378845 15.536228
-17.356071 -119.11705 13.012241
-18.004539 -120.527435 10.474068
-20.768358 -119.390381 9.732809
-23.541862 -117.997025 9.2788
-19.401768 -109.709244 -21.643326
-16.674129 -109.580673 -20.713181
-19.978065 -106.636169 -21.362564
-20.694675 -103.3284 -21.076805
-21.518559 -99.801208 -20.834606
-27.189583 -96.316467 -22.707329
-24.723492 -96.378326 -21.69175
-22.411617 -96.077179 -20.671844
-23.338509 -92.185349 -20.613052
-24.272194 -88.15863 -20.672649
-15.833959 -115.23439 -21.072353
-19.104805 -123.817093 -17.518291
-18.890951 -122.723892 -19.196411
-18.732075 -121.272171 -20.459564
-24.841095 -117.815002 -21.713932
-21.711559 -118.820236 -21.689552
-18.635656 -119.501251 -21.304882
-18.625328 -117.443146 -21.771221
-18.732506 -115.1185 -21.927422
-18.985909 -112.538528 -21.85677
-22.290241 -109.48468 -22.482357
-25.633427 -106.104538 -23.040943
-28.906326 -102.424606 -23.594704
-31.464251 -104.35994 -23.855598
-31.711765 -101.522385 -24.019665
-32.017845 -98.470123 -24.171772
-34.90498 -94.272171 -24.772121
-37.538757 -89.875107 -25.381481
-38.107407 -110.245255 -5.639561
-38.943054 -109.782227 -7.161036
-32.809406 -113.090881 1.130341
-35.518021 -110.699707 1.823666
-34.114189 -112.365875 -0.77449
-35.511154 -111.628311 -2.546881
-36.894848 -110.905548 -4.164789
-36.013878 -112.202835 -6.320473
-0.664846 -104.312927 23.696301
-4.919916 -109.056732 32.952637
-3.189013 -113.089233 26.95055
-2.407551 -110.968857 27.955452
-0.940386 -107.972855 26.142895
-0.14098 -107.186523 23.590523
0.352377 -106.314728 21.007833
1.074818 -108.468597 18.17173
1.438652 -110.744537 15.18033
-9.68355 -127.432922 -8.71722
-12.135044 -127.438202 -9.62044
-14.754519 -126.951004 -10.242201
-8.934401 -124.768295 8.977233
-15.052617 -125.086456 3.672337
-15.466396 -126.814423 -7.665953
-17.488676 -125.994141 -10.563042
-20.285477 -124.612442 -10.583506
-23.099398 -122.872528 -10.321081
-25.892433 -120.861069 -9.80621
-24.688637 -120.937225 -5.036615
-26.547127 -119.922836 -7.211908
-28.629427 -118.680252 -9.08025
-31.268963 -116.440323 -8.198055
-33.75367 -114.250397 -7.237442
-39.472527 -109.428497 -8.885834
-39.918404 -108.930252 -10.738447
-40.325676 -108.195175 -12.610954
-42.398312 -105.155884 -12.415257
-40.69397 -107.192108 -14.418324
-41.006889 -105.921432 -16.095854
-41.246174 -104.398163 -17.601406
-41.403378 -102.639954 -18.919464
-45.113365 -96.957535 -16.748829
-43.427467 -98.814316 -18.464962
-41.487617 -100.659058 -20.062416
-41.525909 -98.459702 -21.066402
-41.555149 -96.039764 -21.981678
-41.608982 -93.395737 -22.860226
-41.705147 -90.528519 -23.744316
-14.149647 -109.087784 -19.739288
-11.85548 -108.236359 -18.731113
-9.806774 -107.048523 -17.667385
-13.919641 -101.074829 -18.24361
-10.842545 -103.476364 -17.473969
-8.011387 -105.558121 -16.514189
-6.475243 -103.803986 -15.247139
-5.207424 -101.823654 -13.869493
-4.224173 -99.64975 -12.420013
-5.452377 -95.915344 -12.572477
-6.890907 -92.03775 -12.764233
-8.481552 -88.048782 -13.01734
-11.116673 -86.117493 -14.25165
-10.154194 -83.969421 -13.346045
-5.266968 -122.77066 12.783117
-4.27248 -122.138001 13.537566
-5.046055 -121.815384 14.571542
-6.320502 -123.319748 12.070175
-5.546926 -123.642364 11.036199
-5.266968 -122.77066 12.783117
-26.107191 -117.636032 5.86738
-24.727154 -118.569221 5.880416
-25.686149 -117.581108 7.016872
-27.489708 -116.587433 5.921795
-26.530714 -117.575547 4.785339
-26.107191 -117.636032 5.86738
-21.743779 -86.723579 -19.224325
-23.096684 -85.195629 -19.764167
-12.887074 -115.908546 20.648539
-12.835299 -114.826561 22.067967
-13.953511 -114.749725 21.146665
-29.634557 -86.859108 -23.539629
-29.460425 -88.771668 -23.393968
-28.578692 -86.897751 -22.972292
-29.634557 -86.859108 -23.539629
-45.430447 -98.667228 -13.637805
-45.243376 -99.474564 -12.814965
-45.577713 -97.841995 -14.40922
-44.752899 -99.610375 -14.578648
-45.430447 -98.667228 -13.637805
-6.022063 -109.741035 -15.904289
-5.719931 -111.313217 -15.898601
-6.839755 -110.545204 -16.596782
-6.347359 -108.129776 -15.936667
-5.227534 -108.897789 -15.238485
-6.022063 -109.741035 -15.904289
-1.859396 -99.103249 17.366452
-1.166179 -100.550911 17.348499
1.02849 -107.287865 14.524987
0.78174 -106.130989 15.858526
1.265165 -108.835533 14.250407
1.02849 -107.287865 14.524987
-2.116589 -121.500709 12.056418
-2.946284 -122.436256 11.357215
-4.605109 -92.340385 -10.656242
-3.9988 -94.203575 -10.430657
-5.493084 -91.645027 -11.434923
-5.319389 -90.407059 -10.830261
-4.605109 -92.340385 -10.656242
-17.301702 -88.237419 -17.441612
-15.779701 -89.559509 -17.027006
-16.513791 -90.325706 -17.448999
-9.349771 -112.310554 29.201889
-8.601571 -112.050964 30.191805
-17.854691 -116.057594 16.142695
-16.601976 -116.384918 16.813928
-18.714645 -118.656128 12.547738
-18.399776 -117.869156 13.709169
-19.75835 -117.408234 13.244665
-24.551033 -116.855683 10.231663
-23.181058 -117.52179 10.373147
-24.19023 -116.380448 11.32601
-24.919569 -117.19619 9.201816
-24.551033 -116.855683 10.231663
-25.59326 -86.406807 -21.30997
-25.237175 -88.42424 -21.207231
-26.558241 -86.672417 -21.844553
-24.734144 -86.094414 -20.764545
-25.59326 -86.406807 -21.30997
-9.754437 -124.587364 -15.093112
-8.737655 -125.013169 -13.693632
-9.899945 -125.259193 -14.277598
-15.759699 -116.451583 -21.029545
-14.385074 -116.385238 -20.547166
-39.848749 -87.020325 -25.599186
-38.732187 -87.608185 -25.685127
-38.655319 -89.287247 -25.29554
-39.136841 -109.202874 -5.401656
-38.647585 -109.489601 -4.565305
-33.593229 -112.235748 2.443011
-32.231687 -113.425315 2.130898
-36.136656 -110.358101 0.895151
-36.816786 -109.520943 2.197795
-37.435421 -109.179337 1.26928
-38.041305 -109.819748 -3.827919
-37.454363 -110.131447 -2.982984
-38.647585 -109.489601 -4.565305
-37.501128 -110.575401 -4.902175
-38.041305 -109.819748 -3.827919
-0.942009 -104.773826 25.006338
-1.260146 -103.380607 24.97551
-3.679291 -110.015045 30.459194
-4.145935 -109.018608 31.916429
-4.453272 -110.053169 31.495401
-1.552405 -109.595589 27.12874
-2.217949 -109.782501 28.274829
-1.742007 -110.781945 26.809363
-1.008424 -109.283943 25.903085
-1.484367 -108.284501 27.36855
-1.552405 -109.595589 27.12874
1.36535 -113.410325 13.228906
1.437264 -111.905716 13.607903
1.366738 -112.249145 14.801333
0.383064 -116.835685 14.622259
-0.10137 -118.141175 14.029896
-8.821562 -127.455483 -6.982435
-8.565684 -127.183533 -8.144407
-12.472885 -127.491028 -8.370176
-11.213188 -127.603966 -7.962678
-11.551029 -127.656792 -6.712414
-11.087029 -125.886978 5.057114
-10.62497 -125.403435 6.672759
-11.910597 -125.305382 6.147811
-11.625108 -126.302765 3.352062
-11.087029 -125.886978 5.057114
-14.842715 -125.871994 0.955611
-15.508583 -125.948311 -0.646967
-16.8367 -126.216347 -7.800374
-15.927711 -126.534859 -6.341207
-17.298016 -125.936783 -6.475629
-40.191624 -108.519851 -7.893775
-39.207791 -109.605362 -8.023435
-39.926887 -108.696717 -7.031376
-40.945069 -107.556526 -10.662182
-40.702509 -107.957909 -9.731943
-41.729174 -106.584182 -9.655678
-45.955174 -95.084099 -16.561961
-45.839018 -96.044716 -15.865355
-42.562677 -93.96135 -21.83918
-42.543467 -95.223679 -21.327292
-43.550995 -93.145264 -21.184793
-42.589594 -92.639336 -22.278454
-41.582065 -94.71775 -22.420952
-42.562677 -93.96135 -21.83918
-42.729513 -88.348953 -23.769611
-42.673132 -89.832016 -23.235971
-41.771946 -88.988503 -24.201922
-42.729513 -88.348953 -23.769611
-9.658416 -77.144581 -12.214285
-9.956245 -78.364373 -12.478969
-3.397537 -105.934319 -12.947322
-3.908681 -106.98999 -13.754938
-3.749134 -104.274674 -13.044131
-3.397537 -105.934319 -12.947322
-12.903349 -89.036041 -15.663204
-14.381507 -87.868125 -16.152006
-11.971951 -84.035408 -14.381206
-12.539675 -85.027885 -14.789594
-11.490711 -82.961372 -13.928403
-10.635434 -85.043457 -13.798848
-11.971951 -84.035408 -14.381206
-10.993208 -81.891289 -13.554201
-11.490711 -82.961372 -13.928403
-35.267195 -89.163826 -25.379677
-36.435858 -88.679733 -25.57215
-1.564428 -99.976394 19.781465
-2.214787 -98.564919 19.71116
-2.125136 -99.031441 20.953606
-0.540025 -102.009986 17.360535
-1.166179 -100.550911 17.348499
-1.027926 -100.968948 18.551055
0.009471 -103.511757 17.288474
-0.540025 -102.009986 17.360535
0.478322 -105.013047 17.238376
0.009471 -103.511757 17.288474
0.067078 -103.929314 18.512992
0.839347 -106.548546 17.083044
0.78174 -106.130989 15.858526
0.478322 -105.013047 17.238376
-3.574891 -122.297432 12.469145
-3.353978 -121.342155 14.257571
-4.27248 -122.138001 13.537566
-2.946284 -122.436256 11.357215
-3.574891 -122.297432 12.469145
-5.89359 -124.479759 9.224897
-5.546926 -123.642364 11.036199
-6.995095 -124.918892 8.558554
-5.89359 -124.479759 9.224897
-4.164724 -95.444076 -11.114655
-3.9988 -94.203575 -10.430657
-11.900077 -114.687721 -19.551039
-10.543329 -115.71064 -18.970726
-11.776129 -116.014435 -19.508215
-20.296712 -88.24347 -18.74605
-21.084336 -88.81588 -19.202736
-21.743779 -86.723579 -19.224325
-19.495973 -87.577393 -18.315622
-18.836531 -89.669693 -18.294033
-20.296712 -88.24347 -18.74605
-18.77306 -86.892417 -17.888126
-19.495973 -87.577393 -18.315622
-12.874989 -113.747581 23.573131
-12.897634 -112.647301 25.03841
-11.808552 -114.906402 23.075005
-12.874989 -113.747581 23.573131
-12.835299 -114.826561 22.067967
-21.101864 -116.935822 12.849131
-19.75835 -117.408234 13.244665
-22.475381 -116.361496 12.541261
-21.446737 -117.62088 11.775365
-21.101864 -116.935822 12.849131
-23.82536 -115.817764 12.329874
-22.475381 -116.361496 12.541261
-24.19023 -116.380448 11.32601
-23.82536 -115.817764 12.329874
-29.183386 -90.673721 -23.331674
-28.981715 -92.521523 -23.234052
-30.397842 -90.528404 -23.83699
-28.044297 -90.764786 -22.791031
-29.183386 -90.673721 -23.331674
-29.460425 -88.771668 -23.393968
-27.519102 -86.81131 -22.416536
-27.261745 -88.776291 -22.29757
-28.578692 -86.897751 -22.972292
-26.558241 -86.672417 -21.844553
-27.519102 -86.81131 -22.416536
-10.786669 -124.071167 -16.346288
-12.064805 -124.170974 -16.851675
-38.005056 -108.856797 0.335811
-37.435421 -109.179337 1.26928
-37.384585 -109.686921 -0.917271
-38.005056 -108.856797 0.335811
-6.321635 -111.45018 31.14203
-6.685099 -110.43032 32.664401
-7.255763 -111.10801 31.932333
-11.959844 -127.626053 -5.447716
-11.551029 -127.656792 -6.712414
-16.184867 -125.901543 -2.14779
-15.508583 -125.948311 -0.646967
-16.870456 -125.34375 -0.880649
-16.967884 -125.776139 -3.698967
-16.184867 -125.901543 -2.14779
-17.763721 -125.542419 -5.138367
-16.967884 -125.776139 -3.698967
-18.342579 -125.063263 -3.820873
-18.672711 -125.223907 -6.597534
-17.298016 -125.936783 -6.475629
-17.763721 -125.542419 -5.138367
-42.662661 -105.207443 -9.526718
-41.729174 -106.584182 -9.655678
-45.061481 -100.20726 -11.973766
-44.852043 -100.934028 -11.089987
-44.423738 -101.168305 -12.966033
-45.061481 -100.20726 -11.973766
-45.243376 -99.474564 -12.814965
-46.103004 -93.036721 -17.851416
-46.022507 -94.08088 -17.198954
-45.287007 -93.853119 -18.616562
-46.103004 -93.036721 -17.851416
-44.411398 -94.735047 -19.411318
-44.372423 -95.833023 -18.817572
-45.287007 -93.853119 -18.616562
-44.428883 -93.581367 -19.941606
-43.514299 -95.561272 -20.142617
-44.411398 -94.735047 -19.411318
-44.45694 -92.381211 -20.515989
-44.428883 -93.581367 -19.941606
-43.550995 -93.145264 -21.184793
-44.45694 -92.381211 -20.515989
-5.803935 -85.949264 -10.136812
-5.134026 -87.876205 -9.792385
-6.560612 -83.965103 -10.434943
-5.803935 -85.949264 -10.136812
-6.584525 -85.26033 -10.86881
-7.276272 -81.983723 -10.815571
-6.560612 -83.965103 -10.434943
-8.118703 -81.244774 -11.503961
-8.053773 -79.952328 -11.152591
-7.276272 -81.983723 -10.815571
-10.209124 -79.590317 -12.823455
-9.956245 -78.364373 -12.478969
-9.149083 -80.439324 -12.185468
-5.528515 -112.77935 -15.791553
-6.365522 -113.543152 -16.505523
-5.528515 -112.77935 -15.791553
-5.719931 -111.313217 -15.898601
-4.559999 -107.958336 -14.482129
-5.227534 -108.897789 -15.238485
-4.901511 -106.318184 -14.543672
-3.908681 -106.98999 -13.754938
-4.559999 -107.958336 -14.482129
-15.059062 -114.535827 20.226957
-13.953511 -114.749725 21.146665
-15.198745 -115.611351 18.909433
-15.059062 -114.535827 20.226957
-34.030911 -89.591133 -25.092188
-33.922999 -91.348145 -24.873072
-35.267195 -89.163826 -25.379677
-32.831909 -89.976082 -24.735594
-34.030911 -89.591133 -25.092188
-31.586637 -90.276458 -24.312486
-31.441443 -92.075829 -24.162475
-32.831909 -89.976082 -24.735594
-30.397842 -90.528404 -23.83699
-31.586637 -90.276458 -24.312486
-9.058003 -126.205635 -11.904621
-7.980225 -125.872505 -11.288811
-8.155066 -126.393143 -10.315313
-13.343725 -124.209137 -17.314951
-12.064805 -124.170974 -16.851675
-12.195646 -124.871551 -16.140354
-14.593926 -123.409835 -18.39922
-13.343725 -124.209137 -17.314951
-14.724767 -124.110412 -17.687898
-15.882459 -122.517158 -19.3344
-14.593926 -123.409835 -18.39922
-2.375663 -98.107734 18.499428
-2.214787 -98.564919 19.71116
-2.375663 -98.107734 18.499428
-1.859396 -99.103249 17.366452
-0.687751 -119.343727 13.408949
-0.10137 -118.141175 14.029896
-0.544436 -118.265465 15.189149
-1.353803 -120.483925 12.745945
-1.893603 -120.484803 13.878676
-2.116589 -121.500709 12.056418
-0.687751 -119.343727 13.408949
-1.353803 -120.483925 12.745945
-5.129631 -89.173454 -10.311129
-5.134026 -87.876205 -9.792385
-6.017606 -88.478096 -11.089811
-5.129631 -89.173454 -10.311129
-5.319389 -90.407059 -10.830261
-9.416094 -115.280136 -18.370634
-10.543329 -115.71064 -18.970726
-8.314049 -114.797722 -17.790503
-9.416094 -115.280136 -18.370634
-9.56523 -113.901512 -18.433419
-7.328303 -114.194008 -17.13662
-8.314049 -114.797722 -17.790503
-7.500403 -112.768242 -17.222191
-6.365522 -113.543152 -16.505523
-7.328303 -114.194008 -17.13662
-15.059074 -88.715194 -16.575336
-14.271163 -90.803482 -16.582723
-15.779701 -89.559509 -17.027006
-14.381507 -87.868125 -16.152006
-15.059074 -88.715194 -16.575336
-17.301702 -88.237419 -17.441612
-18.77306 -86.892417 -17.888126
-2.066309 -99.535492 22.22478
-2.125136 -99.031441 20.953606
-1.507605 -100.943649 22.318082
-2.066309 -99.535492 22.22478
-0.966632 -102.399178 22.352056
-0.933804 -101.898445 21.057886
-1.507605 -100.943649 22.318082
-7.89129 -111.569962 31.08115
-7.255763 -111.10801 31.932333
-7.602581 -112.608871 29.520617
-7.89129 -111.569962 31.08115
-8.601571 -112.050964 30.191805
-11.964159 -112.74694 26.110359
-12.897634 -112.647301 25.03841
-11.028066 -112.658295 27.143081
-11.964159 -112.74694 26.110359
-10.912149 -113.738777 25.612893
-10.181368 -112.590683 28.209061
-11.028066 -112.658295 27.143081
-9.144459 -113.370002 27.638443
-9.349771 -112.310554 29.201889
-10.181368 -112.590683 28.209061
-15.334393 -116.639763 17.524207
-14.140934 -116.860123 18.342011
-15.198745 -115.611351 18.909433
-15.544165 -117.63369 16.246506
-15.334393 -116.639763 17.524207
-16.601976 -116.384918 16.813928
-18.127614 -117.000054 14.971162
-17.854691 -116.057594 16.142695
-17.08391 -118.247948 14.274234
-18.127614 -117.000054 14.971162
-18.399776 -117.869156 13.709169
-25.301694 -117.454826 8.077371
-23.923987 -118.255661 8.154354
-24.919569 -117.19619 9.201816
-25.686149 -117.581108 7.016872
-25.301694 -117.454826 8.077371
-23.863748 -85.663094 -20.268726
-23.401798 -87.72731 -20.17683
-24.734144 -86.094414 -20.764545
-23.096684 -85.195629 -19.764167
-23.863748 -85.663094 -20.268726
-7.834448 -125.287704 -12.226562
-7.980225 -125.872505 -11.288811
-7.834448 -125.287704 -12.226562
-8.737655 -125.013169 -13.693632
-9.754437 -124.587364 -15.093112
-10.786669 -124.071167 -16.346288
-13.034534 -116.263801 -20.055254
-11.776129 -116.014435 -19.508215
-14.483418 -115.112953 -20.580441
-13.034534 -116.263801 -20.055254
-14.385074 -116.385238 -20.547166
-17.261011 -121.497689 -20.178099
-15.882459 -122.517158 -19.3344
-17.353522 -122.291641 -19.615865
-17.212802 -120.612229 -20.600758
-17.261011 -121.497689 -20.178099
-18.683865 -120.386711 -20.882223
-17.159335 -119.668289 -20.961723
-17.212802 -120.612229 -20.600758
-17.154171 -118.639237 -21.194893
-17.159335 -119.668289 -20.961723
-18.630492 -118.472198 -21.538052
-17.155383 -117.555961 -21.378979
-17.154171 -118.639237 -21.194893
-17.208973 -116.393639 -21.457079
-17.155383 -117.555961 -21.378979
-18.678917 -116.280823 -21.849322
-17.283233 -115.176445 -21.499887
-15.759699 -116.451583 -21.029545
-17.208973 -116.393639 -21.457079
-37.625595 -88.156868 -25.682609
-36.435858 -88.679733 -25.57215
-36.34902 -90.397972 -25.271021
-37.625595 -88.156868 -25.682609
-38.732187 -87.608185 -25.685127
-39.554665 -108.97136 -6.162393
-38.52523 -110.013741 -6.400298
-39.136841 -109.202874 -5.401656
-39.926887 -108.696717 -7.031376
-39.554665 -108.97136 -6.162393
-28.854095 -115.574333 6.041534
-27.489708 -116.587433 5.921795
-29.285838 -115.414017 5.012129
-28.854095 -115.574333 6.041534
-29.77561 -115.20755 3.928502
-28.403003 -116.320481 3.756127
-29.285838 -115.414017 5.012129
-30.273372 -114.936882 2.901978
-29.77561 -115.20755 3.928502
-30.850903 -114.628868 1.843135
-29.470306 -115.806 1.613658
-30.273372 -114.936882 2.901978
-31.428621 -114.294433 0.842579
-30.850903 -114.628868 1.843135
-32.231687 -113.425315 2.130898
-36.266094 -109.856133 3.155153
-36.816786 -109.520943 2.197795
-34.947536 -111.040161 2.789674
-36.266094 -109.856133 3.155153
-34.163714 -111.895294 1.477003
-33.593229 -112.235748 2.443011
-34.947536 -111.040161 2.789674
-36.762516 -110.492829 -2.17403
-36.133223 -110.822403 -1.290123
-37.384585 -109.686921 -0.917271
-36.203001 -111.26693 -3.355835
-36.762516 -110.492829 -2.17403
-37.454363 -110.131447 -2.982984
-1.10264 -102.878655 23.654277
-1.260146 -103.380607 24.97551
-0.528838 -103.83345 22.394081
-0.966632 -102.399178 22.352056
-1.10264 -102.878655 23.654277
-6.176096 -109.76995 33.330238
-6.685099 -110.43032 32.664401
-5.760568 -108.912071 33.869507
-6.176096 -109.76995 33.330238
-5.335444 -109.914612 32.413367
-5.386456 -108.070373 34.327152
-5.760568 -108.912071 33.869507
-4.665744 -108.045074 33.288515
-5.386456 -108.070373 34.327152
-4.665744 -108.045074 33.288515
-4.145935 -109.018608 31.916429
-2.889753 -109.974671 29.417837
-3.679291 -110.015045 30.459194
-3.19709 -111.009231 28.996809
-2.889753 -109.974671 29.417837
-2.217949 -109.782501 28.274829
-1.493264 -107.008477 27.514372
-1.484367 -108.284501 27.36855
-1.079779 -106.603791 26.229634
-1.493264 -107.008477 27.514372
-0.680076 -106.210624 24.953449
-1.079779 -106.603791 26.229634
-0.540683 -107.579689 24.866709
-0.402913 -105.749725 23.643412
-0.942009 -104.773826 25.006338
-0.680076 -106.210624 24.953449
1.413108 -110.374557 13.988975
1.265165 -108.835533 14.250407
1.290709 -109.205513 15.441762
1.413108 -110.374557 13.988975
1.437264 -111.905716 13.607903
0.772698 -115.488731 15.141635
0.43158 -115.715958 16.329473
0.383064 -116.835685 14.622259
1.009502 -115.181106 13.928377
1.058019 -114.061379 15.635592
0.772698 -115.488731 15.141635
1.180336 -114.884591 12.741944
1.009502 -115.181106 13.928377
1.36535 -113.410325 13.228906
1.180336 -114.884591 12.741944
-8.34033 -126.830208 -9.251358
-8.155066 -126.393143 -10.315313
-9.458196 -127.079598 -9.824171
-8.34033 -126.830208 -9.251358
-8.565684 -127.183533 -8.144407
-9.987441 -127.601326 -7.511068
-8.821562 -127.455483 -6.982435
-10.909297 -127.435562 -9.16883
-9.987441 -127.601326 -7.511068
-11.213188 -127.603966 -7.962678
-8.162066 -125.207313 7.885542
-6.995095 -124.918892 8.558554
-7.76743 -124.479873 9.650245
-9.367902 -125.376663 7.279648
-10.19147 -124.795066 8.370344
-10.62497 -125.403435 6.672759
-8.162066 -125.207313 7.885542
-9.367902 -125.376663 7.279648
-14.271938 -125.719963 2.481693
-15.623394 -125.238487 2.146256
-14.842715 -125.871994 0.955611
-12.931957 -126.071198 2.911608
-13.712636 -125.437691 4.102252
-14.271938 -125.719963 2.481693
-11.625108 -126.302765 3.352062
-12.931957 -126.071198 2.911608
-13.254024 -127.387878 -5.820419
-11.959844 -127.626053 -5.447716
-14.581858 -127.023163 -6.09344
-15.927711 -126.534859 -6.341207
-14.138561 -127.179138 -7.392932
-13.254024 -127.387878 -5.820419
-14.581858 -127.023163 -6.09344
-40.479571 -108.207031 -8.805636
-40.191624 -108.519851 -7.893775
-39.695465 -109.179374 -9.81214
-40.479571 -108.207031 -8.805636
-40.702509 -107.957909 -9.731943
-42.89764 -104.67575 -10.458058
-42.662661 -105.207443 -9.526718
-44.032696 -102.534851 -11.227517
-44.852043 -100.934028 -11.089987
-43.110929 -104.162293 -11.372729
-44.032696 -102.534851 -11.227517
-43.320078 -103.528442 -12.270046
-42.185023 -105.669342 -11.500587
-42.89764 -104.67575 -10.458058
-43.110929 -104.162293 -11.372729
-45.732418 -96.958519 -15.165973
-45.577713 -97.841995 -14.40922
-45.006766 -97.871338 -16.049446
-45.732418 -96.958519 -15.165973
-45.839018 -96.044716 -15.865355
-45.180699 -95.954316 -17.385822
-45.955174 -95.084099 -16.561961
-46.022507 -94.08088 -17.198954
-42.62505 -91.265625 -22.793926
-42.589594 -92.639336 -22.278454
-41.657064 -91.962128 -23.302271
-42.62505 -91.265625 -22.793926
-42.673132 -89.832016 -23.235971
-40.724092 -89.663475 -24.562622
-40.657293 -91.203491 -24.105017
-41.771946 -88.988503 -24.201922
-40.805313 -88.073937 -24.934563
-39.69066 -90.288926 -24.837658
-40.724092 -89.663475 -24.562622
-40.877956 -86.438629 -25.411648
-40.805313 -88.073937 -24.934563
-39.848749 -87.020325 -25.599186
-40.877956 -86.438629 -25.411648
-8.779607 -77.926949 -11.564419
-8.053773 -79.952328 -11.152591
-8.779607 -77.926949 -11.564419
-9.658416 -77.144581 -12.214285
-4.227749 -102.511582 -13.070638
-3.749134 -104.274674 -13.044131
-4.728808 -103.586746 -13.842987
-3.736124 -101.42463 -12.345897
-4.227749 -102.511582 -13.070638
-4.715799 -100.736702 -13.144753
-3.396155 -100.259667 -11.561238
-3.736124 -101.42463 -12.345897
-3.887409 -98.479774 -11.694209
-3.396155 -100.259667 -11.561238
-4.501511 -96.612572 -11.770441
-3.887409 -98.479774 -11.694209
-4.838275 -97.782547 -12.496245
-5.11559 -94.746849 -11.91669
-4.164724 -95.444076 -11.114655
-4.501511 -96.612572 -11.770441
-11.424837 -90.165054 -15.167419
-12.072022 -91.08818 -15.635267
-12.903349 -89.036041 -15.663204
-10.844034 -89.161377 -14.635134
-10.012708 -91.213516 -14.607197
-11.424837 -90.165054 -15.167419
-11.686418 -87.115204 -14.723503
-12.539675 -85.027885 -14.789594
-10.27429 -88.163666 -14.16328
-10.844034 -89.161377 -14.635134
-11.686418 -87.115204 -14.723503
-10.617092 -80.739212 -13.146155
-9.778078 -82.817344 -12.938
-10.993208 -81.891289 -13.554201
-10.209124 -79.590317 -12.823455
-10.617092 -80.739212 -13.146155
3 0 91 89
3 1 94 92
3 3 97 95
3 3 99 97
3 4 102 100
3 4 103 102
3 5 106 104
3 5 363 365
3 365 364 106
3 363 364 365
3 5 366 368
3 366 108 367
3 366 367 368
3 369 111 370
3 371 370 109
3 369 370 371
3 372 113 373
3 374 373 111
3 372 373 374
3 2 116 114
3 376 375 117
3 6 121 119
3 8 124 122
3 8 126 124
3 10 377 379
3 377 128 378
3 377 378 379
3 10 130 128
3 10 132 130
3 12 136 134
3 380 138 381
3 383 382 138
3 7 142 140
3 14 145 143
3 14 147 145
3 14 149 147
3 15 152 150
3 15 154 152
3 9 157 155
3 17 160 158
3 17 162 160
3 17 164 162
3 11 167 165
3 18 170 168
3 18 171 170
3 18 173 171
3 16 176 174
3 16 178 176
3 384 180 385
3 386 182 387
3 388 387 180
3 386 387 388
3 19 186 185
3 19 188 186
3 20 389 391
3 391 390 189
3 389 390 391
3 20 392 394
3 392 190 393
3 392 393 394
3 13 193 191
3 21 196 194
3 21 198 196
3 21 200 198
3 22 203 201
3 24 204 90
3 24 205 204
3 25 208 206
3 27 211 209
3 29 212 93
3 29 213 212
3 30 216 214
3 32 217 96
3 32 218 217
3 32 220 218
3 34 221 98
3 34 222 221
3 396 395 101
3 35 397 398
3 35 399 400
3 36 225 223
3 38 226 105
3 38 227 226
3 38 229 227
3 402 401 107
3 39 232 230
3 41 233 110
3 41 234 233
3 41 236 234
3 43 237 112
3 43 238 237
3 44 403 404
3 44 405 407
3 405 239 406
3 405 406 407
3 45 240 115
3 45 241 240
3 46 244 242
3 48 245 118
3 48 246 245
3 48 408 410
3 410 409 246
3 408 409 410
3 49 250 248
3 51 251 120
3 51 252 251
3 23 253 202
3 52 254 123
3 52 255 254
3 52 256 255
3 53 257 125
3 53 258 257
3 411 259 412
3 54 260 127
3 54 261 260
3 54 262 261
3 55 263 129
3 55 264 263
3 55 266 264
3 57 267 131
3 57 268 267
3 413 269 414
3 58 415 417
3 415 270 416
3 415 416 417
3 58 271 270
3 58 272 271
3 418 273 419
3 420 419 133
3 418 419 420
3 422 421 273
3 59 276 274
3 61 277 135
3 61 278 277
3 26 279 207
3 62 280 137
3 62 281 280
3 62 282 281
3 423 283 424
3 425 424 139
3 423 424 425
3 427 426 283
3 28 428 430
3 430 429 210
3 428 429 430
3 431 284 432
3 50 285 249
3 63 286 141
3 63 287 286
3 31 288 215
3 64 289 144
3 64 290 289
3 64 291 290
3 65 292 146
3 65 293 292
3 65 294 293
3 66 295 148
3 66 296 295
3 33 297 219
3 67 298 151
3 67 299 298
3 67 300 299
3 68 301 153
3 68 433 435
3 435 434 301
3 433 434 435
3 437 436 302
3 438 304 439
3 69 440 442
3 440 305 441
3 440 441 442
3 69 306 305
3 69 307 306
3 443 308 444
3 445 302 446
3 447 446 308
3 445 446 447
3 448 310 449
3 71 311 156
3 71 450 452
3 452 451 311
3 450 451 452
3 37 312 224
3 72 313 159
3 72 453 455
3 455 454 313
3 453 454 455
3 72 456 458
3 456 314 457
3 456 457 458
3 73 315 161
3 73 316 315
3 73 317 316
3 74 318 163
3 74 459 461
3 461 460 318
3 459 460 461
3 463 462 228
3 464 319 465
3 75 466 468
3 466 320 467
3 466 467 468
3 75 321 320
3 56 322 265
3 76 469 471
3 471 470 166
3 469 470 471
3 76 472 473
3 40 323 231
3 475 474 169
3 77 476 478
3 476 324 477
3 476 477 478
3 77 325 324
3 77 326 325
3 78 327 172
3 78 328 327
3 42 329 235
3 79 330 175
3 79 331 330
3 79 332 331
3 70 333 177
3 70 309 333
3 479 334 480
3 481 480 303
3 479 480 481
3 80 482 484
3 482 335 483
3 482 483 484
3 80 336 335
3 81 337 179
3 81 338 337
3 81 339 338
3 82 340 181
3 82 341 340
3 485 342 486
3 83 343 183
3 83 344 343
3 83 345 344
3 487 346 488
3 489 488 184
3 487 488 489
3 490 347 491
3 492 491 346
3 490 491 492
3 493 348 494
3 496 495 348
3 498 497 187
3 84 499 500
3 84 501 502
3 60 349 275
3 85 350 192
3 85 351 350
3 47 352 243
3 86 353 195
3 86 354 353
3 86 355 354
3 87 356 197
3 87 357 356
3 87 358 357
3 88 359 199
3 88 360 359
3 504 503 247
3 505 361 506
3 507 362 508
3 509 508 361
3 507 508 509
3 511 510 362
3 89 90 22
3 91 90 89
3 91 24 90
3 513 512 25
3 92 93 27
3 94 93 92
3 94 29 93
3 95 96 30
3 97 96 95
3 97 32 96
3 97 98 32
3 99 98 97
3 99 34 98
3 100 514 516
3 514 101 515
3 514 515 516
3 102 101 100
3 102 517 519
3 519 518 101
3 517 518 519
3 102 520 521
3 103 522 524
3 524 523 102
3 522 523 524
3 103 525 527
3 525 35 526
3 525 526 527
3 104 105 36
3 106 105 104
3 106 38 105
3 106 107 38
3 528 107 529
3 530 529 106
3 528 529 530
3 532 531 107
3 108 533 534
3 108 535 536
3 109 110 39
3 111 110 109
3 111 41 110
3 111 112 41
3 113 112 111
3 113 43 112
3 537 44 538
3 114 539 541
3 539 115 540
3 539 540 541
3 116 115 114
3 116 45 115
3 117 118 46
3 542 118 543
3 544 543 117
3 542 543 544
3 545 48 546
3 547 546 118
3 545 546 547
3 549 548 48
3 119 120 49
3 121 120 119
3 121 51 120
3 122 123 23
3 124 123 122
3 124 52 123
3 124 125 52
3 126 125 124
3 126 53 125
3 550 127 551
3 128 552 554
3 552 127 553
3 552 553 554
3 128 54 127
3 128 129 54
3 130 129 128
3 130 55 129
3 130 131 55
3 132 131 130
3 132 57 131
3 555 58 556
3 557 133 558
3 559 558 58
3 557 558 559
3 560 133 561
3 563 562 133
3 134 135 59
3 136 135 134
3 136 61 135
3 564 137 565
3 566 565 26
3 564 565 566
3 138 567 569
3 567 137 568
3 567 568 569
3 138 62 137
3 138 139 62
3 570 139 571
3 572 571 138
3 570 571 572
3 574 573 139
3 576 575 28
3 140 141 50
3 142 141 140
3 142 63 141
3 143 144 31
3 145 144 143
3 145 64 144
3 145 146 64
3 147 146 145
3 147 65 146
3 147 148 65
3 149 148 147
3 149 66 148
3 150 151 33
3 152 151 150
3 152 67 151
3 152 153 67
3 154 153 152
3 154 68 153
3 577 69 578
3 580 579 69
3 155 581 583
3 581 156 582
3 581 582 583
3 157 156 155
3 157 71 156
3 158 159 37
3 160 159 158
3 160 72 159
3 160 161 72
3 162 161 160
3 162 73 161
3 162 163 73
3 164 163 162
3 164 74 163
3 584 75 585
3 165 166 56
3 167 166 165
3 167 76 166
3 168 169 40
3 170 169 168
3 170 586 588
3 588 587 169
3 586 587 588
3 170 589 590
3 171 591 593
3 593 592 170
3 591 592 593
3 171 594 596
3 594 77 595
3 594 595 596
3 171 172 77
3 173 172 171
3 173 78 172
3 174 175 42
3 176 175 174
3 176 79 175
3 176 177 79
3 178 177 176
3 178 70 177
3 597 80 598
3 599 179 600
3 180 601 603
3 601 179 602
3 601 602 603
3 180 81 179
3 180 181 81
3 182 181 180
3 182 82 181
3 604 183 605
3 606 183 607
3 608 83 609
3 610 609 183
3 608 609 610
3 611 184 612
3 613 612 83
3 611 612 613
3 614 184 615
3 617 616 184
3 185 618 619
3 186 620 622
3 622 621 185
3 620 621 622
3 186 623 624
3 186 625 627
3 625 187 626
3 625 626 627
3 188 187 186
3 188 628 630
3 630 629 187
3 628 629 630
3 189 631 632
3 634 633 189
3 190 635 636
3 190 637 639
3 637 84 638
3 637 638 639
3 191 192 60
3 193 192 191
3 193 85 192
3 194 195 47
3 196 195 194
3 196 86 195
3 196 197 86
3 198 197 196
3 198 87 197
3 198 199 87
3 200 199 198
3 200 88 199
3 201 202 6
3 203 202 201
3 203 23 202
3 90 203 22
3 204 203 90
3 204 23 203
3 204 122 23
3 205 122 204
3 205 8 122
3 640 10 641
3 643 642 10
3 206 207 12
3 208 207 206
3 208 26 207
3 644 208 645
3 646 645 25
3 644 645 646
3 647 208 648
3 649 26 650
3 651 650 208
3 649 650 651
3 653 652 26
3 209 654 656
3 654 210 655
3 654 655 656
3 211 210 209
3 211 28 210
3 93 211 27
3 212 211 93
3 212 28 211
3 212 657 659
3 659 658 28
3 657 658 659
3 213 660 662
3 662 661 212
3 660 661 662
3 213 663 664
3 214 215 7
3 216 215 214
3 216 31 215
3 96 216 30
3 217 216 96
3 217 31 216
3 217 143 31
3 218 143 217
3 218 14 143
3 218 219 14
3 220 219 218
3 220 33 219
3 98 220 32
3 221 220 98
3 221 33 220
3 221 150 33
3 222 150 221
3 222 15 150
3 101 665 666
3 668 667 101
3 223 224 9
3 225 224 223
3 225 37 224
3 105 225 36
3 226 225 105
3 226 37 225
3 226 158 37
3 227 158 226
3 227 17 158
3 227 228 17
3 229 228 227
3 229 669 671
3 671 670 228
3 669 670 671
3 107 229 38
3 672 229 673
3 674 673 107
3 672 673 674
3 676 675 229
3 230 231 11
3 232 231 230
3 232 40 231
3 110 232 39
3 233 232 110
3 233 40 232
3 233 168 40
3 234 168 233
3 234 18 168
3 234 235 18
3 236 235 234
3 236 42 235
3 112 236 41
3 237 236 112
3 237 42 236
3 237 174 42
3 238 174 237
3 238 16 174
3 677 185 678
3 239 679 681
3 679 185 680
3 679 680 681
3 239 19 185
3 115 682 683
3 240 684 686
3 686 685 115
3 684 685 686
3 240 687 688
3 240 689 691
3 689 189 690
3 689 690 691
3 241 189 240
3 241 20 189
3 242 243 13
3 244 243 242
3 244 47 243
3 118 244 46
3 245 244 118
3 245 47 244
3 245 194 47
3 246 194 245
3 246 21 194
3 246 247 21
3 692 247 693
3 694 693 246
3 692 693 694
3 696 695 247
3 698 697 48
3 248 249 1
3 250 249 248
3 250 50 249
3 120 250 49
3 251 250 120
3 251 50 250
3 251 140 50
3 252 140 251
3 252 7 140
3 202 121 6
3 253 121 202
3 253 51 121
3 123 253 23
3 254 253 123
3 254 51 253
3 254 252 51
3 255 252 254
3 255 7 252
3 255 214 7
3 256 214 255
3 256 30 214
3 125 256 52
3 257 256 125
3 257 30 256
3 257 95 30
3 258 95 257
3 258 3 95
3 699 100 700
3 701 100 702
3 703 4 704
3 705 704 100
3 703 704 705
3 706 155 707
3 259 708 710
3 708 155 709
3 708 709 710
3 259 9 155
3 127 711 712
3 260 713 715
3 715 714 127
3 713 714 715
3 260 716 717
3 260 718 720
3 718 259 719
3 718 719 720
3 261 259 260
3 261 9 259
3 261 223 9
3 262 223 261
3 262 36 223
3 129 262 54
3 263 262 129
3 263 36 262
3 263 104 36
3 264 104 263
3 264 5 104
3 264 265 5
3 266 265 264
3 266 56 265
3 131 266 55
3 267 266 131
3 267 56 266
3 267 165 56
3 268 165 267
3 268 11 165
3 721 132 722
3 723 722 10
3 721 722 723
3 269 724 726
3 724 132 725
3 724 725 726
3 269 57 132
3 727 269 728
3 270 729 731
3 729 269 730
3 729 730 731
3 270 57 269
3 270 268 57
3 271 268 270
3 271 11 268
3 271 230 11
3 272 230 271
3 272 39 230
3 133 272 58
3 273 272 133
3 273 39 272
3 273 109 39
3 732 109 733
3 734 733 273
3 732 733 734
3 736 735 109
3 274 275 2
3 276 275 274
3 276 60 275
3 135 276 59
3 277 276 135
3 277 60 276
3 277 191 60
3 278 191 277
3 278 13 191
3 207 136 12
3 279 136 207
3 279 61 136
3 137 279 26
3 280 279 137
3 280 61 279
3 280 278 61
3 281 278 280
3 281 13 278
3 281 242 13
3 282 242 281
3 282 46 242
3 139 282 62
3 283 282 139
3 283 46 282
3 283 117 46
3 737 117 738
3 739 738 283
3 737 738 739
3 741 740 117
3 210 742 743
3 745 744 210
3 747 746 28
3 748 114 749
3 284 750 752
3 750 114 751
3 750 751 752
3 284 2 114
3 249 94 1
3 285 94 249
3 285 29 94
3 141 285 50
3 286 285 141
3 286 29 285
3 286 213 29
3 287 213 286
3 287 753 755
3 755 754 213
3 753 754 755
3 215 142 7
3 288 142 215
3 288 63 142
3 144 288 31
3 289 288 144
3 289 63 288
3 289 287 63
3 290 287 289
3 290 756 758
3 758 757 287
3 756 757 758
3 290 759 760
3 291 761 763
3 763 762 290
3 761 762 763
3 291 764 765
3 146 291 64
3 292 291 146
3 292 766 768
3 768 767 291
3 766 767 768
3 292 769 771
3 769 284 770
3 769 770 771
3 293 284 292
3 293 2 284
3 293 274 2
3 294 274 293
3 294 59 274
3 148 294 65
3 295 294 148
3 295 59 294
3 295 134 59
3 296 134 295
3 296 12 134
3 219 149 14
3 297 149 219
3 297 66 149
3 151 297 33
3 298 297 151
3 298 66 297
3 298 296 66
3 299 296 298
3 299 12 296
3 299 206 12
3 300 206 299
3 300 25 206
3 153 300 67
3 301 300 153
3 301 25 300
3 301 772 774
3 774 773 25
3 772 773 774
3 776 775 301
3 302 303 0
3 777 303 778
3 779 778 302
3 777 778 779
3 781 780 303
3 782 113 783
3 784 113 785
3 786 43 787
3 788 787 113
3 786 787 788
3 789 43 790
3 791 238 792
3 793 792 43
3 791 792 793
3 304 794 796
3 794 238 795
3 794 795 796
3 304 16 238
3 305 797 798
3 305 799 800
3 305 801 803
3 801 304 802
3 801 802 803
3 306 304 305
3 306 16 304
3 306 178 16
3 307 178 306
3 307 70 178
3 804 307 805
3 806 805 69
3 804 805 806
3 308 807 809
3 807 307 808
3 807 808 809
3 308 70 307
3 308 309 70
3 302 309 308
3 302 0 309
3 310 810 811
3 310 812 814
3 812 4 813
3 812 813 814
3 156 815 816
3 311 817 819
3 819 818 156
3 817 818 819
3 311 820 821
3 311 822 823
3 825 824 311
3 224 157 9
3 312 157 224
3 312 71 157
3 159 312 37
3 313 312 159
3 313 71 312
3 313 826 828
3 828 827 71
3 826 827 828
3 830 829 313
3 314 831 832
3 314 833 834
3 161 314 72
3 315 314 161
3 315 835 837
3 837 836 314
3 835 836 837
3 315 838 840
3 838 310 839
3 838 839 840
3 316 310 315
3 316 4 310
3 316 103 4
3 317 103 316
3 317 35 103
3 163 317 73
3 318 317 163
3 318 35 317
3 318 841 843
3 843 842 35
3 841 842 843
3 845 844 318
3 228 164 17
3 846 164 847
3 848 847 228
3 846 847 848
3 849 74 850
3 851 850 164
3 849 850 851
3 852 74 853
3 855 854 74
3 856 209 857
3 319 858 860
3 858 209 859
3 858 859 860
3 319 27 209
3 861 319 862
3 320 863 865
3 863 319 864
3 863 864 865
3 320 27 319
3 320 92 27
3 321 92 320
3 321 1 92
3 265 108 5
3 322 108 265
3 322 866 868
3 868 867 108
3 866 867 868
3 166 322 56
3 869 322 870
3 871 870 166
3 869 870 871
3 873 872 322
3 231 167 11
3 323 167 231
3 323 76 167
3 169 323 40
3 874 323 875
3 876 875 169
3 874 875 876
3 877 76 878
3 879 878 323
3 877 878 879
3 881 880 76
3 882 75 883
3 324 884 885
3 324 886 888
3 886 75 887
3 886 887 888
3 324 321 75
3 325 321 324
3 325 1 321
3 325 248 1
3 326 248 325
3 326 49 248
3 172 326 77
3 327 326 172
3 327 49 326
3 327 119 49
3 328 119 327
3 328 6 119
3 235 173 18
3 329 173 235
3 329 78 173
3 175 329 42
3 330 329 175
3 330 78 329
3 330 328 78
3 331 328 330
3 331 6 328
3 331 201 6
3 332 201 331
3 332 22 201
3 177 332 79
3 333 332 177
3 333 22 332
3 333 89 22
3 309 89 333
3 309 0 89
3 303 91 0
3 334 91 303
3 334 24 91
3 889 334 890
3 335 891 893
3 891 334 892
3 891 892 893
3 335 24 334
3 335 205 24
3 336 205 335
3 336 8 205
3 894 80 895
3 179 896 897
3 337 898 900
3 900 899 179
3 898 899 900
3 337 901 903
3 901 80 902
3 901 902 903
3 337 336 80
3 338 336 337
3 338 8 336
3 338 126 8
3 339 126 338
3 339 53 126
3 181 339 81
3 340 339 181
3 340 53 339
3 340 258 53
3 341 258 340
3 341 3 258
3 904 182 905
3 342 906 908
3 906 182 907
3 906 907 908
3 342 82 182
3 183 909 911
3 909 342 910
3 909 910 911
3 343 342 183
3 343 82 342
3 343 341 82
3 344 341 343
3 344 3 341
3 344 99 3
3 345 99 344
3 345 34 99
3 184 345 83
3 346 345 184
3 346 34 345
3 346 222 34
3 347 222 346
3 347 15 222
3 912 347 913
3 348 914 916
3 914 347 915
3 914 915 916
3 348 15 347
3 348 154 15
3 917 154 918
3 919 918 348
3 917 918 919
3 920 68 921
3 922 921 154
3 920 921 922
3 923 68 924
3 926 925 68
3 187 927 928
3 930 929 187
3 275 116 2
3 349 116 275
3 349 45 116
3 192 349 60
3 350 349 192
3 350 45 349
3 350 241 45
3 351 241 350
3 351 20 241
3 243 193 13
3 352 193 243
3 352 85 193
3 195 352 47
3 353 352 195
3 353 85 352
3 353 351 85
3 354 351 353
3 354 20 351
3 354 190 20
3 355 190 354
3 355 84 190
3 197 355 86
3 356 355 197
3 356 84 355
3 356 931 933
3 933 932 84
3 931 932 933
3 357 934 936
3 936 935 356
3 934 935 936
3 357 937 938
3 357 939 940
3 358 941 943
3 943 942 357
3 941 942 943
3 358 944 946
3 944 44 945
3 944 945 946
3 199 358 87
3 359 358 199
3 359 44 358
3 359 239 44
3 360 239 359
3 360 19 239
3 247 200 21
3 947 200 948
3 949 948 247
3 947 948 949
3 950 88 951
3 952 951 200
3 950 951 952
3 361 953 954
3 361 955 957
3 955 88 956
3 955 956 957
3 361 360 88
3 362 360 361
3 362 19 360
3 362 188 19
3 958 188 959
3 960 959 362
3 958 959 960
3 962 961 188
