ply
format ascii 1.0
element vertex 856
property float x
property float y
property float z
element face 873
property list uchar int vertex_index
end_header
-39.96788 -26.506737 66.42717
-50.03611 -18.363789 52.024513
-23.055231 -31.091528 76.527695
-63.462109 -10.884666 36.379906
-32.521313 -29.884651 71.451683
-56.710747 -14.422417 44.189655
-57.6213 -6.125966 38.506592
-63.946579 -2.911917 30.482533
-10.060095 -39.567963 86.52063
-3.200132 -42.56974 89.053528
-46.700157 -27.749855 67.816544
-44.753723 -21.999798 59.846783
-19.18128 -37.013397 81.627762
-29.485664 -35.211819 77.387123
-39.405933 -32.461395 73.312637
-68.118729 -2.290648 22.040606
-1.919603 -44.160847 75.113373
-0.375378 -44.263664 84.75959
-43.388145 -27.205143 67.269928
-46.08659 -24.789118 64.068588
-42.523842 -24.194054 63.374325
-20.853027 -34.087814 78.934692
-24.248743 -36.083504 79.401054
-25.905695 -33.430866 76.534882
-36.651291 -28.5103 69.047318
-35.830982 -31.422466 72.230934
-40.025459 -29.55912 69.949234
-43.442688 -30.247036 70.817764
-16.012535 -34.841484 81.577354
-51.195641 -21.015833 56.40139
-54.603477 -22.175457 56.106586
-54.100731 -19.478422 52.2887
-60.164597 -12.424605 40.310364
-66.346962 -10.100071 32.357616
-66.459145 -2.31184 26.279926
-1.184616 -43.672943 87.842148
-2.098106 -49.157444 82.861549
-37.387188 -25.060942 66.756523
-39.793144 -22.990669 63.62999
-27.867287 -30.652018 73.892639
-49.676132 -15.027849 48.371872
-53.277462 -16.486399 48.080593
-53.151428 -12.801967 44.558506
-56.746273 -10.489757 40.775803
-60.299988 -8.442832 36.955986
-63.629345 -6.993871 33.041672
-60.919128 -4.20877 34.55571
-7.314684 -36.752594 86.839233
-6.2472 -41.111748 88.424515
-48.560707 -22.70433 60.389679
-47.173824 -20.110678 55.992813
-41.775444 -20.82917 60.089394
-43.894623 -18.85218 56.230953
-46.524136 -17.002491 52.271408
-31.001396 -32.649109 74.348969
-34.652061 -34.100609 75.431984
-11.46899 -35.750221 84.336189
-14.418142 -38.166809 84.076515
-57.179214 -17.844881 48.172802
-66.467468 -6.313323 29.00639
-68.451828 -6.342663 24.911015
-0.713139 -44.379181 80.299782
-2.635521 -49.229439 77.938477
-41.623642 -26.919649 66.783981
-43.008194 -25.719273 65.299759
-41.320534 -25.36038 64.962585
-21.875803 -32.611637 77.633804
-23.360378 -33.757156 77.703293
-24.344381 -32.351505 76.344711
-38.418266 -27.573858 67.780548
-38.268703 -29.118191 69.395645
-40.053169 -28.071852 68.143188
-41.809498 -28.420351 68.670792
-19.448671 -32.881126 78.984619
-50.586723 -19.744148 54.192154
-52.61792 -20.248001 54.351025
-52.089001 -18.915461 52.175789
-61.846401 -11.574287 38.355164
-61.849869 -13.486458 40.206745
-63.412235 -12.796133 38.20343
-64.887032 -12.285248 36.182106
-64.976471 -10.387932 34.380486
-50.043404 -13.028059 47.077316
-51.387451 -13.942684 46.457016
-51.77422 -11.877894 45.178123
-55.316322 -9.496781 41.392284
-57.090889 -8.348205 39.488483
-58.538277 -9.409753 38.874451
-58.845772 -7.287028 37.568314
-60.562172 -6.352867 35.625816
-59.292664 -5.101027 36.544411
-8.570438 -38.282654 86.650352
-6.63154 -38.92865 87.67263
-8.073704 -40.333832 87.584671
-45.441437 -23.405748 61.945999
-47.322327 -23.691872 62.280037
-46.622215 -22.372169 60.101822
-47.85498 -21.433882 58.17717
-45.915638 -21.020514 57.946877
-40.802292 -21.897184 61.910164
-40.820274 -19.942976 60.787144
-45.136971 -17.926363 54.250702
-18.489975 -38.545979 82.750107
-20.940065 -37.977104 81.621033
-26.858002 -35.656719 78.374619
-28.662968 -36.525131 78.584305
-31.28208 -36.025337 77.637573
-30.235516 -30.329823 72.654602
-29.315447 -31.741341 73.94516
-31.747477 -31.3116 72.81263
-37.649166 -31.970806 72.844666
-35.30098 -32.77063 73.901428
-37.102989 -33.358002 74.407265
-36.371452 -34.76561 75.677216
-45.159622 -29.005348 69.384293
-17.50877 -35.992867 81.554863
-15.130678 -36.494682 82.847183
-16.755527 -37.55764 82.831779
-16.128294 -39.18602 83.933273
-55.952728 -21.549337 53.945827
-54.981567 -15.468048 46.130081
-55.281765 -17.141605 48.159363
-56.92939 -16.192513 46.166565
-63.781021 -4.980326 31.652861
-65.130486 -6.555433 31.038246
-65.219124 -4.57158 29.617012
-67.418976 -2.244375 24.153076
-67.544434 -4.284999 25.472662
-68.334503 -4.355374 23.400616
-68.996628 -6.540443 22.899338
-68.811356 -4.512878 21.370331
-68.513992 -2.406359 19.97921
-1.603792 -41.395817 73.809875
-2.72681 -43.954971 72.409386
-2.942181 -46.614162 73.813126
-3.289675 -40.153923 88.804787
-1.959793 -40.676006 88.743507
-0.626741 -44.034378 86.512642
-0.155285 -41.425774 87.144547
0.278706 -41.635021 85.634766
0.401817 -41.739632 83.729118
0.236353 -41.753822 81.511536
-0.414347 -44.372353 82.659943
-2.273895 -49.246979 80.490662
-11.720726 -40.691067 86.33242
-9.704342 -41.540459 87.431755
-45.12706 -27.451691 67.679848
-46.543243 -26.219261 66.070755
-44.795895 -25.975025 65.735672
-44.258831 -24.531235 63.684689
-43.644238 -23.061653 61.664074
-19.963324 -35.543095 80.312057
-21.683632 -36.527229 80.482918
-22.483364 -35.13649 79.13121
-25.054409 -34.754227 78.013214
-27.655573 -34.366726 76.949921
-34.675117 -29.283325 70.259621
-34.082253 -30.745274 71.697159
-36.270081 -30.015913 70.56929
-38.027115 -30.570198 71.12645
-39.823292 -31.010294 71.718216
-41.525513 -31.415073 72.122787
-41.795067 -29.906956 70.494881
-43.557297 -28.701717 69.153229
-17.075556 -33.175003 80.389458
-18.400082 -34.445427 80.229073
-51.706745 -22.266695 58.49704
-53.059246 -21.528282 56.420341
-54.457146 -20.827845 54.314552
-55.890137 -20.128994 52.197502
-58.445076 -13.39107 42.25246
-58.585621 -15.23555 44.181099
-60.232521 -14.316195 42.196945
-65.286552 -2.52722 28.394936
-67.177361 -0.149385 22.987417
-67.775284 -0.172426 20.823038
-0.480776 -38.694561 75.309242
-0.812126 -41.572884 76.480804
-2.048244 -43.179878 88.694786
-1.739935 -46.156586 87.365768
-1.337088 -46.534561 85.793701
-1.218245 -46.766567 83.840187
-38.531754 -25.898487 66.37809
-39.850056 -24.823086 64.90184
-24.402233 -29.515251 75.693344
-25.461859 -30.892593 75.181351
-26.724895 -29.362476 74.297104
-29.016685 -29.141668 72.949249
-31.236692 -28.811657 71.642456
-33.337955 -28.334919 70.360077
-35.274467 -27.687698 69.076569
-37.010742 -26.867998 67.760231
-49.693615 -16.804897 50.045074
-51.620693 -17.452679 50.045433
-51.352032 -15.803491 48.101662
-53.076645 -14.740159 46.177109
-54.842056 -13.633626 44.26619
-53.538513 -10.688178 43.28624
-54.944389 -11.636566 42.667717
-56.626312 -12.520506 42.361237
-58.409401 -11.448342 40.453697
-60.170521 -10.467669 38.534992
-61.885303 -9.624884 36.597191
-63.52383 -8.956789 34.633987
-62.007019 -7.628088 35.013512
-62.216904 -5.577016 33.65543
-62.479496 -3.473929 32.536179
-5.433853 -37.24781 87.79953
-4.859587 -39.562012 88.422188
-4.611212 -41.869041 88.943008
-7.838711 -42.427643 88.354362
-6.149147 -43.320045 89.003769
-4.665119 -44.177944 89.287064
-47.858658 -25.059698 64.331451
-49.12886 -24.010225 62.475697
-50.4011 -23.083412 60.523254
-49.844322 -21.821392 58.421795
-49.17289 -20.570118 56.199059
-48.548042 -19.23831 54.011566
-41.006954 -23.697741 63.313438
-42.066429 -22.577831 61.608864
-43.102901 -21.50556 59.798687
-41.775146 -18.925629 58.865242
-42.786285 -19.813301 58.187054
-44.186523 -20.500921 57.905277
-45.370319 -19.558834 55.957382
-46.683041 -18.653299 53.98378
-48.128975 -17.747215 52.00795
-48.045296 -16.045015 50.309551
-26.834282 -32.073822 75.117538
-28.464249 -33.075325 75.421753
-30.257355 -33.935181 75.925682
-33.473331 -32.109665 73.294617
-32.821091 -33.416389 74.918495
-32.097603 -34.707146 76.415451
-33.866066 -35.451607 76.678909
-9.334833 -36.246918 85.654716
-10.647165 -37.649525 85.451523
-13.699072 -35.27813 82.95858
-12.839386 -37.049103 84.161499
-12.181364 -38.83987 85.325287
-13.867431 -39.902122 85.143288
-53.661339 -18.052372 50.162739
-55.627098 -18.679749 50.226959
-57.345016 -19.410131 50.08242
-58.740986 -16.989473 46.128162
-65.049561 -8.486805 32.642166
-66.419212 -8.22254 30.623608
-67.583633 -8.15454 28.587481
-66.489326 -4.346123 27.552578
-67.59182 -6.252501 26.957075
-68.48996 -8.256469 26.55212
-0.905739 -41.104866 88.192284
-0.182678 -41.69392 79.069199
-1.23081 -44.303841 77.761215
-1.359503 -46.869247 81.586937
-1.724775 -46.865116 79.117477
-2.269249 -46.775482 76.506241
-3.136505 -49.125572 75.271881
-21.864001 -31.185925 77.229347
-22.567606 -30.363694 76.832375
-22.465517 -31.851582 77.080749
-21.274287 -31.94598 77.782402
-21.864001 -31.185925 77.229347
-51.277476 -11.355805 45.677263
-50.908812 -12.452977 46.127719
-50.412068 -11.930888 46.62686
-57.356094 -7.237086 38.997537
-56.506119 -7.799627 39.967402
-56.771324 -6.688507 39.476456
-47.402666 -27.145443 66.966362
-47.339585 -27.96201 67.668739
-40.520908 -19.399829 61.336533
-40.355806 -20.470571 61.709345
-39.079944 -33.20096 73.958008
-37.928472 -33.649264 74.505322
-38.254461 -32.909699 73.859951
-40.190313 -32.71471 73.372795
-39.079944 -33.20096 73.958008
-46.59473 -28.579567 68.505291
-45.824463 -29.207314 69.289165
-45.92989 -28.377602 68.600418
-47.339585 -27.96201 67.668739
-46.59473 -28.579567 68.505291
-56.484909 -22.003226 53.560383
-56.635969 -21.240358 52.862955
-11.5858 -41.668368 86.708134
-12.598379 -41.219816 86.140064
-17.703038 -32.326782 79.886689
-16.556786 -32.434468 80.63081
-61.840877 -14.42857 41.131071
-62.586393 -14.096251 40.111173
-66.875759 -10.990855 32.223494
-66.290371 -11.039264 33.249891
-66.935772 -10.059427 31.338224
-66.875759 -10.990855 32.223494
-66.610077 0.86169 23.590494
-66.753735 -0.187545 24.080813
-66.975445 0.903437 22.463157
-66.610077 0.86169 23.590494
-0.130922 -38.765829 76.62196
0.006695 -37.268978 76.108825
-0.296598 -40.204991 77.20774
-0.646451 -40.133723 75.895023
-0.130922 -38.765829 76.62196
-2.094829 -47.359522 87.054199
-2.380537 -47.091099 87.731682
-1.893405 -47.548509 86.268166
-1.538512 -46.345574 86.579735
-2.094829 -47.359522 87.054199
-1.742144 -47.735416 85.383266
-1.893405 -47.548509 86.268166
-38.030815 -24.562292 65.999584
-38.603098 -24.981064 65.810367
-37.959471 -25.479715 66.567307
-26.315782 -28.619903 74.725411
-25.563564 -29.438864 74.995224
-25.154452 -28.696291 75.42353
-29.644612 -28.333647 72.635231
-28.569916 -28.44571 73.335037
-30.754615 -28.168642 71.981834
-30.126689 -28.976662 72.295852
-29.644612 -28.333647 72.635231
-33.768623 -27.485801 69.969605
-32.825155 -27.749813 70.653358
-34.736879 -27.162191 69.327851
-34.306211 -28.011308 69.718323
-33.768623 -27.485801 69.969605
-37.198965 -25.96447 67.258377
-36.454041 -26.399415 67.976368
-36.642263 -25.495887 67.474514
-25.154452 -28.696291 75.42353
-24.030769 -28.731566 76.156357
-53.872244 -9.563016 42.826868
-53.013042 -10.166675 43.780643
-6.374268 -37.000202 87.319381
-5.880599 -36.086861 87.473038
-6.821015 -35.839253 86.992889
-8.702237 -43.015377 88.221656
-8.771527 -41.984051 87.893058
-9.635053 -42.571785 87.760353
-6.222847 -44.446601 89.167996
-6.99452 -43.956038 88.937023
-5.480833 -44.875551 89.309643
-5.407133 -43.748994 89.145417
-6.222847 -44.446601 89.167996
-4.813541 -45.339533 89.338753
-5.480833 -44.875551 89.309643
-41.961654 -17.896344 58.406056
-41.460453 -18.383481 59.402569
-43.340454 -19.33274 57.209004
-42.802949 -18.884403 57.539528
-43.357118 -18.403842 56.561477
-23.856803 -36.775025 79.978313
-22.574247 -36.996887 80.519245
-22.966188 -36.305366 79.941986
-35.914017 -35.495293 76.111458
-37.121149 -35.117798 75.58294
-43.224812 -31.054577 71.482788
-42.266224 -31.638596 72.1353
-42.4841 -30.831055 71.470275
-10.401912 -35.99857 84.995452
-9.847145 -35.227585 85.175476
-10.914224 -34.979236 84.516212
-14.855804 -35.059807 82.267967
-14.231859 -34.387888 82.395077
-15.388591 -34.169565 81.704464
-15.877065 -40.057491 84.346417
-17.007891 -39.689644 83.755997
-54.522151 -22.884332 56.8318
-53.941139 -22.508333 57.175066
-59.519204 -16.569152 45.109465
-58.663303 -16.112512 45.154631
-59.441521 -15.69219 44.135933
-68.768593 -7.414934 24.728483
-68.787659 -8.371837 25.549036
-68.470894 -7.299566 25.731567
-69.159424 -7.667791 22.75307
-69.089184 -6.667109 21.930854
-67.929921 -0.212066 19.772025
-67.523407 0.888926 20.269574
-0.088695 -40.06934 87.419392
0.235144 -40.15321 86.804402
-20.060721 -32.080725 78.457809
-18.889596 -32.179844 79.184269
-20.662237 -32.746381 78.309212
-20.060721 -32.080725 78.457809
-21.274287 -31.94598 77.782402
-63.367576 -13.751088 39.109516
-62.586393 -14.096251 40.111173
-62.631052 -13.141296 39.205087
-64.076982 -13.498198 38.084629
-63.367576 -13.751088 39.109516
-64.814381 -13.242755 37.073967
-64.076982 -13.498198 38.084629
-64.149634 -12.540691 37.192768
-65.468998 -13.085425 36.042957
-64.814381 -13.242755 37.073967
-65.560406 -12.131852 35.162136
-65.468998 -13.085425 36.042957
-65.605125 -11.183194 34.261326
-65.560406 -12.131852 35.162136
-64.931752 -11.33659 35.281296
-65.661717 -10.244001 33.369051
-66.290371 -11.039264 33.249891
-65.605125 -11.183194 34.261326
-37.603552 -24.06944 66.395458
-36.97139 -24.530295 67.177768
-36.97139 -24.530295 67.177768
-36.642263 -25.495887 67.474514
-55.618836 -8.373914 40.919302
-54.761149 -8.967317 41.87989
-56.203605 -8.922493 40.440383
-55.618836 -8.373914 40.919302
-56.506119 -7.799627 39.967402
-40.346815 -21.447674 62.270855
-40.297718 -22.443926 62.770077
-39.842241 -21.994417 63.130768
-40.811283 -20.92008 61.348654
-40.346815 -21.447674 62.270855
-40.355806 -20.470571 61.709345
-43.945322 -17.935938 55.563913
-43.357118 -18.403842 56.561477
-44.566496 -17.473029 54.573787
-44.515797 -18.389271 55.240827
-43.945322 -17.935938 55.563913
-45.228884 -17.00786 53.578222
-44.566496 -17.473029 54.573787
-45.922466 -16.545924 52.588576
-45.830554 -17.464427 53.261055
-45.228884 -17.00786 53.578222
-46.655497 -16.066375 51.603625
-45.922466 -16.545924 52.588576
-19.369509 -39.042471 82.596657
-18.188731 -39.369624 83.164413
-20.594554 -38.758033 82.03212
-19.369509 -39.042471 82.596657
-19.71502 -38.261541 82.18557
-21.818735 -38.466486 81.496029
-20.594554 -38.758033 82.03212
-26.452478 -36.324739 78.961693
-25.147849 -36.538132 79.47491
-25.553373 -35.870112 78.887836
-27.354962 -36.758945 79.066536
-26.452478 -36.324739 78.961693
-27.760485 -36.090925 78.479462
-28.223196 -37.224648 78.994198
-27.354962 -36.758945 79.066536
-29.5168 -36.970586 78.52726
-28.223196 -37.224648 78.994198
-30.826356 -36.720689 78.053894
-29.5168 -36.970586 78.52726
-29.972524 -36.275234 78.110939
-32.112082 -36.444053 77.583229
-30.826356 -36.720689 78.053894
-37.562704 -34.353068 75.140297
-36.73722 -34.061806 75.04224
-37.928472 -33.649264 74.505322
-37.121149 -35.117798 75.58294
-37.562704 -34.353068 75.140297
-45.00058 -29.831919 70.060417
-44.142112 -30.452762 70.777153
-44.301155 -29.626192 70.101028
-45.00058 -29.831919 70.060417
-45.824463 -29.207314 69.289165
-11.99599 -34.797722 83.809132
-10.914224 -34.979236 84.516212
-18.188731 -39.369624 83.164413
-17.007891 -39.689644 83.755997
-17.309134 -38.866 83.34169
-55.837511 -22.27631 54.658828
-55.162886 -22.58937 55.739208
-55.278103 -21.862397 55.026207
-55.837511 -22.27631 54.658828
-56.484909 -22.003226 53.560383
-68.996548 -5.653327 21.166351
-69.089184 -6.667109 21.930854
-68.903992 -5.526661 22.134835
-68.872925 -4.609469 20.397329
-68.996548 -5.653327 21.166351
-68.724243 -3.556209 19.701768
-68.872925 -4.609469 20.397329
-68.662674 -3.459618 20.674771
-68.541725 -2.473943 18.996395
-68.724243 -3.556209 19.701768
-2.054343 -41.276629 72.456886
-1.46866 -39.947844 73.217003
-2.615852 -42.556206 71.756642
-2.054343 -41.276629 72.456886
-2.165301 -42.675394 73.109631
-3.160678 -43.817171 71.049046
-2.615852 -42.556206 71.756642
-3.207475 -45.169292 71.746499
-3.160678 -43.817171 71.049046
-3.31516 -46.498888 72.448369
-3.207475 -45.169292 71.746499
-2.834496 -45.284566 73.111256
-3.333736 -47.780378 73.178483
-3.31516 -46.498888 72.448369
-2.758704 -39.137138 88.738766
-3.507479 -38.932398 88.622307
-2.093762 -39.39818 88.708126
-2.758704 -39.137138 88.738766
-2.624734 -40.414964 88.774147
-1.470614 -39.567129 88.588798
-2.093762 -39.39818 88.708126
0.45214 -40.257834 86.049511
0.235144 -40.15321 86.804402
0.061711 -41.530397 86.389657
0.616653 -40.300505 85.214028
0.45214 -40.257834 86.049511
0.678209 -40.35281 84.261203
0.616653 -40.300505 85.214028
0.340261 -41.687326 84.681942
0.68928 -40.359497 83.242939
0.678209 -40.35281 84.261203
0.319085 -41.746727 82.620327
0.606548 -40.366592 82.134148
0.68928 -40.359497 83.242939
-2.565983 -50.350571 81.144406
-2.186001 -49.202212 81.676106
-2.478088 -50.305803 82.329849
-2.638777 -50.385481 79.914925
-2.565983 -50.350571 81.144406
-2.81959 -50.376711 78.638833
-2.454708 -49.238209 79.21457
-2.638777 -50.385481 79.914925
-2.967669 -50.359302 77.331803
-2.81959 -50.376711 78.638833
-57.140557 -5.536373 39.146168
-56.771324 -6.688507 39.476456
-57.931518 -4.994037 38.148264
-57.140557 -5.536373 39.146168
-10.577608 -42.093063 87.257801
-10.712534 -41.115763 86.882087
-11.5858 -41.668368 86.708134
-9.635053 -42.571785 87.760353
-10.577608 -42.093063 87.257801
-15.920101 -33.336325 81.110516
-16.556786 -32.434468 80.63081
-16.544045 -34.008243 80.983406
-15.388591 -34.169565 81.704464
-15.920101 -33.336325 81.110516
-18.262113 -33.028064 79.687038
-17.703038 -32.326782 79.886689
-18.889596 -32.179844 79.184269
-52.492773 -22.553952 58.370293
-51.844057 -22.925973 59.416056
-53.169024 -22.184745 57.331944
-52.492773 -22.553952 58.370293
-52.382995 -21.897489 57.458691
-53.831361 -21.851869 56.263464
-53.941139 -22.508333 57.175066
-53.169024 -22.184745 57.331944
-56.604674 -20.530186 51.988793
-56.635969 -21.240358 52.862955
-55.921433 -20.839166 53.071664
-60.264971 -15.232513 43.143856
-59.441521 -15.69219 44.135933
-59.409071 -14.775873 43.189022
-61.032203 -14.843438 42.126171
-61.041195 -13.901326 41.201845
-61.840877 -14.42857 41.131071
-60.264971 -15.232513 43.143856
-61.032203 -14.843438 42.126171
-64.673985 -1.664879 28.951815
-64.616566 -2.719568 29.438735
-64.003998 -1.857228 29.995613
-65.281871 -1.481536 27.874505
-64.673985 -1.664879 28.951815
-65.868168 -1.373846 26.817
-65.872849 -2.41953 27.337431
-65.281871 -1.481536 27.874505
-66.394627 -1.268773 25.727068
-65.868168 -1.373846 26.817
-66.874542 -1.23504 24.663643
-66.939061 -2.278107 25.216501
-66.394627 -1.268773 25.727068
-67.298169 -1.19688 23.570246
-66.874542 -1.23504 24.663643
-66.753735 -0.187545 24.080813
-67.274406 0.891917 21.380967
-67.476323 -0.160905 21.905228
-66.975445 0.903437 22.463157
-67.523407 0.888926 20.269574
-67.274406 0.891917 21.380967
-0.358374 -37.196329 74.782886
0.006695 -37.268978 76.108825
-0.907153 -38.597216 73.966686
-0.358374 -37.196329 74.782886
-1.042284 -40.045189 74.559559
-1.46866 -39.947844 73.217003
-0.907153 -38.597216 73.966686
-2.733002 -44.069755 88.912391
-2.624188 -42.874809 88.874157
-3.308946 -43.764686 89.091763
-2.242015 -44.403921 88.592514
-2.733002 -44.069755 88.912391
-1.810201 -44.650453 88.166195
-1.61643 -43.426411 88.268467
-2.242015 -44.403921 88.592514
-2.087861 -45.892275 87.928005
-2.380537 -47.091099 87.731682
-1.462276 -44.914764 87.603958
-1.810201 -44.650453 88.166195
-2.087861 -45.892275 87.928005
-1.682723 -47.85142 84.406509
-1.277667 -46.650564 84.816944
-1.742144 -47.735416 85.383266
-2.122653 -49.046858 83.917191
-1.658176 -47.962006 83.350868
-1.682723 -47.85142 84.406509
-2.500366 -50.206249 83.445408
-2.122653 -49.046858 83.917191
-2.478088 -50.305803 82.329849
-2.500366 -50.206249 83.445408
-39.262249 -24.443364 65.072243
-39.190905 -25.360786 65.639965
-38.603098 -24.981064 65.810367
-39.233793 -23.527155 64.436318
-39.8216 -23.906878 64.265915
-39.262249 -24.443364 65.072243
-38.030815 -24.562292 65.999584
-37.603552 -24.06944 66.395458
-39.353794 -22.52498 64.00589
-39.233793 -23.527155 64.436318
-39.842241 -21.994417 63.130768
-39.353794 -22.52498 64.00589
-27.42402 -28.556114 74.008965
-26.315782 -28.619903 74.725411
-27.87079 -29.252072 73.623176
-27.42402 -28.556114 74.008965
-28.569916 -28.44571 73.335037
-31.774524 -27.988182 71.294548
-30.754615 -28.168642 71.981834
-32.287323 -28.573288 71.001266
-31.774524 -27.988182 71.294548
-32.825155 -27.749813 70.653358
-35.585903 -26.809265 68.634537
-34.736879 -27.162191 69.327851
-36.142605 -27.277848 68.4184
-35.585903 -26.809265 68.634537
-36.454041 -26.399415 67.976368
-23.241107 -29.575556 76.415199
-24.030769 -28.731566 76.156357
-23.728732 -30.30339 76.110519
-22.567606 -30.363694 76.832375
-23.241107 -29.575556 76.415199
-52.130896 -10.761533 44.726585
-51.277476 -11.355805 45.677263
-52.656367 -11.283036 44.232181
-52.130896 -10.761533 44.726585
-53.013042 -10.166675 43.780643
-54.427418 -10.092479 42.339262
-53.872244 -9.563016 42.826868
-54.761149 -8.967317 41.87989
-58.767201 -4.481568 37.167173
-58.456982 -5.613497 37.525501
-57.931518 -4.994037 38.148264
-59.54094 -3.991446 36.155777
-58.767201 -4.481568 37.167173
-60.354171 -3.545318 35.161426
-60.105896 -4.654898 35.550061
-59.54094 -3.991446 36.155777
-61.103916 -3.120821 34.135254
-60.354171 -3.545318 35.161426
-61.8841 -2.7534 33.125489
-61.699312 -3.84135 33.545944
-61.103916 -3.120821 34.135254
-62.600359 -2.404775 32.082814
-61.8841 -2.7534 33.125489
-63.3339 -2.123769 31.055991
-63.213037 -3.192923 31.509356
-62.600359 -2.404775 32.082814
-64.003998 -1.857228 29.995613
-63.3339 -2.123769 31.055991
-4.970763 -36.248619 87.905434
-5.880599 -36.086861 87.473038
-4.579568 -37.479342 88.119678
-4.970763 -36.248619 87.905434
-4.292435 -38.636443 88.431007
-4.579568 -37.479342 88.119678
-5.14672 -38.404911 88.110859
-4.074631 -39.857968 88.613488
-3.507479 -38.932398 88.622307
-4.292435 -38.636443 88.431007
-7.839302 -43.509837 88.612319
-8.702237 -43.015377 88.221656
-6.993929 -42.873844 88.679066
-7.839302 -43.509837 88.612319
-6.99452 -43.956038 88.937023
-4.041439 -44.568788 89.20853
-3.308946 -43.764686 89.091763
-3.932625 -43.373842 89.170296
-4.041439 -44.568788 89.20853
-4.813541 -45.339533 89.338753
-47.324209 -26.380146 66.093468
-47.402666 -27.145443 66.966362
-46.6217 -26.984558 66.943649
-47.981916 -25.800365 65.223816
-47.324209 -26.380146 66.093468
-47.20095 -25.63948 65.201103
-48.641287 -25.244079 64.311688
-47.981916 -25.800365 65.223816
-49.276388 -24.719342 63.38381
-48.641287 -25.244079 64.311688
-48.493759 -24.534962 63.403574
-49.916283 -24.225906 62.417094
-49.276388 -24.719342 63.38381
-50.552402 -23.762499 61.440872
-49.916283 -24.225906 62.417094
-49.76498 -23.546819 61.499476
-51.191235 -23.334331 60.429163
-50.552402 -23.762499 61.440872
-51.053922 -22.675053 59.510147
-51.844057 -22.925973 59.416056
-51.191235 -23.334331 60.429163
-40.983017 -18.892155 60.36352
-40.520908 -19.399829 61.336533
-41.29771 -19.434303 59.826193
-40.983017 -18.892155 60.36352
-41.460453 -18.383481 59.402569
-42.29738 -18.440567 57.878622
-41.961654 -17.896344 58.406056
-42.280715 -19.369465 58.526148
-42.29738 -18.440567 57.878622
-42.802949 -18.884403 57.539528
-47.416077 -15.587637 50.622696
-47.284716 -16.523753 51.29048
-46.655497 -16.066375 51.603625
-48.208193 -15.079617 49.651701
-47.416077 -15.587637 50.622696
-49.023611 -14.571034 48.682862
-48.860714 -15.536432 49.340711
-48.208193 -15.079617 49.651701
-49.207247 -13.571139 48.035584
-49.859768 -14.027954 47.724594
-49.023611 -14.571034 48.682862
-49.574253 -12.500077 47.579655
-49.207247 -13.571139 48.035584
-50.412068 -11.930888 46.62686
-49.574253 -12.500077 47.579655
-22.202464 -37.721824 81.088303
-21.311848 -37.252167 81.051975
-22.574247 -36.996887 80.519245
-21.818735 -38.466486 81.496029
-22.202464 -37.721824 81.088303
-23.856803 -36.775025 79.978313
-25.147849 -36.538132 79.47491
-33.404075 -36.157189 77.103897
-32.112082 -36.444053 77.583229
-32.574073 -35.738472 77.158241
-34.661323 -35.838291 76.612304
-35.118759 -35.108609 76.178063
-35.914017 -35.495293 76.111458
-33.404075 -36.157189 77.103897
-34.661323 -35.838291 76.612304
-41.250103 -32.191549 72.77787
-40.190313 -32.71471 73.372795
-40.465723 -31.938234 72.717712
-41.250103 -32.191549 72.77787
-42.266224 -31.638596 72.1353
-43.224812 -31.054577 71.482788
-44.142112 -30.452762 70.777153
-7.801079 -35.663084 86.425167
-6.821015 -35.839253 86.992889
-8.811153 -35.410246 85.832909
-9.847145 -35.227585 85.175476
-8.324758 -36.499756 86.246974
-7.801079 -35.663084 86.425167
-8.811153 -35.410246 85.832909
-13.111031 -34.561676 83.120327
-14.231859 -34.387888 82.395077
-12.584031 -35.514176 83.647385
-11.99599 -34.797722 83.809132
-13.111031 -34.561676 83.120327
-13.671731 -40.825344 85.545498
-12.598379 -41.219816 86.140064
-12.794079 -40.296594 85.737854
-14.746633 -40.415543 84.951424
-14.997863 -39.544071 84.53828
-15.877065 -40.057491 84.346417
-13.671731 -40.825344 85.545498
-14.746633 -40.415543 84.951424
-54.522151 -22.884332 56.8318
-55.162886 -22.58937 55.739208
-57.332113 -20.170755 50.931252
-56.604674 -20.530186 51.988793
-56.617576 -19.769562 51.139961
-59.506319 -17.460997 46.006637
-59.519204 -16.569152 45.109465
-58.775156 -17.830157 47.052757
-59.506319 -17.460997 46.006637
-57.99427 -18.257861 48.075077
-57.9601 -17.417177 47.150482
-58.775156 -17.830157 47.052757
-58.077171 -19.040486 49.029886
-57.262115 -18.627506 49.127611
-57.99427 -18.257861 48.075077
-58.019989 -19.858376 49.853088
-58.077171 -19.040486 49.029886
-57.332113 -20.170755 50.931252
-58.019989 -19.858376 49.853088
-66.971897 -9.120661 30.47122
-66.935772 -10.059427 31.338224
-66.383087 -9.161306 31.490612
-67.554108 -9.086661 29.453156
-66.971897 -9.120661 30.47122
-67.001423 -8.18854 29.605545
-68.019737 -9.138887 28.433898
-67.554108 -9.086661 29.453156
-68.472901 -9.189852 27.416218
-68.019737 -9.138887 28.433898
-68.036797 -8.205504 27.5698
-68.788132 -9.316228 26.410005
-68.472901 -9.189852 27.416218
-68.788132 -9.316228 26.410005
-68.787659 -8.371837 25.549036
-69.040993 -7.513823 23.722645
-68.768593 -7.414934 24.728483
-68.724228 -6.441553 23.905176
-69.040993 -7.513823 23.722645
-69.159424 -7.667791 22.75307
-68.299274 -1.329033 19.350111
-68.144638 -1.289393 20.401124
-67.929921 -0.212066 19.772025
-68.541725 -2.473943 18.996395
-68.299274 -1.329033 19.350111
-0.943588 -39.781559 88.313187
-1.470614 -39.567129 88.588798
-1.432766 -40.890436 88.467895
-0.463921 -39.908886 87.943261
-0.530512 -41.26532 87.668416
-0.088695 -40.06934 87.419392
-0.943588 -39.781559 88.313187
-0.463921 -39.908886 87.943261
0.477718 -40.343477 80.97675
0.606548 -40.366592 82.134148
0.268202 -40.313526 79.755581
0.477718 -40.343477 80.97675
0.026838 -41.723871 80.290368
0.018126 -40.265508 78.501938
0.268202 -40.313526 79.755581
-0.497402 -41.633402 77.775002
-0.296598 -40.204991 77.20774
0.018126 -40.265508 78.501938
-3.430898 -49.036083 73.90786
-3.333736 -47.780378 73.178483
-3.039343 -47.869867 74.542503
-3.218161 -50.307369 75.998504
-2.886013 -49.177505 76.605179
-2.967669 -50.359302 77.331803
-3.418584 -50.24686 74.644478
-3.218161 -50.307369 75.998504
-3.430898 -49.036083 73.90786
-3.418584 -50.24686 74.644478
3 0 65 63
3 2 68 66
3 0 71 69
3 0 63 71
3 2 259 260
3 2 261 263
3 261 66 262
3 261 262 263
3 1 76 74
3 3 79 77
3 3 80 79
3 3 81 80
3 264 84 265
3 266 265 82
3 264 265 266
3 6 267 269
3 267 86 268
3 267 268 269
3 6 88 86
3 6 90 88
3 8 93 91
3 10 270 271
3 11 96 94
3 11 98 96
3 272 100 273
3 12 103 102
3 13 105 104
3 13 106 105
3 4 109 107
3 14 112 110
3 14 274 276
3 276 275 112
3 274 275 276
3 14 277 278
3 10 279 281
3 281 280 114
3 279 280 281
3 10 282 283
3 12 117 115
3 12 102 117
3 285 284 119
3 5 122 120
3 7 125 123
3 15 128 126
3 15 130 128
3 15 131 130
3 16 133 132
3 16 134 133
3 9 136 135
3 17 139 137
3 17 140 139
3 17 142 140
3 287 286 144
3 18 148 146
3 20 149 64
3 20 150 149
3 21 153 151
3 23 154 67
3 23 155 154
3 24 158 156
3 26 159 70
3 26 160 159
3 26 162 160
3 18 163 72
3 18 146 163
3 288 164 289
3 21 165 73
3 21 151 165
3 29 167 166
3 31 168 75
3 31 169 168
3 32 172 170
3 291 290 78
3 33 292 293
3 33 294 295
3 296 174 297
3 299 298 174
3 300 176 301
3 302 177 303
3 304 303 176
3 302 303 304
3 305 179 306
3 307 180 308
3 309 308 179
3 307 308 309
3 311 310 180
3 37 312 314
3 314 313 182
3 312 313 314
3 315 186 316
3 317 316 184
3 315 316 317
3 318 187 319
3 320 188 321
3 322 321 187
3 320 321 322
3 323 189 324
3 325 190 326
3 327 326 189
3 325 326 327
3 37 328 330
3 328 191 329
3 328 329 330
3 37 182 191
3 331 184 332
3 40 194 192
3 42 195 83
3 42 196 195
3 333 197 334
3 43 198 85
3 43 199 198
3 43 200 199
3 44 201 87
3 44 202 201
3 44 204 202
3 46 205 89
3 46 206 205
3 47 335 337
3 335 207 336
3 335 336 337
3 48 208 92
3 48 209 208
3 338 210 339
3 340 339 145
3 338 339 340
3 341 211 342
3 343 212 344
3 345 344 211
3 343 344 345
3 347 346 212
3 19 213 147
3 49 214 95
3 49 215 214
3 49 216 215
3 50 217 97
3 50 218 217
3 38 219 183
3 51 220 99
3 51 221 220
3 348 222 349
3 52 350 352
3 350 223 351
3 350 351 352
3 52 224 223
3 52 225 224
3 53 226 101
3 53 227 226
3 53 228 227
3 22 353 355
3 355 354 152
3 353 354 355
3 39 229 185
3 54 230 108
3 54 231 230
3 25 232 157
3 55 233 111
3 55 234 233
3 55 235 234
3 357 356 113
3 27 358 360
3 360 359 161
3 358 359 360
3 56 361 363
3 361 236 362
3 361 362 363
3 56 237 236
3 28 364 366
3 364 238 365
3 364 365 366
3 57 239 116
3 57 240 239
3 57 241 240
3 368 367 118
3 30 369 370
3 41 242 193
3 58 243 121
3 58 244 243
3 371 245 372
3 373 372 171
3 371 372 373
3 45 246 203
3 59 247 124
3 59 248 247
3 34 249 173
3 60 250 127
3 60 251 250
3 60 374 376
3 376 375 251
3 374 375 376
3 378 377 129
3 380 379 175
3 35 252 178
3 382 381 138
3 61 253 141
3 61 254 253
3 36 255 181
3 62 256 143
3 62 257 256
3 62 258 257
3 63 64 18
3 65 64 63
3 65 20 64
3 66 67 21
3 68 67 66
3 68 23 67
3 69 70 24
3 71 70 69
3 71 26 70
3 71 72 26
3 63 72 71
3 63 18 72
3 383 73 384
3 66 385 387
3 385 73 386
3 385 386 387
3 66 21 73
3 74 75 29
3 76 75 74
3 76 31 75
3 77 78 32
3 79 78 77
3 79 388 390
3 390 389 78
3 388 389 390
3 79 391 392
3 80 393 395
3 395 394 79
3 393 394 395
3 80 396 397
3 80 398 399
3 81 400 402
3 402 401 80
3 400 401 402
3 81 403 405
3 403 33 404
3 403 404 405
3 407 406 37
3 408 37 409
3 82 83 40
3 84 83 82
3 84 42 83
3 410 85 411
3 86 412 414
3 412 85 413
3 412 413 414
3 86 43 85
3 86 87 43
3 88 87 86
3 88 44 87
3 88 89 44
3 90 89 88
3 90 46 89
3 91 92 47
3 93 92 91
3 93 48 92
3 94 95 19
3 96 95 94
3 96 49 95
3 96 97 49
3 98 97 96
3 98 50 97
3 415 99 416
3 417 416 38
3 415 416 417
3 100 418 420
3 418 99 419
3 418 419 420
3 100 51 99
3 421 52 422
3 423 101 424
3 425 424 52
3 423 424 425
3 426 101 427
3 428 53 429
3 430 429 101
3 428 429 430
3 432 431 53
3 102 433 434
3 103 435 437
3 437 436 102
3 435 436 437
3 103 438 439
3 104 440 442
3 442 441 22
3 440 441 442
3 105 443 445
3 445 444 104
3 443 444 445
3 105 446 447
3 105 448 449
3 106 450 452
3 452 451 105
3 450 451 452
3 106 453 454
3 107 108 39
3 109 108 107
3 109 54 108
3 110 111 25
3 112 111 110
3 112 55 111
3 112 113 55
3 455 113 456
3 457 456 112
3 455 456 457
3 459 458 113
3 114 460 462
3 462 461 27
3 460 461 462
3 464 463 114
3 465 56 466
3 115 116 28
3 117 116 115
3 117 57 116
3 117 118 57
3 102 118 117
3 102 467 469
3 469 468 118
3 467 468 469
3 119 470 472
3 472 471 30
3 470 471 472
3 474 473 119
3 120 121 41
3 122 121 120
3 122 58 121
3 123 124 45
3 125 124 123
3 125 59 124
3 126 127 34
3 128 127 126
3 128 60 127
3 128 129 60
3 130 129 128
3 130 475 477
3 477 476 129
3 475 476 477
3 130 478 479
3 131 480 482
3 482 481 130
3 480 481 482
3 131 483 484
3 132 485 486
3 133 487 489
3 489 488 132
3 487 488 489
3 133 490 491
3 133 492 493
3 134 494 496
3 496 495 133
3 494 495 496
3 134 497 498
3 135 499 500
3 136 501 503
3 503 502 135
3 501 502 503
3 136 504 505
3 137 138 35
3 139 138 137
3 139 506 508
3 508 507 138
3 506 507 508
3 139 509 510
3 140 511 513
3 513 512 139
3 511 512 513
3 140 514 515
3 140 516 518
3 516 141 517
3 516 517 518
3 142 141 140
3 142 61 141
3 519 143 520
3 521 520 36
3 519 520 521
3 522 143 523
3 524 62 525
3 526 525 143
3 524 525 526
3 528 527 62
3 529 6 530
3 532 531 6
3 144 145 8
3 533 145 534
3 535 534 144
3 533 534 535
3 537 536 145
3 146 147 10
3 148 147 146
3 148 19 147
3 64 148 18
3 149 148 64
3 149 19 148
3 149 94 19
3 150 94 149
3 150 11 94
3 151 152 12
3 153 152 151
3 153 22 152
3 67 153 21
3 154 153 67
3 154 22 153
3 154 104 22
3 155 104 154
3 155 13 104
3 156 157 4
3 158 157 156
3 158 25 157
3 70 158 24
3 159 158 70
3 159 25 158
3 159 110 25
3 160 110 159
3 160 14 110
3 160 161 14
3 162 161 160
3 162 27 161
3 72 162 26
3 163 162 72
3 163 27 162
3 163 114 27
3 146 114 163
3 146 10 114
3 164 538 539
3 164 540 542
3 540 28 541
3 540 541 542
3 73 543 545
3 543 164 544
3 543 544 545
3 165 164 73
3 165 28 164
3 165 115 28
3 151 115 165
3 151 12 115
3 166 546 547
3 167 548 550
3 550 549 166
3 548 549 550
3 167 551 553
3 551 30 552
3 551 552 553
3 75 167 29
3 168 167 75
3 168 30 167
3 168 119 30
3 169 119 168
3 169 554 556
3 556 555 119
3 554 555 556
3 170 171 5
3 172 171 170
3 172 557 559
3 559 558 171
3 557 558 559
3 78 172 32
3 560 172 561
3 562 561 78
3 560 561 562
3 564 563 172
3 565 173 566
3 567 566 7
3 565 566 567
3 568 173 569
3 570 34 571
3 572 571 173
3 570 571 572
3 573 34 574
3 575 126 576
3 577 576 34
3 575 576 577
3 174 578 580
3 578 126 579
3 578 579 580
3 174 15 126
3 174 175 15
3 581 175 582
3 583 582 174
3 581 582 583
3 585 584 175
3 176 586 587
3 176 588 589
3 176 590 592
3 590 132 591
3 590 591 592
3 177 132 176
3 177 16 132
3 593 178 594
3 595 594 9
3 593 594 595
3 596 178 597
3 598 35 599
3 600 599 178
3 598 599 600
3 179 601 602
3 179 603 605
3 603 35 604
3 603 604 605
3 179 137 35
3 180 137 179
3 180 17 137
3 180 181 17
3 606 181 607
3 608 607 180
3 606 607 608
3 609 36 610
3 611 610 181
3 609 610 611
3 612 36 613
3 615 614 36
3 182 183 0
3 616 183 617
3 618 617 182
3 616 617 618
3 619 38 620
3 621 620 183
3 619 620 621
3 623 622 37
3 624 38 625
3 627 626 38
3 184 185 2
3 186 185 184
3 186 39 185
3 628 186 629
3 187 630 632
3 630 186 631
3 630 631 632
3 187 39 186
3 187 107 39
3 188 107 187
3 188 4 107
3 633 188 634
3 189 635 637
3 635 188 636
3 635 636 637
3 189 4 188
3 189 156 4
3 190 156 189
3 190 24 156
3 638 190 639
3 191 640 642
3 640 190 641
3 640 641 642
3 191 24 190
3 191 69 24
3 182 69 191
3 182 0 69
3 184 643 644
3 184 645 647
3 645 2 646
3 645 646 647
3 192 193 1
3 194 193 192
3 194 41 193
3 83 194 40
3 195 194 83
3 195 41 194
3 195 120 41
3 196 120 195
3 196 5 120
3 648 84 649
3 197 650 652
3 650 84 651
3 650 651 652
3 197 42 84
3 85 653 655
3 653 197 654
3 653 654 655
3 198 197 85
3 198 42 197
3 198 196 42
3 199 196 198
3 199 5 196
3 199 170 5
3 200 170 199
3 200 32 170
3 87 200 43
3 201 200 87
3 201 32 200
3 201 77 32
3 202 77 201
3 202 3 77
3 202 203 3
3 204 203 202
3 204 45 203
3 89 204 44
3 205 204 89
3 205 45 204
3 205 123 45
3 206 123 205
3 206 7 123
3 656 90 657
3 658 657 6
3 656 657 658
3 659 90 660
3 661 46 662
3 663 662 90
3 661 662 663
3 664 46 665
3 666 206 667
3 668 667 46
3 666 667 668
3 669 206 670
3 671 7 672
3 673 672 206
3 671 672 673
3 675 674 7
3 207 676 677
3 207 678 679
3 92 207 47
3 208 207 92
3 208 680 682
3 682 681 207
3 680 681 682
3 208 683 685
3 683 135 684
3 683 684 685
3 209 135 208
3 209 9 135
3 145 93 8
3 210 93 145
3 210 48 93
3 686 210 687
3 211 688 690
3 688 210 689
3 688 689 690
3 211 48 210
3 211 209 48
3 212 209 211
3 212 9 209
3 212 691 693
3 693 692 9
3 691 692 693
3 695 694 212
3 147 696 698
3 698 697 10
3 696 697 698
3 213 699 701
3 701 700 147
3 699 700 701
3 213 702 703
3 95 213 19
3 214 213 95
3 214 704 706
3 706 705 213
3 704 705 706
3 214 707 708
3 215 709 711
3 711 710 214
3 709 710 711
3 215 712 713
3 215 714 716
3 714 166 715
3 714 715 716
3 216 166 215
3 216 29 166
3 97 216 49
3 217 216 97
3 217 29 216
3 217 74 29
3 218 74 217
3 218 1 74
3 183 65 0
3 219 65 183
3 219 20 65
3 99 219 38
3 220 219 99
3 220 20 219
3 220 150 20
3 221 150 220
3 221 11 150
3 717 100 718
3 222 719 721
3 719 100 720
3 719 720 721
3 222 51 100
3 722 222 723
3 223 724 726
3 724 222 725
3 724 725 726
3 223 51 222
3 223 221 51
3 224 221 223
3 224 11 221
3 224 98 11
3 225 98 224
3 225 50 98
3 101 225 52
3 226 225 101
3 226 50 225
3 226 218 50
3 227 218 226
3 227 1 218
3 227 192 1
3 228 192 227
3 228 40 192
3 727 228 728
3 729 728 53
3 727 728 729
3 730 228 731
3 732 40 733
3 734 733 228
3 732 733 734
3 735 82 736
3 737 736 40
3 735 736 737
3 738 82 739
3 741 740 82
3 152 103 12
3 742 103 743
3 744 743 152
3 742 743 744
3 746 745 103
3 748 747 22
3 185 68 2
3 229 68 185
3 229 23 68
3 108 229 39
3 230 229 108
3 230 23 229
3 230 155 23
3 231 155 230
3 231 13 155
3 157 109 4
3 232 109 157
3 232 54 109
3 111 232 25
3 233 232 111
3 233 54 232
3 233 231 54
3 234 231 233
3 234 13 231
3 234 106 13
3 235 106 234
3 235 749 751
3 751 750 106
3 749 750 751
3 113 235 55
3 752 235 753
3 754 753 113
3 752 753 754
3 756 755 235
3 161 757 759
3 759 758 14
3 757 758 759
3 761 760 161
3 763 762 27
3 764 47 765
3 236 766 767
3 236 768 770
3 768 47 769
3 768 769 770
3 236 91 47
3 237 91 236
3 237 8 91
3 238 771 772
3 238 773 775
3 773 56 774
3 773 774 775
3 116 238 28
3 239 238 116
3 239 56 238
3 239 237 56
3 240 237 239
3 240 8 237
3 240 144 8
3 241 144 240
3 241 776 778
3 778 777 144
3 776 777 778
3 118 241 57
3 779 241 780
3 781 780 118
3 779 780 781
3 783 782 241
3 785 784 30
3 193 76 1
3 242 76 193
3 242 31 76
3 121 242 41
3 243 242 121
3 243 31 242
3 243 169 31
3 244 169 243
3 244 786 788
3 788 787 169
3 786 787 788
3 171 122 5
3 245 122 171
3 245 58 122
3 789 245 790
3 791 245 792
3 793 58 794
3 795 794 245
3 793 794 795
3 796 244 797
3 798 797 58
3 796 797 798
3 799 244 800
3 802 801 244
3 203 81 3
3 246 81 203
3 246 33 81
3 124 246 45
3 247 246 124
3 247 33 246
3 247 803 805
3 805 804 33
3 803 804 805
3 248 806 808
3 808 807 247
3 806 807 808
3 248 809 810
3 173 125 7
3 249 125 173
3 249 59 125
3 127 249 34
3 250 249 127
3 250 59 249
3 250 248 59
3 251 248 250
3 251 811 813
3 813 812 248
3 811 812 813
3 251 814 815
3 817 816 251
3 129 818 820
3 820 819 60
3 818 819 820
3 822 821 129
3 175 131 15
3 823 131 824
3 825 824 175
3 823 824 825
3 827 826 131
3 178 136 9
3 252 136 178
3 252 828 830
3 830 829 136
3 828 829 830
3 138 252 35
3 831 252 832
3 833 832 138
3 831 832 833
3 835 834 252
3 141 836 837
3 253 838 840
3 840 839 141
3 838 839 840
3 253 841 842
3 253 843 845
3 843 177 844
3 843 844 845
3 254 177 253
3 254 16 177
3 181 142 17
3 255 142 181
3 255 61 142
3 143 255 36
3 256 255 143
3 256 61 255
3 256 254 61
3 257 254 256
3 257 16 254
3 257 134 16
3 258 134 257
3 258 846 848
3 848 847 134
3 846 847 848
3 849 258 850
3 851 850 62
3 849 850 851
3 852 258 853
3 855 854 258
