ply
format ascii 1.0
element vertex 176
property float x
property float y
property float z
element face 163
property list uchar int vertex_index
end_header
5.171001 26.621136 -30.179827
-0.623058 30.795406 -29.865072
5.803764 33.672356 -31.806059
8.688526 25.002655 -29.800325
-2.309774 32.997036 -27.667566
-1.617521 41.246269 -30.976141
0.207943 38.801868 -32.374084
4.307619 41.744358 -33.690582
1.934399 28.621113 -30.515451
2.826559 36.159054 -32.36145
6.233368 36.456371 -32.526421
7.29686 32.700203 -31.635664
-2.187613 42.34906 -29.644011
-1.572245 31.898277 -28.967123
-1.87068 27.569611 -27.344027
-0.910376 26.485435 -28.432474
0.267511 25.435139 -29.128588
1.663643 24.42902 -29.458555
0.550409 29.697701 -30.364332
0.848274 42.304291 -33.340302
1.440336 37.490082 -32.49984
2.117462 40.801373 -33.32283
3.489079 39.262829 -33.09684
2.972023 43.566246 -33.971123
5.441093 30.348251 -31.010496
6.917891 25.751896 -29.941626
7.075672 29.403954 -30.789343
8.715685 28.623184 -30.70503
-2.871218 34.090191 -26.002825
-2.531061 38.281796 -27.88542
-1.988356 37.206242 -29.396574
-1.241529 36.087681 -30.508471
-0.268059 34.930893 -31.202185
-0.820126 40.060825 -31.884516
-0.25148 43.725578 -33.036842
5.592566 39.955971 -33.357826
-2.637571 28.682667 -25.879496
3.491817 27.58696 -30.41308
0.927361 33.750301 -31.505449
2.312859 32.569187 -31.495176
3.837015 31.420506 -31.286291
4.30208 34.860321 -32.086075
4.886131 37.766064 -32.78933
6.883727 36.037445 -32.483658
6.44457 37.445785 -32.800812
6.00619 24.222134 -29.651629
5.084496 24.614071 -29.76041
1.898256 43.065435 -33.706906
1.482868 41.552832 -33.331566
1.263661 43.816895 -33.715642
2.325536 44.447872 -34.031052
2.544742 42.183809 -33.646977
1.898256 43.065435 -33.706906
8.756025 30.302713 -31.167603
8.006272 30.661693 -31.170347
8.046613 32.341223 -31.632919
9.538678 28.310072 -30.741844
8.756025 30.302713 -31.167603
-2.545763 40.826777 -27.905556
-2.722227 38.800517 -26.956537
-0.365882 46.106289 -33.23114
-0.69267 44.381439 -32.685043
0.127655 45.353305 -33.488354
-0.365882 46.106289 -33.23114
8.710575 23.073025 -29.377405
7.825257 23.447645 -29.448055
7.803209 25.377275 -29.870976
-2.026857 25.366358 -26.536316
-1.525273 24.821821 -27.166187
2.594496 26.051068 -30.004559
2.459118 23.955021 -29.476111
1.799021 26.525067 -29.987003
2.713108 28.104036 -30.464265
3.373205 25.533991 -29.953373
2.594496 26.051068 -30.004559
7.415473 34.159361 -32.03828
6.765114 34.578287 -32.081042
6.883727 36.037445 -32.483658
8.046613 32.341223 -31.632919
7.415473 34.159361 -32.03828
-2.191727 44.818493 -29.645293
-2.374039 42.860409 -28.784852
-1.983145 44.287098 -30.421043
-2.191727 44.818493 -29.645293
-1.987259 46.756531 -30.422325
-1.698099 43.735703 -31.087108
-1.902567 41.797664 -30.310076
-1.983145 44.287098 -30.421043
-1.375691 43.141784 -31.654692
-1.698099 43.735703 -31.087108
9.658665 22.789479 -29.357572
9.572581 24.69212 -29.805878
-1.045122 24.279733 -27.710411
-1.525273 24.821821 -27.166187
-1.390528 27.027523 -27.88825
-0.439034 23.766531 -28.151182
-1.045122 24.279733 -27.710411
0.149909 23.241383 -28.499239
-0.439034 23.766531 -28.151182
-0.321433 25.960287 -28.780531
0.865449 22.762155 -28.754297
0.149909 23.241383 -28.499239
0.965577 24.93208 -29.293571
1.563515 22.259096 -28.919281
0.865449 22.762155 -28.754297
9.58616 26.502384 -30.25823
9.572581 24.69212 -29.805878
8.702106 26.812919 -30.252678
9.58616 26.502384 -30.25823
9.538678 28.310072 -30.741844
-2.892305 36.704714 -26.01524
-3.088879 34.636781 -25.017595
-2.70114 36.185993 -26.944122
-2.892305 36.704714 -26.01524
-2.722227 38.800517 -26.956537
-2.359337 40.315428 -28.764716
-2.545763 40.826777 -27.905556
-2.374039 42.860409 -28.784852
-0.976993 42.549063 -32.10888
-1.218824 40.653547 -31.430329
-1.375691 43.141784 -31.654692
-0.535803 41.893202 -32.460679
-0.976993 42.549063 -32.10888
-0.69267 44.381439 -32.685043
0.677532 44.642662 -33.640084
0.298397 43.014934 -33.188572
0.127655 45.353305 -33.488354
1.263661 43.816895 -33.715642
0.677532 44.642662 -33.640084
6.879635 23.787514 -29.532528
6.00619 24.222134 -29.651629
6.044446 26.186516 -30.060727
6.879635 23.787514 -29.532528
7.825257 23.447645 -29.448055
8.710575 23.073025 -29.377405
9.658665 22.789479 -29.357572
2.84092 45.673374 -34.302956
2.325536 44.447872 -34.031052
3.491341 44.625057 -34.209637
2.84092 45.673374 -34.302956
4.15914 43.714113 -34.069367
3.639821 42.655302 -33.830852
3.491341 44.625057 -34.209637
4.80693 42.61047 -33.908703
4.15914 43.714113 -34.069367
5.449404 41.716276 -33.742325
4.950093 40.850164 -33.524204
4.80693 42.61047 -33.908703
6.060688 40.559675 -33.543816
5.449404 41.716276 -33.742325
6.124169 39.195585 -33.216515
6.060688 40.559675 -33.543816
-3.062082 31.957733 -25.044037
-3.088879 34.636781 -25.017595
-2.945259 29.253971 -24.982373
-3.062082 31.957733 -25.044037
-2.754395 31.386429 -25.941161
-2.822286 26.498053 -24.999464
-2.945259 29.253971 -24.982373
-2.410303 25.922886 -25.804051
-2.254125 28.126139 -26.611762
-2.026857 25.366358 -26.536316
-2.822286 26.498053 -24.999464
-2.410303 25.922886 -25.804051
2.382159 21.818001 -29.013361
1.563515 22.259096 -28.919281
2.382159 21.818001 -29.013361
2.459118 23.955021 -29.476111
4.244903 25.096983 -29.877037
3.373205 25.533991 -29.953373
4.331409 27.104048 -30.296453
5.084496 24.614071 -29.76041
4.244903 25.096983 -29.877037
6.124169 39.195585 -33.216515
6.44457 37.445785 -32.800812
5.912967 38.206171 -32.942124
3 44 43 10
3 0 45 46
3 1 15 13
3 1 16 15
3 1 18 16
3 47 21 48
3 49 48 19
3 47 48 49
3 50 23 51
3 52 51 21
3 50 51 52
3 2 26 24
3 53 27 54
3 55 54 11
3 53 54 55
3 57 56 27
3 58 29 59
3 5 30 12
3 5 31 30
3 5 33 31
3 60 34 61
3 63 62 34
3 3 64 66
3 66 65 25
3 64 65 66
3 4 36 28
3 68 67 14
3 8 69 71
3 71 70 17
3 69 70 71
3 8 72 74
3 72 37 73
3 72 73 74
3 6 38 32
3 9 39 20
3 9 40 39
3 9 41 40
3 7 42 22
3 7 35 42
3 10 11 2
3 75 11 76
3 77 76 10
3 75 76 77
3 79 78 11
3 80 12 81
3 82 12 83
3 82 83 84
3 85 5 86
3 87 86 12
3 85 86 87
3 89 88 5
3 91 90 3
3 13 14 4
3 15 14 13
3 15 92 94
3 94 93 14
3 92 93 94
3 15 95 96
3 16 97 99
3 99 98 15
3 97 98 99
3 16 100 101
3 16 102 104
3 102 17 103
3 102 103 104
3 18 17 16
3 18 8 17
3 19 20 6
3 21 20 19
3 21 9 20
3 21 22 9
3 23 22 21
3 23 7 22
3 24 25 0
3 26 25 24
3 26 3 25
3 11 26 2
3 27 26 11
3 27 3 26
3 27 105 107
3 107 106 3
3 105 106 107
3 109 108 27
3 110 28 111
3 29 112 114
3 112 28 113
3 112 113 114
3 29 4 28
3 12 115 117
3 115 29 116
3 115 116 117
3 30 29 12
3 30 4 29
3 30 13 4
3 31 13 30
3 31 1 13
3 31 32 1
3 33 32 31
3 33 6 32
3 118 33 119
3 120 119 5
3 118 119 120
3 34 121 123
3 121 33 122
3 121 122 123
3 34 6 33
3 34 19 6
3 124 19 125
3 126 125 34
3 124 125 126
3 128 127 19
3 25 129 131
3 131 130 0
3 129 130 131
3 133 132 25
3 135 134 3
3 136 23 137
3 138 23 139
3 140 7 141
3 142 141 23
3 140 141 142
3 143 7 144
3 145 35 146
3 147 146 7
3 145 146 147
3 148 35 149
3 151 150 35
3 28 152 153
3 36 154 156
3 156 155 28
3 154 155 156
3 36 157 158
3 14 36 4
3 159 36 160
3 161 160 14
3 159 160 161
3 163 162 36
3 17 164 165
3 167 166 17
3 37 168 169
3 37 170 172
3 170 0 171
3 170 171 172
3 32 18 1
3 38 18 32
3 38 8 18
3 20 38 6
3 39 38 20
3 39 8 38
3 39 37 8
3 40 37 39
3 40 0 37
3 40 24 0
3 41 24 40
3 41 2 24
3 22 41 9
3 42 41 22
3 42 2 41
3 42 10 2
3 35 10 42
3 35 173 175
3 175 174 10
3 173 174 175
