ply
format ascii 1.0
element vertex 801
property float x
property float y
property float z
element face 976
property list uchar int vertex_index
end_header
17.104214 -126.378906 -0.016056
3.62484 -98.800415 1.014847
13.334026 -74.56987 -2.105564
4.467888 -120.595085 -1.732639
12.677906 -62.003616 -3.394693
12.822594 -64.293381 -8.120504
19.689968 -125.673592 -10.244291
2.215578 -110.527573 -0.653854
5.712626 -117.393219 -11.676729
8.464184 -86.885422 0.577958
7.99288 -78.167175 -5.72003
12.382881 -65.674911 -12.314407
11.189243 -123.543571 9.532655
10.066988 -126.653198 -1.48901
3.271881 -119.705025 10.213242
0.504147 -110.498337 9.934438
3.166445 -99.522499 9.137257
9.259214 -89.393875 7.417199
13.704596 -79.669525 4.778914
11.892181 -68.605652 2.658763
12.0634 -124.464005 -12.638765
15.296179 -116.884613 -18.845968
21.122803 -124.316162 -1.741852
18.086479 -126.556046 -4.725187
2.450436 -104.762596 0.245845
2.265038 -109.154083 -5.053541
2.148937 -102.971313 -3.50868
11.309196 -80.837891 -0.692741
7.766632 -83.216057 -2.506655
10.676249 -76.54631 -3.876448
11.957544 -64.965622 -10.221846
6.70495 -122.472626 10.023925
0.465427 -104.749847 15.134365
1.209015 -105.015068 9.603779
2.320681 -99.273369 14.078753
8.627937 -89.176605 11.560843
11.447102 -84.665405 10.18141
12.06287 -84.619576 6.140661
12.929182 -80.21273 8.780594
10.738132 -70.414017 6.338008
8.963499 -62.602951 2.223299
6.871096 -124.336121 -1.787933
10.938772 -126.227127 -7.416
7.777819 -123.529396 -7.561543
9.712988 -118.141617 -15.938604
13.797455 -68.181259 -3.121788
12.796566 -69.857094 -5.229876
13.505239 -63.422733 -5.883423
21.661869 -123.569427 -15.095968
2.903324 -115.879265 -1.351109
5.197063 -119.589027 -7.175062
3.314762 -114.743439 -6.339998
3.611425 -112.318214 -10.393084
5.703695 -92.829529 1.206652
3.048992 -96.448593 -2.237713
4.998421 -89.834267 -1.836802
5.270361 -85.354935 -4.85932
7.178905 -79.742355 -8.052641
10.7612 -71.066315 -7.102386
9.58009 -72.174294 -9.078432
14.337103 -125.752174 4.223652
13.784653 -127.246292 -0.828331
10.008675 -125.728996 4.325311
6.285885 -123.951195 4.253069
3.574671 -120.582787 4.195117
1.181688 -115.557693 10.157408
1.990078 -116.045143 4.227386
1.524126 -110.806213 4.392855
2.1555 -105.243256 4.646094
3.805567 -99.642326 4.796871
5.279943 -94.019669 12.869998
6.043673 -94.297218 8.432982
6.277014 -94.188919 4.572034
9.201134 -88.884415 3.800022
11.973747 -83.532745 2.568504
13.802053 -77.900253 1.193374
12.661724 -75.525307 7.450027
13.661898 -74.336029 3.553209
14.008818 -71.924179 0.042767
12.495409 -65.775375 -0.614498
18.913204 -124.119774 3.476802
23.814484 -120.918808 2.241598
14.514046 -127.277916 -6.529997
15.858909 -125.956909 -12.027773
17.478765 -123.266273 -16.374857
8.603985 -121.494148 -12.426931
13.373617 -121.355095 -16.493017
19.452917 -119.180275 -19.176508
18.867472 -125.632195 -0.838724
19.682751 -125.605362 -3.399363
17.495409 -126.583015 -2.10803
2.920362 -101.792244 0.675177
2.322983 -104.055443 -1.719412
2.696606 -100.960114 -1.137346
12.481852 -77.731682 -1.417446
10.942091 -78.872086 -2.281313
12.145452 -75.627533 -3.016037
1.223516 -102.004745 14.631403
12.392609 -82.45166 9.479191
5.565819 -122.614929 -1.801954
7.325418 -124.083466 -4.74901
6.014402 -122.29364 -4.697701
13.401791 -65.040329 -3.361145
13.620647 -65.895744 -4.562107
13.331127 -62.801777 -4.671482
21.500931 -124.871994 -8.87262
20.641727 -124.783936 -12.811052
2.446497 -113.267746 -1.039286
3.173569 -115.453659 -3.939552
2.62483 -112.803551 -3.490126
2.264393 -107.936264 -6.931314
2.722021 -110.919609 -7.775217
2.910652 -109.433151 -9.534975
7.026041 -89.859726 0.993984
5.297098 -91.536224 -0.337931
6.605696 -88.395615 -0.535057
7.722197 -80.83728 -4.087997
6.27158 -84.297592 -3.586653
6.576427 -81.756538 -5.174473
6.011263 -82.669464 -6.434849
7.270607 -78.953979 -6.816069
12.702389 -67.139664 -6.716135
11.790594 -70.495834 -6.17457
11.916557 -67.6147 -7.710262
11.939085 -65.312637 -11.267498
10.802307 -68.49913 -9.696398
10.855837 -68.960403 -10.732397
9.772612 -72.745567 -10.165201
12.752546 -124.834091 6.821157
12.131428 -125.956444 4.318621
10.440817 -124.780952 7.018332
4.832306 -121.285973 10.152919
6.338854 -123.336464 7.196893
4.66674 -121.976105 7.219231
4.791172 -122.443161 4.216763
3.297352 -120.240067 7.213628
0.168879 -110.27285 12.876438
0.445107 -112.81414 13.076459
0.666769 -113.110565 10.061674
1.512682 -115.864647 7.159228
1.098518 -113.348816 7.129273
1.618189 -113.487213 4.293205
0.999264 -110.693771 7.105012
2.046038 -102.248528 9.393064
1.721817 -105.172585 7.055979
2.517368 -102.394333 7.001493
2.86224 -102.43277 4.751196
3.568848 -99.651375 6.896229
6.306145 -91.599365 17.092562
4.947517 -94.005539 15.324634
6.586668 -91.494522 14.583439
9.001888 -89.314407 9.418742
7.348808 -91.686234 10.021674
7.653753 -91.812317 7.964351
6.265377 -94.351784 6.434971
7.790993 -91.799446 6.04579
7.714254 -91.526779 4.255749
9.334444 -89.288788 5.548388
13.069986 -82.183792 5.456623
12.111958 -84.255013 4.30302
13.15303 -81.658539 3.617907
13.056374 -80.761322 1.87487
13.841389 -78.971962 2.941034
11.975588 -75.811897 9.552557
11.160528 -73.466599 8.903913
11.378366 -69.628883 4.449506
12.496719 -72.398895 4.905633
12.971453 -71.514709 3.054538
13.920546 -73.300568 1.753277
13.286192 -70.337738 1.300183
13.441221 -68.854202 -0.358341
12.263201 -67.321304 0.968516
13.670547 -123.406677 9.151277
15.15543 -124.447044 6.509538
21.325127 -122.701927 2.861435
20.103518 -122.419106 5.499201
11.895288 -127.168289 -1.199242
14.034872 -127.433884 -3.636147
12.2043 -127.245407 -4.140402
11.489302 -125.512032 -10.166645
13.285423 -126.367973 -9.891291
13.934971 -125.419334 -12.46133
16.63796 -124.785934 -14.3866
14.629263 -124.128891 -14.697346
5.445272 -118.652725 -9.570232
6.742176 -120.787132 -9.916603
7.072973 -119.570358 -12.113071
12.325773 -117.75985 -17.553507
11.466768 -119.894211 -16.2778
14.227459 -119.288078 -17.842573
16.270092 -120.51104 -17.998701
17.312569 -118.189262 -19.087183
18.554497 -115.541306 -19.872435
2.9849 -94.680077 -3.713945
2.402369 -98.115334 -4.320337
11.74577 -59.124146 -3.230864
12.746386 -59.870876 -4.543257
23.604445 -122.552704 -2.544006
22.13332 -124.105026 -4.460449
20.546299 -125.360756 -6.126436
18.82856 -126.258553 -7.50152
2.215895 -107.683807 -0.213852
2.294422 -110.005745 -2.950329
2.19133 -107.080986 -2.344959
2.085176 -106.123116 -4.286915
2.051821 -104.783485 -6.02103
9.92923 -83.885117 -0.003981
8.050226 -85.24826 -0.961967
9.535164 -82.078217 -1.568441
9.261568 -79.890427 -3.145144
9.202028 -77.376053 -4.755344
12.311895 -64.633682 -9.177404
8.84449 -123.231277 9.819958
0.083733 -107.454002 15.569869
0.273554 -107.598816 12.612359
0.688482 -107.781342 9.781874
0.748123 -104.853409 12.295929
1.571676 -102.092834 11.934004
2.708195 -99.365578 11.528292
8.219166 -89.09446 13.8475
9.718979 -86.797546 13.117979
10.160742 -86.893951 10.877611
10.530489 -87.004349 8.773277
10.761808 -87.009613 6.802726
11.82971 -84.717972 8.097502
12.807673 -82.413666 7.40766
13.392836 -80.053421 6.72268
10.000668 -71.003769 8.321571
8.57395 -68.405632 7.832114
9.308315 -67.673454 5.918331
9.963511 -66.756058 4.098805
10.515583 -65.627777 2.379565
8.360571 -63.792004 3.864721
8.377954 -125.699051 -1.685291
10.442335 -126.608574 -4.486588
8.805931 -125.540565 -4.684271
9.29277 -125.061012 -7.567156
9.784971 -124.261414 -10.237341
6.124538 -115.786667 -13.457554
7.502993 -118.018394 -13.974655
8.149637 -116.114632 -15.483189
10.607601 -115.946907 -17.156713
13.452028 -115.288666 -18.498053
16.612194 -114.159225 -19.564508
13.78348 -71.373878 -2.69133
13.034046 -72.359116 -3.68811
13.533152 -69.099518 -4.222702
13.3388 -66.58255 -5.676107
13.28521 -63.905117 -7.029369
13.334946 -60.431179 -5.823385
22.740082 -122.011467 -17.032808
3.579201 -118.3339 -1.582422
4.879831 -120.228584 -4.543024
3.929354 -117.936806 -4.290421
4.159973 -117.266426 -6.814556
4.328499 -116.289406 -9.102764
2.678513 -112.034508 -5.749233
3.414524 -113.708771 -8.50518
4.550886 -114.97422 -11.107677
4.558155 -95.809082 1.206823
3.318495 -97.826485 -0.671345
4.189539 -94.680305 -0.38895
3.897465 -93.142715 -1.90234
3.841341 -91.221489 -3.372385
6.31192 -86.527443 -2.048807
4.952444 -87.758453 -3.332134
4.152798 -88.957108 -4.839354
11.888533 -73.192871 -4.602966
10.595169 -73.921288 -5.487051
9.422367 -74.596474 -6.400364
11.211327 -68.055603 -8.69368
9.955336 -71.61573 -8.059738
8.613678 -75.261353 -7.393587
8.350473 -75.935822 -8.491791
8.729515 -76.609055 -9.686598
15.853554 -126.264854 1.845835
15.608684 -126.935974 -0.407602
13.865156 -126.692421 1.794339
11.849552 -126.73938 1.640489
9.897465 -126.358772 1.474332
8.281036 -124.279602 7.13518
8.038897 -125.057495 4.294373
8.092859 -125.536072 1.334455
6.49234 -124.289772 1.237905
5.125292 -122.661522 1.191267
4.002266 -120.707573 1.197783
2.244984 -118.182487 7.190253
2.641453 -118.42952 4.19626
3.124041 -118.48893 1.26047
2.489561 -116.06279 1.382415
2.099564 -113.477669 1.56463
1.95612 -110.773079 1.802267
1.210091 -107.952667 7.084181
1.705326 -108.045578 4.516973
2.060305 -107.982246 2.080703
2.410133 -105.135513 2.373048
2.999653 -102.261917 2.640475
3.818533 -99.387688 2.83629
3.699539 -96.60096 13.489043
4.102879 -96.709244 11.07645
6.961134 -91.545532 12.226169
5.680735 -94.147324 10.574906
4.520969 -96.866875 8.82156
4.835949 -96.967171 6.714516
4.956825 -96.891808 4.747017
4.850515 -96.532417 2.913518
6.06971 -93.704552 2.834467
7.43511 -90.898857 2.579584
8.885311 -88.097176 2.152826
10.806782 -86.78669 4.958284
10.653673 -86.230957 3.22552
10.336044 -85.272896 1.581878
11.683119 -82.398308 0.913405
12.81213 -79.45282 0.205173
13.614492 -76.429573 -0.482485
12.384439 -78.063843 10.242024
13.020103 -77.913193 8.098582
13.540014 -77.607903 6.063081
11.882341 -73.029541 6.85565
13.234896 -75.058914 5.450236
13.9104 -77.055977 4.135717
14.108797 -76.184433 2.308861
14.13282 -74.949181 0.569772
14.007088 -73.33902 -1.093899
13.950823 -70.20816 -1.582958
13.462547 -67.076385 -1.916433
12.616789 -63.989433 -2.076269
10.953352 -64.280991 0.769003
11.283947 -62.72736 -0.718756
11.533964 -60.995472 -2.061695
17.611393 -123.634895 6.060938
16.591015 -125.137413 3.957219
17.874174 -125.49424 1.545321
25.000938 -120.773277 -0.455549
22.478207 -122.732605 0.179888
20.079773 -124.328201 0.895738
15.842052 -127.194878 -2.968597
16.338959 -127.128059 -5.752319
17.008331 -126.745491 -8.580624
12.692511 -126.977081 -7.078756
15.141198 -126.785767 -9.371994
17.793562 -126.043068 -11.295965
18.657953 -125.010452 -13.769768
19.585527 -123.634811 -15.909845
20.580585 -121.907143 -17.666803
6.408199 -121.688797 -7.425409
8.195843 -122.669548 -10.143696
10.276794 -123.138985 -12.611786
9.076221 -119.989586 -14.365036
10.811666 -121.686455 -14.633444
12.674538 -123.080132 -14.759495
15.392361 -122.492737 -16.546045
18.405418 -121.396454 -17.965075
21.661634 -119.827263 -19.040777
2.466993 -99.734489 -2.797476
2.094252 -101.496254 -5.119896
21.117074 -124.894745 -10.873767
22.022556 -124.493946 -10.187931
20.59545 -125.272793 -9.558456
20.165847 -125.228764 -11.527672
21.592954 -124.449917 -12.157147
21.117074 -124.894745 -10.873767
2.684597 -107.884949 -9.049601
2.587522 -108.684708 -8.233144
2.361467 -107.136505 -7.74777
3.155381 -108.50045 -10.274294
2.684597 -107.884949 -9.049601
11.92456 -67.551132 -12.054902
11.161037 -69.193878 -11.263897
11.619359 -67.317657 -11.523402
12.864291 -65.851219 -12.832462
11.92456 -67.551132 -12.054902
7.078034 -90.374165 16.684822
6.938175 -90.487873 17.966169
7.218295 -90.321743 15.43026
6.446407 -91.546943 15.838
7.078034 -90.374165 16.684822
10.179697 -72.460388 9.649121
10.763047 -73.624207 9.974063
12.429895 -123.475124 9.341966
12.942134 -122.728912 10.503895
11.701483 -122.797359 10.694584
20.748316 -121.450074 6.496887
21.362496 -121.627778 5.198133
2.825184 -95.402618 -4.724833
3.130294 -93.61686 -4.426242
11.858773 -58.137877 -3.714084
11.243099 -57.791922 -3.067446
0.27458 -106.101924 15.352117
0.269362 -106.096569 16.838534
0.460209 -104.744492 16.620782
10.08198 -85.682079 13.922666
9.494405 -86.802971 14.304444
10.803922 -85.779678 10.529511
10.564155 -85.737533 11.63542
11.207334 -84.623261 11.287319
7.396441 -67.389332 8.611171
8.181687 -68.698818 8.832728
8.498918 -66.24094 5.765575
8.138165 -66.66735 6.688004
8.826515 -65.782242 4.855812
9.635913 -67.214756 5.008568
8.498918 -66.24094 5.765575
8.025046 -64.300215 4.73877
9.162041 -65.274031 3.981763
8.826515 -65.782242 4.855812
7.478993 -114.966331 -15.189445
7.137087 -115.950649 -14.470371
6.466444 -114.802349 -14.176628
11.213679 -114.679523 -17.605055
9.858039 -114.901951 -16.901386
12.635892 -114.350403 -18.275724
12.029815 -115.617786 -17.827383
11.213679 -114.679523 -17.605055
14.16068 -113.892406 -18.833534
12.635892 -114.350403 -18.275724
13.117175 -59.041527 -5.661943
13.040666 -60.151027 -5.183321
12.822895 -58.761375 -5.021879
23.245577 -122.631305 -15.556181
22.66064 -123.317516 -14.502946
22.200975 -122.790447 -16.064388
23.784683 -121.852326 -16.524601
23.245577 -122.631305 -15.556181
4.290334 -112.807964 -11.594424
4.760064 -114.135967 -11.95172
4.081156 -113.646217 -10.750381
5.08973 -85.873752 -5.594997
4.530949 -87.674839 -5.585014
4.71158 -87.156022 -4.849337
6.653222 -81.65382 -7.953832
6.069401 -83.117375 -7.144937
6.595084 -81.20591 -7.243745
7.474664 -80.124179 -8.726515
6.653222 -81.65382 -7.953832
9.657234 -74.956325 -10.493828
9.251064 -74.677311 -9.925899
10.178783 -73.024581 -10.73313
9.24401 -76.925286 -10.313997
9.657234 -74.956325 -10.493828
1.144008 -115.358284 11.677814
0.775717 -113.986507 13.137339
0.813397 -114.185916 11.616934
1.616314 -116.667171 10.184503
1.144008 -115.358284 11.677814
1.713336 -116.87009 8.673831
2.147962 -117.979568 8.700926
1.616314 -116.667171 10.184503
11.797581 -77.034096 10.996357
12.026037 -78.110093 11.363772
10.61775 -61.239241 -0.699156
10.38775 -61.987871 -0.008392
10.742759 -60.373297 -1.370626
11.408955 -61.861416 -1.390225
10.61775 -61.239241 -0.699156
10.947546 -59.570127 -1.977558
10.742759 -60.373297 -1.370626
16.918838 -123.233292 7.365457
18.210695 -122.739013 7.082005
25.088287 -119.879745 1.980536
24.486348 -119.932537 3.292539
24.407711 -120.846042 0.893025
25.681514 -119.80698 0.631962
25.088287 -119.879745 1.980536
21.151324 -118.291569 -19.623695
22.255682 -118.615063 -19.55583
20.557275 -119.503769 -19.108642
18.306858 -113.37402 -19.99831
17.390798 -112.646557 -19.818781
2.21161 -100.568367 -5.84415
2.248311 -99.805794 -4.720116
2.365668 -98.877907 -5.444371
2.178286 -102.277664 -6.332491
2.21161 -100.568367 -5.84415
0.785425 -103.390297 16.307911
0.460209 -104.744492 16.620782
1.16447 -102.017745 16.05643
0.844472 -103.377296 14.882884
0.785425 -103.390297 16.307911
1.668763 -100.655735 15.711177
1.16447 -102.017745 16.05643
2.217345 -99.290047 15.434852
1.772099 -100.639057 14.355078
1.668763 -100.655735 15.711177
11.657037 -83.538742 10.926329
11.207334 -84.623261 11.287319
12.129791 -82.43187 10.575219
11.919856 -83.558533 9.8303
11.657037 -83.538742 10.926329
12.371255 -81.35204 10.21579
12.129791 -82.43187 10.575219
12.639541 -80.232574 9.866492
12.660896 -81.332195 9.129893
12.371255 -81.35204 10.21579
22.915522 -123.957707 -9.370557
22.347157 -124.279412 -8.037422
22.915522 -123.957707 -9.370557
22.022556 -124.493946 -10.187931
22.150568 -123.92477 -13.360488
21.592954 -124.449917 -12.157147
21.151798 -124.176682 -13.95351
22.66064 -123.317516 -14.502946
22.150568 -123.92477 -13.360488
3.48409 -109.99382 -10.755987
3.834477 -111.436352 -11.185042
3.261038 -110.875682 -9.964029
3.48409 -109.99382 -10.755987
3.155381 -108.50045 -10.274294
10.619425 -71.08646 -10.980299
10.314224 -70.852985 -10.448799
11.161037 -69.193878 -11.263897
10.178783 -73.024581 -10.73313
10.619425 -71.08646 -10.980299
0.306993 -111.543495 12.976449
0.272726 -111.435142 14.496215
0.134611 -110.164498 14.396205
6.237309 -91.739723 18.417456
6.938175 -90.487873 17.966169
5.535984 -92.877312 17.514606
6.237309 -91.739723 18.417456
5.626831 -92.802452 16.208598
4.85667 -94.080399 16.630641
5.535984 -92.877312 17.514606
11.170577 -74.796856 10.298386
11.593156 -75.908123 10.651623
11.568058 -74.639248 9.228235
11.170577 -74.796856 10.298386
10.763047 -73.624207 9.974063
9.227526 -61.925667 1.462635
8.169108 -61.07909 2.204673
14.245396 -122.561127 10.227512
12.942134 -122.728912 10.503895
14.948415 -123.119182 8.910626
14.245396 -122.561127 10.227512
14.412989 -123.926861 7.830407
15.690857 -123.639366 7.589757
14.948415 -123.119182 8.910626
23.217979 -120.877629 3.569331
24.486348 -119.932537 3.292539
21.973301 -121.769188 3.87925
22.569806 -121.810367 2.551516
23.217979 -120.877629 3.569331
20.714323 -122.560517 4.180318
21.973301 -121.769188 3.87925
21.362496 -121.627778 5.198133
18.9822 -117.409526 -19.574915
20.052374 -117.905033 -19.619577
18.382743 -118.684768 -19.131845
19.603164 -116.085549 -19.967541
18.9822 -117.409526 -19.574915
17.933533 -116.865284 -19.479809
20.284312 -114.6535 -20.285899
19.603164 -116.085549 -19.967541
2.533919 -97.120247 -5.02803
2.693634 -96.397706 -4.017141
2.825184 -95.402618 -4.724833
2.365668 -98.877907 -5.444371
2.533919 -97.120247 -5.02803
12.35908 -58.511242 -4.37028
12.246078 -59.497511 -3.88706
11.858773 -58.137877 -3.714084
12.822895 -58.761375 -5.021879
12.35908 -58.511242 -4.37028
24.182483 -122.368576 -3.910385
24.913095 -121.49701 -2.852216
23.446921 -123.144737 -4.868607
24.182483 -122.368576 -3.910385
22.868882 -123.328865 -3.502228
22.663351 -123.895927 -5.831337
23.446921 -123.144737 -4.868607
21.869841 -124.523792 -6.664331
22.663351 -123.895927 -5.831337
21.33981 -124.732891 -5.293442
21.023615 -125.116375 -7.499528
22.347157 -124.279412 -8.037422
21.869841 -124.523792 -6.664331
2.255181 -105.560115 -7.292628
2.361467 -107.136505 -7.74777
2.158107 -106.359874 -6.476172
12.761731 -63.02157 -9.294942
12.567245 -64.463531 -8.648954
13.017081 -62.851419 -8.766492
12.656139 -63.135756 -9.859104
12.761731 -63.02157 -9.294942
12.478963 -63.301726 -10.381325
12.134719 -64.799652 -9.699625
12.656139 -63.135756 -9.859104
12.473626 -63.418659 -10.935457
12.478963 -63.301726 -10.381325
12.464396 -63.592166 -11.458282
11.948315 -65.139129 -10.744672
12.473626 -63.418659 -10.935457
12.631044 -63.716735 -12.002367
12.464396 -63.592166 -11.458282
12.852942 -63.897872 -12.525821
12.160983 -65.493774 -11.790952
12.631044 -63.716735 -12.002367
13.237066 -64.02391 -13.055723
12.852942 -63.897872 -12.525821
9.28019 -122.588211 11.072676
10.016866 -123.387424 9.676306
10.452566 -122.744358 10.929025
8.121173 -122.312027 11.26097
9.28019 -122.588211 11.072676
7.051403 -121.932701 11.362954
7.77472 -122.851952 9.921941
8.121173 -122.312027 11.26097
6.016869 -121.439015 11.502291
7.051403 -121.932701 11.362954
5.080547 -120.845688 11.566788
5.768628 -121.8793 10.088422
6.016869 -121.439015 11.502291
4.199197 -120.147587 11.654796
5.080547 -120.845688 11.566788
3.418985 -119.357113 11.684957
4.052093 -120.495499 10.18308
4.199197 -120.147587 11.654796
0.142534 -107.413628 17.101581
0.269362 -106.096569 16.838534
0.092038 -108.755074 15.742921
0.142534 -107.413628 17.101581
0.126306 -108.863426 14.223154
0.134611 -110.164498 14.396205
0.092038 -108.755074 15.742921
8.744498 -87.951427 14.669205
8.034544 -89.121712 15.062291
8.969072 -87.946003 13.48274
8.744498 -87.951427 14.669205
9.494405 -86.802971 14.304444
10.343273 -85.689331 12.755604
10.08198 -85.682079 13.922666
9.93986 -86.845748 11.997795
10.343273 -85.689331 12.755604
10.564155 -85.737533 11.63542
8.895046 -69.997886 9.077456
9.599767 -71.228973 9.35795
9.287309 -69.704701 8.076842
8.895046 -69.997886 9.077456
8.181687 -68.698818 8.832728
7.770983 -67.03344 7.644896
7.396441 -67.389332 8.611171
8.941133 -68.039543 6.875222
7.770983 -67.03344 7.644896
8.138165 -66.66735 6.688004
7.175021 -62.808596 4.646913
8.025046 -64.300215 4.73877
7.526982 -62.272091 3.807284
7.175021 -62.808596 4.646913
7.828447 -61.677565 2.986573
8.662035 -63.197477 3.04401
7.526982 -62.272091 3.807284
8.169108 -61.07909 2.204673
7.828447 -61.677565 2.986573
10.452566 -122.744358 10.929025
11.701483 -122.797359 10.694584
8.629057 -114.985814 -16.064624
7.478993 -114.966331 -15.189445
9.378619 -116.030769 -16.319951
8.629057 -114.985814 -16.064624
9.858039 -114.901951 -16.901386
15.740763 -113.327686 -19.366762
15.032111 -114.723946 -19.031281
14.16068 -113.892406 -18.833534
17.390798 -112.646557 -19.818781
15.740763 -113.327686 -19.366762
13.416816 -59.219757 -6.311055
13.117175 -59.041527 -5.661943
13.436886 -60.638901 -6.442654
13.416816 -59.219757 -6.311055
13.522032 -62.134678 -6.472673
13.420092 -61.926956 -5.853404
13.436886 -60.638901 -6.442654
13.412018 -62.37587 -7.045647
13.395224 -63.663925 -6.456396
13.522032 -62.134678 -6.472673
13.367268 -62.531885 -7.642834
13.412018 -62.37587 -7.045647
13.13596 -62.726017 -8.188401
13.053902 -64.099249 -7.574936
13.367268 -62.531885 -7.642834
13.017081 -62.851419 -8.766492
13.13596 -62.726017 -8.188401
24.391244 -120.993668 -17.407936
23.784683 -121.852326 -16.524601
23.309195 -121.055515 -17.815593
24.391244 -120.993668 -17.407936
5.54689 -114.542191 -13.126659
5.337712 -115.380443 -12.282616
4.760064 -114.135967 -11.95172
6.466444 -114.802349 -14.176628
5.54689 -114.542191 -13.126659
4.290334 -112.807964 -11.594424
3.834477 -111.436352 -11.185042
3.558515 -91.887565 -4.255463
3.130294 -93.61686 -4.426242
3.41312 -92.950783 -3.543165
3.714243 -90.755375 -4.988947
3.558515 -91.887565 -4.255463
3.997069 -90.089299 -4.105869
4.085622 -89.533093 -5.692746
3.714243 -90.755375 -4.988947
4.085622 -89.533093 -5.692746
4.530949 -87.674839 -5.585014
5.460181 -84.531017 -6.382761
5.08973 -85.873752 -5.594997
5.640812 -84.0122 -5.647085
5.460181 -84.531017 -6.382761
6.069401 -83.117375 -7.144937
8.249968 -78.55753 -9.543494
7.474664 -80.124179 -8.726515
7.95421 -78.175705 -8.869619
8.249968 -78.55753 -9.543494
9.24401 -76.925286 -10.313997
12.864291 -65.851219 -12.832462
13.237066 -64.02391 -13.055723
2.711158 -118.474297 11.720705
3.418985 -119.357113 11.684957
0.485368 -112.653221 14.612964
0.272726 -111.435142 14.496215
0.485368 -112.653221 14.612964
0.775717 -113.986507 13.137339
2.661411 -118.740837 10.212421
2.711158 -118.474297 11.720705
2.674146 -119.008358 8.712613
3.284617 -119.972546 8.713435
2.661411 -118.740837 10.212421
2.771168 -119.211277 7.201941
2.674146 -119.008358 8.712613
2.147962 -117.979568 8.700926
2.87132 -97.945801 15.071813
2.217345 -99.290047 15.434852
4.184738 -95.311886 15.694753
4.85667 -94.080399 16.630641
3.560749 -96.609597 14.776958
4.184738 -95.311886 15.694753
4.323528 -95.303249 14.406838
3.01011 -97.937164 13.783898
2.87132 -97.945801 15.071813
3.560749 -96.609597 14.776958
7.402917 -90.294491 14.21547
7.218295 -90.321743 15.43026
8.034544 -89.121712 15.062291
12.36717 -79.158131 10.597207
12.026037 -78.110093 11.363772
12.656811 -79.138286 9.511309
12.639541 -80.232574 9.866492
12.36717 -79.158131 10.597207
12.180014 -76.93787 9.897291
11.797581 -77.034096 10.996357
11.593156 -75.908123 10.651623
10.580598 -72.235184 8.612742
10.179697 -72.460388 9.649121
9.599767 -71.228973 9.35795
10.222453 -62.764687 0.735487
9.958426 -63.441971 1.496151
9.227526 -61.925667 1.462635
11.11865 -63.504176 0.025124
10.222453 -62.764687 0.735487
10.38775 -61.987871 -0.008392
11.053449 -58.634464 -2.562143
11.639867 -60.059809 -2.646279
10.947546 -59.570127 -1.977558
11.243099 -57.791922 -3.067446
11.053449 -58.634464 -2.562143
19.456758 -122.131119 6.801137
20.748316 -121.450074 6.496887
18.857456 -123.027 5.780069
19.456758 -122.131119 6.801137
18.210695 -122.739013 7.082005
16.383412 -124.04097 6.285238
16.918838 -123.233292 7.365457
15.690857 -123.639366 7.589757
26.305677 -119.655559 -0.690387
25.681514 -119.80698 0.631962
25.611342 -120.607296 -1.807988
26.305677 -119.655559 -0.690387
24.302692 -121.662991 -1.499777
24.913095 -121.49701 -2.852216
25.611342 -120.607296 -1.807988
22.229446 -121.003354 -18.132591
23.309195 -121.055515 -17.815593
21.660334 -121.959305 -17.349806
22.76997 -119.963414 -18.819578
22.229446 -121.003354 -18.132591
21.121109 -120.867203 -18.35379
23.373715 -118.830857 -19.426807
22.76997 -119.963414 -18.819578
23.373715 -118.830857 -19.426807
22.255682 -118.615063 -19.55583
21.151324 -118.291569 -19.623695
20.052374 -117.905033 -19.619577
19.27801 -114.06506 -20.152273
17.583346 -114.850266 -19.718471
18.306858 -113.37402 -19.99831
20.284312 -114.6535 -20.285899
19.27801 -114.06506 -20.152273
2.15707 -103.921279 -6.783058
2.073036 -103.13987 -5.570463
2.178286 -102.277664 -6.332491
2.255181 -105.560115 -7.292628
2.15707 -103.921279 -6.783058
3 0 90 88
3 1 93 91
3 2 96 94
3 3 101 99
3 4 104 102
3 6 356 358
3 358 357 105
3 356 357 358
3 6 359 361
3 359 106 360
3 359 360 361
3 7 109 107
3 362 112 363
3 364 363 110
3 362 363 364
3 366 365 112
3 9 115 113
3 10 118 116
3 10 120 118
3 5 123 121
3 11 126 124
3 11 367 369
3 369 368 126
3 367 368 369
3 11 370 371
3 12 130 128
3 14 133 131
3 14 135 133
3 15 138 136
3 15 140 138
3 15 142 140
3 16 145 143
3 16 147 145
3 372 148 373
3 374 150 375
3 376 375 148
3 374 375 376
3 17 153 151
3 17 155 153
3 17 157 155
3 18 160 158
3 18 162 160
3 377 164 378
3 19 167 165
3 19 169 167
3 19 171 169
3 12 379 381
3 379 172 380
3 379 380 381
3 12 128 172
3 382 175 383
3 13 178 176
3 20 181 179
3 20 183 181
3 8 186 184
3 21 189 187
3 21 191 189
3 21 192 191
3 385 384 193
3 387 386 195
3 22 198 197
3 23 199 89
3 23 200 199
3 24 203 201
3 26 204 92
3 26 205 204
3 27 208 206
3 29 209 95
3 29 210 209
3 32 388 390
3 388 213 389
3 388 389 390
3 32 214 213
3 32 216 214
3 34 217 97
3 34 218 217
3 391 220 392
3 36 393 395
3 393 221 394
3 393 394 395
3 36 222 221
3 36 224 222
3 38 225 98
3 38 226 225
3 396 228 397
3 398 229 399
3 400 230 401
3 402 401 229
3 400 401 402
3 403 232 404
3 405 404 230
3 403 404 405
3 41 235 233
3 43 236 100
3 43 237 236
3 406 240 407
3 408 407 238
3 406 407 408
3 409 241 410
3 411 242 412
3 413 412 241
3 411 412 413
3 415 414 242
3 45 246 244
3 47 247 103
3 47 248 247
3 416 249 417
3 418 417 196
3 416 417 418
3 48 419 420
3 48 421 423
3 421 250 422
3 421 422 423
3 49 253 251
3 51 254 108
3 51 255 254
3 25 256 202
3 52 257 111
3 52 258 257
3 52 424 426
3 426 425 258
3 424 425 426
3 53 261 259
3 55 262 114
3 55 263 262
3 28 264 207
3 56 265 117
3 56 266 265
3 56 427 429
3 429 428 266
3 427 428 429
3 57 430 432
3 432 431 119
3 430 431 432
3 57 433 434
3 46 267 245
3 58 268 122
3 58 269 268
3 30 270 211
3 59 271 125
3 59 272 271
3 59 273 272
3 435 274 436
3 437 436 127
3 435 436 437
3 439 438 274
3 60 277 275
3 62 278 129
3 62 279 278
3 31 280 212
3 63 281 132
3 63 282 281
3 63 283 282
3 64 284 134
3 64 285 284
3 65 440 442
3 442 441 137
3 440 441 442
3 65 443 444
3 65 445 447
3 445 286 446
3 445 446 447
3 66 287 139
3 66 288 287
3 66 289 288
3 67 290 141
3 67 291 290
3 33 292 215
3 68 293 144
3 68 294 293
3 68 295 294
3 69 296 146
3 69 297 296
3 70 298 149
3 70 299 298
3 35 300 219
3 71 301 152
3 71 302 301
3 71 303 302
3 72 304 154
3 72 305 304
3 72 306 305
3 73 307 156
3 73 308 307
3 37 309 223
3 74 310 159
3 74 311 310
3 74 312 311
3 75 313 161
3 75 314 313
3 448 315 449
3 76 316 163
3 76 317 316
3 39 318 227
3 77 319 166
3 77 320 319
3 77 321 320
3 78 322 168
3 78 323 322
3 78 324 323
3 79 325 170
3 79 326 325
3 40 327 231
3 450 328 451
3 452 329 453
3 454 453 328
3 452 453 454
3 456 455 329
3 457 330 458
3 60 331 173
3 60 275 331
3 81 459 460
3 81 461 463
3 461 333 462
3 461 462 463
3 81 334 333
3 80 335 174
3 80 332 335
3 61 336 276
3 82 337 177
3 82 338 337
3 42 339 234
3 83 340 180
3 83 341 340
3 83 342 341
3 84 343 182
3 84 344 343
3 50 345 252
3 85 346 185
3 85 347 346
3 44 348 239
3 86 349 188
3 86 350 349
3 86 351 350
3 87 352 190
3 87 353 352
3 87 464 466
3 466 465 353
3 464 465 466
3 468 467 243
3 54 354 260
3 469 355 470
3 471 470 194
3 469 470 471
3 473 472 355
3 88 89 22
3 90 89 88
3 90 23 89
3 91 92 24
3 93 92 91
3 93 26 92
3 94 95 27
3 96 95 94
3 96 29 95
3 474 32 475
3 476 97 477
3 478 477 32
3 476 477 478
3 479 97 480
3 481 34 482
3 483 482 97
3 481 482 483
3 484 36 485
3 486 98 487
3 488 487 36
3 486 487 488
3 489 98 490
3 491 38 492
3 493 492 98
3 491 492 493
3 99 100 41
3 101 100 99
3 101 43 100
3 102 103 45
3 104 103 102
3 104 47 103
3 105 494 495
3 497 496 105
3 106 498 499
3 106 500 502
3 500 48 501
3 500 501 502
3 107 108 49
3 109 108 107
3 109 51 108
3 110 111 25
3 112 111 110
3 112 52 111
3 112 503 505
3 505 504 52
3 503 504 505
3 507 506 112
3 113 114 53
3 115 114 113
3 115 55 114
3 116 117 28
3 118 117 116
3 118 56 117
3 118 119 56
3 120 119 118
3 120 57 119
3 121 122 46
3 123 122 121
3 123 58 122
3 124 125 30
3 126 125 124
3 126 59 125
3 126 127 59
3 508 127 509
3 510 509 126
3 508 509 510
3 512 511 127
3 128 129 60
3 130 129 128
3 130 62 129
3 131 132 31
3 133 132 131
3 133 63 132
3 133 134 63
3 135 134 133
3 135 64 134
3 136 513 515
3 513 137 514
3 513 514 515
3 138 137 136
3 138 65 137
3 138 139 65
3 140 139 138
3 140 66 139
3 140 141 66
3 142 141 140
3 142 67 141
3 143 144 33
3 145 144 143
3 145 68 144
3 145 146 68
3 147 146 145
3 147 69 146
3 148 516 517
3 148 518 519
3 148 520 522
3 520 149 521
3 520 521 522
3 150 149 148
3 150 70 149
3 151 152 35
3 153 152 151
3 153 71 152
3 153 154 71
3 155 154 153
3 155 72 154
3 155 156 72
3 157 156 155
3 157 73 156
3 158 159 37
3 160 159 158
3 160 74 159
3 160 161 74
3 162 161 160
3 162 75 161
3 523 163 524
3 164 525 527
3 525 163 526
3 525 526 527
3 164 76 163
3 165 166 39
3 167 166 165
3 167 77 166
3 167 168 77
3 169 168 167
3 169 78 168
3 169 170 78
3 171 170 169
3 171 79 170
3 529 528 40
3 172 530 531
3 172 532 533
3 172 534 536
3 534 173 535
3 534 535 536
3 128 173 172
3 128 60 173
3 537 81 538
3 539 174 540
3 541 540 81
3 539 540 541
3 175 542 544
3 542 174 543
3 542 543 544
3 175 80 174
3 176 177 61
3 178 177 176
3 178 82 177
3 179 180 42
3 181 180 179
3 181 83 180
3 181 182 83
3 183 182 181
3 183 84 182
3 184 185 50
3 186 185 184
3 186 85 185
3 187 188 44
3 189 188 187
3 189 86 188
3 189 190 86
3 191 190 189
3 191 87 190
3 191 545 547
3 547 546 87
3 545 546 547
3 192 548 550
3 550 549 191
3 548 549 550
3 192 551 552
3 193 194 54
3 553 194 554
3 555 554 193
3 553 554 555
3 557 556 194
3 195 196 4
3 558 196 559
3 560 559 195
3 558 559 560
3 562 561 196
3 197 563 564
3 198 565 567
3 567 566 197
3 565 566 567
3 198 568 569
3 89 198 22
3 199 198 89
3 199 570 572
3 572 571 198
3 570 571 572
3 199 573 575
3 573 105 574
3 573 574 575
3 200 105 199
3 200 6 105
3 201 202 7
3 203 202 201
3 203 25 202
3 92 203 24
3 204 203 92
3 204 25 203
3 204 110 25
3 205 110 204
3 205 576 578
3 578 577 110
3 576 577 578
3 206 207 9
3 208 207 206
3 208 28 207
3 95 208 27
3 209 208 95
3 209 28 208
3 209 116 28
3 210 116 209
3 210 10 116
3 579 211 580
3 581 580 5
3 579 580 581
3 582 211 583
3 584 30 585
3 586 585 211
3 584 585 586
3 587 30 588
3 589 124 590
3 591 590 30
3 589 590 591
3 592 124 593
3 594 11 595
3 596 595 124
3 594 595 596
3 598 597 11
3 599 212 600
3 601 600 12
3 599 600 601
3 602 212 603
3 604 31 605
3 606 605 212
3 604 605 606
3 607 31 608
3 609 131 610
3 611 610 31
3 609 610 611
3 612 131 613
3 614 14 615
3 616 615 131
3 614 615 616
3 213 617 618
3 213 619 620
3 213 621 623
3 621 136 622
3 621 622 623
3 214 136 213
3 214 15 136
3 214 215 15
3 216 215 214
3 216 33 215
3 97 216 32
3 217 216 97
3 217 33 216
3 217 143 33
3 218 143 217
3 218 16 143
3 624 219 625
3 220 626 628
3 626 219 627
3 626 627 628
3 220 35 219
3 629 220 630
3 221 631 633
3 631 220 632
3 631 632 633
3 221 35 220
3 221 151 35
3 222 151 221
3 222 17 151
3 222 223 17
3 224 223 222
3 224 37 223
3 98 224 36
3 225 224 98
3 225 37 224
3 225 158 37
3 226 158 225
3 226 18 158
3 634 227 635
3 228 636 638
3 636 227 637
3 636 637 638
3 228 39 227
3 639 228 640
3 229 641 643
3 641 228 642
3 641 642 643
3 229 39 228
3 229 165 39
3 230 165 229
3 230 19 165
3 230 231 19
3 232 231 230
3 232 40 231
3 644 232 645
3 646 232 647
3 648 40 649
3 650 649 232
3 648 649 650
3 652 651 40
3 653 12 654
3 233 234 13
3 235 234 233
3 235 42 234
3 100 235 41
3 236 235 100
3 236 42 235
3 236 179 42
3 237 179 236
3 237 20 179
3 238 239 8
3 240 239 238
3 240 44 239
3 655 240 656
3 241 657 659
3 657 240 658
3 657 658 659
3 241 44 240
3 241 187 44
3 242 187 241
3 242 21 187
3 242 243 21
3 660 243 661
3 662 661 242
3 660 661 662
3 664 663 243
3 244 245 2
3 246 245 244
3 246 46 245
3 103 246 45
3 247 246 103
3 247 46 246
3 247 121 46
3 248 121 247
3 248 5 121
3 196 104 4
3 249 104 196
3 249 47 104
3 665 249 666
3 667 249 668
3 669 47 670
3 671 670 249
3 669 670 671
3 672 248 673
3 674 673 47
3 672 673 674
3 675 248 676
3 677 5 678
3 679 678 248
3 677 678 679
3 681 680 5
3 250 682 683
3 250 684 685
3 251 252 3
3 253 252 251
3 253 50 252
3 108 253 49
3 254 253 108
3 254 50 253
3 254 184 50
3 255 184 254
3 255 8 184
3 202 109 7
3 256 109 202
3 256 51 109
3 111 256 25
3 257 256 111
3 257 51 256
3 257 255 51
3 258 255 257
3 258 8 255
3 258 238 8
3 686 238 687
3 688 687 258
3 686 687 688
3 690 689 238
3 692 691 52
3 259 260 1
3 261 260 259
3 261 54 260
3 114 261 53
3 262 261 114
3 262 54 261
3 262 193 54
3 263 193 262
3 263 693 695
3 695 694 193
3 693 694 695
3 207 115 9
3 264 115 207
3 264 55 115
3 117 264 28
3 265 264 117
3 265 55 264
3 265 263 55
3 266 263 265
3 266 696 698
3 698 697 263
3 696 697 698
3 266 699 700
3 702 701 266
3 119 703 705
3 705 704 56
3 703 704 705
3 707 706 119
3 245 96 2
3 267 96 245
3 267 29 96
3 122 267 46
3 268 267 122
3 268 29 267
3 268 210 29
3 269 210 268
3 269 10 210
3 211 123 5
3 270 123 211
3 270 58 123
3 125 270 30
3 271 270 125
3 271 58 270
3 271 269 58
3 272 269 271
3 272 10 269
3 272 120 10
3 273 120 272
3 273 57 120
3 127 273 59
3 274 273 127
3 274 57 273
3 274 708 710
3 710 709 57
3 708 709 710
3 712 711 274
3 714 713 11
3 275 276 0
3 277 276 275
3 277 61 276
3 129 277 60
3 278 277 129
3 278 61 277
3 278 176 61
3 279 176 278
3 279 13 176
3 212 130 12
3 280 130 212
3 280 62 130
3 132 280 31
3 281 280 132
3 281 62 280
3 281 279 62
3 282 279 281
3 282 13 279
3 282 233 13
3 283 233 282
3 283 41 233
3 134 283 63
3 284 283 134
3 284 41 283
3 284 99 41
3 285 99 284
3 285 3 99
3 715 14 716
3 137 717 718
3 720 719 137
3 721 14 722
3 723 135 724
3 725 724 14
3 723 724 725
3 286 726 728
3 726 135 727
3 726 727 728
3 286 64 135
3 139 286 65
3 287 286 139
3 287 64 286
3 287 285 64
3 288 285 287
3 288 3 285
3 288 251 3
3 289 251 288
3 289 49 251
3 141 289 66
3 290 289 141
3 290 49 289
3 290 107 49
3 291 107 290
3 291 7 107
3 215 142 15
3 292 142 215
3 292 67 142
3 144 292 33
3 293 292 144
3 293 67 292
3 293 291 67
3 294 291 293
3 294 7 291
3 294 201 7
3 295 201 294
3 295 24 201
3 146 295 68
3 296 295 146
3 296 24 295
3 296 91 24
3 297 91 296
3 297 1 91
3 729 34 730
3 149 731 732
3 298 733 735
3 735 734 149
3 733 734 735
3 298 736 738
3 736 34 737
3 736 737 738
3 298 218 34
3 299 218 298
3 299 16 218
3 219 739 741
3 739 150 740
3 739 740 741
3 300 150 219
3 300 70 150
3 152 300 35
3 301 300 152
3 301 70 300
3 301 299 70
3 302 299 301
3 302 16 299
3 302 147 16
3 303 147 302
3 303 69 147
3 154 303 71
3 304 303 154
3 304 69 303
3 304 297 69
3 305 297 304
3 305 1 297
3 305 259 1
3 306 259 305
3 306 53 259
3 156 306 72
3 307 306 156
3 307 53 306
3 307 113 53
3 308 113 307
3 308 9 113
3 223 157 17
3 309 157 223
3 309 73 157
3 159 309 37
3 310 309 159
3 310 73 309
3 310 308 73
3 311 308 310
3 311 9 308
3 311 206 9
3 312 206 311
3 312 27 206
3 161 312 74
3 313 312 161
3 313 27 312
3 313 94 27
3 314 94 313
3 314 2 94
3 315 742 743
3 315 744 746
3 744 38 745
3 744 745 746
3 163 747 749
3 747 315 748
3 747 748 749
3 316 315 163
3 316 38 315
3 316 226 38
3 317 226 316
3 317 18 226
3 227 750 752
3 750 164 751
3 750 751 752
3 318 164 227
3 318 76 164
3 166 318 39
3 319 318 166
3 319 76 318
3 319 317 76
3 320 317 319
3 320 18 317
3 320 162 18
3 321 162 320
3 321 75 162
3 168 321 77
3 322 321 168
3 322 75 321
3 322 314 75
3 323 314 322
3 323 2 314
3 323 244 2
3 324 244 323
3 324 45 244
3 170 324 78
3 325 324 170
3 325 45 324
3 325 102 45
3 326 102 325
3 326 4 102
3 231 171 19
3 327 171 231
3 327 79 171
3 753 327 754
3 755 754 40
3 753 754 755
3 328 756 758
3 756 327 757
3 756 757 758
3 328 79 327
3 328 326 79
3 329 326 328
3 329 4 326
3 329 195 4
3 759 195 760
3 761 760 329
3 759 760 761
3 763 762 195
3 764 175 765
3 330 766 768
3 766 175 767
3 766 767 768
3 330 80 175
3 173 769 771
3 769 330 770
3 769 770 771
3 331 330 173
3 331 80 330
3 331 332 80
3 275 332 331
3 275 0 332
3 333 772 773
3 333 774 775
3 333 776 778
3 776 197 777
3 776 777 778
3 334 197 333
3 334 22 197
3 174 334 81
3 335 334 174
3 335 22 334
3 335 88 22
3 332 88 335
3 332 0 88
3 276 90 0
3 336 90 276
3 336 23 90
3 177 336 61
3 337 336 177
3 337 23 336
3 337 200 23
3 338 200 337
3 338 6 200
3 234 178 13
3 339 178 234
3 339 82 178
3 180 339 42
3 340 339 180
3 340 82 339
3 340 338 82
3 341 338 340
3 341 6 338
3 341 106 6
3 342 106 341
3 342 48 106
3 182 342 83
3 343 342 182
3 343 48 342
3 343 250 48
3 344 250 343
3 344 779 781
3 781 780 250
3 779 780 781
3 252 101 3
3 345 101 252
3 345 43 101
3 185 345 50
3 346 345 185
3 346 43 345
3 346 237 43
3 347 237 346
3 347 20 237
3 239 186 8
3 348 186 239
3 348 85 186
3 188 348 44
3 349 348 188
3 349 85 348
3 349 347 85
3 350 347 349
3 350 20 347
3 350 183 20
3 351 183 350
3 351 84 183
3 190 351 86
3 352 351 190
3 352 84 351
3 352 344 84
3 353 344 352
3 353 782 784
3 784 783 344
3 782 783 784
3 353 785 786
3 788 787 353
3 790 789 87
3 243 192 21
3 791 192 792
3 793 792 243
3 791 792 793
3 795 794 192
3 260 93 1
3 354 93 260
3 354 26 93
3 194 354 54
3 355 354 194
3 355 26 354
3 355 205 26
3 796 205 797
3 798 797 355
3 796 797 798
3 800 799 205
