ply
format ascii 1.0
element vertex 484
property float x
property float y
property float z
element face 549
property list uchar int vertex_index
end_header
-38.54821 71.942123 -11.548656
-29.345049 75.217224 8.430552
-12.786459 85.963272 -13.172527
-25.331202 72.247284 18.817657
-3.839468 87.254578 -10.002209
-4.59244 81.961609 -22.825436
-42.081482 66.680679 -0.805864
-33.563477 75.587555 -2.007519
-26.274776 79.937592 -12.695824
-21.97467 82.212433 -2.672215
-38.094154 68.501068 9.777433
-16.539009 79.116287 -21.887619
-40.72319 69.78949 -6.426493
-31.348843 75.7659 3.183813
-27.971775 78.902847 -2.53882
-25.95545 78.910904 2.809823
-32.188038 71.124878 14.08439
-36.492947 67.990753 14.899585
-34.132481 72.165207 9.056622
-36.075008 72.364182 3.833848
-19.321136 83.177872 -13.208656
-21.549538 80.398224 -17.445999
-14.451715 83.260864 -18.195358
-1.804882 76.73317 -26.795479
-27.378868 74.022812 13.647836
-24.211105 78.371033 8.396294
-22.57547 77.194748 14.146252
-7.444126 87.602966 -12.149429
-8.33 85.11441 -18.184132
-3.967037 85.235214 -16.929722
-1.470705 80.622925 -21.207863
-42.99609 62.817432 5.027771
-36.021164 74.418793 -6.996656
-32.866352 76.29567 -12.086287
-30.323353 78.181503 -7.552744
-23.931526 81.514999 -8.002705
-17.490376 84.781891 -7.988592
-20.44178 82.340637 3.152995
-16.164055 85.624069 -2.024689
-11.671747 87.604385 -7.131792
-39.863743 68.061081 4.446878
-38.267921 71.621796 -1.413443
-28.741987 76.934387 -16.564514
-23.869219 76.00032 -20.513866
-18.759426 73.381241 -24.179943
-9.818621 81.29451 -22.917046
-39.757004 71.001083 -9.06834
-41.962147 68.444626 -8.736225
-30.329901 75.574005 5.807246
-28.701609 77.322556 2.933846
-27.723621 77.107742 5.608519
-30.828945 73.227921 11.260568
-33.180122 71.745499 11.600941
-31.817278 73.721207 8.702879
-32.805561 74.030457 6.112
-15.950333 84.658081 -13.290766
-16.89053 83.454315 -15.729008
-13.552179 84.767838 -15.833336
-26.364517 73.197617 16.239447
-24.953835 75.568558 13.754816
-24.034365 74.742371 16.492809
-28.744905 71.731125 16.264519
-5.406023 87.713623 -11.208435
-5.588692 86.719986 -14.584372
-3.860714 86.388306 -13.561659
-0.555134 77.639404 -23.075428
-42.568233 64.831818 2.101405
-43.769424 63.927128 -0.432486
-34.768089 75.149292 -4.53927
-33.289139 76.389587 -7.273792
-32.043655 76.96907 -4.826382
-24.984402 80.530014 -2.681458
-26.033253 80.292648 -5.305302
-22.896294 81.944656 -5.407232
-20.672699 83.15979 -8.079908
-19.782854 83.625244 -5.349087
-21.663216 80.084839 8.739138
-22.399851 80.414291 5.76923
-13.469749 87.149094 -1.335098
-13.917871 86.822479 -4.586248
-11.287268 88.096466 -3.834021
-9.171171 88.5457 -6.320778
-37.302677 68.365417 12.377981
-39.012711 66.329117 12.714499
-39.727898 66.290405 10.079214
-40.534515 66.022018 7.404638
-38.931141 68.398926 7.122625
-34.898647 74.052643 0.886789
-37.13203 72.119888 1.199094
-36.040054 73.722137 -1.70706
-37.245827 73.121902 -4.254301
-29.658247 78.185562 -12.383175
-30.91917 76.793488 -14.402124
-27.514166 78.644104 -14.745682
-19.046463 79.993408 -19.700211
-22.718832 78.414185 -19.130569
-20.182251 77.649734 -21.193764
-21.304775 74.896332 -22.367092
-17.650494 76.435562 -23.19746
-6.349079 83.822922 -20.568985
-9.000135 83.388931 -20.739388
-6.968695 81.856598 -23.050148
-2.734688 86.222351 -8.57766
-2.63413 85.491699 -12.268387
-41.483261 68.340652 -3.660088
-43.31414 65.644989 -3.289547
-42.727375 67.160019 -6.070473
-32.423031 75.779572 0.573436
-30.85643 77.28392 -2.297367
-29.742022 77.388351 0.294341
-26.921129 78.977509 0.100297
-24.037416 80.622208 0.04731
-33.435131 68.901505 16.890661
-34.436531 69.632919 14.48234
-35.353897 70.153748 11.993704
-36.233433 70.449692 9.429624
-37.127079 70.514999 6.807064
-35.084652 72.374512 6.461324
-33.82457 74.146515 3.500561
-22.796949 81.595764 -12.989065
-23.978292 80.362137 -15.115414
-20.402431 81.968811 -15.465078
-17.935179 81.918121 -17.874786
-15.459559 81.389496 -20.220814
-3.0788 79.575851 -24.913441
-5.159372 79.786865 -25.21719
-3.591421 77.231735 -27.19939
-28.368742 74.699326 11.045097
-26.787436 76.748001 8.307953
-25.869984 76.237259 11.024853
-23.387682 77.871048 11.254923
-31.125147 70.321335 16.507805
-29.811277 72.559097 13.780149
-9.924095 86.98494 -12.802464
-10.494799 85.821411 -15.7085
-7.815004 86.506683 -15.301279
-5.89344 85.433273 -17.726124
-4.200363 83.769547 -20.041313
-2.572451 84.485382 -15.811928
-2.597355 83.181793 -19.149155
-2.754183 81.553955 -22.208153
-1.548985 78.85202 -24.190502
-0.55839 75.744156 -25.957634
-37.29435 73.356567 -9.346811
-35.840736 74.222504 -11.814453
-34.566582 75.488815 -9.614195
-31.587093 77.416016 -9.892088
-28.397707 79.189072 -10.176632
-29.109858 78.655212 -5.094921
-27.178141 79.867142 -7.809702
-25.067308 80.869949 -10.439726
-21.683685 82.503708 -10.634926
-18.342806 84.09407 -10.706007
-15.139723 85.591324 -10.596264
-25.059616 78.711731 5.578476
-23.182844 80.585922 2.868203
-21.162632 82.344696 0.186112
-18.353315 84.101044 0.554413
-19.014954 83.936417 -2.464525
-16.768501 85.286041 -5.086092
-14.465956 86.303818 -7.683193
-12.162998 86.8974 -10.257421
-9.491465 87.885925 -9.657299
-7.190529 88.430954 -8.785397
-5.306299 88.435059 -7.655304
-3.858385 87.850616 -6.303223
-42.003021 63.422787 7.668139
-41.478409 65.533157 4.730352
-40.916641 67.488083 1.789378
-38.080952 70.344955 4.152116
-39.125095 69.931793 1.497
-40.266155 69.265823 -1.121225
-39.474831 70.84935 -3.969131
-38.496658 72.220978 -6.721823
-34.121422 74.777328 -14.103172
-32.139221 74.978256 -16.205734
-29.918455 74.790039 -18.134304
-25.184669 78.735931 -16.988743
-26.372671 76.678162 -18.591518
-24.969143 73.185196 -21.6129
-22.386599 71.784943 -23.257809
-11.213573 84.357498 -18.323318
-12.07218 82.54776 -20.598133
-13.046228 80.353912 -22.497398
-7.747883 79.511597 -25.121265
-10.763191 78.810837 -24.68721
-14.101189 77.760651 -24.008568
-37.809314 72.257416 -12.692062
-39.141208 71.062469 -12.552161
-39.762242 70.70375 -11.396745
-40.366639 70.23323 -10.156588
-39.152607 71.471603 -10.308498
-39.141208 71.062469 -12.552161
-39.762242 70.70375 -11.396745
-26.478997 71.511238 18.768812
-25.901643 70.993789 19.982056
-25.847859 72.72245 17.528552
-26.995654 71.986404 17.479707
-26.478997 71.511238 18.768812
-20.72437 81.131684 7.476852
-20.415211 80.955253 9.048338
-12.22248 87.757149 -0.865161
-13.278976 87.206971 0.355423
-11.131239 88.230835 -2.114622
-12.378508 87.62278 -2.58456
-12.22248 87.757149 -0.865161
-10.107498 88.531731 -3.333099
-11.131239 88.230835 -2.114622
-2.29737 85.145454 -9.670096
-2.385452 85.445381 -7.786407
-42.943159 67.093796 -8.5164
-42.542242 67.641007 -9.789466
-21.763547 78.38221 12.956639
-22.169653 78.72036 11.510974
-22.981576 77.532898 12.700588
-30.551044 69.844971 17.694332
-31.722447 69.155723 17.867044
-2.124205 83.846123 -15.117057
-2.60329 84.98854 -14.040157
-2.155044 84.349281 -13.345287
-2.03403 81.902359 -20.178509
-2.063359 82.62397 -18.537537
-1.500034 81.344536 -19.566891
-0.182497 75.03003 -25.341923
-0.556762 76.69178 -24.516531
-0.180869 75.977654 -23.90082
-0.151861 74.027779 -26.720676
-0.182497 75.03003 -25.341923
-43.739107 61.401775 5.197593
-43.203715 61.741504 6.482774
-44.159805 64.239485 -3.053123
-43.925785 65.021301 -4.448009
-17.258685 84.862557 -0.735138
-17.002018 84.944344 0.86377
-15.907388 85.705856 -0.425781
-7.103859 88.717277 -7.021366
-8.18085 88.488327 -7.553088
-8.09418 88.774651 -5.789057
-6.161744 88.71933 -6.45632
-6.248414 88.433007 -8.220351
-7.103859 88.717277 -7.021366
-3.867539 88.016388 -4.402063
-4.552858 88.371696 -5.136195
-3.344619 87.27034 -5.542568
-3.867539 88.016388 -4.402063
-37.029016 66.839119 16.325578
-36.047277 67.687187 16.114616
-41.593177 63.628811 9.002329
-42.266786 62.304104 9.117352
-25.687707 75.096504 -20.217537
-26.939433 75.435425 -19.256363
-25.120945 76.339241 -19.552692
-24.419181 74.592758 -21.063383
-26.237669 73.688942 -20.767053
-25.687707 75.096504 -20.217537
-19.300303 71.702309 -24.535698
-21.113889 70.904159 -24.074631
-20.573013 72.583092 -23.718876
-6.823837 78.374 -26.146492
-6.453627 79.649231 -25.169227
-5.529582 78.511634 -26.194454
-11.282512 77.377724 -25.368021
-9.715125 77.798371 -25.723678
-12.951511 76.852631 -25.0287
-12.43219 78.285744 -24.347889
-11.282512 77.377724 -25.368021
-14.650671 76.273598 -24.5784
-12.951511 76.852631 -25.0287
-41.46921 68.955002 -9.99053
-40.859576 69.722854 -8.902282
-40.366639 70.23323 -10.156588
-42.542242 67.641007 -9.789466
-41.46921 68.955002 -9.99053
-2.034394 75.496003 -27.876396
-1.277432 75.122101 -27.617424
-28.185848 71.253159 17.492243
-29.360923 70.549866 17.572689
-27.554711 72.464371 16.251983
-28.185848 71.253159 17.492243
-26.995654 71.986404 17.479707
-1.08271 79.916909 -20.540529
-1.500034 81.344536 -19.566891
-0.624924 78.425148 -21.474312
-1.012919 79.131164 -22.141645
-1.08271 79.916909 -20.540529
-0.286541 76.822823 -22.351582
-0.624924 78.425148 -21.474312
-0.180869 75.977654 -23.90082
-0.286541 76.822823 -22.351582
-43.355611 63.431792 2.283127
-43.56954 62.424599 3.746311
-42.782162 63.824625 3.564588
-43.956207 62.979447 1.016182
-43.355611 63.431792 2.283127
-43.168829 64.379473 0.83446
-44.571314 62.503479 -0.199575
-43.956207 62.979447 1.016182
-21.092688 81.29641 5.991898
-22.031534 80.249565 7.254184
-20.72437 81.131684 7.476852
-20.113652 82.259582 4.683781
-21.420816 81.377464 4.461113
-21.092688 81.29641 5.991898
-14.560235 86.468368 -0.080985
-13.278976 87.206971 0.355423
-14.816902 86.386582 -1.679893
-15.907388 85.705856 -0.425781
-14.560235 86.468368 -0.080985
-9.049449 88.756348 -4.576477
-10.229219 88.321083 -5.0774
-10.107498 88.531731 -3.333099
-8.09418 88.774651 -5.789057
-9.049449 88.756348 -4.576477
-37.810442 67.247291 13.828383
-37.405577 67.059959 15.089185
-36.897812 68.178085 13.638783
-38.665459 66.229141 13.996642
-37.810442 67.247291 13.828383
-38.157694 67.347267 12.54624
-39.459668 65.174187 14.150859
-38.665459 66.229141 13.996642
-39.760002 65.184028 12.85156
-39.459668 65.174187 14.150859
-40.117596 65.164672 11.533917
-39.760002 65.184028 12.85156
-39.370305 66.309761 11.396857
-40.455616 65.06262 10.207866
-40.117596 65.164672 11.533917
-40.131207 66.156212 8.741926
-40.858925 64.928427 8.870579
-40.455616 65.06262 10.207866
-24.227564 73.009186 19.021544
-24.816559 71.729126 20.091651
-24.816559 71.729126 20.091651
-25.901643 70.993789 19.982056
-2.247091 84.780128 -11.51546
-2.684409 85.857025 -10.423023
-2.29737 85.145454 -9.670096
-2.155044 84.349281 -13.345287
-2.247091 84.780128 -11.51546
-43.632402 65.778817 -5.838471
-43.925785 65.021301 -4.448009
-43.020758 66.402504 -4.68001
-43.325773 66.451493 -7.183524
-42.344761 67.802323 -7.403349
-42.943159 67.093796 -8.5164
-43.632402 65.778817 -5.838471
-43.325773 66.451493 -7.183524
-34.518369 68.142563 17.110154
-34.007288 67.733964 18.280146
-35.01907 68.50827 15.905994
-34.518369 68.142563 17.110154
-33.935831 69.267212 15.686501
-35.464739 68.811836 14.690963
-36.047277 67.687187 16.114616
-35.01907 68.50827 15.905994
-4.745607 77.23407 -27.185555
-5.529582 78.511634 -26.194454
-4.375396 78.5093 -26.20829
-2.927663 75.745285 -28.078352
-2.698151 76.982452 -26.997435
-2.034394 75.496003 -27.876396
-3.942727 75.878365 -28.11224
-2.927663 75.745285 -28.078352
-4.745607 77.23407 -27.185555
-3.942727 75.878365 -28.11224
-21.30742 79.827256 10.253082
-22.525449 78.977944 9.997031
-22.169653 78.72036 11.510974
-20.415211 80.955253 9.048338
-21.30742 79.827256 10.253082
-23.579146 74.25673 17.85912
-24.682783 73.494827 17.655233
-24.227564 73.009186 19.021544
-22.90473 75.537705 16.77541
-23.579146 74.25673 17.85912
-22.175283 76.763893 15.602132
-23.304918 75.968559 15.319531
-22.90473 75.537705 16.77541
-21.415242 78.019562 14.493195
-22.175283 76.763893 15.602132
-21.763547 78.38221 12.956639
-21.415242 78.019562 14.493195
-32.877439 68.445808 18.058472
-34.007288 67.733964 18.280146
-32.280139 69.61142 16.699233
-32.877439 68.445808 18.058472
-31.722447 69.155723 17.867044
-29.935026 71.02623 16.386162
-30.551044 69.844971 17.694332
-29.360923 70.549866 17.572689
-2.050906 83.275765 -16.868924
-2.124205 83.846123 -15.117057
-2.584903 83.833587 -17.480542
-2.050906 83.275765 -16.868924
-2.063359 82.62397 -18.537537
-0.654186 74.627594 -27.198501
-1.277432 75.122101 -27.617424
-1.181636 76.238663 -26.376556
-0.654186 74.627594 -27.198501
-0.151861 74.027779 -26.720676
-43.739107 61.401775 5.197593
-43.56954 62.424599 3.746311
-44.387447 63.380555 -1.624592
-43.541782 64.786058 -1.861017
-44.159805 64.239485 -3.053123
-44.571314 62.503479 -0.199575
-44.387447 63.380555 -1.624592
-19.106471 83.221604 3.421704
-20.113652 82.259582 4.683781
-18.062238 84.101807 2.122413
-17.002018 84.944344 0.86377
-19.397548 83.220841 1.853704
-19.106471 83.221604 3.421704
-18.062238 84.101807 2.122413
-5.276815 88.663917 -5.812235
-6.161744 88.71933 -6.45632
-4.582342 88.142837 -6.979264
-5.276815 88.663917 -5.812235
-4.552858 88.371696 -5.136195
-2.78277 86.456207 -6.679787
-3.296537 87.036484 -7.440442
-3.344619 87.27034 -5.542568
-2.385452 85.445381 -7.786407
-2.78277 86.456207 -6.679787
-37.029016 66.839119 16.325578
-37.405577 67.059959 15.089185
-42.70718 62.044182 7.802958
-42.266786 62.304104 9.117352
-42.499555 63.120109 6.347955
-43.203715 61.741504 6.482774
-42.70718 62.044182 7.802958
-41.268768 64.722403 7.536389
-41.593177 63.628811 9.002329
-40.858925 64.928427 8.870579
-36.455578 73.397606 -12.82496
-37.809314 72.257416 -12.692062
-37.194473 73.082313 -11.681555
-35.595921 73.675018 -13.96932
-36.455578 73.397606 -12.82496
-34.981079 74.499916 -12.958813
-34.716698 73.81459 -15.006353
-35.595921 73.675018 -13.96932
-33.725597 73.915054 -16.057634
-34.716698 73.81459 -15.006353
-33.130322 74.877792 -15.154453
-32.710465 73.862251 -16.989059
-33.725597 73.915054 -16.057634
-31.600082 73.768142 -17.953345
-32.710465 73.862251 -16.989059
-31.028838 74.884147 -17.170019
-30.465493 73.514076 -18.792711
-31.600082 73.768142 -17.953345
-28.712325 74.491364 -19.027755
-28.145563 75.7341 -18.362911
-26.939433 75.435425 -19.256363
-30.465493 73.514076 -18.792711
-28.712325 74.491364 -19.027755
-26.764807 72.257096 -21.304325
-26.237669 73.688942 -20.767053
-25.484243 71.612015 -22.040644
-26.764807 72.257096 -21.304325
-24.192971 70.911889 -22.863098
-25.484243 71.612015 -22.040644
-23.677871 72.48507 -22.435355
-22.89944 70.09301 -23.592467
-24.192971 70.911889 -22.863098
-22.89944 70.09301 -23.592467
-21.113889 70.904159 -24.074631
-8.207471 78.148751 -25.940706
-6.823837 78.374 -26.146492
-9.255537 79.161217 -24.904238
-8.207471 78.148751 -25.940706
-9.715125 77.798371 -25.723678
-16.425323 75.611053 -24.172846
-15.875841 77.098107 -23.603014
-14.650671 76.273598 -24.5784
-16.97979 74.083893 -24.664088
-18.20496 74.908401 -23.688702
-16.425323 75.611053 -24.172846
-17.535095 72.433411 -25.071337
-16.97979 74.083893 -24.664088
-19.300303 71.702309 -24.535698
-17.535095 72.433411 -25.071337
3 0 187 188
3 0 189 191
3 191 190 46
3 189 190 191
3 0 192 193
3 1 50 48
3 1 53 51
3 1 48 53
3 2 57 55
3 3 60 58
3 3 194 195
3 3 196 198
3 196 58 197
3 196 197 198
3 4 64 62
3 6 67 66
3 7 70 68
3 9 73 71
3 9 75 73
3 200 199 76
3 201 78 202
3 203 80 204
3 205 204 78
3 203 204 205
3 207 206 80
3 10 83 82
3 10 84 83
3 10 86 84
3 7 89 87
3 7 68 89
3 8 93 91
3 11 96 94
3 11 98 96
3 5 101 99
3 209 208 102
3 12 106 104
3 211 210 47
3 13 109 107
3 15 110 49
3 15 111 110
3 16 113 112
3 18 114 52
3 18 115 114
3 18 117 115
3 13 118 54
3 13 107 118
3 20 121 119
3 22 122 56
3 22 123 122
3 23 126 124
3 24 129 127
3 26 130 59
3 26 212 214
3 214 213 130
3 212 213 214
3 215 131 216
3 24 132 61
3 24 127 132
3 27 135 133
3 29 136 63
3 29 137 136
3 217 138 218
3 219 218 103
3 217 218 219
3 30 220 222
3 220 139 221
3 220 221 222
3 30 140 139
3 30 141 140
3 223 142 224
3 225 224 65
3 223 224 225
3 227 226 142
3 31 228 229
3 231 230 105
3 32 145 143
3 34 146 69
3 34 147 146
3 14 148 108
3 35 149 72
3 35 150 149
3 35 151 150
3 36 152 74
3 36 153 152
3 25 154 128
3 37 155 77
3 37 156 155
3 38 232 234
3 232 157 233
3 232 233 234
3 38 158 157
3 38 159 158
3 39 160 79
3 39 161 160
3 39 162 161
3 235 163 236
3 237 236 81
3 235 236 237
3 238 164 239
3 240 239 163
3 238 239 240
3 241 165 242
3 244 243 165
3 17 245 246
3 247 166 248
3 40 167 85
3 40 168 167
3 19 169 116
3 41 170 88
3 41 171 170
3 41 172 171
3 32 173 90
3 32 143 173
3 33 174 144
3 42 175 92
3 42 176 175
3 21 177 120
3 43 178 95
3 43 249 251
3 251 250 178
3 249 250 251
3 43 252 254
3 252 179 253
3 252 253 254
3 44 180 97
3 44 255 257
3 257 256 180
3 255 256 257
3 28 181 134
3 45 182 100
3 45 183 182
3 258 184 259
3 260 259 125
3 258 259 260
3 261 185 262
3 263 186 264
3 265 264 185
3 263 264 265
3 267 266 186
3 46 47 12
3 268 47 269
3 270 269 46
3 268 269 270
3 272 271 47
3 48 49 13
3 50 49 48
3 50 15 49
3 51 52 16
3 53 52 51
3 53 18 52
3 53 54 18
3 48 54 53
3 48 13 54
3 55 56 20
3 57 56 55
3 57 22 56
3 274 273 23
3 58 59 24
3 60 59 58
3 60 26 59
3 275 61 276
3 58 277 279
3 277 61 278
3 277 278 279
3 58 24 61
3 62 63 27
3 64 63 62
3 64 29 63
3 280 30 281
3 282 65 283
3 284 283 30
3 282 283 284
3 285 65 286
3 288 287 65
3 66 289 291
3 291 290 31
3 289 290 291
3 67 292 294
3 294 293 66
3 292 293 294
3 67 295 296
3 68 69 32
3 70 69 68
3 70 34 69
3 71 72 14
3 73 72 71
3 73 35 72
3 73 74 35
3 75 74 73
3 75 36 74
3 76 77 25
3 297 77 298
3 299 298 76
3 297 298 299
3 300 37 301
3 302 301 77
3 300 301 302
3 78 303 304
3 78 305 307
3 305 38 306
3 305 306 307
3 78 79 38
3 80 79 78
3 80 39 79
3 80 81 39
3 308 81 309
3 310 309 80
3 308 309 310
3 312 311 81
3 82 313 315
3 315 314 17
3 313 314 315
3 83 316 318
3 318 317 82
3 316 317 318
3 83 319 320
3 83 321 322
3 84 323 325
3 325 324 83
3 323 324 325
3 84 326 327
3 84 328 330
3 328 85 329
3 328 329 330
3 86 85 84
3 86 40 85
3 87 88 19
3 89 88 87
3 89 41 88
3 89 90 41
3 68 90 89
3 68 32 90
3 91 92 33
3 93 92 91
3 93 42 92
3 94 95 21
3 96 95 94
3 96 43 95
3 96 97 43
3 98 97 96
3 98 44 97
3 99 100 28
3 101 100 99
3 101 45 100
3 332 331 3
3 333 3 334
3 102 103 4
3 335 103 336
3 337 336 102
3 335 336 337
3 339 338 103
3 104 105 6
3 106 105 104
3 106 340 342
3 342 341 105
3 340 341 342
3 47 106 12
3 343 106 344
3 345 344 47
3 343 344 345
3 347 346 106
3 107 108 7
3 109 108 107
3 109 14 108
3 49 109 13
3 110 109 49
3 110 14 109
3 110 71 14
3 111 71 110
3 111 9 71
3 112 348 349
3 113 350 352
3 352 351 112
3 350 351 352
3 113 353 355
3 353 17 354
3 353 354 355
3 52 113 16
3 114 113 52
3 114 17 113
3 114 82 17
3 115 82 114
3 115 10 82
3 115 116 10
3 117 116 115
3 117 19 116
3 54 117 18
3 118 117 54
3 118 19 117
3 118 87 19
3 107 87 118
3 107 7 87
3 119 120 8
3 121 120 119
3 121 21 120
3 56 121 20
3 122 121 56
3 122 21 121
3 122 94 21
3 123 94 122
3 123 11 94
3 124 125 5
3 126 125 124
3 126 356 358
3 358 357 125
3 356 357 358
3 359 126 360
3 361 360 23
3 359 360 361
3 362 126 363
3 365 364 126
3 127 128 1
3 129 128 127
3 129 25 128
3 59 129 24
3 130 129 59
3 130 25 129
3 130 76 25
3 366 76 367
3 368 367 130
3 366 367 368
3 370 369 76
3 371 60 372
3 373 372 3
3 371 372 373
3 374 60 375
3 376 26 377
3 378 377 60
3 376 377 378
3 379 26 380
3 382 381 26
3 383 112 384
3 131 385 387
3 385 112 386
3 385 386 387
3 131 16 112
3 61 388 390
3 388 131 389
3 388 389 390
3 132 131 61
3 132 16 131
3 132 51 16
3 127 51 132
3 127 1 51
3 133 134 2
3 135 134 133
3 135 28 134
3 63 135 27
3 136 135 63
3 136 28 135
3 136 99 28
3 137 99 136
3 137 5 99
3 103 64 4
3 138 64 103
3 138 29 64
3 391 138 392
3 139 393 395
3 393 138 394
3 393 394 395
3 139 29 138
3 139 137 29
3 140 137 139
3 140 5 137
3 140 124 5
3 141 124 140
3 141 23 124
3 65 141 30
3 142 141 65
3 142 23 141
3 142 396 398
3 398 397 23
3 396 397 398
3 400 399 142
3 402 401 31
3 105 67 6
3 403 67 404
3 405 404 105
3 403 404 405
3 407 406 67
3 143 144 0
3 145 144 143
3 145 33 144
3 69 145 32
3 146 145 69
3 146 33 145
3 146 91 33
3 147 91 146
3 147 8 91
3 108 70 7
3 148 70 108
3 148 34 70
3 72 148 14
3 149 148 72
3 149 34 148
3 149 147 34
3 150 147 149
3 150 8 147
3 150 119 8
3 151 119 150
3 151 20 119
3 74 151 35
3 152 151 74
3 152 20 151
3 152 55 20
3 153 55 152
3 153 2 55
3 128 50 1
3 154 50 128
3 154 15 50
3 77 154 25
3 155 154 77
3 155 15 154
3 155 111 15
3 156 111 155
3 156 9 111
3 408 37 409
3 157 410 411
3 157 412 414
3 412 37 413
3 412 413 414
3 157 156 37
3 158 156 157
3 158 9 156
3 158 75 9
3 159 75 158
3 159 36 75
3 79 159 38
3 160 159 79
3 160 36 159
3 160 153 36
3 161 153 160
3 161 2 153
3 161 133 2
3 162 133 161
3 162 27 133
3 81 162 39
3 163 162 81
3 163 27 162
3 163 62 27
3 164 62 163
3 164 4 62
3 415 164 416
3 165 417 419
3 417 164 418
3 417 418 419
3 165 4 164
3 165 102 4
3 420 102 421
3 422 421 165
3 420 421 422
3 424 423 102
3 426 425 17
3 166 427 428
3 166 429 431
3 429 31 430
3 429 430 431
3 85 432 434
3 432 166 433
3 432 433 434
3 167 166 85
3 167 31 166
3 167 66 31
3 168 66 167
3 168 6 66
3 116 86 10
3 169 86 116
3 169 40 86
3 88 169 19
3 170 169 88
3 170 40 169
3 170 168 40
3 171 168 170
3 171 6 168
3 171 104 6
3 172 104 171
3 172 12 104
3 90 172 41
3 173 172 90
3 173 12 172
3 173 46 12
3 143 46 173
3 143 0 46
3 144 435 437
3 437 436 0
3 435 436 437
3 174 438 440
3 440 439 144
3 438 439 440
3 174 441 442
3 92 174 33
3 175 174 92
3 175 443 445
3 445 444 174
3 443 444 445
3 175 446 447
3 176 448 450
3 450 449 175
3 448 449 450
3 176 451 452
3 120 93 8
3 177 93 120
3 177 42 93
3 95 177 21
3 178 177 95
3 178 42 177
3 178 176 42
3 453 176 454
3 455 454 178
3 453 454 455
3 457 456 176
3 179 458 459
3 179 460 461
3 97 179 43
3 180 179 97
3 180 462 464
3 464 463 179
3 462 463 464
3 180 465 466
3 468 467 180
3 134 57 2
3 181 57 134
3 181 22 57
3 100 181 28
3 182 181 100
3 182 22 181
3 182 123 22
3 183 123 182
3 183 11 123
3 125 101 5
3 184 101 125
3 184 45 101
3 469 184 470
3 185 471 473
3 471 184 472
3 471 472 473
3 185 45 184
3 185 183 45
3 186 183 185
3 186 11 183
3 186 98 11
3 474 98 475
3 476 475 186
3 474 475 476
3 477 44 478
3 479 478 98
3 477 478 479
3 480 44 481
3 483 482 44
