ply
format ascii 1.0
element vertex 876
property float x
property float y
property float z
element face 948
property list uchar int vertex_index
end_header
7.276403 -39.232185 87.989426
37.243225 -24.777103 66.05764
58.054901 -6.176364 38.924961
52.091652 -19.008293 56.872948
0.533854 -45.019615 78.97171
0.329411 -39.221603 89.858299
0.579529 -47.316475 87.757957
54.099701 -13.066685 47.26701
46.452023 -14.676192 52.602982
32.360081 -32.076004 73.212608
41.651611 -29.761972 69.822632
22.424137 -32.624474 76.771568
16.384811 -38.399025 83.443306
12.976614 -32.602272 81.969574
40.808754 -16.210903 59.916786
29.922634 -25.976713 71.371696
65.229988 -6.698997 33.957001
44.519409 -21.862654 61.553848
68.987556 -2.326021 25.565765
-1.419146 -41.100468 82.19104
-1.673006 -38.345165 88.353355
-0.048866 -43.291653 89.421875
-1.300272 -42.494034 86.483322
0.05167 -46.411976 83.857628
48.481895 -11.004391 48.84996
45.492466 -11.511497 52.760834
29.330784 -35.074776 76.705811
21.515581 -29.518311 76.319527
17.581911 -32.681232 79.138184
17.070717 -29.331982 79.40126
25.944431 -26.069271 74.425255
26.060244 -29.505713 73.664604
11.681091 -38.806812 85.741203
61.710403 -6.153815 36.267662
63.219818 -9.549216 38.402786
59.599289 -9.421154 40.547737
52.99865 -16.057346 52.064995
56.680897 -15.455918 49.723038
39.034752 -20.555462 62.888962
41.92025 -19.441851 59.774475
40.813141 -23.475561 63.753265
57.533897 -2.531191 39.055077
60.712139 -2.455576 35.372002
64.079971 -2.947977 32.227051
69.844948 -1.085993 21.697767
3.39744 -39.459644 89.596306
5.741959 -43.015503 89.964981
2.365828 -43.419659 90.572456
54.560383 -6.558615 42.07605
55.759415 -9.772485 42.852219
51.972431 -10.378533 45.560928
50.155891 -13.840148 49.710983
49.081669 -17.02603 54.428528
35.03772 -28.657616 69.518356
39.346733 -27.46789 67.772949
37.178192 -31.211039 71.629646
24.238029 -35.313622 78.390625
19.188843 -35.494217 80.270432
14.301031 -35.69104 82.516678
9.697006 -35.835228 85.070488
12.848686 -28.823334 82.721664
8.727449 -32.242161 84.991203
5.534178 -35.755024 87.510277
2.014812 -35.22963 89.116127
43.104195 -11.910221 57.156342
33.667934 -25.593773 68.581589
30.592945 -29.277893 71.428734
27.389969 -32.467865 74.850685
57.951881 -12.546091 45.072647
43.29715 -15.474652 56.030495
45.287613 -18.206722 56.962059
48.347851 -20.268467 59.305489
43.477024 -25.765564 65.956062
47.361847 -23.895676 63.811035
66.266815 -0.075745 28.353424
67.284409 -4.212481 29.667625
-1.646086 -40.444641 87.532669
-2.019556 -39.798965 85.792397
-1.490644 -41.860363 84.468704
46.939869 -9.489521 51.350861
19.272837 -29.455557 77.812523
23.690083 -27.835394 75.257385
9.429066 -39.028198 86.901794
8.45997 -40.797413 88.176071
59.877197 -6.105158 37.543381
60.602875 -7.794695 38.375408
58.720901 -7.847017 39.558609
52.550934 -17.512667 54.499252
54.377048 -17.123177 53.271843
53.841446 -18.572556 55.564995
38.17387 -22.696136 64.443199
39.744129 -22.115053 63.067017
39.017708 -24.181576 64.883698
57.667648 -4.396601 38.752075
59.088177 -2.43931 37.147926
59.367825 -4.316869 37.113777
61.118229 -4.350797 35.606266
1.570671 -46.89933 77.344696
1.743849 -39.41362 89.932739
2.747295 -41.407906 90.255859
1.236917 -41.408066 90.251717
0.174103 -45.315269 88.732544
1.055355 -45.482201 89.85891
1.275251 -47.533016 89.145103
1.076515 -49.293091 86.536133
0.181921 -45.76292 81.499596
0.862574 -48.297455 82.356346
1.119276 -47.634338 79.919403
52.924873 -6.803998 43.867783
53.184967 -8.507596 43.74263
51.465488 -8.791595 45.416981
47.346199 -12.87257 50.635643
49.100342 -12.521448 49.018333
48.252373 -14.258938 51.092056
49.543869 -15.450846 52.018539
47.615788 -15.938371 53.322868
33.751923 -30.426067 71.354355
36.081745 -29.981159 70.547829
34.799797 -31.715652 72.430641
54.484238 -4.760957 42.440529
23.265629 -34.005203 77.539459
21.700129 -35.402733 79.292023
20.753967 -34.076252 78.515686
15.242311 -32.666195 80.504395
15.858736 -34.192505 80.798576
13.503807 -34.222866 82.106544
11.954687 -35.778481 83.772316
11.231539 -34.213116 83.493111
6.776217 -31.898872 86.38961
7.005733 -33.981144 86.258255
5.092426 -33.707691 87.462578
3.679726 -35.561081 88.466164
30.057627 -24.148506 72.119736
31.815758 -24.027348 70.497749
33.485046 -23.83465 68.911827
31.823824 -25.830147 69.942795
32.162319 -27.50206 69.925568
30.091436 -27.692707 71.126503
24.197025 -31.108351 75.130348
26.592993 -31.044586 74.058426
24.898573 -32.562931 75.76368
25.801462 -33.919346 76.65036
18.799332 -38.235703 82.367119
62.303978 -11.0225 40.650978
54.846786 -11.463203 44.998749
56.801228 -11.191536 43.864285
56.055603 -12.76075 46.153305
41.865334 -14.050834 58.503204
42.98933 -13.782253 56.365807
41.974495 -15.850835 57.927589
43.091221 -20.738636 60.481239
43.539734 -18.828226 58.329704
44.895638 -20.005196 59.2565
46.777252 -19.287033 58.061226
46.427422 -21.04141 60.445419
40.56205 -28.636909 68.894775
41.437443 -26.664696 66.890205
42.680538 -27.770208 67.975349
49.177891 -23.042046 62.557503
64.740402 0.650681 30.083345
64.625343 -4.869088 32.949326
65.735939 -3.475372 30.868301
66.272758 -5.391932 31.788717
67.753593 -6.101869 30.746269
69.552094 -1.628599 23.593857
70.005806 -3.85339 24.587891
69.411575 -4.424891 26.595619
-0.501385 -43.094978 80.592255
-0.067806 -42.261711 78.019882
-1.117239 -40.243649 79.727722
-0.815891 -38.866585 89.333305
-0.013865 -41.255096 89.799248
-0.978958 -40.934246 88.885498
-0.823709 -42.976532 88.15696
-0.410807 -44.978931 87.173195
0.175877 -46.937836 85.97049
-0.70409 -44.482162 85.244743
-0.724707 -43.845081 83.024658
49.842266 -9.06006 47.24752
48.330086 -9.295003 49.23037
46.914597 -11.275493 50.731842
45.729675 -13.199556 52.406624
30.880041 -33.618069 75.024422
33.380081 -33.340652 74.224907
31.843622 -34.868843 75.855972
21.818264 -31.135448 76.315659
19.980629 -32.664013 77.892929
19.47057 -31.129374 77.623329
17.168598 -31.082672 79.05217
14.927119 -30.980171 80.585243
27.960827 -26.052505 72.866814
27.984627 -27.799648 72.412979
25.847191 -27.843636 73.789429
23.783106 -29.533615 74.936302
14.006601 -38.591888 84.574165
63.512291 -6.346219 35.077946
64.201294 -8.097267 36.166065
62.444443 -7.871947 37.253483
61.455063 -9.414222 39.471127
60.560486 -10.94645 41.722549
53.49696 -14.589584 49.635704
55.43055 -14.257945 48.510719
54.887794 -15.700594 50.900375
56.093178 -16.864801 52.007507
39.888279 -18.384914 61.381393
41.142555 -17.932272 59.578133
40.426285 -20.024649 61.296227
41.376003 -21.453135 61.748253
42.645302 -22.689035 62.649742
62.014076 -0.627287 33.671547
63.618393 -0.934984 31.896507
62.387627 -2.61541 33.73053
62.886459 -4.527224 34.220795
68.445877 -0.097515 24.873915
5.254108 -39.387711 88.918884
6.399061 -41.065872 89.135803
4.48147 -41.281998 89.858994
3.953123 -43.268112 90.465103
1.020853 -43.435642 90.231918
2.221357 -45.48436 90.513428
0.838026 -48.859406 84.587646
56.275215 -6.338317 40.431076
56.8368 -8.003616 40.8311
54.982666 -8.234541 42.218739
53.843445 -10.059367 44.142609
52.887493 -11.794628 46.218178
50.17598 -10.70103 47.12645
50.959599 -12.155943 47.550617
52.119576 -13.435398 48.443672
51.520168 -14.99485 50.796753
51.048492 -16.505758 53.234619
50.647209 -18.016405 55.697998
36.202892 -26.771032 67.747589
38.185856 -26.19779 66.743217
37.211697 -28.137871 68.638275
38.35725 -29.383043 69.739868
39.470097 -30.554964 70.77285
35.817806 -32.937569 73.38868
38.162308 -32.390827 72.479324
56.036865 -4.556543 40.527237
22.710352 -36.691383 79.979279
20.20734 -36.796509 80.927254
17.730053 -36.918934 81.940712
18.280376 -34.139774 79.599052
16.717743 -35.592041 81.344025
15.291819 -37.060387 83.031967
12.907627 -37.214493 84.195648
10.595459 -37.367325 85.403702
8.376982 -37.497765 86.603043
14.924575 -29.128487 81.054619
12.760427 -30.801998 82.185066
10.682343 -30.525957 83.791702
10.799845 -32.46867 83.488297
9.059195 -34.140961 84.903252
7.548897 -35.836792 86.345467
6.277842 -37.5783 87.717285
4.32757 -37.577309 88.653954
2.558781 -37.46294 89.316086
1.005121 -37.208076 89.616859
-0.302263 -36.795105 89.493217
40.872406 -14.31551 60.697418
39.763172 -16.554255 61.966667
38.729599 -18.798546 63.245987
37.706028 -21.018171 64.542137
36.632248 -23.178368 65.878204
35.081257 -23.555988 67.369568
35.467754 -25.247389 67.287697
34.197739 -27.202244 68.802971
32.829716 -29.030914 70.44104
31.383955 -30.732498 72.191109
28.333731 -29.426964 72.498772
28.99301 -30.928173 73.084961
29.883087 -32.316006 74.009247
28.345932 -33.799858 75.822029
26.787699 -35.212494 77.539215
57.689075 -9.549517 41.664001
58.716454 -11.010079 42.783169
59.759571 -12.449501 43.995167
57.285141 -14.024773 47.396637
59.034897 -13.913984 46.269814
44.224136 -11.718797 54.913696
44.274315 -13.501163 54.323387
44.791931 -15.082764 54.250481
42.533081 -17.450302 57.858131
44.080311 -16.949892 56.237984
45.782036 -16.442179 54.726326
47.146378 -17.599289 55.665581
48.707756 -18.615271 56.880348
50.248459 -19.580956 58.118263
40.155163 -25.489367 65.768387
42.116871 -24.67169 64.797333
44.071686 -23.786776 63.802208
44.698505 -26.829813 66.946785
45.456108 -24.822803 64.938393
46.012554 -22.8862 62.756065
47.923576 -22.023354 61.635956
49.781013 -21.246687 60.425781
51.556637 -20.595551 59.118431
67.128746 1.147825 26.450563
67.710678 -1.0662 26.833563
65.228981 -1.452036 30.275421
66.785812 -2.198523 28.831348
68.210091 -3.186859 27.593338
68.640465 -5.168156 28.649071
-2.269144 -38.326499 85.483391
-2.128204 -38.733151 86.370262
-2.068805 -39.409462 84.763615
-2.269144 -38.326499 85.483391
52.657432 -19.553498 57.294941
53.53233 -19.335629 56.640965
52.966549 -18.790425 56.218972
0.802308 -44.615507 77.654968
1.320717 -45.555364 76.841461
1.052262 -45.959473 78.158203
1.088851 -48.447246 87.940521
1.436712 -48.555517 88.634094
0.92739 -47.424746 88.45153
0.828022 -48.304783 87.147045
1.337344 -49.435554 87.329609
1.088851 -48.447246 87.940521
51.421583 -7.917904 45.611748
52.19518 -7.797796 44.642382
52.151275 -6.924105 44.837149
52.151275 -6.924105 44.837149
52.968013 -5.889793 44.177235
5.870806 -31.657877 86.987518
6.813192 -30.745126 86.542465
5.028911 -32.562286 87.524002
5.934321 -32.803281 86.926094
5.870806 -31.657877 86.987518
4.21788 -33.502416 87.939155
5.028911 -32.562286 87.524002
16.941328 -39.085722 83.501644
18.148589 -39.004061 82.96355
17.592071 -38.317364 82.905213
65.526955 -7.588998 34.524132
66.015541 -6.958489 33.425953
62.664692 -11.856274 41.197197
61.880134 -11.757646 41.772108
63.969505 0.889438 31.033627
64.469566 1.708897 30.182845
66.015541 -6.958489 33.425953
66.536926 -6.304956 32.341811
65.751373 -6.045464 32.872859
48.448075 -8.36156 49.655518
49.127039 -8.275659 48.556988
27.076457 -25.138692 74.097893
26.111549 -25.138517 74.933884
26.952629 -26.060888 73.646035
28.084655 -25.130309 73.318673
27.076457 -25.138692 74.097893
12.276577 -39.520632 85.81942
13.439332 -39.413169 85.2359
12.843846 -38.69935 85.157684
55.781811 -17.57722 53.102142
55.235113 -16.993989 52.639675
54.923746 -17.706408 53.73431
56.52924 -17.51744 52.392437
55.781811 -17.57722 53.102142
58.247517 -1.523109 38.335976
57.535183 -1.579859 39.408188
60.583608 -1.47773 35.477453
59.771628 -1.469597 36.365415
59.900158 -2.447443 36.259964
61.363107 -1.541432 34.521774
61.234577 -0.563586 34.627226
60.583608 -1.47773 35.477453
68.102291 1.04783 24.718198
68.689583 0.300283 23.916657
0.236426 -41.817573 76.694008
-0.343232 -40.790365 77.584
3.005551 -44.380258 90.631687
3.799198 -44.304485 90.578011
3.159476 -43.343885 90.518779
2.24061 -46.534729 90.294072
1.638356 -45.483281 90.186169
1.657609 -46.53365 89.966813
2.867589 -46.484198 90.516095
2.24061 -46.534729 90.294072
1.168628 -49.526497 82.707657
1.242325 -49.227154 81.560574
35.057329 -33.749813 74.171368
34.598943 -33.139111 73.806793
33.838466 -33.951355 74.589482
38.526134 -32.974238 72.665943
37.409651 -33.259768 73.221809
39.272822 -32.046121 71.969978
38.526134 -32.974238 72.665943
23.47419 -36.002503 79.184952
23.967845 -36.642128 79.525795
24.731684 -35.953248 78.731468
13.886631 -28.97591 81.888142
15.059821 -28.12802 81.434246
14.021877 -27.975443 82.267769
9.704896 -31.384059 84.391452
9.694671 -30.327691 84.558655
8.717224 -31.185793 85.158405
-0.466727 -35.44568 89.348999
0.133402 -35.769203 89.436413
-0.820829 -36.507076 89.204239
-0.466727 -35.44568 89.348999
41.037119 -13.311412 61.218139
41.491255 -13.208448 60.072075
39.273277 -16.717202 63.004593
39.86248 -15.568906 62.436604
38.75649 -17.839347 63.644253
39.246386 -17.6764 62.606327
39.273277 -16.717202 63.004593
37.048536 -21.21116 65.392082
37.658884 -20.092325 64.844555
36.511646 -22.291259 66.060115
37.169138 -22.09827 65.210171
37.048536 -21.21116 65.392082
24.731684 -35.953248 78.731468
26.006518 -35.902683 78.305763
25.512864 -35.263058 77.96492
6.715525 -42.858173 89.558491
7.044076 -41.883358 89.143901
6.07051 -42.040688 89.550392
64.037841 -9.693344 37.859066
64.52858 -8.967369 36.740706
63.710556 -8.823241 37.284425
59.468775 -14.645291 46.772713
58.695221 -14.628328 47.39407
59.849556 -13.929683 45.689777
59.468775 -14.645291 46.772713
43.664165 -11.814509 56.035019
44.379789 -10.751455 55.402405
43.819818 -10.847167 56.523727
45.153287 -27.378934 67.228279
44.200535 -27.849143 67.84544
46.408977 -24.35924 64.374714
46.029686 -25.348963 65.359833
46.982556 -24.8854 64.796154
50.333488 -21.779219 60.79977
49.479452 -22.144367 61.491642
50.031927 -22.676899 61.865631
51.2213 -21.453651 60.146095
50.668825 -20.921119 59.772106
50.333488 -21.779219 60.79977
52.012976 -21.169339 59.393936
51.2213 -21.453651 60.146095
66.69778 0.53604 27.401993
66.408558 1.624221 27.361117
65.977593 1.012436 28.312548
68.368618 -6.548054 30.297753
67.954723 -6.996474 31.320599
70.12756 -2.105553 21.256777
69.833877 -0.884975 20.800967
-1.694678 -39.618185 81.814304
-1.768601 -40.060213 82.962936
-1.941469 -39.055988 87.240398
-1.659546 -39.394903 87.943012
-1.954929 -38.006251 87.650741
-1.832821 -40.121803 86.662533
-1.941469 -39.055988 87.240398
-2.128204 -38.733151 86.370262
-1.80435 -40.440161 84.101768
-1.7551 -40.829664 85.13055
-2.068805 -39.409462 84.763615
-1.768601 -40.060213 82.962936
-1.454895 -41.480415 83.329872
-1.80435 -40.440161 84.101768
47.121313 -8.524636 51.860096
47.752966 -8.458818 50.715764
46.308165 -9.568764 52.466988
47.121313 -8.524636 51.860096
45.584463 -10.579752 53.171975
46.216167 -10.500509 52.055847
46.308165 -9.568764 52.466988
29.77494 -35.701088 76.978344
28.533178 -35.77784 77.440208
20.400742 -28.614748 77.312939
20.394209 -29.486934 77.066025
21.522115 -28.646125 76.56644
19.326715 -28.551838 78.128715
20.400742 -28.614748 77.312939
18.225654 -28.490051 78.923084
18.171777 -29.393769 78.606891
19.326715 -28.551838 78.128715
24.915984 -26.048786 75.233322
26.111549 -25.138517 74.933884
23.78881 -26.931847 75.649387
24.817257 -26.952333 74.84132
24.915984 -26.048786 75.233322
22.609366 -27.804666 76.03537
23.78881 -26.931847 75.649387
21.522115 -28.646125 76.56644
22.602832 -28.676853 75.788456
22.609366 -27.804666 76.03537
10.02846 -39.769703 86.98611
11.154472 -39.65901 86.405815
10.555079 -38.917505 86.321498
9.543912 -40.654311 87.623249
10.02846 -39.769703 86.98611
8.944518 -39.912806 87.538932
9.106782 -41.579445 88.146717
9.543912 -40.654311 87.623249
54.655945 -18.431098 54.880886
54.923746 -17.706408 53.73431
54.109247 -17.847866 54.418419
54.301182 -19.173695 55.89972
54.655945 -18.431098 54.880886
54.301182 -19.173695 55.89972
53.53233 -19.335629 56.640965
1.87305 -46.509495 76.016041
2.030639 -47.828259 76.528153
1.87305 -46.509495 76.016041
1.320717 -45.555364 76.841461
1.767557 -47.559057 89.609909
1.657609 -46.53365 89.966813
1.165303 -46.507609 89.502006
1.841833 -48.618576 89.212429
1.767557 -47.559057 89.609909
1.841833 -48.618576 89.212429
1.436712 -48.555517 88.634094
1.506316 -50.452293 86.686043
1.337344 -49.435554 87.329609
1.323335 -50.270925 85.822163
1.506316 -50.452293 86.686043
1.370676 -48.895595 80.342102
1.242325 -49.227154 81.560574
0.990925 -47.965896 81.137875
1.547197 -48.557863 79.107689
1.370676 -48.895595 80.342102
1.772894 -48.190359 77.820335
1.547197 -48.557863 79.107689
1.344974 -47.266834 78.632049
2.030639 -47.828259 76.528153
1.772894 -48.190359 77.820335
53.747696 -4.868273 43.463608
54.564909 -3.821373 42.838604
53.704555 -5.782478 43.154156
53.747696 -4.868273 43.463608
52.968013 -5.889793 44.177235
13.019162 -27.75601 83.085403
14.021877 -27.975443 82.267769
7.741608 -31.014149 85.857608
6.813192 -30.745126 86.542465
7.751833 -32.070517 85.690406
8.717224 -31.185793 85.158405
7.741608 -31.014149 85.857608
3.51153 -34.429112 88.440949
4.386076 -34.634386 87.964371
4.21788 -33.502416 87.939155
2.679073 -34.263386 88.76593
2.847269 -35.395356 88.791145
3.51153 -34.429112 88.440949
31.061902 -23.136623 71.794536
30.229298 -23.195051 72.664395
31.940967 -23.076045 70.983543
31.061902 -23.136623 71.794536
30.936692 -24.087927 71.308742
32.711827 -22.988893 70.109013
31.940967 -23.076045 70.983543
32.650402 -23.930999 69.704788
33.54647 -22.892544 69.316052
32.711827 -22.988893 70.109013
19.323 -38.916552 82.403728
20.018034 -38.168707 81.855182
19.323 -38.916552 82.403728
18.148589 -39.004061 82.96355
6.424348 -43.881741 89.870743
5.515228 -44.049156 90.194298
63.112015 -11.137095 40.095965
63.569935 -10.400453 38.971868
62.761898 -10.285858 39.526882
63.112015 -11.137095 40.095965
62.664692 -11.856274 41.197197
57.518221 -15.399295 49.120682
57.180904 -16.103882 50.21291
47.872673 -24.432444 64.136757
46.982556 -24.8854 64.796154
48.780695 -24.005629 63.509991
48.269869 -23.468861 63.184269
47.872673 -24.432444 64.136757
49.603884 -23.606486 62.773105
48.780695 -24.005629 63.509991
50.031927 -22.676899 61.865631
49.603884 -23.606486 62.773105
65.214386 1.375649 29.177508
64.469566 1.708897 30.182845
65.503608 0.287468 29.218384
65.977593 1.012436 28.312548
65.214386 1.375649 29.177508
67.277344 -6.659925 31.820587
67.013175 -5.7469 31.267493
66.536926 -6.304956 32.341811
67.954723 -6.996474 31.320599
67.277344 -6.659925 31.820587
69.954937 -2.528254 23.121488
70.101364 -2.256951 22.173443
69.698521 -1.357296 22.645812
70.181793 -3.64065 23.618505
69.954937 -2.528254 23.121488
69.77895 -2.740995 24.090874
70.34375 -4.746742 24.25572
70.181793 -3.64065 23.618505
70.15395 -4.887289 25.230438
70.34375 -4.746742 24.25572
69.856834 -5.173039 26.234302
70.15395 -4.887289 25.230438
69.708691 -4.13914 25.591755
69.5629 -5.388363 27.22427
69.856834 -5.173039 26.234302
-0.867949 -39.781334 78.437919
-0.343232 -40.790365 77.584
-0.592523 -41.25268 78.873802
-1.543724 -39.189775 80.582645
-1.268193 -40.672058 80.959381
-1.694678 -39.618185 81.814304
-1.363123 -38.709857 79.351795
-1.543724 -39.189775 80.582645
-0.867949 -39.781334 78.437919
-1.363123 -38.709857 79.351795
49.883129 -8.158188 47.565563
50.609972 -8.052136 46.527017
49.086176 -9.177532 48.238945
49.883129 -8.158188 47.565563
49.127039 -8.275659 48.556988
47.634978 -9.392262 50.290616
48.448075 -8.36156 49.655518
47.752966 -8.458818 50.715764
33.070237 -34.71545 75.405014
33.838466 -33.951355 74.589482
32.611852 -34.104748 75.040439
31.031358 -35.598121 76.553425
30.587203 -34.971809 76.280891
29.77494 -35.701088 76.978344
32.245694 -35.484577 76.060402
31.031358 -35.598121 76.553425
33.070237 -34.71545 75.405014
32.245694 -35.484577 76.060402
29.133055 -24.17831 72.945133
30.229298 -23.195051 72.664395
29.009227 -25.100506 72.493275
29.133055 -24.17831 72.945133
28.084655 -25.130309 73.318673
14.587425 -39.288524 84.645122
15.776529 -39.192093 84.079693
15.195706 -38.495457 84.008736
14.587425 -39.288524 84.645122
13.439332 -39.413169 85.2359
12.276577 -39.520632 85.81942
11.154472 -39.65901 86.405815
61.008388 -11.719621 42.307893
61.880134 -11.757646 41.772108
61.432232 -10.984475 41.186763
56.887045 -16.808324 51.355144
57.180904 -16.103882 50.21291
56.387038 -16.160359 50.865273
56.887045 -16.808324 51.355144
56.52924 -17.51744 52.392437
42.677087 -29.315223 69.283364
42.053314 -30.327071 70.061172
59.024657 -1.477168 37.382401
58.247517 -1.523109 38.335976
58.311037 -2.485251 38.101501
59.024657 -1.477168 37.382401
59.771628 -1.469597 36.365415
61.850521 0.378253 33.846813
61.234577 -0.563586 34.627226
62.606342 0.250454 32.827727
61.850521 0.378253 33.846813
62.816235 -0.781135 32.784027
63.408501 0.096606 31.940207
62.606342 0.250454 32.827727
69.486916 0.117908 21.401579
69.833877 -0.884975 20.800967
69.389118 -0.193956 22.328584
69.486916 0.117908 21.401579
69.242692 -0.465259 23.276629
69.698521 -1.357296 22.645812
69.389118 -0.193956 22.328584
68.998986 -0.863057 24.233886
69.242692 -0.465259 23.276629
68.689583 0.300283 23.916657
0.501478 -43.236555 77.179054
0.802308 -44.615507 77.654968
0.233024 -43.640663 78.495796
0.501478 -43.236555 77.179054
0.236426 -41.817573 76.694008
4.620811 -44.17546 90.444359
5.515228 -44.049156 90.194298
4.847541 -43.141807 90.215042
4.620811 -44.17546 90.444359
3.799198 -44.304485 90.578011
2.933315 -45.412609 90.602173
3.005551 -44.380258 90.631687
2.293592 -44.45201 90.542942
2.933315 -45.412609 90.602173
2.867589 -46.484198 90.516095
1.20409 -50.054083 84.847919
1.323335 -50.270925 85.822163
0.957271 -49.076248 85.56189
1.156354 -49.807473 83.823307
0.8503 -48.57843 83.471996
1.168628 -49.526497 82.707657
1.20409 -50.054083 84.847919
1.156354 -49.807473 83.823307
50.653877 -8.925828 46.332251
51.421583 -7.917904 45.611748
50.609972 -8.052136 46.527017
36.2374 -33.533139 73.676487
35.057329 -33.749813 74.171368
36.990057 -32.664198 72.934002
36.2374 -33.533139 73.676487
37.409651 -33.259768 73.221809
39.926716 -31.128189 71.116741
38.816203 -31.472895 71.626087
39.272822 -32.046121 71.969978
41.017473 -30.731693 70.641632
40.560854 -30.158468 70.297741
39.926716 -31.128189 71.116741
42.053314 -30.327071 70.061172
41.017473 -30.731693 70.641632
56.794148 -2.611512 40.071528
57.535183 -1.579859 39.408188
55.269318 -3.726395 41.764253
54.564909 -3.821373 42.838604
56.045631 -3.624188 40.807608
55.269318 -3.726395 41.764253
55.260551 -4.65875 41.483883
56.785381 -3.543867 39.791157
56.794148 -2.611512 40.071528
56.045631 -3.624188 40.807608
23.197353 -37.340263 80.166386
23.967845 -36.642128 79.525795
21.973544 -37.396547 80.661262
23.197353 -37.340263 80.166386
20.722038 -37.44911 81.13525
21.973544 -37.396547 80.661262
21.458846 -36.743946 80.453267
19.503336 -37.516106 81.647187
20.018034 -38.168707 81.855182
20.722038 -37.44911 81.13525
17.167272 -28.385919 79.763637
18.225654 -28.490051 78.923084
16.094202 -28.284171 80.590317
15.059821 -28.12802 81.434246
15.997646 -29.230235 80.227939
17.167272 -28.385919 79.763637
16.094202 -28.284171 80.590317
11.852667 -28.608816 83.527256
13.019162 -27.75601 83.085403
10.769495 -29.460128 84.062275
9.694671 -30.327691 84.558655
11.765515 -29.674645 83.256683
11.852667 -28.608816 83.527256
10.769495 -29.460128 84.062275
1.899763 -33.981122 89.071491
2.679073 -34.263386 88.76593
1.29194 -34.986466 89.247868
1.899763 -33.981122 89.071491
0.787094 -35.975689 89.498233
1.509966 -36.218853 89.366493
1.29194 -34.986466 89.247868
0.351429 -37.00159 89.555038
0.787094 -35.975689 89.498233
0.133402 -35.769203 89.436413
-1.077643 -37.542817 89.124282
-0.559077 -37.830845 89.413261
-0.820829 -36.507076 89.204239
-1.506201 -37.282106 88.634308
-1.244449 -38.605875 88.84333
-1.077643 -37.542817 89.124282
-1.88333 -36.916666 88.120914
-1.506201 -37.282106 88.634308
-1.954929 -38.006251 87.650741
-1.88333 -36.916666 88.120914
43.302138 -10.913664 57.693821
43.819818 -10.847167 56.523727
42.607149 -12.005803 58.301537
43.302138 -10.913664 57.693821
41.987719 -13.07611 58.974968
42.484764 -12.980528 57.829773
42.607149 -12.005803 58.301537
41.36887 -14.183172 59.600311
41.987719 -13.07611 58.974968
41.491255 -13.208448 60.072075
40.417097 -14.449534 61.801979
41.037119 -13.311412 61.218139
40.317789 -15.434883 61.332043
40.417097 -14.449534 61.801979
39.86248 -15.568906 62.436604
38.17067 -18.982512 64.19648
38.75649 -17.839347 63.644253
38.217814 -19.908358 63.894062
38.17067 -18.982512 64.19648
37.658884 -20.092325 64.844555
34.262259 -22.773805 68.442524
33.54647 -22.892544 69.316052
35.060364 -22.634473 67.671394
34.262259 -22.773805 68.442524
34.283152 -23.695319 68.140698
35.736151 -22.480069 66.805797
35.060364 -22.634473 67.671394
35.856752 -23.367178 66.623886
36.511646 -22.291259 66.060115
35.736151 -22.480069 66.805797
27.261635 -35.846699 77.85691
28.533178 -35.77784 77.440208
28.059241 -35.143635 77.122513
27.261635 -35.846699 77.85691
26.006518 -35.902683 78.305763
16.941328 -39.085722 83.501644
15.776529 -39.192093 84.079693
8.07453 -41.749128 88.664035
7.429515 -40.931642 88.655937
7.044076 -41.883358 89.143901
9.106782 -41.579445 88.146717
8.07453 -41.749128 88.664035
6.715525 -42.858173 89.558491
6.424348 -43.881741 89.870743
65.012608 -8.288134 35.628664
65.526955 -7.588998 34.524132
64.715641 -7.398132 35.061533
65.012608 -8.288134 35.628664
64.52858 -8.967369 36.740706
64.037841 -9.693344 37.859066
63.569935 -10.400453 38.971868
60.607931 -12.471146 43.444203
61.008388 -11.719621 42.307893
60.160028 -11.697976 42.858858
57.820343 -14.683723 47.957482
56.983019 -14.740346 48.559838
57.518221 -15.399295 49.120682
58.160019 -13.969378 46.833225
57.820343 -14.683723 47.957482
58.695221 -14.628328 47.39407
60.211893 -13.197442 44.552454
59.397234 -13.181742 45.132491
59.849556 -13.929683 45.689777
60.607931 -12.471146 43.444203
60.211893 -13.197442 44.552454
44.950298 -10.683402 54.248406
44.379789 -10.751455 55.402405
44.858301 -11.615147 53.837265
45.584463 -10.579752 53.171975
44.950298 -10.683402 54.248406
43.191551 -28.319341 68.359722
42.166075 -28.76609 68.89899
42.677087 -29.315223 69.283364
43.689521 -27.30001 67.461067
43.191551 -28.319341 68.359722
44.200535 -27.849143 67.84544
45.650885 -26.352469 66.364029
45.153287 -27.378934 67.228279
45.077306 -25.826308 65.942589
45.650885 -26.352469 66.364029
46.029686 -25.348963 65.359833
52.389925 -20.347127 58.417682
52.657432 -19.553498 57.294941
51.824145 -19.801922 57.995689
52.389925 -20.347127 58.417682
52.012976 -21.169339 59.393936
66.768826 2.262768 26.448899
66.408558 1.624221 27.361117
67.443725 1.6705 25.506522
66.768826 2.262768 26.448899
67.787312 0.525155 25.662239
68.102291 1.04783 24.718198
67.443725 1.6705 25.506522
64.179397 -0.142152 30.989926
63.969505 0.889438 31.033627
63.408501 0.096606 31.940207
69.177346 -5.759996 28.250996
69.5629 -5.388363 27.22427
69.02602 -4.796523 27.622345
68.812054 -6.081198 29.249153
68.197029 -5.635013 29.69767
68.368618 -6.548054 30.297753
69.177346 -5.759996 28.250996
68.812054 -6.081198 29.249153
70.12756 -2.105553 21.256777
70.101364 -2.256951 22.173443
3 304 77 305
3 307 306 77
3 0 83 82
3 2 86 84
3 3 89 87
3 3 308 310
3 310 309 89
3 308 309 310
3 1 92 90
3 2 95 93
3 2 84 95
3 4 311 313
3 313 312 97
3 311 312 313
3 5 100 98
3 6 103 101
3 6 314 316
3 316 315 103
3 314 315 316
3 6 317 319
3 317 104 318
3 317 318 319
3 4 107 105
3 4 97 107
3 320 110 321
3 322 321 108
3 320 321 322
3 8 113 111
3 8 115 113
3 9 118 116
3 323 108 324
3 11 122 120
3 13 125 123
3 13 127 125
3 325 128 326
3 327 130 328
3 329 328 128
3 327 328 329
3 331 330 130
3 15 133 132
3 15 135 133
3 15 137 135
3 11 140 138
3 11 120 140
3 12 332 334
3 334 333 142
3 332 333 334
3 16 335 336
3 338 337 143
3 7 146 144
3 14 149 147
3 17 152 150
3 17 154 152
3 10 157 155
3 339 159 340
3 16 162 160
3 16 341 343
3 343 342 162
3 341 342 343
3 18 165 164
3 18 166 165
3 19 169 167
3 20 172 170
3 22 173 76
3 22 174 173
3 22 176 174
3 19 177 78
3 19 167 177
3 344 179 345
3 25 180 79
3 25 181 180
3 26 184 182
3 27 187 185
3 29 188 80
3 29 189 188
3 30 346 347
3 30 348 350
3 348 190 349
3 348 349 350
3 30 192 190
3 27 193 81
3 27 185 193
3 32 351 353
3 353 352 194
3 351 352 353
3 33 197 195
3 35 198 85
3 35 199 198
3 36 202 200
3 354 203 355
3 356 355 88
3 354 355 356
3 358 357 203
3 38 206 204
3 40 207 91
3 40 208 207
3 41 359 360
3 42 361 363
3 363 362 94
3 361 362 363
3 42 364 366
3 364 209 365
3 364 365 366
3 42 211 209
3 33 212 96
3 33 195 212
3 367 213 368
3 370 369 168
3 45 216 214
3 47 217 99
3 47 371 373
3 373 372 217
3 371 372 373
3 21 218 171
3 374 219 375
3 376 375 102
3 374 375 376
3 378 377 219
3 23 220 175
3 380 379 106
3 48 223 221
3 50 224 109
3 50 225 224
3 24 226 178
3 51 227 112
3 51 228 227
3 51 229 228
3 52 230 114
3 52 231 230
3 53 234 232
3 55 235 117
3 55 236 235
3 381 237 382
3 383 382 183
3 381 382 383
3 384 238 385
3 387 386 238
3 48 239 119
3 48 221 239
3 56 388 390
3 388 240 389
3 388 389 390
3 57 241 121
3 57 242 241
3 28 243 186
3 58 244 124
3 58 245 244
3 58 246 245
3 59 247 126
3 59 248 247
3 60 391 393
3 391 249 392
3 391 392 393
3 60 250 249
3 61 394 396
3 394 251 395
3 394 395 396
3 61 252 251
3 61 253 252
3 62 254 129
3 62 255 254
3 62 256 255
3 63 257 131
3 63 258 257
3 397 259 398
3 400 399 259
3 401 260 402
3 403 261 404
3 405 262 406
3 407 406 261
3 405 406 407
3 408 263 409
3 410 264 411
3 412 411 263
3 410 411 412
3 65 265 134
3 65 266 265
3 65 267 266
3 66 268 136
3 66 269 268
3 31 270 191
3 67 271 139
3 67 272 271
3 67 273 272
3 56 274 141
3 56 413 415
3 415 414 274
3 413 414 415
3 46 416 418
3 418 417 215
3 416 417 418
3 34 419 421
3 421 420 196
3 419 420 421
3 49 275 222
3 68 276 145
3 68 277 276
3 37 278 201
3 422 279 423
3 425 424 279
3 64 426 428
3 426 280 427
3 426 427 428
3 69 281 148
3 69 282 281
3 39 283 205
3 70 284 151
3 70 285 284
3 70 286 285
3 71 287 153
3 71 288 287
3 54 289 233
3 72 290 156
3 72 291 290
3 429 292 430
3 73 431 433
3 431 293 432
3 431 432 433
3 73 294 293
3 73 295 294
3 434 296 435
3 436 435 158
3 434 435 436
3 437 297 438
3 439 438 296
3 437 438 439
3 441 440 297
3 74 442 444
3 442 298 443
3 442 443 444
3 74 299 298
3 43 300 210
3 75 301 161
3 75 302 301
3 75 303 302
3 446 445 163
3 44 447 448
3 450 449 19
3 451 76 452
3 453 452 20
3 451 452 453
3 77 454 456
3 454 76 455
3 454 455 456
3 77 22 76
3 77 78 22
3 457 78 458
3 459 458 77
3 457 458 459
3 460 19 461
3 462 461 78
3 460 461 462
3 463 79 464
3 465 79 466
3 467 25 468
3 469 468 79
3 467 468 469
3 471 470 26
3 472 80 473
3 474 473 27
3 472 473 474
3 475 80 476
3 477 29 478
3 479 478 80
3 477 478 479
3 480 30 481
3 482 81 483
3 484 483 30
3 482 483 484
3 485 81 486
3 487 27 488
3 489 488 81
3 487 488 489
3 82 490 492
3 492 491 32
3 490 491 492
3 83 493 495
3 495 494 82
3 493 494 495
3 83 496 497
3 84 85 33
3 86 85 84
3 86 35 85
3 87 88 36
3 89 88 87
3 89 498 500
3 500 499 88
3 498 499 500
3 89 501 502
3 504 503 89
3 90 91 38
3 92 91 90
3 92 40 91
3 93 94 41
3 95 94 93
3 95 42 94
3 95 96 42
3 84 96 95
3 84 33 96
3 97 505 506
3 508 507 97
3 98 99 45
3 100 99 98
3 100 47 99
3 101 102 21
3 103 102 101
3 103 509 511
3 511 510 102
3 509 510 511
3 103 512 513
3 515 514 103
3 104 516 517
3 104 518 519
3 105 106 23
3 107 106 105
3 107 520 522
3 522 521 106
3 520 521 522
3 107 523 524
3 97 525 527
3 527 526 107
3 525 526 527
3 97 528 529
3 108 109 48
3 110 109 108
3 110 50 109
3 111 112 24
3 113 112 111
3 113 51 112
3 113 114 51
3 115 114 113
3 115 52 114
3 116 117 53
3 118 117 116
3 118 55 117
3 530 119 531
3 108 532 534
3 532 119 533
3 532 533 534
3 108 48 119
3 120 121 56
3 122 121 120
3 122 57 121
3 123 124 28
3 125 124 123
3 125 58 124
3 125 126 58
3 127 126 125
3 127 59 126
3 535 60 536
3 128 537 538
3 128 539 541
3 539 61 540
3 539 540 541
3 128 129 61
3 130 129 128
3 130 62 129
3 130 131 62
3 542 131 543
3 544 543 130
3 542 543 544
3 545 63 546
3 547 546 131
3 545 546 547
3 132 548 549
3 133 550 552
3 552 551 132
3 550 551 552
3 133 553 554
3 133 555 557
3 555 134 556
3 555 556 557
3 135 134 133
3 135 65 134
3 135 136 65
3 137 136 135
3 137 66 136
3 138 139 31
3 140 139 138
3 140 67 139
3 140 141 67
3 120 141 140
3 120 56 141
3 142 558 559
3 561 560 142
3 563 562 46
3 143 564 566
3 566 565 34
3 564 565 566
3 568 567 143
3 144 145 49
3 146 145 144
3 146 68 145
3 570 569 37
3 147 148 64
3 149 148 147
3 149 69 148
3 150 151 39
3 152 151 150
3 152 70 151
3 152 153 70
3 154 153 152
3 154 71 153
3 155 156 54
3 157 156 155
3 157 72 156
3 571 73 572
3 573 158 574
3 575 574 73
3 573 574 575
3 576 158 577
3 579 578 158
3 159 580 581
3 159 582 584
3 582 74 583
3 582 583 584
3 160 161 43
3 162 161 160
3 162 75 161
3 162 163 75
3 585 163 586
3 587 586 162
3 585 586 587
3 589 588 163
3 164 590 592
3 592 591 44
3 590 591 592
3 165 593 595
3 595 594 164
3 593 594 595
3 165 596 597
3 165 598 599
3 166 600 602
3 602 601 165
3 600 601 602
3 166 603 604
3 167 168 4
3 169 168 167
3 169 605 607
3 607 606 168
3 605 606 607
3 608 169 609
3 610 609 19
3 608 609 610
3 611 169 612
3 614 613 169
3 170 171 5
3 172 171 170
3 172 21 171
3 76 172 20
3 173 172 76
3 173 21 172
3 173 101 21
3 174 101 173
3 174 6 101
3 174 175 6
3 176 175 174
3 176 23 175
3 78 176 22
3 177 176 78
3 177 23 176
3 177 105 23
3 167 105 177
3 167 4 105
3 615 178 616
3 179 617 619
3 617 178 618
3 617 618 619
3 179 24 178
3 79 620 622
3 620 179 621
3 620 621 622
3 180 179 79
3 180 24 179
3 180 111 24
3 181 111 180
3 181 8 111
3 182 183 9
3 184 183 182
3 184 623 625
3 625 624 183
3 623 624 625
3 626 184 627
3 628 627 26
3 626 627 628
3 629 184 630
3 632 631 184
3 185 186 11
3 187 186 185
3 187 28 186
3 80 187 27
3 188 187 80
3 188 28 187
3 188 123 28
3 189 123 188
3 189 13 123
3 633 132 634
3 190 635 637
3 635 132 636
3 635 636 637
3 190 15 132
3 190 191 15
3 192 191 190
3 192 31 191
3 81 192 30
3 193 192 81
3 193 31 192
3 193 138 31
3 185 138 193
3 185 11 138
3 194 638 640
3 640 639 12
3 638 639 640
3 642 641 194
3 644 643 32
3 195 196 16
3 197 196 195
3 197 34 196
3 85 197 33
3 198 197 85
3 198 34 197
3 198 143 34
3 199 143 198
3 199 645 647
3 647 646 143
3 645 646 647
3 200 201 7
3 202 201 200
3 202 37 201
3 88 202 36
3 203 202 88
3 203 37 202
3 203 648 650
3 650 649 37
3 648 649 650
3 652 651 203
3 204 205 14
3 206 205 204
3 206 39 205
3 91 206 38
3 207 206 91
3 207 39 206
3 207 150 39
3 208 150 207
3 208 17 150
3 654 653 10
3 94 655 657
3 657 656 41
3 655 656 657
3 659 658 94
3 209 660 661
3 209 662 663
3 209 664 666
3 664 210 665
3 664 665 666
3 211 210 209
3 211 43 210
3 96 211 42
3 212 211 96
3 212 43 211
3 212 160 43
3 195 160 212
3 195 16 160
3 667 44 668
3 669 44 670
3 671 164 672
3 673 672 44
3 671 672 673
3 213 674 676
3 674 164 675
3 674 675 676
3 213 18 164
3 168 677 679
3 679 678 4
3 677 678 679
3 681 680 168
3 214 215 0
3 216 215 214
3 216 46 215
3 99 216 45
3 217 216 99
3 217 46 216
3 217 682 684
3 684 683 46
3 682 683 684
3 686 685 217
3 171 100 5
3 218 100 171
3 218 47 100
3 102 218 21
3 219 218 102
3 219 47 218
3 219 687 689
3 689 688 47
3 687 688 689
3 691 690 219
3 175 104 6
3 220 104 175
3 220 692 694
3 694 693 104
3 692 693 694
3 106 220 23
3 695 220 696
3 697 696 106
3 695 696 697
3 699 698 220
3 221 222 2
3 223 222 221
3 223 49 222
3 109 223 48
3 224 223 109
3 224 49 223
3 224 144 49
3 225 144 224
3 225 7 144
3 178 700 702
3 700 110 701
3 700 701 702
3 226 110 178
3 226 50 110
3 112 226 24
3 227 226 112
3 227 50 226
3 227 225 50
3 228 225 227
3 228 7 225
3 228 200 7
3 229 200 228
3 229 36 200
3 114 229 51
3 230 229 114
3 230 36 229
3 230 87 36
3 231 87 230
3 231 3 87
3 232 233 1
3 234 233 232
3 234 54 233
3 117 234 53
3 235 234 117
3 235 54 234
3 235 155 54
3 236 155 235
3 236 10 155
3 183 118 9
3 237 118 183
3 237 55 118
3 703 237 704
3 238 705 707
3 705 237 706
3 705 706 707
3 238 55 237
3 238 236 55
3 708 236 709
3 710 709 238
3 708 709 710
3 711 10 712
3 713 712 236
3 711 712 713
3 715 714 10
3 716 41 717
3 119 718 719
3 239 720 722
3 722 721 119
3 720 721 722
3 239 723 725
3 723 41 724
3 723 724 725
3 239 93 41
3 221 93 239
3 221 2 93
3 240 726 727
3 240 728 729
3 121 240 56
3 241 240 121
3 241 730 732
3 732 731 240
3 730 731 732
3 241 733 735
3 733 142 734
3 733 734 735
3 242 142 241
3 242 12 142
3 186 122 11
3 243 122 186
3 243 57 122
3 124 243 28
3 244 243 124
3 244 57 243
3 244 242 57
3 245 242 244
3 245 12 242
3 245 194 12
3 246 194 245
3 246 32 194
3 126 246 58
3 247 246 126
3 247 32 246
3 247 82 32
3 248 82 247
3 248 0 82
3 736 29 737
3 249 738 739
3 249 740 742
3 740 29 741
3 740 741 742
3 249 189 29
3 250 189 249
3 250 13 189
3 743 60 744
3 251 745 746
3 251 747 749
3 747 60 748
3 747 748 749
3 251 250 60
3 252 250 251
3 252 13 250
3 252 127 13
3 253 127 252
3 253 59 127
3 129 253 61
3 254 253 129
3 254 59 253
3 254 248 59
3 255 248 254
3 255 0 248
3 255 214 0
3 256 214 255
3 256 45 214
3 131 256 62
3 257 256 131
3 257 45 256
3 257 98 45
3 258 98 257
3 258 5 98
3 750 63 751
3 752 63 753
3 754 258 755
3 756 755 63
3 754 755 756
3 259 757 759
3 757 258 758
3 757 758 759
3 259 5 258
3 259 170 5
3 760 170 761
3 762 761 259
3 760 761 762
3 763 20 764
3 765 764 170
3 763 764 765
3 766 20 767
3 769 768 20
3 770 64 771
3 772 64 773
3 774 147 775
3 776 775 64
3 774 775 776
3 260 777 779
3 777 147 778
3 777 778 779
3 260 14 147
3 780 260 781
3 261 782 784
3 782 260 783
3 782 783 784
3 261 14 260
3 261 204 14
3 262 204 261
3 262 38 204
3 785 262 786
3 263 787 789
3 787 262 788
3 787 788 789
3 263 38 262
3 263 90 38
3 264 90 263
3 264 1 90
3 134 790 791
3 265 792 794
3 794 793 134
3 792 793 794
3 265 795 796
3 265 797 799
3 797 264 798
3 797 798 799
3 266 264 265
3 266 1 264
3 266 232 1
3 267 232 266
3 267 53 232
3 136 267 65
3 268 267 136
3 268 53 267
3 268 116 53
3 269 116 268
3 269 9 116
3 191 137 15
3 270 137 191
3 270 66 137
3 139 270 31
3 271 270 139
3 271 66 270
3 271 269 66
3 272 269 271
3 272 9 269
3 272 182 9
3 273 182 272
3 273 26 182
3 141 273 67
3 274 273 141
3 274 26 273
3 274 800 802
3 802 801 26
3 800 801 802
3 804 803 274
3 806 805 12
3 215 83 0
3 807 83 808
3 809 808 215
3 807 808 809
3 811 810 83
3 813 812 46
3 196 814 816
3 816 815 16
3 814 815 816
3 818 817 196
3 820 819 34
3 222 86 2
3 275 86 222
3 275 35 86
3 145 275 49
3 276 275 145
3 276 35 275
3 276 199 35
3 277 199 276
3 277 821 823
3 823 822 199
3 821 822 823
3 201 146 7
3 278 146 201
3 278 68 146
3 824 278 825
3 826 825 37
3 824 825 826
3 279 827 829
3 827 278 828
3 827 828 829
3 279 68 278
3 279 277 68
3 830 277 831
3 832 831 279
3 830 831 832
3 834 833 277
3 280 835 836
3 280 837 839
3 837 25 838
3 837 838 839
3 148 280 64
3 281 280 148
3 281 25 280
3 281 181 25
3 282 181 281
3 282 8 181
3 205 149 14
3 283 149 205
3 283 69 149
3 151 283 39
3 284 283 151
3 284 69 283
3 284 282 69
3 285 282 284
3 285 8 282
3 285 115 8
3 286 115 285
3 286 52 115
3 153 286 70
3 287 286 153
3 287 52 286
3 287 231 52
3 288 231 287
3 288 3 231
3 233 92 1
3 289 92 233
3 289 40 92
3 156 289 54
3 290 289 156
3 290 40 289
3 290 208 40
3 291 208 290
3 291 17 208
3 840 157 841
3 842 841 10
3 840 841 842
3 292 843 845
3 843 157 844
3 843 844 845
3 292 72 157
3 846 292 847
3 293 848 850
3 848 292 849
3 848 849 850
3 293 72 292
3 293 291 72
3 294 291 293
3 294 17 291
3 294 154 17
3 295 154 294
3 295 71 154
3 158 295 73
3 296 295 158
3 296 71 295
3 296 288 71
3 297 288 296
3 297 3 288
3 297 851 853
3 853 852 3
3 851 852 853
3 855 854 297
3 298 856 857
3 298 858 859
3 298 860 862
3 860 213 861
3 860 861 862
3 299 213 298
3 299 18 213
3 210 863 865
3 863 159 864
3 863 864 865
3 300 159 210
3 300 74 159
3 161 300 43
3 301 300 161
3 301 74 300
3 301 299 74
3 302 299 301
3 302 18 299
3 302 166 18
3 303 166 302
3 303 866 868
3 868 867 166
3 866 867 868
3 163 303 75
3 869 303 870
3 871 870 163
3 869 870 871
3 873 872 303
3 875 874 44
