ply
format ascii 1.0
element vertex 325
property float x
property float y
property float z
element face 343
property list uchar int vertex_index
end_header
52.955032 -15.226645 -4.944427
46.569439 -28.34927 10.645838
44.972565 -13.850804 -5.837412
42.388012 -18.248203 3.146982
49.326271 -22.358913 3.234107
59.249348 -24.607212 2.368083
43.022045 -25.170279 11.22783
43.828804 -23.174189 7.405369
47.620766 -25.530552 7.016611
54.129723 -23.398014 2.918958
52.422123 -27.342125 6.372011
48.617195 -15.240624 -5.6171
49.653946 -11.649286 -9.99984
54.136971 -11.163432 -9.306379
43.283768 -26.770521 14.591257
57.587776 -14.854855 -4.353504
58.661263 -10.309181 -8.437851
43.767197 -16.331703 -1.394981
47.067467 -18.281122 -1.138767
45.328381 -20.887037 3.246264
51.243683 -18.93449 -0.745335
55.980228 -19.212391 -0.596561
60.760117 -19.944214 -0.833588
44.799057 -27.784782 17.380707
46.52964 -30.572464 14.119224
51.261585 -30.827135 9.94408
45.705967 -10.585133 -9.857903
44.635418 -26.863194 10.970401
44.995636 -25.704298 9.145765
46.987526 -26.996532 8.848829
49.9188 -26.476198 6.714985
49.255531 -28.135283 8.499973
50.7206 -15.351308 -5.304764
51.369476 -13.502932 -7.517155
53.627434 -13.242355 -7.112202
59.850899 -14.874396 -4.215815
60.387146 -12.522587 -6.121214
43.07534 -17.348095 0.882526
45.297348 -17.514452 -1.308029
44.507465 -18.687408 0.956843
46.334236 -23.121124 5.290779
44.51981 -22.065834 5.360881
47.20435 -21.723892 3.270929
48.131699 -20.258343 1.194618
50.286186 -20.677963 1.271772
53.570419 -19.060637 -0.623219
52.615971 -21.000502 1.272275
56.687393 -23.955269 2.659515
57.557266 -21.741594 1.006392
60.022224 -22.296909 0.770197
62.973816 -20.625988 -1.05422
62.376446 -23.026134 0.504094
46.077995 -29.975201 17.363522
45.256008 -29.48402 15.923429
46.949196 -31.371445 15.776329
54.408218 -30.110271 7.792613
45.410511 -12.329144 -7.918276
52.166183 -9.452844 -11.889381
49.922184 -9.637642 -12.09156
41.741386 -23.236586 11.394954
41.950909 -22.470449 9.50028
43.31218 -24.212042 9.366004
45.57914 -24.450779 7.250484
48.418854 -23.978849 5.14687
51.653358 -22.888351 3.116664
50.73592 -24.718641 4.925393
53.231979 -25.410133 4.640667
55.840572 -26.108141 4.320829
46.689804 -14.768611 -5.811869
47.213455 -13.156054 -7.985981
49.214024 -13.518174 -7.833792
51.857162 -11.535187 -9.719418
54.464645 -8.993748 -11.508141
41.800816 -23.925627 13.14757
43.002125 -26.031092 12.974881
44.541275 -27.900448 12.71567
55.265434 -15.013061 -4.60784
55.927917 -12.89196 -6.700787
58.204773 -12.607283 -6.354372
60.766479 -10.137935 -8.126987
44.413754 -15.175083 -3.648832
46.03952 -16.215124 -3.574673
47.889511 -16.823658 -3.376789
49.938416 -17.085333 -3.104012
42.385994 -21.635605 7.486606
42.994911 -20.732546 5.376825
43.721313 -19.754219 3.19295
46.1964 -19.629995 1.074847
49.060303 -18.716381 -0.933147
52.148125 -17.120865 -2.818729
54.467804 -17.066906 -2.581409
56.835308 -17.055187 -2.436579
59.179459 -17.194983 -2.404467
55.062813 -21.328012 1.181532
58.402489 -19.485048 -0.67164
61.423637 -17.562651 -2.480434
43.883106 -27.362516 16.063063
44.743221 -28.78442 14.370593
46.407455 -29.553778 12.405173
48.572323 -31.011305 12.086658
48.793945 -29.660686 10.289846
51.750534 -29.161432 8.134933
55.065479 -28.17231 6.022783
58.484482 -26.852865 3.999685
61.73217 -25.383686 2.076906
47.586956 -11.364799 -10.065775
56.427933 -10.699355 -8.851456
56.746574 -8.437491 -11.045645
61.12643 -13.805037 -5.118113
60.915199 -15.016706 -4.208738
42.731676 -17.798149 2.014754
42.194673 -16.83605 2.008095
41.85101 -17.286104 3.140323
46.87089 -30.951342 17.363224
46.634241 -30.111791 18.024465
47.30649 -31.649464 16.569627
46.513596 -30.673323 16.569926
46.87089 -30.951342 17.363224
45.191538 -13.089974 -6.877844
44.449548 -12.39557 -6.795683
44.230576 -13.1564 -5.755251
52.22776 -8.362636 -12.948722
53.383552 -8.100338 -12.793999
41.582592 -22.980063 13.960252
41.364361 -22.746467 13.179552
43.142947 -26.400807 13.783069
42.58147 -25.276683 13.855825
42.722292 -25.646397 14.664013
61.719894 -10.215431 -8.038647
60.576813 -11.330261 -7.1241
61.530228 -11.407757 -7.035761
61.774948 -8.984633 -9.061112
61.719894 -10.215431 -8.038647
43.12341 -15.51319 -1.385893
42.830246 -15.950356 -0.25913
44.090475 -15.753393 -2.521907
43.446688 -14.93488 -2.512819
43.12341 -15.51319 -1.385893
62.125405 -19.071956 -1.737357
62.457165 -17.881174 -2.56078
61.091877 -18.753432 -1.657011
64.14093 -19.871821 -1.954068
63.970157 -21.08428 -1.177642
44.963226 -26.678131 17.887402
45.405941 -27.904985 17.96218
44.316038 -26.573026 17.372256
44.963226 -26.678131 17.887402
44.341082 -27.573649 16.721885
43.858063 -26.361894 16.713434
44.316038 -26.573026 17.372256
49.916954 -30.91922 11.015369
49.78134 -31.652837 11.945222
51.12597 -31.560752 10.873933
56.418316 -28.587136 5.862673
54.736849 -29.141291 6.907698
56.089685 -29.556116 6.747588
58.127817 -27.927413 4.851125
56.77498 -27.512588 5.011234
56.418316 -28.587136 5.862673
62.890557 -25.843041 1.945688
61.40498 -26.528551 2.8928
63.135128 -24.663636 1.158016
62.890557 -25.843041 1.945688
44.875553 -9.927878 -9.602079
44.77093 -10.798341 -8.731997
45.778446 -9.598387 -10.75009
44.875553 -9.927878 -9.602079
48.860491 -9.516056 -12.060378
49.968539 -8.568945 -13.092135
57.889072 -7.004781 -11.929378
57.843328 -8.199469 -10.820476
56.809984 -7.277627 -12.156046
57.889072 -7.004781 -11.929378
43.061051 -25.888824 15.368331
42.722292 -25.646397 14.664013
61.394554 -12.629133 -6.070813
60.119022 -13.698491 -5.168515
61.12643 -13.805037 -5.118113
61.530228 -11.407757 -7.035761
61.394554 -12.629133 -6.070813
42.484318 -16.458551 0.879624
42.194673 -16.83605 2.008095
43.421268 -16.839899 -0.256227
42.830246 -15.950356 -0.25913
42.484318 -16.458551 0.879624
63.671473 -22.284353 -0.398485
63.970157 -21.08428 -1.177642
62.675131 -21.826061 -0.275063
46.04541 -29.000194 17.953587
46.634241 -30.111791 18.024465
45.438526 -28.879991 17.372115
45.405941 -27.904985 17.96218
46.04541 -29.000194 17.953587
52.585271 -31.352378 9.795908
51.12597 -31.560752 10.873933
54.158588 -30.993946 8.720175
52.834902 -30.468703 8.868346
52.585271 -31.352378 9.795908
55.779241 -30.562117 7.649745
54.158588 -30.993946 8.720175
56.089685 -29.556116 6.747588
55.779241 -30.562117 7.649745
44.623202 -11.670346 -7.762183
44.449548 -12.39557 -6.795683
45.558239 -11.457138 -8.888089
44.77093 -10.798341 -8.731997
44.623202 -11.670346 -7.762183
51.105761 -8.455035 -13.049812
51.044184 -9.545243 -11.990471
52.22776 -8.362636 -12.948722
49.968539 -8.568945 -13.092135
51.105761 -8.455035 -13.049812
58.800673 -9.135314 -9.516579
59.818016 -9.014983 -9.334261
41.591109 -17.615057 4.250064
41.85101 -17.286104 3.140323
41.846148 -22.853517 10.447617
41.368142 -21.751191 10.481641
41.26338 -22.134259 11.428978
54.532783 -7.870791 -12.603378
53.383552 -8.100338 -12.793999
53.315414 -9.223296 -11.698761
41.334646 -22.401947 12.303244
41.26338 -22.134259 11.428978
41.771101 -23.581106 12.271262
41.334646 -22.401947 12.303244
41.364361 -22.746467 13.179552
41.980816 -24.223951 13.94217
41.582592 -22.980063 13.960252
42.401471 -24.978359 13.061225
41.980816 -24.223951 13.94217
42.58147 -25.276683 13.855825
60.870624 -8.929361 -9.178829
59.818016 -9.014983 -9.334261
59.713871 -10.223558 -8.282419
60.870624 -8.929361 -9.178829
61.774948 -8.984633 -9.061112
43.99888 -13.76147 -4.707992
44.230576 -13.1564 -5.755251
43.719475 -14.42361 -3.613702
43.446688 -14.93488 -2.512819
44.69316 -14.512944 -4.743122
43.99888 -13.76147 -4.707992
43.719475 -14.42361 -3.613702
42.073952 -18.650337 4.256691
41.591109 -17.615057 4.250064
41.428423 -21.452838 9.526834
41.368142 -21.751191 10.481641
41.645966 -21.035417 8.519997
41.428423 -21.452838 9.526834
42.168452 -22.053027 8.493443
41.816759 -20.706548 7.499035
41.645966 -21.035417 8.519997
42.121218 -20.255018 6.444145
41.816759 -20.706548 7.499035
42.690452 -21.184075 6.431716
42.377402 -19.892508 5.371613
42.121218 -20.255018 6.444145
42.740603 -19.403345 4.279675
42.377402 -19.892508 5.371613
43.358112 -20.243382 4.284887
43.054663 -19.001211 3.169966
42.073952 -18.650337 4.256691
42.740603 -19.403345 4.279675
60.57948 -16.177 -3.303064
60.915199 -15.016706 -4.208738
59.515179 -16.034689 -3.310141
61.701569 -16.360833 -3.341048
60.57948 -16.177 -3.303064
60.301548 -17.378817 -2.44245
62.661373 -16.659653 -3.387393
61.701569 -16.360833 -3.341048
62.661373 -16.659653 -3.387393
62.457165 -17.881174 -2.56078
63.232254 -19.412843 -1.847673
62.125405 -19.071956 -1.737357
61.866967 -20.285101 -0.943904
63.232254 -19.412843 -1.847673
64.14093 -19.871821 -1.954068
43.36072 -26.184821 16.104234
43.858063 -26.361894 16.713434
43.583437 -27.066519 15.32716
43.061051 -25.888824 15.368331
43.36072 -26.184821 16.104234
47.943699 -32.200914 15.722335
47.30649 -31.649464 16.569627
47.782849 -31.75869 14.830219
47.943699 -32.200914 15.722335
47.573071 -31.3592 14.001666
46.739418 -30.971955 14.947776
47.782849 -31.75869 14.830219
48.594412 -31.57862 12.985383
49.78134 -31.652837 11.945222
47.550981 -30.791885 13.102941
47.573071 -31.3592 14.001666
48.594412 -31.57862 12.985383
59.781136 -27.26314 3.85419
58.127817 -27.927413 4.851125
60.108326 -26.118276 3.038296
59.781136 -27.26314 3.85419
61.40498 -26.528551 2.8928
63.457266 -23.48486 0.37161
62.054308 -24.20491 1.2905
63.135128 -24.663636 1.158016
63.671473 -22.284353 -0.398485
63.457266 -23.48486 0.37161
47.692877 -10.379634 -11.047486
48.75457 -10.50122 -11.078667
48.860491 -9.516056 -12.060378
46.752382 -9.989802 -10.943549
46.646462 -10.974966 -9.961839
47.692877 -10.379634 -11.047486
45.778446 -9.598387 -10.75009
46.752382 -9.989802 -10.943549
57.684008 -9.3304 -9.723382
57.544598 -10.504268 -8.644654
58.800673 -9.135314 -9.516579
56.587254 -9.568423 -9.94855
57.684008 -9.3304 -9.723382
57.843328 -8.199469 -10.820476
55.669019 -7.555756 -12.387294
55.605609 -8.715619 -11.276893
56.809984 -7.277627 -12.156046
54.532783 -7.870791 -12.603378
55.669019 -7.555756 -12.387294
3 1 29 27
3 1 31 29
3 0 34 32
3 109 108 35
3 3 110 112
3 110 37 111
3 110 111 112
3 3 39 37
3 4 42 40
3 4 44 42
3 4 46 44
3 5 49 47
3 5 51 49
3 113 52 114
3 115 54 116
3 117 116 52
3 115 116 117
3 2 118 120
3 118 56 119
3 118 119 120
3 122 121 57
3 6 61 59
3 8 62 28
3 8 63 62
3 8 65 63
3 10 66 30
3 10 67 66
3 11 70 68
3 13 71 33
3 13 72 71
3 123 73 124
3 14 125 127
3 125 74 126
3 125 126 127
3 14 75 74
3 15 78 76
3 128 79 129
3 130 129 36
3 128 129 130
3 132 131 79
3 17 133 134
3 17 135 137
3 135 80 136
3 135 136 137
3 17 81 80
3 18 82 38
3 18 83 82
3 7 84 60
3 19 85 41
3 19 86 85
3 19 87 86
3 20 88 43
3 20 89 88
3 20 90 89
3 21 91 45
3 21 92 91
3 9 93 64
3 22 94 48
3 22 95 94
3 22 138 140
3 140 139 95
3 138 139 140
3 142 141 50
3 23 143 144
3 23 145 146
3 23 147 149
3 147 96 148
3 147 148 149
3 24 97 53
3 24 98 97
3 25 150 152
3 150 99 151
3 150 151 152
3 25 100 99
3 25 101 100
3 153 102 154
3 155 154 55
3 153 154 155
3 156 103 157
3 158 157 102
3 156 157 158
3 159 104 160
3 162 161 104
3 26 163 164
3 26 165 166
3 12 105 69
3 168 167 58
3 16 106 77
3 169 107 170
3 172 171 107
3 27 28 6
3 29 28 27
3 29 8 28
3 29 30 8
3 31 30 29
3 31 10 30
3 32 33 11
3 34 33 32
3 34 13 33
3 173 14 174
3 35 36 15
3 175 36 176
3 177 176 35
3 175 176 177
3 179 178 36
3 37 180 181
3 37 182 184
3 182 17 183
3 182 183 184
3 37 38 17
3 39 38 37
3 39 18 38
3 40 41 7
3 42 41 40
3 42 19 41
3 42 43 19
3 44 43 42
3 44 20 43
3 44 45 20
3 46 45 44
3 46 21 45
3 47 48 9
3 49 48 47
3 49 22 48
3 49 50 22
3 51 50 49
3 51 185 187
3 187 186 50
3 185 186 187
3 52 188 189
3 52 190 192
3 190 23 191
3 190 191 192
3 52 53 23
3 54 53 52
3 54 24 53
3 193 25 194
3 195 55 196
3 197 196 25
3 195 196 197
3 198 55 199
3 201 200 55
3 56 202 203
3 56 204 206
3 204 26 205
3 204 205 206
3 57 58 12
3 207 58 208
3 209 208 57
3 207 208 209
3 211 210 58
3 213 212 16
3 214 3 215
3 59 216 218
3 216 60 217
3 216 217 218
3 61 60 59
3 61 7 60
3 28 61 6
3 62 61 28
3 62 7 61
3 62 40 7
3 63 40 62
3 63 4 40
3 63 64 4
3 65 64 63
3 65 9 64
3 30 65 8
3 66 65 30
3 66 9 65
3 66 47 9
3 67 47 66
3 67 5 47
3 68 69 2
3 70 69 68
3 70 12 69
3 33 70 11
3 71 70 33
3 71 12 70
3 71 57 12
3 72 57 71
3 72 219 221
3 221 220 57
3 219 220 221
3 222 59 223
3 73 224 226
3 224 59 225
3 224 225 226
3 73 6 59
3 227 73 228
3 74 229 231
3 229 73 230
3 229 230 231
3 74 6 73
3 74 27 6
3 75 27 74
3 75 1 27
3 76 77 0
3 78 77 76
3 78 16 77
3 36 78 15
3 79 78 36
3 79 16 78
3 79 232 234
3 234 233 16
3 232 233 234
3 236 235 79
3 237 2 238
3 80 239 240
3 80 241 243
3 241 2 242
3 241 242 243
3 80 68 2
3 81 68 80
3 81 11 68
3 38 81 17
3 82 81 38
3 82 11 81
3 82 32 11
3 83 32 82
3 83 0 32
3 244 3 245
3 60 246 247
3 84 248 250
3 250 249 60
3 248 249 250
3 84 251 252
3 41 84 7
3 85 84 41
3 85 253 255
3 255 254 84
3 253 254 255
3 85 256 257
3 86 258 260
3 260 259 85
3 258 259 260
3 86 261 263
3 261 3 262
3 261 262 263
3 86 39 3
3 87 39 86
3 87 18 39
3 43 87 19
3 88 87 43
3 88 18 87
3 88 83 18
3 89 83 88
3 89 0 83
3 89 76 0
3 90 76 89
3 90 15 76
3 45 90 20
3 91 90 45
3 91 15 90
3 91 35 15
3 92 35 91
3 92 264 266
3 266 265 35
3 264 265 266
3 64 46 4
3 93 46 64
3 93 21 46
3 48 93 9
3 94 93 48
3 94 21 93
3 94 92 21
3 95 92 94
3 95 267 269
3 269 268 92
3 267 268 269
3 95 270 271
3 273 272 95
3 50 274 276
3 276 275 22
3 274 275 276
3 278 277 50
3 96 279 280
3 96 281 283
3 281 14 282
3 281 282 283
3 53 96 23
3 97 96 53
3 97 14 96
3 97 75 14
3 98 75 97
3 98 1 75
3 284 54 285
3 286 54 287
3 288 24 289
3 290 289 54
3 288 289 290
3 99 291 292
3 99 293 295
3 293 24 294
3 293 294 295
3 99 98 24
3 100 98 99
3 100 1 98
3 100 31 1
3 101 31 100
3 101 10 31
3 55 101 25
3 102 101 55
3 102 10 101
3 102 67 10
3 103 67 102
3 103 5 67
3 296 103 297
3 104 298 300
3 298 103 299
3 298 299 300
3 104 5 103
3 104 51 5
3 301 51 302
3 303 302 104
3 301 302 303
3 305 304 51
3 69 56 2
3 105 56 69
3 105 26 56
3 58 105 12
3 306 105 307
3 308 307 58
3 306 307 308
3 309 26 310
3 311 310 105
3 309 310 311
3 313 312 26
3 77 34 0
3 106 34 77
3 106 13 34
3 314 106 315
3 316 315 16
3 314 315 316
3 107 317 319
3 317 106 318
3 317 318 319
3 107 13 106
3 107 72 13
3 320 72 321
3 322 321 107
3 320 321 322
3 324 323 72
