ply
format ascii 1.0
element vertex 417
property float x
property float y
property float z
element face 456
property list uchar int vertex_index
end_header
-41.656693 53.175236 -19.803932
-26.753277 38.959602 -28.741283
-34.201569 59.648289 -22.735653
-17.440147 41.045692 -31.139942
-22.611906 27.397896 -30.774288
-36.28595 44.248241 -18.430038
-34.486629 47.515354 -24.480568
-24.519606 51.869358 -27.092197
-39.186356 47.453564 -11.337683
-39.311306 48.57687 -19.351906
-36.534176 45.833561 -22.090511
-38.392075 50.735859 -22.246456
-29.271122 56.145847 -24.752037
-44.136559 54.539707 -16.769016
-43.063351 51.142422 -12.51897
-41.425095 50.444447 -16.19673
-37.926334 46.34502 -15.08511
-30.077888 38.149044 -26.79586
-27.518847 33.158371 -28.61969
-22.422962 20.85392 -30.815266
-42.693184 58.167004 -19.444038
-39.131241 56.232433 -21.791656
-38.710472 62.148563 -20.700077
-45.336372 58.784 -16.216621
-22.311308 39.952274 -30.035294
-24.05835 33.51709 -30.175171
-19.930695 33.950268 -31.05732
-34.172169 41.316017 -21.331074
-33.282066 42.367847 -24.568493
-30.4044 43.613083 -26.707314
-34.813538 53.278652 -23.762695
-30.193712 49.567722 -25.854469
-25.85248 45.148991 -28.102486
-20.462608 46.854382 -29.461147
-40.43433 47.333546 -7.359762
-36.437477 43.284275 -6.26594
-25.997372 27.54496 -29.912853
-40.62188 50.826885 -19.65921
-39.191502 49.622059 -20.995049
-40.122025 52.068905 -21.075661
-42.989708 54.012058 -18.380238
-42.937149 52.476269 -16.591022
-41.86483 51.792423 -18.201393
-40.446735 49.638081 -17.837151
-28.592258 38.529987 -27.882095
-28.685881 35.745564 -27.770084
-27.117001 36.023628 -28.772999
-42.673378 60.751553 -18.868195
-40.985607 60.125309 -20.20549
-45.299747 60.923901 -15.404842
-44.107491 61.018787 -17.27243
-44.126583 58.651608 -17.957439
-19.88784 40.495384 -30.594833
-20.96059 37.049866 -30.687283
-18.670658 37.440182 -31.128834
-34.849609 42.089111 -17.920315
-34.02224 40.712757 -19.415092
-35.277786 42.887497 -19.934662
-35.820538 46.632069 -23.45034
-34.940262 44.190445 -23.356766
-33.966949 44.87933 -24.624409
-32.091324 42.952141 -25.769962
-32.430172 45.65205 -25.597641
-36.912483 57.909519 -22.32906
-37.04388 54.862263 -22.786388
-34.612331 56.404118 -23.277287
-26.836994 54.09837 -25.885033
-29.813055 52.782749 -25.303387
-27.463316 50.701321 -26.432938
-27.952572 47.450703 -26.979473
-25.24119 48.440304 -27.605656
-23.206808 45.991177 -28.750748
-22.378845 49.45705 -28.313908
-41.169182 49.354061 -11.967022
-41.856808 49.342037 -9.988508
-39.786118 47.556332 -9.360279
-38.329224 45.450382 -6.749479
-37.777534 45.57098 -8.753418
-35.995529 43.329502 -8.284807
-37.278 45.384052 -10.743702
-37.168854 45.404797 -16.812824
-36.227119 44.188801 -14.539536
-35.588951 43.243073 -16.291695
-23.171875 30.529068 -30.575787
-24.980968 30.47044 -30.058071
-24.368179 27.478115 -30.443275
-37.822624 46.397602 -18.925903
-36.655075 45.069462 -20.397945
-38.00362 47.299534 -20.761772
-37.580376 48.215656 -22.247299
-36.49654 49.211246 -23.368511
-31.751593 58.003315 -23.711224
-45.129623 54.732159 -14.959435
-44.718277 52.871906 -12.884089
-43.873436 52.84264 -14.815327
-42.281635 50.955944 -14.421324
-40.470737 49.03735 -13.867922
-38.584053 47.039829 -13.254772
-39.709312 48.414845 -15.666248
-38.837505 47.522305 -17.351643
-31.174339 37.810017 -25.44928
-29.930113 35.492771 -26.514507
-28.872614 32.993469 -27.488079
-28.045652 30.342888 -28.364929
-22.370289 24.159046 -30.824947
-24.055807 24.393379 -30.702328
-42.355488 55.627979 -19.744934
-40.73951 54.6497 -20.984936
-41.024807 57.348637 -20.702858
-39.054424 59.164715 -21.333714
-36.544205 61.04472 -21.76067
-46.351456 58.567387 -14.229141
-45.969139 56.641628 -14.780416
-44.948776 56.645672 -16.661594
-43.754234 56.303699 -18.315243
-24.630207 39.436161 -29.43576
-25.261538 36.33374 -29.557037
-23.183493 36.677219 -30.176586
-22.045807 33.72477 -30.678242
-21.238941 30.594933 -30.924248
-20.76947 27.311047 -30.940319
-20.629236 23.903687 -30.79504
-20.796963 20.411083 -30.590214
-33.02042 39.519909 -22.631435
-35.352798 43.550671 -21.77877
-33.960312 41.839348 -23.07806
-32.54245 39.927334 -24.301628
-31.634691 40.356598 -25.720554
-30.273516 40.838947 -26.867432
-28.487898 41.385555 -27.772732
-38.914314 53.411091 -22.093498
-36.909748 51.954311 -23.137897
-34.775749 50.311176 -24.176857
-32.22102 54.686893 -24.253395
-32.505638 51.509762 -24.777378
-32.577816 48.497555 -25.245644
-30.390518 46.513737 -26.347424
-28.290354 44.349869 -27.452522
-26.349333 41.9935 -28.505161
-23.955084 42.651779 -29.148926
-21.409483 43.344948 -29.777691
-18.807411 44.053074 -30.433605
-43.819592 50.99181 -10.515886
-38.978386 45.016552 -4.776737
-36.777924 44.91251 -12.682386
-25.901711 33.329784 -29.504421
-26.616983 30.412571 -29.331676
-27.46933 27.583466 -29.152058
-25.653624 24.60117 -30.395866
-41.660162 61.83453 -19.167561
-42.497429 62.036572 -18.430771
-43.214486 62.170189 -17.632888
-43.916594 62.184876 -16.758468
-42.497429 62.036572 -18.430771
-43.390434 60.88517 -18.070312
-43.214486 62.170189 -17.632888
-23.220326 21.057976 -30.861693
-23.193989 22.710539 -30.866533
-22.396625 22.506483 -30.820107
-19.827244 27.261927 -30.955774
-20.003496 28.988094 -31.039404
-19.757126 25.558247 -30.883135
-20.699353 25.607367 -30.86768
-19.827244 27.261927 -30.955774
-19.979266 20.16762 -30.424879
-19.831295 22.01556 -30.615136
-21.018912 18.64498 -30.516113
-19.979266 20.16762 -30.424879
-33.658327 40.198015 -21.058005
-33.583362 39.896385 -20.100014
-34.097204 41.014387 -20.373083
-33.596294 40.417963 -21.981254
-33.082453 39.299961 -21.708185
-33.658327 40.198015 -21.058005
-41.507721 48.165638 -7.664941
-42.21896 49.169883 -8.979313
-41.145569 48.337791 -8.674135
-40.803002 47.062077 -6.370242
-41.507721 48.165638 -7.664941
-39.706358 46.175049 -6.06825
-40.075029 45.903579 -5.078729
-40.803002 47.062077 -6.370242
-36.706557 43.114743 -5.27265
-37.65243 44.197796 -5.514419
-37.383351 44.367328 -6.507709
-35.878597 41.903763 -5.138381
-36.706557 43.114743 -5.27265
-35.67205 42.037319 -6.143258
-35.878597 41.903763 -5.138381
-35.286977 42.062216 -8.170217
-35.798321 43.212791 -9.287947
-35.71497 43.400478 -13.392563
-35.492317 43.049107 -14.326644
-25.605933 23.116507 -30.617628
-24.854716 24.497274 -30.549097
-24.807025 23.012611 -30.770859
-23.318157 19.492985 -30.984186
-22.578207 19.19115 -30.833106
-40.816277 61.521408 -19.836208
-41.829493 60.438431 -19.536842
-41.660162 61.83453 -19.167561
-39.678709 62.533035 -20.083502
-39.848039 61.136936 -20.452784
-40.816277 61.521408 -19.836208
-44.512722 62.137433 -15.824673
-45.086903 61.971161 -14.813591
-44.703619 60.971344 -16.338636
-44.512722 62.137433 -15.824673
-43.916594 62.184876 -16.758468
-34.435924 41.400934 -18.667704
-33.839659 40.308639 -18.437542
-34.253343 40.996817 -17.690153
-36.439556 44.240066 -10.517394
-35.798321 43.212791 -9.287947
-36.636764 44.356777 -9.514254
-35.173233 42.576243 -15.202724
-35.492317 43.049107 -14.326644
-35.908035 43.715937 -15.415616
-34.915157 42.126269 -16.077168
-35.173233 42.576243 -15.202724
-34.545486 41.549288 -16.891478
-34.915157 42.126269 -16.077168
-35.21928 42.666092 -17.106005
-34.253343 40.996817 -17.690153
-34.545486 41.549288 -16.891478
-16.910001 39.436029 -31.328428
-16.234437 41.309221 -31.40271
-31.440546 59.706238 -23.432862
-32.976581 58.825802 -23.223439
-32.665534 60.528725 -22.945076
-30.17483 58.812767 -23.967648
-31.440546 59.706238 -23.432862
-28.934594 57.884033 -24.488055
-30.511357 57.074581 -24.231631
-30.17483 58.812767 -23.967648
-27.685105 56.883038 -25.065058
-28.934594 57.884033 -24.488055
-26.468041 55.859299 -25.631555
-28.054058 55.122109 -25.318535
-27.685105 56.883038 -25.065058
-25.271391 54.761242 -26.251648
-26.468041 55.859299 -25.631555
-24.112697 53.646736 -26.85523
-25.6783 52.983864 -26.488615
-25.271391 54.761242 -26.251648
-22.592791 54.233181 -27.259626
-22.9997 52.455803 -27.496593
-24.112697 53.646736 -26.85523
-44.92395 53.802033 -13.921762
-45.364462 53.727715 -12.925593
-45.570135 54.657841 -13.963265
-31.009838 36.53117 -25.228247
-31.531395 37.652226 -24.65078
-30.387725 35.372547 -25.76086
-31.009838 36.53117 -25.228247
-30.552226 36.651394 -25.981893
-29.941117 34.157562 -26.309015
-30.387725 35.372547 -25.76086
-29.412368 32.907911 -26.795801
-29.941117 34.157562 -26.309015
-29.401363 34.24312 -27.001293
-29.062772 31.619684 -27.317018
-29.412368 32.907911 -26.795801
-28.649291 30.294393 -27.755443
-29.062772 31.619684 -27.317018
-28.459133 31.668178 -27.926504
-28.407396 28.958702 -28.254255
-28.649291 30.294393 -27.755443
-24.036748 22.827706 -30.805224
-23.213048 24.276212 -30.763638
-23.193989 22.710539 -30.866533
-24.807025 23.012611 -30.770859
-24.036748 22.827706 -30.805224
-23.220326 21.057976 -30.861693
-23.318157 19.492985 -30.984186
-38.421063 63.626352 -20.281557
-39.678709 62.533035 -20.083502
-37.34062 63.170908 -20.878241
-38.421063 63.626352 -20.281557
-36.257486 62.618986 -21.408537
-37.627339 61.596642 -21.230373
-37.34062 63.170908 -20.878241
-35.078836 61.995922 -21.942393
-36.257486 62.618986 -21.408537
-33.907518 61.297707 -22.429884
-35.372887 60.346504 -22.248162
-35.078836 61.995922 -21.942393
-32.665534 60.528725 -22.945076
-33.907518 61.297707 -22.429884
-45.789705 60.704514 -14.345154
-45.086903 61.971161 -14.813591
-46.315559 59.526257 -13.757303
-45.789705 60.704514 -14.345154
-45.825602 59.745644 -14.816992
-46.780899 58.2958 -13.129133
-46.315559 59.526257 -13.757303
-46.603184 57.433895 -13.462635
-46.780899 58.2958 -13.129133
-46.412025 56.471016 -13.738273
-46.603184 57.433895 -13.462635
-46.160297 57.604507 -14.504779
-45.989893 55.612575 -13.873756
-46.412025 56.471016 -13.738273
-45.549381 55.686893 -14.869926
-45.570135 54.657841 -13.963265
-45.989893 55.612575 -13.873756
-17.525257 37.633274 -31.322874
-18.055402 39.242937 -31.134388
-16.910001 39.436029 -31.328428
-18.224101 35.81061 -31.235298
-17.525257 37.633274 -31.322874
-18.854119 34.065653 -31.199542
-19.300677 35.695225 -31.093077
-18.224101 35.81061 -31.235298
-19.584108 32.307705 -31.097904
-18.854119 34.065653 -31.199542
-20.238231 30.630038 -31.031368
-20.584818 32.272601 -30.990784
-19.584108 32.307705 -31.097904
-21.004205 28.95299 -30.932283
-20.238231 30.630038 -31.031368
-20.003496 28.988094 -31.039404
-19.747431 23.761862 -30.717548
-19.757126 25.558247 -30.883135
-20.713099 22.157385 -30.692627
-19.747431 23.761862 -30.717548
-19.831295 22.01556 -30.615136
-21.765208 18.969732 -30.720579
-22.578207 19.19115 -30.833106
-21.609963 20.632502 -30.70274
-21.765208 18.969732 -30.720579
-21.018912 18.64498 -30.516113
-33.527035 39.620695 -19.15184
-33.839659 40.308639 -18.437542
-33.527035 39.620695 -19.15184
-33.583362 39.896385 -20.100014
-32.645684 38.345705 -22.347143
-33.082453 39.299961 -21.708185
-32.454436 38.507171 -23.241858
-32.645684 38.345705 -22.347143
-32.215451 38.710884 -24.076954
-32.454436 38.507171 -23.241858
-32.781435 39.723622 -23.466532
-31.858395 38.868676 -24.875454
-31.531395 37.652226 -24.65078
-32.215451 38.710884 -24.076954
-21.929319 51.249649 -28.107449
-23.449225 50.663204 -27.703052
-22.9997 52.455803 -27.496593
-20.923995 49.965408 -28.729899
-21.929319 51.249649 -28.107449
-19.965877 48.664074 -29.303518
-21.420727 48.155716 -28.887528
-20.923995 49.965408 -28.729899
-19.085753 47.283352 -29.856691
-19.965877 48.664074 -29.303518
-18.258155 45.882698 -30.34292
-19.635009 45.453728 -29.947376
-19.085753 47.283352 -29.856691
-17.515379 44.400935 -30.776352
-18.258155 45.882698 -30.34292
-16.831747 42.897244 -31.12952
-18.123779 42.549383 -30.786774
-17.515379 44.400935 -30.776352
-16.234437 41.309221 -31.40271
-16.831747 42.897244 -31.12952
-45.117903 52.718509 -11.855837
-45.364462 53.727715 -12.925593
-44.66856 51.778461 -10.671736
-45.117903 52.718509 -11.855837
-44.268935 51.931858 -11.699987
-44.206661 50.752296 -9.483915
-44.66856 51.778461 -10.671736
-43.200352 49.99477 -9.243002
-42.8382 50.166923 -10.252197
-42.21896 49.169883 -8.979313
-44.206661 50.752296 -9.483915
-43.200352 49.99477 -9.243002
-39.367285 44.649855 -3.829734
-40.075029 45.903579 -5.078729
-38.312853 43.665716 -3.575171
-39.367285 44.649855 -3.829734
-37.977011 43.980881 -4.528048
-38.653805 45.233467 -5.763108
-37.65243 44.197796 -5.514419
-38.312853 43.665716 -3.575171
-37.977011 43.980881 -4.528048
-35.451076 42.059933 -7.152692
-35.67205 42.037319 -6.143258
-36.216503 43.306888 -7.275374
-35.451076 42.059933 -7.152692
-35.286977 42.062216 -8.170217
-36.189518 44.004295 -11.486736
-36.439556 44.240066 -10.517394
-37.027962 45.148281 -11.713044
-35.990372 43.762333 -12.463988
-36.502522 44.550655 -13.610961
-35.71497 43.400478 -13.392563
-36.189518 44.004295 -11.486736
-35.990372 43.762333 -12.463988
-28.119235 27.578991 -28.64782
-28.407396 28.958702 -28.254255
-27.757491 28.963177 -28.758494
-26.339671 23.274513 -30.486832
-25.605933 23.116507 -30.617628
-26.396159 24.683844 -30.135244
-26.339671 23.274513 -30.486832
-26.568033 26.155739 -29.893738
-25.825498 26.073065 -30.154359
-26.396159 24.683844 -30.135244
-27.304012 26.174992 -29.51334
-26.733351 27.564213 -29.532455
-26.568033 26.155739 -29.893738
-27.983126 26.2253 -29.133928
-27.304012 26.174992 -29.51334
-28.119235 27.578991 -28.64782
-27.983126 26.2253 -29.133928
3 0 39 37
3 0 42 40
3 0 37 42
3 1 46 44
3 150 149 47
3 151 50 152
3 153 47 154
3 155 154 50
3 153 154 155
3 3 54 52
3 5 57 55
3 6 60 58
3 6 62 60
3 2 65 63
3 7 68 66
3 7 70 68
3 7 72 70
3 8 75 73
3 8 77 75
3 8 79 77
3 5 82 80
3 5 55 82
3 4 85 83
3 9 88 86
3 11 89 38
3 11 90 89
3 13 94 92
3 15 95 41
3 15 96 95
3 15 98 96
3 9 99 43
3 9 86 99
3 17 101 100
3 18 102 45
3 18 103 102
3 19 156 158
3 158 157 104
3 156 157 158
3 20 108 106
3 22 109 48
3 22 110 109
3 23 111 49
3 23 112 111
3 23 113 112
3 20 114 51
3 20 106 114
3 24 117 115
3 26 118 53
3 26 119 118
3 159 120 160
3 161 121 162
3 163 162 120
3 161 162 163
3 164 122 165
3 167 166 122
3 27 168 170
3 170 169 56
3 168 169 170
3 27 171 173
3 171 123 172
3 171 172 173
3 10 124 87
3 28 125 59
3 28 126 125
3 28 127 126
3 29 128 61
3 29 129 128
3 21 130 107
3 30 131 64
3 30 132 131
3 12 133 91
3 31 134 67
3 31 135 134
3 31 136 135
3 32 137 69
3 32 138 137
3 32 139 138
3 33 140 71
3 33 141 140
3 14 142 93
3 34 174 176
3 176 175 74
3 174 175 176
3 34 177 178
3 34 179 181
3 179 143 180
3 179 180 181
3 35 182 184
3 184 183 76
3 182 183 184
3 35 185 186
3 35 187 188
3 190 189 78
3 16 144 97
3 192 191 81
3 25 145 116
3 36 146 84
3 36 147 146
3 193 148 194
3 195 194 105
3 193 194 195
3 37 38 9
3 39 38 37
3 39 11 38
3 40 41 13
3 42 41 40
3 42 15 41
3 42 43 15
3 37 43 42
3 37 9 43
3 44 45 17
3 46 45 44
3 46 18 45
3 197 196 19
3 47 48 20
3 198 48 199
3 200 199 47
3 198 199 200
3 201 22 202
3 203 202 48
3 201 202 203
3 204 49 205
3 50 206 208
3 206 49 207
3 206 207 208
3 50 23 49
3 50 51 23
3 47 51 50
3 47 20 51
3 52 53 24
3 54 53 52
3 54 26 53
3 55 209 211
3 209 56 210
3 209 210 211
3 57 56 55
3 57 27 56
3 58 59 10
3 60 59 58
3 60 28 59
3 60 61 28
3 62 61 60
3 62 29 61
3 63 64 21
3 65 64 63
3 65 30 64
3 66 67 12
3 68 67 66
3 68 31 67
3 68 69 31
3 70 69 68
3 70 32 69
3 70 71 32
3 72 71 70
3 72 33 71
3 73 74 14
3 75 74 73
3 75 34 74
3 75 76 34
3 77 76 75
3 77 35 76
3 77 78 35
3 79 78 77
3 79 212 214
3 214 213 78
3 212 213 214
3 80 81 16
3 82 81 80
3 82 215 217
3 217 216 81
3 215 216 217
3 82 218 219
3 55 220 222
3 222 221 82
3 220 221 222
3 55 223 224
3 83 84 25
3 85 84 83
3 85 36 84
3 226 225 3
3 86 87 5
3 88 87 86
3 88 10 87
3 38 88 9
3 89 88 38
3 89 10 88
3 89 58 10
3 90 58 89
3 90 6 58
3 227 91 228
3 229 228 2
3 227 228 229
3 230 91 231
3 232 12 233
3 234 233 91
3 232 233 234
3 235 12 236
3 237 66 238
3 239 238 12
3 237 238 239
3 240 66 241
3 242 7 243
3 244 243 66
3 242 243 244
3 247 246 7
3 245 246 247
3 92 248 250
3 248 93 249
3 248 249 250
3 94 93 92
3 94 14 93
3 41 94 13
3 95 94 41
3 95 14 94
3 95 73 14
3 96 73 95
3 96 8 73
3 96 97 8
3 98 97 96
3 98 16 97
3 43 98 15
3 99 98 43
3 99 16 98
3 99 80 16
3 86 80 99
3 86 5 80
3 100 251 252
3 101 253 255
3 255 254 100
3 253 254 255
3 101 256 257
3 45 101 17
3 102 101 45
3 102 258 260
3 260 259 101
3 258 259 260
3 102 261 262
3 103 263 265
3 265 264 102
3 263 264 265
3 103 266 267
3 104 105 4
3 268 105 269
3 270 269 104
3 268 269 270
3 272 271 105
3 274 273 19
3 106 107 0
3 108 107 106
3 108 21 107
3 48 108 20
3 109 108 48
3 109 21 108
3 109 63 21
3 110 63 109
3 110 2 63
3 275 22 276
3 277 22 278
3 279 110 280
3 281 280 22
3 279 280 281
3 282 110 283
3 284 2 285
3 286 285 110
3 284 285 286
3 288 287 2
3 49 289 290
3 111 291 293
3 293 292 49
3 291 292 293
3 111 294 295
3 111 296 297
3 112 298 300
3 300 299 111
3 298 299 300
3 112 301 302
3 112 303 305
3 303 92 304
3 303 304 305
3 113 92 112
3 113 13 92
3 51 113 23
3 114 113 51
3 114 13 113
3 114 40 13
3 106 40 114
3 106 0 40
3 115 116 1
3 117 116 115
3 117 25 116
3 53 117 24
3 118 117 53
3 118 25 117
3 118 83 25
3 119 83 118
3 119 4 83
3 306 54 307
3 308 307 3
3 306 307 308
3 309 54 310
3 311 26 312
3 313 312 54
3 311 312 313
3 314 26 315
3 316 119 317
3 318 317 26
3 316 317 318
3 120 319 321
3 319 119 320
3 319 320 321
3 120 4 119
3 120 104 4
3 121 104 120
3 121 19 104
3 322 121 323
3 122 324 326
3 324 121 325
3 324 325 326
3 122 19 121
3 122 327 329
3 329 328 19
3 327 328 329
3 331 330 122
3 56 332 333
3 335 334 56
3 123 336 337
3 123 338 339
3 87 57 5
3 124 57 87
3 124 27 57
3 59 124 10
3 125 124 59
3 125 27 124
3 125 123 27
3 126 123 125
3 126 340 342
3 342 341 123
3 340 341 342
3 126 343 345
3 343 100 344
3 343 344 345
3 127 100 126
3 127 17 100
3 61 127 28
3 128 127 61
3 128 17 127
3 128 44 17
3 129 44 128
3 129 1 44
3 107 39 0
3 130 39 107
3 130 11 39
3 64 130 21
3 131 130 64
3 131 11 130
3 131 90 11
3 132 90 131
3 132 6 90
3 91 65 2
3 133 65 91
3 133 30 65
3 67 133 12
3 134 133 67
3 134 30 133
3 134 132 30
3 135 132 134
3 135 6 132
3 135 62 6
3 136 62 135
3 136 29 62
3 69 136 31
3 137 136 69
3 137 29 136
3 137 129 29
3 138 129 137
3 138 1 129
3 138 115 1
3 139 115 138
3 139 24 115
3 71 139 32
3 140 139 71
3 140 24 139
3 140 52 24
3 141 52 140
3 141 3 52
3 346 72 347
3 348 347 7
3 346 347 348
3 349 72 350
3 351 33 352
3 353 352 72
3 351 352 353
3 354 33 355
3 356 141 357
3 358 357 33
3 356 357 358
3 359 141 360
3 361 3 362
3 363 362 141
3 361 362 363
3 365 364 3
3 93 366 367
3 142 368 370
3 370 369 93
3 368 369 370
3 142 371 372
3 74 142 14
3 373 142 374
3 375 374 74
3 373 374 375
3 377 376 142
3 143 378 379
3 143 380 381
3 76 143 34
3 382 143 383
3 384 383 76
3 382 383 384
3 386 385 143
3 78 387 389
3 389 388 35
3 387 388 389
3 391 390 78
3 97 79 8
3 144 79 97
3 144 392 394
3 394 393 79
3 392 393 394
3 81 144 16
3 395 144 396
3 397 396 81
3 395 396 397
3 399 398 144
3 116 46 1
3 145 46 116
3 145 18 46
3 84 145 25
3 146 145 84
3 146 18 145
3 146 103 18
3 147 103 146
3 147 400 402
3 402 401 103
3 400 401 402
3 105 85 4
3 148 85 105
3 148 36 85
3 403 148 404
3 405 148 406
3 407 36 408
3 409 408 148
3 407 408 409
3 410 147 411
3 412 411 36
3 410 411 412
3 413 147 414
3 416 415 147
